<?xml version="1.0" encoding="utf-8"?>
<!-- Generator: Adobe Illustrator 22.0.0, SVG Export Plug-In . SVG Version: 6.00 Build 0)  -->
<svg version="1.1" id="图层_1" xmlns="http://www.w3.org/2000/svg" xmlns:xlink="http://www.w3.org/1999/xlink" x="0px" y="0px"
	 viewBox="0 0 680.3 226.8" style="enable-background:new 0 0 680.3 226.8;" xml:space="preserve">
<style type="text/css">
	.st0{fill:#736357;}
	.st1{font-family:'Calibri-Bold';}
	.st2{font-size:44.6324px;}
	.st3{fill:none;stroke:#000000;stroke-width:2;stroke-miterlimit:10;}
	.st4{fill:#F2F2F2;}
	.st5{fill:#FFFFFF;stroke:#736357;stroke-width:5;stroke-miterlimit:10;}
	.st6{fill:none;stroke:#736357;stroke-width:5;stroke-miterlimit:10;}
	.st7{fill:none;stroke:#736357;stroke-width:3;stroke-miterlimit:10;}
	.st8{fill:none;stroke:#C1272D;stroke-width:5;stroke-miterlimit:10;}
	.st9{fill:#C1272D;}
	.st10{fill:#CCCCCC;stroke:#C1272D;stroke-width:5;stroke-miterlimit:10;}
	.st11{fill:none;stroke:#C1272D;stroke-width:3;stroke-miterlimit:10;}
</style>
<g>
	<text transform="matrix(0.9822 0 0 1 243.7246 135.7267)" class="st0 st1 st2">DNA SPIDER-WEB</text>
	<text transform="matrix(0.9822 0 0 1 243.7246 135.7267)" class="st3 st1 st2">DNA SPIDER-WEB</text>
	<ellipse class="st4" cx="172.3" cy="124.6" rx="43.2" ry="43.9"/>
	<ellipse class="st5" cx="217.3" cy="151.6" rx="15.5" ry="15.8"/>
	<ellipse class="st5" cx="127.3" cy="151.6" rx="15.5" ry="15.8"/>
	<g>
		<g>
			<line class="st6" x1="144.6" y1="143.9" x2="155.9" y2="137.5"/>
			<g>
				<polygon class="st0" points="152.2,145.5 145.4,143.4 147.4,136.4 143.5,138.5 141.6,145.5 148.5,147.5 				"/>
			</g>
		</g>
	</g>
	<line class="st7" x1="111.7" y1="151.6" x2="142.7" y2="151.6"/>
	<line class="st7" x1="201.8" y1="151.6" x2="232.8" y2="151.6"/>
	<g>
		<g>
			<path class="st0" d="M130.3,159c0,2.5-1,4.2-3,4.2c-2.1,0-2.9-1.9-3-4.2c0-2.4,1-4.2,3-4.2C129.4,154.8,130.3,156.8,130.3,159z
				 M126.1,159c0,1.9,0.4,2.7,1.1,2.7c0.7,0,1.1-1,1.1-2.7c0-1.8-0.4-2.7-1.1-2.7C126.7,156.3,126.1,157.2,126.1,159z"/>
		</g>
	</g>
	<g>
		<g>
			<path class="st0" d="M216.9,156.7L216.9,156.7l-1.5,0.7l-0.3-1.4l2.1-1h1.5v8.1h-1.8V156.7L216.9,156.7z"/>
		</g>
	</g>
	<g>
		<g>
			<path class="st0" d="M130.7,148.1c-0.6,0.2-1.7,0.5-2.7,0.5c-1.5,0-2.6-0.4-3.4-1.1c-0.7-0.7-1.1-1.8-1.1-3c0-2.8,2-4.3,4.7-4.3
				c1,0,1.9,0.2,2.2,0.4l-0.4,1.5c-0.4-0.2-1-0.4-1.9-0.4c-1.5,0-2.7,0.9-2.7,2.7c0,1.8,1.1,2.7,2.6,2.7c0.4,0,0.7-0.1,1-0.2v-1.8
				h-1.4v-1.5h3V148.1L130.7,148.1z"/>
		</g>
	</g>
	<g>
		<g>
			<path class="st0" d="M216.3,141.7h-2.2v-1.6h6.4v1.6h-2.2v6.7h-1.8L216.3,141.7L216.3,141.7z"/>
		</g>
	</g>
	<g>
		<g>
			<path class="st8" d="M195.1,103.6c7.2,4.2,10.3,13.1,7.9,20.8"/>
			<g>
				<polygon class="st9" points="200.7,116.6 203.3,123.6 210.1,120.8 208.3,124.8 201.5,127.6 198.8,120.6 				"/>
			</g>
		</g>
	</g>
	<ellipse class="st10" cx="172.3" cy="124.6" rx="20.7" ry="21"/>
	<g>
		<g>
			<path class="st0" d="M176.4,134.1c0,3.4-1.4,5.8-4.2,5.8c-2.9,0-4.2-2.6-4.2-5.8c0-3.2,1.4-5.8,4.2-5.8
				C175.2,128.3,176.4,131,176.4,134.1z M170.7,134.2c0,2.6,0.6,3.8,1.6,3.8s1.6-1.3,1.6-3.8c0-2.5-0.6-3.8-1.6-3.8
				S170.7,131.6,170.7,134.2z"/>
		</g>
	</g>
	<line class="st11" x1="151.6" y1="124.6" x2="193" y2="124.6"/>
	<g>
		<g>
			<path class="st0" d="M170.4,117.3l-0.8,3h-2.7l3.5-11.8h3.4l3.6,11.8h-2.8l-1-3H170.4z M173.4,115.3l-0.7-2.5
				c-0.2-0.6-0.4-1.5-0.6-2.2H172c-0.2,0.6-0.4,1.5-0.6,2.2l-0.6,2.5H173.4z"/>
		</g>
	</g>
	<g>
		<g>
			<line class="st8" x1="200" y1="144" x2="188.9" y2="137.2"/>
			<g>
				<polygon class="st9" points="197.4,136.4 199.2,143.4 192.3,145.3 195.9,147.5 202.9,145.6 201.1,138.7 				"/>
			</g>
		</g>
	</g>
	<g>
		<g>
			<line class="st8" x1="172.3" y1="100" x2="172.3" y2="89.8"/>
			<g>
				<polygon class="st9" points="177.5,93.8 172.3,99.1 167.1,93.8 167.1,98.3 172.3,103.6 177.5,98.3 				"/>
			</g>
		</g>
	</g>
	<ellipse class="st5" cx="172.3" cy="74" rx="15.5" ry="15.8"/>
	<line class="st7" x1="156.7" y1="74" x2="187.8" y2="74"/>
	<g>
		<g>
			<path class="st0" d="M171.7,78.9L171.7,78.9l-1.5,0.7l-0.3-1.4l2.1-1h1.5v8h-1.8V78.9z"/>
		</g>
	</g>
	<g>
		<g>
			<path class="st0" d="M175.4,71.1c-0.3,0.2-1.1,0.4-2.1,0.4c-2.9,0-4.3-1.8-4.3-4.2c0-2.8,2-4.4,4.5-4.4c1,0,1.8,0.2,2,0.4
				l-0.4,1.5c-0.4-0.2-1-0.3-1.6-0.3c-1.4,0-2.6,1-2.6,2.8c0,1.7,1,2.7,2.6,2.7c0.6,0,1.1-0.2,1.5-0.2L175.4,71.1z"/>
		</g>
	</g>
</g>
</svg>
