<?xml version="1.0" encoding="utf-8"?>
<!-- Generator: Adobe Illustrator 22.0.0, SVG Export Plug-In . SVG Version: 6.00 Build 0)  -->
<svg version="1.1" id="logo" xmlns="http://www.w3.org/2000/svg" xmlns:xlink="http://www.w3.org/1999/xlink" x="0px" y="0px"
	 viewBox="0 0 1020.5 226.8" style="enable-background:new 0 0 1020.5 226.8;" xml:space="preserve">
<style type="text/css">
	.st0{fill:#736357;}
	.st1{font-family:'Calibri-Bold';}
	.st2{font-size:72px;}
	.st3{fill:none;stroke:#000000;stroke-width:2;stroke-miterlimit:10;}
	.st4{fill:#F2F2F2;}
	.st5{fill:#FFFFFF;stroke:#736357;stroke-width:5;stroke-miterlimit:10;}
	.st6{fill:none;stroke:#736357;stroke-width:5;stroke-miterlimit:10;}
	.st7{fill:none;stroke:#736357;stroke-width:3;stroke-miterlimit:10;}
	.st8{fill:none;stroke:#C1272D;stroke-width:5;stroke-miterlimit:10;}
	.st9{fill:#C1272D;}
	.st10{fill:#CCCCCC;stroke:#C1272D;stroke-width:5;stroke-miterlimit:10;}
	.st11{fill:none;stroke:#C1272D;stroke-width:3;stroke-miterlimit:10;}
</style>
<g>
	<text transform="matrix(1 0 0 1 353.4535 151.2358)" class="st0 st1 st2">DNA SPIDER-WEB</text>
	<text transform="matrix(1 0 0 1 353.4535 151.2358)" class="st3 st1 st2">DNA SPIDER-WEB</text>
	<circle class="st4" cx="236.1" cy="133.3" r="70.9"/>
	<circle class="st5" cx="310.1" cy="176.7" r="25.5"/>
	<circle class="st5" cx="162.2" cy="176.9" r="25.5"/>
	<g>
		<g>
			<line class="st6" x1="190.6" y1="164.3" x2="209.2" y2="154.1"/>
			<g>
				<polygon class="st0" points="203.1,166.9 191.9,163.6 195.2,152.3 189,155.7 185.7,166.9 197,170.2 				"/>
			</g>
		</g>
	</g>
	<line class="st7" x1="136.7" y1="176.9" x2="187.7" y2="176.9"/>
	<line class="st7" x1="284.6" y1="176.7" x2="335.6" y2="176.7"/>
	<g>
		<g>
			<path class="st0" d="M167.1,188.8c0,4-1.6,6.8-4.9,6.8c-3.4,0-4.8-3-4.9-6.7c0-3.8,1.6-6.7,4.9-6.7
				C165.7,182.1,167.1,185.2,167.1,188.8z M160.3,188.8c0,3,0.7,4.4,1.9,4.4c1.2,0,1.8-1.5,1.8-4.4s-0.6-4.4-1.8-4.4
				C161.1,184.4,160.3,185.8,160.3,188.8z"/>
		</g>
	</g>
	<g>
		<g>
			<path class="st0" d="M309.3,185L309.3,185l-2.5,1.2l-0.5-2.3l3.4-1.6h2.5v13h-2.9V185z"/>
		</g>
	</g>
	<g>
		<g>
			<path class="st0" d="M167.9,171.2c-0.9,0.3-2.7,0.8-4.5,0.8c-2.5,0-4.2-0.6-5.5-1.8c-1.2-1.2-1.9-2.9-1.9-4.9c0-4.5,3.3-7,7.7-7
				c1.7,0,3.1,0.3,3.7,0.6l-0.6,2.4c-0.7-0.3-1.7-0.6-3.1-0.6c-2.5,0-4.5,1.4-4.5,4.4c0,2.8,1.8,4.4,4.3,4.4c0.7,0,1.2-0.1,1.5-0.2
				v-2.8h-2.1v-2.4h5V171.2z"/>
		</g>
	</g>
	<g>
		<g>
			<path class="st0" d="M308.5,160.9h-3.6v-2.6h10.4v2.6h-3.7v10.9h-3L308.5,160.9L308.5,160.9z"/>
		</g>
	</g>
	<g>
		<g>
			<path class="st8" d="M273.7,99.3c11.9,6.9,17,21.1,12.9,33.6"/>
			<g>
				<polygon class="st9" points="282.7,120.3 287.1,131.5 298.3,127.2 295.3,133.7 284.2,138.1 279.8,126.9 				"/>
			</g>
		</g>
	</g>
	<ellipse class="st10" cx="236.1" cy="133.3" rx="34" ry="34"/>
	<g>
		<g>
			<path class="st0" d="M242.9,148.6c0,5.6-2.3,9.5-6.9,9.5c-4.7,0-6.8-4.2-6.8-9.4c0-5.3,2.2-9.4,6.9-9.4
				C241,139.3,242.9,143.6,242.9,148.6z M233.5,148.7c0,4.2,1,6.2,2.6,6.2c1.7,0,2.6-2.1,2.6-6.2c0-4-0.9-6.2-2.6-6.2
				C234.5,142.5,233.5,144.5,233.5,148.7z"/>
		</g>
	</g>
	<line class="st11" x1="202.1" y1="133.3" x2="270.1" y2="133.3"/>
	<g>
		<g>
			<path class="st0" d="M233.1,121.5l-1.3,4.8h-4.4l5.8-18.9h5.6l5.9,18.9h-4.6l-1.5-4.8H233.1z M237.9,118.3l-1.2-4
				c-0.3-1.1-0.7-2.5-0.9-3.6h-0.1c-0.3,1.1-0.6,2.5-0.9,3.6l-1.1,4H237.9z"/>
		</g>
	</g>
	<g>
		<g>
			<line class="st8" x1="281.6" y1="164.5" x2="263.3" y2="153.7"/>
			<g>
				<polygon class="st9" points="277.4,152.3 280.3,163.7 268.9,166.7 275,170.2 286.4,167.3 283.4,155.9 				"/>
			</g>
		</g>
	</g>
	<g>
		<g>
			<line class="st8" x1="236.1" y1="93.6" x2="236.1" y2="77.2"/>
			<g>
				<polygon class="st9" points="244.6,83.6 236.1,92.1 227.6,83.6 227.6,90.8 236.1,99.3 244.6,90.8 				"/>
			</g>
		</g>
	</g>
	<circle class="st5" cx="236.1" cy="51.7" r="25.5"/>
	<line class="st7" x1="210.6" y1="51.7" x2="261.6" y2="51.7"/>
	<g>
		<g>
			<path class="st0" d="M235.2,59.5L235.2,59.5l-2.5,1.2l-0.5-2.3l3.4-1.6h2.5v13h-2.9V59.5z"/>
		</g>
	</g>
	<g>
		<g>
			<path class="st0" d="M241.3,46.9c-0.5,0.3-1.8,0.6-3.4,0.6c-4.7,0-7.1-2.9-7.1-6.8c0-4.6,3.3-7.1,7.4-7.1c1.6,0,2.8,0.3,3.3,0.6
				l-0.6,2.4c-0.6-0.3-1.5-0.5-2.6-0.5c-2.4,0-4.3,1.5-4.3,4.5c0,2.7,1.6,4.4,4.3,4.4c0.9,0,1.9-0.2,2.5-0.4L241.3,46.9z"/>
		</g>
	</g>
</g>
</svg>
