<?xml version="1.0" encoding="utf-8"?>
<!-- Generator: Adobe Illustrator 22.0.0, SVG Export Plug-In . SVG Version: 6.00 Build 0)  -->
<svg version="1.1" id="图层_1" xmlns="http://www.w3.org/2000/svg" xmlns:xlink="http://www.w3.org/1999/xlink" x="0px" y="0px"
	 viewBox="0 0 680.3 226.8" style="enable-background:new 0 0 680.3 226.8;" xml:space="preserve">
<style type="text/css">
	.st0{fill:#736357;}
	.st1{font-family:'Calibri-Bold';}
	.st2{font-size:55.7937px;}
	.st3{fill:none;stroke:#000000;stroke-width:2;stroke-miterlimit:10;}
	.st4{fill:#F2F2F2;}
	.st5{fill:#FFFFFF;stroke:#736357;stroke-width:5;stroke-miterlimit:10;}
	.st6{fill:none;stroke:#736357;stroke-width:5;stroke-miterlimit:10;}
	.st7{fill:none;stroke:#736357;stroke-width:3;stroke-miterlimit:10;}
	.st8{fill:none;stroke:#C1272D;stroke-width:5;stroke-miterlimit:10;}
	.st9{fill:#C1272D;}
	.st10{fill:#CCCCCC;stroke:#C1272D;stroke-width:5;stroke-miterlimit:10;}
	.st11{fill:none;stroke:#C1272D;stroke-width:3;stroke-miterlimit:10;}
</style>
<g>
	<text transform="matrix(0.9822 0 0 1 220.0293 141.3107)" class="st0 st1 st2">DNA SPIDER-WEB</text>
	<text transform="matrix(0.9822 0 0 1 220.0293 141.3107)" class="st3 st1 st2">DNA SPIDER-WEB</text>
	<ellipse class="st4" cx="130.7" cy="127.4" rx="54" ry="54.9"/>
	<ellipse class="st5" cx="187" cy="161.1" rx="19.4" ry="19.7"/>
	<ellipse class="st5" cx="74.5" cy="161.2" rx="19.4" ry="19.7"/>
	<g>
		<g>
			<line class="st6" x1="96.1" y1="151.5" x2="110.2" y2="143.5"/>
			<g>
				<polygon class="st0" points="105.6,153.5 97.1,150.9 99.6,142.2 94.8,144.8 92.4,153.5 101,156 				"/>
			</g>
		</g>
	</g>
	<line class="st7" x1="55" y1="161.2" x2="93.8" y2="161.2"/>
	<line class="st7" x1="167.6" y1="161.1" x2="206.4" y2="161.1"/>
	<g>
		<g>
			<path class="st0" d="M78.2,170.4c0,3.1-1.2,5.2-3.7,5.2c-2.6,0-3.6-2.4-3.7-5.2c0-3,1.2-5.2,3.7-5.2
				C77.1,165.2,78.2,167.7,78.2,170.4z M73,170.4c0,2.4,0.5,3.4,1.4,3.4s1.4-1.2,1.4-3.4c0-2.3-0.5-3.4-1.4-3.4
				C73.7,167,73,168.1,73,170.4z"/>
		</g>
	</g>
	<g>
		<g>
			<path class="st0" d="M186.5,167.5L186.5,167.5l-1.9,0.9l-0.4-1.8l2.6-1.3h1.9v10.1h-2.2L186.5,167.5L186.5,167.5z"/>
		</g>
	</g>
	<g>
		<g>
			<path class="st0" d="M78.8,156.8c-0.7,0.3-2.1,0.6-3.4,0.6c-1.9,0-3.2-0.5-4.2-1.4c-0.9-0.9-1.4-2.3-1.4-3.8
				c0-3.5,2.5-5.4,5.9-5.4c1.3,0,2.4,0.3,2.8,0.5l-0.5,1.9c-0.5-0.3-1.3-0.5-2.4-0.5c-1.9,0-3.4,1.1-3.4,3.4c0,2.2,1.4,3.4,3.3,3.4
				c0.5,0,0.9-0.1,1.2-0.2v-2.2H75v-1.9h3.8V156.8L78.8,156.8z"/>
		</g>
	</g>
	<g>
		<g>
			<path class="st0" d="M185.8,148.8h-2.7v-2h8v2h-2.8v8.4H186L185.8,148.8L185.8,148.8z"/>
		</g>
	</g>
	<g>
		<g>
			<path class="st8" d="M159.3,101.1c9,5.3,12.9,16.4,9.9,26"/>
			<g>
				<polygon class="st9" points="166.2,117.4 169.5,126.1 178,122.7 175.8,127.7 167.3,131.1 163.9,122.4 				"/>
			</g>
		</g>
	</g>
	<ellipse class="st10" cx="130.7" cy="127.4" rx="25.9" ry="26.3"/>
	<g>
		<g>
			<path class="st0" d="M135.9,139.3c0,4.3-1.7,7.3-5.2,7.3c-3.6,0-5.2-3.3-5.2-7.3s1.7-7.3,5.2-7.3
				C134.4,132,135.9,135.4,135.9,139.3z M128.7,139.4c0,3.3,0.7,4.8,2,4.8s2-1.6,2-4.8c0-3.1-0.7-4.8-2-4.8S128.7,136.1,128.7,139.4
				z"/>
		</g>
	</g>
	<line class="st11" x1="104.9" y1="127.4" x2="156.6" y2="127.4"/>
	<g>
		<g>
			<path class="st0" d="M128.4,118.3l-1,3.7H124l4.4-14.7h4.3l4.5,14.7h-3.5l-1.2-3.7C132.5,118.3,128.4,118.3,128.4,118.3z
				 M132.1,115.8l-0.9-3.1c-0.3-0.8-0.5-1.9-0.7-2.8h-0.1c-0.3,0.8-0.5,1.9-0.7,2.8l-0.8,3.1H132.1z"/>
		</g>
	</g>
	<g>
		<g>
			<line class="st8" x1="165.4" y1="151.6" x2="151.5" y2="143.2"/>
			<g>
				<polygon class="st9" points="162.1,142.2 164.4,150.9 155.7,153.3 160.3,156 169,153.7 166.7,145 				"/>
			</g>
		</g>
	</g>
	<g>
		<g>
			<line class="st8" x1="130.7" y1="96.7" x2="130.7" y2="83.9"/>
			<g>
				<polygon class="st9" points="137.2,88.9 130.7,95.5 124.2,88.9 124.2,94.5 130.7,101.1 137.2,94.5 				"/>
			</g>
		</g>
	</g>
	<ellipse class="st5" cx="130.7" cy="64.2" rx="19.4" ry="19.7"/>
	<line class="st7" x1="111.3" y1="64.2" x2="150.1" y2="64.2"/>
	<g>
		<g>
			<path class="st0" d="M130,70.3L130,70.3l-1.9,0.9l-0.4-1.8l2.6-1.3h1.9v10H130V70.3z"/>
		</g>
	</g>
	<g>
		<g>
			<path class="st0" d="M134.6,60.5c-0.4,0.3-1.4,0.5-2.6,0.5c-3.6,0-5.4-2.3-5.4-5.2c0-3.5,2.5-5.5,5.6-5.5c1.2,0,2.2,0.3,2.5,0.5
				l-0.5,1.9c-0.5-0.3-1.2-0.4-2-0.4c-1.8,0-3.3,1.2-3.3,3.5c0,2.1,1.2,3.4,3.3,3.4c0.7,0,1.4-0.2,1.9-0.3L134.6,60.5z"/>
		</g>
	</g>
</g>
</svg>
