<?xml version="1.0" encoding="utf-8"?>
<!-- Generator: Adobe Illustrator 22.0.0, SVG Export Plug-In . SVG Version: 6.00 Build 0)  -->
<svg version="1.1" id="图层_1" xmlns="http://www.w3.org/2000/svg" xmlns:xlink="http://www.w3.org/1999/xlink" x="0px" y="0px"
	 viewBox="0 0 226.8 226.8" style="enable-background:new 0 0 226.8 226.8;" xml:space="preserve">
<style type="text/css">
	.st0{fill:#F2F2F2;}
	.st1{fill:#FFFFFF;stroke:#736357;stroke-width:5;stroke-miterlimit:10;}
	.st2{fill:none;stroke:#736357;stroke-width:5;stroke-miterlimit:10;}
	.st3{fill:#736357;}
	.st4{fill:none;stroke:#736357;stroke-width:3;stroke-miterlimit:10;}
	.st5{fill:none;stroke:#C1272D;stroke-width:5;stroke-miterlimit:10;}
	.st6{fill:#C1272D;}
	.st7{fill:#CCCCCC;stroke:#C1272D;stroke-width:5;stroke-miterlimit:10;}
	.st8{fill:none;stroke:#C1272D;stroke-width:3;stroke-miterlimit:10;}
</style>
<g>
	<ellipse class="st0" cx="112.7" cy="125.4" rx="54" ry="54.9"/>
	<ellipse class="st1" cx="168.9" cy="159.1" rx="19.4" ry="19.7"/>
	<ellipse class="st1" cx="56.4" cy="159.1" rx="19.4" ry="19.7"/>
	<g>
		<g>
			<line class="st2" x1="78" y1="149.6" x2="92.1" y2="141.6"/>
			<g>
				<polygon class="st3" points="87.6,151.6 79,148.9 81.6,140.1 76.7,142.8 74.3,151.6 82.9,154 				"/>
			</g>
		</g>
	</g>
	<line class="st4" x1="36.9" y1="159.1" x2="75.7" y2="159.1"/>
	<line class="st4" x1="149.6" y1="159.1" x2="188.3" y2="159.1"/>
	<g>
		<g>
			<path class="st3" d="M60.1,168.4c0,3.1-1.3,5.3-3.7,5.3c-2.6,0-3.6-2.4-3.7-5.3c0-3,1.3-5.3,3.7-5.3
				C59,163.1,60.1,165.7,60.1,168.4z M54.9,168.4c0,2.4,0.5,3.4,1.4,3.4s1.4-1.3,1.4-3.4c0-2.3-0.5-3.4-1.4-3.4
				C55.7,165,54.9,166.1,54.9,168.4z"/>
		</g>
	</g>
	<g>
		<g>
			<path class="st3" d="M168.4,165.6L168.4,165.6l-1.9,0.9l-0.4-1.7l2.6-1.3h1.9v10.1h-2.3L168.4,165.6L168.4,165.6z"/>
		</g>
	</g>
	<g>
		<g>
			<path class="st3" d="M60.7,154.8c-0.7,0.3-2.1,0.6-3.4,0.6c-1.9,0-3.3-0.5-4.3-1.4c-0.9-0.9-1.4-2.3-1.4-3.7
				c0-3.5,2.5-5.4,5.9-5.4c1.3,0,2.4,0.3,2.7,0.5l-0.5,1.9c-0.5-0.3-1.3-0.5-2.4-0.5c-1.9,0-3.4,1.1-3.4,3.4s1.4,3.4,3.3,3.4
				c0.5,0,0.9-0.1,1.3-0.3V151h-1.6v-1.9h3.7L60.7,154.8L60.7,154.8L60.7,154.8z"/>
		</g>
	</g>
	<g>
		<g>
			<path class="st3" d="M167.7,146.8h-2.8v-2h8v2h-2.7v8.4h-2.3L167.7,146.8L167.7,146.8z"/>
		</g>
	</g>
	<g>
		<g>
			<path class="st5" d="M141.1,99.1c9,5.3,12.9,16.4,9.9,26"/>
			<g>
				<polygon class="st6" points="148.1,115.4 151.4,124.1 159.9,120.7 157.7,125.7 149.1,129.1 145.8,120.4 				"/>
			</g>
		</g>
	</g>
	<ellipse class="st7" cx="112.7" cy="125.4" rx="25.9" ry="26.3"/>
	<g>
		<g>
			<path class="st3" d="M117.8,137.3c0,4.3-1.7,7.3-5.3,7.3c-3.6,0-5.3-3.3-5.3-7.3s1.7-7.3,5.3-7.3
				C116.3,130,117.8,133.4,117.8,137.3z M110.7,137.4c0,3.3,0.7,4.7,2,4.7s2-1.6,2-4.7s-0.7-4.7-2-4.7S110.7,134.1,110.7,137.4z"/>
		</g>
	</g>
	<line class="st8" x1="86.7" y1="125.4" x2="138.6" y2="125.4"/>
	<g>
		<g>
			<path class="st3" d="M110.3,116.3l-1,3.7h-3.4l4.4-14.7h4.3l4.5,14.7h-3.5l-1.3-3.7H110.3z M114,113.8l-0.9-3.1
				c-0.3-0.7-0.5-1.9-0.7-2.7h-0.1c-0.3,0.7-0.5,1.9-0.7,2.7l-0.7,3.1H114z"/>
		</g>
	</g>
	<g>
		<g>
			<line class="st5" x1="147.3" y1="149.7" x2="133.4" y2="141.1"/>
			<g>
				<polygon class="st6" points="144,140.1 146.3,148.9 137.7,151.3 142.1,154 150.9,151.7 148.7,143 				"/>
			</g>
		</g>
	</g>
	<g>
		<g>
			<line class="st5" x1="112.7" y1="94.7" x2="112.7" y2="81.9"/>
			<g>
				<polygon class="st6" points="119.1,86.9 112.7,93.6 106.1,86.9 106.1,92.6 112.7,99.1 119.1,92.6 				"/>
			</g>
		</g>
	</g>
	<ellipse class="st1" cx="112.7" cy="62.1" rx="19.4" ry="19.7"/>
	<line class="st4" x1="93.1" y1="62.1" x2="132" y2="62.1"/>
	<g>
		<g>
			<path class="st3" d="M111.9,68.3L111.9,68.3l-1.9,0.9l-0.4-1.7l2.6-1.3h1.9v10h-2.2V68.3z"/>
		</g>
	</g>
	<g>
		<g>
			<path class="st3" d="M116.6,58.6c-0.4,0.3-1.4,0.5-2.6,0.5c-3.6,0-5.4-2.3-5.4-5.3c0-3.5,2.5-5.5,5.6-5.5c1.3,0,2.3,0.3,2.5,0.5
				l-0.5,1.9c-0.5-0.3-1.3-0.4-2-0.4c-1.7,0-3.3,1.3-3.3,3.5c0,2.1,1.3,3.4,3.3,3.4c0.7,0,1.4-0.3,1.9-0.3L116.6,58.6z"/>
		</g>
	</g>
</g>
</svg>
