<?xml version="1.0" encoding="utf-8"?>
<!-- Generator: Adobe Illustrator 22.0.0, SVG Export Plug-In . SVG Version: 6.00 Build 0)  -->
<svg version="1.1" id="logo" xmlns="http://www.w3.org/2000/svg" xmlns:xlink="http://www.w3.org/1999/xlink" x="0px" y="0px"
	 viewBox="0 0 907.1 190.9" style="enable-background:new 0 0 907.1 190.9;" xml:space="preserve">
<style type="text/css">
	.st0{fill:#736357;}
	.st1{font-family:'Calibri-Bold';}
	.st2{font-size:72px;}
	.st3{fill:none;stroke:#000000;stroke-width:2;stroke-miterlimit:10;}
	.st4{fill:#F2F2F2;}
	.st5{fill:#FFFFFF;stroke:#736357;stroke-width:5;stroke-miterlimit:10;}
	.st6{fill:none;stroke:#736357;stroke-width:5;stroke-miterlimit:10;}
	.st7{fill:none;stroke:#736357;stroke-width:3;stroke-miterlimit:10;}
	.st8{fill:none;stroke:#C1272D;stroke-width:5;stroke-miterlimit:10;}
	.st9{fill:#C1272D;}
	.st10{fill:#CCCCCC;stroke:#C1272D;stroke-width:5;stroke-miterlimit:10;}
	.st11{fill:none;stroke:#C1272D;stroke-width:3;stroke-miterlimit:10;}
</style>
<g>
	<text transform="matrix(1 0 0 1 296.7673 133.3)" class="st0 st1 st2">DNA SPIDER-WEB</text>
	<text transform="matrix(1 0 0 1 296.7673 133.3)" class="st3 st1 st2">DNA SPIDER-WEB</text>
	<circle class="st4" cx="179.4" cy="115.4" r="70.9"/>
	<circle class="st5" cx="253.4" cy="158.8" r="25.5"/>
	<circle class="st5" cx="105.5" cy="159" r="25.5"/>
	<g>
		<g>
			<line class="st6" x1="133.9" y1="146.4" x2="152.5" y2="136.2"/>
			<g>
				<polygon class="st0" points="146.4,149 135.2,145.7 138.5,134.4 132.3,137.8 129,149 140.3,152.3 				"/>
			</g>
		</g>
	</g>
	<line class="st7" x1="80" y1="159" x2="131" y2="159"/>
	<line class="st7" x1="227.9" y1="158.8" x2="278.9" y2="158.8"/>
	<g>
		<g>
			<path class="st0" d="M110.4,170.9c0,4-1.6,6.8-4.9,6.8c-3.4,0-4.8-3-4.9-6.7c0-3.8,1.6-6.7,4.9-6.7
				C109,164.2,110.4,167.3,110.4,170.9z M103.6,170.9c0,3,0.7,4.4,1.9,4.4c1.2,0,1.8-1.5,1.8-4.4s-0.6-4.4-1.8-4.4
				C104.4,166.5,103.6,167.9,103.6,170.9z"/>
		</g>
	</g>
	<g>
		<g>
			<path class="st0" d="M252.6,167.1L252.6,167.1l-2.5,1.2l-0.5-2.3l3.4-1.6h2.5v13h-2.9V167.1z"/>
		</g>
	</g>
	<g>
		<g>
			<path class="st0" d="M111.2,153.3c-0.9,0.3-2.7,0.8-4.5,0.8c-2.5,0-4.2-0.6-5.5-1.8c-1.2-1.2-1.9-2.9-1.9-4.9c0-4.5,3.3-7,7.7-7
				c1.7,0,3.1,0.3,3.7,0.6l-0.6,2.4c-0.7-0.3-1.7-0.6-3.1-0.6c-2.5,0-4.5,1.4-4.5,4.4c0,2.8,1.8,4.4,4.3,4.4c0.7,0,1.2-0.1,1.5-0.2
				v-2.8h-2.1v-2.4h5V153.3z"/>
		</g>
	</g>
	<g>
		<g>
			<path class="st0" d="M251.8,143h-3.6v-2.6h10.4v2.6h-3.7v10.9h-3L251.8,143L251.8,143z"/>
		</g>
	</g>
	<g>
		<g>
			<path class="st8" d="M217,81.4c11.9,6.9,17,21.1,12.9,33.6"/>
			<g>
				<polygon class="st9" points="226,102.4 230.4,113.6 241.6,109.3 238.6,115.8 227.5,120.2 223.1,109 				"/>
			</g>
		</g>
	</g>
	<ellipse class="st10" cx="179.4" cy="115.4" rx="34" ry="34"/>
	<g>
		<g>
			<path class="st0" d="M186.2,130.7c0,5.6-2.3,9.5-6.9,9.5c-4.7,0-6.8-4.2-6.8-9.4c0-5.3,2.2-9.4,6.9-9.4
				C184.3,121.4,186.2,125.7,186.2,130.7z M176.8,130.8c0,4.2,1,6.2,2.6,6.2c1.7,0,2.6-2.1,2.6-6.2c0-4-0.9-6.2-2.6-6.2
				C177.8,124.6,176.8,126.6,176.8,130.8z"/>
		</g>
	</g>
	<line class="st11" x1="145.4" y1="115.4" x2="213.4" y2="115.4"/>
	<g>
		<g>
			<path class="st0" d="M176.4,103.6l-1.3,4.8h-4.4l5.8-18.9h5.6l5.9,18.9h-4.6l-1.5-4.8H176.4z M181.2,100.4l-1.2-4
				c-0.3-1.1-0.7-2.5-0.9-3.6H179c-0.3,1.1-0.6,2.5-0.9,3.6l-1.1,4H181.2z"/>
		</g>
	</g>
	<g>
		<g>
			<line class="st8" x1="224.9" y1="146.6" x2="206.6" y2="135.8"/>
			<g>
				<polygon class="st9" points="220.7,134.4 223.6,145.8 212.2,148.8 218.3,152.3 229.7,149.4 226.7,138 				"/>
			</g>
		</g>
	</g>
	<g>
		<g>
			<line class="st8" x1="179.4" y1="75.7" x2="179.4" y2="59.3"/>
			<g>
				<polygon class="st9" points="187.9,65.7 179.4,74.2 170.9,65.7 170.9,72.9 179.4,81.4 187.9,72.9 				"/>
			</g>
		</g>
	</g>
	<circle class="st5" cx="179.4" cy="33.8" r="25.5"/>
	<line class="st7" x1="153.9" y1="33.8" x2="204.9" y2="33.8"/>
	<g>
		<g>
			<path class="st0" d="M178.5,41.6L178.5,41.6l-2.5,1.2l-0.5-2.3l3.4-1.6h2.5v13h-2.9V41.6z"/>
		</g>
	</g>
	<g>
		<g>
			<path class="st0" d="M184.6,29c-0.5,0.3-1.8,0.6-3.4,0.6c-4.7,0-7.1-2.9-7.1-6.8c0-4.6,3.3-7.1,7.4-7.1c1.6,0,2.8,0.3,3.3,0.6
				l-0.6,2.4c-0.6-0.3-1.5-0.5-2.6-0.5c-2.4,0-4.3,1.5-4.3,4.5c0,2.7,1.6,4.4,4.3,4.4c0.9,0,1.9-0.2,2.5-0.4L184.6,29z"/>
		</g>
	</g>
</g>
</svg>
