<?xml version="1.0" encoding="utf-8"?>
<!-- Generator: Adobe Illustrator 22.0.0, SVG Export Plug-In . SVG Version: 6.00 Build 0)  -->
<svg version="1.1" id="logo" xmlns="http://www.w3.org/2000/svg" xmlns:xlink="http://www.w3.org/1999/xlink" x="0px" y="0px"
	 viewBox="0 0 765.4 190.9" style="enable-background:new 0 0 765.4 190.9;" xml:space="preserve">
<style type="text/css">
	.st0{fill:#736357;}
	.st1{font-family:'Calibri-Bold';}
	.st2{font-size:72px;}
	.st3{fill:none;stroke:#000000;stroke-width:2;stroke-miterlimit:10;}
	.st4{fill:#F2F2F2;}
	.st5{fill:#FFFFFF;stroke:#736357;stroke-width:5;stroke-miterlimit:10;}
	.st6{fill:none;stroke:#736357;stroke-width:5;stroke-miterlimit:10;}
	.st7{fill:none;stroke:#736357;stroke-width:3;stroke-miterlimit:10;}
	.st8{fill:none;stroke:#C1272D;stroke-width:5;stroke-miterlimit:10;}
	.st9{fill:#C1272D;}
	.st10{fill:#CCCCCC;stroke:#C1272D;stroke-width:5;stroke-miterlimit:10;}
	.st11{fill:none;stroke:#C1272D;stroke-width:3;stroke-miterlimit:10;}
</style>
<g>
	<text transform="matrix(1 0 0 1 225.9272 133.3)" class="st0 st1 st2">DNA SPIDER-WEB</text>
	<text transform="matrix(1 0 0 1 225.9272 133.3)" class="st3 st1 st2">DNA SPIDER-WEB</text>
	<circle class="st4" cx="108.6" cy="115.4" r="70.9"/>
	<circle class="st5" cx="182.6" cy="158.8" r="25.5"/>
	<circle class="st5" cx="34.7" cy="159" r="25.5"/>
	<g>
		<g>
			<line class="st6" x1="63.1" y1="146.4" x2="81.7" y2="136.2"/>
			<g>
				<polygon class="st0" points="75.6,149 64.4,145.7 67.7,134.4 61.5,137.8 58.2,149 69.5,152.3 				"/>
			</g>
		</g>
	</g>
	<line class="st7" x1="9.2" y1="159" x2="60.2" y2="159"/>
	<line class="st7" x1="157.1" y1="158.8" x2="208.1" y2="158.8"/>
	<g>
		<g>
			<path class="st0" d="M39.6,170.9c0,4-1.6,6.8-4.9,6.8c-3.4,0-4.8-3-4.9-6.7c0-3.8,1.6-6.7,4.9-6.7
				C38.2,164.2,39.6,167.3,39.6,170.9z M32.8,170.9c0,3,0.7,4.4,1.9,4.4s1.8-1.5,1.8-4.4s-0.6-4.4-1.8-4.4
				C33.6,166.5,32.8,167.9,32.8,170.9z"/>
		</g>
	</g>
	<g>
		<g>
			<path class="st0" d="M181.8,167.1L181.8,167.1l-2.5,1.2l-0.5-2.3l3.4-1.6h2.5v13h-2.9V167.1z"/>
		</g>
	</g>
	<g>
		<g>
			<path class="st0" d="M40.4,153.3c-0.9,0.3-2.7,0.8-4.5,0.8c-2.5,0-4.2-0.6-5.5-1.8c-1.2-1.2-1.9-2.9-1.9-4.9c0-4.5,3.3-7,7.7-7
				c1.7,0,3.1,0.3,3.7,0.6l-0.6,2.4c-0.7-0.3-1.7-0.6-3.1-0.6c-2.5,0-4.5,1.4-4.5,4.4c0,2.8,1.8,4.4,4.3,4.4c0.7,0,1.2-0.1,1.5-0.2
				v-2.8h-2.1v-2.4h5C40.4,146.2,40.4,153.3,40.4,153.3z"/>
		</g>
	</g>
	<g>
		<g>
			<path class="st0" d="M181,143h-3.6v-2.6h10.4v2.6h-3.7v10.9h-3L181,143L181,143z"/>
		</g>
	</g>
	<g>
		<g>
			<path class="st8" d="M146.2,81.4c11.9,6.9,17,21.1,12.9,33.6"/>
			<g>
				<polygon class="st9" points="155.2,102.4 159.6,113.6 170.8,109.3 167.8,115.8 156.7,120.2 152.3,109 				"/>
			</g>
		</g>
	</g>
	<circle class="st10" cx="108.6" cy="115.4" r="34"/>
	<g>
		<g>
			<path class="st0" d="M115.4,130.7c0,5.6-2.3,9.5-6.9,9.5c-4.7,0-6.8-4.2-6.8-9.4c0-5.3,2.2-9.4,6.9-9.4
				C113.5,121.4,115.4,125.7,115.4,130.7z M106,130.8c0,4.2,1,6.2,2.6,6.2c1.7,0,2.6-2.1,2.6-6.2c0-4-0.9-6.2-2.6-6.2
				C107,124.6,106,126.6,106,130.8z"/>
		</g>
	</g>
	<line class="st11" x1="74.6" y1="115.4" x2="142.6" y2="115.4"/>
	<g>
		<g>
			<path class="st0" d="M105.6,103.6l-1.3,4.8h-4.4l5.8-18.9h5.6l5.9,18.9h-4.6l-1.5-4.8H105.6z M110.4,100.4l-1.2-4
				c-0.3-1.1-0.7-2.5-0.9-3.6h-0.1c-0.3,1.1-0.6,2.5-0.9,3.6l-1.1,4H110.4z"/>
		</g>
	</g>
	<g>
		<g>
			<line class="st8" x1="154.1" y1="146.6" x2="135.8" y2="135.8"/>
			<g>
				<polygon class="st9" points="149.9,134.4 152.8,145.8 141.4,148.8 147.5,152.3 158.9,149.4 155.9,138 				"/>
			</g>
		</g>
	</g>
	<g>
		<g>
			<line class="st8" x1="108.6" y1="75.7" x2="108.6" y2="59.3"/>
			<g>
				<polygon class="st9" points="117.1,65.7 108.6,74.2 100.1,65.7 100.1,72.9 108.6,81.4 117.1,72.9 				"/>
			</g>
		</g>
	</g>
	<circle class="st5" cx="108.6" cy="33.8" r="25.5"/>
	<line class="st7" x1="83.1" y1="33.8" x2="134.1" y2="33.8"/>
	<g>
		<g>
			<path class="st0" d="M107.7,41.6L107.7,41.6l-2.5,1.2l-0.5-2.3l3.4-1.6h2.5v13h-2.9V41.6z"/>
		</g>
	</g>
	<g>
		<g>
			<path class="st0" d="M113.8,29c-0.5,0.3-1.8,0.6-3.4,0.6c-4.7,0-7.1-2.9-7.1-6.8c0-4.6,3.3-7.1,7.4-7.1c1.6,0,2.8,0.3,3.3,0.6
				l-0.6,2.4c-0.6-0.3-1.5-0.5-2.6-0.5c-2.4,0-4.3,1.5-4.3,4.5c0,2.7,1.6,4.4,4.3,4.4c0.9,0,1.9-0.2,2.5-0.4L113.8,29z"/>
		</g>
	</g>
</g>
</svg>
