<?xml version="1.0" encoding="utf-8"?>
<!-- Generator: Adobe Illustrator 22.0.0, SVG Export Plug-In . SVG Version: 6.00 Build 0)  -->
<svg version="1.1" id="图层_1" xmlns="http://www.w3.org/2000/svg" xmlns:xlink="http://www.w3.org/1999/xlink" x="0px" y="0px"
	 viewBox="0 0 170.1 170.1" style="enable-background:new 0 0 170.1 170.1;" xml:space="preserve">
<style type="text/css">
	.st0{fill:#F2F2F2;}
	.st1{fill:#FFFFFF;stroke:#736357;stroke-width:5;stroke-miterlimit:10;}
	.st2{fill:none;stroke:#736357;stroke-width:5;stroke-miterlimit:10;}
	.st3{fill:#736357;}
	.st4{fill:none;stroke:#736357;stroke-width:3;stroke-miterlimit:10;}
	.st5{fill:none;stroke:#C1272D;stroke-width:5;stroke-miterlimit:10;}
	.st6{fill:#C1272D;}
	.st7{fill:#CCCCCC;stroke:#C1272D;stroke-width:5;stroke-miterlimit:10;}
	.st8{fill:none;stroke:#C1272D;stroke-width:3;stroke-miterlimit:10;}
</style>
<g>
	<ellipse class="st0" cx="84.3" cy="100" rx="54" ry="54.9"/>
	<ellipse class="st1" cx="140.5" cy="133.7" rx="19.4" ry="19.7"/>
	<ellipse class="st1" cx="28" cy="133.7" rx="19.4" ry="19.7"/>
	<g>
		<g>
			<line class="st2" x1="49.6" y1="124.2" x2="63.7" y2="116.2"/>
			<g>
				<polygon class="st3" points="59.2,126.2 50.6,123.5 53.2,114.7 48.3,117.4 45.9,126.2 54.5,128.6 				"/>
			</g>
		</g>
	</g>
	<line class="st4" x1="8.5" y1="133.7" x2="47.3" y2="133.7"/>
	<line class="st4" x1="121.2" y1="133.7" x2="159.9" y2="133.7"/>
	<g>
		<g>
			<path class="st3" d="M31.7,143c0,3.1-1.3,5.3-3.7,5.3c-2.6,0-3.6-2.4-3.7-5.3c0-3,1.3-5.3,3.7-5.3
				C30.6,137.7,31.7,140.3,31.7,143z M26.5,143c0,2.4,0.5,3.4,1.4,3.4s1.4-1.3,1.4-3.4c0-2.3-0.5-3.4-1.4-3.4
				C27.3,139.6,26.5,140.7,26.5,143z"/>
		</g>
	</g>
	<g>
		<g>
			<path class="st3" d="M140,140.2L140,140.2l-1.9,0.9l-0.4-1.7l2.6-1.3h1.9v10.1h-2.3L140,140.2L140,140.2z"/>
		</g>
	</g>
	<g>
		<g>
			<path class="st3" d="M32.3,129.4c-0.7,0.3-2.1,0.6-3.4,0.6c-1.9,0-3.3-0.5-4.3-1.4c-0.9-0.9-1.4-2.3-1.4-3.7
				c0-3.5,2.5-5.4,5.9-5.4c1.3,0,2.4,0.3,2.7,0.5l-0.5,1.9c-0.5-0.3-1.3-0.5-2.4-0.5c-1.9,0-3.4,1.1-3.4,3.4s1.4,3.4,3.3,3.4
				c0.5,0,0.9-0.1,1.3-0.3v-2.3h-1.6v-1.9h3.7L32.3,129.4L32.3,129.4L32.3,129.4z"/>
		</g>
	</g>
	<g>
		<g>
			<path class="st3" d="M139.3,121.4h-2.8v-2h8v2h-2.7v8.4h-2.3L139.3,121.4L139.3,121.4z"/>
		</g>
	</g>
	<g>
		<g>
			<path class="st5" d="M112.7,73.7c9,5.3,12.9,16.4,9.9,26"/>
			<g>
				<polygon class="st6" points="119.7,90 123,98.7 131.5,95.3 129.3,100.3 120.7,103.7 117.4,95 				"/>
			</g>
		</g>
	</g>
	<ellipse class="st7" cx="84.3" cy="100" rx="25.9" ry="26.3"/>
	<g>
		<g>
			<path class="st3" d="M89.4,111.9c0,4.3-1.7,7.3-5.3,7.3c-3.6,0-5.3-3.3-5.3-7.3s1.7-7.3,5.3-7.3C87.9,104.6,89.4,108,89.4,111.9z
				 M82.3,112c0,3.3,0.7,4.7,2,4.7s2-1.6,2-4.7s-0.7-4.7-2-4.7S82.3,108.7,82.3,112z"/>
		</g>
	</g>
	<line class="st8" x1="58.3" y1="100" x2="110.2" y2="100"/>
	<g>
		<g>
			<path class="st3" d="M81.9,90.9l-1,3.7h-3.4l4.4-14.7h4.3l4.5,14.7h-3.5l-1.3-3.7H81.9z M85.6,88.4l-0.9-3.1
				c-0.3-0.7-0.5-1.9-0.7-2.7h-0.1c-0.3,0.7-0.5,1.9-0.7,2.7l-0.7,3.1H85.6z"/>
		</g>
	</g>
	<g>
		<g>
			<line class="st5" x1="118.9" y1="124.3" x2="105" y2="115.7"/>
			<g>
				<polygon class="st6" points="115.6,114.7 117.9,123.5 109.3,125.9 113.7,128.6 122.5,126.3 120.3,117.6 				"/>
			</g>
		</g>
	</g>
	<g>
		<g>
			<line class="st5" x1="84.3" y1="69.3" x2="84.3" y2="56.5"/>
			<g>
				<polygon class="st6" points="90.7,61.5 84.3,68.2 77.7,61.5 77.7,67.2 84.3,73.7 90.7,67.2 				"/>
			</g>
		</g>
	</g>
	<ellipse class="st1" cx="84.3" cy="36.7" rx="19.4" ry="19.7"/>
	<line class="st4" x1="64.7" y1="36.7" x2="103.6" y2="36.7"/>
	<g>
		<g>
			<path class="st3" d="M83.5,42.9L83.5,42.9l-1.9,0.9l-0.4-1.7l2.6-1.3h1.9v10h-2.2V42.9z"/>
		</g>
	</g>
	<g>
		<g>
			<path class="st3" d="M88.2,33.2c-0.4,0.3-1.4,0.5-2.6,0.5c-3.6,0-5.4-2.3-5.4-5.3c0-3.5,2.5-5.5,5.6-5.5c1.3,0,2.3,0.3,2.5,0.5
				l-0.5,1.9c-0.5-0.3-1.3-0.4-2-0.4c-1.7,0-3.3,1.3-3.3,3.5c0,2.1,1.3,3.4,3.3,3.4c0.7,0,1.4-0.3,1.9-0.3L88.2,33.2z"/>
		</g>
	</g>
</g>
</svg>
