<?xml version="1.0" encoding="utf-8"?>
<!-- Generator: Adobe Illustrator 22.0.0, SVG Export Plug-In . SVG Version: 6.00 Build 0)  -->
<svg version="1.1" id="logo" xmlns="http://www.w3.org/2000/svg" x="0px" y="0px"
	 viewBox="0 0 211.5 190.9" style="enable-background:new 0 0 211.5 190.9;" xml:space="preserve">
<style type="text/css">
	.st0{fill:#F2F2F2;}
	.st1{fill:#FFFFFF;stroke:#736357;stroke-width:5;stroke-miterlimit:10;}
	.st2{fill:none;stroke:#736357;stroke-width:5;stroke-miterlimit:10;}
	.st3{fill:#736357;}
	.st4{fill:#65C8D0;stroke:#736357;stroke-width:3;stroke-miterlimit:10;}
	.st5{fill:none;stroke:#C1272D;stroke-width:5;stroke-miterlimit:10;}
	.st6{fill:#C1272D;}
	.st7{fill:#CCCCCC;stroke:#C1272D;stroke-width:5;stroke-miterlimit:10;}
	.st8{fill:#65C8D0;stroke:#C1272D;stroke-width:3;stroke-miterlimit:10;}
</style>
<circle class="st0" cx="106.7" cy="115.4" r="70.9"/>
<circle class="st1" cx="180.7" cy="158.8" r="25.5"/>
<circle class="st1" cx="32.8" cy="159" r="25.5"/>
<g>
	<g>
		<line class="st2" x1="61.2" y1="146.4" x2="79.8" y2="136.2"/>
		<g>
			<polygon class="st3" points="73.7,149 62.5,145.7 65.8,134.4 59.6,137.8 56.3,149 67.6,152.3 			"/>
		</g>
	</g>
</g>
<line class="st4" x1="7.3" y1="159" x2="58.3" y2="159"/>
<line class="st4" x1="155.2" y1="158.8" x2="206.2" y2="158.8"/>
<g>
	<g>
		<path class="st3" d="M37.7,170.9c0,4-1.6,6.8-4.9,6.8c-3.4,0-4.8-3-4.9-6.7c0-3.8,1.6-6.7,4.9-6.7
			C36.3,164.2,37.7,167.3,37.7,170.9z M30.9,170.9c0,3,0.7,4.4,1.9,4.4c1.2,0,1.8-1.5,1.8-4.4c0-2.9-0.6-4.4-1.8-4.4
			C31.7,166.5,30.9,167.9,30.9,170.9z"/>
	</g>
</g>
<g>
	<g>
		<path class="st3" d="M179.9,167.1L179.9,167.1l-2.5,1.2l-0.5-2.3l3.4-1.6h2.5v13h-2.9V167.1z"/>
	</g>
</g>
<g>
	<g>
		<path class="st3" d="M38.5,153.3c-0.9,0.3-2.7,0.8-4.5,0.8c-2.5,0-4.2-0.6-5.5-1.8c-1.2-1.2-1.9-2.9-1.9-4.9c0-4.5,3.3-7,7.7-7
			c1.7,0,3.1,0.3,3.7,0.6l-0.6,2.4c-0.7-0.3-1.7-0.6-3.1-0.6c-2.5,0-4.5,1.4-4.5,4.4c0,2.8,1.8,4.4,4.3,4.4c0.7,0,1.2-0.1,1.5-0.2
			v-2.8h-2.1v-2.4h5V153.3z"/>
	</g>
</g>
<g>
	<g>
		<path class="st3" d="M179.1,143h-3.6v-2.6h10.4v2.6h-3.7v10.9h-3V143z"/>
	</g>
</g>
<g>
	<g>
		<path class="st5" d="M144.3,81.4c11.9,6.9,17,21.1,12.9,33.6"/>
		<g>
			<polygon class="st6" points="153.3,102.4 157.7,113.6 168.9,109.3 165.9,115.8 154.8,120.2 150.4,109 			"/>
		</g>
	</g>
</g>
<circle class="st7" cx="106.7" cy="115.4" r="34"/>
<g>
	<g>
		<path class="st3" d="M113.5,130.7c0,5.6-2.3,9.5-6.9,9.5c-4.7,0-6.8-4.2-6.8-9.4c0-5.3,2.2-9.4,6.9-9.4
			C111.6,121.4,113.5,125.7,113.5,130.7z M104.1,130.8c0,4.2,1,6.2,2.6,6.2c1.7,0,2.6-2.1,2.6-6.2c0-4-0.9-6.2-2.6-6.2
			C105.1,124.6,104.1,126.6,104.1,130.8z"/>
	</g>
</g>
<line class="st8" x1="72.7" y1="115.4" x2="140.7" y2="115.4"/>
<g>
	<g>
		<path class="st3" d="M103.7,103.6l-1.3,4.8H98l5.8-18.9h5.6l5.9,18.9h-4.6l-1.5-4.8H103.7z M108.5,100.4l-1.2-4
			c-0.3-1.1-0.7-2.5-0.9-3.6h-0.1c-0.3,1.1-0.6,2.5-0.9,3.6l-1.1,4H108.5z"/>
	</g>
</g>
<g>
	<g>
		<line class="st5" x1="152.2" y1="146.6" x2="133.9" y2="135.8"/>
		<g>
			<polygon class="st6" points="148,134.4 150.9,145.8 139.5,148.8 145.6,152.3 157,149.4 154,138 			"/>
		</g>
	</g>
</g>
<g>
	<g>
		<line class="st5" x1="106.7" y1="75.7" x2="106.7" y2="59.3"/>
		<g>
			<polygon class="st6" points="115.2,65.7 106.7,74.2 98.2,65.7 98.2,72.9 106.7,81.4 115.2,72.9 			"/>
		</g>
	</g>
</g>
<circle class="st1" cx="106.7" cy="33.8" r="25.5"/>
<line class="st4" x1="81.2" y1="33.8" x2="132.2" y2="33.8"/>
<g>
	<g>
		<path class="st3" d="M105.8,41.6L105.8,41.6l-2.5,1.2l-0.5-2.3l3.4-1.6h2.5v13h-2.9V41.6z"/>
	</g>
</g>
<g>
	<g>
		<path class="st3" d="M111.9,29c-0.5,0.3-1.8,0.6-3.4,0.6c-4.7,0-7.1-2.9-7.1-6.8c0-4.6,3.3-7.1,7.4-7.1c1.6,0,2.8,0.3,3.3,0.6
			l-0.6,2.4c-0.6-0.3-1.5-0.5-2.6-0.5c-2.4,0-4.3,1.5-4.3,4.5c0,2.7,1.6,4.4,4.3,4.4c0.9,0,1.9-0.2,2.5-0.4L111.9,29z"/>
	</g>
</g>
</svg>
