<?xml version="1.0" encoding="utf-8"?>
<!-- Generator: Adobe Illustrator 22.0.0, SVG Export Plug-In . SVG Version: 6.00 Build 0)  -->
<svg version="1.1" id="图层_1" xmlns="http://www.w3.org/2000/svg" xmlns:xlink="http://www.w3.org/1999/xlink" x="0px" y="0px"
	 viewBox="0 0 170.1 170.1" style="enable-background:new 0 0 170.1 170.1;" xml:space="preserve">
<style type="text/css">
	.st0{fill:#FFFFFF;stroke:#736357;stroke-width:5;stroke-miterlimit:10;}
	.st1{fill:none;stroke:#736357;stroke-width:5;stroke-miterlimit:10;}
	.st2{fill:#736357;}
	.st3{fill:none;stroke:#C1272D;stroke-width:5;stroke-miterlimit:10;}
	.st4{fill:#C1272D;}
</style>
<ellipse class="st0" cx="140.5" cy="133.7" rx="19.4" ry="19.7"/>
<ellipse class="st0" cx="28" cy="133.7" rx="19.4" ry="19.7"/>
<g>
	<g>
		<line class="st1" x1="49.6" y1="124.2" x2="63.7" y2="116.2"/>
		<g>
			<polygon class="st2" points="59.2,126.2 50.6,123.5 53.2,114.7 48.3,117.4 45.9,126.2 54.5,128.6 			"/>
		</g>
	</g>
</g>
<g>
	<g>
		<path class="st3" d="M112.7,73.7c9,5.3,12.9,16.4,9.9,26"/>
		<g>
			<polygon class="st4" points="119.7,90 123,98.7 131.5,95.3 129.3,100.3 120.7,103.7 117.4,95 			"/>
		</g>
	</g>
</g>
<ellipse class="st3" cx="84.3" cy="100" rx="25.9" ry="26.3"/>
<g>
	<g>
		<line class="st3" x1="118.9" y1="124.3" x2="105" y2="115.7"/>
		<g>
			<polygon class="st4" points="115.6,114.7 117.9,123.5 109.3,125.9 113.7,128.6 122.5,126.3 120.3,117.6 			"/>
		</g>
	</g>
</g>
<g>
	<g>
		<line class="st3" x1="84.3" y1="69.3" x2="84.3" y2="56.5"/>
		<g>
			<polygon class="st4" points="90.7,61.5 84.3,68.2 77.7,61.5 77.7,67.2 84.3,73.7 90.7,67.2 			"/>
		</g>
	</g>
</g>
<ellipse class="st0" cx="84.3" cy="36.7" rx="19.4" ry="19.7"/>
</svg>
