<?xml version="1.0" encoding="utf-8"?>
<svg version="1.1" id="图层_1" xmlns="http://www.w3.org/2000/svg" x="0px" y="0px" viewBox="0 0 1600 283.5" style="enable-background:new 0 0 1417.3 283.5;" xml:space="preserve">
<style type="text/css">
	.st0{fill:#F2F2F2;}
	.st1{fill:#FFFFFF;stroke:#736357;stroke-width:5;stroke-miterlimit:10;}
	.st2{fill:none;stroke:#736357;stroke-width:5;stroke-miterlimit:10;}
	.st3{fill:#736357;}
	.st4{fill:none;stroke:#736357;stroke-width:3;stroke-miterlimit:10;}
	.st5{fill:none;stroke:#B8292D;stroke-width:5;stroke-miterlimit:10;}
	.st6{fill:#B8292D;}
	.st7{fill:#CCCCCC;stroke:#B8292D;stroke-width:5;stroke-miterlimit:10;}
	.st8{fill:none;stroke:#B8292D;stroke-width:3;stroke-miterlimit:10;}
	.st9{fill:#FFFFFF;}
	.st10{font-family:'Calibri-Bold';}
	.st11{font-size:166.9275px;}
	.st12{fill:#CCCCCC;}
</style>
<g>
	<g>
		<ellipse class="st0" cx="258.5" cy="159" rx="75.1" ry="76.4"/>
		<ellipse class="st1" cx="336.7" cy="205.9" rx="27" ry="27.4"/>
		<ellipse class="st1" cx="180.2" cy="205.9" rx="27" ry="27.4"/>
		<g>
			<g>
				<line class="st2" x1="210.2" y1="192.7" x2="229.9" y2="181.6"/>
				<g>
					<polygon class="st3" points="223.6,195.5 211.6,191.7 215.3,179.5 208.4,183.2 205.1,195.5 217.1,198.8"/>
				</g>
			</g>
		</g>
		<line class="st4" x1="153.1" y1="205.9" x2="207" y2="205.9"/>
		<line class="st4" x1="309.8" y1="205.9" x2="363.7" y2="205.9"/>
		<g>
			<g>
				<path class="st3" d="M185.3,218.8c0,4.3-1.8,7.4-5.1,7.4c-3.6,0-5-3.3-5.1-7.4c0-4.2,1.8-7.4,5.1-7.4C183.8,211.5,185.3,215.1,185.3,218.8z M178.1,218.8c0,3.3,0.7,4.7,1.9,4.7c1.3,0,1.9-1.8,1.9-4.7c0-3.2-0.7-4.7-1.9-4.7C179.2,214.1,178.1,215.6,178.1,218.8z"/>
			</g>
		</g>
		<g>
			<g>
				<path class="st3" d="M336,215L336,215l-2.6,1.3l-0.6-2.4l3.6-1.8h2.6v14h-3.2L336,215L336,215z"/>
			</g>
		</g>
		<g>
			<g>
				<path class="st3" d="M186.2,199.9c-1,0.4-2.9,0.8-4.7,0.8c-2.6,0-4.6-0.7-6-1.9c-1.3-1.3-1.9-3.2-1.9-5.1c0-4.9,3.5-7.5,8.2-7.5c1.8,0,3.3,0.4,3.8,0.7l-0.7,2.6c-0.7-0.4-1.8-0.7-3.3-0.7c-2.6,0-4.7,1.5-4.7,4.7s1.9,4.7,4.6,4.7c0.7,0,1.3-0.1,1.8-0.4v-3.2h-2.2V192h5.1L186.2,199.9L186.2,199.9L186.2,199.9z"/>
			</g>
		</g>
		<g>
			<g>
				<path class="st3" d="M335,188.8h-3.9V186h11.1v2.8h-3.8v11.7h-3.2L335,188.8L335,188.8z"/>
			</g>
		</g>
		<g>
			<g>
				<path class="st5" d="M298,122.4c12.5,7.4,17.9,22.8,13.8,36.2"/>
				<g>
					<polygon class="st6" points="307.8,145.1 312.3,157.2 324.2,152.5 321.1,159.4 309.1,164.2 304.6,152.1"/>
				</g>
			</g>
		</g>
		<ellipse class="st7" cx="258.5" cy="159" rx="36" ry="36.6"/>
		<g>
			<g>
				<path class="st3" d="M265.6,175.6c0,6-2.4,10.2-7.4,10.2c-5,0-7.4-4.6-7.4-10.2s2.4-10.2,7.4-10.2C263.5,165.4,265.6,170.2,265.6,175.6z M255.7,175.7c0,4.6,1,6.5,2.8,6.5s2.8-2.2,2.8-6.5s-1-6.5-2.8-6.5S255.7,171.1,255.7,175.7z"/>
			</g>
		</g>
		<line class="st8" x1="222.3" y1="159" x2="294.5" y2="159"/>
		<g>
			<g>
				<path class="st3" d="M255.2,146.4l-1.4,5.1h-4.7l6.1-20.4h6l6.3,20.4h-4.9l-1.8-5.1H255.2z M260.3,142.9l-1.3-4.3c-0.4-1-0.7-2.6-1-3.8H258c-0.4,1-0.7,2.6-1,3.8l-1,4.3H260.3z"/>
			</g>
		</g>
		<g>
			<g>
				<line class="st5" x1="306.6" y1="192.8" x2="287.3" y2="180.9"/>
				<g>
					<polygon class="st6" points="302.1,179.5 305.3,191.7 293.3,195.1 299.4,198.8 311.7,195.6 308.6,183.5"/>
				</g>
			</g>
		</g>
		<g>
			<g>
				<line class="st5" x1="258.5" y1="116.3" x2="258.5" y2="98.5"/>
				<g>
					<polygon class="st6" points="267.4,105.5 258.5,114.8 249.3,105.5 249.3,113.4 258.5,122.4 267.4,113.4"/>
				</g>
			</g>
		</g>
		<ellipse class="st1" cx="258.5" cy="71" rx="27" ry="27.4"/>
		<line class="st4" x1="231.2" y1="71" x2="285.4" y2="71"/>
		<g>
			<g>
				<path class="st3" d="M257.4,79.6L257.4,79.6l-2.6,1.3l-0.6-2.4l3.6-1.8h2.6v13.9h-3.1V79.6z"/>
			</g>
		</g>
		<g>
			<g>
				<path class="st3" d="M263.9,66.1c-0.6,0.4-1.9,0.7-3.6,0.7c-5,0-7.5-3.2-7.5-7.4c0-4.9,3.5-7.7,7.8-7.7c1.8,0,3.2,0.4,3.5,0.7l-0.7,2.6c-0.7-0.4-1.8-0.6-2.8-0.6c-2.4,0-4.6,1.8-4.6,4.9c0,2.9,1.8,4.7,4.6,4.7c1,0,1.9-0.4,2.6-0.4L263.9,66.1z"/>
			</g>
		</g>
	</g>
	<text transform="matrix(1 0 0 1 393.996 195.6121)" class="st9 st10 st11">SPIDER-WEB</text>
	<text transform="matrix(1 0 0 1 393.996 195.6121)" class="st12 st10 st11">SPIDER-WEB</text>
	<text transform="matrix(1 0 0 1 393.996 195.6121)" class="st5 st10 st11">SPIDER-WEB</text>
</g>
</svg>
