<?xml version="1.0" encoding="utf-8"?>
<!-- Generator: Adobe Illustrator 22.0.0, SVG Export Plug-In . SVG Version: 6.00 Build 0)  -->
<svg version="1.1" id="图层_1" xmlns="http://www.w3.org/2000/svg" xmlns:xlink="http://www.w3.org/1999/xlink" x="0px" y="0px"
	 viewBox="0 0 552.8 127.5" style="enable-background:new 0 0 552.8 127.5;" xml:space="preserve">
<style type="text/css">
	.st0{fill-rule:evenodd;clip-rule:evenodd;fill:#FF8A86;}
	.st1{fill-rule:evenodd;clip-rule:evenodd;fill:#A9D18E;}
	.st2{fill:none;stroke:#000000;stroke-linejoin:round;stroke-miterlimit:10;}
	.st3{font-family:'Calibri';}
	.st4{font-size:9px;}
	.st5{clip-path:url(#SVGID_2_);fill:none;stroke:#000000;stroke-width:1.02;stroke-miterlimit:8;stroke-dasharray:3.06,1.02;}
	.st6{clip-path:url(#SVGID_2_);fill-rule:evenodd;clip-rule:evenodd;}
	.st7{clip-path:url(#SVGID_4_);fill:none;stroke:#000000;stroke-width:1.02;stroke-miterlimit:8;stroke-dasharray:3.06,1.02;}
	.st8{clip-path:url(#SVGID_4_);fill-rule:evenodd;clip-rule:evenodd;}
	.st9{clip-path:url(#SVGID_6_);fill:none;stroke:#000000;stroke-width:1.98;stroke-miterlimit:8;}
	.st10{clip-path:url(#SVGID_6_);fill-rule:evenodd;clip-rule:evenodd;}
	.st11{clip-path:url(#SVGID_8_);fill:none;stroke:#000000;stroke-width:1.02;stroke-miterlimit:8;stroke-dasharray:3.06,1.02;}
	.st12{clip-path:url(#SVGID_8_);fill-rule:evenodd;clip-rule:evenodd;}
	.st13{clip-path:url(#SVGID_10_);fill:none;stroke:#000000;stroke-width:1.98;stroke-miterlimit:8;}
	.st14{clip-path:url(#SVGID_10_);fill-rule:evenodd;clip-rule:evenodd;}
	.st15{clip-path:url(#SVGID_12_);fill:none;stroke:#000000;stroke-width:1.02;stroke-miterlimit:8;stroke-dasharray:3.06,1.02;}
	.st16{clip-path:url(#SVGID_12_);fill-rule:evenodd;clip-rule:evenodd;}
	.st17{clip-path:url(#SVGID_14_);fill:none;stroke:#000000;stroke-width:1.02;stroke-miterlimit:8;stroke-dasharray:3.06,1.02;}
	.st18{clip-path:url(#SVGID_14_);fill-rule:evenodd;clip-rule:evenodd;}
	.st19{fill:none;stroke:#000000;stroke-width:1.02;stroke-miterlimit:8;stroke-dasharray:3.06,1.02;}
	.st20{fill-rule:evenodd;clip-rule:evenodd;}
	.st21{clip-path:url(#SVGID_16_);fill:none;stroke:#000000;stroke-width:1.98;stroke-miterlimit:8;}
	.st22{clip-path:url(#SVGID_16_);fill-rule:evenodd;clip-rule:evenodd;}
	.st23{clip-path:url(#SVGID_18_);fill:none;stroke:#000000;stroke-width:1.98;stroke-miterlimit:8;}
	.st24{clip-path:url(#SVGID_18_);fill-rule:evenodd;clip-rule:evenodd;}
	.st25{clip-path:url(#SVGID_20_);fill:none;stroke:#000000;stroke-width:1.02;stroke-miterlimit:8;stroke-dasharray:3.06,1.02;}
	.st26{clip-path:url(#SVGID_20_);fill-rule:evenodd;clip-rule:evenodd;}
	.st27{clip-path:url(#SVGID_22_);fill-rule:evenodd;clip-rule:evenodd;fill:#FCBBAE;}
	.st28{clip-path:url(#SVGID_22_);fill:none;stroke:#000000;stroke-width:1.02;stroke-miterlimit:8;}
	.st29{clip-path:url(#SVGID_24_);fill-rule:evenodd;clip-rule:evenodd;fill:#A9D18E;}
	.st30{clip-path:url(#SVGID_24_);fill:none;stroke:#000000;stroke-width:1.02;stroke-miterlimit:8;}
	.st31{font-size:7.98px;}
	.st32{clip-path:url(#SVGID_26_);fill-rule:evenodd;clip-rule:evenodd;fill:#A9D18E;}
	.st33{clip-path:url(#SVGID_26_);fill:none;stroke:#000000;stroke-width:1.02;stroke-miterlimit:8;}
	.st34{clip-path:url(#SVGID_28_);fill-rule:evenodd;clip-rule:evenodd;fill:#A9D18E;}
	.st35{clip-path:url(#SVGID_28_);fill:none;stroke:#000000;stroke-width:1.02;stroke-miterlimit:8;}
	.st36{clip-path:url(#SVGID_30_);fill-rule:evenodd;clip-rule:evenodd;fill:#A9D18E;}
	.st37{clip-path:url(#SVGID_30_);fill:none;stroke:#000000;stroke-width:1.02;stroke-miterlimit:8;}
	.st38{clip-path:url(#SVGID_32_);fill-rule:evenodd;clip-rule:evenodd;fill:#A9D18E;}
	.st39{clip-path:url(#SVGID_32_);fill:none;stroke:#000000;stroke-width:1.02;stroke-miterlimit:8;}
	.st40{clip-path:url(#SVGID_34_);fill-rule:evenodd;clip-rule:evenodd;fill:#A9D18E;}
	.st41{clip-path:url(#SVGID_34_);fill:none;stroke:#000000;stroke-width:1.02;stroke-miterlimit:8;}
	.st42{clip-path:url(#SVGID_36_);fill-rule:evenodd;clip-rule:evenodd;fill:#FCBBAE;}
	.st43{clip-path:url(#SVGID_36_);fill:none;stroke:#000000;stroke-width:1.02;stroke-miterlimit:8;}
	.st44{clip-path:url(#SVGID_38_);fill-rule:evenodd;clip-rule:evenodd;fill:#FCBBAE;}
	.st45{clip-path:url(#SVGID_38_);fill:none;stroke:#000000;stroke-width:1.02;stroke-miterlimit:8;}
	.st46{clip-path:url(#SVGID_40_);fill-rule:evenodd;clip-rule:evenodd;fill:#A9D18E;}
	.st47{clip-path:url(#SVGID_40_);fill:none;stroke:#000000;stroke-width:1.02;stroke-miterlimit:8;}
	.st48{clip-path:url(#SVGID_42_);fill-rule:evenodd;clip-rule:evenodd;fill:#FCBBAE;}
	.st49{clip-path:url(#SVGID_42_);fill:none;stroke:#000000;stroke-width:1.02;stroke-miterlimit:8;}
	.st50{clip-path:url(#SVGID_44_);fill-rule:evenodd;clip-rule:evenodd;fill:#A9D18E;}
	.st51{clip-path:url(#SVGID_44_);fill:none;stroke:#000000;stroke-width:1.02;stroke-miterlimit:8;}
	.st52{clip-path:url(#SVGID_46_);fill:none;stroke:#000000;stroke-width:1.02;stroke-miterlimit:8;}
	.st53{font-family:'CambriaMath';}
	.st54{font-size:10.02px;}
	.st55{fill-rule:evenodd;clip-rule:evenodd;fill:#FFFFFF;}
	.st56{fill:none;stroke:#000000;stroke-width:1.02;stroke-miterlimit:8;}
	.st57{clip-path:url(#SVGID_48_);}
	.st58{clip-path:url(#SVGID_50_);fill-rule:evenodd;clip-rule:evenodd;fill:#FCBBAE;}
	.st59{clip-path:url(#SVGID_50_);fill:none;stroke:#FF8884;stroke-miterlimit:8;}
	.st60{clip-path:url(#SVGID_52_);fill-rule:evenodd;clip-rule:evenodd;fill:#9AC87A;}
	.st61{font-size:7.32px;}
</style>
<rect x="171.5" y="25.9" class="st0" width="11.3" height="11.3"/>
<rect x="182.8" y="25.9" class="st1" width="11.3" height="11.3"/>
<rect x="194.2" y="25.9" class="st0" width="11.3" height="11.3"/>
<rect x="239.5" y="25.9" class="st0" width="11.3" height="11.3"/>
<rect x="250.8" y="25.9" class="st0" width="11.3" height="11.3"/>
<rect x="262.2" y="25.9" class="st0" width="11.3" height="11.3"/>
<rect x="284.9" y="25.9" class="st1" width="11.3" height="11.3"/>
<rect x="171.5" y="37.2" class="st0" width="11.3" height="11.3"/>
<rect x="205.5" y="37.2" class="st0" width="11.3" height="11.3"/>
<rect x="216.8" y="37.2" class="st0" width="11.3" height="11.3"/>
<rect x="239.5" y="37.2" class="st0" width="11.3" height="11.3"/>
<rect x="250.8" y="37.2" class="st0" width="11.3" height="11.3"/>
<rect x="273.5" y="37.2" class="st1" width="11.3" height="11.3"/>
<rect x="284.9" y="37.2" class="st1" width="11.3" height="11.3"/>
<rect x="182.8" y="48.6" class="st1" width="11.3" height="11.3"/>
<rect x="205.5" y="48.6" class="st0" width="11.3" height="11.3"/>
<rect x="228.2" y="48.6" class="st0" width="11.3" height="11.3"/>
<rect x="239.5" y="48.6" class="st0" width="11.3" height="11.3"/>
<rect x="262.2" y="48.6" class="st0" width="11.3" height="11.3"/>
<rect x="273.5" y="48.6" class="st0" width="11.3" height="11.3"/>
<rect x="284.9" y="48.6" class="st1" width="11.3" height="11.3"/>
<rect x="194.2" y="59.9" class="st0" width="11.3" height="11.3"/>
<rect x="216.8" y="59.9" class="st0" width="11.3" height="11.3"/>
<rect x="228.2" y="59.9" class="st0" width="11.3" height="11.3"/>
<rect x="250.8" y="59.9" class="st0" width="11.3" height="11.3"/>
<rect x="262.2" y="59.9" class="st0" width="11.3" height="11.3"/>
<rect x="273.5" y="59.9" class="st1" width="11.3" height="11.3"/>
<rect x="284.9" y="59.9" class="st1" width="11.3" height="11.3"/>
<rect x="171.5" y="71.2" class="st0" width="11.3" height="11.3"/>
<rect x="182.8" y="71.2" class="st1" width="11.3" height="11.3"/>
<rect x="194.2" y="71.2" class="st0" width="11.3" height="11.3"/>
<rect x="239.5" y="71.2" class="st0" width="11.3" height="11.3"/>
<rect x="250.8" y="71.2" class="st0" width="11.3" height="11.3"/>
<rect x="262.2" y="71.2" class="st0" width="11.3" height="11.3"/>
<rect x="284.9" y="71.2" class="st1" width="11.3" height="11.3"/>
<rect x="171.5" y="82.6" class="st0" width="11.3" height="11.3"/>
<rect x="205.5" y="82.6" class="st0" width="11.3" height="11.3"/>
<rect x="216.8" y="82.6" class="st0" width="11.3" height="11.3"/>
<rect x="239.5" y="82.6" class="st0" width="11.3" height="11.3"/>
<rect x="250.8" y="82.6" class="st0" width="11.3" height="11.3"/>
<rect x="273.5" y="82.6" class="st1" width="11.3" height="11.3"/>
<rect x="284.9" y="82.6" class="st1" width="11.3" height="11.3"/>
<rect x="182.8" y="93.9" class="st1" width="11.3" height="11.3"/>
<rect x="205.5" y="93.9" class="st0" width="11.3" height="11.3"/>
<rect x="228.2" y="93.9" class="st0" width="11.3" height="11.3"/>
<rect x="239.5" y="93.9" class="st0" width="11.3" height="11.3"/>
<rect x="262.2" y="93.9" class="st0" width="11.3" height="11.3"/>
<rect x="273.5" y="93.9" class="st0" width="11.3" height="11.3"/>
<rect x="284.9" y="93.9" class="st1" width="11.3" height="11.3"/>
<rect x="194.2" y="105.2" class="st0" width="11.3" height="11.3"/>
<rect x="216.8" y="105.2" class="st0" width="11.3" height="11.3"/>
<rect x="228.2" y="105.2" class="st0" width="11.3" height="11.3"/>
<rect x="250.8" y="105.2" class="st0" width="11.3" height="11.3"/>
<rect x="262.2" y="105.2" class="st0" width="11.3" height="11.3"/>
<rect x="273.5" y="105.2" class="st1" width="11.3" height="11.3"/>
<rect x="284.9" y="105.2" class="st1" width="11.3" height="11.3"/>
<line class="st2" x1="171" y1="71.2" x2="296.7" y2="71.2"/>
<line class="st2" x1="171.5" y1="25.9" x2="171.5" y2="116.6"/>
<line class="st2" x1="296.2" y1="25.9" x2="296.2" y2="116.6"/>
<text transform="matrix(1 0 0 1 174.5229 34.6089)" class="st3 st4">A</text>
<text transform="matrix(1 0 0 1 185.8633 34.6089)" class="st3 st4">A</text>
<text transform="matrix(1 0 0 1 197.2031 34.6089)" class="st3 st4">A</text>
<text transform="matrix(1 0 0 1 242.5542 34.6089)" class="st3 st4">A</text>
<text transform="matrix(1 0 0 1 253.894 34.6089)" class="st3 st4">A</text>
<text transform="matrix(1 0 0 1 265.2339 34.6089)" class="st3 st4">A</text>
<text transform="matrix(1 0 0 1 287.9141 34.6089)" class="st3 st4">A</text>
<text transform="matrix(1 0 0 1 174.7661 45.9487)" class="st3 st4">C</text>
<text transform="matrix(1 0 0 1 208.7861 45.9487)" class="st3 st4">C</text>
<text transform="matrix(1 0 0 1 220.126 45.9487)" class="st3 st4">C</text>
<text transform="matrix(1 0 0 1 242.8062 45.9487)" class="st3 st4">C</text>
<text transform="matrix(1 0 0 1 254.146 45.9487)" class="st3 st4">C</text>
<text transform="matrix(1 0 0 1 276.8262 45.9487)" class="st3 st4">C</text>
<text transform="matrix(1 0 0 1 288.166 45.9487)" class="st3 st4">C</text>
<text transform="matrix(1 0 0 1 185.6382 57.2886)" class="st3 st4">G</text>
<text transform="matrix(1 0 0 1 208.3179 57.2886)" class="st3 st4">G</text>
<text transform="matrix(1 0 0 1 230.998 57.2886)" class="st3 st4">G</text>
<text transform="matrix(1 0 0 1 242.3379 57.2886)" class="st3 st4">G</text>
<text transform="matrix(1 0 0 1 265.0181 57.2886)" class="st3 st4">G</text>
<text transform="matrix(1 0 0 1 276.3584 57.2886)" class="st3 st4">G</text>
<text transform="matrix(1 0 0 1 287.6982 57.2886)" class="st3 st4">G</text>
<text transform="matrix(1 0 0 1 197.6528 68.6289)" class="st3 st4">T</text>
<text transform="matrix(1 0 0 1 220.333 68.6289)" class="st3 st4">T</text>
<text transform="matrix(1 0 0 1 231.6729 68.6289)" class="st3 st4">T</text>
<text transform="matrix(1 0 0 1 254.353 68.6289)" class="st3 st4">T</text>
<text transform="matrix(1 0 0 1 265.6929 68.6289)" class="st3 st4">T</text>
<text transform="matrix(1 0 0 1 277.0332 68.6289)" class="st3 st4">T</text>
<text transform="matrix(1 0 0 1 288.373 68.6289)" class="st3 st4">T</text>
<text transform="matrix(1 0 0 1 174.9282 79.9688)" class="st3 st4">0</text>
<text transform="matrix(1 0 0 1 186.2681 79.9688)" class="st3 st4">1</text>
<text transform="matrix(1 0 0 1 197.6079 79.9688)" class="st3 st4">0</text>
<text transform="matrix(1 0 0 1 242.959 79.9688)" class="st3 st4">0</text>
<text transform="matrix(1 0 0 1 254.2988 79.9688)" class="st3 st4">0</text>
<text transform="matrix(1 0 0 1 265.6392 79.9688)" class="st3 st4">0</text>
<text transform="matrix(1 0 0 1 288.3193 79.9688)" class="st3 st4">3</text>
<text transform="matrix(1 0 0 1 174.937 91.3086)" class="st3 st4">1</text>
<text transform="matrix(1 0 0 1 208.957 91.3086)" class="st3 st4">0</text>
<text transform="matrix(1 0 0 1 220.2969 91.3086)" class="st3 st4">0</text>
<text transform="matrix(1 0 0 1 242.9771 91.3086)" class="st3 st4">1</text>
<text transform="matrix(1 0 0 1 254.3169 91.3086)" class="st3 st4">1</text>
<text transform="matrix(1 0 0 1 276.9971 91.3086)" class="st3 st4">2</text>
<text transform="matrix(1 0 0 1 288.3369 91.3086)" class="st3 st4">2</text>
<text transform="matrix(1 0 0 1 186.2861 102.6484)" class="st3 st4">0</text>
<text transform="matrix(1 0 0 1 208.9658 102.6484)" class="st3 st4">1</text>
<text transform="matrix(1 0 0 1 231.646 102.6484)" class="st3 st4">0</text>
<text transform="matrix(1 0 0 1 242.9858 102.6484)" class="st3 st4">2</text>
<text transform="matrix(1 0 0 1 265.666 102.6484)" class="st3 st4">1</text>
<text transform="matrix(1 0 0 1 277.0059 102.6484)" class="st3 st4">1</text>
<text transform="matrix(1 0 0 1 288.3457 102.6484)" class="st3 st4">1</text>
<text transform="matrix(1 0 0 1 197.6348 113.9883)" class="st3 st4">1</text>
<text transform="matrix(1 0 0 1 220.3149 113.9883)" class="st3 st4">1</text>
<text transform="matrix(1 0 0 1 231.6548 113.9883)" class="st3 st4">1</text>
<text transform="matrix(1 0 0 1 254.335 113.9883)" class="st3 st4">2</text>
<text transform="matrix(1 0 0 1 265.6748 113.9883)" class="st3 st4">2</text>
<text transform="matrix(1 0 0 1 277.0146 113.9883)" class="st3 st4">0</text>
<text transform="matrix(1 0 0 1 288.3555 113.9883)" class="st3 st4">0</text>
<g>
	<defs>
		<rect id="SVGID_1_" width="552.8" height="127.5"/>
	</defs>
	<clipPath id="SVGID_2_">
		<use xlink:href="#SVGID_1_"  style="overflow:visible;"/>
	</clipPath>
	<path class="st5" d="M343.3,76.8c0,8.6,11.1,17.3,23.5,19.2"/>
	<polygon class="st6" points="365.6,98.9 371.8,96.4 366.1,92.9 	"/>
</g>
<g>
	<defs>
		<rect id="SVGID_3_" width="552.8" height="127.5"/>
	</defs>
	<clipPath id="SVGID_4_">
		<use xlink:href="#SVGID_3_"  style="overflow:visible;"/>
	</clipPath>
	<path class="st7" d="M348.3,74.7c0,1.7,8.6,3.3,18.5,3.8"/>
	<polygon class="st8" points="365.7,81.5 371.8,78.6 365.9,75.5 	"/>
</g>
<g>
	<defs>
		<rect id="SVGID_5_" width="552.8" height="127.5"/>
	</defs>
	<clipPath id="SVGID_6_">
		<use xlink:href="#SVGID_5_"  style="overflow:visible;"/>
	</clipPath>
	<path class="st9" d="M348.3,64.7c0-1.7,8.6-3.3,18.5-3.8"/>
	<polygon class="st10" points="365.7,57.9 371.8,60.8 365.9,63.9 	"/>
</g>
<g>
	<defs>
		<rect id="SVGID_7_" width="552.8" height="127.5"/>
	</defs>
	<clipPath id="SVGID_8_">
		<use xlink:href="#SVGID_7_"  style="overflow:visible;"/>
	</clipPath>
	<path class="st11" d="M343.3,62.6c0-8.6,11.1-17.3,23.5-19.2"/>
	<polygon class="st12" points="365.6,40.5 371.8,43 366.1,46.4 	"/>
</g>
<g>
	<defs>
		<rect id="SVGID_9_" width="552.8" height="127.5"/>
	</defs>
	<clipPath id="SVGID_10_">
		<use xlink:href="#SVGID_9_"  style="overflow:visible;"/>
	</clipPath>
	<path class="st13" d="M419.5,65c0-1.7,8.6-3.4,18.5-3.9"/>
	<polygon class="st14" points="436.9,58.1 443,61 437.1,64.1 	"/>
</g>
<g>
	<defs>
		<rect id="SVGID_11_" width="552.8" height="127.5"/>
	</defs>
	<clipPath id="SVGID_12_">
		<use xlink:href="#SVGID_11_"  style="overflow:visible;"/>
	</clipPath>
	<path class="st15" d="M419.5,75c0,1.6,8.6,3.2,18.5,3.7"/>
	<polygon class="st16" points="436.9,81.7 443,78.8 437.1,75.7 	"/>
</g>
<g>
	<defs>
		<rect id="SVGID_13_" width="552.8" height="127.5"/>
	</defs>
	<clipPath id="SVGID_14_">
		<use xlink:href="#SVGID_13_"  style="overflow:visible;"/>
	</clipPath>
	<path class="st17" d="M455.1,66c0,5.5,8.6,11,18.5,12.4"/>
	<polygon class="st18" points="472.4,81.4 478.6,78.8 472.9,75.4 	"/>
</g>
<line class="st19" x1="457.2" y1="61" x2="473.6" y2="61"/>
<polygon class="st20" points="472.6,58 478.6,61 472.6,64 "/>
<g>
	<defs>
		<rect id="SVGID_15_" width="552.8" height="127.5"/>
	</defs>
	<clipPath id="SVGID_16_">
		<use xlink:href="#SVGID_15_"  style="overflow:visible;"/>
	</clipPath>
	<path class="st21" d="M455.1,56c0-5.5,8.6-11,18.5-12.4"/>
	<polygon class="st22" points="472.4,40.7 478.6,43.2 472.9,46.7 	"/>
</g>
<g>
	<defs>
		<rect id="SVGID_17_" width="552.8" height="127.5"/>
	</defs>
	<clipPath id="SVGID_18_">
		<use xlink:href="#SVGID_17_"  style="overflow:visible;"/>
	</clipPath>
	<path class="st23" d="M383.9,65.8c0,1.8,8.6,3.6,18.5,4.1"/>
	<polygon class="st24" points="401.4,72.8 407.4,70 401.5,66.8 	"/>
</g>
<g>
	<defs>
		<rect id="SVGID_19_" width="552.8" height="127.5"/>
	</defs>
	<clipPath id="SVGID_20_">
		<use xlink:href="#SVGID_19_"  style="overflow:visible;"/>
	</clipPath>
	<path class="st25" d="M383.9,55.8c0-1.6,8.6-3.2,18.5-3.6"/>
	<polygon class="st26" points="401.4,49.2 407.4,52 401.5,55.2 	"/>
</g>
<g>
	<defs>
		<rect id="SVGID_21_" width="552.8" height="127.5"/>
	</defs>
	<clipPath id="SVGID_22_">
		<use xlink:href="#SVGID_21_"  style="overflow:visible;"/>
	</clipPath>
	<path class="st27" d="M336.2,69.7c0-3.9,3.2-7.1,7.1-7.1s7.1,3.2,7.1,7.1s-3.2,7.1-7.1,7.1S336.2,73.6,336.2,69.7"/>
	
		<ellipse transform="matrix(0.9993 -3.837649e-02 3.837649e-02 0.9993 -2.4216 13.2256)" class="st28" cx="343.3" cy="69.7" rx="7.1" ry="7.1"/>
</g>
<g>
	<defs>
		<rect id="SVGID_23_" width="552.8" height="127.5"/>
	</defs>
	<clipPath id="SVGID_24_">
		<use xlink:href="#SVGID_23_"  style="overflow:visible;"/>
	</clipPath>
	<path class="st29" d="M371.8,43c0-3.9,3.2-7.1,7.1-7.1s7.1,3.2,7.1,7.1c0,3.9-3.2,7.1-7.1,7.1S371.8,46.9,371.8,43"/>
	<ellipse class="st30" cx="378.9" cy="43" rx="7.1" ry="7.1"/>
</g>
<text transform="matrix(1 0 0 1 373.0771 45.6895)"><tspan x="0" y="0" class="st3 st31">T</tspan><tspan x="3.9" y="0" class="st3 st31">|</tspan><tspan x="7.6" y="0" class="st3 st31">0</tspan></text>
<g>
	<defs>
		<rect id="SVGID_25_" width="552.8" height="127.5"/>
	</defs>
	<clipPath id="SVGID_26_">
		<use xlink:href="#SVGID_25_"  style="overflow:visible;"/>
	</clipPath>
	<path class="st32" d="M371.8,60.8c0-3.9,3.2-7.1,7.1-7.1s7.1,3.2,7.1,7.1c0,3.9-3.2,7.1-7.1,7.1S371.8,64.7,371.8,60.8"/>
	
		<ellipse transform="matrix(0.9951 -9.853756e-02 9.853756e-02 0.9951 -4.1482 37.6289)" class="st33" cx="378.9" cy="60.8" rx="7.1" ry="7.1"/>
</g>
<text transform="matrix(1 0 0 1 372.5352 63.4785)"><tspan x="0" y="0" class="st3 st31">G</tspan><tspan x="5" y="0" class="st3 st31">|</tspan><tspan x="8.7" y="0" class="st3 st31">1</tspan></text>
<g>
	<defs>
		<rect id="SVGID_27_" width="552.8" height="127.5"/>
	</defs>
	<clipPath id="SVGID_28_">
		<use xlink:href="#SVGID_27_"  style="overflow:visible;"/>
	</clipPath>
	<path class="st34" d="M371.8,78.6c0-3.9,3.2-7.1,7.1-7.1s7.1,3.2,7.1,7.1c0,3.9-3.2,7.1-7.1,7.1S371.8,82.5,371.8,78.6"/>
	<ellipse class="st35" cx="378.9" cy="78.6" rx="7.1" ry="7.1"/>
</g>
<text transform="matrix(1 0 0 1 372.8955 81.2676)"><tspan x="0" y="0" class="st3 st31">C</tspan><tspan x="4.3" y="0" class="st3 st31">|</tspan><tspan x="7.9" y="0" class="st3 st31">2</tspan></text>
<g>
	<defs>
		<rect id="SVGID_29_" width="552.8" height="127.5"/>
	</defs>
	<clipPath id="SVGID_30_">
		<use xlink:href="#SVGID_29_"  style="overflow:visible;"/>
	</clipPath>
	<path class="st36" d="M371.8,96.4c0-3.9,3.2-7.1,7.1-7.1s7.1,3.2,7.1,7.1s-3.2,7.1-7.1,7.1S371.8,100.3,371.8,96.4"/>
	
		<ellipse transform="matrix(0.9998 -1.998799e-02 1.998799e-02 0.9998 -1.851 7.5921)" class="st37" cx="378.9" cy="96.4" rx="7.1" ry="7.1"/>
</g>
<text transform="matrix(1 0 0 1 372.7178 99.0566)"><tspan x="0" y="0" class="st3 st31">A</tspan><tspan x="4.6" y="0" class="st3 st31">|</tspan><tspan x="8.3" y="0" class="st3 st31">3</tspan></text>
<g>
	<defs>
		<rect id="SVGID_31_" width="552.8" height="127.5"/>
	</defs>
	<clipPath id="SVGID_32_">
		<use xlink:href="#SVGID_31_"  style="overflow:visible;"/>
	</clipPath>
	<path class="st38" d="M407.4,52.1c0-3.9,3.2-7.1,7.1-7.1s7.1,3.2,7.1,7.1c0,3.9-3.2,7.1-7.1,7.1S407.4,56,407.4,52.1"/>
	<ellipse class="st39" cx="414.5" cy="52.1" rx="7.1" ry="7.1"/>
</g>
<text transform="matrix(1 0 0 1 408.1455 54.7446)"><tspan x="0" y="0" class="st3 st31">G</tspan><tspan x="5" y="0" class="st3 st31">|</tspan><tspan x="8.7" y="0" class="st3 st31">0</tspan></text>
<g>
	<defs>
		<rect id="SVGID_33_" width="552.8" height="127.5"/>
	</defs>
	<clipPath id="SVGID_34_">
		<use xlink:href="#SVGID_33_"  style="overflow:visible;"/>
	</clipPath>
	<path class="st40" d="M407.4,70c0-3.9,3.2-7.1,7.1-7.1s7.1,3.2,7.1,7.1s-3.2,7.1-7.1,7.1S407.4,73.9,407.4,70"/>
	
		<ellipse transform="matrix(0.9993 -3.837649e-02 3.837649e-02 0.9993 -2.3806 15.959)" class="st41" cx="414.5" cy="70" rx="7.1" ry="7.1"/>
</g>
<text transform="matrix(1 0 0 1 408.3271 72.666)"><tspan x="0" y="0" class="st3 st31">A</tspan><tspan x="4.6" y="0" class="st3 st31">|</tspan><tspan x="8.3" y="0" class="st3 st31">1</tspan></text>
<g>
	<defs>
		<rect id="SVGID_35_" width="552.8" height="127.5"/>
	</defs>
	<clipPath id="SVGID_36_">
		<use xlink:href="#SVGID_35_"  style="overflow:visible;"/>
	</clipPath>
	<path class="st42" d="M443,61c0-3.9,3.2-7.1,7.1-7.1s7.1,3.2,7.1,7.1c0,3.9-3.2,7.1-7.1,7.1S443,64.9,443,61"/>
	
		<ellipse transform="matrix(0.9951 -9.853756e-02 9.853756e-02 0.9951 -3.8194 44.6476)" class="st43" cx="450.1" cy="61" rx="7.1" ry="7.1"/>
</g>
<text transform="matrix(1 0 0 1 444.1152 63.6768)"><tspan x="0" y="0" class="st3 st31">C</tspan><tspan x="4.3" y="0" class="st3 st31">|</tspan><tspan x="7.9" y="0" class="st3 st31">1</tspan></text>
<g>
	<defs>
		<rect id="SVGID_37_" width="552.8" height="127.5"/>
	</defs>
	<clipPath id="SVGID_38_">
		<use xlink:href="#SVGID_37_"  style="overflow:visible;"/>
	</clipPath>
	<path class="st44" d="M443,78.8c0-3.9,3.2-7.1,7.1-7.1s7.1,3.2,7.1,7.1c0,3.9-3.2,7.1-7.1,7.1S443,82.7,443,78.8"/>
	
		<ellipse transform="matrix(0.9993 -3.837649e-02 3.837649e-02 0.9993 -2.6929 17.3309)" class="st45" cx="450.1" cy="78.8" rx="7.1" ry="7.1"/>
</g>
<text transform="matrix(1 0 0 1 443.9375 81.4658)"><tspan x="0" y="0" class="st3 st31">A</tspan><tspan x="4.6" y="0" class="st3 st31">|</tspan><tspan x="8.3" y="0" class="st3 st31">0</tspan></text>
<g>
	<defs>
		<rect id="SVGID_39_" width="552.8" height="127.5"/>
	</defs>
	<clipPath id="SVGID_40_">
		<use xlink:href="#SVGID_39_"  style="overflow:visible;"/>
	</clipPath>
	<path class="st46" d="M478.6,43.2c0-3.9,3.2-7.1,7.1-7.1s7.1,3.2,7.1,7.1c0,3.9-3.2,7.1-7.1,7.1S478.6,47.1,478.6,43.2"/>
	
		<ellipse transform="matrix(0.9951 -9.853756e-02 9.853756e-02 0.9951 -1.8959 48.073)" class="st47" cx="485.7" cy="43.2" rx="7.1" ry="7.1"/>
</g>
<text transform="matrix(1 0 0 1 479.9072 45.8877)"><tspan x="0" y="0" class="st3 st31">T</tspan><tspan x="3.9" y="0" class="st3 st31">|</tspan><tspan x="7.6" y="0" class="st3 st31">0</tspan></text>
<g>
	<defs>
		<rect id="SVGID_41_" width="552.8" height="127.5"/>
	</defs>
	<clipPath id="SVGID_42_">
		<use xlink:href="#SVGID_41_"  style="overflow:visible;"/>
	</clipPath>
	<path class="st48" d="M478.6,61c0-3.9,3.2-7.1,7.1-7.1s7.1,3.2,7.1,7.1c0,3.9-3.2,7.1-7.1,7.1S478.6,64.9,478.6,61"/>
	
		<ellipse transform="matrix(0.9951 -9.853756e-02 9.853756e-02 0.9951 -3.6459 48.1595)" class="st49" cx="485.7" cy="61" rx="7.1" ry="7.1"/>
</g>
<text transform="matrix(1 0 0 1 479.3652 63.6768)"><tspan x="0" y="0" class="st3 st31">G</tspan><tspan x="5" y="0" class="st3 st31">|</tspan><tspan x="8.7" y="0" class="st3 st31">1</tspan></text>
<g>
	<defs>
		<rect id="SVGID_43_" width="552.8" height="127.5"/>
	</defs>
	<clipPath id="SVGID_44_">
		<use xlink:href="#SVGID_43_"  style="overflow:visible;"/>
	</clipPath>
	<path class="st50" d="M478.6,78.8c0-3.9,3.2-7.1,7.1-7.1s7.1,3.2,7.1,7.1c0,3.9-3.2,7.1-7.1,7.1S478.6,82.7,478.6,78.8"/>
	
		<ellipse transform="matrix(0.9993 -3.837649e-02 3.837649e-02 0.9993 -2.6666 18.6987)" class="st51" cx="485.7" cy="78.8" rx="7.1" ry="7.1"/>
</g>
<text transform="matrix(1 0 0 1 479.7256 81.4658)"><tspan x="0" y="0" class="st3 st31">C</tspan><tspan x="4.3" y="0" class="st3 st31">|</tspan><tspan x="7.9" y="0" class="st3 st31">2</tspan></text>
<g>
	<defs>
		<rect id="SVGID_45_" width="552.8" height="127.5"/>
	</defs>
	<clipPath id="SVGID_46_">
		<use xlink:href="#SVGID_45_"  style="overflow:visible;"/>
	</clipPath>
	<path class="st52" d="M497.2,36.3c3.4,0,6.1,3.2,6.1,7.1v19.1c0,3.9,2.7,7.1,6.1,7.1c-3.4,0-6.1,3.2-6.1,7.1V96
		c0,3.9-2.7,7.1-6.1,7.1"/>
</g>
<rect x="524.5" y="101.4" class="st1" width="16.7" height="8.5"/>
<rect x="508.4" y="101.4" class="st1" width="5.4" height="8.5"/>
<path class="st20" d="M511.1,30.5h2.2v0.4h-1.4v8.6h1.4v0.4h-2.2V30.5z M537.6,30.5h2.2v9.3h-2.2v-0.4h1.4v-8.6h-1.4V30.5z"/>
<text transform="matrix(1 0 0 1 513.4531 37.9673)" class="st53 st54">GA</text>
<text transform="matrix(1 0 0 1 525.8174 37.9673)" class="st53 st54">CT</text>
<polygon class="st55" points="527.3,46.5 527.3,89.9 529.5,89.9 525.2,94.2 521,89.9 523.1,89.9 523.1,46.5 "/>
<polygon class="st56" points="527.3,46.5 527.3,89.9 529.5,89.9 525.2,94.2 521,89.9 523.1,89.9 523.1,46.5 "/>
<path class="st20" d="M505.9,101.4h2.2v0.4h-1.4v8.6h1.4v0.4h-2.2V101.4z M541.6,101.4h2.2v9.3h-2.2v-0.4h1.4v-8.6h-1.4V101.4z"/>
<g>
	<defs>
		<rect id="SVGID_47_" width="552.8" height="127.5"/>
	</defs>
	<clipPath id="SVGID_48_">
		<use xlink:href="#SVGID_47_"  style="overflow:visible;"/>
	</clipPath>
	<g class="st57">
		<text transform="matrix(1 0 0 1 508.3027 108.9375)"><tspan x="0" y="0" class="st53 st54">00110</tspan><tspan x="27.6" y="0" class="st53 st54">1</tspan></text>
	</g>
</g>
<rect x="12.7" y="25.9" class="st0" width="11.3" height="11.3"/>
<rect x="24" y="25.9" class="st0" width="11.3" height="11.3"/>
<rect x="35.4" y="25.9" class="st0" width="11.3" height="11.3"/>
<rect x="80.7" y="25.9" class="st0" width="11.3" height="11.3"/>
<rect x="92.1" y="25.9" class="st0" width="11.3" height="11.3"/>
<rect x="103.4" y="25.9" class="st0" width="11.3" height="11.3"/>
<rect x="126.1" y="25.9" class="st0" width="11.3" height="11.3"/>
<rect x="12.7" y="37.2" class="st0" width="11.3" height="11.3"/>
<rect x="46.7" y="37.2" class="st0" width="11.3" height="11.3"/>
<rect x="58.1" y="37.2" class="st0" width="11.3" height="11.3"/>
<rect x="80.7" y="37.2" class="st0" width="11.3" height="11.3"/>
<rect x="92.1" y="37.2" class="st0" width="11.3" height="11.3"/>
<rect x="114.8" y="37.2" class="st0" width="11.3" height="11.3"/>
<rect x="126.1" y="37.2" class="st0" width="11.3" height="11.3"/>
<rect x="24" y="48.6" class="st0" width="11.3" height="11.3"/>
<rect x="46.7" y="48.6" class="st0" width="11.3" height="11.3"/>
<rect x="69.4" y="48.6" class="st0" width="11.3" height="11.3"/>
<rect x="80.7" y="48.6" class="st0" width="11.3" height="11.3"/>
<rect x="103.4" y="48.6" class="st0" width="11.3" height="11.3"/>
<rect x="114.8" y="48.6" class="st0" width="11.3" height="11.3"/>
<rect x="126.1" y="48.6" class="st0" width="11.3" height="11.3"/>
<rect x="35.4" y="59.9" class="st0" width="11.3" height="11.3"/>
<rect x="58.1" y="59.9" class="st0" width="11.3" height="11.3"/>
<rect x="69.4" y="59.9" class="st0" width="11.3" height="11.3"/>
<rect x="92.1" y="59.9" class="st0" width="11.3" height="11.3"/>
<rect x="103.4" y="59.9" class="st0" width="11.3" height="11.3"/>
<rect x="114.8" y="59.9" class="st0" width="11.3" height="11.3"/>
<rect x="126.1" y="59.9" class="st0" width="11.3" height="11.3"/>
<rect x="12.7" y="71.2" class="st0" width="11.3" height="11.3"/>
<rect x="24" y="71.2" class="st0" width="11.3" height="11.3"/>
<rect x="35.4" y="71.2" class="st0" width="11.3" height="11.3"/>
<rect x="80.7" y="71.2" class="st0" width="11.3" height="11.3"/>
<rect x="92.1" y="71.2" class="st0" width="11.3" height="11.3"/>
<rect x="103.4" y="71.2" class="st0" width="11.3" height="11.3"/>
<rect x="126.1" y="71.2" class="st0" width="11.3" height="11.3"/>
<rect x="12.7" y="82.6" class="st0" width="11.3" height="11.3"/>
<rect x="46.7" y="82.6" class="st0" width="11.3" height="11.3"/>
<rect x="58.1" y="82.6" class="st0" width="11.3" height="11.3"/>
<rect x="80.7" y="82.6" class="st0" width="11.3" height="11.3"/>
<rect x="92.1" y="82.6" class="st0" width="11.3" height="11.3"/>
<rect x="114.8" y="82.6" class="st0" width="11.3" height="11.3"/>
<rect x="126.1" y="82.6" class="st0" width="11.3" height="11.3"/>
<rect x="24" y="93.9" class="st0" width="11.3" height="11.3"/>
<rect x="46.7" y="93.9" class="st0" width="11.3" height="11.3"/>
<rect x="69.4" y="93.9" class="st0" width="11.3" height="11.3"/>
<rect x="80.7" y="93.9" class="st0" width="11.3" height="11.3"/>
<rect x="103.4" y="93.9" class="st0" width="11.3" height="11.3"/>
<rect x="114.8" y="93.9" class="st0" width="11.3" height="11.3"/>
<rect x="126.1" y="93.9" class="st0" width="11.3" height="11.3"/>
<rect x="35.4" y="105.2" class="st0" width="11.3" height="11.3"/>
<rect x="58.1" y="105.2" class="st0" width="11.3" height="11.3"/>
<rect x="69.4" y="105.2" class="st0" width="11.3" height="11.3"/>
<rect x="92.1" y="105.2" class="st0" width="11.3" height="11.3"/>
<rect x="103.4" y="105.2" class="st0" width="11.3" height="11.3"/>
<rect x="114.8" y="105.2" class="st0" width="11.3" height="11.3"/>
<rect x="126.1" y="105.2" class="st0" width="11.3" height="11.3"/>
<line class="st2" x1="12.2" y1="71.2" x2="137.9" y2="71.2"/>
<line class="st2" x1="12.7" y1="25.9" x2="12.7" y2="116.6"/>
<line class="st2" x1="137.4" y1="25.9" x2="137.4" y2="116.6"/>
<text transform="matrix(1 0 0 1 15.75 34.6089)" class="st3 st4">A</text>
<text transform="matrix(1 0 0 1 27.0898 34.6089)" class="st3 st4">A</text>
<text transform="matrix(1 0 0 1 38.4297 34.6089)" class="st3 st4">A</text>
<text transform="matrix(1 0 0 1 83.7808 34.6089)" class="st3 st4">A</text>
<text transform="matrix(1 0 0 1 95.1206 34.6089)" class="st3 st4">A</text>
<text transform="matrix(1 0 0 1 106.4609 34.6089)" class="st3 st4">A</text>
<text transform="matrix(1 0 0 1 129.1406 34.6089)" class="st3 st4">A</text>
<text transform="matrix(1 0 0 1 15.9927 45.9487)" class="st3 st4">C</text>
<text transform="matrix(1 0 0 1 50.0127 45.9487)" class="st3 st4">C</text>
<text transform="matrix(1 0 0 1 61.353 45.9487)" class="st3 st4">C</text>
<text transform="matrix(1 0 0 1 84.0327 45.9487)" class="st3 st4">C</text>
<text transform="matrix(1 0 0 1 95.373 45.9487)" class="st3 st4">C</text>
<text transform="matrix(1 0 0 1 118.0527 45.9487)" class="st3 st4">C</text>
<text transform="matrix(1 0 0 1 129.3926 45.9487)" class="st3 st4">C</text>
<text transform="matrix(1 0 0 1 26.8647 57.2886)" class="st3 st4">G</text>
<text transform="matrix(1 0 0 1 49.5449 57.2886)" class="st3 st4">G</text>
<text transform="matrix(1 0 0 1 72.2246 57.2886)" class="st3 st4">G</text>
<text transform="matrix(1 0 0 1 83.5649 57.2886)" class="st3 st4">G</text>
<text transform="matrix(1 0 0 1 106.2446 57.2886)" class="st3 st4">G</text>
<text transform="matrix(1 0 0 1 117.585 57.2886)" class="st3 st4">G</text>
<text transform="matrix(1 0 0 1 128.9248 57.2886)" class="st3 st4">G</text>
<text transform="matrix(1 0 0 1 38.8799 68.6289)" class="st3 st4">T</text>
<text transform="matrix(1 0 0 1 61.5601 68.6289)" class="st3 st4">T</text>
<text transform="matrix(1 0 0 1 72.8999 68.6289)" class="st3 st4">T</text>
<text transform="matrix(1 0 0 1 95.5796 68.6289)" class="st3 st4">T</text>
<text transform="matrix(1 0 0 1 106.9199 68.6289)" class="st3 st4">T</text>
<text transform="matrix(1 0 0 1 118.2598 68.6289)" class="st3 st4">T</text>
<text transform="matrix(1 0 0 1 129.5996 68.6289)" class="st3 st4">T</text>
<text transform="matrix(1 0 0 1 16.1548 79.9688)" class="st3 st4">0</text>
<text transform="matrix(1 0 0 1 27.4946 79.9688)" class="st3 st4">0</text>
<text transform="matrix(1 0 0 1 38.835 79.9688)" class="st3 st4">0</text>
<text transform="matrix(1 0 0 1 84.186 79.9688)" class="st3 st4">0</text>
<text transform="matrix(1 0 0 1 95.5259 79.9688)" class="st3 st4">0</text>
<text transform="matrix(1 0 0 1 106.8657 79.9688)" class="st3 st4">0</text>
<text transform="matrix(1 0 0 1 129.5459 79.9688)" class="st3 st4">0</text>
<text transform="matrix(1 0 0 1 16.1641 91.3086)" class="st3 st4">1</text>
<text transform="matrix(1 0 0 1 50.1841 91.3086)" class="st3 st4">0</text>
<text transform="matrix(1 0 0 1 61.5239 91.3086)" class="st3 st4">0</text>
<text transform="matrix(1 0 0 1 84.2036 91.3086)" class="st3 st4">1</text>
<text transform="matrix(1 0 0 1 95.5439 91.3086)" class="st3 st4">1</text>
<text transform="matrix(1 0 0 1 118.2236 91.3086)" class="st3 st4">0</text>
<text transform="matrix(1 0 0 1 129.564 91.3086)" class="st3 st4">1</text>
<text transform="matrix(1 0 0 1 27.5127 102.6484)" class="st3 st4">1</text>
<text transform="matrix(1 0 0 1 50.1929 102.6484)" class="st3 st4">1</text>
<text transform="matrix(1 0 0 1 72.873 102.6484)" class="st3 st4">0</text>
<text transform="matrix(1 0 0 1 84.2129 102.6484)" class="st3 st4">2</text>
<text transform="matrix(1 0 0 1 106.8931 102.6484)" class="st3 st4">1</text>
<text transform="matrix(1 0 0 1 118.2329 102.6484)" class="st3 st4">1</text>
<text transform="matrix(1 0 0 1 129.5728 102.6484)" class="st3 st4">2</text>
<text transform="matrix(1 0 0 1 38.8618 113.9883)" class="st3 st4">1</text>
<text transform="matrix(1 0 0 1 61.542 113.9883)" class="st3 st4">1</text>
<text transform="matrix(1 0 0 1 72.8818 113.9883)" class="st3 st4">1</text>
<text transform="matrix(1 0 0 1 95.562 113.9883)" class="st3 st4">2</text>
<text transform="matrix(1 0 0 1 106.9019 113.9883)" class="st3 st4">2</text>
<text transform="matrix(1 0 0 1 118.2417 113.9883)" class="st3 st4">2</text>
<text transform="matrix(1 0 0 1 129.582 113.9883)" class="st3 st4">3</text>
<text transform="matrix(1 0 0 1 141.3086 61.2939)"><tspan x="0" y="0" class="st3 st4">shu</tspan><tspan x="13" y="0" class="st3 st4">ffl</tspan><tspan x="20.3" y="0" class="st3 st4">e</tspan></text>
<polygon class="st55" points="146.5,68.5 159.2,68.5 159.2,66.3 163.5,70.6 159.2,74.9 159.2,72.7 146.5,72.7 "/>
<polygon class="st56" points="146.5,68.5 159.2,68.5 159.2,66.3 163.5,70.6 159.2,74.9 159.2,72.7 146.5,72.7 "/>
<polygon class="st55" points="307.8,68.2 320.5,68.2 320.5,66 324.7,70.3 320.5,74.6 320.5,72.4 307.8,72.4 "/>
<polygon class="st56" points="307.8,68.2 320.5,68.2 320.5,66 324.7,70.3 320.5,74.6 320.5,72.4 307.8,72.4 "/>
<g>
	<defs>
		<rect id="SVGID_49_" width="552.8" height="127.5"/>
	</defs>
	<clipPath id="SVGID_50_">
		<use xlink:href="#SVGID_49_"  style="overflow:visible;"/>
	</clipPath>
	<path class="st58" d="M530.1,59.2c0.4,0,0.8,0.2,1.1,0.5l0.6,1.2l0,0c1-0.9,2.3-1,3.1-0.1c0.6,0.7,0.9,1.7,0.8,2.9l0,0l0.9,1.2
		c0.2,0.5,0.3,1.1,0.3,1.7c0,0.9-0.3,1.8-0.8,2.6c0.3,1.3,0.2,2.8-0.5,4.1c-0.8,1.7-2.3,2.8-3.8,2.7c-0.3,1.1-1,2.1-1.8,2.7
		c-1.3,0.9-2.7,0.6-3.6-0.6c-0.8,1.5-2.1,2.4-3.3,2.5c-1.5,0.1-2.8-1.1-3.1-2.9c-2.3,1-4.5-0.5-4.9-3.4c-1.1-0.1-1.9-1.3-1.8-2.8
		c0.1-1.1,0.6-2.1,1.3-2.7c-0.6-0.8-0.7-2.1-0.3-3.3c0.5-1.4,1.6-2.2,2.7-2.1l0-0.1c0.2-1.4,0.9-2.7,1.9-3.5
		c1.5-1.3,3.4-1.2,4.5,0.3l0,0l1.2-1.1c1.3-0.7,2.7-0.2,3.3,1.3l0,0l1-0.9C529.4,59.3,529.7,59.2,530.1,59.2"/>
	<path class="st59" d="M530.1,59.2c0.4,0,0.8,0.2,1.1,0.5l0.6,1.2l0,0c1-0.9,2.3-1,3.1-0.1c0.6,0.7,0.9,1.7,0.8,2.9l0,0l0.9,1.2
		c0.2,0.5,0.3,1.1,0.3,1.7c0,0.9-0.3,1.8-0.8,2.6c0.3,1.3,0.2,2.8-0.5,4.1c-0.8,1.7-2.3,2.8-3.8,2.7c-0.3,1.1-1,2.1-1.8,2.7
		c-1.3,0.9-2.7,0.6-3.6-0.6c-0.8,1.5-2.1,2.4-3.3,2.5c-1.5,0.1-2.8-1.1-3.1-2.9c-2.3,1-4.5-0.5-4.9-3.4c-1.1-0.1-1.9-1.3-1.8-2.8
		c0.1-1.1,0.6-2.1,1.3-2.7c-0.6-0.8-0.7-2.1-0.3-3.3c0.5-1.4,1.6-2.2,2.7-2.1l0-0.1c0.2-1.4,0.9-2.7,1.9-3.5
		c1.5-1.3,3.4-1.2,4.5,0.3l0,0l1.2-1.1c1.3-0.7,2.7-0.2,3.3,1.3l0,0l1-0.9C529.4,59.3,529.7,59.2,530.1,59.2z"/>
</g>
<g>
	<defs>
		<rect id="SVGID_51_" width="552.8" height="127.5"/>
	</defs>
	<clipPath id="SVGID_52_">
		<use xlink:href="#SVGID_51_"  style="overflow:visible;"/>
	</clipPath>
	<path class="st60" d="M536.8,65.4l0.3,1.5c0,0.9-0.3,1.8-0.8,2.6c0.3,1.3,0.2,2.8-0.5,4.1c-0.8,1.7-2.3,2.8-3.8,2.7
		c-0.3,1.1-1,2.1-1.8,2.7c-1.3,0.9-2.7,0.6-3.6-0.6c-0.8,1.5-2.1,2.4-3.3,2.5c-1.5,0.1-2.8-1.1-3.1-2.9c-1.1,0.5-2.3,0.4-3.2-0.2
		l-0.4-0.5L536.8,65.4z"/>
</g>
<text transform="matrix(1 0 0 1 521.2578 72.2217)" class="st53 st54">ℰ</text>
<text transform="matrix(1 0 0 1 526.957 74.2617)" class="st53 st61">s</text>
</svg>
