<?xml version="1.0" encoding="utf-8"?>
<!-- Generator: Adobe Illustrator 22.0.0, SVG Export Plug-In . SVG Version: 6.00 Build 0)  -->
<svg version="1.1" id="图层_1" xmlns="http://www.w3.org/2000/svg" xmlns:xlink="http://www.w3.org/1999/xlink" x="0px" y="0px"
	 viewBox="0 0 552.8 127.5" style="enable-background:new 0 0 552.8 127.5;" xml:space="preserve">
<style type="text/css">
	.st0{clip-path:url(#SVGID_2_);fill:none;stroke:#000000;stroke-width:1.02;stroke-miterlimit:8;}
	.st1{clip-path:url(#SVGID_2_);fill-rule:evenodd;clip-rule:evenodd;}
	.st2{clip-path:url(#SVGID_4_);fill:none;stroke:#000000;stroke-width:1.02;stroke-miterlimit:8;}
	.st3{clip-path:url(#SVGID_4_);fill-rule:evenodd;clip-rule:evenodd;}
	.st4{clip-path:url(#SVGID_6_);fill:none;stroke:#A9D18E;stroke-width:1.98;stroke-miterlimit:8;}
	.st5{clip-path:url(#SVGID_6_);fill-rule:evenodd;clip-rule:evenodd;fill:#A9D18E;}
	.st6{clip-path:url(#SVGID_8_);fill:none;stroke:#000000;stroke-width:1.02;stroke-miterlimit:8;}
	.st7{clip-path:url(#SVGID_8_);fill-rule:evenodd;clip-rule:evenodd;}
	.st8{clip-path:url(#SVGID_10_);fill:none;stroke:#FF9E9B;stroke-width:1.98;stroke-miterlimit:8;}
	.st9{clip-path:url(#SVGID_10_);fill-rule:evenodd;clip-rule:evenodd;fill:#FF9E9B;}
	.st10{clip-path:url(#SVGID_12_);fill:none;stroke:#000000;stroke-width:1.02;stroke-miterlimit:8;}
	.st11{clip-path:url(#SVGID_12_);fill-rule:evenodd;clip-rule:evenodd;}
	.st12{clip-path:url(#SVGID_14_);fill:none;stroke:#000000;stroke-width:1.02;stroke-miterlimit:8;}
	.st13{clip-path:url(#SVGID_14_);fill-rule:evenodd;clip-rule:evenodd;}
	.st14{fill:none;stroke:#000000;stroke-width:1.02;stroke-miterlimit:8;}
	.st15{fill-rule:evenodd;clip-rule:evenodd;}
	.st16{clip-path:url(#SVGID_16_);fill:none;stroke:#A9D18E;stroke-width:1.98;stroke-miterlimit:8;}
	.st17{clip-path:url(#SVGID_16_);fill-rule:evenodd;clip-rule:evenodd;fill:#A9D18E;}
	.st18{clip-path:url(#SVGID_18_);fill:none;stroke:#A9D18E;stroke-width:1.98;stroke-miterlimit:8;}
	.st19{clip-path:url(#SVGID_18_);fill-rule:evenodd;clip-rule:evenodd;fill:#A9D18E;}
	.st20{clip-path:url(#SVGID_20_);fill:none;stroke:#000000;stroke-width:1.02;stroke-miterlimit:8;}
	.st21{clip-path:url(#SVGID_20_);fill-rule:evenodd;clip-rule:evenodd;}
	.st22{clip-path:url(#SVGID_22_);fill-rule:evenodd;clip-rule:evenodd;fill:#FFFFFF;}
	.st23{clip-path:url(#SVGID_22_);fill:none;stroke:#000000;stroke-width:1.02;stroke-miterlimit:8;}
	.st24{clip-path:url(#SVGID_24_);fill-rule:evenodd;clip-rule:evenodd;fill:#FFFFFF;}
	.st25{clip-path:url(#SVGID_24_);fill:none;stroke:#000000;stroke-width:1.02;stroke-miterlimit:8;}
	.st26{clip-path:url(#SVGID_26_);fill-rule:evenodd;clip-rule:evenodd;fill:#FFFFFF;}
	.st27{clip-path:url(#SVGID_26_);fill:none;stroke:#000000;stroke-width:1.02;stroke-miterlimit:8;}
	.st28{clip-path:url(#SVGID_28_);fill-rule:evenodd;clip-rule:evenodd;fill:#FFFFFF;}
	.st29{clip-path:url(#SVGID_28_);fill:none;stroke:#000000;stroke-width:1.02;stroke-miterlimit:8;}
	.st30{clip-path:url(#SVGID_30_);fill-rule:evenodd;clip-rule:evenodd;fill:#FFFFFF;}
	.st31{clip-path:url(#SVGID_30_);fill:none;stroke:#000000;stroke-width:1.02;stroke-miterlimit:8;}
	.st32{clip-path:url(#SVGID_32_);fill-rule:evenodd;clip-rule:evenodd;fill:#FFFFFF;}
	.st33{clip-path:url(#SVGID_32_);fill:none;stroke:#000000;stroke-width:1.02;stroke-miterlimit:8;}
	.st34{clip-path:url(#SVGID_34_);fill-rule:evenodd;clip-rule:evenodd;fill:#FFFFFF;}
	.st35{clip-path:url(#SVGID_34_);fill:none;stroke:#000000;stroke-width:1.02;stroke-miterlimit:8;}
	.st36{clip-path:url(#SVGID_36_);fill-rule:evenodd;clip-rule:evenodd;fill:#FFFFFF;}
	.st37{clip-path:url(#SVGID_36_);fill:none;stroke:#000000;stroke-width:1.02;stroke-miterlimit:8;}
	.st38{clip-path:url(#SVGID_38_);fill-rule:evenodd;clip-rule:evenodd;fill:#FFFFFF;}
	.st39{clip-path:url(#SVGID_38_);fill:none;stroke:#000000;stroke-width:1.02;stroke-miterlimit:8;}
	.st40{clip-path:url(#SVGID_40_);fill-rule:evenodd;clip-rule:evenodd;fill:#FFFFFF;}
	.st41{clip-path:url(#SVGID_40_);fill:none;stroke:#000000;stroke-width:1.02;stroke-miterlimit:8;}
	.st42{clip-path:url(#SVGID_42_);fill-rule:evenodd;clip-rule:evenodd;fill:#FFFFFF;}
	.st43{clip-path:url(#SVGID_42_);fill:none;stroke:#000000;stroke-width:1.02;stroke-miterlimit:8;}
	.st44{clip-path:url(#SVGID_44_);fill-rule:evenodd;clip-rule:evenodd;fill:#FFFFFF;}
	.st45{clip-path:url(#SVGID_44_);fill:none;stroke:#000000;stroke-width:1.02;stroke-miterlimit:8;}
	.st46{fill-rule:evenodd;clip-rule:evenodd;fill:#FFFFFF;}
	.st47{clip-path:url(#SVGID_46_);fill-rule:evenodd;clip-rule:evenodd;}
	.st48{font-family:'CambriaMath';}
	.st49{font-size:7.02px;}
	.st50{fill-rule:evenodd;clip-rule:evenodd;fill:#A9D18E;}
	.st51{clip-path:url(#SVGID_48_);fill-rule:evenodd;clip-rule:evenodd;}
	.st52{clip-path:url(#SVGID_50_);fill-rule:evenodd;clip-rule:evenodd;}
	.st53{clip-path:url(#SVGID_52_);fill-rule:evenodd;clip-rule:evenodd;}
	.st54{clip-path:url(#SVGID_54_);fill-rule:evenodd;clip-rule:evenodd;}
	.st55{clip-path:url(#SVGID_56_);fill-rule:evenodd;clip-rule:evenodd;}
	.st56{clip-path:url(#SVGID_58_);fill-rule:evenodd;clip-rule:evenodd;}
	.st57{fill-rule:evenodd;clip-rule:evenodd;fill:#FF9E9B;}
	.st58{clip-path:url(#SVGID_60_);fill-rule:evenodd;clip-rule:evenodd;}
	.st59{clip-path:url(#SVGID_62_);fill-rule:evenodd;clip-rule:evenodd;}
	.st60{clip-path:url(#SVGID_64_);fill-rule:evenodd;clip-rule:evenodd;}
	.st61{clip-path:url(#SVGID_66_);fill-rule:evenodd;clip-rule:evenodd;}
	.st62{fill-rule:evenodd;clip-rule:evenodd;fill:#FF8A86;}
	.st63{fill:none;stroke:#000000;stroke-linejoin:round;stroke-miterlimit:10;}
	.st64{font-family:'MicrosoftYaHei';}
	.st65{font-size:7.98px;}
	.st66{font-family:'MicrosoftYaHei-Bold';}
	.st67{font-size:10.98px;}
	.st68{font-size:9px;}
	.st69{clip-path:url(#SVGID_68_);}
	.st70{clip-path:url(#SVGID_70_);fill-rule:evenodd;clip-rule:evenodd;fill:#FCBBAE;}
	.st71{clip-path:url(#SVGID_70_);fill:none;stroke:#FF8884;stroke-miterlimit:8;}
	.st72{clip-path:url(#SVGID_72_);fill-rule:evenodd;clip-rule:evenodd;fill:#9AC87A;}
	.st73{clip-path:url(#SVGID_74_);fill:none;stroke:#000000;stroke-width:1.02;stroke-miterlimit:8;}
</style>
<g>
	<defs>
		<rect id="SVGID_1_" width="552.8" height="127.5"/>
	</defs>
	<clipPath id="SVGID_2_">
		<use xlink:href="#SVGID_1_"  style="overflow:visible;"/>
	</clipPath>
	<path class="st0" d="M320.7,72.2c0,10.9,16.3,21.8,34,23.6"/>
	<polygon class="st1" points="353.6,98.7 359.8,96 353.9,92.7 	"/>
</g>
<g>
	<defs>
		<rect id="SVGID_3_" width="552.8" height="127.5"/>
	</defs>
	<clipPath id="SVGID_4_">
		<use xlink:href="#SVGID_3_"  style="overflow:visible;"/>
	</clipPath>
	<path class="st2" d="M322.7,71.4c0,3.1,15.3,6.3,32,6.8"/>
	<polygon class="st3" points="353.7,81.2 359.8,78.3 353.8,75.2 	"/>
</g>
<g>
	<defs>
		<rect id="SVGID_5_" width="552.8" height="127.5"/>
	</defs>
	<clipPath id="SVGID_6_">
		<use xlink:href="#SVGID_5_"  style="overflow:visible;"/>
	</clipPath>
	<path class="st4" d="M322.7,67.3c0-3.1,15.3-6.3,32-6.8"/>
	<polygon class="st5" points="353.7,57.5 359.8,60.4 353.8,63.5 	"/>
</g>
<g>
	<defs>
		<rect id="SVGID_7_" width="552.8" height="127.5"/>
	</defs>
	<clipPath id="SVGID_8_">
		<use xlink:href="#SVGID_7_"  style="overflow:visible;"/>
	</clipPath>
	<path class="st6" d="M320.7,66.5c0-10.9,16.3-21.8,34-23.6"/>
	<polygon class="st7" points="353.6,40 359.8,42.7 353.9,46 	"/>
</g>
<g>
	<defs>
		<rect id="SVGID_9_" width="552.8" height="127.5"/>
	</defs>
	<clipPath id="SVGID_10_">
		<use xlink:href="#SVGID_9_"  style="overflow:visible;"/>
	</clipPath>
	<path class="st8" d="M404.5,66.8c0-2.4,16.3-4.7,34-5.1"/>
	<polygon class="st9" points="437.5,58.7 443.5,61.6 437.6,64.7 	"/>
</g>
<g>
	<defs>
		<rect id="SVGID_11_" width="552.8" height="127.5"/>
	</defs>
	<clipPath id="SVGID_12_">
		<use xlink:href="#SVGID_11_"  style="overflow:visible;"/>
	</clipPath>
	<path class="st10" d="M404.5,72.5c0,3.2,16.3,6.3,34,6.9"/>
	<polygon class="st11" points="437.5,82.4 443.5,79.4 437.6,76.4 	"/>
</g>
<g>
	<defs>
		<rect id="SVGID_13_" width="552.8" height="127.5"/>
	</defs>
	<clipPath id="SVGID_14_">
		<use xlink:href="#SVGID_13_"  style="overflow:visible;"/>
	</clipPath>
	<path class="st12" d="M446.4,64.5c0,6.7,16.3,13.4,34,14.5"/>
	<polygon class="st13" points="479.3,82 485.4,79.2 479.5,76 	"/>
</g>
<line class="st14" x1="449.2" y1="61.7" x2="480.4" y2="61.4"/>
<polygon class="st15" points="479.4,64.5 485.4,61.4 479.4,58.5 "/>
<g>
	<defs>
		<rect id="SVGID_15_" width="552.8" height="127.5"/>
	</defs>
	<clipPath id="SVGID_16_">
		<use xlink:href="#SVGID_15_"  style="overflow:visible;"/>
	</clipPath>
	<path class="st16" d="M446.4,58.8c0-6.9,16.3-13.9,34-15"/>
	<polygon class="st17" points="479.3,40.8 485.4,43.6 479.5,46.8 	"/>
</g>
<g>
	<defs>
		<rect id="SVGID_17_" width="552.8" height="127.5"/>
	</defs>
	<clipPath id="SVGID_18_">
		<use xlink:href="#SVGID_17_"  style="overflow:visible;"/>
	</clipPath>
	<path class="st18" d="M362.6,63.3c0,2.9,16.3,5.8,34,6.3"/>
	<polygon class="st19" points="395.6,72.6 401.7,69.6 395.7,66.6 	"/>
</g>
<g>
	<defs>
		<rect id="SVGID_19_" width="552.8" height="127.5"/>
	</defs>
	<clipPath id="SVGID_20_">
		<use xlink:href="#SVGID_19_"  style="overflow:visible;"/>
	</clipPath>
	<path class="st20" d="M362.6,57.6c0-2.6,16.3-5.2,34-5.7"/>
	<polygon class="st21" points="395.6,48.9 401.7,51.9 395.7,54.9 	"/>
</g>
<g>
	<defs>
		<rect id="SVGID_21_" width="552.8" height="127.5"/>
	</defs>
	<clipPath id="SVGID_22_">
		<use xlink:href="#SVGID_21_"  style="overflow:visible;"/>
	</clipPath>
	<path class="st22" d="M317.9,69.3c0-1.6,1.3-2.8,2.8-2.8s2.8,1.3,2.8,2.8c0,1.6-1.3,2.8-2.8,2.8S317.9,70.9,317.9,69.3"/>
	<circle class="st23" cx="320.7" cy="69.3" r="2.8"/>
</g>
<g>
	<defs>
		<rect id="SVGID_23_" width="552.8" height="127.5"/>
	</defs>
	<clipPath id="SVGID_24_">
		<use xlink:href="#SVGID_23_"  style="overflow:visible;"/>
	</clipPath>
	<path class="st24" d="M359.8,42.7c0-1.6,1.3-2.8,2.8-2.8s2.8,1.3,2.8,2.8c0,1.6-1.3,2.9-2.8,2.9S359.8,44.2,359.8,42.7"/>
	<ellipse class="st25" cx="362.6" cy="42.7" rx="2.8" ry="2.9"/>
</g>
<g>
	<defs>
		<rect id="SVGID_25_" width="552.8" height="127.5"/>
	</defs>
	<clipPath id="SVGID_26_">
		<use xlink:href="#SVGID_25_"  style="overflow:visible;"/>
	</clipPath>
	<path class="st26" d="M359.8,60.4c0-1.6,1.3-2.8,2.8-2.8s2.8,1.3,2.8,2.8c0,1.6-1.3,2.8-2.8,2.8S359.8,62,359.8,60.4"/>
	<circle class="st27" cx="362.6" cy="60.4" r="2.8"/>
</g>
<g>
	<defs>
		<rect id="SVGID_27_" width="552.8" height="127.5"/>
	</defs>
	<clipPath id="SVGID_28_">
		<use xlink:href="#SVGID_27_"  style="overflow:visible;"/>
	</clipPath>
	<path class="st28" d="M359.8,78.2c0-1.6,1.3-2.9,2.8-2.9s2.8,1.3,2.8,2.9c0,1.6-1.3,2.8-2.8,2.8S359.8,79.8,359.8,78.2"/>
	<ellipse class="st29" cx="362.6" cy="78.2" rx="2.8" ry="2.8"/>
</g>
<g>
	<defs>
		<rect id="SVGID_29_" width="552.8" height="127.5"/>
	</defs>
	<clipPath id="SVGID_30_">
		<use xlink:href="#SVGID_29_"  style="overflow:visible;"/>
	</clipPath>
	<path class="st30" d="M359.8,96c0-1.6,1.3-2.8,2.8-2.8s2.8,1.3,2.8,2.8c0,1.6-1.3,2.8-2.8,2.8S359.8,97.6,359.8,96"/>
	<ellipse class="st31" cx="362.6" cy="96" rx="2.8" ry="2.8"/>
</g>
<g>
	<defs>
		<rect id="SVGID_31_" width="552.8" height="127.5"/>
	</defs>
	<clipPath id="SVGID_32_">
		<use xlink:href="#SVGID_31_"  style="overflow:visible;"/>
	</clipPath>
	<path class="st32" d="M485.4,43.6c0-1.6,1.3-2.8,2.8-2.8s2.8,1.3,2.8,2.8c0,1.6-1.3,2.8-2.8,2.8S485.4,45.1,485.4,43.6"/>
	<circle class="st33" cx="488.2" cy="43.6" r="2.8"/>
</g>
<g>
	<defs>
		<rect id="SVGID_33_" width="552.8" height="127.5"/>
	</defs>
	<clipPath id="SVGID_34_">
		<use xlink:href="#SVGID_33_"  style="overflow:visible;"/>
	</clipPath>
	<path class="st34" d="M485.4,61.4c0-1.6,1.3-2.8,2.8-2.8s2.8,1.3,2.8,2.8c0,1.6-1.3,2.8-2.8,2.8S485.4,63,485.4,61.4"/>
	<ellipse class="st35" cx="488.2" cy="61.4" rx="2.8" ry="2.8"/>
</g>
<g>
	<defs>
		<rect id="SVGID_35_" width="552.8" height="127.5"/>
	</defs>
	<clipPath id="SVGID_36_">
		<use xlink:href="#SVGID_35_"  style="overflow:visible;"/>
	</clipPath>
	<path class="st36" d="M485.4,79.2c0-1.6,1.3-2.8,2.8-2.8s2.8,1.3,2.8,2.8c0,1.6-1.3,2.8-2.8,2.8S485.4,80.7,485.4,79.2"/>
	<circle class="st37" cx="488.2" cy="79.2" r="2.8"/>
</g>
<g>
	<defs>
		<rect id="SVGID_37_" width="552.8" height="127.5"/>
	</defs>
	<clipPath id="SVGID_38_">
		<use xlink:href="#SVGID_37_"  style="overflow:visible;"/>
	</clipPath>
	<path class="st38" d="M443.5,61.7c0-1.6,1.3-2.8,2.8-2.8s2.8,1.3,2.8,2.8c0,1.6-1.3,2.8-2.8,2.8S443.5,63.2,443.5,61.7"/>
	<circle class="st39" cx="446.4" cy="61.7" r="2.8"/>
</g>
<g>
	<defs>
		<rect id="SVGID_39_" width="552.8" height="127.5"/>
	</defs>
	<clipPath id="SVGID_40_">
		<use xlink:href="#SVGID_39_"  style="overflow:visible;"/>
	</clipPath>
	<path class="st40" d="M443.5,79.4c0-1.6,1.3-2.8,2.8-2.8s2.8,1.3,2.8,2.8c0,1.6-1.3,2.8-2.8,2.8S443.5,81,443.5,79.4"/>
	<circle class="st41" cx="446.4" cy="79.4" r="2.8"/>
</g>
<g>
	<defs>
		<rect id="SVGID_41_" width="552.8" height="127.5"/>
	</defs>
	<clipPath id="SVGID_42_">
		<use xlink:href="#SVGID_41_"  style="overflow:visible;"/>
	</clipPath>
	<path class="st42" d="M401.7,51.9c0-1.6,1.3-2.8,2.8-2.8s2.8,1.3,2.8,2.8c0,1.6-1.3,2.8-2.8,2.8S401.7,53.4,401.7,51.9"/>
	<circle class="st43" cx="404.5" cy="51.9" r="2.8"/>
</g>
<g>
	<defs>
		<rect id="SVGID_43_" width="552.8" height="127.5"/>
	</defs>
	<clipPath id="SVGID_44_">
		<use xlink:href="#SVGID_43_"  style="overflow:visible;"/>
	</clipPath>
	<path class="st44" d="M401.7,69.7c0-1.6,1.3-2.9,2.8-2.9s2.8,1.3,2.8,2.9c0,1.6-1.3,2.8-2.8,2.8S401.7,71.2,401.7,69.7"/>
	<ellipse class="st45" cx="404.5" cy="69.7" rx="2.8" ry="2.8"/>
</g>
<rect x="324.8" y="45.4" class="st46" width="17.9" height="8.5"/>
<g>
	<defs>
		<rect id="SVGID_45_" width="552.8" height="127.5"/>
	</defs>
	<clipPath id="SVGID_46_">
		<use xlink:href="#SVGID_45_"  style="overflow:visible;"/>
	</clipPath>
	<path class="st47" d="M339.1,47L339.1,47c0.6,0,1,0.1,1.3,0.4c0.3,0.2,0.4,0.6,0.4,1.1c0,0.2,0,0.4-0.1,0.6
		c-0.1,0.2-0.1,0.4-0.1,0.5c0,0.2,0.1,0.3,0.2,0.4c0.1,0.1,0.3,0.2,0.5,0.2v0.3c-0.2,0-0.4,0.1-0.5,0.2c-0.1,0.1-0.2,0.2-0.2,0.4
		c0,0.1,0,0.2,0.1,0.5c0.1,0.2,0.1,0.5,0.1,0.6c0,0.5-0.1,0.9-0.4,1.1c-0.3,0.2-0.7,0.4-1.2,0.4h-0.1v-0.3h0.1
		c0.3,0,0.6-0.1,0.8-0.3c0.2-0.2,0.3-0.5,0.3-0.9c0-0.2,0-0.4-0.1-0.6c0-0.2-0.1-0.4-0.1-0.5c0-0.2,0.1-0.4,0.2-0.5
		c0.1-0.1,0.3-0.2,0.4-0.3v-0.1c-0.2-0.1-0.3-0.2-0.4-0.3c-0.1-0.1-0.2-0.3-0.2-0.5c0-0.1,0-0.3,0.1-0.5c0-0.2,0.1-0.4,0.1-0.6
		c0-0.4-0.1-0.7-0.3-0.9c-0.2-0.2-0.4-0.3-0.8-0.3h-0.1V47z M328.4,47L328.4,47l0.1,0.3h-0.1c-0.3,0-0.6,0.1-0.8,0.3
		c-0.2,0.2-0.3,0.5-0.3,0.9c0,0.2,0,0.4,0.1,0.6c0,0.2,0.1,0.4,0.1,0.5c0,0.2-0.1,0.4-0.2,0.5c-0.1,0.1-0.3,0.2-0.4,0.3v0.1
		c0.2,0.1,0.3,0.2,0.4,0.3c0.1,0.1,0.2,0.3,0.2,0.5c0,0.1,0,0.3-0.1,0.5c0,0.2-0.1,0.4-0.1,0.6c0,0.4,0.1,0.7,0.3,0.9
		c0.2,0.2,0.4,0.3,0.8,0.3h0.1v0.3h-0.1c-0.5,0-0.9-0.1-1.2-0.4c-0.3-0.2-0.4-0.6-0.4-1.1c0-0.2,0-0.4,0.1-0.6
		c0.1-0.2,0.1-0.4,0.1-0.5c0-0.2-0.1-0.3-0.2-0.4c-0.1-0.1-0.3-0.2-0.5-0.2v-0.3c0.2,0,0.4-0.1,0.5-0.2c0.1-0.1,0.2-0.2,0.2-0.4
		c0-0.1,0-0.2-0.1-0.5c-0.1-0.2-0.1-0.5-0.1-0.6c0-0.5,0.1-0.8,0.4-1.1C327.5,47.1,327.9,47,328.4,47 M333.7,47h0.5v6.4h-0.5V47z"/>
</g>
<text transform="matrix(1 0 0 1 328.6807 52.1675)" class="st48 st49">T</text>
<text transform="matrix(1 0 0 1 335.041 52.1675)" class="st48 st49">0</text>
<rect x="328.9" y="57.9" class="st50" width="18.1" height="8.5"/>
<g>
	<defs>
		<rect id="SVGID_47_" width="552.8" height="127.5"/>
	</defs>
	<clipPath id="SVGID_48_">
		<use xlink:href="#SVGID_47_"  style="overflow:visible;"/>
	</clipPath>
	<path class="st51" d="M343.3,59.4L343.3,59.4c0.6,0,1,0.1,1.3,0.4c0.3,0.2,0.4,0.6,0.4,1.1c0,0.2,0,0.4-0.1,0.6
		c-0.1,0.2-0.1,0.4-0.1,0.5c0,0.2,0.1,0.3,0.2,0.4c0.1,0.1,0.3,0.2,0.5,0.2v0.3c-0.2,0-0.4,0.1-0.5,0.2c-0.1,0.1-0.2,0.2-0.2,0.4
		c0,0.1,0,0.2,0.1,0.5c0.1,0.2,0.1,0.5,0.1,0.6c0,0.5-0.1,0.9-0.4,1.1c-0.3,0.2-0.7,0.4-1.2,0.4h-0.1v-0.3h0.1
		c0.3,0,0.6-0.1,0.8-0.3c0.2-0.2,0.3-0.5,0.3-0.9c0-0.2,0-0.4-0.1-0.6c0-0.2-0.1-0.4-0.1-0.5c0-0.2,0.1-0.4,0.2-0.5
		c0.1-0.1,0.3-0.2,0.4-0.3v-0.1c-0.2-0.1-0.3-0.2-0.4-0.3c-0.1-0.1-0.2-0.3-0.2-0.5c0-0.1,0-0.3,0.1-0.5c0-0.2,0.1-0.4,0.1-0.6
		c0-0.4-0.1-0.7-0.3-0.9c-0.2-0.2-0.4-0.3-0.8-0.3h-0.1V59.4z M332.5,59.4L332.5,59.4l0.1,0.3h-0.1c-0.3,0-0.6,0.1-0.8,0.3
		c-0.2,0.2-0.3,0.5-0.3,0.9c0,0.2,0,0.4,0.1,0.6c0,0.2,0.1,0.4,0.1,0.5c0,0.2-0.1,0.4-0.2,0.5c-0.1,0.1-0.3,0.2-0.4,0.3v0.1
		c0.2,0.1,0.3,0.2,0.4,0.3c0.1,0.1,0.2,0.3,0.2,0.5c0,0.1,0,0.3-0.1,0.5c0,0.2-0.1,0.4-0.1,0.6c0,0.4,0.1,0.7,0.3,0.9
		c0.2,0.2,0.4,0.3,0.8,0.3h0.1V66h-0.1c-0.5,0-0.9-0.1-1.2-0.4c-0.3-0.2-0.4-0.6-0.4-1.1c0-0.2,0-0.4,0.1-0.6
		c0.1-0.2,0.1-0.4,0.1-0.5c0-0.2-0.1-0.3-0.2-0.4c-0.1-0.1-0.3-0.2-0.5-0.2v-0.3c0.2,0,0.4-0.1,0.5-0.2c0.1-0.1,0.2-0.2,0.2-0.4
		c0-0.1,0-0.2-0.1-0.5c-0.1-0.2-0.1-0.5-0.1-0.6c0-0.5,0.1-0.8,0.4-1.1C331.5,59.6,331.9,59.4,332.5,59.4 M337.9,59.5h0.5v6.4h-0.5
		V59.5z"/>
</g>
<text transform="matrix(1 0 0 1 332.7461 64.625)" class="st48 st49">G</text>
<text transform="matrix(1 0 0 1 339.2256 64.625)" class="st48 st49">1</text>
<rect x="328.7" y="71" class="st46" width="17.8" height="8.5"/>
<g>
	<defs>
		<rect id="SVGID_49_" width="552.8" height="127.5"/>
	</defs>
	<clipPath id="SVGID_50_">
		<use xlink:href="#SVGID_49_"  style="overflow:visible;"/>
	</clipPath>
	<path class="st52" d="M342.9,72.5L342.9,72.5c0.6,0,1,0.1,1.3,0.4c0.3,0.2,0.4,0.6,0.4,1.1c0,0.2,0,0.4-0.1,0.6
		c-0.1,0.2-0.1,0.4-0.1,0.5c0,0.2,0.1,0.3,0.2,0.4c0.1,0.1,0.3,0.2,0.5,0.2v0.3c-0.2,0-0.4,0.1-0.5,0.2c-0.1,0.1-0.2,0.2-0.2,0.4
		c0,0.1,0,0.2,0.1,0.5c0.1,0.2,0.1,0.5,0.1,0.6c0,0.5-0.1,0.9-0.4,1.1c-0.3,0.2-0.7,0.4-1.2,0.4h-0.1v-0.3h0.1
		c0.3,0,0.6-0.1,0.8-0.3c0.2-0.2,0.3-0.5,0.3-0.9c0-0.2,0-0.4-0.1-0.6c0-0.2-0.1-0.4-0.1-0.5c0-0.2,0.1-0.4,0.2-0.5
		c0.1-0.1,0.3-0.2,0.4-0.3v-0.1c-0.2-0.1-0.3-0.2-0.4-0.3c-0.1-0.1-0.2-0.3-0.2-0.5c0-0.1,0-0.3,0.1-0.5c0-0.2,0.1-0.4,0.1-0.6
		c0-0.4-0.1-0.7-0.3-0.9c-0.2-0.2-0.4-0.3-0.8-0.3h-0.1V72.5z M332.3,72.5L332.3,72.5l0.1,0.3h-0.1c-0.3,0-0.6,0.1-0.8,0.3
		c-0.2,0.2-0.3,0.5-0.3,0.9c0,0.2,0,0.4,0.1,0.6c0,0.2,0.1,0.4,0.1,0.5c0,0.2-0.1,0.4-0.2,0.5s-0.3,0.2-0.4,0.3v0.1
		c0.2,0.1,0.3,0.2,0.4,0.3c0.1,0.1,0.2,0.3,0.2,0.5c0,0.1,0,0.3-0.1,0.5c0,0.2-0.1,0.4-0.1,0.6c0,0.4,0.1,0.7,0.3,0.9
		c0.2,0.2,0.4,0.3,0.8,0.3h0.1v0.3h-0.1c-0.5,0-0.9-0.1-1.2-0.4c-0.3-0.2-0.4-0.6-0.4-1.1c0-0.2,0-0.4,0.1-0.6
		c0.1-0.2,0.1-0.4,0.1-0.5c0-0.2-0.1-0.3-0.2-0.4c-0.1-0.1-0.3-0.2-0.5-0.2v-0.3c0.2,0,0.4-0.1,0.5-0.2c0.1-0.1,0.2-0.2,0.2-0.4
		c0-0.1,0-0.2-0.1-0.5c-0.1-0.2-0.1-0.5-0.1-0.6c0-0.5,0.1-0.8,0.4-1.1C331.4,72.7,331.8,72.6,332.3,72.5 M337.4,72.6h0.5V79h-0.5
		V72.6z"/>
</g>
<text transform="matrix(1 0 0 1 332.5693 77.7559)" class="st48 st49">C</text>
<text transform="matrix(1 0 0 1 338.7471 77.7559)" class="st48 st49">2</text>
<rect x="324.8" y="83" class="st46" width="18.2" height="8.5"/>
<g>
	<defs>
		<rect id="SVGID_51_" width="552.8" height="127.5"/>
	</defs>
	<clipPath id="SVGID_52_">
		<use xlink:href="#SVGID_51_"  style="overflow:visible;"/>
	</clipPath>
	<path class="st53" d="M339.3,84.6L339.3,84.6c0.6,0,1,0.1,1.3,0.4c0.3,0.2,0.4,0.6,0.4,1.1c0,0.2,0,0.4-0.1,0.6
		c-0.1,0.2-0.1,0.4-0.1,0.5c0,0.2,0.1,0.3,0.2,0.4c0.1,0.1,0.3,0.2,0.5,0.2V88c-0.2,0-0.4,0.1-0.5,0.2c-0.1,0.1-0.2,0.2-0.2,0.4
		c0,0.1,0,0.2,0.1,0.5c0.1,0.2,0.1,0.5,0.1,0.6c0,0.5-0.1,0.9-0.4,1.1c-0.3,0.2-0.7,0.4-1.2,0.4h-0.1v-0.3h0.1
		c0.3,0,0.6-0.1,0.8-0.3c0.2-0.2,0.3-0.5,0.3-0.9c0-0.2,0-0.4-0.1-0.6c0-0.2-0.1-0.4-0.1-0.5c0-0.2,0.1-0.4,0.2-0.5
		c0.1-0.1,0.3-0.2,0.4-0.3v-0.1c-0.2-0.1-0.3-0.2-0.4-0.3c-0.1-0.1-0.2-0.3-0.2-0.5c0-0.1,0-0.3,0.1-0.5c0-0.2,0.1-0.4,0.1-0.6
		c0-0.4-0.1-0.7-0.3-0.9c-0.2-0.2-0.4-0.3-0.8-0.3h-0.1V84.6z M328.4,84.6L328.4,84.6l0.1,0.3h-0.1c-0.3,0-0.6,0.1-0.8,0.3
		c-0.2,0.2-0.3,0.5-0.3,0.9c0,0.2,0,0.4,0.1,0.6c0,0.2,0.1,0.4,0.1,0.5c0,0.2-0.1,0.4-0.2,0.5c-0.1,0.1-0.3,0.2-0.4,0.3v0.1
		c0.2,0.1,0.3,0.2,0.4,0.3c0.1,0.1,0.2,0.3,0.2,0.5c0,0.1,0,0.3-0.1,0.5c0,0.2-0.1,0.4-0.1,0.6c0,0.4,0.1,0.7,0.3,0.9
		c0.2,0.2,0.4,0.3,0.8,0.3h0.1v0.3h-0.1c-0.5,0-0.9-0.1-1.2-0.4c-0.3-0.2-0.4-0.6-0.4-1.1c0-0.2,0-0.4,0.1-0.6
		c0.1-0.2,0.1-0.4,0.1-0.5c0-0.2-0.1-0.3-0.2-0.4c-0.1-0.1-0.3-0.2-0.5-0.2v-0.3c0.2,0,0.4-0.1,0.5-0.2c0.1-0.1,0.2-0.2,0.2-0.4
		c0-0.1,0-0.2-0.1-0.5c-0.1-0.2-0.1-0.5-0.1-0.6c0-0.5,0.1-0.8,0.4-1.1C327.5,84.7,327.9,84.6,328.4,84.6 M333.9,84.6h0.5V91h-0.5
		V84.6z"/>
</g>
<text transform="matrix(1 0 0 1 328.6807 89.7695)" class="st48 st49">A</text>
<text transform="matrix(1 0 0 1 335.2793 89.7695)" class="st48 st49">3</text>
<rect x="370.3" y="64.4" class="st50" width="18.2" height="8.5"/>
<g>
	<defs>
		<rect id="SVGID_53_" width="552.8" height="127.5"/>
	</defs>
	<clipPath id="SVGID_54_">
		<use xlink:href="#SVGID_53_"  style="overflow:visible;"/>
	</clipPath>
	<path class="st54" d="M384.8,65.9L384.8,65.9c0.6,0,1,0.1,1.3,0.4c0.3,0.2,0.4,0.6,0.4,1.1c0,0.2,0,0.4-0.1,0.6
		c-0.1,0.2-0.1,0.4-0.1,0.5c0,0.2,0.1,0.3,0.2,0.4c0.1,0.1,0.3,0.2,0.5,0.2v0.3c-0.2,0-0.4,0.1-0.5,0.2c-0.1,0.1-0.2,0.2-0.2,0.4
		c0,0.1,0,0.2,0.1,0.5c0.1,0.2,0.1,0.5,0.1,0.6c0,0.5-0.1,0.9-0.4,1.1c-0.3,0.2-0.7,0.4-1.2,0.4h-0.1v-0.3h0.1
		c0.3,0,0.6-0.1,0.8-0.3c0.2-0.2,0.3-0.5,0.3-0.9c0-0.2,0-0.4-0.1-0.6c0-0.2-0.1-0.4-0.1-0.5c0-0.2,0.1-0.4,0.2-0.5
		c0.1-0.1,0.3-0.2,0.4-0.3v-0.1c-0.2-0.1-0.3-0.2-0.4-0.3c-0.1-0.1-0.2-0.3-0.2-0.5c0-0.1,0-0.3,0.1-0.5c0-0.2,0.1-0.4,0.1-0.6
		c0-0.4-0.1-0.7-0.3-0.9c-0.2-0.2-0.4-0.3-0.8-0.3h-0.1V65.9z M373.8,65.9L373.8,65.9l0.1,0.3h-0.1c-0.3,0-0.6,0.1-0.8,0.3
		c-0.2,0.2-0.3,0.5-0.3,0.9c0,0.2,0,0.4,0.1,0.6c0,0.2,0.1,0.4,0.1,0.5c0,0.2-0.1,0.4-0.2,0.5c-0.1,0.1-0.3,0.2-0.4,0.3v0.1
		c0.2,0.1,0.3,0.2,0.4,0.3c0.1,0.1,0.2,0.3,0.2,0.5c0,0.1,0,0.3-0.1,0.5c0,0.2-0.1,0.4-0.1,0.6c0,0.4,0.1,0.7,0.3,0.9
		c0.2,0.2,0.4,0.3,0.8,0.3h0.1v0.3h-0.1c-0.5,0-0.9-0.1-1.2-0.4c-0.3-0.2-0.4-0.6-0.4-1.1c0-0.2,0-0.4,0.1-0.6
		c0.1-0.2,0.1-0.4,0.1-0.5c0-0.2-0.1-0.3-0.2-0.4c-0.1-0.1-0.3-0.2-0.5-0.2V69c0.2,0,0.4-0.1,0.5-0.2c0.1-0.1,0.2-0.2,0.2-0.4
		c0-0.1,0-0.2-0.1-0.5c-0.1-0.2-0.1-0.5-0.1-0.6c0-0.5,0.1-0.8,0.4-1.1C372.9,66,373.3,65.9,373.8,65.9 M379.3,66h0.5v6.4h-0.5V66z"
		/>
</g>
<text transform="matrix(1 0 0 1 374.1182 71.0986)" class="st48 st49">A</text>
<text transform="matrix(1 0 0 1 380.7168 71.0986)" class="st48 st49">1</text>
<rect x="370.3" y="48.5" class="st46" width="18.1" height="8.5"/>
<g>
	<defs>
		<rect id="SVGID_55_" width="552.8" height="127.5"/>
	</defs>
	<clipPath id="SVGID_56_">
		<use xlink:href="#SVGID_55_"  style="overflow:visible;"/>
	</clipPath>
	<path class="st55" d="M384.6,50.1L384.6,50.1c0.6,0,1,0.1,1.3,0.4c0.3,0.2,0.4,0.6,0.4,1.1c0,0.2,0,0.4-0.1,0.6
		c-0.1,0.2-0.1,0.4-0.1,0.5c0,0.2,0.1,0.3,0.2,0.4c0.1,0.1,0.3,0.2,0.5,0.2v0.3c-0.2,0-0.4,0.1-0.5,0.2c-0.1,0.1-0.2,0.2-0.2,0.4
		c0,0.1,0,0.2,0.1,0.5c0.1,0.2,0.1,0.5,0.1,0.6c0,0.5-0.1,0.9-0.4,1.1c-0.3,0.2-0.7,0.4-1.2,0.4h-0.1v-0.3h0.1
		c0.3,0,0.6-0.1,0.8-0.3c0.2-0.2,0.3-0.5,0.3-0.9c0-0.2,0-0.4-0.1-0.6s-0.1-0.4-0.1-0.5c0-0.2,0.1-0.4,0.2-0.5
		c0.1-0.1,0.3-0.2,0.4-0.3v-0.1c-0.2-0.1-0.3-0.2-0.4-0.3c-0.1-0.1-0.2-0.3-0.2-0.5c0-0.1,0-0.3,0.1-0.5c0-0.2,0.1-0.4,0.1-0.6
		c0-0.4-0.1-0.7-0.3-0.9c-0.2-0.2-0.4-0.3-0.8-0.3h-0.1V50.1z M373.8,50.1L373.8,50.1l0.1,0.3h-0.1c-0.3,0-0.6,0.1-0.8,0.3
		c-0.2,0.2-0.3,0.5-0.3,0.9c0,0.2,0,0.4,0.1,0.6c0,0.2,0.1,0.4,0.1,0.5c0,0.2-0.1,0.4-0.2,0.5c-0.1,0.1-0.3,0.2-0.4,0.3v0.1
		c0.2,0.1,0.3,0.2,0.4,0.3c0.1,0.1,0.2,0.3,0.2,0.5c0,0.1,0,0.3-0.1,0.5c0,0.2-0.1,0.4-0.1,0.6c0,0.4,0.1,0.7,0.3,0.9
		c0.2,0.2,0.4,0.3,0.8,0.3h0.1v0.3h-0.1c-0.5,0-0.9-0.1-1.2-0.4c-0.3-0.2-0.4-0.6-0.4-1.1c0-0.2,0-0.4,0.1-0.6
		c0.1-0.2,0.1-0.4,0.1-0.5c0-0.2-0.1-0.3-0.2-0.4c-0.1-0.1-0.3-0.2-0.5-0.2v-0.3c0.2,0,0.4-0.1,0.5-0.2c0.1-0.1,0.2-0.2,0.2-0.4
		c0-0.1,0-0.2-0.1-0.5c-0.1-0.2-0.1-0.5-0.1-0.6c0-0.5,0.1-0.8,0.4-1.1C372.9,50.2,373.3,50.1,373.8,50.1 M379.2,50.1h0.5v6.4h-0.5
		V50.1z"/>
</g>
<text transform="matrix(1 0 0 1 374.1182 55.2578)" class="st48 st49">G</text>
<text transform="matrix(1 0 0 1 380.5977 55.2578)" class="st48 st49">0</text>
<rect x="412.3" y="73.4" class="st46" width="18.2" height="8.5"/>
<g>
	<defs>
		<rect id="SVGID_57_" width="552.8" height="127.5"/>
	</defs>
	<clipPath id="SVGID_58_">
		<use xlink:href="#SVGID_57_"  style="overflow:visible;"/>
	</clipPath>
	<path class="st56" d="M426.7,74.9L426.7,74.9c0.6,0,1,0.1,1.3,0.4c0.3,0.2,0.4,0.6,0.4,1.1c0,0.2,0,0.4-0.1,0.6
		c-0.1,0.2-0.1,0.4-0.1,0.5c0,0.2,0.1,0.3,0.2,0.4c0.1,0.1,0.3,0.2,0.5,0.2v0.3c-0.2,0-0.4,0.1-0.5,0.2c-0.1,0.1-0.2,0.2-0.2,0.4
		c0,0.1,0,0.2,0.1,0.5c0.1,0.2,0.1,0.5,0.1,0.6c0,0.5-0.1,0.9-0.4,1.1c-0.3,0.2-0.7,0.4-1.2,0.4h-0.1v-0.3h0.1
		c0.3,0,0.6-0.1,0.8-0.3c0.2-0.2,0.3-0.5,0.3-0.9c0-0.2,0-0.4-0.1-0.6c0-0.2-0.1-0.4-0.1-0.5c0-0.2,0.1-0.4,0.2-0.5
		c0.1-0.1,0.3-0.2,0.4-0.3v-0.1c-0.2-0.1-0.3-0.2-0.4-0.3c-0.1-0.1-0.2-0.3-0.2-0.5c0-0.1,0-0.3,0.1-0.5c0-0.2,0.1-0.4,0.1-0.6
		c0-0.4-0.1-0.7-0.3-0.9c-0.2-0.2-0.4-0.3-0.8-0.3h-0.1V74.9z M415.8,74.9L415.8,74.9l0.1,0.3h-0.1c-0.3,0-0.6,0.1-0.8,0.3
		c-0.2,0.2-0.3,0.5-0.3,0.9c0,0.2,0,0.4,0.1,0.6c0,0.2,0.1,0.4,0.1,0.5c0,0.2-0.1,0.4-0.2,0.5c-0.1,0.1-0.3,0.2-0.4,0.3v0.1
		c0.2,0.1,0.3,0.2,0.4,0.3c0.1,0.1,0.2,0.3,0.2,0.5c0,0.1,0,0.3-0.1,0.5c0,0.2-0.1,0.4-0.1,0.6c0,0.4,0.1,0.7,0.3,0.9
		c0.2,0.2,0.4,0.3,0.8,0.3h0.1v0.3h-0.1c-0.5,0-0.9-0.1-1.2-0.4c-0.3-0.2-0.4-0.6-0.4-1.1c0-0.2,0-0.4,0.1-0.6
		c0.1-0.2,0.1-0.4,0.1-0.5c0-0.2-0.1-0.3-0.2-0.4c-0.1-0.1-0.3-0.2-0.5-0.2V78c0.2,0,0.4-0.1,0.5-0.2c0.1-0.1,0.2-0.2,0.2-0.4
		c0-0.1,0-0.2-0.1-0.5c-0.1-0.2-0.1-0.5-0.1-0.6c0-0.5,0.1-0.8,0.4-1.1C414.9,75,415.3,74.9,415.8,74.9 M421.3,75h0.5v6.4h-0.5V75z"
		/>
</g>
<text transform="matrix(1 0 0 1 416.085 80.124)" class="st48 st49">A</text>
<text transform="matrix(1 0 0 1 422.6836 80.124)" class="st48 st49">0</text>
<rect x="412.3" y="57.5" class="st57" width="17.8" height="8.5"/>
<g>
	<defs>
		<rect id="SVGID_59_" width="552.8" height="127.5"/>
	</defs>
	<clipPath id="SVGID_60_">
		<use xlink:href="#SVGID_59_"  style="overflow:visible;"/>
	</clipPath>
	<path class="st58" d="M426.4,59.1L426.4,59.1c0.6,0,1,0.1,1.3,0.4c0.3,0.2,0.4,0.6,0.4,1.1c0,0.2,0,0.4-0.1,0.6
		c-0.1,0.2-0.1,0.4-0.1,0.5c0,0.2,0.1,0.3,0.2,0.4c0.1,0.1,0.3,0.2,0.5,0.2v0.3c-0.2,0-0.4,0.1-0.5,0.2c-0.1,0.1-0.2,0.2-0.2,0.4
		c0,0.1,0,0.2,0.1,0.5c0.1,0.2,0.1,0.5,0.1,0.6c0,0.5-0.1,0.9-0.4,1.1c-0.3,0.2-0.7,0.4-1.2,0.4h-0.1v-0.3h0.1
		c0.3,0,0.6-0.1,0.8-0.3c0.2-0.2,0.3-0.5,0.3-0.9c0-0.2,0-0.4-0.1-0.6c0-0.2-0.1-0.4-0.1-0.5c0-0.2,0.1-0.4,0.2-0.5
		c0.1-0.1,0.3-0.2,0.4-0.3v-0.1c-0.2-0.1-0.3-0.2-0.4-0.3c-0.1-0.1-0.2-0.3-0.2-0.5c0-0.1,0-0.3,0.1-0.5c0-0.2,0.1-0.4,0.1-0.6
		c0-0.4-0.1-0.7-0.3-0.9c-0.2-0.2-0.4-0.3-0.8-0.3h-0.1V59.1z M415.8,59.1L415.8,59.1l0.1,0.3h-0.1c-0.3,0-0.6,0.1-0.8,0.3
		c-0.2,0.2-0.3,0.5-0.3,0.9c0,0.2,0,0.4,0.1,0.6c0,0.2,0.1,0.4,0.1,0.5c0,0.2-0.1,0.4-0.2,0.5c-0.1,0.1-0.3,0.2-0.4,0.3v0.1
		c0.2,0.1,0.3,0.2,0.4,0.3c0.1,0.1,0.2,0.3,0.2,0.5c0,0.1,0,0.3-0.1,0.5c0,0.2-0.1,0.4-0.1,0.6c0,0.4,0.1,0.7,0.3,0.9
		c0.2,0.2,0.4,0.3,0.8,0.3h0.1v0.3h-0.1c-0.5,0-0.9-0.1-1.2-0.4c-0.3-0.2-0.4-0.6-0.4-1.1c0-0.2,0-0.4,0.1-0.6
		c0.1-0.2,0.1-0.4,0.1-0.5c0-0.2-0.1-0.3-0.2-0.4c-0.1-0.1-0.3-0.2-0.5-0.2v-0.3c0.2,0,0.4-0.1,0.5-0.2c0.1-0.1,0.2-0.2,0.2-0.4
		c0-0.1,0-0.2-0.1-0.5c-0.1-0.2-0.1-0.5-0.1-0.6c0-0.5,0.1-0.8,0.4-1.1C414.9,59.2,415.3,59.1,415.8,59.1 M421,59.1h0.5v6.4H421
		V59.1z"/>
</g>
<text transform="matrix(1 0 0 1 416.085 64.2827)" class="st48 st49">C</text>
<text transform="matrix(1 0 0 1 422.2627 64.2827)" class="st48 st49">1</text>
<rect x="454.6" y="43.7" class="st50" width="17.9" height="8.5"/>
<g>
	<defs>
		<rect id="SVGID_61_" width="552.8" height="127.5"/>
	</defs>
	<clipPath id="SVGID_62_">
		<use xlink:href="#SVGID_61_"  style="overflow:visible;"/>
	</clipPath>
	<path class="st59" d="M468.9,45.2L468.9,45.2c0.6,0,1,0.1,1.3,0.4c0.3,0.2,0.4,0.6,0.4,1.1c0,0.2,0,0.4-0.1,0.6
		c-0.1,0.2-0.1,0.4-0.1,0.5c0,0.2,0.1,0.3,0.2,0.4c0.1,0.1,0.3,0.2,0.5,0.2v0.3c-0.2,0-0.4,0.1-0.5,0.2c-0.1,0.1-0.2,0.2-0.2,0.4
		c0,0.1,0,0.2,0.1,0.5c0.1,0.2,0.1,0.5,0.1,0.6c0,0.5-0.1,0.9-0.4,1.1c-0.3,0.2-0.7,0.4-1.2,0.4h-0.1v-0.3h0.1
		c0.3,0,0.6-0.1,0.8-0.3c0.2-0.2,0.3-0.5,0.3-0.9c0-0.2,0-0.4-0.1-0.6c0-0.2-0.1-0.4-0.1-0.5c0-0.2,0.1-0.4,0.2-0.5
		c0.1-0.1,0.3-0.2,0.4-0.3v-0.1c-0.2-0.1-0.3-0.2-0.4-0.3c-0.1-0.1-0.2-0.3-0.2-0.5c0-0.1,0-0.3,0.1-0.5c0-0.2,0.1-0.4,0.1-0.6
		c0-0.4-0.1-0.7-0.3-0.9c-0.2-0.2-0.4-0.3-0.8-0.3h-0.1V45.2z M458.2,45.2L458.2,45.2l0.1,0.3h-0.1c-0.3,0-0.6,0.1-0.8,0.3
		c-0.2,0.2-0.3,0.5-0.3,0.9c0,0.2,0,0.4,0.1,0.6c0,0.2,0.1,0.4,0.1,0.5c0,0.2-0.1,0.4-0.2,0.5c-0.1,0.1-0.3,0.2-0.4,0.3v0.1
		c0.2,0.1,0.3,0.2,0.4,0.3c0.1,0.1,0.2,0.3,0.2,0.5c0,0.1,0,0.3-0.1,0.5c0,0.2-0.1,0.4-0.1,0.6c0,0.4,0.1,0.7,0.3,0.9
		c0.2,0.2,0.4,0.3,0.8,0.3h0.1v0.3h-0.1c-0.5,0-0.9-0.1-1.2-0.4c-0.3-0.2-0.4-0.6-0.4-1.1c0-0.2,0-0.4,0.1-0.6
		c0.1-0.2,0.1-0.4,0.1-0.5c0-0.2-0.1-0.3-0.2-0.4c-0.1-0.1-0.3-0.2-0.5-0.2v-0.3c0.2,0,0.4-0.1,0.5-0.2c0.1-0.1,0.2-0.2,0.2-0.4
		c0-0.1,0-0.2-0.1-0.5c-0.1-0.2-0.1-0.5-0.1-0.6c0-0.5,0.1-0.8,0.4-1.1C457.3,45.3,457.7,45.2,458.2,45.2 M463.5,45.3h0.5v6.4h-0.5
		V45.3z"/>
</g>
<text transform="matrix(1 0 0 1 458.4844 50.4175)" class="st48 st49">T</text>
<text transform="matrix(1 0 0 1 464.8447 50.4175)" class="st48 st49">0</text>
<rect x="454.6" y="56.5" class="st46" width="18.1" height="8.5"/>
<g>
	<defs>
		<rect id="SVGID_63_" width="552.8" height="127.5"/>
	</defs>
	<clipPath id="SVGID_64_">
		<use xlink:href="#SVGID_63_"  style="overflow:visible;"/>
	</clipPath>
	<path class="st60" d="M469,58L469,58c0.6,0,1,0.1,1.3,0.4c0.3,0.2,0.4,0.6,0.4,1.1c0,0.2,0,0.4-0.1,0.6c-0.1,0.2-0.1,0.4-0.1,0.5
		c0,0.2,0.1,0.3,0.2,0.4c0.1,0.1,0.3,0.2,0.5,0.2v0.3c-0.2,0-0.4,0.1-0.5,0.2c-0.1,0.1-0.2,0.2-0.2,0.4c0,0.1,0,0.2,0.1,0.5
		c0.1,0.2,0.1,0.5,0.1,0.6c0,0.5-0.1,0.9-0.4,1.1c-0.3,0.2-0.7,0.4-1.2,0.4H469v-0.3h0.1c0.3,0,0.6-0.1,0.8-0.3
		c0.2-0.2,0.3-0.5,0.3-0.9c0-0.2,0-0.4-0.1-0.6c0-0.2-0.1-0.4-0.1-0.5c0-0.2,0.1-0.4,0.2-0.5c0.1-0.1,0.3-0.2,0.4-0.3v-0.1
		c-0.2-0.1-0.3-0.2-0.4-0.3c-0.1-0.1-0.2-0.3-0.2-0.5c0-0.1,0-0.3,0.1-0.5c0-0.2,0.1-0.4,0.1-0.6c0-0.4-0.1-0.7-0.3-0.9
		c-0.2-0.2-0.4-0.3-0.8-0.3H469V58z M458.2,58L458.2,58l0.1,0.3h-0.1c-0.3,0-0.6,0.1-0.8,0.3c-0.2,0.2-0.3,0.5-0.3,0.9
		c0,0.2,0,0.4,0.1,0.6c0,0.2,0.1,0.4,0.1,0.5c0,0.2-0.1,0.4-0.2,0.5c-0.1,0.1-0.3,0.2-0.4,0.3v0.1c0.2,0.1,0.3,0.2,0.4,0.3
		c0.1,0.1,0.2,0.3,0.2,0.5c0,0.1,0,0.3-0.1,0.5c0,0.2-0.1,0.4-0.1,0.6c0,0.4,0.1,0.7,0.3,0.9c0.2,0.2,0.4,0.3,0.8,0.3h0.1v0.3h-0.1
		c-0.5,0-0.9-0.1-1.2-0.4c-0.3-0.2-0.4-0.6-0.4-1.1c0-0.2,0-0.4,0.1-0.6c0.1-0.2,0.1-0.4,0.1-0.5c0-0.2-0.1-0.3-0.2-0.4
		c-0.1-0.1-0.3-0.2-0.5-0.2v-0.3c0.2,0,0.4-0.1,0.5-0.2c0.1-0.1,0.2-0.2,0.2-0.4c0-0.1,0-0.2-0.1-0.5c-0.1-0.2-0.1-0.5-0.1-0.6
		c0-0.5,0.1-0.8,0.4-1.1C457.2,58.1,457.6,58,458.2,58 M463.6,58.1h0.5v6.4h-0.5V58.1z"/>
</g>
<text transform="matrix(1 0 0 1 458.4609 63.2114)" class="st48 st49">G</text>
<text transform="matrix(1 0 0 1 464.9404 63.2114)" class="st48 st49">1</text>
<rect x="454.6" y="69.3" class="st46" width="17.8" height="8.5"/>
<g>
	<defs>
		<rect id="SVGID_65_" width="552.8" height="127.5"/>
	</defs>
	<clipPath id="SVGID_66_">
		<use xlink:href="#SVGID_65_"  style="overflow:visible;"/>
	</clipPath>
	<path class="st61" d="M468.7,70.8L468.7,70.8c0.6,0,1,0.1,1.3,0.4c0.3,0.2,0.4,0.6,0.4,1.1c0,0.2,0,0.4-0.1,0.6
		c-0.1,0.2-0.1,0.4-0.1,0.5c0,0.2,0.1,0.3,0.2,0.4c0.1,0.1,0.3,0.2,0.5,0.2v0.3c-0.2,0-0.4,0.1-0.5,0.2c-0.1,0.1-0.2,0.2-0.2,0.4
		c0,0.1,0,0.2,0.1,0.5c0.1,0.2,0.1,0.5,0.1,0.6c0,0.5-0.1,0.9-0.4,1.1c-0.3,0.2-0.7,0.4-1.2,0.4h-0.1v-0.3h0.1
		c0.3,0,0.6-0.1,0.8-0.3c0.2-0.2,0.3-0.5,0.3-0.9c0-0.2,0-0.4-0.1-0.6c0-0.2-0.1-0.4-0.1-0.5c0-0.2,0.1-0.4,0.2-0.5
		c0.1-0.1,0.3-0.2,0.4-0.3V74c-0.2-0.1-0.3-0.2-0.4-0.3c-0.1-0.1-0.2-0.3-0.2-0.5c0-0.1,0-0.3,0.1-0.5c0-0.2,0.1-0.4,0.1-0.6
		c0-0.4-0.1-0.7-0.3-0.9c-0.2-0.2-0.4-0.3-0.8-0.3h-0.1V70.8z M458.2,70.8L458.2,70.8l0.1,0.3h-0.1c-0.3,0-0.6,0.1-0.8,0.3
		c-0.2,0.2-0.3,0.5-0.3,0.9c0,0.2,0,0.4,0.1,0.6c0,0.2,0.1,0.4,0.1,0.5c0,0.2-0.1,0.4-0.2,0.5c-0.1,0.1-0.3,0.2-0.4,0.3v0.1
		c0.2,0.1,0.3,0.2,0.4,0.3c0.1,0.1,0.2,0.3,0.2,0.5c0,0.1,0,0.3-0.1,0.5c0,0.2-0.1,0.4-0.1,0.6c0,0.4,0.1,0.7,0.3,0.9
		c0.2,0.2,0.4,0.3,0.8,0.3h0.1v0.3h-0.1c-0.5,0-0.9-0.1-1.2-0.4c-0.3-0.2-0.4-0.6-0.4-1.1c0-0.2,0-0.4,0.1-0.6
		c0.1-0.2,0.1-0.4,0.1-0.5c0-0.2-0.1-0.3-0.2-0.4c-0.1-0.1-0.3-0.2-0.5-0.2v-0.3c0.2,0,0.4-0.1,0.5-0.2c0.1-0.1,0.2-0.2,0.2-0.4
		c0-0.1,0-0.2-0.1-0.5c-0.1-0.2-0.1-0.5-0.1-0.6c0-0.5,0.1-0.8,0.4-1.1C457.2,70.9,457.6,70.8,458.2,70.8 M463.3,70.9h0.5v6.4h-0.5
		V70.9z"/>
</g>
<text transform="matrix(1 0 0 1 458.4609 76.0059)" class="st48 st49">C</text>
<text transform="matrix(1 0 0 1 464.6387 76.0059)" class="st48 st49">2</text>
<rect x="183.5" y="24.1" class="st62" width="11.3" height="11.3"/>
<rect x="194.8" y="24.1" class="st50" width="11.3" height="11.3"/>
<rect x="206.2" y="24.1" class="st62" width="11.3" height="11.3"/>
<rect x="251.5" y="24.1" class="st62" width="11.3" height="11.3"/>
<rect x="262.8" y="24.1" class="st62" width="11.3" height="11.3"/>
<rect x="274.2" y="24.1" class="st62" width="11.3" height="11.3"/>
<rect x="296.9" y="24.1" class="st50" width="11.3" height="11.3"/>
<rect x="183.5" y="35.4" class="st62" width="11.3" height="11.3"/>
<rect x="217.5" y="35.4" class="st62" width="11.3" height="11.3"/>
<rect x="228.8" y="35.4" class="st62" width="11.3" height="11.3"/>
<rect x="251.5" y="35.4" class="st62" width="11.3" height="11.3"/>
<rect x="262.8" y="35.4" class="st62" width="11.3" height="11.3"/>
<rect x="285.5" y="35.4" class="st50" width="11.3" height="11.3"/>
<rect x="296.9" y="35.4" class="st50" width="11.3" height="11.3"/>
<rect x="194.8" y="46.7" class="st50" width="11.3" height="11.3"/>
<rect x="217.5" y="46.7" class="st62" width="11.3" height="11.3"/>
<rect x="240.2" y="46.7" class="st62" width="11.3" height="11.3"/>
<rect x="251.5" y="46.7" class="st62" width="11.3" height="11.3"/>
<rect x="274.2" y="46.7" class="st62" width="11.3" height="11.3"/>
<rect x="285.5" y="46.7" class="st62" width="11.3" height="11.3"/>
<rect x="296.9" y="46.7" class="st50" width="11.3" height="11.3"/>
<rect x="206.2" y="58.1" class="st62" width="11.3" height="11.3"/>
<rect x="228.8" y="58.1" class="st62" width="11.3" height="11.3"/>
<rect x="240.2" y="58.1" class="st62" width="11.3" height="11.3"/>
<rect x="262.8" y="58.1" class="st62" width="11.3" height="11.3"/>
<rect x="274.2" y="58.1" class="st62" width="11.3" height="11.3"/>
<rect x="285.5" y="58.1" class="st50" width="11.3" height="11.3"/>
<rect x="296.9" y="58.1" class="st50" width="11.3" height="11.3"/>
<rect x="183.5" y="69.4" class="st62" width="11.3" height="11.3"/>
<rect x="194.8" y="69.4" class="st50" width="11.3" height="11.3"/>
<rect x="206.2" y="69.4" class="st62" width="11.3" height="11.3"/>
<rect x="251.5" y="69.4" class="st62" width="11.3" height="11.3"/>
<rect x="262.8" y="69.4" class="st62" width="11.3" height="11.3"/>
<rect x="274.2" y="69.4" class="st62" width="11.3" height="11.3"/>
<rect x="296.9" y="69.4" class="st50" width="11.3" height="11.3"/>
<rect x="183.5" y="80.7" class="st62" width="11.3" height="11.3"/>
<rect x="217.5" y="80.7" class="st62" width="11.3" height="11.3"/>
<rect x="228.8" y="80.7" class="st62" width="11.3" height="11.3"/>
<rect x="251.5" y="80.7" class="st62" width="11.3" height="11.3"/>
<rect x="262.8" y="80.7" class="st62" width="11.3" height="11.3"/>
<rect x="285.5" y="80.7" class="st50" width="11.3" height="11.3"/>
<rect x="296.9" y="80.7" class="st50" width="11.3" height="11.3"/>
<rect x="194.8" y="92.1" class="st50" width="11.3" height="11.3"/>
<rect x="217.5" y="92.1" class="st62" width="11.3" height="11.3"/>
<rect x="240.2" y="92.1" class="st62" width="11.3" height="11.3"/>
<rect x="251.5" y="92.1" class="st62" width="11.3" height="11.3"/>
<rect x="274.2" y="92.1" class="st62" width="11.3" height="11.3"/>
<rect x="285.5" y="92.1" class="st62" width="11.3" height="11.3"/>
<rect x="296.9" y="92.1" class="st50" width="11.3" height="11.3"/>
<rect x="206.2" y="103.4" class="st62" width="11.3" height="11.3"/>
<rect x="228.8" y="103.4" class="st62" width="11.3" height="11.3"/>
<rect x="240.2" y="103.4" class="st62" width="11.3" height="11.3"/>
<rect x="262.8" y="103.4" class="st62" width="11.3" height="11.3"/>
<rect x="274.2" y="103.4" class="st62" width="11.3" height="11.3"/>
<rect x="285.5" y="103.4" class="st50" width="11.3" height="11.3"/>
<rect x="296.9" y="103.4" class="st50" width="11.3" height="11.3"/>
<line class="st63" x1="183" y1="69.4" x2="308.7" y2="69.4"/>
<line class="st63" x1="183.5" y1="24.1" x2="183.5" y2="114.8"/>
<line class="st63" x1="308.2" y1="24.1" x2="308.2" y2="114.8"/>
<text transform="matrix(1 0 0 1 186.3452 32.8999)" class="st64 st65">A</text>
<text transform="matrix(1 0 0 1 197.6851 32.8999)" class="st64 st65">A</text>
<text transform="matrix(1 0 0 1 209.0244 32.8999)" class="st64 st65">A</text>
<text transform="matrix(1 0 0 1 254.3828 32.8999)" class="st64 st65">A</text>
<text transform="matrix(1 0 0 1 265.7227 32.8999)" class="st64 st65">A</text>
<text transform="matrix(1 0 0 1 277.0625 32.8999)" class="st64 st65">A</text>
<text transform="matrix(1 0 0 1 299.7412 32.8999)" class="st64 st65">A</text>
<text transform="matrix(1 0 0 1 186.4731 44.2397)" class="st64 st65">C</text>
<text transform="matrix(1 0 0 1 220.4917 44.2397)" class="st64 st65">C</text>
<text transform="matrix(1 0 0 1 231.8315 44.2397)" class="st64 st65">C</text>
<text transform="matrix(1 0 0 1 254.5107 44.2397)" class="st64 st65">C</text>
<text transform="matrix(1 0 0 1 265.8501 44.2397)" class="st64 st65">C</text>
<text transform="matrix(1 0 0 1 288.5293 44.2397)" class="st64 st65">C</text>
<text transform="matrix(1 0 0 1 299.8691 44.2397)" class="st64 st65">C</text>
<text transform="matrix(1 0 0 1 197.5176 55.5791)" class="st64 st65">G</text>
<text transform="matrix(1 0 0 1 220.1968 55.5791)" class="st64 st65">G</text>
<text transform="matrix(1 0 0 1 242.8755 55.5791)" class="st64 st65">G</text>
<text transform="matrix(1 0 0 1 254.2153 55.5791)" class="st64 st65">G</text>
<text transform="matrix(1 0 0 1 276.8945 55.5791)" class="st64 st65">G</text>
<text transform="matrix(1 0 0 1 288.2344 55.5791)" class="st64 st65">G</text>
<text transform="matrix(1 0 0 1 299.5732 55.5791)" class="st64 st65">G</text>
<text transform="matrix(1 0 0 1 209.5913 66.9189)" class="st64 st65">T</text>
<text transform="matrix(1 0 0 1 232.27 66.9189)" class="st64 st65">T</text>
<text transform="matrix(1 0 0 1 243.6099 66.9189)" class="st64 st65">T</text>
<text transform="matrix(1 0 0 1 266.2891 66.9189)" class="st64 st65">T</text>
<text transform="matrix(1 0 0 1 277.6289 66.9189)" class="st64 st65">T</text>
<text transform="matrix(1 0 0 1 288.9678 66.9189)" class="st64 st65">T</text>
<text transform="matrix(1 0 0 1 300.3076 66.9189)" class="st64 st65">T</text>
<text transform="matrix(1 0 0 1 186.856 78.2588)" class="st64 st65">0</text>
<text transform="matrix(1 0 0 1 198.1958 78.2588)" class="st64 st65">1</text>
<text transform="matrix(1 0 0 1 209.5352 78.2588)" class="st64 st65">0</text>
<text transform="matrix(1 0 0 1 254.8936 78.2588)" class="st64 st65">0</text>
<text transform="matrix(1 0 0 1 266.2329 78.2588)" class="st64 st65">0</text>
<text transform="matrix(1 0 0 1 277.5723 78.2588)" class="st64 st65">0</text>
<text transform="matrix(1 0 0 1 300.252 78.2588)" class="st64 st65">3</text>
<text transform="matrix(1 0 0 1 186.8643 89.5977)" class="st64 st65">1</text>
<text transform="matrix(1 0 0 1 220.8828 89.5977)" class="st64 st65">0</text>
<text transform="matrix(1 0 0 1 232.2222 89.5977)" class="st64 st65">0</text>
<text transform="matrix(1 0 0 1 254.9014 89.5977)" class="st64 st65">1</text>
<text transform="matrix(1 0 0 1 266.2412 89.5977)" class="st64 st65">1</text>
<text transform="matrix(1 0 0 1 288.9199 89.5977)" class="st64 st65">2</text>
<text transform="matrix(1 0 0 1 300.2598 89.5977)" class="st64 st65">2</text>
<text transform="matrix(1 0 0 1 198.2114 100.9375)" class="st64 st65">0</text>
<text transform="matrix(1 0 0 1 220.8906 100.9375)" class="st64 st65">1</text>
<text transform="matrix(1 0 0 1 243.5698 100.9375)" class="st64 st65">0</text>
<text transform="matrix(1 0 0 1 254.9097 100.9375)" class="st64 st65">2</text>
<text transform="matrix(1 0 0 1 277.5889 100.9375)" class="st64 st65">1</text>
<text transform="matrix(1 0 0 1 288.9277 100.9375)" class="st64 st65">1</text>
<text transform="matrix(1 0 0 1 300.2676 100.9375)" class="st64 st65">1</text>
<text transform="matrix(1 0 0 1 209.5591 112.2773)" class="st64 st65">1</text>
<text transform="matrix(1 0 0 1 232.2383 112.2773)" class="st64 st65">1</text>
<text transform="matrix(1 0 0 1 243.5776 112.2773)" class="st64 st65">1</text>
<text transform="matrix(1 0 0 1 266.2568 112.2773)" class="st64 st65">2</text>
<text transform="matrix(1 0 0 1 277.5967 112.2773)" class="st64 st65">2</text>
<text transform="matrix(1 0 0 1 288.9365 112.2773)" class="st64 st65">0</text>
<text transform="matrix(1 0 0 1 300.2754 112.2773)" class="st64 st65">0</text>
<text transform="matrix(1 0 0 1 362.5996 19.2837)"><tspan x="0" y="0" class="st66 st67">ma</tspan><tspan x="17.1" y="0" class="st66 st67">ppi</tspan><tspan x="35" y="0" class="st66 st67">ng</tspan><tspan x="49.5" y="0" class="st66 st67"> </tspan><tspan x="52.7" y="0" class="st66 st67">s</tspan><tspan x="58.1" y="0" class="st66 st67">h</tspan><tspan x="65.2" y="0" class="st66 st67">u</tspan><tspan x="72.4" y="0" class="st66 st67">ff</tspan><tspan x="81.2" y="0" class="st66 st67">li</tspan><tspan x="87.7" y="0" class="st66 st67">n</tspan><tspan x="94.9" y="0" class="st66 st67">g</tspan></text>
<rect x="524.5" y="99.5" class="st50" width="16.7" height="8.5"/>
<rect x="508.4" y="99.5" class="st50" width="5.4" height="8.5"/>
<path class="st15" d="M511.3,28.6h2v0.3h-1.2v7.7h1.2V37h-2V28.6z M535.2,28.6h2V37h-2v-0.3h1.2v-7.7h-1.2V28.6z"/>
<text transform="matrix(1 0 0 1 513.5127 35.3589)"><tspan x="0" y="0" class="st48 st68">G</tspan><tspan x="5.5" y="0" class="st48 st68">A</tspan></text>
<text transform="matrix(1 0 0 1 524.6104 35.3589)"><tspan x="0" y="0" class="st48 st68">C</tspan><tspan x="5" y="0" class="st48 st68">T</tspan></text>
<polygon class="st46" points="527.3,44.6 527.3,88.1 529.5,88.1 525.2,92.4 521,88.1 523.1,88.1 523.1,44.6 "/>
<polygon class="st14" points="527.3,44.6 527.3,88.1 529.5,88.1 525.2,92.4 521,88.1 523.1,88.1 523.1,44.6 "/>
<path class="st15" d="M505.8,99.5h2v0.3h-1.2v7.7h1.2v0.3h-2V99.5z M538.1,99.5h2v8.4h-2v-0.3h1.2v-7.7h-1.2V99.5z"/>
<g>
	<defs>
		<rect id="SVGID_67_" width="552.8" height="127.5"/>
	</defs>
	<clipPath id="SVGID_68_">
		<use xlink:href="#SVGID_67_"  style="overflow:visible;"/>
	</clipPath>
	<g class="st69">
		<text transform="matrix(1 0 0 1 508.002 106.3291)" class="st48 st68">001101</text>
	</g>
</g>
<rect x="12.7" y="24.1" class="st62" width="11.3" height="11.3"/>
<rect x="24" y="24.1" class="st62" width="11.3" height="11.3"/>
<rect x="35.4" y="24.1" class="st62" width="11.3" height="11.3"/>
<rect x="80.7" y="24.1" class="st62" width="11.3" height="11.3"/>
<rect x="92.1" y="24.1" class="st62" width="11.3" height="11.3"/>
<rect x="103.4" y="24.1" class="st62" width="11.3" height="11.3"/>
<rect x="126.1" y="24.1" class="st62" width="11.3" height="11.3"/>
<rect x="12.7" y="35.4" class="st62" width="11.3" height="11.3"/>
<rect x="46.7" y="35.4" class="st62" width="11.3" height="11.3"/>
<rect x="58.1" y="35.4" class="st62" width="11.3" height="11.3"/>
<rect x="80.7" y="35.4" class="st62" width="11.3" height="11.3"/>
<rect x="92.1" y="35.4" class="st62" width="11.3" height="11.3"/>
<rect x="114.8" y="35.4" class="st62" width="11.3" height="11.3"/>
<rect x="126.1" y="35.4" class="st62" width="11.3" height="11.3"/>
<rect x="24" y="46.7" class="st62" width="11.3" height="11.3"/>
<rect x="46.7" y="46.7" class="st62" width="11.3" height="11.3"/>
<rect x="69.4" y="46.7" class="st62" width="11.3" height="11.3"/>
<rect x="80.7" y="46.7" class="st62" width="11.3" height="11.3"/>
<rect x="103.4" y="46.7" class="st62" width="11.3" height="11.3"/>
<rect x="114.8" y="46.7" class="st62" width="11.3" height="11.3"/>
<rect x="126.1" y="46.7" class="st62" width="11.3" height="11.3"/>
<rect x="35.4" y="58.1" class="st62" width="11.3" height="11.3"/>
<rect x="58.1" y="58.1" class="st62" width="11.3" height="11.3"/>
<rect x="69.4" y="58.1" class="st62" width="11.3" height="11.3"/>
<rect x="92.1" y="58.1" class="st62" width="11.3" height="11.3"/>
<rect x="103.4" y="58.1" class="st62" width="11.3" height="11.3"/>
<rect x="114.8" y="58.1" class="st62" width="11.3" height="11.3"/>
<rect x="126.1" y="58.1" class="st62" width="11.3" height="11.3"/>
<rect x="12.7" y="69.4" class="st62" width="11.3" height="11.3"/>
<rect x="24" y="69.4" class="st62" width="11.3" height="11.3"/>
<rect x="35.4" y="69.4" class="st62" width="11.3" height="11.3"/>
<rect x="80.7" y="69.4" class="st62" width="11.3" height="11.3"/>
<rect x="92.1" y="69.4" class="st62" width="11.3" height="11.3"/>
<rect x="103.4" y="69.4" class="st62" width="11.3" height="11.3"/>
<rect x="126.1" y="69.4" class="st62" width="11.3" height="11.3"/>
<rect x="12.7" y="80.7" class="st62" width="11.3" height="11.3"/>
<rect x="46.7" y="80.7" class="st62" width="11.3" height="11.3"/>
<rect x="58.1" y="80.7" class="st62" width="11.3" height="11.3"/>
<rect x="80.7" y="80.7" class="st62" width="11.3" height="11.3"/>
<rect x="92.1" y="80.7" class="st62" width="11.3" height="11.3"/>
<rect x="114.8" y="80.7" class="st62" width="11.3" height="11.3"/>
<rect x="126.1" y="80.7" class="st62" width="11.3" height="11.3"/>
<rect x="24" y="92.1" class="st62" width="11.3" height="11.3"/>
<rect x="46.7" y="92.1" class="st62" width="11.3" height="11.3"/>
<rect x="69.4" y="92.1" class="st62" width="11.3" height="11.3"/>
<rect x="80.7" y="92.1" class="st62" width="11.3" height="11.3"/>
<rect x="103.4" y="92.1" class="st62" width="11.3" height="11.3"/>
<rect x="114.8" y="92.1" class="st62" width="11.3" height="11.3"/>
<rect x="126.1" y="92.1" class="st62" width="11.3" height="11.3"/>
<rect x="35.4" y="103.4" class="st62" width="11.3" height="11.3"/>
<rect x="58.1" y="103.4" class="st62" width="11.3" height="11.3"/>
<rect x="69.4" y="103.4" class="st62" width="11.3" height="11.3"/>
<rect x="92.1" y="103.4" class="st62" width="11.3" height="11.3"/>
<rect x="103.4" y="103.4" class="st62" width="11.3" height="11.3"/>
<rect x="114.8" y="103.4" class="st62" width="11.3" height="11.3"/>
<rect x="126.1" y="103.4" class="st62" width="11.3" height="11.3"/>
<line class="st63" x1="12.2" y1="69.4" x2="137.9" y2="69.4"/>
<line class="st63" x1="12.7" y1="24.1" x2="12.7" y2="114.8"/>
<line class="st63" x1="137.4" y1="24.1" x2="137.4" y2="114.8"/>
<text transform="matrix(1 0 0 1 15.5723 32.8999)" class="st64 st65">A</text>
<text transform="matrix(1 0 0 1 26.9116 32.8999)" class="st64 st65">A</text>
<text transform="matrix(1 0 0 1 38.2515 32.8999)" class="st64 st65">A</text>
<text transform="matrix(1 0 0 1 83.6094 32.8999)" class="st64 st65">A</text>
<text transform="matrix(1 0 0 1 94.9492 32.8999)" class="st64 st65">A</text>
<text transform="matrix(1 0 0 1 106.2886 32.8999)" class="st64 st65">A</text>
<text transform="matrix(1 0 0 1 128.9678 32.8999)" class="st64 st65">A</text>
<text transform="matrix(1 0 0 1 15.6997 44.2397)" class="st64 st65">C</text>
<text transform="matrix(1 0 0 1 49.7183 44.2397)" class="st64 st65">C</text>
<text transform="matrix(1 0 0 1 61.0581 44.2397)" class="st64 st65">C</text>
<text transform="matrix(1 0 0 1 83.7373 44.2397)" class="st64 st65">C</text>
<text transform="matrix(1 0 0 1 95.0767 44.2397)" class="st64 st65">C</text>
<text transform="matrix(1 0 0 1 117.7559 44.2397)" class="st64 st65">C</text>
<text transform="matrix(1 0 0 1 129.0957 44.2397)" class="st64 st65">C</text>
<text transform="matrix(1 0 0 1 26.7441 55.5791)" class="st64 st65">G</text>
<text transform="matrix(1 0 0 1 49.4233 55.5791)" class="st64 st65">G</text>
<text transform="matrix(1 0 0 1 72.1025 55.5791)" class="st64 st65">G</text>
<text transform="matrix(1 0 0 1 83.4419 55.5791)" class="st64 st65">G</text>
<text transform="matrix(1 0 0 1 106.1211 55.5791)" class="st64 st65">G</text>
<text transform="matrix(1 0 0 1 117.4609 55.5791)" class="st64 st65">G</text>
<text transform="matrix(1 0 0 1 128.8003 55.5791)" class="st64 st65">G</text>
<text transform="matrix(1 0 0 1 38.8179 66.9189)" class="st64 st65">T</text>
<text transform="matrix(1 0 0 1 61.4971 66.9189)" class="st64 st65">T</text>
<text transform="matrix(1 0 0 1 72.8364 66.9189)" class="st64 st65">T</text>
<text transform="matrix(1 0 0 1 95.5156 66.9189)" class="st64 st65">T</text>
<text transform="matrix(1 0 0 1 106.8555 66.9189)" class="st64 st65">T</text>
<text transform="matrix(1 0 0 1 118.1948 66.9189)" class="st64 st65">T</text>
<text transform="matrix(1 0 0 1 129.5347 66.9189)" class="st64 st65">T</text>
<text transform="matrix(1 0 0 1 16.083 78.2588)" class="st64 st65">0</text>
<text transform="matrix(1 0 0 1 27.4224 78.2588)" class="st64 st65">0</text>
<text transform="matrix(1 0 0 1 38.7617 78.2588)" class="st64 st65">0</text>
<text transform="matrix(1 0 0 1 84.1201 78.2588)" class="st64 st65">0</text>
<text transform="matrix(1 0 0 1 95.46 78.2588)" class="st64 st65">0</text>
<text transform="matrix(1 0 0 1 106.7993 78.2588)" class="st64 st65">0</text>
<text transform="matrix(1 0 0 1 129.4785 78.2588)" class="st64 st65">0</text>
<text transform="matrix(1 0 0 1 16.0908 89.5977)" class="st64 st65">1</text>
<text transform="matrix(1 0 0 1 50.1094 89.5977)" class="st64 st65">0</text>
<text transform="matrix(1 0 0 1 61.4492 89.5977)" class="st64 st65">0</text>
<text transform="matrix(1 0 0 1 84.1284 89.5977)" class="st64 st65">1</text>
<text transform="matrix(1 0 0 1 95.4678 89.5977)" class="st64 st65">1</text>
<text transform="matrix(1 0 0 1 118.147 89.5977)" class="st64 st65">0</text>
<text transform="matrix(1 0 0 1 129.4863 89.5977)" class="st64 st65">1</text>
<text transform="matrix(1 0 0 1 27.4385 100.9375)" class="st64 st65">1</text>
<text transform="matrix(1 0 0 1 50.1177 100.9375)" class="st64 st65">1</text>
<text transform="matrix(1 0 0 1 72.7969 100.9375)" class="st64 st65">0</text>
<text transform="matrix(1 0 0 1 84.1362 100.9375)" class="st64 st65">2</text>
<text transform="matrix(1 0 0 1 106.8154 100.9375)" class="st64 st65">1</text>
<text transform="matrix(1 0 0 1 118.1548 100.9375)" class="st64 st65">1</text>
<text transform="matrix(1 0 0 1 129.4946 100.9375)" class="st64 st65">2</text>
<text transform="matrix(1 0 0 1 38.7856 112.2773)" class="st64 st65">1</text>
<text transform="matrix(1 0 0 1 61.4648 112.2773)" class="st64 st65">1</text>
<text transform="matrix(1 0 0 1 72.8047 112.2773)" class="st64 st65">1</text>
<text transform="matrix(1 0 0 1 95.4839 112.2773)" class="st64 st65">2</text>
<text transform="matrix(1 0 0 1 106.8232 112.2773)" class="st64 st65">2</text>
<text transform="matrix(1 0 0 1 118.1631 112.2773)" class="st64 st65">2</text>
<text transform="matrix(1 0 0 1 129.5024 112.2773)" class="st64 st65">3</text>
<text transform="matrix(1 0 0 1 145.0117 59.4175)"><tspan x="0" y="0" class="st64 st68">sh</tspan><tspan x="9.7" y="0" class="st64 st68">u</tspan><tspan x="15.2" y="0" class="st64 st68">ffle</tspan></text>
<polygon class="st46" points="151,66.7 163.7,66.7 163.7,64.5 168,68.8 163.7,73.1 163.7,70.9 151,70.9 "/>
<polygon class="st14" points="151,66.7 163.7,66.7 163.7,64.5 168,68.8 163.7,73.1 163.7,70.9 151,70.9 "/>
<g>
	<defs>
		<rect id="SVGID_69_" width="552.8" height="127.5"/>
	</defs>
	<clipPath id="SVGID_70_">
		<use xlink:href="#SVGID_69_"  style="overflow:visible;"/>
	</clipPath>
	<path class="st70" d="M530.1,57.4c0.4,0,0.8,0.2,1.1,0.5l0.6,1.2l0,0c1-0.9,2.3-1,3.1-0.1c0.6,0.7,0.9,1.7,0.8,2.9l0,0l0.9,1.2
		c0.2,0.5,0.3,1.1,0.3,1.7c0,0.9-0.3,1.8-0.8,2.6c0.3,1.3,0.2,2.8-0.5,4.1c-0.8,1.7-2.3,2.8-3.8,2.7c-0.3,1.1-1,2.1-1.8,2.7
		c-1.3,0.9-2.7,0.6-3.6-0.6c-0.8,1.5-2.1,2.4-3.3,2.5c-1.5,0.1-2.8-1.1-3.1-2.9c-2.3,1-4.5-0.5-4.9-3.4c-1.1-0.1-1.9-1.3-1.8-2.8
		c0.1-1.1,0.6-2.1,1.3-2.7c-0.6-0.8-0.7-2.1-0.3-3.3c0.5-1.4,1.6-2.2,2.7-2.1l0-0.1c0.2-1.4,0.9-2.7,1.9-3.5
		c1.5-1.3,3.4-1.2,4.5,0.3l0,0l1.2-1.1c1.3-0.7,2.7-0.2,3.3,1.3l0,0l1-0.9C529.4,57.4,529.7,57.3,530.1,57.4"/>
	<path class="st71" d="M530.1,57.4c0.4,0,0.8,0.2,1.1,0.5l0.6,1.2l0,0c1-0.9,2.3-1,3.1-0.1c0.6,0.7,0.9,1.7,0.8,2.9l0,0l0.9,1.2
		c0.2,0.5,0.3,1.1,0.3,1.7c0,0.9-0.3,1.8-0.8,2.6c0.3,1.3,0.2,2.8-0.5,4.1c-0.8,1.7-2.3,2.8-3.8,2.7c-0.3,1.1-1,2.1-1.8,2.7
		c-1.3,0.9-2.7,0.6-3.6-0.6c-0.8,1.5-2.1,2.4-3.3,2.5c-1.5,0.1-2.8-1.1-3.1-2.9c-2.3,1-4.5-0.5-4.9-3.4c-1.1-0.1-1.9-1.3-1.8-2.8
		c0.1-1.1,0.6-2.1,1.3-2.7c-0.6-0.8-0.7-2.1-0.3-3.3c0.5-1.4,1.6-2.2,2.7-2.1l0-0.1c0.2-1.4,0.9-2.7,1.9-3.5
		c1.5-1.3,3.4-1.2,4.5,0.3l0,0l1.2-1.1c1.3-0.7,2.7-0.2,3.3,1.3l0,0l1-0.9C529.4,57.4,529.7,57.3,530.1,57.4z"/>
</g>
<g>
	<defs>
		<rect id="SVGID_71_" width="552.8" height="127.5"/>
	</defs>
	<clipPath id="SVGID_72_">
		<use xlink:href="#SVGID_71_"  style="overflow:visible;"/>
	</clipPath>
	<path class="st72" d="M536.8,63.5l0.3,1.5c0,0.9-0.3,1.8-0.8,2.6c0.3,1.3,0.2,2.8-0.5,4.1c-0.8,1.7-2.3,2.8-3.8,2.7
		c-0.3,1.1-1,2.1-1.8,2.7c-1.3,0.9-2.7,0.6-3.6-0.6c-0.8,1.5-2.1,2.4-3.3,2.5c-1.5,0.1-2.8-1.1-3.1-2.9c-1.1,0.5-2.3,0.4-3.2-0.2
		l-0.4-0.5L536.8,63.5z"/>
</g>
<text transform="matrix(1 0 0 1 522.4375 67.6133)" class="st48 st68">ℰ</text>
<g>
	<defs>
		<rect id="SVGID_73_" width="552.8" height="127.5"/>
	</defs>
	<clipPath id="SVGID_74_">
		<use xlink:href="#SVGID_73_"  style="overflow:visible;"/>
	</clipPath>
	<path class="st73" d="M498.2,39.8c1.9,0,3.4,1.8,3.4,4v21.5c0,2.2,1.5,4,3.5,4c-1.9,0-3.5,1.8-3.5,4v21.4c0,2.2-1.5,4-3.4,4"/>
</g>
</svg>
