<?xml version="1.0" encoding="utf-8" standalone="no"?>
<!DOCTYPE svg PUBLIC "-//W3C//DTD SVG 1.1//EN"
  "http://www.w3.org/Graphics/SVG/1.1/DTD/svg11.dtd">
<!-- Created with matplotlib (https://matplotlib.org/) -->
<svg height="318.085pt" version="1.1" viewBox="0 0 603.865 318.085" width="603.865pt" xmlns="http://www.w3.org/2000/svg" xmlns:xlink="http://www.w3.org/1999/xlink">
 <defs>
  <style type="text/css">
*{stroke-linecap:butt;stroke-linejoin:round;}
  </style>
 </defs>
 <g id="figure_1">
  <g id="patch_1">
   <path d="M 0 318.085 
L 603.865 318.085 
L 603.865 0 
L 0 0 
z
" style="fill:#ffffff;"/>
  </g>
  <g id="axes_1">
   <g id="patch_2">
    <path d="M 38.665 284.4 
L 596.665 284.4 
L 596.665 7.2 
L 38.665 7.2 
z
" style="fill:#ffffff;"/>
   </g>
   <g id="PolyCollection_1">
    <defs>
     <path d="M 85.165 -310.885 
L 85.165 -33.685 
L 131.665 -33.685 
L 131.665 -310.885 
L 131.665 -310.885 
L 85.165 -310.885 
z
" id="m4e98914e87" style="stroke:#f1f1f1;"/>
    </defs>
    <g clip-path="url(#p1064e8e187)">
     <use style="fill:#f1f1f1;stroke:#f1f1f1;" x="0" xlink:href="#m4e98914e87" y="318.085"/>
    </g>
   </g>
   <g id="PolyCollection_2">
    <defs>
     <path d="M 178.165 -310.885 
L 178.165 -33.685 
L 224.665 -33.685 
L 224.665 -310.885 
L 224.665 -310.885 
L 178.165 -310.885 
z
" id="m25f6f60d41" style="stroke:#f1f1f1;"/>
    </defs>
    <g clip-path="url(#p1064e8e187)">
     <use style="fill:#f1f1f1;stroke:#f1f1f1;" x="0" xlink:href="#m25f6f60d41" y="318.085"/>
    </g>
   </g>
   <g id="PolyCollection_3">
    <defs>
     <path d="M 271.165 -310.885 
L 271.165 -33.685 
L 317.665 -33.685 
L 317.665 -310.885 
L 317.665 -310.885 
L 271.165 -310.885 
z
" id="mebf631200f" style="stroke:#f1f1f1;"/>
    </defs>
    <g clip-path="url(#p1064e8e187)">
     <use style="fill:#f1f1f1;stroke:#f1f1f1;" x="0" xlink:href="#mebf631200f" y="318.085"/>
    </g>
   </g>
   <g id="PolyCollection_4">
    <defs>
     <path d="M 364.165 -310.885 
L 364.165 -33.685 
L 410.665 -33.685 
L 410.665 -310.885 
L 410.665 -310.885 
L 364.165 -310.885 
z
" id="m00ca4ebf1b" style="stroke:#f1f1f1;"/>
    </defs>
    <g clip-path="url(#p1064e8e187)">
     <use style="fill:#f1f1f1;stroke:#f1f1f1;" x="0" xlink:href="#m00ca4ebf1b" y="318.085"/>
    </g>
   </g>
   <g id="PolyCollection_5">
    <defs>
     <path d="M 457.165 -310.885 
L 457.165 -33.685 
L 503.665 -33.685 
L 503.665 -310.885 
L 503.665 -310.885 
L 457.165 -310.885 
z
" id="mbc45ad6cd4" style="stroke:#f1f1f1;"/>
    </defs>
    <g clip-path="url(#p1064e8e187)">
     <use style="fill:#f1f1f1;stroke:#f1f1f1;" x="0" xlink:href="#mbc45ad6cd4" y="318.085"/>
    </g>
   </g>
   <g id="PolyCollection_6">
    <defs>
     <path d="M 550.165 -310.885 
L 550.165 -33.685 
L 596.665 -33.685 
L 596.665 -310.885 
L 596.665 -310.885 
L 550.165 -310.885 
z
" id="m9d41acde41" style="stroke:#f1f1f1;"/>
    </defs>
    <g clip-path="url(#p1064e8e187)">
     <use style="fill:#f1f1f1;stroke:#f1f1f1;" x="0" xlink:href="#m9d41acde41" y="318.085"/>
    </g>
   </g>
   <g id="PolyCollection_7">
    <defs>
     <path d="M 155.250812 -167.964639 
L 154.579188 -167.964639 
L 154.546689 -168.142129 
L 154.511876 -168.319618 
L 154.474504 -168.497107 
L 154.434297 -168.674597 
L 154.39094 -168.852086 
L 154.344091 -169.029575 
L 154.293379 -169.207065 
L 154.238417 -169.384554 
L 154.178806 -169.562043 
L 154.114153 -169.739533 
L 154.044081 -169.917022 
L 153.968247 -170.094511 
L 153.886362 -170.272001 
L 153.798207 -170.44949 
L 153.703654 -170.626979 
L 153.60268 -170.804469 
L 153.495381 -170.981958 
L 153.38198 -171.159447 
L 153.262828 -171.336937 
L 153.138396 -171.514426 
L 153.009262 -171.691915 
L 152.876087 -171.869404 
L 152.739581 -172.046894 
L 152.600467 -172.224383 
L 152.459435 -172.401872 
L 152.317097 -172.579362 
L 152.17394 -172.756851 
L 152.030276 -172.93434 
L 151.886212 -173.11183 
L 151.741613 -173.289319 
L 151.596084 -173.466808 
L 151.448966 -173.644298 
L 151.29934 -173.821787 
L 151.146054 -173.999276 
L 150.987754 -174.176766 
L 150.822937 -174.354255 
L 150.650009 -174.531744 
L 150.467358 -174.709234 
L 150.273424 -174.886723 
L 150.066778 -175.064212 
L 149.846199 -175.241702 
L 149.61074 -175.419191 
L 149.359795 -175.59668 
L 149.093148 -175.77417 
L 148.811016 -175.951659 
L 148.514071 -176.129148 
L 148.203448 -176.306637 
L 147.880745 -176.484127 
L 147.547996 -176.661616 
L 147.207638 -176.839105 
L 146.862462 -177.016595 
L 146.515556 -177.194084 
L 146.170233 -177.371573 
L 145.829959 -177.549063 
L 145.498279 -177.726552 
L 145.178734 -177.904041 
L 144.874796 -178.081531 
L 144.589787 -178.25902 
L 144.326829 -178.436509 
L 144.088783 -178.613999 
L 143.878206 -178.791488 
L 143.697321 -178.968977 
L 143.547989 -179.146467 
L 143.431693 -179.323956 
L 143.349527 -179.501445 
L 143.302192 -179.678935 
L 143.29 -179.856424 
L 143.31287 -180.033913 
L 143.37034 -180.211403 
L 143.461577 -180.388892 
L 143.585388 -180.566381 
L 143.740243 -180.74387 
L 143.924305 -180.92136 
L 144.135458 -181.098849 
L 144.37136 -181.276338 
L 144.62949 -181.453828 
L 144.907208 -181.631317 
L 145.201829 -181.808806 
L 145.510682 -181.986296 
L 145.831183 -182.163785 
L 146.1609 -182.341274 
L 146.497599 -182.518764 
L 146.839289 -182.696253 
L 147.184249 -182.873742 
L 147.531024 -183.051232 
L 147.878427 -183.228721 
L 148.225498 -183.40621 
L 148.571472 -183.5837 
L 148.915719 -183.761189 
L 149.257686 -183.938678 
L 149.596841 -184.116168 
L 149.932615 -184.293657 
L 150.264354 -184.471146 
L 150.591287 -184.648636 
L 150.912511 -184.826125 
L 151.226983 -185.003614 
L 151.533538 -185.181103 
L 151.83092 -185.358593 
L 152.117818 -185.536082 
L 157.712182 -185.536082 
L 157.712182 -185.536082 
L 157.99908 -185.358593 
L 158.296462 -185.181103 
L 158.603017 -185.003614 
L 158.917489 -184.826125 
L 159.238713 -184.648636 
L 159.565646 -184.471146 
L 159.897385 -184.293657 
L 160.233159 -184.116168 
L 160.572314 -183.938678 
L 160.914281 -183.761189 
L 161.258528 -183.5837 
L 161.604502 -183.40621 
L 161.951573 -183.228721 
L 162.298976 -183.051232 
L 162.645751 -182.873742 
L 162.990711 -182.696253 
L 163.332401 -182.518764 
L 163.6691 -182.341274 
L 163.998817 -182.163785 
L 164.319318 -181.986296 
L 164.628171 -181.808806 
L 164.922792 -181.631317 
L 165.20051 -181.453828 
L 165.45864 -181.276338 
L 165.694542 -181.098849 
L 165.905695 -180.92136 
L 166.089757 -180.74387 
L 166.244612 -180.566381 
L 166.368423 -180.388892 
L 166.45966 -180.211403 
L 166.51713 -180.033913 
L 166.54 -179.856424 
L 166.527808 -179.678935 
L 166.480473 -179.501445 
L 166.398307 -179.323956 
L 166.282011 -179.146467 
L 166.132679 -178.968977 
L 165.951794 -178.791488 
L 165.741217 -178.613999 
L 165.503171 -178.436509 
L 165.240213 -178.25902 
L 164.955204 -178.081531 
L 164.651266 -177.904041 
L 164.331721 -177.726552 
L 164.000041 -177.549063 
L 163.659767 -177.371573 
L 163.314444 -177.194084 
L 162.967538 -177.016595 
L 162.622362 -176.839105 
L 162.282004 -176.661616 
L 161.949255 -176.484127 
L 161.626552 -176.306637 
L 161.315929 -176.129148 
L 161.018984 -175.951659 
L 160.736852 -175.77417 
L 160.470205 -175.59668 
L 160.21926 -175.419191 
L 159.983801 -175.241702 
L 159.763222 -175.064212 
L 159.556576 -174.886723 
L 159.362642 -174.709234 
L 159.179991 -174.531744 
L 159.007063 -174.354255 
L 158.842246 -174.176766 
L 158.683946 -173.999276 
L 158.53066 -173.821787 
L 158.381034 -173.644298 
L 158.233916 -173.466808 
L 158.088387 -173.289319 
L 157.943788 -173.11183 
L 157.799724 -172.93434 
L 157.65606 -172.756851 
L 157.512903 -172.579362 
L 157.370565 -172.401872 
L 157.229533 -172.224383 
L 157.090419 -172.046894 
L 156.953913 -171.869404 
L 156.820738 -171.691915 
L 156.691604 -171.514426 
L 156.567172 -171.336937 
L 156.44802 -171.159447 
L 156.334619 -170.981958 
L 156.22732 -170.804469 
L 156.126346 -170.626979 
L 156.031793 -170.44949 
L 155.943638 -170.272001 
L 155.861753 -170.094511 
L 155.785919 -169.917022 
L 155.715847 -169.739533 
L 155.651194 -169.562043 
L 155.591583 -169.384554 
L 155.536621 -169.207065 
L 155.485909 -169.029575 
L 155.43906 -168.852086 
L 155.395703 -168.674597 
L 155.355496 -168.497107 
L 155.318124 -168.319618 
L 155.283311 -168.142129 
L 155.250812 -167.964639 
z
" id="mee683c1454" style="stroke:#fe817d;"/>
    </defs>
    <g clip-path="url(#p1064e8e187)">
     <use style="fill:#fcbbae;stroke:#fe817d;" x="0" xlink:href="#mee683c1454" y="318.085"/>
    </g>
   </g>
   <g id="PolyCollection_8">
    <defs>
     <path d="M 201.609549 -188.097519 
L 201.220451 -188.097519 
L 201.204442 -188.27869 
L 201.187524 -188.459862 
L 201.169378 -188.641034 
L 201.149615 -188.822206 
L 201.127786 -189.003378 
L 201.103397 -189.18455 
L 201.075925 -189.365722 
L 201.044839 -189.546894 
L 201.009616 -189.728066 
L 200.969765 -189.909237 
L 200.92484 -190.090409 
L 200.874464 -190.271581 
L 200.818333 -190.452753 
L 200.756231 -190.633925 
L 200.688031 -190.815097 
L 200.613695 -190.996269 
L 200.533267 -191.177441 
L 200.446859 -191.358613 
L 200.35464 -191.539784 
L 200.256807 -191.720956 
L 200.153566 -191.902128 
L 200.045099 -192.0833 
L 199.931536 -192.264472 
L 199.812929 -192.445644 
L 199.689224 -192.626816 
L 199.560244 -192.807988 
L 199.425677 -192.98916 
L 199.28507 -193.170331 
L 199.137846 -193.351503 
L 198.983315 -193.532675 
L 198.82071 -193.713847 
L 198.649224 -193.895019 
L 198.468053 -194.076191 
L 198.276438 -194.257363 
L 198.073709 -194.438535 
L 197.859318 -194.619707 
L 197.632854 -194.800878 
L 197.394061 -194.98205 
L 197.142826 -195.163222 
L 196.879163 -195.344394 
L 196.603193 -195.525566 
L 196.315114 -195.706738 
L 196.015184 -195.88791 
L 195.703707 -196.069082 
L 195.381045 -196.250254 
L 195.047645 -196.431425 
L 194.704091 -196.612597 
L 194.351175 -196.793769 
L 193.989984 -196.974941 
L 193.62199 -197.156113 
L 193.249149 -197.337285 
L 192.87397 -197.518457 
L 192.499572 -197.699629 
L 192.129706 -197.880801 
L 191.768728 -198.061972 
L 191.42154 -198.243144 
L 191.093478 -198.424316 
L 190.790161 -198.605488 
L 190.517305 -198.78666 
L 190.280519 -198.967832 
L 190.085077 -199.149004 
L 189.935697 -199.330176 
L 189.836335 -199.511348 
L 189.79 -199.692519 
L 189.798609 -199.873691 
L 189.86289 -200.054863 
L 189.982337 -200.236035 
L 190.155219 -200.417207 
L 190.378647 -200.598379 
L 190.648694 -200.779551 
L 190.960554 -200.960723 
L 191.30874 -201.141895 
L 191.687304 -201.323067 
L 192.090062 -201.504238 
L 192.510824 -201.68541 
L 192.943598 -201.866582 
L 193.382775 -202.047754 
L 193.823274 -202.228926 
L 194.260651 -202.410098 
L 194.691162 -202.59127 
L 195.111785 -202.772442 
L 195.520205 -202.953614 
L 195.914765 -203.134785 
L 196.294389 -203.315957 
L 196.658492 -203.497129 
L 197.006876 -203.678301 
L 197.339628 -203.859473 
L 197.65702 -204.040645 
L 197.959428 -204.221817 
L 198.247251 -204.402989 
L 198.520869 -204.584161 
L 198.780596 -204.765332 
L 199.02667 -204.946504 
L 199.259245 -205.127676 
L 199.478403 -205.308848 
L 199.684171 -205.49002 
L 199.876547 -205.671192 
L 200.055528 -205.852364 
L 200.221135 -206.033536 
L 202.608865 -206.033536 
L 202.608865 -206.033536 
L 202.774472 -205.852364 
L 202.953453 -205.671192 
L 203.145829 -205.49002 
L 203.351597 -205.308848 
L 203.570755 -205.127676 
L 203.80333 -204.946504 
L 204.049404 -204.765332 
L 204.309131 -204.584161 
L 204.582749 -204.402989 
L 204.870572 -204.221817 
L 205.17298 -204.040645 
L 205.490372 -203.859473 
L 205.823124 -203.678301 
L 206.171508 -203.497129 
L 206.535611 -203.315957 
L 206.915235 -203.134785 
L 207.309795 -202.953614 
L 207.718215 -202.772442 
L 208.138838 -202.59127 
L 208.569349 -202.410098 
L 209.006726 -202.228926 
L 209.447225 -202.047754 
L 209.886402 -201.866582 
L 210.319176 -201.68541 
L 210.739938 -201.504238 
L 211.142696 -201.323067 
L 211.52126 -201.141895 
L 211.869446 -200.960723 
L 212.181306 -200.779551 
L 212.451353 -200.598379 
L 212.674781 -200.417207 
L 212.847663 -200.236035 
L 212.96711 -200.054863 
L 213.031391 -199.873691 
L 213.04 -199.692519 
L 212.993665 -199.511348 
L 212.894303 -199.330176 
L 212.744923 -199.149004 
L 212.549481 -198.967832 
L 212.312695 -198.78666 
L 212.039839 -198.605488 
L 211.736522 -198.424316 
L 211.40846 -198.243144 
L 211.061272 -198.061972 
L 210.700294 -197.880801 
L 210.330428 -197.699629 
L 209.95603 -197.518457 
L 209.580851 -197.337285 
L 209.20801 -197.156113 
L 208.840016 -196.974941 
L 208.478825 -196.793769 
L 208.125909 -196.612597 
L 207.782355 -196.431425 
L 207.448955 -196.250254 
L 207.126293 -196.069082 
L 206.814816 -195.88791 
L 206.514886 -195.706738 
L 206.226807 -195.525566 
L 205.950837 -195.344394 
L 205.687174 -195.163222 
L 205.435939 -194.98205 
L 205.197146 -194.800878 
L 204.970682 -194.619707 
L 204.756291 -194.438535 
L 204.553562 -194.257363 
L 204.361947 -194.076191 
L 204.180776 -193.895019 
L 204.00929 -193.713847 
L 203.846685 -193.532675 
L 203.692154 -193.351503 
L 203.54493 -193.170331 
L 203.404323 -192.98916 
L 203.269756 -192.807988 
L 203.140776 -192.626816 
L 203.017071 -192.445644 
L 202.898464 -192.264472 
L 202.784901 -192.0833 
L 202.676434 -191.902128 
L 202.573193 -191.720956 
L 202.47536 -191.539784 
L 202.383141 -191.358613 
L 202.296733 -191.177441 
L 202.216305 -190.996269 
L 202.141969 -190.815097 
L 202.073769 -190.633925 
L 202.011667 -190.452753 
L 201.955536 -190.271581 
L 201.90516 -190.090409 
L 201.860235 -189.909237 
L 201.820384 -189.728066 
L 201.785161 -189.546894 
L 201.754075 -189.365722 
L 201.726603 -189.18455 
L 201.702214 -189.003378 
L 201.680385 -188.822206 
L 201.660622 -188.641034 
L 201.642476 -188.459862 
L 201.625558 -188.27869 
L 201.609549 -188.097519 
z
" id="m5b797f5c10" style="stroke:#fe817d;"/>
    </defs>
    <g clip-path="url(#p1064e8e187)">
     <use style="fill:#fcbbae;stroke:#fe817d;" x="0" xlink:href="#m5b797f5c10" y="318.085"/>
    </g>
   </g>
   <g id="PolyCollection_9">
    <defs>
     <path d="M 248.111342 -216.542348 
L 247.718658 -216.542348 
L 247.696635 -216.696747 
L 247.672574 -216.851146 
L 247.646272 -217.005545 
L 247.617527 -217.159943 
L 247.586152 -217.314342 
L 247.551988 -217.468741 
L 247.514914 -217.62314 
L 247.474856 -217.777539 
L 247.431796 -217.931938 
L 247.385777 -218.086337 
L 247.336899 -218.240735 
L 247.285317 -218.395134 
L 247.231231 -218.549533 
L 247.174874 -218.703932 
L 247.116497 -218.858331 
L 247.056347 -219.01273 
L 246.994656 -219.167128 
L 246.931619 -219.321527 
L 246.867382 -219.475926 
L 246.80203 -219.630325 
L 246.735585 -219.784724 
L 246.667996 -219.939123 
L 246.599153 -220.093521 
L 246.528886 -220.24792 
L 246.456983 -220.402319 
L 246.383197 -220.556718 
L 246.307261 -220.711117 
L 246.228897 -220.865516 
L 246.147828 -221.019915 
L 246.063773 -221.174313 
L 245.976452 -221.328712 
L 245.885575 -221.483111 
L 245.79083 -221.63751 
L 245.691868 -221.791909 
L 245.588286 -221.946308 
L 245.479608 -222.100706 
L 245.365275 -222.255105 
L 245.244629 -222.409504 
L 245.116915 -222.563903 
L 244.981283 -222.718302 
L 244.836798 -222.872701 
L 244.682461 -223.027099 
L 244.517237 -223.181498 
L 244.340084 -223.335897 
L 244.14999 -223.490296 
L 243.946015 -223.644695 
L 243.727327 -223.799094 
L 243.493241 -223.953493 
L 243.243257 -224.107891 
L 242.977097 -224.26229 
L 242.694731 -224.416689 
L 242.396411 -224.571088 
L 242.082692 -224.725487 
L 241.754457 -224.879886 
L 241.412931 -225.034284 
L 241.059702 -225.188683 
L 240.696721 -225.343082 
L 240.326313 -225.497481 
L 239.951169 -225.65188 
L 239.574337 -225.806279 
L 239.199197 -225.960677 
L 238.82943 -226.115076 
L 238.468978 -226.269475 
L 238.121985 -226.423874 
L 237.792734 -226.578273 
L 237.485567 -226.732672 
L 237.204806 -226.887071 
L 236.954656 -227.041469 
L 236.73911 -227.195868 
L 236.561851 -227.350267 
L 236.426156 -227.504666 
L 236.334805 -227.659065 
L 236.29 -227.813464 
L 236.293295 -227.967862 
L 236.345541 -228.122261 
L 236.446857 -228.27666 
L 236.59661 -228.431059 
L 236.793426 -228.585458 
L 237.03522 -228.739857 
L 237.319248 -228.894256 
L 237.642177 -229.048654 
L 238.000171 -229.203053 
L 238.388993 -229.357452 
L 238.804108 -229.511851 
L 239.240798 -229.66625 
L 239.694265 -229.820649 
L 240.159741 -229.975047 
L 240.632576 -230.129446 
L 241.108322 -230.283845 
L 241.582796 -230.438244 
L 242.052137 -230.592643 
L 242.512834 -230.747042 
L 242.961756 -230.90144 
L 243.396155 -231.055839 
L 243.813671 -231.210238 
L 244.212318 -231.364637 
L 244.590479 -231.519036 
L 244.946883 -231.673435 
L 245.280593 -231.827834 
L 250.549407 -231.827834 
L 250.549407 -231.827834 
L 250.883117 -231.673435 
L 251.239521 -231.519036 
L 251.617682 -231.364637 
L 252.016329 -231.210238 
L 252.433845 -231.055839 
L 252.868244 -230.90144 
L 253.317166 -230.747042 
L 253.777863 -230.592643 
L 254.247204 -230.438244 
L 254.721678 -230.283845 
L 255.197424 -230.129446 
L 255.670259 -229.975047 
L 256.135735 -229.820649 
L 256.589202 -229.66625 
L 257.025892 -229.511851 
L 257.441007 -229.357452 
L 257.829829 -229.203053 
L 258.187823 -229.048654 
L 258.510752 -228.894256 
L 258.79478 -228.739857 
L 259.036574 -228.585458 
L 259.23339 -228.431059 
L 259.383143 -228.27666 
L 259.484459 -228.122261 
L 259.536705 -227.967862 
L 259.54 -227.813464 
L 259.495195 -227.659065 
L 259.403844 -227.504666 
L 259.268149 -227.350267 
L 259.09089 -227.195868 
L 258.875344 -227.041469 
L 258.625194 -226.887071 
L 258.344433 -226.732672 
L 258.037266 -226.578273 
L 257.708015 -226.423874 
L 257.361022 -226.269475 
L 257.00057 -226.115076 
L 256.630803 -225.960677 
L 256.255663 -225.806279 
L 255.878831 -225.65188 
L 255.503687 -225.497481 
L 255.133279 -225.343082 
L 254.770298 -225.188683 
L 254.417069 -225.034284 
L 254.075543 -224.879886 
L 253.747308 -224.725487 
L 253.433589 -224.571088 
L 253.135269 -224.416689 
L 252.852903 -224.26229 
L 252.586743 -224.107891 
L 252.336759 -223.953493 
L 252.102673 -223.799094 
L 251.883985 -223.644695 
L 251.68001 -223.490296 
L 251.489916 -223.335897 
L 251.312763 -223.181498 
L 251.147539 -223.027099 
L 250.993202 -222.872701 
L 250.848717 -222.718302 
L 250.713085 -222.563903 
L 250.585371 -222.409504 
L 250.464725 -222.255105 
L 250.350392 -222.100706 
L 250.241714 -221.946308 
L 250.138132 -221.791909 
L 250.03917 -221.63751 
L 249.944425 -221.483111 
L 249.853548 -221.328712 
L 249.766227 -221.174313 
L 249.682172 -221.019915 
L 249.601103 -220.865516 
L 249.522739 -220.711117 
L 249.446803 -220.556718 
L 249.373017 -220.402319 
L 249.301114 -220.24792 
L 249.230847 -220.093521 
L 249.162004 -219.939123 
L 249.094415 -219.784724 
L 249.02797 -219.630325 
L 248.962618 -219.475926 
L 248.898381 -219.321527 
L 248.835344 -219.167128 
L 248.773653 -219.01273 
L 248.713503 -218.858331 
L 248.655126 -218.703932 
L 248.598769 -218.549533 
L 248.544683 -218.395134 
L 248.493101 -218.240735 
L 248.444223 -218.086337 
L 248.398204 -217.931938 
L 248.355144 -217.777539 
L 248.315086 -217.62314 
L 248.278012 -217.468741 
L 248.243848 -217.314342 
L 248.212473 -217.159943 
L 248.183728 -217.005545 
L 248.157426 -216.851146 
L 248.133365 -216.696747 
L 248.111342 -216.542348 
z
" id="m10d395421c" style="stroke:#fe817d;"/>
    </defs>
    <g clip-path="url(#p1064e8e187)">
     <use style="fill:#fcbbae;stroke:#fe817d;" x="0" xlink:href="#m10d395421c" y="318.085"/>
    </g>
   </g>
   <g id="PolyCollection_10">
    <defs>
     <path d="M 294.527883 -212.8441 
L 294.302117 -212.8441 
L 294.288579 -213.065604 
L 294.27396 -213.287108 
L 294.258238 -213.508612 
L 294.241406 -213.730115 
L 294.223483 -213.951619 
L 294.204509 -214.173123 
L 294.184551 -214.394627 
L 294.163701 -214.616131 
L 294.142067 -214.837635 
L 294.11977 -215.059139 
L 294.096926 -215.280643 
L 294.073636 -215.502147 
L 294.049965 -215.723651 
L 294.025923 -215.945155 
L 294.001447 -216.166659 
L 293.976383 -216.388163 
L 293.950469 -216.609666 
L 293.923329 -216.83117 
L 293.89447 -217.052674 
L 293.863283 -217.274178 
L 293.829059 -217.495682 
L 293.791009 -217.717186 
L 293.748293 -217.93869 
L 293.700057 -218.160194 
L 293.645468 -218.381698 
L 293.583762 -218.603202 
L 293.514281 -218.824706 
L 293.436515 -219.04621 
L 293.350132 -219.267714 
L 293.255006 -219.489218 
L 293.15123 -219.710721 
L 293.039119 -219.932225 
L 292.9192 -220.153729 
L 292.792194 -220.375233 
L 292.658979 -220.596737 
L 292.520547 -220.818241 
L 292.377952 -221.039745 
L 292.232255 -221.261249 
L 292.08446 -221.482753 
L 291.935458 -221.704257 
L 291.78597 -221.925761 
L 291.636505 -222.147265 
L 291.487321 -222.368769 
L 291.338411 -222.590272 
L 291.189496 -222.811776 
L 291.040037 -223.03328 
L 290.889273 -223.254784 
L 290.736256 -223.476288 
L 290.579909 -223.697792 
L 290.419088 -223.919296 
L 290.252635 -224.1408 
L 290.07944 -224.362304 
L 289.898477 -224.583808 
L 289.708833 -224.805312 
L 289.509724 -225.026816 
L 289.300485 -225.24832 
L 289.080559 -225.469824 
L 288.849467 -225.691327 
L 288.606789 -225.912831 
L 288.352148 -226.134335 
L 288.085211 -226.355839 
L 287.805716 -226.577343 
L 287.513521 -226.798847 
L 287.208688 -227.020351 
L 286.891587 -227.241855 
L 286.563015 -227.463359 
L 286.224322 -227.684863 
L 285.877535 -227.906367 
L 285.525446 -228.127871 
L 285.171677 -228.349375 
L 284.820689 -228.570878 
L 284.477734 -228.792382 
L 284.148757 -229.013886 
L 283.840231 -229.23539 
L 283.558952 -229.456894 
L 283.311795 -229.678398 
L 283.105452 -229.899902 
L 282.946165 -230.121406 
L 282.839474 -230.34291 
L 282.79 -230.564414 
L 282.801259 -230.785918 
L 282.875536 -231.007422 
L 283.0138 -231.228926 
L 283.215687 -231.45043 
L 283.47951 -231.671933 
L 283.802332 -231.893437 
L 284.180055 -232.114941 
L 284.607553 -232.336445 
L 285.078814 -232.557949 
L 285.587101 -232.779453 
L 286.125129 -233.000957 
L 286.685243 -233.222461 
L 287.259607 -233.443965 
L 287.84039 -233.665469 
L 288.419957 -233.886973 
L 288.991047 -234.108477 
L 289.546946 -234.329981 
L 290.081632 -234.551485 
L 290.589908 -234.772988 
L 298.240092 -234.772988 
L 298.240092 -234.772988 
L 298.748368 -234.551485 
L 299.283054 -234.329981 
L 299.838953 -234.108477 
L 300.410043 -233.886973 
L 300.98961 -233.665469 
L 301.570393 -233.443965 
L 302.144757 -233.222461 
L 302.704871 -233.000957 
L 303.242899 -232.779453 
L 303.751186 -232.557949 
L 304.222447 -232.336445 
L 304.649945 -232.114941 
L 305.027668 -231.893437 
L 305.35049 -231.671933 
L 305.614313 -231.45043 
L 305.8162 -231.228926 
L 305.954464 -231.007422 
L 306.028741 -230.785918 
L 306.04 -230.564414 
L 305.990526 -230.34291 
L 305.883835 -230.121406 
L 305.724548 -229.899902 
L 305.518205 -229.678398 
L 305.271048 -229.456894 
L 304.989769 -229.23539 
L 304.681243 -229.013886 
L 304.352266 -228.792382 
L 304.009311 -228.570878 
L 303.658323 -228.349375 
L 303.304554 -228.127871 
L 302.952465 -227.906367 
L 302.605678 -227.684863 
L 302.266985 -227.463359 
L 301.938413 -227.241855 
L 301.621312 -227.020351 
L 301.316479 -226.798847 
L 301.024284 -226.577343 
L 300.744789 -226.355839 
L 300.477852 -226.134335 
L 300.223211 -225.912831 
L 299.980533 -225.691327 
L 299.749441 -225.469824 
L 299.529515 -225.24832 
L 299.320276 -225.026816 
L 299.121167 -224.805312 
L 298.931523 -224.583808 
L 298.75056 -224.362304 
L 298.577365 -224.1408 
L 298.410912 -223.919296 
L 298.250091 -223.697792 
L 298.093744 -223.476288 
L 297.940727 -223.254784 
L 297.789963 -223.03328 
L 297.640504 -222.811776 
L 297.491589 -222.590272 
L 297.342679 -222.368769 
L 297.193495 -222.147265 
L 297.04403 -221.925761 
L 296.894542 -221.704257 
L 296.74554 -221.482753 
L 296.597745 -221.261249 
L 296.452048 -221.039745 
L 296.309453 -220.818241 
L 296.171021 -220.596737 
L 296.037806 -220.375233 
L 295.9108 -220.153729 
L 295.790881 -219.932225 
L 295.67877 -219.710721 
L 295.574994 -219.489218 
L 295.479868 -219.267714 
L 295.393485 -219.04621 
L 295.315719 -218.824706 
L 295.246238 -218.603202 
L 295.184532 -218.381698 
L 295.129943 -218.160194 
L 295.081707 -217.93869 
L 295.038991 -217.717186 
L 295.000941 -217.495682 
L 294.966717 -217.274178 
L 294.93553 -217.052674 
L 294.906671 -216.83117 
L 294.879531 -216.609666 
L 294.853617 -216.388163 
L 294.828553 -216.166659 
L 294.804077 -215.945155 
L 294.780035 -215.723651 
L 294.756364 -215.502147 
L 294.733074 -215.280643 
L 294.71023 -215.059139 
L 294.687933 -214.837635 
L 294.666299 -214.616131 
L 294.645449 -214.394627 
L 294.625491 -214.173123 
L 294.606517 -213.951619 
L 294.588594 -213.730115 
L 294.571762 -213.508612 
L 294.55604 -213.287108 
L 294.541421 -213.065604 
L 294.527883 -212.8441 
z
" id="m1e5c8c6345" style="stroke:#fe817d;"/>
    </defs>
    <g clip-path="url(#p1064e8e187)">
     <use style="fill:#fcbbae;stroke:#fe817d;" x="0" xlink:href="#m1e5c8c6345" y="318.085"/>
    </g>
   </g>
   <g id="PolyCollection_11">
    <defs>
     <path d="M 341.019678 -220.033422 
L 340.810322 -220.033422 
L 340.793803 -220.236925 
L 340.775406 -220.440427 
L 340.755121 -220.64393 
L 340.732998 -220.847433 
L 340.709155 -221.050936 
L 340.683782 -221.254439 
L 340.657135 -221.457941 
L 340.629529 -221.661444 
L 340.601327 -221.864947 
L 340.572916 -222.06845 
L 340.544687 -222.271953 
L 340.517006 -222.475455 
L 340.490188 -222.678958 
L 340.46447 -222.882461 
L 340.43999 -223.085964 
L 340.416763 -223.289466 
L 340.394681 -223.492969 
L 340.373496 -223.696472 
L 340.352834 -223.899975 
L 340.332202 -224.103478 
L 340.311003 -224.30698 
L 340.288565 -224.510483 
L 340.264161 -224.713986 
L 340.23704 -224.917489 
L 340.20645 -225.120992 
L 340.171667 -225.324494 
L 340.132015 -225.527997 
L 340.086884 -225.7315 
L 340.035742 -225.935003 
L 339.978149 -226.138506 
L 339.913759 -226.342008 
L 339.842328 -226.545511 
L 339.763708 -226.749014 
L 339.677851 -226.952517 
L 339.584798 -227.15602 
L 339.484676 -227.359522 
L 339.377683 -227.563025 
L 339.264073 -227.766528 
L 339.144132 -227.970031 
L 339.018155 -228.173534 
L 338.886415 -228.377036 
L 338.749132 -228.580539 
L 338.606436 -228.784042 
L 338.458342 -228.987545 
L 338.304723 -229.191047 
L 338.145293 -229.39455 
L 337.979605 -229.598053 
L 337.807056 -229.801556 
L 337.626911 -230.005059 
L 337.438335 -230.208561 
L 337.240437 -230.412064 
L 337.03232 -230.615567 
L 336.813132 -230.81907 
L 336.582121 -231.022573 
L 336.338674 -231.226075 
L 336.082354 -231.429578 
L 335.812923 -231.633081 
L 335.530353 -231.836584 
L 335.234827 -232.040087 
L 334.926737 -232.243589 
L 334.606672 -232.447092 
L 334.275417 -232.650595 
L 333.933959 -232.854098 
L 333.583504 -233.057601 
L 333.22551 -233.261103 
L 332.861742 -233.464606 
L 332.494334 -233.668109 
L 332.125863 -233.871612 
L 331.759424 -234.075114 
L 331.398692 -234.278617 
L 331.047968 -234.48212 
L 330.712186 -234.685623 
L 330.396883 -234.889126 
L 330.108119 -235.092628 
L 329.85234 -235.296131 
L 329.636197 -235.499634 
L 329.466308 -235.703137 
L 329.348996 -235.90664 
L 329.29 -236.110142 
L 329.294178 -236.313645 
L 329.365234 -236.517148 
L 329.505477 -236.720651 
L 329.71563 -236.924154 
L 329.994709 -237.127656 
L 330.339983 -237.331159 
L 330.747011 -237.534662 
L 331.209771 -237.738165 
L 331.720855 -237.941668 
L 332.27174 -238.14517 
L 332.853097 -238.348673 
L 333.45514 -238.552176 
L 334.067975 -238.755679 
L 334.681946 -238.959181 
L 335.287948 -239.162684 
L 335.877694 -239.366187 
L 336.443933 -239.56969 
L 336.980598 -239.773193 
L 337.482896 -239.976695 
L 337.947334 -240.180198 
L 343.882666 -240.180198 
L 343.882666 -240.180198 
L 344.347104 -239.976695 
L 344.849402 -239.773193 
L 345.386067 -239.56969 
L 345.952306 -239.366187 
L 346.542052 -239.162684 
L 347.148054 -238.959181 
L 347.762025 -238.755679 
L 348.37486 -238.552176 
L 348.976903 -238.348673 
L 349.55826 -238.14517 
L 350.109145 -237.941668 
L 350.620229 -237.738165 
L 351.082989 -237.534662 
L 351.490017 -237.331159 
L 351.835291 -237.127656 
L 352.11437 -236.924154 
L 352.324523 -236.720651 
L 352.464766 -236.517148 
L 352.535822 -236.313645 
L 352.54 -236.110142 
L 352.481004 -235.90664 
L 352.363692 -235.703137 
L 352.193803 -235.499634 
L 351.97766 -235.296131 
L 351.721881 -235.092628 
L 351.433117 -234.889126 
L 351.117814 -234.685623 
L 350.782032 -234.48212 
L 350.431308 -234.278617 
L 350.070576 -234.075114 
L 349.704137 -233.871612 
L 349.335666 -233.668109 
L 348.968258 -233.464606 
L 348.60449 -233.261103 
L 348.246496 -233.057601 
L 347.896041 -232.854098 
L 347.554583 -232.650595 
L 347.223328 -232.447092 
L 346.903263 -232.243589 
L 346.595173 -232.040087 
L 346.299647 -231.836584 
L 346.017077 -231.633081 
L 345.747646 -231.429578 
L 345.491326 -231.226075 
L 345.247879 -231.022573 
L 345.016868 -230.81907 
L 344.79768 -230.615567 
L 344.589563 -230.412064 
L 344.391665 -230.208561 
L 344.203089 -230.005059 
L 344.022944 -229.801556 
L 343.850395 -229.598053 
L 343.684707 -229.39455 
L 343.525277 -229.191047 
L 343.371658 -228.987545 
L 343.223564 -228.784042 
L 343.080868 -228.580539 
L 342.943585 -228.377036 
L 342.811845 -228.173534 
L 342.685868 -227.970031 
L 342.565927 -227.766528 
L 342.452317 -227.563025 
L 342.345324 -227.359522 
L 342.245202 -227.15602 
L 342.152149 -226.952517 
L 342.066292 -226.749014 
L 341.987672 -226.545511 
L 341.916241 -226.342008 
L 341.851851 -226.138506 
L 341.794258 -225.935003 
L 341.743116 -225.7315 
L 341.697985 -225.527997 
L 341.658333 -225.324494 
L 341.62355 -225.120992 
L 341.59296 -224.917489 
L 341.565839 -224.713986 
L 341.541435 -224.510483 
L 341.518997 -224.30698 
L 341.497798 -224.103478 
L 341.477166 -223.899975 
L 341.456504 -223.696472 
L 341.435319 -223.492969 
L 341.413237 -223.289466 
L 341.39001 -223.085964 
L 341.36553 -222.882461 
L 341.339812 -222.678958 
L 341.312994 -222.475455 
L 341.285313 -222.271953 
L 341.257084 -222.06845 
L 341.228673 -221.864947 
L 341.200471 -221.661444 
L 341.172865 -221.457941 
L 341.146218 -221.254439 
L 341.120845 -221.050936 
L 341.097002 -220.847433 
L 341.074879 -220.64393 
L 341.054594 -220.440427 
L 341.036197 -220.236925 
L 341.019678 -220.033422 
z
" id="mdc1cf7e8d2" style="stroke:#fe817d;"/>
    </defs>
    <g clip-path="url(#p1064e8e187)">
     <use style="fill:#fcbbae;stroke:#fe817d;" x="0" xlink:href="#mdc1cf7e8d2" y="318.085"/>
    </g>
   </g>
   <g id="PolyCollection_12">
    <defs>
     <path d="M 387.444069 -215.526953 
L 387.385931 -215.526953 
L 387.38558 -215.763718 
L 387.385549 -216.000482 
L 387.385738 -216.237246 
L 387.386014 -216.474011 
L 387.386219 -216.710775 
L 387.38618 -216.947539 
L 387.38572 -217.184304 
L 387.384667 -217.421068 
L 387.382863 -217.657832 
L 387.380173 -217.894597 
L 387.376486 -218.131361 
L 387.371716 -218.368125 
L 387.365808 -218.60489 
L 387.358723 -218.841654 
L 387.350446 -219.078419 
L 387.340973 -219.315183 
L 387.33031 -219.551947 
L 387.318467 -219.788712 
L 387.305457 -220.025476 
L 387.29129 -220.26224 
L 387.27597 -220.499005 
L 387.259498 -220.735769 
L 387.241864 -220.972533 
L 387.223047 -221.209298 
L 387.203012 -221.446062 
L 387.181708 -221.682827 
L 387.159062 -221.919591 
L 387.134977 -222.156355 
L 387.109331 -222.39312 
L 387.081975 -222.629884 
L 387.05273 -222.866648 
L 387.021389 -223.103413 
L 386.987719 -223.340177 
L 386.951456 -223.576941 
L 386.912314 -223.813706 
L 386.86999 -224.05047 
L 386.824169 -224.287235 
L 386.774546 -224.523999 
L 386.720843 -224.760763 
L 386.662838 -224.997528 
L 386.600403 -225.234292 
L 386.533529 -225.471056 
L 386.462366 -225.707821 
L 386.387228 -225.944585 
L 386.308605 -226.181349 
L 386.227129 -226.418114 
L 386.14353 -226.654878 
L 386.058558 -226.891643 
L 385.972892 -227.128407 
L 385.88703 -227.365171 
L 385.801187 -227.601936 
L 385.715199 -227.8387 
L 385.628452 -228.075464 
L 385.53985 -228.312229 
L 385.447813 -228.548993 
L 385.350326 -228.785757 
L 385.24502 -229.022522 
L 385.129285 -229.259286 
L 385.000409 -229.49605 
L 384.855726 -229.732815 
L 384.692757 -229.969579 
L 384.509343 -230.206344 
L 384.303739 -230.443108 
L 384.074688 -230.679872 
L 383.821445 -230.916637 
L 383.543763 -231.153401 
L 383.241842 -231.390165 
L 382.916257 -231.62693 
L 382.567867 -231.863694 
L 382.197729 -232.100458 
L 381.807039 -232.337223 
L 381.397106 -232.573987 
L 380.96939 -232.810752 
L 380.525601 -233.047516 
L 380.067872 -233.28428 
L 379.598991 -233.521045 
L 379.122679 -233.757809 
L 378.64388 -233.994573 
L 378.169029 -234.231338 
L 377.706243 -234.468102 
L 377.265395 -234.704866 
L 376.85802 -234.941631 
L 376.497025 -235.178395 
L 376.196196 -235.41516 
L 375.969493 -235.651924 
L 375.830206 -235.888688 
L 375.79 -236.125453 
L 375.857963 -236.362217 
L 376.039737 -236.598981 
L 376.336832 -236.835746 
L 376.746212 -237.07251 
L 377.260198 -237.309274 
L 377.866732 -237.546039 
L 378.549974 -237.782803 
L 379.291183 -238.019567 
L 380.069819 -238.256332 
L 380.864741 -238.493096 
L 381.655411 -238.729861 
L 382.422987 -238.966625 
L 392.407013 -238.966625 
L 392.407013 -238.966625 
L 393.174589 -238.729861 
L 393.965259 -238.493096 
L 394.760181 -238.256332 
L 395.538817 -238.019567 
L 396.280026 -237.782803 
L 396.963268 -237.546039 
L 397.569802 -237.309274 
L 398.083788 -237.07251 
L 398.493168 -236.835746 
L 398.790263 -236.598981 
L 398.972037 -236.362217 
L 399.04 -236.125453 
L 398.999794 -235.888688 
L 398.860507 -235.651924 
L 398.633804 -235.41516 
L 398.332975 -235.178395 
L 397.97198 -234.941631 
L 397.564605 -234.704866 
L 397.123757 -234.468102 
L 396.660971 -234.231338 
L 396.18612 -233.994573 
L 395.707321 -233.757809 
L 395.231009 -233.521045 
L 394.762128 -233.28428 
L 394.304399 -233.047516 
L 393.86061 -232.810752 
L 393.432894 -232.573987 
L 393.022961 -232.337223 
L 392.632271 -232.100458 
L 392.262133 -231.863694 
L 391.913743 -231.62693 
L 391.588158 -231.390165 
L 391.286237 -231.153401 
L 391.008555 -230.916637 
L 390.755312 -230.679872 
L 390.526261 -230.443108 
L 390.320657 -230.206344 
L 390.137243 -229.969579 
L 389.974274 -229.732815 
L 389.829591 -229.49605 
L 389.700715 -229.259286 
L 389.58498 -229.022522 
L 389.479674 -228.785757 
L 389.382187 -228.548993 
L 389.29015 -228.312229 
L 389.201548 -228.075464 
L 389.114801 -227.8387 
L 389.028813 -227.601936 
L 388.94297 -227.365171 
L 388.857108 -227.128407 
L 388.771442 -226.891643 
L 388.68647 -226.654878 
L 388.602871 -226.418114 
L 388.521395 -226.181349 
L 388.442772 -225.944585 
L 388.367634 -225.707821 
L 388.296471 -225.471056 
L 388.229597 -225.234292 
L 388.167162 -224.997528 
L 388.109157 -224.760763 
L 388.055454 -224.523999 
L 388.005831 -224.287235 
L 387.96001 -224.05047 
L 387.917686 -223.813706 
L 387.878544 -223.576941 
L 387.842281 -223.340177 
L 387.808611 -223.103413 
L 387.77727 -222.866648 
L 387.748025 -222.629884 
L 387.720669 -222.39312 
L 387.695023 -222.156355 
L 387.670938 -221.919591 
L 387.648292 -221.682827 
L 387.626988 -221.446062 
L 387.606953 -221.209298 
L 387.588136 -220.972533 
L 387.570502 -220.735769 
L 387.55403 -220.499005 
L 387.53871 -220.26224 
L 387.524543 -220.025476 
L 387.511533 -219.788712 
L 387.49969 -219.551947 
L 387.489027 -219.315183 
L 387.479554 -219.078419 
L 387.471277 -218.841654 
L 387.464192 -218.60489 
L 387.458284 -218.368125 
L 387.453514 -218.131361 
L 387.449827 -217.894597 
L 387.447137 -217.657832 
L 387.445333 -217.421068 
L 387.44428 -217.184304 
L 387.44382 -216.947539 
L 387.443781 -216.710775 
L 387.443986 -216.474011 
L 387.444262 -216.237246 
L 387.444451 -216.000482 
L 387.44442 -215.763718 
L 387.444069 -215.526953 
z
" id="m6ffd6b3ca8" style="stroke:#fe817d;"/>
    </defs>
    <g clip-path="url(#p1064e8e187)">
     <use style="fill:#fcbbae;stroke:#fe817d;" x="0" xlink:href="#m6ffd6b3ca8" y="318.085"/>
    </g>
   </g>
   <g id="matplotlib.axis_1">
    <g id="xtick_1">
     <g id="line2d_1">
      <defs>
       <path d="M 0 0 
L 0 3.5 
" id="m073314f108" style="stroke:#000000;stroke-width:0.8;"/>
      </defs>
      <g>
       <use style="stroke:#000000;stroke-width:0.8;" x="61.915" xlink:href="#m073314f108" y="284.4"/>
      </g>
     </g>
     <g id="text_1">
      <!-- 1 -->
      <defs>
       <path d="M 12.40625 8.296875 
L 28.515625 8.296875 
L 28.515625 63.921875 
L 10.984375 60.40625 
L 10.984375 69.390625 
L 28.421875 72.90625 
L 38.28125 72.90625 
L 38.28125 8.296875 
L 54.390625 8.296875 
L 54.390625 0 
L 12.40625 0 
z
" id="DejaVuSans-49"/>
      </defs>
      <g transform="translate(59.37 297.47875)scale(0.08 -0.08)">
       <use xlink:href="#DejaVuSans-49"/>
      </g>
     </g>
    </g>
    <g id="xtick_2">
     <g id="line2d_2">
      <g>
       <use style="stroke:#000000;stroke-width:0.8;" x="108.415" xlink:href="#m073314f108" y="284.4"/>
      </g>
     </g>
     <g id="text_2">
      <!-- 2 -->
      <defs>
       <path d="M 19.1875 8.296875 
L 53.609375 8.296875 
L 53.609375 0 
L 7.328125 0 
L 7.328125 8.296875 
Q 12.9375 14.109375 22.625 23.890625 
Q 32.328125 33.6875 34.8125 36.53125 
Q 39.546875 41.84375 41.421875 45.53125 
Q 43.3125 49.21875 43.3125 52.78125 
Q 43.3125 58.59375 39.234375 62.25 
Q 35.15625 65.921875 28.609375 65.921875 
Q 23.96875 65.921875 18.8125 64.3125 
Q 13.671875 62.703125 7.8125 59.421875 
L 7.8125 69.390625 
Q 13.765625 71.78125 18.9375 73 
Q 24.125 74.21875 28.421875 74.21875 
Q 39.75 74.21875 46.484375 68.546875 
Q 53.21875 62.890625 53.21875 53.421875 
Q 53.21875 48.921875 51.53125 44.890625 
Q 49.859375 40.875 45.40625 35.40625 
Q 44.1875 33.984375 37.640625 27.21875 
Q 31.109375 20.453125 19.1875 8.296875 
z
" id="DejaVuSans-50"/>
      </defs>
      <g transform="translate(105.87 297.47875)scale(0.08 -0.08)">
       <use xlink:href="#DejaVuSans-50"/>
      </g>
     </g>
    </g>
    <g id="xtick_3">
     <g id="line2d_3">
      <g>
       <use style="stroke:#000000;stroke-width:0.8;" x="154.915" xlink:href="#m073314f108" y="284.4"/>
      </g>
     </g>
     <g id="text_3">
      <!-- 3 -->
      <defs>
       <path d="M 40.578125 39.3125 
Q 47.65625 37.796875 51.625 33 
Q 55.609375 28.21875 55.609375 21.1875 
Q 55.609375 10.40625 48.1875 4.484375 
Q 40.765625 -1.421875 27.09375 -1.421875 
Q 22.515625 -1.421875 17.65625 -0.515625 
Q 12.796875 0.390625 7.625 2.203125 
L 7.625 11.71875 
Q 11.71875 9.328125 16.59375 8.109375 
Q 21.484375 6.890625 26.8125 6.890625 
Q 36.078125 6.890625 40.9375 10.546875 
Q 45.796875 14.203125 45.796875 21.1875 
Q 45.796875 27.640625 41.28125 31.265625 
Q 36.765625 34.90625 28.71875 34.90625 
L 20.21875 34.90625 
L 20.21875 43.015625 
L 29.109375 43.015625 
Q 36.375 43.015625 40.234375 45.921875 
Q 44.09375 48.828125 44.09375 54.296875 
Q 44.09375 59.90625 40.109375 62.90625 
Q 36.140625 65.921875 28.71875 65.921875 
Q 24.65625 65.921875 20.015625 65.03125 
Q 15.375 64.15625 9.8125 62.3125 
L 9.8125 71.09375 
Q 15.4375 72.65625 20.34375 73.4375 
Q 25.25 74.21875 29.59375 74.21875 
Q 40.828125 74.21875 47.359375 69.109375 
Q 53.90625 64.015625 53.90625 55.328125 
Q 53.90625 49.265625 50.4375 45.09375 
Q 46.96875 40.921875 40.578125 39.3125 
z
" id="DejaVuSans-51"/>
      </defs>
      <g transform="translate(152.37 297.47875)scale(0.08 -0.08)">
       <use xlink:href="#DejaVuSans-51"/>
      </g>
     </g>
    </g>
    <g id="xtick_4">
     <g id="line2d_4">
      <g>
       <use style="stroke:#000000;stroke-width:0.8;" x="201.415" xlink:href="#m073314f108" y="284.4"/>
      </g>
     </g>
     <g id="text_4">
      <!-- 4 -->
      <defs>
       <path d="M 37.796875 64.3125 
L 12.890625 25.390625 
L 37.796875 25.390625 
z
M 35.203125 72.90625 
L 47.609375 72.90625 
L 47.609375 25.390625 
L 58.015625 25.390625 
L 58.015625 17.1875 
L 47.609375 17.1875 
L 47.609375 0 
L 37.796875 0 
L 37.796875 17.1875 
L 4.890625 17.1875 
L 4.890625 26.703125 
z
" id="DejaVuSans-52"/>
      </defs>
      <g transform="translate(198.87 297.47875)scale(0.08 -0.08)">
       <use xlink:href="#DejaVuSans-52"/>
      </g>
     </g>
    </g>
    <g id="xtick_5">
     <g id="line2d_5">
      <g>
       <use style="stroke:#000000;stroke-width:0.8;" x="247.915" xlink:href="#m073314f108" y="284.4"/>
      </g>
     </g>
     <g id="text_5">
      <!-- 5 -->
      <defs>
       <path d="M 10.796875 72.90625 
L 49.515625 72.90625 
L 49.515625 64.59375 
L 19.828125 64.59375 
L 19.828125 46.734375 
Q 21.96875 47.46875 24.109375 47.828125 
Q 26.265625 48.1875 28.421875 48.1875 
Q 40.625 48.1875 47.75 41.5 
Q 54.890625 34.8125 54.890625 23.390625 
Q 54.890625 11.625 47.5625 5.09375 
Q 40.234375 -1.421875 26.90625 -1.421875 
Q 22.3125 -1.421875 17.546875 -0.640625 
Q 12.796875 0.140625 7.71875 1.703125 
L 7.71875 11.625 
Q 12.109375 9.234375 16.796875 8.0625 
Q 21.484375 6.890625 26.703125 6.890625 
Q 35.15625 6.890625 40.078125 11.328125 
Q 45.015625 15.765625 45.015625 23.390625 
Q 45.015625 31 40.078125 35.4375 
Q 35.15625 39.890625 26.703125 39.890625 
Q 22.75 39.890625 18.8125 39.015625 
Q 14.890625 38.140625 10.796875 36.28125 
z
" id="DejaVuSans-53"/>
      </defs>
      <g transform="translate(245.37 297.47875)scale(0.08 -0.08)">
       <use xlink:href="#DejaVuSans-53"/>
      </g>
     </g>
    </g>
    <g id="xtick_6">
     <g id="line2d_6">
      <g>
       <use style="stroke:#000000;stroke-width:0.8;" x="294.415" xlink:href="#m073314f108" y="284.4"/>
      </g>
     </g>
     <g id="text_6">
      <!-- 6 -->
      <defs>
       <path d="M 33.015625 40.375 
Q 26.375 40.375 22.484375 35.828125 
Q 18.609375 31.296875 18.609375 23.390625 
Q 18.609375 15.53125 22.484375 10.953125 
Q 26.375 6.390625 33.015625 6.390625 
Q 39.65625 6.390625 43.53125 10.953125 
Q 47.40625 15.53125 47.40625 23.390625 
Q 47.40625 31.296875 43.53125 35.828125 
Q 39.65625 40.375 33.015625 40.375 
z
M 52.59375 71.296875 
L 52.59375 62.3125 
Q 48.875 64.0625 45.09375 64.984375 
Q 41.3125 65.921875 37.59375 65.921875 
Q 27.828125 65.921875 22.671875 59.328125 
Q 17.53125 52.734375 16.796875 39.40625 
Q 19.671875 43.65625 24.015625 45.921875 
Q 28.375 48.1875 33.59375 48.1875 
Q 44.578125 48.1875 50.953125 41.515625 
Q 57.328125 34.859375 57.328125 23.390625 
Q 57.328125 12.15625 50.6875 5.359375 
Q 44.046875 -1.421875 33.015625 -1.421875 
Q 20.359375 -1.421875 13.671875 8.265625 
Q 6.984375 17.96875 6.984375 36.375 
Q 6.984375 53.65625 15.1875 63.9375 
Q 23.390625 74.21875 37.203125 74.21875 
Q 40.921875 74.21875 44.703125 73.484375 
Q 48.484375 72.75 52.59375 71.296875 
z
" id="DejaVuSans-54"/>
      </defs>
      <g transform="translate(291.87 297.47875)scale(0.08 -0.08)">
       <use xlink:href="#DejaVuSans-54"/>
      </g>
     </g>
    </g>
    <g id="xtick_7">
     <g id="line2d_7">
      <g>
       <use style="stroke:#000000;stroke-width:0.8;" x="340.915" xlink:href="#m073314f108" y="284.4"/>
      </g>
     </g>
     <g id="text_7">
      <!-- 7 -->
      <defs>
       <path d="M 8.203125 72.90625 
L 55.078125 72.90625 
L 55.078125 68.703125 
L 28.609375 0 
L 18.3125 0 
L 43.21875 64.59375 
L 8.203125 64.59375 
z
" id="DejaVuSans-55"/>
      </defs>
      <g transform="translate(338.37 297.47875)scale(0.08 -0.08)">
       <use xlink:href="#DejaVuSans-55"/>
      </g>
     </g>
    </g>
    <g id="xtick_8">
     <g id="line2d_8">
      <g>
       <use style="stroke:#000000;stroke-width:0.8;" x="387.415" xlink:href="#m073314f108" y="284.4"/>
      </g>
     </g>
     <g id="text_8">
      <!-- 8 -->
      <defs>
       <path d="M 31.78125 34.625 
Q 24.75 34.625 20.71875 30.859375 
Q 16.703125 27.09375 16.703125 20.515625 
Q 16.703125 13.921875 20.71875 10.15625 
Q 24.75 6.390625 31.78125 6.390625 
Q 38.8125 6.390625 42.859375 10.171875 
Q 46.921875 13.96875 46.921875 20.515625 
Q 46.921875 27.09375 42.890625 30.859375 
Q 38.875 34.625 31.78125 34.625 
z
M 21.921875 38.8125 
Q 15.578125 40.375 12.03125 44.71875 
Q 8.5 49.078125 8.5 55.328125 
Q 8.5 64.0625 14.71875 69.140625 
Q 20.953125 74.21875 31.78125 74.21875 
Q 42.671875 74.21875 48.875 69.140625 
Q 55.078125 64.0625 55.078125 55.328125 
Q 55.078125 49.078125 51.53125 44.71875 
Q 48 40.375 41.703125 38.8125 
Q 48.828125 37.15625 52.796875 32.3125 
Q 56.78125 27.484375 56.78125 20.515625 
Q 56.78125 9.90625 50.3125 4.234375 
Q 43.84375 -1.421875 31.78125 -1.421875 
Q 19.734375 -1.421875 13.25 4.234375 
Q 6.78125 9.90625 6.78125 20.515625 
Q 6.78125 27.484375 10.78125 32.3125 
Q 14.796875 37.15625 21.921875 38.8125 
z
M 18.3125 54.390625 
Q 18.3125 48.734375 21.84375 45.5625 
Q 25.390625 42.390625 31.78125 42.390625 
Q 38.140625 42.390625 41.71875 45.5625 
Q 45.3125 48.734375 45.3125 54.390625 
Q 45.3125 60.0625 41.71875 63.234375 
Q 38.140625 66.40625 31.78125 66.40625 
Q 25.390625 66.40625 21.84375 63.234375 
Q 18.3125 60.0625 18.3125 54.390625 
z
" id="DejaVuSans-56"/>
      </defs>
      <g transform="translate(384.87 297.47875)scale(0.08 -0.08)">
       <use xlink:href="#DejaVuSans-56"/>
      </g>
     </g>
    </g>
    <g id="xtick_9">
     <g id="line2d_9">
      <g>
       <use style="stroke:#000000;stroke-width:0.8;" x="433.915" xlink:href="#m073314f108" y="284.4"/>
      </g>
     </g>
     <g id="text_9">
      <!-- 9 -->
      <defs>
       <path d="M 10.984375 1.515625 
L 10.984375 10.5 
Q 14.703125 8.734375 18.5 7.8125 
Q 22.3125 6.890625 25.984375 6.890625 
Q 35.75 6.890625 40.890625 13.453125 
Q 46.046875 20.015625 46.78125 33.40625 
Q 43.953125 29.203125 39.59375 26.953125 
Q 35.25 24.703125 29.984375 24.703125 
Q 19.046875 24.703125 12.671875 31.3125 
Q 6.296875 37.9375 6.296875 49.421875 
Q 6.296875 60.640625 12.9375 67.421875 
Q 19.578125 74.21875 30.609375 74.21875 
Q 43.265625 74.21875 49.921875 64.515625 
Q 56.59375 54.828125 56.59375 36.375 
Q 56.59375 19.140625 48.40625 8.859375 
Q 40.234375 -1.421875 26.421875 -1.421875 
Q 22.703125 -1.421875 18.890625 -0.6875 
Q 15.09375 0.046875 10.984375 1.515625 
z
M 30.609375 32.421875 
Q 37.25 32.421875 41.125 36.953125 
Q 45.015625 41.5 45.015625 49.421875 
Q 45.015625 57.28125 41.125 61.84375 
Q 37.25 66.40625 30.609375 66.40625 
Q 23.96875 66.40625 20.09375 61.84375 
Q 16.21875 57.28125 16.21875 49.421875 
Q 16.21875 41.5 20.09375 36.953125 
Q 23.96875 32.421875 30.609375 32.421875 
z
" id="DejaVuSans-57"/>
      </defs>
      <g transform="translate(431.37 297.47875)scale(0.08 -0.08)">
       <use xlink:href="#DejaVuSans-57"/>
      </g>
     </g>
    </g>
    <g id="xtick_10">
     <g id="line2d_10">
      <g>
       <use style="stroke:#000000;stroke-width:0.8;" x="480.415" xlink:href="#m073314f108" y="284.4"/>
      </g>
     </g>
     <g id="text_10">
      <!-- 10 -->
      <defs>
       <path d="M 31.78125 66.40625 
Q 24.171875 66.40625 20.328125 58.90625 
Q 16.5 51.421875 16.5 36.375 
Q 16.5 21.390625 20.328125 13.890625 
Q 24.171875 6.390625 31.78125 6.390625 
Q 39.453125 6.390625 43.28125 13.890625 
Q 47.125 21.390625 47.125 36.375 
Q 47.125 51.421875 43.28125 58.90625 
Q 39.453125 66.40625 31.78125 66.40625 
z
M 31.78125 74.21875 
Q 44.046875 74.21875 50.515625 64.515625 
Q 56.984375 54.828125 56.984375 36.375 
Q 56.984375 17.96875 50.515625 8.265625 
Q 44.046875 -1.421875 31.78125 -1.421875 
Q 19.53125 -1.421875 13.0625 8.265625 
Q 6.59375 17.96875 6.59375 36.375 
Q 6.59375 54.828125 13.0625 64.515625 
Q 19.53125 74.21875 31.78125 74.21875 
z
" id="DejaVuSans-48"/>
      </defs>
      <g transform="translate(475.325 297.47875)scale(0.08 -0.08)">
       <use xlink:href="#DejaVuSans-49"/>
       <use x="63.623047" xlink:href="#DejaVuSans-48"/>
      </g>
     </g>
    </g>
    <g id="xtick_11">
     <g id="line2d_11">
      <g>
       <use style="stroke:#000000;stroke-width:0.8;" x="526.915" xlink:href="#m073314f108" y="284.4"/>
      </g>
     </g>
     <g id="text_11">
      <!-- 11 -->
      <g transform="translate(521.825 297.47875)scale(0.08 -0.08)">
       <use xlink:href="#DejaVuSans-49"/>
       <use x="63.623047" xlink:href="#DejaVuSans-49"/>
      </g>
     </g>
    </g>
    <g id="xtick_12">
     <g id="line2d_12">
      <g>
       <use style="stroke:#000000;stroke-width:0.8;" x="573.415" xlink:href="#m073314f108" y="284.4"/>
      </g>
     </g>
     <g id="text_12">
      <!-- 12 -->
      <g transform="translate(568.325 297.47875)scale(0.08 -0.08)">
       <use xlink:href="#DejaVuSans-49"/>
       <use x="63.623047" xlink:href="#DejaVuSans-50"/>
      </g>
     </g>
    </g>
    <g id="text_13">
     <!-- constraint set -->
     <defs>
      <path d="M 48.78125 52.59375 
L 48.78125 44.1875 
Q 44.96875 46.296875 41.140625 47.34375 
Q 37.3125 48.390625 33.40625 48.390625 
Q 24.65625 48.390625 19.8125 42.84375 
Q 14.984375 37.3125 14.984375 27.296875 
Q 14.984375 17.28125 19.8125 11.734375 
Q 24.65625 6.203125 33.40625 6.203125 
Q 37.3125 6.203125 41.140625 7.25 
Q 44.96875 8.296875 48.78125 10.40625 
L 48.78125 2.09375 
Q 45.015625 0.34375 40.984375 -0.53125 
Q 36.96875 -1.421875 32.421875 -1.421875 
Q 20.0625 -1.421875 12.78125 6.34375 
Q 5.515625 14.109375 5.515625 27.296875 
Q 5.515625 40.671875 12.859375 48.328125 
Q 20.21875 56 33.015625 56 
Q 37.15625 56 41.109375 55.140625 
Q 45.0625 54.296875 48.78125 52.59375 
z
" id="DejaVuSans-99"/>
      <path d="M 30.609375 48.390625 
Q 23.390625 48.390625 19.1875 42.75 
Q 14.984375 37.109375 14.984375 27.296875 
Q 14.984375 17.484375 19.15625 11.84375 
Q 23.34375 6.203125 30.609375 6.203125 
Q 37.796875 6.203125 41.984375 11.859375 
Q 46.1875 17.53125 46.1875 27.296875 
Q 46.1875 37.015625 41.984375 42.703125 
Q 37.796875 48.390625 30.609375 48.390625 
z
M 30.609375 56 
Q 42.328125 56 49.015625 48.375 
Q 55.71875 40.765625 55.71875 27.296875 
Q 55.71875 13.875 49.015625 6.21875 
Q 42.328125 -1.421875 30.609375 -1.421875 
Q 18.84375 -1.421875 12.171875 6.21875 
Q 5.515625 13.875 5.515625 27.296875 
Q 5.515625 40.765625 12.171875 48.375 
Q 18.84375 56 30.609375 56 
z
" id="DejaVuSans-111"/>
      <path d="M 54.890625 33.015625 
L 54.890625 0 
L 45.90625 0 
L 45.90625 32.71875 
Q 45.90625 40.484375 42.875 44.328125 
Q 39.84375 48.1875 33.796875 48.1875 
Q 26.515625 48.1875 22.3125 43.546875 
Q 18.109375 38.921875 18.109375 30.90625 
L 18.109375 0 
L 9.078125 0 
L 9.078125 54.6875 
L 18.109375 54.6875 
L 18.109375 46.1875 
Q 21.34375 51.125 25.703125 53.5625 
Q 30.078125 56 35.796875 56 
Q 45.21875 56 50.046875 50.171875 
Q 54.890625 44.34375 54.890625 33.015625 
z
" id="DejaVuSans-110"/>
      <path d="M 44.28125 53.078125 
L 44.28125 44.578125 
Q 40.484375 46.53125 36.375 47.5 
Q 32.28125 48.484375 27.875 48.484375 
Q 21.1875 48.484375 17.84375 46.4375 
Q 14.5 44.390625 14.5 40.28125 
Q 14.5 37.15625 16.890625 35.375 
Q 19.28125 33.59375 26.515625 31.984375 
L 29.59375 31.296875 
Q 39.15625 29.25 43.1875 25.515625 
Q 47.21875 21.78125 47.21875 15.09375 
Q 47.21875 7.46875 41.1875 3.015625 
Q 35.15625 -1.421875 24.609375 -1.421875 
Q 20.21875 -1.421875 15.453125 -0.5625 
Q 10.6875 0.296875 5.421875 2 
L 5.421875 11.28125 
Q 10.40625 8.6875 15.234375 7.390625 
Q 20.0625 6.109375 24.8125 6.109375 
Q 31.15625 6.109375 34.5625 8.28125 
Q 37.984375 10.453125 37.984375 14.40625 
Q 37.984375 18.0625 35.515625 20.015625 
Q 33.0625 21.96875 24.703125 23.78125 
L 21.578125 24.515625 
Q 13.234375 26.265625 9.515625 29.90625 
Q 5.8125 33.546875 5.8125 39.890625 
Q 5.8125 47.609375 11.28125 51.796875 
Q 16.75 56 26.8125 56 
Q 31.78125 56 36.171875 55.265625 
Q 40.578125 54.546875 44.28125 53.078125 
z
" id="DejaVuSans-115"/>
      <path d="M 18.3125 70.21875 
L 18.3125 54.6875 
L 36.8125 54.6875 
L 36.8125 47.703125 
L 18.3125 47.703125 
L 18.3125 18.015625 
Q 18.3125 11.328125 20.140625 9.421875 
Q 21.96875 7.515625 27.59375 7.515625 
L 36.8125 7.515625 
L 36.8125 0 
L 27.59375 0 
Q 17.1875 0 13.234375 3.875 
Q 9.28125 7.765625 9.28125 18.015625 
L 9.28125 47.703125 
L 2.6875 47.703125 
L 2.6875 54.6875 
L 9.28125 54.6875 
L 9.28125 70.21875 
z
" id="DejaVuSans-116"/>
      <path d="M 41.109375 46.296875 
Q 39.59375 47.171875 37.8125 47.578125 
Q 36.03125 48 33.890625 48 
Q 26.265625 48 22.1875 43.046875 
Q 18.109375 38.09375 18.109375 28.8125 
L 18.109375 0 
L 9.078125 0 
L 9.078125 54.6875 
L 18.109375 54.6875 
L 18.109375 46.1875 
Q 20.953125 51.171875 25.484375 53.578125 
Q 30.03125 56 36.53125 56 
Q 37.453125 56 38.578125 55.875 
Q 39.703125 55.765625 41.0625 55.515625 
z
" id="DejaVuSans-114"/>
      <path d="M 34.28125 27.484375 
Q 23.390625 27.484375 19.1875 25 
Q 14.984375 22.515625 14.984375 16.5 
Q 14.984375 11.71875 18.140625 8.90625 
Q 21.296875 6.109375 26.703125 6.109375 
Q 34.1875 6.109375 38.703125 11.40625 
Q 43.21875 16.703125 43.21875 25.484375 
L 43.21875 27.484375 
z
M 52.203125 31.203125 
L 52.203125 0 
L 43.21875 0 
L 43.21875 8.296875 
Q 40.140625 3.328125 35.546875 0.953125 
Q 30.953125 -1.421875 24.3125 -1.421875 
Q 15.921875 -1.421875 10.953125 3.296875 
Q 6 8.015625 6 15.921875 
Q 6 25.140625 12.171875 29.828125 
Q 18.359375 34.515625 30.609375 34.515625 
L 43.21875 34.515625 
L 43.21875 35.40625 
Q 43.21875 41.609375 39.140625 45 
Q 35.0625 48.390625 27.6875 48.390625 
Q 23 48.390625 18.546875 47.265625 
Q 14.109375 46.140625 10.015625 43.890625 
L 10.015625 52.203125 
Q 14.9375 54.109375 19.578125 55.046875 
Q 24.21875 56 28.609375 56 
Q 40.484375 56 46.34375 49.84375 
Q 52.203125 43.703125 52.203125 31.203125 
z
" id="DejaVuSans-97"/>
      <path d="M 9.421875 54.6875 
L 18.40625 54.6875 
L 18.40625 0 
L 9.421875 0 
z
M 9.421875 75.984375 
L 18.40625 75.984375 
L 18.40625 64.59375 
L 9.421875 64.59375 
z
" id="DejaVuSans-105"/>
      <path id="DejaVuSans-32"/>
      <path d="M 56.203125 29.59375 
L 56.203125 25.203125 
L 14.890625 25.203125 
Q 15.484375 15.921875 20.484375 11.0625 
Q 25.484375 6.203125 34.421875 6.203125 
Q 39.59375 6.203125 44.453125 7.46875 
Q 49.3125 8.734375 54.109375 11.28125 
L 54.109375 2.78125 
Q 49.265625 0.734375 44.1875 -0.34375 
Q 39.109375 -1.421875 33.890625 -1.421875 
Q 20.796875 -1.421875 13.15625 6.1875 
Q 5.515625 13.8125 5.515625 26.8125 
Q 5.515625 40.234375 12.765625 48.109375 
Q 20.015625 56 32.328125 56 
Q 43.359375 56 49.78125 48.890625 
Q 56.203125 41.796875 56.203125 29.59375 
z
M 47.21875 32.234375 
Q 47.125 39.59375 43.09375 43.984375 
Q 39.0625 48.390625 32.421875 48.390625 
Q 24.90625 48.390625 20.390625 44.140625 
Q 15.875 39.890625 15.1875 32.171875 
z
" id="DejaVuSans-101"/>
     </defs>
     <g transform="translate(290.136875 309.22125)scale(0.08 -0.08)">
      <use xlink:href="#DejaVuSans-99"/>
      <use x="54.980469" xlink:href="#DejaVuSans-111"/>
      <use x="116.162109" xlink:href="#DejaVuSans-110"/>
      <use x="179.541016" xlink:href="#DejaVuSans-115"/>
      <use x="231.640625" xlink:href="#DejaVuSans-116"/>
      <use x="270.849609" xlink:href="#DejaVuSans-114"/>
      <use x="311.962891" xlink:href="#DejaVuSans-97"/>
      <use x="373.242188" xlink:href="#DejaVuSans-105"/>
      <use x="401.025391" xlink:href="#DejaVuSans-110"/>
      <use x="464.404297" xlink:href="#DejaVuSans-116"/>
      <use x="503.613281" xlink:href="#DejaVuSans-32"/>
      <use x="535.400391" xlink:href="#DejaVuSans-115"/>
      <use x="587.5" xlink:href="#DejaVuSans-101"/>
      <use x="649.023438" xlink:href="#DejaVuSans-116"/>
     </g>
    </g>
   </g>
   <g id="matplotlib.axis_2">
    <g id="ytick_1">
     <g id="line2d_13">
      <defs>
       <path d="M 0 0 
L -3.5 0 
" id="mae07846c13" style="stroke:#000000;stroke-width:0.8;"/>
      </defs>
      <g>
       <use style="stroke:#000000;stroke-width:0.8;" x="38.665" xlink:href="#mae07846c13" y="265.282759"/>
      </g>
     </g>
     <g id="text_14">
      <!-- 1.0 -->
      <defs>
       <path d="M 10.6875 12.40625 
L 21 12.40625 
L 21 0 
L 10.6875 0 
z
" id="DejaVuSans-46"/>
      </defs>
      <g transform="translate(18.9425 268.322134)scale(0.08 -0.08)">
       <use xlink:href="#DejaVuSans-49"/>
       <use x="63.623047" xlink:href="#DejaVuSans-46"/>
       <use x="95.410156" xlink:href="#DejaVuSans-48"/>
      </g>
     </g>
    </g>
    <g id="ytick_2">
     <g id="line2d_14">
      <g>
       <use style="stroke:#000000;stroke-width:0.8;" x="38.665" xlink:href="#mae07846c13" y="217.489655"/>
      </g>
     </g>
     <g id="text_15">
      <!-- 1.2 -->
      <g transform="translate(18.9425 220.52903)scale(0.08 -0.08)">
       <use xlink:href="#DejaVuSans-49"/>
       <use x="63.623047" xlink:href="#DejaVuSans-46"/>
       <use x="95.410156" xlink:href="#DejaVuSans-50"/>
      </g>
     </g>
    </g>
    <g id="ytick_3">
     <g id="line2d_15">
      <g>
       <use style="stroke:#000000;stroke-width:0.8;" x="38.665" xlink:href="#mae07846c13" y="169.696552"/>
      </g>
     </g>
     <g id="text_16">
      <!-- 1.4 -->
      <g transform="translate(18.9425 172.735927)scale(0.08 -0.08)">
       <use xlink:href="#DejaVuSans-49"/>
       <use x="63.623047" xlink:href="#DejaVuSans-46"/>
       <use x="95.410156" xlink:href="#DejaVuSans-52"/>
      </g>
     </g>
    </g>
    <g id="ytick_4">
     <g id="line2d_16">
      <g>
       <use style="stroke:#000000;stroke-width:0.8;" x="38.665" xlink:href="#mae07846c13" y="121.903448"/>
      </g>
     </g>
     <g id="text_17">
      <!-- 1.6 -->
      <g transform="translate(18.9425 124.942823)scale(0.08 -0.08)">
       <use xlink:href="#DejaVuSans-49"/>
       <use x="63.623047" xlink:href="#DejaVuSans-46"/>
       <use x="95.410156" xlink:href="#DejaVuSans-54"/>
      </g>
     </g>
    </g>
    <g id="ytick_5">
     <g id="line2d_17">
      <g>
       <use style="stroke:#000000;stroke-width:0.8;" x="38.665" xlink:href="#mae07846c13" y="74.110345"/>
      </g>
     </g>
     <g id="text_18">
      <!-- 1.8 -->
      <g transform="translate(18.9425 77.14972)scale(0.08 -0.08)">
       <use xlink:href="#DejaVuSans-49"/>
       <use x="63.623047" xlink:href="#DejaVuSans-46"/>
       <use x="95.410156" xlink:href="#DejaVuSans-56"/>
      </g>
     </g>
    </g>
    <g id="ytick_6">
     <g id="line2d_18">
      <g>
       <use style="stroke:#000000;stroke-width:0.8;" x="38.665" xlink:href="#mae07846c13" y="26.317241"/>
      </g>
     </g>
     <g id="text_19">
      <!-- 2.0 -->
      <g transform="translate(18.9425 29.356616)scale(0.08 -0.08)">
       <use xlink:href="#DejaVuSans-50"/>
       <use x="63.623047" xlink:href="#DejaVuSans-46"/>
       <use x="95.410156" xlink:href="#DejaVuSans-48"/>
      </g>
     </g>
    </g>
    <g id="text_20">
     <!-- code rate -->
     <defs>
      <path d="M 45.40625 46.390625 
L 45.40625 75.984375 
L 54.390625 75.984375 
L 54.390625 0 
L 45.40625 0 
L 45.40625 8.203125 
Q 42.578125 3.328125 38.25 0.953125 
Q 33.9375 -1.421875 27.875 -1.421875 
Q 17.96875 -1.421875 11.734375 6.484375 
Q 5.515625 14.40625 5.515625 27.296875 
Q 5.515625 40.1875 11.734375 48.09375 
Q 17.96875 56 27.875 56 
Q 33.9375 56 38.25 53.625 
Q 42.578125 51.265625 45.40625 46.390625 
z
M 14.796875 27.296875 
Q 14.796875 17.390625 18.875 11.75 
Q 22.953125 6.109375 30.078125 6.109375 
Q 37.203125 6.109375 41.296875 11.75 
Q 45.40625 17.390625 45.40625 27.296875 
Q 45.40625 37.203125 41.296875 42.84375 
Q 37.203125 48.484375 30.078125 48.484375 
Q 22.953125 48.484375 18.875 42.84375 
Q 14.796875 37.203125 14.796875 27.296875 
z
" id="DejaVuSans-100"/>
     </defs>
     <g transform="translate(13.27875 164.84375)rotate(-90)scale(0.08 -0.08)">
      <use xlink:href="#DejaVuSans-99"/>
      <use x="54.980469" xlink:href="#DejaVuSans-111"/>
      <use x="116.162109" xlink:href="#DejaVuSans-100"/>
      <use x="179.638672" xlink:href="#DejaVuSans-101"/>
      <use x="241.162109" xlink:href="#DejaVuSans-32"/>
      <use x="272.949219" xlink:href="#DejaVuSans-114"/>
      <use x="314.0625" xlink:href="#DejaVuSans-97"/>
      <use x="375.341797" xlink:href="#DejaVuSans-116"/>
      <use x="414.550781" xlink:href="#DejaVuSans-101"/>
     </g>
    </g>
   </g>
   <g id="LineCollection_1">
    <path clip-path="url(#p1064e8e187)" d="M 43.315 265.282759 
L 80.515 265.282759 
" style="fill:none;stroke:#81b8df;"/>
   </g>
   <g id="LineCollection_2">
    <path clip-path="url(#p1064e8e187)" d="M 89.815 125.496892 
L 127.015 125.496892 
" style="fill:none;stroke:#81b8df;"/>
   </g>
   <g id="LineCollection_3">
    <path clip-path="url(#p1064e8e187)" d="M 136.315 114.67649 
L 173.515 114.67649 
" style="fill:none;stroke:#81b8df;"/>
   </g>
   <g id="LineCollection_4">
    <path clip-path="url(#p1064e8e187)" d="M 182.815 105.234847 
L 220.015 105.234847 
" style="fill:none;stroke:#81b8df;"/>
   </g>
   <g id="LineCollection_5">
    <path clip-path="url(#p1064e8e187)" d="M 229.315 79.825072 
L 266.515 79.825072 
" style="fill:none;stroke:#81b8df;"/>
   </g>
   <g id="LineCollection_6">
    <path clip-path="url(#p1064e8e187)" d="M 275.815 75.115739 
L 313.015 75.115739 
" style="fill:none;stroke:#81b8df;"/>
   </g>
   <g id="LineCollection_7">
    <path clip-path="url(#p1064e8e187)" d="M 322.315 71.38955 
L 359.515 71.38955 
" style="fill:none;stroke:#81b8df;"/>
   </g>
   <g id="LineCollection_8">
    <path clip-path="url(#p1064e8e187)" d="M 368.815 70.471258 
L 406.015 70.471258 
" style="fill:none;stroke:#81b8df;"/>
   </g>
   <g id="LineCollection_9">
    <path clip-path="url(#p1064e8e187)" d="M 415.315 30.534014 
L 452.515 30.534014 
" style="fill:none;stroke:#81b8df;"/>
   </g>
   <g id="LineCollection_10">
    <path clip-path="url(#p1064e8e187)" d="M 461.815 27.340849 
L 499.015 27.340849 
" style="fill:none;stroke:#81b8df;"/>
   </g>
   <g id="LineCollection_11">
    <path clip-path="url(#p1064e8e187)" d="M 508.315 26.57077 
L 545.515 26.57077 
" style="fill:none;stroke:#81b8df;"/>
   </g>
   <g id="LineCollection_12">
    <path clip-path="url(#p1064e8e187)" d="M 554.815 26.380443 
L 592.015 26.380443 
" style="fill:none;stroke:#81b8df;"/>
   </g>
   <g id="patch_3">
    <path d="M 38.665 284.4 
L 38.665 7.2 
" style="fill:none;stroke:#000000;stroke-linecap:square;stroke-linejoin:miter;stroke-width:0.8;"/>
   </g>
   <g id="patch_4">
    <path d="M 596.665 284.4 
L 596.665 7.2 
" style="fill:none;stroke:#000000;stroke-linecap:square;stroke-linejoin:miter;stroke-width:0.8;"/>
   </g>
   <g id="patch_5">
    <path d="M 38.665 284.4 
L 596.665 284.4 
" style="fill:none;stroke:#000000;stroke-linecap:square;stroke-linejoin:miter;stroke-width:0.8;"/>
   </g>
   <g id="patch_6">
    <path d="M 38.665 7.2 
L 596.665 7.2 
" style="fill:none;stroke:#000000;stroke-linecap:square;stroke-linejoin:miter;stroke-width:0.8;"/>
   </g>
   <g id="LineCollection_13">
    <path clip-path="url(#p1064e8e187)" d="M 50.29 265.282759 
L 73.54 265.282759 
" style="fill:none;stroke:#fe817d;"/>
   </g>
   <g id="LineCollection_14">
    <path clip-path="url(#p1064e8e187)" d="M 96.79 125.496892 
L 120.04 125.496892 
" style="fill:none;stroke:#fe817d;"/>
   </g>
   <g id="LineCollection_15">
    <path clip-path="url(#p1064e8e187)" d="M 422.29 30.534014 
L 445.54 30.534014 
" style="fill:none;stroke:#fe817d;"/>
   </g>
   <g id="LineCollection_16">
    <path clip-path="url(#p1064e8e187)" d="M 468.79 27.340849 
L 492.04 27.340849 
" style="fill:none;stroke:#fe817d;"/>
   </g>
   <g id="LineCollection_17">
    <path clip-path="url(#p1064e8e187)" d="M 515.29 26.57077 
L 538.54 26.57077 
" style="fill:none;stroke:#fe817d;"/>
   </g>
   <g id="LineCollection_18">
    <path clip-path="url(#p1064e8e187)" d="M 561.79 26.380443 
L 585.04 26.380443 
" style="fill:none;stroke:#fe817d;"/>
   </g>
   <g id="text_21">
    <!-- 1.0000 -->
    <g transform="translate(47.91875 258.839698)scale(0.08 -0.08)">
     <use xlink:href="#DejaVuSans-49"/>
     <use x="63.623047" xlink:href="#DejaVuSans-46"/>
     <use x="95.410156" xlink:href="#DejaVuSans-48"/>
     <use x="159.033203" xlink:href="#DejaVuSans-48"/>
     <use x="222.65625" xlink:href="#DejaVuSans-48"/>
     <use x="286.279297" xlink:href="#DejaVuSans-48"/>
    </g>
   </g>
   <g id="text_22">
    <!-- 1.5850 -->
    <g transform="translate(94.41875 119.053832)scale(0.08 -0.08)">
     <use xlink:href="#DejaVuSans-49"/>
     <use x="63.623047" xlink:href="#DejaVuSans-46"/>
     <use x="95.410156" xlink:href="#DejaVuSans-53"/>
     <use x="159.033203" xlink:href="#DejaVuSans-56"/>
     <use x="222.65625" xlink:href="#DejaVuSans-53"/>
     <use x="286.279297" xlink:href="#DejaVuSans-48"/>
    </g>
   </g>
   <g id="text_23">
    <!-- 1.6302 -->
    <g transform="translate(140.91875 108.233429)scale(0.08 -0.08)">
     <use xlink:href="#DejaVuSans-49"/>
     <use x="63.623047" xlink:href="#DejaVuSans-46"/>
     <use x="95.410156" xlink:href="#DejaVuSans-54"/>
     <use x="159.033203" xlink:href="#DejaVuSans-51"/>
     <use x="222.65625" xlink:href="#DejaVuSans-48"/>
     <use x="286.279297" xlink:href="#DejaVuSans-50"/>
    </g>
   </g>
   <g id="text_24">
    <!-- 1.6698 -->
    <g transform="translate(187.41875 98.791787)scale(0.08 -0.08)">
     <use xlink:href="#DejaVuSans-49"/>
     <use x="63.623047" xlink:href="#DejaVuSans-46"/>
     <use x="95.410156" xlink:href="#DejaVuSans-54"/>
     <use x="159.033203" xlink:href="#DejaVuSans-54"/>
     <use x="222.65625" xlink:href="#DejaVuSans-57"/>
     <use x="286.279297" xlink:href="#DejaVuSans-56"/>
    </g>
   </g>
   <g id="text_25">
    <!-- 1.7761 -->
    <g transform="translate(233.91875 73.382012)scale(0.08 -0.08)">
     <use xlink:href="#DejaVuSans-49"/>
     <use x="63.623047" xlink:href="#DejaVuSans-46"/>
     <use x="95.410156" xlink:href="#DejaVuSans-55"/>
     <use x="159.033203" xlink:href="#DejaVuSans-55"/>
     <use x="222.65625" xlink:href="#DejaVuSans-54"/>
     <use x="286.279297" xlink:href="#DejaVuSans-49"/>
    </g>
   </g>
   <g id="text_26">
    <!-- 1.7958 -->
    <g transform="translate(280.41875 68.672678)scale(0.08 -0.08)">
     <use xlink:href="#DejaVuSans-49"/>
     <use x="63.623047" xlink:href="#DejaVuSans-46"/>
     <use x="95.410156" xlink:href="#DejaVuSans-55"/>
     <use x="159.033203" xlink:href="#DejaVuSans-57"/>
     <use x="222.65625" xlink:href="#DejaVuSans-53"/>
     <use x="286.279297" xlink:href="#DejaVuSans-56"/>
    </g>
   </g>
   <g id="text_27">
    <!-- 1.8114 -->
    <g transform="translate(326.91875 64.94649)scale(0.08 -0.08)">
     <use xlink:href="#DejaVuSans-49"/>
     <use x="63.623047" xlink:href="#DejaVuSans-46"/>
     <use x="95.410156" xlink:href="#DejaVuSans-56"/>
     <use x="159.033203" xlink:href="#DejaVuSans-49"/>
     <use x="222.65625" xlink:href="#DejaVuSans-49"/>
     <use x="286.279297" xlink:href="#DejaVuSans-52"/>
    </g>
   </g>
   <g id="text_28">
    <!-- 1.8152 -->
    <g transform="translate(373.41875 64.028198)scale(0.08 -0.08)">
     <use xlink:href="#DejaVuSans-49"/>
     <use x="63.623047" xlink:href="#DejaVuSans-46"/>
     <use x="95.410156" xlink:href="#DejaVuSans-56"/>
     <use x="159.033203" xlink:href="#DejaVuSans-49"/>
     <use x="222.65625" xlink:href="#DejaVuSans-53"/>
     <use x="286.279297" xlink:href="#DejaVuSans-50"/>
    </g>
   </g>
   <g id="text_29">
    <!-- 1.9824 -->
    <g transform="translate(419.91875 24.090954)scale(0.08 -0.08)">
     <use xlink:href="#DejaVuSans-49"/>
     <use x="63.623047" xlink:href="#DejaVuSans-46"/>
     <use x="95.410156" xlink:href="#DejaVuSans-57"/>
     <use x="159.033203" xlink:href="#DejaVuSans-56"/>
     <use x="222.65625" xlink:href="#DejaVuSans-50"/>
     <use x="286.279297" xlink:href="#DejaVuSans-52"/>
    </g>
   </g>
   <g id="text_30">
    <!-- 1.9957 -->
    <g transform="translate(466.41875 20.897789)scale(0.08 -0.08)">
     <use xlink:href="#DejaVuSans-49"/>
     <use x="63.623047" xlink:href="#DejaVuSans-46"/>
     <use x="95.410156" xlink:href="#DejaVuSans-57"/>
     <use x="159.033203" xlink:href="#DejaVuSans-57"/>
     <use x="222.65625" xlink:href="#DejaVuSans-53"/>
     <use x="286.279297" xlink:href="#DejaVuSans-55"/>
    </g>
   </g>
   <g id="text_31">
    <!-- 1.9989 -->
    <g transform="translate(512.91875 20.12771)scale(0.08 -0.08)">
     <use xlink:href="#DejaVuSans-49"/>
     <use x="63.623047" xlink:href="#DejaVuSans-46"/>
     <use x="95.410156" xlink:href="#DejaVuSans-57"/>
     <use x="159.033203" xlink:href="#DejaVuSans-57"/>
     <use x="222.65625" xlink:href="#DejaVuSans-56"/>
     <use x="286.279297" xlink:href="#DejaVuSans-57"/>
    </g>
   </g>
   <g id="text_32">
    <!-- 1.9997 -->
    <g transform="translate(559.41875 19.937383)scale(0.08 -0.08)">
     <use xlink:href="#DejaVuSans-49"/>
     <use x="63.623047" xlink:href="#DejaVuSans-46"/>
     <use x="95.410156" xlink:href="#DejaVuSans-57"/>
     <use x="159.033203" xlink:href="#DejaVuSans-57"/>
     <use x="222.65625" xlink:href="#DejaVuSans-57"/>
     <use x="286.279297" xlink:href="#DejaVuSans-55"/>
    </g>
   </g>
   <g id="PathCollection_1">
    <defs>
     <path d="M 0 1.936492 
C 0.513564 1.936492 1.006162 1.732451 1.369306 1.369306 
C 1.732451 1.006162 1.936492 0.513564 1.936492 0 
C 1.936492 -0.513564 1.732451 -1.006162 1.369306 -1.369306 
C 1.006162 -1.732451 0.513564 -1.936492 0 -1.936492 
C -0.513564 -1.936492 -1.006162 -1.732451 -1.369306 -1.369306 
C -1.732451 -1.006162 -1.936492 -0.513564 -1.936492 0 
C -1.936492 0.513564 -1.732451 1.006162 -1.369306 1.369306 
C -1.006162 1.732451 -0.513564 1.936492 0 1.936492 
z
" id="mfebae036f6" style="stroke:#fe817d;"/>
    </defs>
    <g clip-path="url(#p1064e8e187)">
     <use style="fill:#ffffff;stroke:#fe817d;" x="61.915" xlink:href="#mfebae036f6" y="265.282759"/>
    </g>
   </g>
   <g id="PathCollection_2">
    <g clip-path="url(#p1064e8e187)">
     <use style="fill:#ffffff;stroke:#fe817d;" x="108.415" xlink:href="#mfebae036f6" y="125.496892"/>
    </g>
   </g>
   <g id="PathCollection_3">
    <g clip-path="url(#p1064e8e187)">
     <use style="fill:#ffffff;stroke:#fe817d;" x="154.915" xlink:href="#mfebae036f6" y="138.522048"/>
    </g>
   </g>
   <g id="PathCollection_4">
    <g clip-path="url(#p1064e8e187)">
     <use style="fill:#ffffff;stroke:#fe817d;" x="201.415" xlink:href="#mfebae036f6" y="118.508942"/>
    </g>
   </g>
   <g id="PathCollection_5">
    <g clip-path="url(#p1064e8e187)">
     <use style="fill:#ffffff;stroke:#fe817d;" x="247.915" xlink:href="#mfebae036f6" y="90.670018"/>
    </g>
   </g>
   <g id="PathCollection_6">
    <g clip-path="url(#p1064e8e187)">
     <use style="fill:#ffffff;stroke:#fe817d;" x="294.415" xlink:href="#mfebae036f6" y="88.221958"/>
    </g>
   </g>
   <g id="PathCollection_7">
    <g clip-path="url(#p1064e8e187)">
     <use style="fill:#ffffff;stroke:#fe817d;" x="340.915" xlink:href="#mfebae036f6" y="82.643623"/>
    </g>
   </g>
   <g id="PathCollection_8">
    <g clip-path="url(#p1064e8e187)">
     <use style="fill:#ffffff;stroke:#fe817d;" x="387.415" xlink:href="#mfebae036f6" y="82.494804"/>
    </g>
   </g>
   <g id="PathCollection_9">
    <g clip-path="url(#p1064e8e187)">
     <use style="fill:#ffffff;stroke:#fe817d;" x="433.915" xlink:href="#mfebae036f6" y="30.534014"/>
    </g>
   </g>
   <g id="PathCollection_10">
    <g clip-path="url(#p1064e8e187)">
     <use style="fill:#ffffff;stroke:#fe817d;" x="480.415" xlink:href="#mfebae036f6" y="27.340849"/>
    </g>
   </g>
   <g id="PathCollection_11">
    <g clip-path="url(#p1064e8e187)">
     <use style="fill:#ffffff;stroke:#fe817d;" x="526.915" xlink:href="#mfebae036f6" y="26.57077"/>
    </g>
   </g>
   <g id="PathCollection_12">
    <g clip-path="url(#p1064e8e187)">
     <use style="fill:#ffffff;stroke:#fe817d;" x="573.415" xlink:href="#mfebae036f6" y="26.380443"/>
    </g>
   </g>
  </g>
 </g>
 <defs>
  <clipPath id="p1064e8e187">
   <rect height="277.2" width="558" x="38.665" y="7.2"/>
  </clipPath>
 </defs>
</svg>
