<?xml version="1.0" encoding="utf-8" standalone="no"?>
<!DOCTYPE svg PUBLIC "-//W3C//DTD SVG 1.1//EN"
  "http://www.w3.org/Graphics/SVG/1.1/DTD/svg11.dtd">
<!-- Created with matplotlib (https://matplotlib.org/) -->
<svg height="484.405pt" version="1.1" viewBox="0 0 603.865 484.405" width="603.865pt" xmlns="http://www.w3.org/2000/svg" xmlns:xlink="http://www.w3.org/1999/xlink">
 <defs>
  <style type="text/css">
*{stroke-linecap:butt;stroke-linejoin:round;}
  </style>
 </defs>
 <g id="figure_1">
  <g id="patch_1">
   <path d="M 0 484.405 
L 603.865 484.405 
L 603.865 0 
L 0 0 
z
" style="fill:#ffffff;"/>
  </g>
  <g id="axes_1">
   <g id="patch_2">
    <path d="M 38.665 450.72 
L 596.665 450.72 
L 596.665 7.2 
L 38.665 7.2 
z
" style="fill:#ffffff;"/>
   </g>
   <g id="PolyCollection_1">
    <defs>
     <path d="M 85.165 -489.301 
L 85.165 -21.589 
L 131.665 -21.589 
L 131.665 -489.301 
L 131.665 -489.301 
L 85.165 -489.301 
z
" id="mbd38550569" style="stroke:#f1f1f1;"/>
    </defs>
    <g clip-path="url(#pf9c33e0f33)">
     <use style="fill:#f1f1f1;stroke:#f1f1f1;" x="0" xlink:href="#mbd38550569" y="484.405"/>
    </g>
   </g>
   <g id="PolyCollection_2">
    <defs>
     <path d="M 178.165 -489.301 
L 178.165 -21.589 
L 224.665 -21.589 
L 224.665 -489.301 
L 224.665 -489.301 
L 178.165 -489.301 
z
" id="mf5a5eedd19" style="stroke:#f1f1f1;"/>
    </defs>
    <g clip-path="url(#pf9c33e0f33)">
     <use style="fill:#f1f1f1;stroke:#f1f1f1;" x="0" xlink:href="#mf5a5eedd19" y="484.405"/>
    </g>
   </g>
   <g id="PolyCollection_3">
    <defs>
     <path d="M 271.165 -489.301 
L 271.165 -21.589 
L 317.665 -21.589 
L 317.665 -489.301 
L 317.665 -489.301 
L 271.165 -489.301 
z
" id="m481e0e0d04" style="stroke:#f1f1f1;"/>
    </defs>
    <g clip-path="url(#pf9c33e0f33)">
     <use style="fill:#f1f1f1;stroke:#f1f1f1;" x="0" xlink:href="#m481e0e0d04" y="484.405"/>
    </g>
   </g>
   <g id="PolyCollection_4">
    <defs>
     <path d="M 364.165 -489.301 
L 364.165 -21.589 
L 410.665 -21.589 
L 410.665 -489.301 
L 410.665 -489.301 
L 364.165 -489.301 
z
" id="m77f9e7baf0" style="stroke:#f1f1f1;"/>
    </defs>
    <g clip-path="url(#pf9c33e0f33)">
     <use style="fill:#f1f1f1;stroke:#f1f1f1;" x="0" xlink:href="#m77f9e7baf0" y="484.405"/>
    </g>
   </g>
   <g id="PolyCollection_5">
    <defs>
     <path d="M 457.165 -489.301 
L 457.165 -21.589 
L 503.665 -21.589 
L 503.665 -489.301 
L 503.665 -489.301 
L 457.165 -489.301 
z
" id="mb03a316bb6" style="stroke:#f1f1f1;"/>
    </defs>
    <g clip-path="url(#pf9c33e0f33)">
     <use style="fill:#f1f1f1;stroke:#f1f1f1;" x="0" xlink:href="#mb03a316bb6" y="484.405"/>
    </g>
   </g>
   <g id="PolyCollection_6">
    <defs>
     <path d="M 550.165 -489.301 
L 550.165 -21.589 
L 596.665 -21.589 
L 596.665 -489.301 
L 596.665 -489.301 
L 550.165 -489.301 
z
" id="m0d08ad4036" style="stroke:#f1f1f1;"/>
    </defs>
    <g clip-path="url(#pf9c33e0f33)">
     <use style="fill:#f1f1f1;stroke:#f1f1f1;" x="0" xlink:href="#m0d08ad4036" y="484.405"/>
    </g>
   </g>
   <g id="PolyCollection_7">
    <defs>
     <path d="M 155.250812 -248.155373 
L 154.579188 -248.155373 
L 154.546689 -248.454846 
L 154.511876 -248.754319 
L 154.474504 -249.053792 
L 154.434297 -249.353265 
L 154.39094 -249.652738 
L 154.344091 -249.952211 
L 154.293379 -250.251684 
L 154.238417 -250.551157 
L 154.178806 -250.850629 
L 154.114153 -251.150102 
L 154.044081 -251.449575 
L 153.968247 -251.749048 
L 153.886362 -252.048521 
L 153.798207 -252.347994 
L 153.703654 -252.647467 
L 153.60268 -252.94694 
L 153.495381 -253.246413 
L 153.38198 -253.545885 
L 153.262828 -253.845358 
L 153.138396 -254.144831 
L 153.009262 -254.444304 
L 152.876087 -254.743777 
L 152.739581 -255.04325 
L 152.600467 -255.342723 
L 152.459435 -255.642196 
L 152.317097 -255.941669 
L 152.17394 -256.241141 
L 152.030276 -256.540614 
L 151.886212 -256.840087 
L 151.741613 -257.13956 
L 151.596084 -257.439033 
L 151.448966 -257.738506 
L 151.29934 -258.037979 
L 151.146054 -258.337452 
L 150.987754 -258.636925 
L 150.822937 -258.936397 
L 150.650009 -259.23587 
L 150.467358 -259.535343 
L 150.273424 -259.834816 
L 150.066778 -260.134289 
L 149.846199 -260.433762 
L 149.61074 -260.733235 
L 149.359795 -261.032708 
L 149.093148 -261.332181 
L 148.811016 -261.631653 
L 148.514071 -261.931126 
L 148.203448 -262.230599 
L 147.880745 -262.530072 
L 147.547996 -262.829545 
L 147.207638 -263.129018 
L 146.862462 -263.428491 
L 146.515556 -263.727964 
L 146.170233 -264.027437 
L 145.829959 -264.326909 
L 145.498279 -264.626382 
L 145.178734 -264.925855 
L 144.874796 -265.225328 
L 144.589787 -265.524801 
L 144.326829 -265.824274 
L 144.088783 -266.123747 
L 143.878206 -266.42322 
L 143.697321 -266.722693 
L 143.547989 -267.022165 
L 143.431693 -267.321638 
L 143.349527 -267.621111 
L 143.302192 -267.920584 
L 143.29 -268.220057 
L 143.31287 -268.51953 
L 143.37034 -268.819003 
L 143.461577 -269.118476 
L 143.585388 -269.417949 
L 143.740243 -269.717421 
L 143.924305 -270.016894 
L 144.135458 -270.316367 
L 144.37136 -270.61584 
L 144.62949 -270.915313 
L 144.907208 -271.214786 
L 145.201829 -271.514259 
L 145.510682 -271.813732 
L 145.831183 -272.113205 
L 146.1609 -272.412677 
L 146.497599 -272.71215 
L 146.839289 -273.011623 
L 147.184249 -273.311096 
L 147.531024 -273.610569 
L 147.878427 -273.910042 
L 148.225498 -274.209515 
L 148.571472 -274.508988 
L 148.915719 -274.808461 
L 149.257686 -275.107933 
L 149.596841 -275.407406 
L 149.932615 -275.706879 
L 150.264354 -276.006352 
L 150.591287 -276.305825 
L 150.912511 -276.605298 
L 151.226983 -276.904771 
L 151.533538 -277.204244 
L 151.83092 -277.503717 
L 152.117818 -277.803189 
L 157.712182 -277.803189 
L 157.712182 -277.803189 
L 157.99908 -277.503717 
L 158.296462 -277.204244 
L 158.603017 -276.904771 
L 158.917489 -276.605298 
L 159.238713 -276.305825 
L 159.565646 -276.006352 
L 159.897385 -275.706879 
L 160.233159 -275.407406 
L 160.572314 -275.107933 
L 160.914281 -274.808461 
L 161.258528 -274.508988 
L 161.604502 -274.209515 
L 161.951573 -273.910042 
L 162.298976 -273.610569 
L 162.645751 -273.311096 
L 162.990711 -273.011623 
L 163.332401 -272.71215 
L 163.6691 -272.412677 
L 163.998817 -272.113205 
L 164.319318 -271.813732 
L 164.628171 -271.514259 
L 164.922792 -271.214786 
L 165.20051 -270.915313 
L 165.45864 -270.61584 
L 165.694542 -270.316367 
L 165.905695 -270.016894 
L 166.089757 -269.717421 
L 166.244612 -269.417949 
L 166.368423 -269.118476 
L 166.45966 -268.819003 
L 166.51713 -268.51953 
L 166.54 -268.220057 
L 166.527808 -267.920584 
L 166.480473 -267.621111 
L 166.398307 -267.321638 
L 166.282011 -267.022165 
L 166.132679 -266.722693 
L 165.951794 -266.42322 
L 165.741217 -266.123747 
L 165.503171 -265.824274 
L 165.240213 -265.524801 
L 164.955204 -265.225328 
L 164.651266 -264.925855 
L 164.331721 -264.626382 
L 164.000041 -264.326909 
L 163.659767 -264.027437 
L 163.314444 -263.727964 
L 162.967538 -263.428491 
L 162.622362 -263.129018 
L 162.282004 -262.829545 
L 161.949255 -262.530072 
L 161.626552 -262.230599 
L 161.315929 -261.931126 
L 161.018984 -261.631653 
L 160.736852 -261.332181 
L 160.470205 -261.032708 
L 160.21926 -260.733235 
L 159.983801 -260.433762 
L 159.763222 -260.134289 
L 159.556576 -259.834816 
L 159.362642 -259.535343 
L 159.179991 -259.23587 
L 159.007063 -258.936397 
L 158.842246 -258.636925 
L 158.683946 -258.337452 
L 158.53066 -258.037979 
L 158.381034 -257.738506 
L 158.233916 -257.439033 
L 158.088387 -257.13956 
L 157.943788 -256.840087 
L 157.799724 -256.540614 
L 157.65606 -256.241141 
L 157.512903 -255.941669 
L 157.370565 -255.642196 
L 157.229533 -255.342723 
L 157.090419 -255.04325 
L 156.953913 -254.743777 
L 156.820738 -254.444304 
L 156.691604 -254.144831 
L 156.567172 -253.845358 
L 156.44802 -253.545885 
L 156.334619 -253.246413 
L 156.22732 -252.94694 
L 156.126346 -252.647467 
L 156.031793 -252.347994 
L 155.943638 -252.048521 
L 155.861753 -251.749048 
L 155.785919 -251.449575 
L 155.715847 -251.150102 
L 155.651194 -250.850629 
L 155.591583 -250.551157 
L 155.536621 -250.251684 
L 155.485909 -249.952211 
L 155.43906 -249.652738 
L 155.395703 -249.353265 
L 155.355496 -249.053792 
L 155.318124 -248.754319 
L 155.283311 -248.454846 
L 155.250812 -248.155373 
z
" id="m99ffeb82dd" style="stroke:#fe817d;"/>
    </defs>
    <g clip-path="url(#pf9c33e0f33)">
     <use style="fill:#fcbbae;stroke:#fe817d;" x="0" xlink:href="#m99ffeb82dd" y="484.405"/>
    </g>
   </g>
   <g id="PolyCollection_8">
    <defs>
     <path d="M 201.609549 -282.125031 
L 201.220451 -282.125031 
L 201.204442 -282.430718 
L 201.187524 -282.736404 
L 201.169378 -283.04209 
L 201.149615 -283.347777 
L 201.127786 -283.653463 
L 201.103397 -283.95915 
L 201.075925 -284.264836 
L 201.044839 -284.570522 
L 201.009616 -284.876209 
L 200.969765 -285.181895 
L 200.92484 -285.487582 
L 200.874464 -285.793268 
L 200.818333 -286.098954 
L 200.756231 -286.404641 
L 200.688031 -286.710327 
L 200.613695 -287.016014 
L 200.533267 -287.3217 
L 200.446859 -287.627386 
L 200.35464 -287.933073 
L 200.256807 -288.238759 
L 200.153566 -288.544445 
L 200.045099 -288.850132 
L 199.931536 -289.155818 
L 199.812929 -289.461505 
L 199.689224 -289.767191 
L 199.560244 -290.072877 
L 199.425677 -290.378564 
L 199.28507 -290.68425 
L 199.137846 -290.989937 
L 198.983315 -291.295623 
L 198.82071 -291.601309 
L 198.649224 -291.906996 
L 198.468053 -292.212682 
L 198.276438 -292.518369 
L 198.073709 -292.824055 
L 197.859318 -293.129741 
L 197.632854 -293.435428 
L 197.394061 -293.741114 
L 197.142826 -294.0468 
L 196.879163 -294.352487 
L 196.603193 -294.658173 
L 196.315114 -294.96386 
L 196.015184 -295.269546 
L 195.703707 -295.575232 
L 195.381045 -295.880919 
L 195.047645 -296.186605 
L 194.704091 -296.492292 
L 194.351175 -296.797978 
L 193.989984 -297.103664 
L 193.62199 -297.409351 
L 193.249149 -297.715037 
L 192.87397 -298.020724 
L 192.499572 -298.32641 
L 192.129706 -298.632096 
L 191.768728 -298.937783 
L 191.42154 -299.243469 
L 191.093478 -299.549155 
L 190.790161 -299.854842 
L 190.517305 -300.160528 
L 190.280519 -300.466215 
L 190.085077 -300.771901 
L 189.935697 -301.077587 
L 189.836335 -301.383274 
L 189.79 -301.68896 
L 189.798609 -301.994647 
L 189.86289 -302.300333 
L 189.982337 -302.606019 
L 190.155219 -302.911706 
L 190.378647 -303.217392 
L 190.648694 -303.523078 
L 190.960554 -303.828765 
L 191.30874 -304.134451 
L 191.687304 -304.440138 
L 192.090062 -304.745824 
L 192.510824 -305.05151 
L 192.943598 -305.357197 
L 193.382775 -305.662883 
L 193.823274 -305.96857 
L 194.260651 -306.274256 
L 194.691162 -306.579942 
L 195.111785 -306.885629 
L 195.520205 -307.191315 
L 195.914765 -307.497002 
L 196.294389 -307.802688 
L 196.658492 -308.108374 
L 197.006876 -308.414061 
L 197.339628 -308.719747 
L 197.65702 -309.025433 
L 197.959428 -309.33112 
L 198.247251 -309.636806 
L 198.520869 -309.942493 
L 198.780596 -310.248179 
L 199.02667 -310.553865 
L 199.259245 -310.859552 
L 199.478403 -311.165238 
L 199.684171 -311.470925 
L 199.876547 -311.776611 
L 200.055528 -312.082297 
L 200.221135 -312.387984 
L 202.608865 -312.387984 
L 202.608865 -312.387984 
L 202.774472 -312.082297 
L 202.953453 -311.776611 
L 203.145829 -311.470925 
L 203.351597 -311.165238 
L 203.570755 -310.859552 
L 203.80333 -310.553865 
L 204.049404 -310.248179 
L 204.309131 -309.942493 
L 204.582749 -309.636806 
L 204.870572 -309.33112 
L 205.17298 -309.025433 
L 205.490372 -308.719747 
L 205.823124 -308.414061 
L 206.171508 -308.108374 
L 206.535611 -307.802688 
L 206.915235 -307.497002 
L 207.309795 -307.191315 
L 207.718215 -306.885629 
L 208.138838 -306.579942 
L 208.569349 -306.274256 
L 209.006726 -305.96857 
L 209.447225 -305.662883 
L 209.886402 -305.357197 
L 210.319176 -305.05151 
L 210.739938 -304.745824 
L 211.142696 -304.440138 
L 211.52126 -304.134451 
L 211.869446 -303.828765 
L 212.181306 -303.523078 
L 212.451353 -303.217392 
L 212.674781 -302.911706 
L 212.847663 -302.606019 
L 212.96711 -302.300333 
L 213.031391 -301.994647 
L 213.04 -301.68896 
L 212.993665 -301.383274 
L 212.894303 -301.077587 
L 212.744923 -300.771901 
L 212.549481 -300.466215 
L 212.312695 -300.160528 
L 212.039839 -299.854842 
L 211.736522 -299.549155 
L 211.40846 -299.243469 
L 211.061272 -298.937783 
L 210.700294 -298.632096 
L 210.330428 -298.32641 
L 209.95603 -298.020724 
L 209.580851 -297.715037 
L 209.20801 -297.409351 
L 208.840016 -297.103664 
L 208.478825 -296.797978 
L 208.125909 -296.492292 
L 207.782355 -296.186605 
L 207.448955 -295.880919 
L 207.126293 -295.575232 
L 206.814816 -295.269546 
L 206.514886 -294.96386 
L 206.226807 -294.658173 
L 205.950837 -294.352487 
L 205.687174 -294.0468 
L 205.435939 -293.741114 
L 205.197146 -293.435428 
L 204.970682 -293.129741 
L 204.756291 -292.824055 
L 204.553562 -292.518369 
L 204.361947 -292.212682 
L 204.180776 -291.906996 
L 204.00929 -291.601309 
L 203.846685 -291.295623 
L 203.692154 -290.989937 
L 203.54493 -290.68425 
L 203.404323 -290.378564 
L 203.269756 -290.072877 
L 203.140776 -289.767191 
L 203.017071 -289.461505 
L 202.898464 -289.155818 
L 202.784901 -288.850132 
L 202.676434 -288.544445 
L 202.573193 -288.238759 
L 202.47536 -287.933073 
L 202.383141 -287.627386 
L 202.296733 -287.3217 
L 202.216305 -287.016014 
L 202.141969 -286.710327 
L 202.073769 -286.404641 
L 202.011667 -286.098954 
L 201.955536 -285.793268 
L 201.90516 -285.487582 
L 201.860235 -285.181895 
L 201.820384 -284.876209 
L 201.785161 -284.570522 
L 201.754075 -284.264836 
L 201.726603 -283.95915 
L 201.702214 -283.653463 
L 201.680385 -283.347777 
L 201.660622 -283.04209 
L 201.642476 -282.736404 
L 201.625558 -282.430718 
L 201.609549 -282.125031 
z
" id="m52a56c1f2d" style="stroke:#fe817d;"/>
    </defs>
    <g clip-path="url(#pf9c33e0f33)">
     <use style="fill:#fcbbae;stroke:#fe817d;" x="0" xlink:href="#m52a56c1f2d" y="484.405"/>
    </g>
   </g>
   <g id="PolyCollection_9">
    <defs>
     <path d="M 248.111342 -330.119216 
L 247.718658 -330.119216 
L 247.696635 -330.379729 
L 247.672574 -330.640242 
L 247.646272 -330.900755 
L 247.617527 -331.161268 
L 247.586152 -331.421781 
L 247.551988 -331.682294 
L 247.514914 -331.942807 
L 247.474856 -332.20332 
L 247.431796 -332.463833 
L 247.385777 -332.724346 
L 247.336899 -332.984859 
L 247.285317 -333.245372 
L 247.231231 -333.505885 
L 247.174874 -333.766398 
L 247.116497 -334.026911 
L 247.056347 -334.287424 
L 246.994656 -334.547937 
L 246.931619 -334.80845 
L 246.867382 -335.068963 
L 246.80203 -335.329476 
L 246.735585 -335.589988 
L 246.667996 -335.850501 
L 246.599153 -336.111014 
L 246.528886 -336.371527 
L 246.456983 -336.63204 
L 246.383197 -336.892553 
L 246.307261 -337.153066 
L 246.228897 -337.413579 
L 246.147828 -337.674092 
L 246.063773 -337.934605 
L 245.976452 -338.195118 
L 245.885575 -338.455631 
L 245.79083 -338.716144 
L 245.691868 -338.976657 
L 245.588286 -339.23717 
L 245.479608 -339.497683 
L 245.365275 -339.758196 
L 245.244629 -340.018709 
L 245.116915 -340.279222 
L 244.981283 -340.539735 
L 244.836798 -340.800248 
L 244.682461 -341.060761 
L 244.517237 -341.321274 
L 244.340084 -341.581786 
L 244.14999 -341.842299 
L 243.946015 -342.102812 
L 243.727327 -342.363325 
L 243.493241 -342.623838 
L 243.243257 -342.884351 
L 242.977097 -343.144864 
L 242.694731 -343.405377 
L 242.396411 -343.66589 
L 242.082692 -343.926403 
L 241.754457 -344.186916 
L 241.412931 -344.447429 
L 241.059702 -344.707942 
L 240.696721 -344.968455 
L 240.326313 -345.228968 
L 239.951169 -345.489481 
L 239.574337 -345.749994 
L 239.199197 -346.010507 
L 238.82943 -346.27102 
L 238.468978 -346.531533 
L 238.121985 -346.792046 
L 237.792734 -347.052559 
L 237.485567 -347.313072 
L 237.204806 -347.573585 
L 236.954656 -347.834097 
L 236.73911 -348.09461 
L 236.561851 -348.355123 
L 236.426156 -348.615636 
L 236.334805 -348.876149 
L 236.29 -349.136662 
L 236.293295 -349.397175 
L 236.345541 -349.657688 
L 236.446857 -349.918201 
L 236.59661 -350.178714 
L 236.793426 -350.439227 
L 237.03522 -350.69974 
L 237.319248 -350.960253 
L 237.642177 -351.220766 
L 238.000171 -351.481279 
L 238.388993 -351.741792 
L 238.804108 -352.002305 
L 239.240798 -352.262818 
L 239.694265 -352.523331 
L 240.159741 -352.783844 
L 240.632576 -353.044357 
L 241.108322 -353.30487 
L 241.582796 -353.565383 
L 242.052137 -353.825895 
L 242.512834 -354.086408 
L 242.961756 -354.346921 
L 243.396155 -354.607434 
L 243.813671 -354.867947 
L 244.212318 -355.12846 
L 244.590479 -355.388973 
L 244.946883 -355.649486 
L 245.280593 -355.909999 
L 250.549407 -355.909999 
L 250.549407 -355.909999 
L 250.883117 -355.649486 
L 251.239521 -355.388973 
L 251.617682 -355.12846 
L 252.016329 -354.867947 
L 252.433845 -354.607434 
L 252.868244 -354.346921 
L 253.317166 -354.086408 
L 253.777863 -353.825895 
L 254.247204 -353.565383 
L 254.721678 -353.30487 
L 255.197424 -353.044357 
L 255.670259 -352.783844 
L 256.135735 -352.523331 
L 256.589202 -352.262818 
L 257.025892 -352.002305 
L 257.441007 -351.741792 
L 257.829829 -351.481279 
L 258.187823 -351.220766 
L 258.510752 -350.960253 
L 258.79478 -350.69974 
L 259.036574 -350.439227 
L 259.23339 -350.178714 
L 259.383143 -349.918201 
L 259.484459 -349.657688 
L 259.536705 -349.397175 
L 259.54 -349.136662 
L 259.495195 -348.876149 
L 259.403844 -348.615636 
L 259.268149 -348.355123 
L 259.09089 -348.09461 
L 258.875344 -347.834097 
L 258.625194 -347.573585 
L 258.344433 -347.313072 
L 258.037266 -347.052559 
L 257.708015 -346.792046 
L 257.361022 -346.531533 
L 257.00057 -346.27102 
L 256.630803 -346.010507 
L 256.255663 -345.749994 
L 255.878831 -345.489481 
L 255.503687 -345.228968 
L 255.133279 -344.968455 
L 254.770298 -344.707942 
L 254.417069 -344.447429 
L 254.075543 -344.186916 
L 253.747308 -343.926403 
L 253.433589 -343.66589 
L 253.135269 -343.405377 
L 252.852903 -343.144864 
L 252.586743 -342.884351 
L 252.336759 -342.623838 
L 252.102673 -342.363325 
L 251.883985 -342.102812 
L 251.68001 -341.842299 
L 251.489916 -341.581786 
L 251.312763 -341.321274 
L 251.147539 -341.060761 
L 250.993202 -340.800248 
L 250.848717 -340.539735 
L 250.713085 -340.279222 
L 250.585371 -340.018709 
L 250.464725 -339.758196 
L 250.350392 -339.497683 
L 250.241714 -339.23717 
L 250.138132 -338.976657 
L 250.03917 -338.716144 
L 249.944425 -338.455631 
L 249.853548 -338.195118 
L 249.766227 -337.934605 
L 249.682172 -337.674092 
L 249.601103 -337.413579 
L 249.522739 -337.153066 
L 249.446803 -336.892553 
L 249.373017 -336.63204 
L 249.301114 -336.371527 
L 249.230847 -336.111014 
L 249.162004 -335.850501 
L 249.094415 -335.589988 
L 249.02797 -335.329476 
L 248.962618 -335.068963 
L 248.898381 -334.80845 
L 248.835344 -334.547937 
L 248.773653 -334.287424 
L 248.713503 -334.026911 
L 248.655126 -333.766398 
L 248.598769 -333.505885 
L 248.544683 -333.245372 
L 248.493101 -332.984859 
L 248.444223 -332.724346 
L 248.398204 -332.463833 
L 248.355144 -332.20332 
L 248.315086 -331.942807 
L 248.278012 -331.682294 
L 248.243848 -331.421781 
L 248.212473 -331.161268 
L 248.183728 -330.900755 
L 248.157426 -330.640242 
L 248.133365 -330.379729 
L 248.111342 -330.119216 
z
" id="m31cfc4e4ac" style="stroke:#fe817d;"/>
    </defs>
    <g clip-path="url(#pf9c33e0f33)">
     <use style="fill:#fcbbae;stroke:#fe817d;" x="0" xlink:href="#m31cfc4e4ac" y="484.405"/>
    </g>
   </g>
   <g id="PolyCollection_10">
    <defs>
     <path d="M 294.527883 -323.879263 
L 294.302117 -323.879263 
L 294.288579 -324.253 
L 294.27396 -324.626738 
L 294.258238 -325.000475 
L 294.241406 -325.374213 
L 294.223483 -325.74795 
L 294.204509 -326.121688 
L 294.184551 -326.495426 
L 294.163701 -326.869163 
L 294.142067 -327.242901 
L 294.11977 -327.616638 
L 294.096926 -327.990376 
L 294.073636 -328.364113 
L 294.049965 -328.737851 
L 294.025923 -329.111588 
L 294.001447 -329.485326 
L 293.976383 -329.859063 
L 293.950469 -330.232801 
L 293.923329 -330.606538 
L 293.89447 -330.980276 
L 293.863283 -331.354013 
L 293.829059 -331.727751 
L 293.791009 -332.101489 
L 293.748293 -332.475226 
L 293.700057 -332.848964 
L 293.645468 -333.222701 
L 293.583762 -333.596439 
L 293.514281 -333.970176 
L 293.436515 -334.343914 
L 293.350132 -334.717651 
L 293.255006 -335.091389 
L 293.15123 -335.465126 
L 293.039119 -335.838864 
L 292.9192 -336.212601 
L 292.792194 -336.586339 
L 292.658979 -336.960077 
L 292.520547 -337.333814 
L 292.377952 -337.707552 
L 292.232255 -338.081289 
L 292.08446 -338.455027 
L 291.935458 -338.828764 
L 291.78597 -339.202502 
L 291.636505 -339.576239 
L 291.487321 -339.949977 
L 291.338411 -340.323714 
L 291.189496 -340.697452 
L 291.040037 -341.071189 
L 290.889273 -341.444927 
L 290.736256 -341.818664 
L 290.579909 -342.192402 
L 290.419088 -342.56614 
L 290.252635 -342.939877 
L 290.07944 -343.313615 
L 289.898477 -343.687352 
L 289.708833 -344.06109 
L 289.509724 -344.434827 
L 289.300485 -344.808565 
L 289.080559 -345.182302 
L 288.849467 -345.55604 
L 288.606789 -345.929777 
L 288.352148 -346.303515 
L 288.085211 -346.677252 
L 287.805716 -347.05099 
L 287.513521 -347.424727 
L 287.208688 -347.798465 
L 286.891587 -348.172203 
L 286.563015 -348.54594 
L 286.224322 -348.919678 
L 285.877535 -349.293415 
L 285.525446 -349.667153 
L 285.171677 -350.04089 
L 284.820689 -350.414628 
L 284.477734 -350.788365 
L 284.148757 -351.162103 
L 283.840231 -351.53584 
L 283.558952 -351.909578 
L 283.311795 -352.283315 
L 283.105452 -352.657053 
L 282.946165 -353.03079 
L 282.839474 -353.404528 
L 282.79 -353.778266 
L 282.801259 -354.152003 
L 282.875536 -354.525741 
L 283.0138 -354.899478 
L 283.215687 -355.273216 
L 283.47951 -355.646953 
L 283.802332 -356.020691 
L 284.180055 -356.394428 
L 284.607553 -356.768166 
L 285.078814 -357.141903 
L 285.587101 -357.515641 
L 286.125129 -357.889378 
L 286.685243 -358.263116 
L 287.259607 -358.636853 
L 287.84039 -359.010591 
L 288.419957 -359.384329 
L 288.991047 -359.758066 
L 289.546946 -360.131804 
L 290.081632 -360.505541 
L 290.589908 -360.879279 
L 298.240092 -360.879279 
L 298.240092 -360.879279 
L 298.748368 -360.505541 
L 299.283054 -360.131804 
L 299.838953 -359.758066 
L 300.410043 -359.384329 
L 300.98961 -359.010591 
L 301.570393 -358.636853 
L 302.144757 -358.263116 
L 302.704871 -357.889378 
L 303.242899 -357.515641 
L 303.751186 -357.141903 
L 304.222447 -356.768166 
L 304.649945 -356.394428 
L 305.027668 -356.020691 
L 305.35049 -355.646953 
L 305.614313 -355.273216 
L 305.8162 -354.899478 
L 305.954464 -354.525741 
L 306.028741 -354.152003 
L 306.04 -353.778266 
L 305.990526 -353.404528 
L 305.883835 -353.03079 
L 305.724548 -352.657053 
L 305.518205 -352.283315 
L 305.271048 -351.909578 
L 304.989769 -351.53584 
L 304.681243 -351.162103 
L 304.352266 -350.788365 
L 304.009311 -350.414628 
L 303.658323 -350.04089 
L 303.304554 -349.667153 
L 302.952465 -349.293415 
L 302.605678 -348.919678 
L 302.266985 -348.54594 
L 301.938413 -348.172203 
L 301.621312 -347.798465 
L 301.316479 -347.424727 
L 301.024284 -347.05099 
L 300.744789 -346.677252 
L 300.477852 -346.303515 
L 300.223211 -345.929777 
L 299.980533 -345.55604 
L 299.749441 -345.182302 
L 299.529515 -344.808565 
L 299.320276 -344.434827 
L 299.121167 -344.06109 
L 298.931523 -343.687352 
L 298.75056 -343.313615 
L 298.577365 -342.939877 
L 298.410912 -342.56614 
L 298.250091 -342.192402 
L 298.093744 -341.818664 
L 297.940727 -341.444927 
L 297.789963 -341.071189 
L 297.640504 -340.697452 
L 297.491589 -340.323714 
L 297.342679 -339.949977 
L 297.193495 -339.576239 
L 297.04403 -339.202502 
L 296.894542 -338.828764 
L 296.74554 -338.455027 
L 296.597745 -338.081289 
L 296.452048 -337.707552 
L 296.309453 -337.333814 
L 296.171021 -336.960077 
L 296.037806 -336.586339 
L 295.9108 -336.212601 
L 295.790881 -335.838864 
L 295.67877 -335.465126 
L 295.574994 -335.091389 
L 295.479868 -334.717651 
L 295.393485 -334.343914 
L 295.315719 -333.970176 
L 295.246238 -333.596439 
L 295.184532 -333.222701 
L 295.129943 -332.848964 
L 295.081707 -332.475226 
L 295.038991 -332.101489 
L 295.000941 -331.727751 
L 294.966717 -331.354013 
L 294.93553 -330.980276 
L 294.906671 -330.606538 
L 294.879531 -330.232801 
L 294.853617 -329.859063 
L 294.828553 -329.485326 
L 294.804077 -329.111588 
L 294.780035 -328.737851 
L 294.756364 -328.364113 
L 294.733074 -327.990376 
L 294.71023 -327.616638 
L 294.687933 -327.242901 
L 294.666299 -326.869163 
L 294.645449 -326.495426 
L 294.625491 -326.121688 
L 294.606517 -325.74795 
L 294.588594 -325.374213 
L 294.571762 -325.000475 
L 294.55604 -324.626738 
L 294.541421 -324.253 
L 294.527883 -323.879263 
z
" id="mcf502e0411" style="stroke:#fe817d;"/>
    </defs>
    <g clip-path="url(#pf9c33e0f33)">
     <use style="fill:#fcbbae;stroke:#fe817d;" x="0" xlink:href="#mcf502e0411" y="484.405"/>
    </g>
   </g>
   <g id="PolyCollection_11">
    <defs>
     <path d="M 341.019678 -336.00961 
L 340.810322 -336.00961 
L 340.793803 -336.352975 
L 340.775406 -336.696339 
L 340.755121 -337.039704 
L 340.732998 -337.383069 
L 340.709155 -337.726433 
L 340.683782 -338.069798 
L 340.657135 -338.413163 
L 340.629529 -338.756528 
L 340.601327 -339.099892 
L 340.572916 -339.443257 
L 340.544687 -339.786622 
L 340.517006 -340.129986 
L 340.490188 -340.473351 
L 340.46447 -340.816716 
L 340.43999 -341.160081 
L 340.416763 -341.503445 
L 340.394681 -341.84681 
L 340.373496 -342.190175 
L 340.352834 -342.533539 
L 340.332202 -342.876904 
L 340.311003 -343.220269 
L 340.288565 -343.563634 
L 340.264161 -343.906998 
L 340.23704 -344.250363 
L 340.20645 -344.593728 
L 340.171667 -344.937092 
L 340.132015 -345.280457 
L 340.086884 -345.623822 
L 340.035742 -345.967187 
L 339.978149 -346.310551 
L 339.913759 -346.653916 
L 339.842328 -346.997281 
L 339.763708 -347.340645 
L 339.677851 -347.68401 
L 339.584798 -348.027375 
L 339.484676 -348.37074 
L 339.377683 -348.714104 
L 339.264073 -349.057469 
L 339.144132 -349.400834 
L 339.018155 -349.744198 
L 338.886415 -350.087563 
L 338.749132 -350.430928 
L 338.606436 -350.774292 
L 338.458342 -351.117657 
L 338.304723 -351.461022 
L 338.145293 -351.804387 
L 337.979605 -352.147751 
L 337.807056 -352.491116 
L 337.626911 -352.834481 
L 337.438335 -353.177845 
L 337.240437 -353.52121 
L 337.03232 -353.864575 
L 336.813132 -354.20794 
L 336.582121 -354.551304 
L 336.338674 -354.894669 
L 336.082354 -355.238034 
L 335.812923 -355.581398 
L 335.530353 -355.924763 
L 335.234827 -356.268128 
L 334.926737 -356.611493 
L 334.606672 -356.954857 
L 334.275417 -357.298222 
L 333.933959 -357.641587 
L 333.583504 -357.984951 
L 333.22551 -358.328316 
L 332.861742 -358.671681 
L 332.494334 -359.015046 
L 332.125863 -359.35841 
L 331.759424 -359.701775 
L 331.398692 -360.04514 
L 331.047968 -360.388504 
L 330.712186 -360.731869 
L 330.396883 -361.075234 
L 330.108119 -361.418599 
L 329.85234 -361.761963 
L 329.636197 -362.105328 
L 329.466308 -362.448693 
L 329.348996 -362.792057 
L 329.29 -363.135422 
L 329.294178 -363.478787 
L 329.365234 -363.822152 
L 329.505477 -364.165516 
L 329.71563 -364.508881 
L 329.994709 -364.852246 
L 330.339983 -365.19561 
L 330.747011 -365.538975 
L 331.209771 -365.88234 
L 331.720855 -366.225704 
L 332.27174 -366.569069 
L 332.853097 -366.912434 
L 333.45514 -367.255799 
L 334.067975 -367.599163 
L 334.681946 -367.942528 
L 335.287948 -368.285893 
L 335.877694 -368.629257 
L 336.443933 -368.972622 
L 336.980598 -369.315987 
L 337.482896 -369.659352 
L 337.947334 -370.002716 
L 343.882666 -370.002716 
L 343.882666 -370.002716 
L 344.347104 -369.659352 
L 344.849402 -369.315987 
L 345.386067 -368.972622 
L 345.952306 -368.629257 
L 346.542052 -368.285893 
L 347.148054 -367.942528 
L 347.762025 -367.599163 
L 348.37486 -367.255799 
L 348.976903 -366.912434 
L 349.55826 -366.569069 
L 350.109145 -366.225704 
L 350.620229 -365.88234 
L 351.082989 -365.538975 
L 351.490017 -365.19561 
L 351.835291 -364.852246 
L 352.11437 -364.508881 
L 352.324523 -364.165516 
L 352.464766 -363.822152 
L 352.535822 -363.478787 
L 352.54 -363.135422 
L 352.481004 -362.792057 
L 352.363692 -362.448693 
L 352.193803 -362.105328 
L 351.97766 -361.761963 
L 351.721881 -361.418599 
L 351.433117 -361.075234 
L 351.117814 -360.731869 
L 350.782032 -360.388504 
L 350.431308 -360.04514 
L 350.070576 -359.701775 
L 349.704137 -359.35841 
L 349.335666 -359.015046 
L 348.968258 -358.671681 
L 348.60449 -358.328316 
L 348.246496 -357.984951 
L 347.896041 -357.641587 
L 347.554583 -357.298222 
L 347.223328 -356.954857 
L 346.903263 -356.611493 
L 346.595173 -356.268128 
L 346.299647 -355.924763 
L 346.017077 -355.581398 
L 345.747646 -355.238034 
L 345.491326 -354.894669 
L 345.247879 -354.551304 
L 345.016868 -354.20794 
L 344.79768 -353.864575 
L 344.589563 -353.52121 
L 344.391665 -353.177845 
L 344.203089 -352.834481 
L 344.022944 -352.491116 
L 343.850395 -352.147751 
L 343.684707 -351.804387 
L 343.525277 -351.461022 
L 343.371658 -351.117657 
L 343.223564 -350.774292 
L 343.080868 -350.430928 
L 342.943585 -350.087563 
L 342.811845 -349.744198 
L 342.685868 -349.400834 
L 342.565927 -349.057469 
L 342.452317 -348.714104 
L 342.345324 -348.37074 
L 342.245202 -348.027375 
L 342.152149 -347.68401 
L 342.066292 -347.340645 
L 341.987672 -346.997281 
L 341.916241 -346.653916 
L 341.851851 -346.310551 
L 341.794258 -345.967187 
L 341.743116 -345.623822 
L 341.697985 -345.280457 
L 341.658333 -344.937092 
L 341.62355 -344.593728 
L 341.59296 -344.250363 
L 341.565839 -343.906998 
L 341.541435 -343.563634 
L 341.518997 -343.220269 
L 341.497798 -342.876904 
L 341.477166 -342.533539 
L 341.456504 -342.190175 
L 341.435319 -341.84681 
L 341.413237 -341.503445 
L 341.39001 -341.160081 
L 341.36553 -340.816716 
L 341.339812 -340.473351 
L 341.312994 -340.129986 
L 341.285313 -339.786622 
L 341.257084 -339.443257 
L 341.228673 -339.099892 
L 341.200471 -338.756528 
L 341.172865 -338.413163 
L 341.146218 -338.069798 
L 341.120845 -337.726433 
L 341.097002 -337.383069 
L 341.074879 -337.039704 
L 341.054594 -336.696339 
L 341.036197 -336.352975 
L 341.019678 -336.00961 
z
" id="mceee7103fb" style="stroke:#fe817d;"/>
    </defs>
    <g clip-path="url(#pf9c33e0f33)">
     <use style="fill:#fcbbae;stroke:#fe817d;" x="0" xlink:href="#mceee7103fb" y="484.405"/>
    </g>
   </g>
   <g id="PolyCollection_12">
    <defs>
     <path d="M 387.444069 -328.405968 
L 387.385931 -328.405968 
L 387.38558 -328.805454 
L 387.385549 -329.20494 
L 387.385738 -329.604426 
L 387.386014 -330.003912 
L 387.386219 -330.403398 
L 387.38618 -330.802885 
L 387.38572 -331.202371 
L 387.384667 -331.601857 
L 387.382863 -332.001343 
L 387.380173 -332.400829 
L 387.376486 -332.800315 
L 387.371716 -333.199801 
L 387.365808 -333.599287 
L 387.358723 -333.998773 
L 387.350446 -334.398259 
L 387.340973 -334.797745 
L 387.33031 -335.197231 
L 387.318467 -335.596717 
L 387.305457 -335.996203 
L 387.29129 -336.395689 
L 387.27597 -336.795175 
L 387.259498 -337.194661 
L 387.241864 -337.594147 
L 387.223047 -337.993633 
L 387.203012 -338.393119 
L 387.181708 -338.792606 
L 387.159062 -339.192092 
L 387.134977 -339.591578 
L 387.109331 -339.991064 
L 387.081975 -340.39055 
L 387.05273 -340.790036 
L 387.021389 -341.189522 
L 386.987719 -341.589008 
L 386.951456 -341.988494 
L 386.912314 -342.38798 
L 386.86999 -342.787466 
L 386.824169 -343.186952 
L 386.774546 -343.586438 
L 386.720843 -343.985924 
L 386.662838 -344.38541 
L 386.600403 -344.784896 
L 386.533529 -345.184382 
L 386.462366 -345.583868 
L 386.387228 -345.983354 
L 386.308605 -346.38284 
L 386.227129 -346.782327 
L 386.14353 -347.181813 
L 386.058558 -347.581299 
L 385.972892 -347.980785 
L 385.88703 -348.380271 
L 385.801187 -348.779757 
L 385.715199 -349.179243 
L 385.628452 -349.578729 
L 385.53985 -349.978215 
L 385.447813 -350.377701 
L 385.350326 -350.777187 
L 385.24502 -351.176673 
L 385.129285 -351.576159 
L 385.000409 -351.975645 
L 384.855726 -352.375131 
L 384.692757 -352.774617 
L 384.509343 -353.174103 
L 384.303739 -353.573589 
L 384.074688 -353.973075 
L 383.821445 -354.372561 
L 383.543763 -354.772048 
L 383.241842 -355.171534 
L 382.916257 -355.57102 
L 382.567867 -355.970506 
L 382.197729 -356.369992 
L 381.807039 -356.769478 
L 381.397106 -357.168964 
L 380.96939 -357.56845 
L 380.525601 -357.967936 
L 380.067872 -358.367422 
L 379.598991 -358.766908 
L 379.122679 -359.166394 
L 378.64388 -359.56588 
L 378.169029 -359.965366 
L 377.706243 -360.364852 
L 377.265395 -360.764338 
L 376.85802 -361.163824 
L 376.497025 -361.56331 
L 376.196196 -361.962796 
L 375.969493 -362.362282 
L 375.830206 -362.761769 
L 375.79 -363.161255 
L 375.857963 -363.560741 
L 376.039737 -363.960227 
L 376.336832 -364.359713 
L 376.746212 -364.759199 
L 377.260198 -365.158685 
L 377.866732 -365.558171 
L 378.549974 -365.957657 
L 379.291183 -366.357143 
L 380.069819 -366.756629 
L 380.864741 -367.156115 
L 381.655411 -367.555601 
L 382.422987 -367.955087 
L 392.407013 -367.955087 
L 392.407013 -367.955087 
L 393.174589 -367.555601 
L 393.965259 -367.156115 
L 394.760181 -366.756629 
L 395.538817 -366.357143 
L 396.280026 -365.957657 
L 396.963268 -365.558171 
L 397.569802 -365.158685 
L 398.083788 -364.759199 
L 398.493168 -364.359713 
L 398.790263 -363.960227 
L 398.972037 -363.560741 
L 399.04 -363.161255 
L 398.999794 -362.761769 
L 398.860507 -362.362282 
L 398.633804 -361.962796 
L 398.332975 -361.56331 
L 397.97198 -361.163824 
L 397.564605 -360.764338 
L 397.123757 -360.364852 
L 396.660971 -359.965366 
L 396.18612 -359.56588 
L 395.707321 -359.166394 
L 395.231009 -358.766908 
L 394.762128 -358.367422 
L 394.304399 -357.967936 
L 393.86061 -357.56845 
L 393.432894 -357.168964 
L 393.022961 -356.769478 
L 392.632271 -356.369992 
L 392.262133 -355.970506 
L 391.913743 -355.57102 
L 391.588158 -355.171534 
L 391.286237 -354.772048 
L 391.008555 -354.372561 
L 390.755312 -353.973075 
L 390.526261 -353.573589 
L 390.320657 -353.174103 
L 390.137243 -352.774617 
L 389.974274 -352.375131 
L 389.829591 -351.975645 
L 389.700715 -351.576159 
L 389.58498 -351.176673 
L 389.479674 -350.777187 
L 389.382187 -350.377701 
L 389.29015 -349.978215 
L 389.201548 -349.578729 
L 389.114801 -349.179243 
L 389.028813 -348.779757 
L 388.94297 -348.380271 
L 388.857108 -347.980785 
L 388.771442 -347.581299 
L 388.68647 -347.181813 
L 388.602871 -346.782327 
L 388.521395 -346.38284 
L 388.442772 -345.983354 
L 388.367634 -345.583868 
L 388.296471 -345.184382 
L 388.229597 -344.784896 
L 388.167162 -344.38541 
L 388.109157 -343.985924 
L 388.055454 -343.586438 
L 388.005831 -343.186952 
L 387.96001 -342.787466 
L 387.917686 -342.38798 
L 387.878544 -341.988494 
L 387.842281 -341.589008 
L 387.808611 -341.189522 
L 387.77727 -340.790036 
L 387.748025 -340.39055 
L 387.720669 -339.991064 
L 387.695023 -339.591578 
L 387.670938 -339.192092 
L 387.648292 -338.792606 
L 387.626988 -338.393119 
L 387.606953 -337.993633 
L 387.588136 -337.594147 
L 387.570502 -337.194661 
L 387.55403 -336.795175 
L 387.53871 -336.395689 
L 387.524543 -335.996203 
L 387.511533 -335.596717 
L 387.49969 -335.197231 
L 387.489027 -334.797745 
L 387.479554 -334.398259 
L 387.471277 -333.998773 
L 387.464192 -333.599287 
L 387.458284 -333.199801 
L 387.453514 -332.800315 
L 387.449827 -332.400829 
L 387.447137 -332.001343 
L 387.445333 -331.601857 
L 387.44428 -331.202371 
L 387.44382 -330.802885 
L 387.443781 -330.403398 
L 387.443986 -330.003912 
L 387.444262 -329.604426 
L 387.444451 -329.20494 
L 387.44442 -328.805454 
L 387.444069 -328.405968 
z
" id="me50abd2603" style="stroke:#fe817d;"/>
    </defs>
    <g clip-path="url(#pf9c33e0f33)">
     <use style="fill:#fcbbae;stroke:#fe817d;" x="0" xlink:href="#me50abd2603" y="484.405"/>
    </g>
   </g>
   <g id="matplotlib.axis_1">
    <g id="xtick_1">
     <g id="line2d_1">
      <defs>
       <path d="M 0 0 
L 0 3.5 
" id="ma31d88f83b" style="stroke:#000000;stroke-width:0.8;"/>
      </defs>
      <g>
       <use style="stroke:#000000;stroke-width:0.8;" x="61.915" xlink:href="#ma31d88f83b" y="450.72"/>
      </g>
     </g>
     <g id="text_1">
      <!-- 01 -->
      <defs>
       <path d="M 31.78125 66.40625 
Q 24.171875 66.40625 20.328125 58.90625 
Q 16.5 51.421875 16.5 36.375 
Q 16.5 21.390625 20.328125 13.890625 
Q 24.171875 6.390625 31.78125 6.390625 
Q 39.453125 6.390625 43.28125 13.890625 
Q 47.125 21.390625 47.125 36.375 
Q 47.125 51.421875 43.28125 58.90625 
Q 39.453125 66.40625 31.78125 66.40625 
z
M 31.78125 74.21875 
Q 44.046875 74.21875 50.515625 64.515625 
Q 56.984375 54.828125 56.984375 36.375 
Q 56.984375 17.96875 50.515625 8.265625 
Q 44.046875 -1.421875 31.78125 -1.421875 
Q 19.53125 -1.421875 13.0625 8.265625 
Q 6.59375 17.96875 6.59375 36.375 
Q 6.59375 54.828125 13.0625 64.515625 
Q 19.53125 74.21875 31.78125 74.21875 
z
" id="DejaVuSans-48"/>
       <path d="M 12.40625 8.296875 
L 28.515625 8.296875 
L 28.515625 63.921875 
L 10.984375 60.40625 
L 10.984375 69.390625 
L 28.421875 72.90625 
L 38.28125 72.90625 
L 38.28125 8.296875 
L 54.390625 8.296875 
L 54.390625 0 
L 12.40625 0 
z
" id="DejaVuSans-49"/>
      </defs>
      <g transform="translate(56.825 463.79875)scale(0.08 -0.08)">
       <use xlink:href="#DejaVuSans-48"/>
       <use x="63.623047" xlink:href="#DejaVuSans-49"/>
      </g>
     </g>
    </g>
    <g id="xtick_2">
     <g id="line2d_2">
      <g>
       <use style="stroke:#000000;stroke-width:0.8;" x="108.415" xlink:href="#ma31d88f83b" y="450.72"/>
      </g>
     </g>
     <g id="text_2">
      <!-- 02 -->
      <defs>
       <path d="M 19.1875 8.296875 
L 53.609375 8.296875 
L 53.609375 0 
L 7.328125 0 
L 7.328125 8.296875 
Q 12.9375 14.109375 22.625 23.890625 
Q 32.328125 33.6875 34.8125 36.53125 
Q 39.546875 41.84375 41.421875 45.53125 
Q 43.3125 49.21875 43.3125 52.78125 
Q 43.3125 58.59375 39.234375 62.25 
Q 35.15625 65.921875 28.609375 65.921875 
Q 23.96875 65.921875 18.8125 64.3125 
Q 13.671875 62.703125 7.8125 59.421875 
L 7.8125 69.390625 
Q 13.765625 71.78125 18.9375 73 
Q 24.125 74.21875 28.421875 74.21875 
Q 39.75 74.21875 46.484375 68.546875 
Q 53.21875 62.890625 53.21875 53.421875 
Q 53.21875 48.921875 51.53125 44.890625 
Q 49.859375 40.875 45.40625 35.40625 
Q 44.1875 33.984375 37.640625 27.21875 
Q 31.109375 20.453125 19.1875 8.296875 
z
" id="DejaVuSans-50"/>
      </defs>
      <g transform="translate(103.325 463.79875)scale(0.08 -0.08)">
       <use xlink:href="#DejaVuSans-48"/>
       <use x="63.623047" xlink:href="#DejaVuSans-50"/>
      </g>
     </g>
    </g>
    <g id="xtick_3">
     <g id="line2d_3">
      <g>
       <use style="stroke:#000000;stroke-width:0.8;" x="154.915" xlink:href="#ma31d88f83b" y="450.72"/>
      </g>
     </g>
     <g id="text_3">
      <!-- 03 -->
      <defs>
       <path d="M 40.578125 39.3125 
Q 47.65625 37.796875 51.625 33 
Q 55.609375 28.21875 55.609375 21.1875 
Q 55.609375 10.40625 48.1875 4.484375 
Q 40.765625 -1.421875 27.09375 -1.421875 
Q 22.515625 -1.421875 17.65625 -0.515625 
Q 12.796875 0.390625 7.625 2.203125 
L 7.625 11.71875 
Q 11.71875 9.328125 16.59375 8.109375 
Q 21.484375 6.890625 26.8125 6.890625 
Q 36.078125 6.890625 40.9375 10.546875 
Q 45.796875 14.203125 45.796875 21.1875 
Q 45.796875 27.640625 41.28125 31.265625 
Q 36.765625 34.90625 28.71875 34.90625 
L 20.21875 34.90625 
L 20.21875 43.015625 
L 29.109375 43.015625 
Q 36.375 43.015625 40.234375 45.921875 
Q 44.09375 48.828125 44.09375 54.296875 
Q 44.09375 59.90625 40.109375 62.90625 
Q 36.140625 65.921875 28.71875 65.921875 
Q 24.65625 65.921875 20.015625 65.03125 
Q 15.375 64.15625 9.8125 62.3125 
L 9.8125 71.09375 
Q 15.4375 72.65625 20.34375 73.4375 
Q 25.25 74.21875 29.59375 74.21875 
Q 40.828125 74.21875 47.359375 69.109375 
Q 53.90625 64.015625 53.90625 55.328125 
Q 53.90625 49.265625 50.4375 45.09375 
Q 46.96875 40.921875 40.578125 39.3125 
z
" id="DejaVuSans-51"/>
      </defs>
      <g transform="translate(149.825 463.79875)scale(0.08 -0.08)">
       <use xlink:href="#DejaVuSans-48"/>
       <use x="63.623047" xlink:href="#DejaVuSans-51"/>
      </g>
     </g>
    </g>
    <g id="xtick_4">
     <g id="line2d_4">
      <g>
       <use style="stroke:#000000;stroke-width:0.8;" x="201.415" xlink:href="#ma31d88f83b" y="450.72"/>
      </g>
     </g>
     <g id="text_4">
      <!-- 04 -->
      <defs>
       <path d="M 37.796875 64.3125 
L 12.890625 25.390625 
L 37.796875 25.390625 
z
M 35.203125 72.90625 
L 47.609375 72.90625 
L 47.609375 25.390625 
L 58.015625 25.390625 
L 58.015625 17.1875 
L 47.609375 17.1875 
L 47.609375 0 
L 37.796875 0 
L 37.796875 17.1875 
L 4.890625 17.1875 
L 4.890625 26.703125 
z
" id="DejaVuSans-52"/>
      </defs>
      <g transform="translate(196.325 463.79875)scale(0.08 -0.08)">
       <use xlink:href="#DejaVuSans-48"/>
       <use x="63.623047" xlink:href="#DejaVuSans-52"/>
      </g>
     </g>
    </g>
    <g id="xtick_5">
     <g id="line2d_5">
      <g>
       <use style="stroke:#000000;stroke-width:0.8;" x="247.915" xlink:href="#ma31d88f83b" y="450.72"/>
      </g>
     </g>
     <g id="text_5">
      <!-- 05 -->
      <defs>
       <path d="M 10.796875 72.90625 
L 49.515625 72.90625 
L 49.515625 64.59375 
L 19.828125 64.59375 
L 19.828125 46.734375 
Q 21.96875 47.46875 24.109375 47.828125 
Q 26.265625 48.1875 28.421875 48.1875 
Q 40.625 48.1875 47.75 41.5 
Q 54.890625 34.8125 54.890625 23.390625 
Q 54.890625 11.625 47.5625 5.09375 
Q 40.234375 -1.421875 26.90625 -1.421875 
Q 22.3125 -1.421875 17.546875 -0.640625 
Q 12.796875 0.140625 7.71875 1.703125 
L 7.71875 11.625 
Q 12.109375 9.234375 16.796875 8.0625 
Q 21.484375 6.890625 26.703125 6.890625 
Q 35.15625 6.890625 40.078125 11.328125 
Q 45.015625 15.765625 45.015625 23.390625 
Q 45.015625 31 40.078125 35.4375 
Q 35.15625 39.890625 26.703125 39.890625 
Q 22.75 39.890625 18.8125 39.015625 
Q 14.890625 38.140625 10.796875 36.28125 
z
" id="DejaVuSans-53"/>
      </defs>
      <g transform="translate(242.825 463.79875)scale(0.08 -0.08)">
       <use xlink:href="#DejaVuSans-48"/>
       <use x="63.623047" xlink:href="#DejaVuSans-53"/>
      </g>
     </g>
    </g>
    <g id="xtick_6">
     <g id="line2d_6">
      <g>
       <use style="stroke:#000000;stroke-width:0.8;" x="294.415" xlink:href="#ma31d88f83b" y="450.72"/>
      </g>
     </g>
     <g id="text_6">
      <!-- 06 -->
      <defs>
       <path d="M 33.015625 40.375 
Q 26.375 40.375 22.484375 35.828125 
Q 18.609375 31.296875 18.609375 23.390625 
Q 18.609375 15.53125 22.484375 10.953125 
Q 26.375 6.390625 33.015625 6.390625 
Q 39.65625 6.390625 43.53125 10.953125 
Q 47.40625 15.53125 47.40625 23.390625 
Q 47.40625 31.296875 43.53125 35.828125 
Q 39.65625 40.375 33.015625 40.375 
z
M 52.59375 71.296875 
L 52.59375 62.3125 
Q 48.875 64.0625 45.09375 64.984375 
Q 41.3125 65.921875 37.59375 65.921875 
Q 27.828125 65.921875 22.671875 59.328125 
Q 17.53125 52.734375 16.796875 39.40625 
Q 19.671875 43.65625 24.015625 45.921875 
Q 28.375 48.1875 33.59375 48.1875 
Q 44.578125 48.1875 50.953125 41.515625 
Q 57.328125 34.859375 57.328125 23.390625 
Q 57.328125 12.15625 50.6875 5.359375 
Q 44.046875 -1.421875 33.015625 -1.421875 
Q 20.359375 -1.421875 13.671875 8.265625 
Q 6.984375 17.96875 6.984375 36.375 
Q 6.984375 53.65625 15.1875 63.9375 
Q 23.390625 74.21875 37.203125 74.21875 
Q 40.921875 74.21875 44.703125 73.484375 
Q 48.484375 72.75 52.59375 71.296875 
z
" id="DejaVuSans-54"/>
      </defs>
      <g transform="translate(289.325 463.79875)scale(0.08 -0.08)">
       <use xlink:href="#DejaVuSans-48"/>
       <use x="63.623047" xlink:href="#DejaVuSans-54"/>
      </g>
     </g>
    </g>
    <g id="xtick_7">
     <g id="line2d_7">
      <g>
       <use style="stroke:#000000;stroke-width:0.8;" x="340.915" xlink:href="#ma31d88f83b" y="450.72"/>
      </g>
     </g>
     <g id="text_7">
      <!-- 07 -->
      <defs>
       <path d="M 8.203125 72.90625 
L 55.078125 72.90625 
L 55.078125 68.703125 
L 28.609375 0 
L 18.3125 0 
L 43.21875 64.59375 
L 8.203125 64.59375 
z
" id="DejaVuSans-55"/>
      </defs>
      <g transform="translate(335.825 463.79875)scale(0.08 -0.08)">
       <use xlink:href="#DejaVuSans-48"/>
       <use x="63.623047" xlink:href="#DejaVuSans-55"/>
      </g>
     </g>
    </g>
    <g id="xtick_8">
     <g id="line2d_8">
      <g>
       <use style="stroke:#000000;stroke-width:0.8;" x="387.415" xlink:href="#ma31d88f83b" y="450.72"/>
      </g>
     </g>
     <g id="text_8">
      <!-- 08 -->
      <defs>
       <path d="M 31.78125 34.625 
Q 24.75 34.625 20.71875 30.859375 
Q 16.703125 27.09375 16.703125 20.515625 
Q 16.703125 13.921875 20.71875 10.15625 
Q 24.75 6.390625 31.78125 6.390625 
Q 38.8125 6.390625 42.859375 10.171875 
Q 46.921875 13.96875 46.921875 20.515625 
Q 46.921875 27.09375 42.890625 30.859375 
Q 38.875 34.625 31.78125 34.625 
z
M 21.921875 38.8125 
Q 15.578125 40.375 12.03125 44.71875 
Q 8.5 49.078125 8.5 55.328125 
Q 8.5 64.0625 14.71875 69.140625 
Q 20.953125 74.21875 31.78125 74.21875 
Q 42.671875 74.21875 48.875 69.140625 
Q 55.078125 64.0625 55.078125 55.328125 
Q 55.078125 49.078125 51.53125 44.71875 
Q 48 40.375 41.703125 38.8125 
Q 48.828125 37.15625 52.796875 32.3125 
Q 56.78125 27.484375 56.78125 20.515625 
Q 56.78125 9.90625 50.3125 4.234375 
Q 43.84375 -1.421875 31.78125 -1.421875 
Q 19.734375 -1.421875 13.25 4.234375 
Q 6.78125 9.90625 6.78125 20.515625 
Q 6.78125 27.484375 10.78125 32.3125 
Q 14.796875 37.15625 21.921875 38.8125 
z
M 18.3125 54.390625 
Q 18.3125 48.734375 21.84375 45.5625 
Q 25.390625 42.390625 31.78125 42.390625 
Q 38.140625 42.390625 41.71875 45.5625 
Q 45.3125 48.734375 45.3125 54.390625 
Q 45.3125 60.0625 41.71875 63.234375 
Q 38.140625 66.40625 31.78125 66.40625 
Q 25.390625 66.40625 21.84375 63.234375 
Q 18.3125 60.0625 18.3125 54.390625 
z
" id="DejaVuSans-56"/>
      </defs>
      <g transform="translate(382.325 463.79875)scale(0.08 -0.08)">
       <use xlink:href="#DejaVuSans-48"/>
       <use x="63.623047" xlink:href="#DejaVuSans-56"/>
      </g>
     </g>
    </g>
    <g id="xtick_9">
     <g id="line2d_9">
      <g>
       <use style="stroke:#000000;stroke-width:0.8;" x="433.915" xlink:href="#ma31d88f83b" y="450.72"/>
      </g>
     </g>
     <g id="text_9">
      <!-- 09 -->
      <defs>
       <path d="M 10.984375 1.515625 
L 10.984375 10.5 
Q 14.703125 8.734375 18.5 7.8125 
Q 22.3125 6.890625 25.984375 6.890625 
Q 35.75 6.890625 40.890625 13.453125 
Q 46.046875 20.015625 46.78125 33.40625 
Q 43.953125 29.203125 39.59375 26.953125 
Q 35.25 24.703125 29.984375 24.703125 
Q 19.046875 24.703125 12.671875 31.3125 
Q 6.296875 37.9375 6.296875 49.421875 
Q 6.296875 60.640625 12.9375 67.421875 
Q 19.578125 74.21875 30.609375 74.21875 
Q 43.265625 74.21875 49.921875 64.515625 
Q 56.59375 54.828125 56.59375 36.375 
Q 56.59375 19.140625 48.40625 8.859375 
Q 40.234375 -1.421875 26.421875 -1.421875 
Q 22.703125 -1.421875 18.890625 -0.6875 
Q 15.09375 0.046875 10.984375 1.515625 
z
M 30.609375 32.421875 
Q 37.25 32.421875 41.125 36.953125 
Q 45.015625 41.5 45.015625 49.421875 
Q 45.015625 57.28125 41.125 61.84375 
Q 37.25 66.40625 30.609375 66.40625 
Q 23.96875 66.40625 20.09375 61.84375 
Q 16.21875 57.28125 16.21875 49.421875 
Q 16.21875 41.5 20.09375 36.953125 
Q 23.96875 32.421875 30.609375 32.421875 
z
" id="DejaVuSans-57"/>
      </defs>
      <g transform="translate(428.825 463.79875)scale(0.08 -0.08)">
       <use xlink:href="#DejaVuSans-48"/>
       <use x="63.623047" xlink:href="#DejaVuSans-57"/>
      </g>
     </g>
    </g>
    <g id="xtick_10">
     <g id="line2d_10">
      <g>
       <use style="stroke:#000000;stroke-width:0.8;" x="480.415" xlink:href="#ma31d88f83b" y="450.72"/>
      </g>
     </g>
     <g id="text_10">
      <!-- 10 -->
      <g transform="translate(475.325 463.79875)scale(0.08 -0.08)">
       <use xlink:href="#DejaVuSans-49"/>
       <use x="63.623047" xlink:href="#DejaVuSans-48"/>
      </g>
     </g>
    </g>
    <g id="xtick_11">
     <g id="line2d_11">
      <g>
       <use style="stroke:#000000;stroke-width:0.8;" x="526.915" xlink:href="#ma31d88f83b" y="450.72"/>
      </g>
     </g>
     <g id="text_11">
      <!-- 11 -->
      <g transform="translate(521.825 463.79875)scale(0.08 -0.08)">
       <use xlink:href="#DejaVuSans-49"/>
       <use x="63.623047" xlink:href="#DejaVuSans-49"/>
      </g>
     </g>
    </g>
    <g id="xtick_12">
     <g id="line2d_12">
      <g>
       <use style="stroke:#000000;stroke-width:0.8;" x="573.415" xlink:href="#ma31d88f83b" y="450.72"/>
      </g>
     </g>
     <g id="text_12">
      <!-- 12 -->
      <g transform="translate(568.325 463.79875)scale(0.08 -0.08)">
       <use xlink:href="#DejaVuSans-49"/>
       <use x="63.623047" xlink:href="#DejaVuSans-50"/>
      </g>
     </g>
    </g>
    <g id="text_13">
     <!-- constraint set -->
     <defs>
      <path d="M 48.78125 52.59375 
L 48.78125 44.1875 
Q 44.96875 46.296875 41.140625 47.34375 
Q 37.3125 48.390625 33.40625 48.390625 
Q 24.65625 48.390625 19.8125 42.84375 
Q 14.984375 37.3125 14.984375 27.296875 
Q 14.984375 17.28125 19.8125 11.734375 
Q 24.65625 6.203125 33.40625 6.203125 
Q 37.3125 6.203125 41.140625 7.25 
Q 44.96875 8.296875 48.78125 10.40625 
L 48.78125 2.09375 
Q 45.015625 0.34375 40.984375 -0.53125 
Q 36.96875 -1.421875 32.421875 -1.421875 
Q 20.0625 -1.421875 12.78125 6.34375 
Q 5.515625 14.109375 5.515625 27.296875 
Q 5.515625 40.671875 12.859375 48.328125 
Q 20.21875 56 33.015625 56 
Q 37.15625 56 41.109375 55.140625 
Q 45.0625 54.296875 48.78125 52.59375 
z
" id="DejaVuSans-99"/>
      <path d="M 30.609375 48.390625 
Q 23.390625 48.390625 19.1875 42.75 
Q 14.984375 37.109375 14.984375 27.296875 
Q 14.984375 17.484375 19.15625 11.84375 
Q 23.34375 6.203125 30.609375 6.203125 
Q 37.796875 6.203125 41.984375 11.859375 
Q 46.1875 17.53125 46.1875 27.296875 
Q 46.1875 37.015625 41.984375 42.703125 
Q 37.796875 48.390625 30.609375 48.390625 
z
M 30.609375 56 
Q 42.328125 56 49.015625 48.375 
Q 55.71875 40.765625 55.71875 27.296875 
Q 55.71875 13.875 49.015625 6.21875 
Q 42.328125 -1.421875 30.609375 -1.421875 
Q 18.84375 -1.421875 12.171875 6.21875 
Q 5.515625 13.875 5.515625 27.296875 
Q 5.515625 40.765625 12.171875 48.375 
Q 18.84375 56 30.609375 56 
z
" id="DejaVuSans-111"/>
      <path d="M 54.890625 33.015625 
L 54.890625 0 
L 45.90625 0 
L 45.90625 32.71875 
Q 45.90625 40.484375 42.875 44.328125 
Q 39.84375 48.1875 33.796875 48.1875 
Q 26.515625 48.1875 22.3125 43.546875 
Q 18.109375 38.921875 18.109375 30.90625 
L 18.109375 0 
L 9.078125 0 
L 9.078125 54.6875 
L 18.109375 54.6875 
L 18.109375 46.1875 
Q 21.34375 51.125 25.703125 53.5625 
Q 30.078125 56 35.796875 56 
Q 45.21875 56 50.046875 50.171875 
Q 54.890625 44.34375 54.890625 33.015625 
z
" id="DejaVuSans-110"/>
      <path d="M 44.28125 53.078125 
L 44.28125 44.578125 
Q 40.484375 46.53125 36.375 47.5 
Q 32.28125 48.484375 27.875 48.484375 
Q 21.1875 48.484375 17.84375 46.4375 
Q 14.5 44.390625 14.5 40.28125 
Q 14.5 37.15625 16.890625 35.375 
Q 19.28125 33.59375 26.515625 31.984375 
L 29.59375 31.296875 
Q 39.15625 29.25 43.1875 25.515625 
Q 47.21875 21.78125 47.21875 15.09375 
Q 47.21875 7.46875 41.1875 3.015625 
Q 35.15625 -1.421875 24.609375 -1.421875 
Q 20.21875 -1.421875 15.453125 -0.5625 
Q 10.6875 0.296875 5.421875 2 
L 5.421875 11.28125 
Q 10.40625 8.6875 15.234375 7.390625 
Q 20.0625 6.109375 24.8125 6.109375 
Q 31.15625 6.109375 34.5625 8.28125 
Q 37.984375 10.453125 37.984375 14.40625 
Q 37.984375 18.0625 35.515625 20.015625 
Q 33.0625 21.96875 24.703125 23.78125 
L 21.578125 24.515625 
Q 13.234375 26.265625 9.515625 29.90625 
Q 5.8125 33.546875 5.8125 39.890625 
Q 5.8125 47.609375 11.28125 51.796875 
Q 16.75 56 26.8125 56 
Q 31.78125 56 36.171875 55.265625 
Q 40.578125 54.546875 44.28125 53.078125 
z
" id="DejaVuSans-115"/>
      <path d="M 18.3125 70.21875 
L 18.3125 54.6875 
L 36.8125 54.6875 
L 36.8125 47.703125 
L 18.3125 47.703125 
L 18.3125 18.015625 
Q 18.3125 11.328125 20.140625 9.421875 
Q 21.96875 7.515625 27.59375 7.515625 
L 36.8125 7.515625 
L 36.8125 0 
L 27.59375 0 
Q 17.1875 0 13.234375 3.875 
Q 9.28125 7.765625 9.28125 18.015625 
L 9.28125 47.703125 
L 2.6875 47.703125 
L 2.6875 54.6875 
L 9.28125 54.6875 
L 9.28125 70.21875 
z
" id="DejaVuSans-116"/>
      <path d="M 41.109375 46.296875 
Q 39.59375 47.171875 37.8125 47.578125 
Q 36.03125 48 33.890625 48 
Q 26.265625 48 22.1875 43.046875 
Q 18.109375 38.09375 18.109375 28.8125 
L 18.109375 0 
L 9.078125 0 
L 9.078125 54.6875 
L 18.109375 54.6875 
L 18.109375 46.1875 
Q 20.953125 51.171875 25.484375 53.578125 
Q 30.03125 56 36.53125 56 
Q 37.453125 56 38.578125 55.875 
Q 39.703125 55.765625 41.0625 55.515625 
z
" id="DejaVuSans-114"/>
      <path d="M 34.28125 27.484375 
Q 23.390625 27.484375 19.1875 25 
Q 14.984375 22.515625 14.984375 16.5 
Q 14.984375 11.71875 18.140625 8.90625 
Q 21.296875 6.109375 26.703125 6.109375 
Q 34.1875 6.109375 38.703125 11.40625 
Q 43.21875 16.703125 43.21875 25.484375 
L 43.21875 27.484375 
z
M 52.203125 31.203125 
L 52.203125 0 
L 43.21875 0 
L 43.21875 8.296875 
Q 40.140625 3.328125 35.546875 0.953125 
Q 30.953125 -1.421875 24.3125 -1.421875 
Q 15.921875 -1.421875 10.953125 3.296875 
Q 6 8.015625 6 15.921875 
Q 6 25.140625 12.171875 29.828125 
Q 18.359375 34.515625 30.609375 34.515625 
L 43.21875 34.515625 
L 43.21875 35.40625 
Q 43.21875 41.609375 39.140625 45 
Q 35.0625 48.390625 27.6875 48.390625 
Q 23 48.390625 18.546875 47.265625 
Q 14.109375 46.140625 10.015625 43.890625 
L 10.015625 52.203125 
Q 14.9375 54.109375 19.578125 55.046875 
Q 24.21875 56 28.609375 56 
Q 40.484375 56 46.34375 49.84375 
Q 52.203125 43.703125 52.203125 31.203125 
z
" id="DejaVuSans-97"/>
      <path d="M 9.421875 54.6875 
L 18.40625 54.6875 
L 18.40625 0 
L 9.421875 0 
z
M 9.421875 75.984375 
L 18.40625 75.984375 
L 18.40625 64.59375 
L 9.421875 64.59375 
z
" id="DejaVuSans-105"/>
      <path id="DejaVuSans-32"/>
      <path d="M 56.203125 29.59375 
L 56.203125 25.203125 
L 14.890625 25.203125 
Q 15.484375 15.921875 20.484375 11.0625 
Q 25.484375 6.203125 34.421875 6.203125 
Q 39.59375 6.203125 44.453125 7.46875 
Q 49.3125 8.734375 54.109375 11.28125 
L 54.109375 2.78125 
Q 49.265625 0.734375 44.1875 -0.34375 
Q 39.109375 -1.421875 33.890625 -1.421875 
Q 20.796875 -1.421875 13.15625 6.1875 
Q 5.515625 13.8125 5.515625 26.8125 
Q 5.515625 40.234375 12.765625 48.109375 
Q 20.015625 56 32.328125 56 
Q 43.359375 56 49.78125 48.890625 
Q 56.203125 41.796875 56.203125 29.59375 
z
M 47.21875 32.234375 
Q 47.125 39.59375 43.09375 43.984375 
Q 39.0625 48.390625 32.421875 48.390625 
Q 24.90625 48.390625 20.390625 44.140625 
Q 15.875 39.890625 15.1875 32.171875 
z
" id="DejaVuSans-101"/>
     </defs>
     <g transform="translate(290.136875 475.54125)scale(0.08 -0.08)">
      <use xlink:href="#DejaVuSans-99"/>
      <use x="54.980469" xlink:href="#DejaVuSans-111"/>
      <use x="116.162109" xlink:href="#DejaVuSans-110"/>
      <use x="179.541016" xlink:href="#DejaVuSans-115"/>
      <use x="231.640625" xlink:href="#DejaVuSans-116"/>
      <use x="270.849609" xlink:href="#DejaVuSans-114"/>
      <use x="311.962891" xlink:href="#DejaVuSans-97"/>
      <use x="373.242188" xlink:href="#DejaVuSans-105"/>
      <use x="401.025391" xlink:href="#DejaVuSans-110"/>
      <use x="464.404297" xlink:href="#DejaVuSans-116"/>
      <use x="503.613281" xlink:href="#DejaVuSans-32"/>
      <use x="535.400391" xlink:href="#DejaVuSans-115"/>
      <use x="587.5" xlink:href="#DejaVuSans-101"/>
      <use x="649.023438" xlink:href="#DejaVuSans-116"/>
     </g>
    </g>
   </g>
   <g id="matplotlib.axis_2">
    <g id="ytick_1">
     <g id="line2d_13">
      <defs>
       <path d="M 0 0 
L -3.5 0 
" id="md59c954e14" style="stroke:#000000;stroke-width:0.8;"/>
      </defs>
      <g>
       <use style="stroke:#000000;stroke-width:0.8;" x="38.665" xlink:href="#md59c954e14" y="430.56"/>
      </g>
     </g>
     <g id="text_14">
      <!-- 1.0 -->
      <defs>
       <path d="M 10.6875 12.40625 
L 21 12.40625 
L 21 0 
L 10.6875 0 
z
" id="DejaVuSans-46"/>
      </defs>
      <g transform="translate(18.9425 433.599375)scale(0.08 -0.08)">
       <use xlink:href="#DejaVuSans-49"/>
       <use x="63.623047" xlink:href="#DejaVuSans-46"/>
       <use x="95.410156" xlink:href="#DejaVuSans-48"/>
      </g>
     </g>
    </g>
    <g id="ytick_2">
     <g id="line2d_14">
      <g>
       <use style="stroke:#000000;stroke-width:0.8;" x="38.665" xlink:href="#md59c954e14" y="390.24"/>
      </g>
     </g>
     <g id="text_15">
      <!-- 1.1 -->
      <g transform="translate(18.9425 393.279375)scale(0.08 -0.08)">
       <use xlink:href="#DejaVuSans-49"/>
       <use x="63.623047" xlink:href="#DejaVuSans-46"/>
       <use x="95.410156" xlink:href="#DejaVuSans-49"/>
      </g>
     </g>
    </g>
    <g id="ytick_3">
     <g id="line2d_15">
      <g>
       <use style="stroke:#000000;stroke-width:0.8;" x="38.665" xlink:href="#md59c954e14" y="349.92"/>
      </g>
     </g>
     <g id="text_16">
      <!-- 1.2 -->
      <g transform="translate(18.9425 352.959375)scale(0.08 -0.08)">
       <use xlink:href="#DejaVuSans-49"/>
       <use x="63.623047" xlink:href="#DejaVuSans-46"/>
       <use x="95.410156" xlink:href="#DejaVuSans-50"/>
      </g>
     </g>
    </g>
    <g id="ytick_4">
     <g id="line2d_16">
      <g>
       <use style="stroke:#000000;stroke-width:0.8;" x="38.665" xlink:href="#md59c954e14" y="309.6"/>
      </g>
     </g>
     <g id="text_17">
      <!-- 1.3 -->
      <g transform="translate(18.9425 312.639375)scale(0.08 -0.08)">
       <use xlink:href="#DejaVuSans-49"/>
       <use x="63.623047" xlink:href="#DejaVuSans-46"/>
       <use x="95.410156" xlink:href="#DejaVuSans-51"/>
      </g>
     </g>
    </g>
    <g id="ytick_5">
     <g id="line2d_17">
      <g>
       <use style="stroke:#000000;stroke-width:0.8;" x="38.665" xlink:href="#md59c954e14" y="269.28"/>
      </g>
     </g>
     <g id="text_18">
      <!-- 1.4 -->
      <g transform="translate(18.9425 272.319375)scale(0.08 -0.08)">
       <use xlink:href="#DejaVuSans-49"/>
       <use x="63.623047" xlink:href="#DejaVuSans-46"/>
       <use x="95.410156" xlink:href="#DejaVuSans-52"/>
      </g>
     </g>
    </g>
    <g id="ytick_6">
     <g id="line2d_18">
      <g>
       <use style="stroke:#000000;stroke-width:0.8;" x="38.665" xlink:href="#md59c954e14" y="228.96"/>
      </g>
     </g>
     <g id="text_19">
      <!-- 1.5 -->
      <g transform="translate(18.9425 231.999375)scale(0.08 -0.08)">
       <use xlink:href="#DejaVuSans-49"/>
       <use x="63.623047" xlink:href="#DejaVuSans-46"/>
       <use x="95.410156" xlink:href="#DejaVuSans-53"/>
      </g>
     </g>
    </g>
    <g id="ytick_7">
     <g id="line2d_19">
      <g>
       <use style="stroke:#000000;stroke-width:0.8;" x="38.665" xlink:href="#md59c954e14" y="188.64"/>
      </g>
     </g>
     <g id="text_20">
      <!-- 1.6 -->
      <g transform="translate(18.9425 191.679375)scale(0.08 -0.08)">
       <use xlink:href="#DejaVuSans-49"/>
       <use x="63.623047" xlink:href="#DejaVuSans-46"/>
       <use x="95.410156" xlink:href="#DejaVuSans-54"/>
      </g>
     </g>
    </g>
    <g id="ytick_8">
     <g id="line2d_20">
      <g>
       <use style="stroke:#000000;stroke-width:0.8;" x="38.665" xlink:href="#md59c954e14" y="148.32"/>
      </g>
     </g>
     <g id="text_21">
      <!-- 1.7 -->
      <g transform="translate(18.9425 151.359375)scale(0.08 -0.08)">
       <use xlink:href="#DejaVuSans-49"/>
       <use x="63.623047" xlink:href="#DejaVuSans-46"/>
       <use x="95.410156" xlink:href="#DejaVuSans-55"/>
      </g>
     </g>
    </g>
    <g id="ytick_9">
     <g id="line2d_21">
      <g>
       <use style="stroke:#000000;stroke-width:0.8;" x="38.665" xlink:href="#md59c954e14" y="108"/>
      </g>
     </g>
     <g id="text_22">
      <!-- 1.8 -->
      <g transform="translate(18.9425 111.039375)scale(0.08 -0.08)">
       <use xlink:href="#DejaVuSans-49"/>
       <use x="63.623047" xlink:href="#DejaVuSans-46"/>
       <use x="95.410156" xlink:href="#DejaVuSans-56"/>
      </g>
     </g>
    </g>
    <g id="ytick_10">
     <g id="line2d_22">
      <g>
       <use style="stroke:#000000;stroke-width:0.8;" x="38.665" xlink:href="#md59c954e14" y="67.68"/>
      </g>
     </g>
     <g id="text_23">
      <!-- 1.9 -->
      <g transform="translate(18.9425 70.719375)scale(0.08 -0.08)">
       <use xlink:href="#DejaVuSans-49"/>
       <use x="63.623047" xlink:href="#DejaVuSans-46"/>
       <use x="95.410156" xlink:href="#DejaVuSans-57"/>
      </g>
     </g>
    </g>
    <g id="ytick_11">
     <g id="line2d_23">
      <g>
       <use style="stroke:#000000;stroke-width:0.8;" x="38.665" xlink:href="#md59c954e14" y="27.36"/>
      </g>
     </g>
     <g id="text_24">
      <!-- 2.0 -->
      <g transform="translate(18.9425 30.399375)scale(0.08 -0.08)">
       <use xlink:href="#DejaVuSans-50"/>
       <use x="63.623047" xlink:href="#DejaVuSans-46"/>
       <use x="95.410156" xlink:href="#DejaVuSans-48"/>
      </g>
     </g>
    </g>
    <g id="text_25">
     <!-- code rate -->
     <defs>
      <path d="M 45.40625 46.390625 
L 45.40625 75.984375 
L 54.390625 75.984375 
L 54.390625 0 
L 45.40625 0 
L 45.40625 8.203125 
Q 42.578125 3.328125 38.25 0.953125 
Q 33.9375 -1.421875 27.875 -1.421875 
Q 17.96875 -1.421875 11.734375 6.484375 
Q 5.515625 14.40625 5.515625 27.296875 
Q 5.515625 40.1875 11.734375 48.09375 
Q 17.96875 56 27.875 56 
Q 33.9375 56 38.25 53.625 
Q 42.578125 51.265625 45.40625 46.390625 
z
M 14.796875 27.296875 
Q 14.796875 17.390625 18.875 11.75 
Q 22.953125 6.109375 30.078125 6.109375 
Q 37.203125 6.109375 41.296875 11.75 
Q 45.40625 17.390625 45.40625 27.296875 
Q 45.40625 37.203125 41.296875 42.84375 
Q 37.203125 48.484375 30.078125 48.484375 
Q 22.953125 48.484375 18.875 42.84375 
Q 14.796875 37.203125 14.796875 27.296875 
z
" id="DejaVuSans-100"/>
     </defs>
     <g transform="translate(13.27875 248.00375)rotate(-90)scale(0.08 -0.08)">
      <use xlink:href="#DejaVuSans-99"/>
      <use x="54.980469" xlink:href="#DejaVuSans-111"/>
      <use x="116.162109" xlink:href="#DejaVuSans-100"/>
      <use x="179.638672" xlink:href="#DejaVuSans-101"/>
      <use x="241.162109" xlink:href="#DejaVuSans-32"/>
      <use x="272.949219" xlink:href="#DejaVuSans-114"/>
      <use x="314.0625" xlink:href="#DejaVuSans-97"/>
      <use x="375.341797" xlink:href="#DejaVuSans-116"/>
      <use x="414.550781" xlink:href="#DejaVuSans-101"/>
     </g>
    </g>
   </g>
   <g id="LineCollection_1">
    <path clip-path="url(#pf9c33e0f33)" d="M 43.315 430.56 
L 80.515 430.56 
" style="fill:none;stroke:#81b8df;"/>
   </g>
   <g id="LineCollection_2">
    <path clip-path="url(#pf9c33e0f33)" d="M 89.815 194.70312 
L 127.015 194.70312 
" style="fill:none;stroke:#81b8df;"/>
   </g>
   <g id="LineCollection_3">
    <path clip-path="url(#pf9c33e0f33)" d="M 136.315 176.44615 
L 173.515 176.44615 
" style="fill:none;stroke:#81b8df;"/>
   </g>
   <g id="LineCollection_4">
    <path clip-path="url(#pf9c33e0f33)" d="M 182.815 160.515524 
L 220.015 160.515524 
" style="fill:none;stroke:#81b8df;"/>
   </g>
   <g id="LineCollection_5">
    <path clip-path="url(#pf9c33e0f33)" d="M 229.315 117.642303 
L 266.515 117.642303 
" style="fill:none;stroke:#81b8df;"/>
   </g>
   <g id="LineCollection_6">
    <path clip-path="url(#pf9c33e0f33)" d="M 275.815 109.696374 
L 313.015 109.696374 
" style="fill:none;stroke:#81b8df;"/>
   </g>
   <g id="LineCollection_7">
    <path clip-path="url(#pf9c33e0f33)" d="M 322.315 103.409278 
L 359.515 103.409278 
" style="fill:none;stroke:#81b8df;"/>
   </g>
   <g id="LineCollection_8">
    <path clip-path="url(#pf9c33e0f33)" d="M 368.815 101.859869 
L 406.015 101.859869 
" style="fill:none;stroke:#81b8df;"/>
   </g>
   <g id="LineCollection_9">
    <path clip-path="url(#pf9c33e0f33)" d="M 415.315 34.474846 
L 452.515 34.474846 
" style="fill:none;stroke:#81b8df;"/>
   </g>
   <g id="LineCollection_10">
    <path clip-path="url(#pf9c33e0f33)" d="M 461.815 29.087105 
L 499.015 29.087105 
" style="fill:none;stroke:#81b8df;"/>
   </g>
   <g id="LineCollection_11">
    <path clip-path="url(#pf9c33e0f33)" d="M 508.315 27.787773 
L 545.515 27.787773 
" style="fill:none;stroke:#81b8df;"/>
   </g>
   <g id="LineCollection_12">
    <path clip-path="url(#pf9c33e0f33)" d="M 554.815 27.466639 
L 592.015 27.466639 
" style="fill:none;stroke:#81b8df;"/>
   </g>
   <g id="patch_3">
    <path d="M 38.665 450.72 
L 38.665 7.2 
" style="fill:none;stroke:#000000;stroke-linecap:square;stroke-linejoin:miter;stroke-width:0.8;"/>
   </g>
   <g id="patch_4">
    <path d="M 596.665 450.72 
L 596.665 7.2 
" style="fill:none;stroke:#000000;stroke-linecap:square;stroke-linejoin:miter;stroke-width:0.8;"/>
   </g>
   <g id="patch_5">
    <path d="M 38.665 450.72 
L 596.665 450.72 
" style="fill:none;stroke:#000000;stroke-linecap:square;stroke-linejoin:miter;stroke-width:0.8;"/>
   </g>
   <g id="patch_6">
    <path d="M 38.665 7.2 
L 596.665 7.2 
" style="fill:none;stroke:#000000;stroke-linecap:square;stroke-linejoin:miter;stroke-width:0.8;"/>
   </g>
   <g id="LineCollection_13">
    <path clip-path="url(#pf9c33e0f33)" d="M 50.29 430.56 
L 73.54 430.56 
" style="fill:none;stroke:#fe817d;"/>
   </g>
   <g id="LineCollection_14">
    <path clip-path="url(#pf9c33e0f33)" d="M 96.79 194.70312 
L 120.04 194.70312 
" style="fill:none;stroke:#fe817d;"/>
   </g>
   <g id="LineCollection_15">
    <path clip-path="url(#pf9c33e0f33)" d="M 422.29 34.474846 
L 445.54 34.474846 
" style="fill:none;stroke:#fe817d;"/>
   </g>
   <g id="LineCollection_16">
    <path clip-path="url(#pf9c33e0f33)" d="M 468.79 29.087105 
L 492.04 29.087105 
" style="fill:none;stroke:#fe817d;"/>
   </g>
   <g id="LineCollection_17">
    <path clip-path="url(#pf9c33e0f33)" d="M 515.29 27.787773 
L 538.54 27.787773 
" style="fill:none;stroke:#fe817d;"/>
   </g>
   <g id="LineCollection_18">
    <path clip-path="url(#pf9c33e0f33)" d="M 561.79 27.466639 
L 585.04 27.466639 
" style="fill:none;stroke:#fe817d;"/>
   </g>
   <g id="text_26">
    <!-- 1.0000 -->
    <g transform="translate(47.91875 420.83225)scale(0.08 -0.08)">
     <use xlink:href="#DejaVuSans-49"/>
     <use x="63.623047" xlink:href="#DejaVuSans-46"/>
     <use x="95.410156" xlink:href="#DejaVuSans-48"/>
     <use x="159.033203" xlink:href="#DejaVuSans-48"/>
     <use x="222.65625" xlink:href="#DejaVuSans-48"/>
     <use x="286.279297" xlink:href="#DejaVuSans-48"/>
    </g>
   </g>
   <g id="text_27">
    <!-- 1.5850 -->
    <g transform="translate(94.41875 184.97537)scale(0.08 -0.08)">
     <use xlink:href="#DejaVuSans-49"/>
     <use x="63.623047" xlink:href="#DejaVuSans-46"/>
     <use x="95.410156" xlink:href="#DejaVuSans-53"/>
     <use x="159.033203" xlink:href="#DejaVuSans-56"/>
     <use x="222.65625" xlink:href="#DejaVuSans-53"/>
     <use x="286.279297" xlink:href="#DejaVuSans-48"/>
    </g>
   </g>
   <g id="text_28">
    <!-- 1.6302 -->
    <g transform="translate(140.91875 166.7184)scale(0.08 -0.08)">
     <use xlink:href="#DejaVuSans-49"/>
     <use x="63.623047" xlink:href="#DejaVuSans-46"/>
     <use x="95.410156" xlink:href="#DejaVuSans-54"/>
     <use x="159.033203" xlink:href="#DejaVuSans-51"/>
     <use x="222.65625" xlink:href="#DejaVuSans-48"/>
     <use x="286.279297" xlink:href="#DejaVuSans-50"/>
    </g>
   </g>
   <g id="text_29">
    <!-- 1.6698 -->
    <g transform="translate(187.41875 150.787774)scale(0.08 -0.08)">
     <use xlink:href="#DejaVuSans-49"/>
     <use x="63.623047" xlink:href="#DejaVuSans-46"/>
     <use x="95.410156" xlink:href="#DejaVuSans-54"/>
     <use x="159.033203" xlink:href="#DejaVuSans-54"/>
     <use x="222.65625" xlink:href="#DejaVuSans-57"/>
     <use x="286.279297" xlink:href="#DejaVuSans-56"/>
    </g>
   </g>
   <g id="text_30">
    <!-- 1.7761 -->
    <g transform="translate(233.91875 107.914553)scale(0.08 -0.08)">
     <use xlink:href="#DejaVuSans-49"/>
     <use x="63.623047" xlink:href="#DejaVuSans-46"/>
     <use x="95.410156" xlink:href="#DejaVuSans-55"/>
     <use x="159.033203" xlink:href="#DejaVuSans-55"/>
     <use x="222.65625" xlink:href="#DejaVuSans-54"/>
     <use x="286.279297" xlink:href="#DejaVuSans-49"/>
    </g>
   </g>
   <g id="text_31">
    <!-- 1.7958 -->
    <g transform="translate(280.41875 99.968624)scale(0.08 -0.08)">
     <use xlink:href="#DejaVuSans-49"/>
     <use x="63.623047" xlink:href="#DejaVuSans-46"/>
     <use x="95.410156" xlink:href="#DejaVuSans-55"/>
     <use x="159.033203" xlink:href="#DejaVuSans-57"/>
     <use x="222.65625" xlink:href="#DejaVuSans-53"/>
     <use x="286.279297" xlink:href="#DejaVuSans-56"/>
    </g>
   </g>
   <g id="text_32">
    <!-- 1.8114 -->
    <g transform="translate(326.91875 93.681528)scale(0.08 -0.08)">
     <use xlink:href="#DejaVuSans-49"/>
     <use x="63.623047" xlink:href="#DejaVuSans-46"/>
     <use x="95.410156" xlink:href="#DejaVuSans-56"/>
     <use x="159.033203" xlink:href="#DejaVuSans-49"/>
     <use x="222.65625" xlink:href="#DejaVuSans-49"/>
     <use x="286.279297" xlink:href="#DejaVuSans-52"/>
    </g>
   </g>
   <g id="text_33">
    <!-- 1.8152 -->
    <g transform="translate(373.41875 92.132119)scale(0.08 -0.08)">
     <use xlink:href="#DejaVuSans-49"/>
     <use x="63.623047" xlink:href="#DejaVuSans-46"/>
     <use x="95.410156" xlink:href="#DejaVuSans-56"/>
     <use x="159.033203" xlink:href="#DejaVuSans-49"/>
     <use x="222.65625" xlink:href="#DejaVuSans-53"/>
     <use x="286.279297" xlink:href="#DejaVuSans-50"/>
    </g>
   </g>
   <g id="text_34">
    <!-- 1.9824 -->
    <g transform="translate(419.91875 24.747096)scale(0.08 -0.08)">
     <use xlink:href="#DejaVuSans-49"/>
     <use x="63.623047" xlink:href="#DejaVuSans-46"/>
     <use x="95.410156" xlink:href="#DejaVuSans-57"/>
     <use x="159.033203" xlink:href="#DejaVuSans-56"/>
     <use x="222.65625" xlink:href="#DejaVuSans-50"/>
     <use x="286.279297" xlink:href="#DejaVuSans-52"/>
    </g>
   </g>
   <g id="text_35">
    <!-- 1.9957 -->
    <g transform="translate(466.41875 19.359355)scale(0.08 -0.08)">
     <use xlink:href="#DejaVuSans-49"/>
     <use x="63.623047" xlink:href="#DejaVuSans-46"/>
     <use x="95.410156" xlink:href="#DejaVuSans-57"/>
     <use x="159.033203" xlink:href="#DejaVuSans-57"/>
     <use x="222.65625" xlink:href="#DejaVuSans-53"/>
     <use x="286.279297" xlink:href="#DejaVuSans-55"/>
    </g>
   </g>
   <g id="text_36">
    <!-- 1.9989 -->
    <g transform="translate(512.91875 18.060023)scale(0.08 -0.08)">
     <use xlink:href="#DejaVuSans-49"/>
     <use x="63.623047" xlink:href="#DejaVuSans-46"/>
     <use x="95.410156" xlink:href="#DejaVuSans-57"/>
     <use x="159.033203" xlink:href="#DejaVuSans-57"/>
     <use x="222.65625" xlink:href="#DejaVuSans-56"/>
     <use x="286.279297" xlink:href="#DejaVuSans-57"/>
    </g>
   </g>
   <g id="text_37">
    <!-- 1.9997 -->
    <g transform="translate(559.41875 17.738889)scale(0.08 -0.08)">
     <use xlink:href="#DejaVuSans-49"/>
     <use x="63.623047" xlink:href="#DejaVuSans-46"/>
     <use x="95.410156" xlink:href="#DejaVuSans-57"/>
     <use x="159.033203" xlink:href="#DejaVuSans-57"/>
     <use x="222.65625" xlink:href="#DejaVuSans-57"/>
     <use x="286.279297" xlink:href="#DejaVuSans-55"/>
    </g>
   </g>
   <g id="PathCollection_1">
    <defs>
     <path d="M 0 1.936492 
C 0.513564 1.936492 1.006162 1.732451 1.369306 1.369306 
C 1.732451 1.006162 1.936492 0.513564 1.936492 0 
C 1.936492 -0.513564 1.732451 -1.006162 1.369306 -1.369306 
C 1.006162 -1.732451 0.513564 -1.936492 0 -1.936492 
C -0.513564 -1.936492 -1.006162 -1.732451 -1.369306 -1.369306 
C -1.732451 -1.006162 -1.936492 -0.513564 -1.936492 0 
C -1.936492 0.513564 -1.732451 1.006162 -1.369306 1.369306 
C -1.006162 1.732451 -0.513564 1.936492 0 1.936492 
z
" id="m248c8ec62a" style="stroke:#fe817d;"/>
    </defs>
    <g clip-path="url(#pf9c33e0f33)">
     <use style="fill:#ffffff;stroke:#fe817d;" x="61.915" xlink:href="#m248c8ec62a" y="430.56"/>
    </g>
   </g>
   <g id="PathCollection_2">
    <g clip-path="url(#pf9c33e0f33)">
     <use style="fill:#ffffff;stroke:#fe817d;" x="108.415" xlink:href="#m248c8ec62a" y="194.70312"/>
    </g>
   </g>
   <g id="PathCollection_3">
    <g clip-path="url(#pf9c33e0f33)">
     <use style="fill:#ffffff;stroke:#fe817d;" x="154.915" xlink:href="#m248c8ec62a" y="216.68011"/>
    </g>
   </g>
   <g id="PathCollection_4">
    <g clip-path="url(#pf9c33e0f33)">
     <use style="fill:#ffffff;stroke:#fe817d;" x="201.415" xlink:href="#m248c8ec62a" y="182.912542"/>
    </g>
   </g>
   <g id="PathCollection_5">
    <g clip-path="url(#pf9c33e0f33)">
     <use style="fill:#ffffff;stroke:#fe817d;" x="247.915" xlink:href="#m248c8ec62a" y="135.940685"/>
    </g>
   </g>
   <g id="PathCollection_6">
    <g clip-path="url(#pf9c33e0f33)">
     <use style="fill:#ffffff;stroke:#fe817d;" x="294.415" xlink:href="#m248c8ec62a" y="131.810139"/>
    </g>
   </g>
   <g id="PathCollection_7">
    <g clip-path="url(#pf9c33e0f33)">
     <use style="fill:#ffffff;stroke:#fe817d;" x="340.915" xlink:href="#m248c8ec62a" y="122.397968"/>
    </g>
   </g>
   <g id="PathCollection_8">
    <g clip-path="url(#pf9c33e0f33)">
     <use style="fill:#ffffff;stroke:#fe817d;" x="387.415" xlink:href="#m248c8ec62a" y="122.146869"/>
    </g>
   </g>
   <g id="PathCollection_9">
    <g clip-path="url(#pf9c33e0f33)">
     <use style="fill:#ffffff;stroke:#fe817d;" x="433.915" xlink:href="#m248c8ec62a" y="34.474846"/>
    </g>
   </g>
   <g id="PathCollection_10">
    <g clip-path="url(#pf9c33e0f33)">
     <use style="fill:#ffffff;stroke:#fe817d;" x="480.415" xlink:href="#m248c8ec62a" y="29.087105"/>
    </g>
   </g>
   <g id="PathCollection_11">
    <g clip-path="url(#pf9c33e0f33)">
     <use style="fill:#ffffff;stroke:#fe817d;" x="526.915" xlink:href="#m248c8ec62a" y="27.787773"/>
    </g>
   </g>
   <g id="PathCollection_12">
    <g clip-path="url(#pf9c33e0f33)">
     <use style="fill:#ffffff;stroke:#fe817d;" x="573.415" xlink:href="#m248c8ec62a" y="27.466639"/>
    </g>
   </g>
  </g>
 </g>
 <defs>
  <clipPath id="pf9c33e0f33">
   <rect height="443.52" width="558" x="38.665" y="7.2"/>
  </clipPath>
 </defs>
</svg>
