<?xml version="1.0" encoding="utf-8" standalone="no"?>
<!DOCTYPE svg PUBLIC "-//W3C//DTD SVG 1.1//EN"
  "http://www.w3.org/Graphics/SVG/1.1/DTD/svg11.dtd">
<!-- Created with matplotlib (https://matplotlib.org/) -->
<svg height="578.679062pt" version="1.1" viewBox="0 0 713.107853 578.679062" width="713.107853pt" xmlns="http://www.w3.org/2000/svg" xmlns:xlink="http://www.w3.org/1999/xlink">
 <defs>
  <style type="text/css">
*{stroke-linecap:butt;stroke-linejoin:round;}
  </style>
 </defs>
 <g id="figure_1">
  <g id="patch_1">
   <path d="M 0 578.679062 
L 713.107853 578.679062 
L 713.107853 0 
L 0 0 
z
" style="fill:#ffffff;"/>
  </g>
  <g id="axes_1">
   <g id="patch_2">
    <path d="M 44.994219 262.394062 
L 701.181057 262.394062 
L 701.181057 17.079062 
L 44.994219 17.079062 
z
" style="fill:#ffffff;"/>
   </g>
   <g id="matplotlib.axis_1">
    <g id="xtick_1">
     <g id="line2d_1">
      <defs>
       <path d="M 0 0 
L 0 3.5 
" id="m0e4ded8534" style="stroke:#000000;stroke-width:0.8;"/>
      </defs>
      <g>
       <use style="stroke:#000000;stroke-width:0.8;" x="51.427423" xlink:href="#m0e4ded8534" y="262.394062"/>
      </g>
     </g>
     <g id="text_1">
      <!-- $10^{-14}$ -->
      <defs>
       <path d="M 12.40625 8.296875 
L 28.515625 8.296875 
L 28.515625 63.921875 
L 10.984375 60.40625 
L 10.984375 69.390625 
L 28.421875 72.90625 
L 38.28125 72.90625 
L 38.28125 8.296875 
L 54.390625 8.296875 
L 54.390625 0 
L 12.40625 0 
z
" id="DejaVuSans-49"/>
       <path d="M 31.78125 66.40625 
Q 24.171875 66.40625 20.328125 58.90625 
Q 16.5 51.421875 16.5 36.375 
Q 16.5 21.390625 20.328125 13.890625 
Q 24.171875 6.390625 31.78125 6.390625 
Q 39.453125 6.390625 43.28125 13.890625 
Q 47.125 21.390625 47.125 36.375 
Q 47.125 51.421875 43.28125 58.90625 
Q 39.453125 66.40625 31.78125 66.40625 
z
M 31.78125 74.21875 
Q 44.046875 74.21875 50.515625 64.515625 
Q 56.984375 54.828125 56.984375 36.375 
Q 56.984375 17.96875 50.515625 8.265625 
Q 44.046875 -1.421875 31.78125 -1.421875 
Q 19.53125 -1.421875 13.0625 8.265625 
Q 6.59375 17.96875 6.59375 36.375 
Q 6.59375 54.828125 13.0625 64.515625 
Q 19.53125 74.21875 31.78125 74.21875 
z
" id="DejaVuSans-48"/>
       <path d="M 10.59375 35.5 
L 73.1875 35.5 
L 73.1875 27.203125 
L 10.59375 27.203125 
z
" id="DejaVuSans-8722"/>
       <path d="M 37.796875 64.3125 
L 12.890625 25.390625 
L 37.796875 25.390625 
z
M 35.203125 72.90625 
L 47.609375 72.90625 
L 47.609375 25.390625 
L 58.015625 25.390625 
L 58.015625 17.1875 
L 47.609375 17.1875 
L 47.609375 0 
L 37.796875 0 
L 37.796875 17.1875 
L 4.890625 17.1875 
L 4.890625 26.703125 
z
" id="DejaVuSans-52"/>
      </defs>
      <g transform="translate(40.267423 275.472812)scale(0.08 -0.08)">
       <use transform="translate(0 0.684375)" xlink:href="#DejaVuSans-49"/>
       <use transform="translate(63.623047 0.684375)" xlink:href="#DejaVuSans-48"/>
       <use transform="translate(128.203125 38.965625)scale(0.7)" xlink:href="#DejaVuSans-8722"/>
       <use transform="translate(186.855469 38.965625)scale(0.7)" xlink:href="#DejaVuSans-49"/>
       <use transform="translate(231.391602 38.965625)scale(0.7)" xlink:href="#DejaVuSans-52"/>
      </g>
     </g>
    </g>
    <g id="xtick_2">
     <g id="line2d_2">
      <g>
       <use style="stroke:#000000;stroke-width:0.8;" x="115.759466" xlink:href="#m0e4ded8534" y="262.394062"/>
      </g>
     </g>
     <g id="text_2">
      <!-- $10^{-13}$ -->
      <defs>
       <path d="M 40.578125 39.3125 
Q 47.65625 37.796875 51.625 33 
Q 55.609375 28.21875 55.609375 21.1875 
Q 55.609375 10.40625 48.1875 4.484375 
Q 40.765625 -1.421875 27.09375 -1.421875 
Q 22.515625 -1.421875 17.65625 -0.515625 
Q 12.796875 0.390625 7.625 2.203125 
L 7.625 11.71875 
Q 11.71875 9.328125 16.59375 8.109375 
Q 21.484375 6.890625 26.8125 6.890625 
Q 36.078125 6.890625 40.9375 10.546875 
Q 45.796875 14.203125 45.796875 21.1875 
Q 45.796875 27.640625 41.28125 31.265625 
Q 36.765625 34.90625 28.71875 34.90625 
L 20.21875 34.90625 
L 20.21875 43.015625 
L 29.109375 43.015625 
Q 36.375 43.015625 40.234375 45.921875 
Q 44.09375 48.828125 44.09375 54.296875 
Q 44.09375 59.90625 40.109375 62.90625 
Q 36.140625 65.921875 28.71875 65.921875 
Q 24.65625 65.921875 20.015625 65.03125 
Q 15.375 64.15625 9.8125 62.3125 
L 9.8125 71.09375 
Q 15.4375 72.65625 20.34375 73.4375 
Q 25.25 74.21875 29.59375 74.21875 
Q 40.828125 74.21875 47.359375 69.109375 
Q 53.90625 64.015625 53.90625 55.328125 
Q 53.90625 49.265625 50.4375 45.09375 
Q 46.96875 40.921875 40.578125 39.3125 
z
" id="DejaVuSans-51"/>
      </defs>
      <g transform="translate(104.599466 275.472812)scale(0.08 -0.08)">
       <use transform="translate(0 0.765625)" xlink:href="#DejaVuSans-49"/>
       <use transform="translate(63.623047 0.765625)" xlink:href="#DejaVuSans-48"/>
       <use transform="translate(128.203125 39.046875)scale(0.7)" xlink:href="#DejaVuSans-8722"/>
       <use transform="translate(186.855469 39.046875)scale(0.7)" xlink:href="#DejaVuSans-49"/>
       <use transform="translate(231.391602 39.046875)scale(0.7)" xlink:href="#DejaVuSans-51"/>
      </g>
     </g>
    </g>
    <g id="xtick_3">
     <g id="line2d_3">
      <g>
       <use style="stroke:#000000;stroke-width:0.8;" x="180.091509" xlink:href="#m0e4ded8534" y="262.394062"/>
      </g>
     </g>
     <g id="text_3">
      <!-- $10^{-12}$ -->
      <defs>
       <path d="M 19.1875 8.296875 
L 53.609375 8.296875 
L 53.609375 0 
L 7.328125 0 
L 7.328125 8.296875 
Q 12.9375 14.109375 22.625 23.890625 
Q 32.328125 33.6875 34.8125 36.53125 
Q 39.546875 41.84375 41.421875 45.53125 
Q 43.3125 49.21875 43.3125 52.78125 
Q 43.3125 58.59375 39.234375 62.25 
Q 35.15625 65.921875 28.609375 65.921875 
Q 23.96875 65.921875 18.8125 64.3125 
Q 13.671875 62.703125 7.8125 59.421875 
L 7.8125 69.390625 
Q 13.765625 71.78125 18.9375 73 
Q 24.125 74.21875 28.421875 74.21875 
Q 39.75 74.21875 46.484375 68.546875 
Q 53.21875 62.890625 53.21875 53.421875 
Q 53.21875 48.921875 51.53125 44.890625 
Q 49.859375 40.875 45.40625 35.40625 
Q 44.1875 33.984375 37.640625 27.21875 
Q 31.109375 20.453125 19.1875 8.296875 
z
" id="DejaVuSans-50"/>
      </defs>
      <g transform="translate(168.931509 275.472812)scale(0.08 -0.08)">
       <use transform="translate(0 0.765625)" xlink:href="#DejaVuSans-49"/>
       <use transform="translate(63.623047 0.765625)" xlink:href="#DejaVuSans-48"/>
       <use transform="translate(128.203125 39.046875)scale(0.7)" xlink:href="#DejaVuSans-8722"/>
       <use transform="translate(186.855469 39.046875)scale(0.7)" xlink:href="#DejaVuSans-49"/>
       <use transform="translate(231.391602 39.046875)scale(0.7)" xlink:href="#DejaVuSans-50"/>
      </g>
     </g>
    </g>
    <g id="xtick_4">
     <g id="line2d_4">
      <g>
       <use style="stroke:#000000;stroke-width:0.8;" x="244.423552" xlink:href="#m0e4ded8534" y="262.394062"/>
      </g>
     </g>
     <g id="text_4">
      <!-- $10^{-11}$ -->
      <g transform="translate(233.263552 275.472812)scale(0.08 -0.08)">
       <use transform="translate(0 0.684375)" xlink:href="#DejaVuSans-49"/>
       <use transform="translate(63.623047 0.684375)" xlink:href="#DejaVuSans-48"/>
       <use transform="translate(128.203125 38.965625)scale(0.7)" xlink:href="#DejaVuSans-8722"/>
       <use transform="translate(186.855469 38.965625)scale(0.7)" xlink:href="#DejaVuSans-49"/>
       <use transform="translate(231.391602 38.965625)scale(0.7)" xlink:href="#DejaVuSans-49"/>
      </g>
     </g>
    </g>
    <g id="xtick_5">
     <g id="line2d_5">
      <g>
       <use style="stroke:#000000;stroke-width:0.8;" x="308.755595" xlink:href="#m0e4ded8534" y="262.394062"/>
      </g>
     </g>
     <g id="text_5">
      <!-- $10^{-10}$ -->
      <g transform="translate(297.595595 275.472812)scale(0.08 -0.08)">
       <use transform="translate(0 0.765625)" xlink:href="#DejaVuSans-49"/>
       <use transform="translate(63.623047 0.765625)" xlink:href="#DejaVuSans-48"/>
       <use transform="translate(128.203125 39.046875)scale(0.7)" xlink:href="#DejaVuSans-8722"/>
       <use transform="translate(186.855469 39.046875)scale(0.7)" xlink:href="#DejaVuSans-49"/>
       <use transform="translate(231.391602 39.046875)scale(0.7)" xlink:href="#DejaVuSans-48"/>
      </g>
     </g>
    </g>
    <g id="xtick_6">
     <g id="line2d_6">
      <g>
       <use style="stroke:#000000;stroke-width:0.8;" x="373.087638" xlink:href="#m0e4ded8534" y="262.394062"/>
      </g>
     </g>
     <g id="text_6">
      <!-- $10^{-09}$ -->
      <defs>
       <path d="M 10.984375 1.515625 
L 10.984375 10.5 
Q 14.703125 8.734375 18.5 7.8125 
Q 22.3125 6.890625 25.984375 6.890625 
Q 35.75 6.890625 40.890625 13.453125 
Q 46.046875 20.015625 46.78125 33.40625 
Q 43.953125 29.203125 39.59375 26.953125 
Q 35.25 24.703125 29.984375 24.703125 
Q 19.046875 24.703125 12.671875 31.3125 
Q 6.296875 37.9375 6.296875 49.421875 
Q 6.296875 60.640625 12.9375 67.421875 
Q 19.578125 74.21875 30.609375 74.21875 
Q 43.265625 74.21875 49.921875 64.515625 
Q 56.59375 54.828125 56.59375 36.375 
Q 56.59375 19.140625 48.40625 8.859375 
Q 40.234375 -1.421875 26.421875 -1.421875 
Q 22.703125 -1.421875 18.890625 -0.6875 
Q 15.09375 0.046875 10.984375 1.515625 
z
M 30.609375 32.421875 
Q 37.25 32.421875 41.125 36.953125 
Q 45.015625 41.5 45.015625 49.421875 
Q 45.015625 57.28125 41.125 61.84375 
Q 37.25 66.40625 30.609375 66.40625 
Q 23.96875 66.40625 20.09375 61.84375 
Q 16.21875 57.28125 16.21875 49.421875 
Q 16.21875 41.5 20.09375 36.953125 
Q 23.96875 32.421875 30.609375 32.421875 
z
" id="DejaVuSans-57"/>
      </defs>
      <g transform="translate(361.927638 275.472812)scale(0.08 -0.08)">
       <use transform="translate(0 0.765625)" xlink:href="#DejaVuSans-49"/>
       <use transform="translate(63.623047 0.765625)" xlink:href="#DejaVuSans-48"/>
       <use transform="translate(128.203125 39.046875)scale(0.7)" xlink:href="#DejaVuSans-8722"/>
       <use transform="translate(186.855469 39.046875)scale(0.7)" xlink:href="#DejaVuSans-48"/>
       <use transform="translate(231.391602 39.046875)scale(0.7)" xlink:href="#DejaVuSans-57"/>
      </g>
     </g>
    </g>
    <g id="xtick_7">
     <g id="line2d_7">
      <g>
       <use style="stroke:#000000;stroke-width:0.8;" x="437.419681" xlink:href="#m0e4ded8534" y="262.394062"/>
      </g>
     </g>
     <g id="text_7">
      <!-- $10^{-08}$ -->
      <defs>
       <path d="M 31.78125 34.625 
Q 24.75 34.625 20.71875 30.859375 
Q 16.703125 27.09375 16.703125 20.515625 
Q 16.703125 13.921875 20.71875 10.15625 
Q 24.75 6.390625 31.78125 6.390625 
Q 38.8125 6.390625 42.859375 10.171875 
Q 46.921875 13.96875 46.921875 20.515625 
Q 46.921875 27.09375 42.890625 30.859375 
Q 38.875 34.625 31.78125 34.625 
z
M 21.921875 38.8125 
Q 15.578125 40.375 12.03125 44.71875 
Q 8.5 49.078125 8.5 55.328125 
Q 8.5 64.0625 14.71875 69.140625 
Q 20.953125 74.21875 31.78125 74.21875 
Q 42.671875 74.21875 48.875 69.140625 
Q 55.078125 64.0625 55.078125 55.328125 
Q 55.078125 49.078125 51.53125 44.71875 
Q 48 40.375 41.703125 38.8125 
Q 48.828125 37.15625 52.796875 32.3125 
Q 56.78125 27.484375 56.78125 20.515625 
Q 56.78125 9.90625 50.3125 4.234375 
Q 43.84375 -1.421875 31.78125 -1.421875 
Q 19.734375 -1.421875 13.25 4.234375 
Q 6.78125 9.90625 6.78125 20.515625 
Q 6.78125 27.484375 10.78125 32.3125 
Q 14.796875 37.15625 21.921875 38.8125 
z
M 18.3125 54.390625 
Q 18.3125 48.734375 21.84375 45.5625 
Q 25.390625 42.390625 31.78125 42.390625 
Q 38.140625 42.390625 41.71875 45.5625 
Q 45.3125 48.734375 45.3125 54.390625 
Q 45.3125 60.0625 41.71875 63.234375 
Q 38.140625 66.40625 31.78125 66.40625 
Q 25.390625 66.40625 21.84375 63.234375 
Q 18.3125 60.0625 18.3125 54.390625 
z
" id="DejaVuSans-56"/>
      </defs>
      <g transform="translate(426.259681 275.472812)scale(0.08 -0.08)">
       <use transform="translate(0 0.765625)" xlink:href="#DejaVuSans-49"/>
       <use transform="translate(63.623047 0.765625)" xlink:href="#DejaVuSans-48"/>
       <use transform="translate(128.203125 39.046875)scale(0.7)" xlink:href="#DejaVuSans-8722"/>
       <use transform="translate(186.855469 39.046875)scale(0.7)" xlink:href="#DejaVuSans-48"/>
       <use transform="translate(231.391602 39.046875)scale(0.7)" xlink:href="#DejaVuSans-56"/>
      </g>
     </g>
    </g>
    <g id="xtick_8">
     <g id="line2d_8">
      <g>
       <use style="stroke:#000000;stroke-width:0.8;" x="501.751724" xlink:href="#m0e4ded8534" y="262.394062"/>
      </g>
     </g>
     <g id="text_8">
      <!-- $10^{-07}$ -->
      <defs>
       <path d="M 8.203125 72.90625 
L 55.078125 72.90625 
L 55.078125 68.703125 
L 28.609375 0 
L 18.3125 0 
L 43.21875 64.59375 
L 8.203125 64.59375 
z
" id="DejaVuSans-55"/>
      </defs>
      <g transform="translate(490.591724 275.472812)scale(0.08 -0.08)">
       <use transform="translate(0 0.765625)" xlink:href="#DejaVuSans-49"/>
       <use transform="translate(63.623047 0.765625)" xlink:href="#DejaVuSans-48"/>
       <use transform="translate(128.203125 39.046875)scale(0.7)" xlink:href="#DejaVuSans-8722"/>
       <use transform="translate(186.855469 39.046875)scale(0.7)" xlink:href="#DejaVuSans-48"/>
       <use transform="translate(231.391602 39.046875)scale(0.7)" xlink:href="#DejaVuSans-55"/>
      </g>
     </g>
    </g>
    <g id="xtick_9">
     <g id="line2d_9">
      <g>
       <use style="stroke:#000000;stroke-width:0.8;" x="566.083767" xlink:href="#m0e4ded8534" y="262.394062"/>
      </g>
     </g>
     <g id="text_9">
      <!-- $10^{-06}$ -->
      <defs>
       <path d="M 33.015625 40.375 
Q 26.375 40.375 22.484375 35.828125 
Q 18.609375 31.296875 18.609375 23.390625 
Q 18.609375 15.53125 22.484375 10.953125 
Q 26.375 6.390625 33.015625 6.390625 
Q 39.65625 6.390625 43.53125 10.953125 
Q 47.40625 15.53125 47.40625 23.390625 
Q 47.40625 31.296875 43.53125 35.828125 
Q 39.65625 40.375 33.015625 40.375 
z
M 52.59375 71.296875 
L 52.59375 62.3125 
Q 48.875 64.0625 45.09375 64.984375 
Q 41.3125 65.921875 37.59375 65.921875 
Q 27.828125 65.921875 22.671875 59.328125 
Q 17.53125 52.734375 16.796875 39.40625 
Q 19.671875 43.65625 24.015625 45.921875 
Q 28.375 48.1875 33.59375 48.1875 
Q 44.578125 48.1875 50.953125 41.515625 
Q 57.328125 34.859375 57.328125 23.390625 
Q 57.328125 12.15625 50.6875 5.359375 
Q 44.046875 -1.421875 33.015625 -1.421875 
Q 20.359375 -1.421875 13.671875 8.265625 
Q 6.984375 17.96875 6.984375 36.375 
Q 6.984375 53.65625 15.1875 63.9375 
Q 23.390625 74.21875 37.203125 74.21875 
Q 40.921875 74.21875 44.703125 73.484375 
Q 48.484375 72.75 52.59375 71.296875 
z
" id="DejaVuSans-54"/>
      </defs>
      <g transform="translate(554.923767 275.472812)scale(0.08 -0.08)">
       <use transform="translate(0 0.765625)" xlink:href="#DejaVuSans-49"/>
       <use transform="translate(63.623047 0.765625)" xlink:href="#DejaVuSans-48"/>
       <use transform="translate(128.203125 39.046875)scale(0.7)" xlink:href="#DejaVuSans-8722"/>
       <use transform="translate(186.855469 39.046875)scale(0.7)" xlink:href="#DejaVuSans-48"/>
       <use transform="translate(231.391602 39.046875)scale(0.7)" xlink:href="#DejaVuSans-54"/>
      </g>
     </g>
    </g>
    <g id="xtick_10">
     <g id="line2d_10">
      <g>
       <use style="stroke:#000000;stroke-width:0.8;" x="630.41581" xlink:href="#m0e4ded8534" y="262.394062"/>
      </g>
     </g>
     <g id="text_10">
      <!-- $10^{-05}$ -->
      <defs>
       <path d="M 10.796875 72.90625 
L 49.515625 72.90625 
L 49.515625 64.59375 
L 19.828125 64.59375 
L 19.828125 46.734375 
Q 21.96875 47.46875 24.109375 47.828125 
Q 26.265625 48.1875 28.421875 48.1875 
Q 40.625 48.1875 47.75 41.5 
Q 54.890625 34.8125 54.890625 23.390625 
Q 54.890625 11.625 47.5625 5.09375 
Q 40.234375 -1.421875 26.90625 -1.421875 
Q 22.3125 -1.421875 17.546875 -0.640625 
Q 12.796875 0.140625 7.71875 1.703125 
L 7.71875 11.625 
Q 12.109375 9.234375 16.796875 8.0625 
Q 21.484375 6.890625 26.703125 6.890625 
Q 35.15625 6.890625 40.078125 11.328125 
Q 45.015625 15.765625 45.015625 23.390625 
Q 45.015625 31 40.078125 35.4375 
Q 35.15625 39.890625 26.703125 39.890625 
Q 22.75 39.890625 18.8125 39.015625 
Q 14.890625 38.140625 10.796875 36.28125 
z
" id="DejaVuSans-53"/>
      </defs>
      <g transform="translate(619.25581 275.472812)scale(0.08 -0.08)">
       <use transform="translate(0 0.765625)" xlink:href="#DejaVuSans-49"/>
       <use transform="translate(63.623047 0.765625)" xlink:href="#DejaVuSans-48"/>
       <use transform="translate(128.203125 39.046875)scale(0.7)" xlink:href="#DejaVuSans-8722"/>
       <use transform="translate(186.855469 39.046875)scale(0.7)" xlink:href="#DejaVuSans-48"/>
       <use transform="translate(231.391602 39.046875)scale(0.7)" xlink:href="#DejaVuSans-53"/>
      </g>
     </g>
    </g>
    <g id="xtick_11">
     <g id="line2d_11">
      <g>
       <use style="stroke:#000000;stroke-width:0.8;" x="694.747853" xlink:href="#m0e4ded8534" y="262.394062"/>
      </g>
     </g>
     <g id="text_11">
      <!-- $10^{-04}$ -->
      <g transform="translate(683.587853 275.472812)scale(0.08 -0.08)">
       <use transform="translate(0 0.765625)" xlink:href="#DejaVuSans-49"/>
       <use transform="translate(63.623047 0.765625)" xlink:href="#DejaVuSans-48"/>
       <use transform="translate(128.203125 39.046875)scale(0.7)" xlink:href="#DejaVuSans-8722"/>
       <use transform="translate(186.855469 39.046875)scale(0.7)" xlink:href="#DejaVuSans-48"/>
       <use transform="translate(231.391602 39.046875)scale(0.7)" xlink:href="#DejaVuSans-52"/>
      </g>
     </g>
    </g>
    <g id="text_12">
     <!-- relative error with NumPy "linalg.eig" function -->
     <defs>
      <path d="M 41.109375 46.296875 
Q 39.59375 47.171875 37.8125 47.578125 
Q 36.03125 48 33.890625 48 
Q 26.265625 48 22.1875 43.046875 
Q 18.109375 38.09375 18.109375 28.8125 
L 18.109375 0 
L 9.078125 0 
L 9.078125 54.6875 
L 18.109375 54.6875 
L 18.109375 46.1875 
Q 20.953125 51.171875 25.484375 53.578125 
Q 30.03125 56 36.53125 56 
Q 37.453125 56 38.578125 55.875 
Q 39.703125 55.765625 41.0625 55.515625 
z
" id="DejaVuSans-114"/>
      <path d="M 56.203125 29.59375 
L 56.203125 25.203125 
L 14.890625 25.203125 
Q 15.484375 15.921875 20.484375 11.0625 
Q 25.484375 6.203125 34.421875 6.203125 
Q 39.59375 6.203125 44.453125 7.46875 
Q 49.3125 8.734375 54.109375 11.28125 
L 54.109375 2.78125 
Q 49.265625 0.734375 44.1875 -0.34375 
Q 39.109375 -1.421875 33.890625 -1.421875 
Q 20.796875 -1.421875 13.15625 6.1875 
Q 5.515625 13.8125 5.515625 26.8125 
Q 5.515625 40.234375 12.765625 48.109375 
Q 20.015625 56 32.328125 56 
Q 43.359375 56 49.78125 48.890625 
Q 56.203125 41.796875 56.203125 29.59375 
z
M 47.21875 32.234375 
Q 47.125 39.59375 43.09375 43.984375 
Q 39.0625 48.390625 32.421875 48.390625 
Q 24.90625 48.390625 20.390625 44.140625 
Q 15.875 39.890625 15.1875 32.171875 
z
" id="DejaVuSans-101"/>
      <path d="M 9.421875 75.984375 
L 18.40625 75.984375 
L 18.40625 0 
L 9.421875 0 
z
" id="DejaVuSans-108"/>
      <path d="M 34.28125 27.484375 
Q 23.390625 27.484375 19.1875 25 
Q 14.984375 22.515625 14.984375 16.5 
Q 14.984375 11.71875 18.140625 8.90625 
Q 21.296875 6.109375 26.703125 6.109375 
Q 34.1875 6.109375 38.703125 11.40625 
Q 43.21875 16.703125 43.21875 25.484375 
L 43.21875 27.484375 
z
M 52.203125 31.203125 
L 52.203125 0 
L 43.21875 0 
L 43.21875 8.296875 
Q 40.140625 3.328125 35.546875 0.953125 
Q 30.953125 -1.421875 24.3125 -1.421875 
Q 15.921875 -1.421875 10.953125 3.296875 
Q 6 8.015625 6 15.921875 
Q 6 25.140625 12.171875 29.828125 
Q 18.359375 34.515625 30.609375 34.515625 
L 43.21875 34.515625 
L 43.21875 35.40625 
Q 43.21875 41.609375 39.140625 45 
Q 35.0625 48.390625 27.6875 48.390625 
Q 23 48.390625 18.546875 47.265625 
Q 14.109375 46.140625 10.015625 43.890625 
L 10.015625 52.203125 
Q 14.9375 54.109375 19.578125 55.046875 
Q 24.21875 56 28.609375 56 
Q 40.484375 56 46.34375 49.84375 
Q 52.203125 43.703125 52.203125 31.203125 
z
" id="DejaVuSans-97"/>
      <path d="M 18.3125 70.21875 
L 18.3125 54.6875 
L 36.8125 54.6875 
L 36.8125 47.703125 
L 18.3125 47.703125 
L 18.3125 18.015625 
Q 18.3125 11.328125 20.140625 9.421875 
Q 21.96875 7.515625 27.59375 7.515625 
L 36.8125 7.515625 
L 36.8125 0 
L 27.59375 0 
Q 17.1875 0 13.234375 3.875 
Q 9.28125 7.765625 9.28125 18.015625 
L 9.28125 47.703125 
L 2.6875 47.703125 
L 2.6875 54.6875 
L 9.28125 54.6875 
L 9.28125 70.21875 
z
" id="DejaVuSans-116"/>
      <path d="M 9.421875 54.6875 
L 18.40625 54.6875 
L 18.40625 0 
L 9.421875 0 
z
M 9.421875 75.984375 
L 18.40625 75.984375 
L 18.40625 64.59375 
L 9.421875 64.59375 
z
" id="DejaVuSans-105"/>
      <path d="M 2.984375 54.6875 
L 12.5 54.6875 
L 29.59375 8.796875 
L 46.6875 54.6875 
L 56.203125 54.6875 
L 35.6875 0 
L 23.484375 0 
z
" id="DejaVuSans-118"/>
      <path id="DejaVuSans-32"/>
      <path d="M 30.609375 48.390625 
Q 23.390625 48.390625 19.1875 42.75 
Q 14.984375 37.109375 14.984375 27.296875 
Q 14.984375 17.484375 19.15625 11.84375 
Q 23.34375 6.203125 30.609375 6.203125 
Q 37.796875 6.203125 41.984375 11.859375 
Q 46.1875 17.53125 46.1875 27.296875 
Q 46.1875 37.015625 41.984375 42.703125 
Q 37.796875 48.390625 30.609375 48.390625 
z
M 30.609375 56 
Q 42.328125 56 49.015625 48.375 
Q 55.71875 40.765625 55.71875 27.296875 
Q 55.71875 13.875 49.015625 6.21875 
Q 42.328125 -1.421875 30.609375 -1.421875 
Q 18.84375 -1.421875 12.171875 6.21875 
Q 5.515625 13.875 5.515625 27.296875 
Q 5.515625 40.765625 12.171875 48.375 
Q 18.84375 56 30.609375 56 
z
" id="DejaVuSans-111"/>
      <path d="M 4.203125 54.6875 
L 13.1875 54.6875 
L 24.421875 12.015625 
L 35.59375 54.6875 
L 46.1875 54.6875 
L 57.421875 12.015625 
L 68.609375 54.6875 
L 77.59375 54.6875 
L 63.28125 0 
L 52.6875 0 
L 40.921875 44.828125 
L 29.109375 0 
L 18.5 0 
z
" id="DejaVuSans-119"/>
      <path d="M 54.890625 33.015625 
L 54.890625 0 
L 45.90625 0 
L 45.90625 32.71875 
Q 45.90625 40.484375 42.875 44.328125 
Q 39.84375 48.1875 33.796875 48.1875 
Q 26.515625 48.1875 22.3125 43.546875 
Q 18.109375 38.921875 18.109375 30.90625 
L 18.109375 0 
L 9.078125 0 
L 9.078125 75.984375 
L 18.109375 75.984375 
L 18.109375 46.1875 
Q 21.34375 51.125 25.703125 53.5625 
Q 30.078125 56 35.796875 56 
Q 45.21875 56 50.046875 50.171875 
Q 54.890625 44.34375 54.890625 33.015625 
z
" id="DejaVuSans-104"/>
      <path d="M 9.8125 72.90625 
L 23.09375 72.90625 
L 55.421875 11.921875 
L 55.421875 72.90625 
L 64.984375 72.90625 
L 64.984375 0 
L 51.703125 0 
L 19.390625 60.984375 
L 19.390625 0 
L 9.8125 0 
z
" id="DejaVuSans-78"/>
      <path d="M 8.5 21.578125 
L 8.5 54.6875 
L 17.484375 54.6875 
L 17.484375 21.921875 
Q 17.484375 14.15625 20.5 10.265625 
Q 23.53125 6.390625 29.59375 6.390625 
Q 36.859375 6.390625 41.078125 11.03125 
Q 45.3125 15.671875 45.3125 23.6875 
L 45.3125 54.6875 
L 54.296875 54.6875 
L 54.296875 0 
L 45.3125 0 
L 45.3125 8.40625 
Q 42.046875 3.421875 37.71875 1 
Q 33.40625 -1.421875 27.6875 -1.421875 
Q 18.265625 -1.421875 13.375 4.4375 
Q 8.5 10.296875 8.5 21.578125 
z
M 31.109375 56 
z
" id="DejaVuSans-117"/>
      <path d="M 52 44.1875 
Q 55.375 50.25 60.0625 53.125 
Q 64.75 56 71.09375 56 
Q 79.640625 56 84.28125 50.015625 
Q 88.921875 44.046875 88.921875 33.015625 
L 88.921875 0 
L 79.890625 0 
L 79.890625 32.71875 
Q 79.890625 40.578125 77.09375 44.375 
Q 74.3125 48.1875 68.609375 48.1875 
Q 61.625 48.1875 57.5625 43.546875 
Q 53.515625 38.921875 53.515625 30.90625 
L 53.515625 0 
L 44.484375 0 
L 44.484375 32.71875 
Q 44.484375 40.625 41.703125 44.40625 
Q 38.921875 48.1875 33.109375 48.1875 
Q 26.21875 48.1875 22.15625 43.53125 
Q 18.109375 38.875 18.109375 30.90625 
L 18.109375 0 
L 9.078125 0 
L 9.078125 54.6875 
L 18.109375 54.6875 
L 18.109375 46.1875 
Q 21.1875 51.21875 25.484375 53.609375 
Q 29.78125 56 35.6875 56 
Q 41.65625 56 45.828125 52.96875 
Q 50 49.953125 52 44.1875 
z
" id="DejaVuSans-109"/>
      <path d="M 19.671875 64.796875 
L 19.671875 37.40625 
L 32.078125 37.40625 
Q 38.96875 37.40625 42.71875 40.96875 
Q 46.484375 44.53125 46.484375 51.125 
Q 46.484375 57.671875 42.71875 61.234375 
Q 38.96875 64.796875 32.078125 64.796875 
z
M 9.8125 72.90625 
L 32.078125 72.90625 
Q 44.34375 72.90625 50.609375 67.359375 
Q 56.890625 61.8125 56.890625 51.125 
Q 56.890625 40.328125 50.609375 34.8125 
Q 44.34375 29.296875 32.078125 29.296875 
L 19.671875 29.296875 
L 19.671875 0 
L 9.8125 0 
z
" id="DejaVuSans-80"/>
      <path d="M 32.171875 -5.078125 
Q 28.375 -14.84375 24.75 -17.8125 
Q 21.140625 -20.796875 15.09375 -20.796875 
L 7.90625 -20.796875 
L 7.90625 -13.28125 
L 13.1875 -13.28125 
Q 16.890625 -13.28125 18.9375 -11.515625 
Q 21 -9.765625 23.484375 -3.21875 
L 25.09375 0.875 
L 2.984375 54.6875 
L 12.5 54.6875 
L 29.59375 11.921875 
L 46.6875 54.6875 
L 56.203125 54.6875 
z
" id="DejaVuSans-121"/>
      <path d="M 17.921875 72.90625 
L 17.921875 45.796875 
L 9.625 45.796875 
L 9.625 72.90625 
z
M 36.375 72.90625 
L 36.375 45.796875 
L 28.078125 45.796875 
L 28.078125 72.90625 
z
" id="DejaVuSans-34"/>
      <path d="M 54.890625 33.015625 
L 54.890625 0 
L 45.90625 0 
L 45.90625 32.71875 
Q 45.90625 40.484375 42.875 44.328125 
Q 39.84375 48.1875 33.796875 48.1875 
Q 26.515625 48.1875 22.3125 43.546875 
Q 18.109375 38.921875 18.109375 30.90625 
L 18.109375 0 
L 9.078125 0 
L 9.078125 54.6875 
L 18.109375 54.6875 
L 18.109375 46.1875 
Q 21.34375 51.125 25.703125 53.5625 
Q 30.078125 56 35.796875 56 
Q 45.21875 56 50.046875 50.171875 
Q 54.890625 44.34375 54.890625 33.015625 
z
" id="DejaVuSans-110"/>
      <path d="M 45.40625 27.984375 
Q 45.40625 37.75 41.375 43.109375 
Q 37.359375 48.484375 30.078125 48.484375 
Q 22.859375 48.484375 18.828125 43.109375 
Q 14.796875 37.75 14.796875 27.984375 
Q 14.796875 18.265625 18.828125 12.890625 
Q 22.859375 7.515625 30.078125 7.515625 
Q 37.359375 7.515625 41.375 12.890625 
Q 45.40625 18.265625 45.40625 27.984375 
z
M 54.390625 6.78125 
Q 54.390625 -7.171875 48.1875 -13.984375 
Q 42 -20.796875 29.203125 -20.796875 
Q 24.46875 -20.796875 20.265625 -20.09375 
Q 16.0625 -19.390625 12.109375 -17.921875 
L 12.109375 -9.1875 
Q 16.0625 -11.328125 19.921875 -12.34375 
Q 23.78125 -13.375 27.78125 -13.375 
Q 36.625 -13.375 41.015625 -8.765625 
Q 45.40625 -4.15625 45.40625 5.171875 
L 45.40625 9.625 
Q 42.625 4.78125 38.28125 2.390625 
Q 33.9375 0 27.875 0 
Q 17.828125 0 11.671875 7.65625 
Q 5.515625 15.328125 5.515625 27.984375 
Q 5.515625 40.671875 11.671875 48.328125 
Q 17.828125 56 27.875 56 
Q 33.9375 56 38.28125 53.609375 
Q 42.625 51.21875 45.40625 46.390625 
L 45.40625 54.6875 
L 54.390625 54.6875 
z
" id="DejaVuSans-103"/>
      <path d="M 10.6875 12.40625 
L 21 12.40625 
L 21 0 
L 10.6875 0 
z
" id="DejaVuSans-46"/>
      <path d="M 37.109375 75.984375 
L 37.109375 68.5 
L 28.515625 68.5 
Q 23.6875 68.5 21.796875 66.546875 
Q 19.921875 64.59375 19.921875 59.515625 
L 19.921875 54.6875 
L 34.71875 54.6875 
L 34.71875 47.703125 
L 19.921875 47.703125 
L 19.921875 0 
L 10.890625 0 
L 10.890625 47.703125 
L 2.296875 47.703125 
L 2.296875 54.6875 
L 10.890625 54.6875 
L 10.890625 58.5 
Q 10.890625 67.625 15.140625 71.796875 
Q 19.390625 75.984375 28.609375 75.984375 
z
" id="DejaVuSans-102"/>
      <path d="M 48.78125 52.59375 
L 48.78125 44.1875 
Q 44.96875 46.296875 41.140625 47.34375 
Q 37.3125 48.390625 33.40625 48.390625 
Q 24.65625 48.390625 19.8125 42.84375 
Q 14.984375 37.3125 14.984375 27.296875 
Q 14.984375 17.28125 19.8125 11.734375 
Q 24.65625 6.203125 33.40625 6.203125 
Q 37.3125 6.203125 41.140625 7.25 
Q 44.96875 8.296875 48.78125 10.40625 
L 48.78125 2.09375 
Q 45.015625 0.34375 40.984375 -0.53125 
Q 36.96875 -1.421875 32.421875 -1.421875 
Q 20.0625 -1.421875 12.78125 6.34375 
Q 5.515625 14.109375 5.515625 27.296875 
Q 5.515625 40.671875 12.859375 48.328125 
Q 20.21875 56 33.015625 56 
Q 37.15625 56 41.109375 55.140625 
Q 45.0625 54.296875 48.78125 52.59375 
z
" id="DejaVuSans-99"/>
     </defs>
     <g transform="translate(280.765763 287.215312)scale(0.08 -0.08)">
      <use xlink:href="#DejaVuSans-114"/>
      <use x="41.082031" xlink:href="#DejaVuSans-101"/>
      <use x="102.605469" xlink:href="#DejaVuSans-108"/>
      <use x="130.388672" xlink:href="#DejaVuSans-97"/>
      <use x="191.667969" xlink:href="#DejaVuSans-116"/>
      <use x="230.876953" xlink:href="#DejaVuSans-105"/>
      <use x="258.660156" xlink:href="#DejaVuSans-118"/>
      <use x="317.839844" xlink:href="#DejaVuSans-101"/>
      <use x="379.363281" xlink:href="#DejaVuSans-32"/>
      <use x="411.150391" xlink:href="#DejaVuSans-101"/>
      <use x="472.673828" xlink:href="#DejaVuSans-114"/>
      <use x="513.771484" xlink:href="#DejaVuSans-114"/>
      <use x="554.853516" xlink:href="#DejaVuSans-111"/>
      <use x="616.035156" xlink:href="#DejaVuSans-114"/>
      <use x="657.148438" xlink:href="#DejaVuSans-32"/>
      <use x="688.935547" xlink:href="#DejaVuSans-119"/>
      <use x="770.722656" xlink:href="#DejaVuSans-105"/>
      <use x="798.505859" xlink:href="#DejaVuSans-116"/>
      <use x="837.714844" xlink:href="#DejaVuSans-104"/>
      <use x="901.09375" xlink:href="#DejaVuSans-32"/>
      <use x="932.880859" xlink:href="#DejaVuSans-78"/>
      <use x="1007.685547" xlink:href="#DejaVuSans-117"/>
      <use x="1071.064453" xlink:href="#DejaVuSans-109"/>
      <use x="1168.476562" xlink:href="#DejaVuSans-80"/>
      <use x="1228.779297" xlink:href="#DejaVuSans-121"/>
      <use x="1287.958984" xlink:href="#DejaVuSans-32"/>
      <use x="1319.746094" xlink:href="#DejaVuSans-34"/>
      <use x="1365.742188" xlink:href="#DejaVuSans-108"/>
      <use x="1393.525391" xlink:href="#DejaVuSans-105"/>
      <use x="1421.308594" xlink:href="#DejaVuSans-110"/>
      <use x="1484.6875" xlink:href="#DejaVuSans-97"/>
      <use x="1545.966797" xlink:href="#DejaVuSans-108"/>
      <use x="1573.75" xlink:href="#DejaVuSans-103"/>
      <use x="1637.226562" xlink:href="#DejaVuSans-46"/>
      <use x="1669.013672" xlink:href="#DejaVuSans-101"/>
      <use x="1730.537109" xlink:href="#DejaVuSans-105"/>
      <use x="1758.320312" xlink:href="#DejaVuSans-103"/>
      <use x="1821.796875" xlink:href="#DejaVuSans-34"/>
      <use x="1867.792969" xlink:href="#DejaVuSans-32"/>
      <use x="1899.580078" xlink:href="#DejaVuSans-102"/>
      <use x="1934.785156" xlink:href="#DejaVuSans-117"/>
      <use x="1998.164062" xlink:href="#DejaVuSans-110"/>
      <use x="2061.542969" xlink:href="#DejaVuSans-99"/>
      <use x="2116.523438" xlink:href="#DejaVuSans-116"/>
      <use x="2155.732422" xlink:href="#DejaVuSans-105"/>
      <use x="2183.515625" xlink:href="#DejaVuSans-111"/>
      <use x="2244.697266" xlink:href="#DejaVuSans-110"/>
     </g>
    </g>
   </g>
   <g id="matplotlib.axis_2">
    <g id="ytick_1">
     <g id="line2d_12">
      <defs>
       <path d="M 0 0 
L -3.5 0 
" id="mbcaafee91c" style="stroke:#000000;stroke-width:0.8;"/>
      </defs>
      <g>
       <use style="stroke:#000000;stroke-width:0.8;" x="44.994219" xlink:href="#mbcaafee91c" y="251.243381"/>
      </g>
     </g>
     <g id="text_13">
      <!-- 0% -->
      <defs>
       <path d="M 72.703125 32.078125 
Q 68.453125 32.078125 66.03125 28.46875 
Q 63.625 24.859375 63.625 18.40625 
Q 63.625 12.0625 66.03125 8.421875 
Q 68.453125 4.78125 72.703125 4.78125 
Q 76.859375 4.78125 79.265625 8.421875 
Q 81.6875 12.0625 81.6875 18.40625 
Q 81.6875 24.8125 79.265625 28.4375 
Q 76.859375 32.078125 72.703125 32.078125 
z
M 72.703125 38.28125 
Q 80.421875 38.28125 84.953125 32.90625 
Q 89.5 27.546875 89.5 18.40625 
Q 89.5 9.28125 84.9375 3.921875 
Q 80.375 -1.421875 72.703125 -1.421875 
Q 64.890625 -1.421875 60.34375 3.921875 
Q 55.8125 9.28125 55.8125 18.40625 
Q 55.8125 27.59375 60.375 32.9375 
Q 64.9375 38.28125 72.703125 38.28125 
z
M 22.3125 68.015625 
Q 18.109375 68.015625 15.6875 64.375 
Q 13.28125 60.75 13.28125 54.390625 
Q 13.28125 47.953125 15.671875 44.328125 
Q 18.0625 40.71875 22.3125 40.71875 
Q 26.5625 40.71875 28.96875 44.328125 
Q 31.390625 47.953125 31.390625 54.390625 
Q 31.390625 60.6875 28.953125 64.34375 
Q 26.515625 68.015625 22.3125 68.015625 
z
M 66.40625 74.21875 
L 74.21875 74.21875 
L 28.609375 -1.421875 
L 20.796875 -1.421875 
z
M 22.3125 74.21875 
Q 30.03125 74.21875 34.609375 68.875 
Q 39.203125 63.53125 39.203125 54.390625 
Q 39.203125 45.171875 34.640625 39.84375 
Q 30.078125 34.515625 22.3125 34.515625 
Q 14.546875 34.515625 10.03125 39.859375 
Q 5.515625 45.21875 5.515625 54.390625 
Q 5.515625 63.484375 10.046875 68.84375 
Q 14.59375 74.21875 22.3125 74.21875 
z
" id="DejaVuSans-37"/>
      </defs>
      <g transform="translate(25.302969 254.282756)scale(0.08 -0.08)">
       <use xlink:href="#DejaVuSans-48"/>
       <use x="63.623047" xlink:href="#DejaVuSans-37"/>
      </g>
     </g>
    </g>
    <g id="ytick_2">
     <g id="line2d_13">
      <g>
       <use style="stroke:#000000;stroke-width:0.8;" x="44.994219" xlink:href="#mbcaafee91c" y="206.640653"/>
      </g>
     </g>
     <g id="text_14">
      <!-- 2% -->
      <g transform="translate(25.302969 209.680028)scale(0.08 -0.08)">
       <use xlink:href="#DejaVuSans-50"/>
       <use x="63.623047" xlink:href="#DejaVuSans-37"/>
      </g>
     </g>
    </g>
    <g id="ytick_3">
     <g id="line2d_14">
      <g>
       <use style="stroke:#000000;stroke-width:0.8;" x="44.994219" xlink:href="#mbcaafee91c" y="162.037926"/>
      </g>
     </g>
     <g id="text_15">
      <!-- 4% -->
      <g transform="translate(25.302969 165.077301)scale(0.08 -0.08)">
       <use xlink:href="#DejaVuSans-52"/>
       <use x="63.623047" xlink:href="#DejaVuSans-37"/>
      </g>
     </g>
    </g>
    <g id="ytick_4">
     <g id="line2d_15">
      <g>
       <use style="stroke:#000000;stroke-width:0.8;" x="44.994219" xlink:href="#mbcaafee91c" y="117.435199"/>
      </g>
     </g>
     <g id="text_16">
      <!-- 6% -->
      <g transform="translate(25.302969 120.474574)scale(0.08 -0.08)">
       <use xlink:href="#DejaVuSans-54"/>
       <use x="63.623047" xlink:href="#DejaVuSans-37"/>
      </g>
     </g>
    </g>
    <g id="ytick_5">
     <g id="line2d_16">
      <g>
       <use style="stroke:#000000;stroke-width:0.8;" x="44.994219" xlink:href="#mbcaafee91c" y="72.832472"/>
      </g>
     </g>
     <g id="text_17">
      <!-- 8% -->
      <g transform="translate(25.302969 75.871847)scale(0.08 -0.08)">
       <use xlink:href="#DejaVuSans-56"/>
       <use x="63.623047" xlink:href="#DejaVuSans-37"/>
      </g>
     </g>
    </g>
    <g id="ytick_6">
     <g id="line2d_17">
      <g>
       <use style="stroke:#000000;stroke-width:0.8;" x="44.994219" xlink:href="#mbcaafee91c" y="28.229744"/>
      </g>
     </g>
     <g id="text_18">
      <!-- 10% -->
      <g transform="translate(20.212969 31.269119)scale(0.08 -0.08)">
       <use xlink:href="#DejaVuSans-49"/>
       <use x="63.623047" xlink:href="#DejaVuSans-48"/>
       <use x="127.246094" xlink:href="#DejaVuSans-37"/>
      </g>
     </g>
    </g>
    <g id="text_19">
     <!-- frequency -->
     <defs>
      <path d="M 14.796875 27.296875 
Q 14.796875 17.390625 18.875 11.75 
Q 22.953125 6.109375 30.078125 6.109375 
Q 37.203125 6.109375 41.296875 11.75 
Q 45.40625 17.390625 45.40625 27.296875 
Q 45.40625 37.203125 41.296875 42.84375 
Q 37.203125 48.484375 30.078125 48.484375 
Q 22.953125 48.484375 18.875 42.84375 
Q 14.796875 37.203125 14.796875 27.296875 
z
M 45.40625 8.203125 
Q 42.578125 3.328125 38.25 0.953125 
Q 33.9375 -1.421875 27.875 -1.421875 
Q 17.96875 -1.421875 11.734375 6.484375 
Q 5.515625 14.40625 5.515625 27.296875 
Q 5.515625 40.1875 11.734375 48.09375 
Q 17.96875 56 27.875 56 
Q 33.9375 56 38.25 53.625 
Q 42.578125 51.265625 45.40625 46.390625 
L 45.40625 54.6875 
L 54.390625 54.6875 
L 54.390625 -20.796875 
L 45.40625 -20.796875 
z
" id="DejaVuSans-113"/>
     </defs>
     <g transform="translate(14.549219 159.886562)rotate(-90)scale(0.08 -0.08)">
      <use xlink:href="#DejaVuSans-102"/>
      <use x="35.205078" xlink:href="#DejaVuSans-114"/>
      <use x="76.287109" xlink:href="#DejaVuSans-101"/>
      <use x="137.810547" xlink:href="#DejaVuSans-113"/>
      <use x="201.287109" xlink:href="#DejaVuSans-117"/>
      <use x="264.666016" xlink:href="#DejaVuSans-101"/>
      <use x="326.189453" xlink:href="#DejaVuSans-110"/>
      <use x="389.568359" xlink:href="#DejaVuSans-99"/>
      <use x="444.548828" xlink:href="#DejaVuSans-121"/>
     </g>
    </g>
   </g>
   <g id="LineCollection_1">
    <path clip-path="url(#p95a99b339b)" d="M 295.157234 251.243381 
L 295.157234 106.284517 
" style="fill:none;stroke:#000000;"/>
   </g>
   <g id="LineCollection_2">
    <path clip-path="url(#p95a99b339b)" d="M 295.157234 97.363972 
L 295.157234 61.68179 
" style="fill:none;stroke:#000000;"/>
   </g>
   <g id="LineCollection_3">
    <path clip-path="url(#p95a99b339b)" d="M 275.857621 61.68179 
L 314.456847 61.68179 
" style="fill:none;stroke:#000000;"/>
   </g>
   <g id="LineCollection_4">
    <path clip-path="url(#p95a99b339b)" d="M 275.597315 251.243381 
L 275.597315 95.133835 
" style="fill:none;stroke:#000000;"/>
   </g>
   <g id="LineCollection_5">
    <path clip-path="url(#p95a99b339b)" d="M 319.528218 251.243381 
L 319.528218 95.133835 
" style="fill:none;stroke:#000000;"/>
   </g>
   <g id="LineCollection_6">
    <path clip-path="url(#p95a99b339b)" d="M 275.597315 101.824244 
L 319.528218 101.824244 
" style="fill:none;stroke:#000000;"/>
   </g>
   <g id="LineCollection_7">
    <path clip-path="url(#p95a99b339b)" d="M 209.70096 251.243381 
L 209.70096 162.037926 
" style="fill:none;stroke:#000000;"/>
   </g>
   <g id="LineCollection_8">
    <path clip-path="url(#p95a99b339b)" d="M 209.70096 168.728335 
L 191.603673 168.728335 
" style="fill:none;stroke:#000000;"/>
   </g>
   <g id="LineCollection_9">
    <path clip-path="url(#p95a99b339b)" d="M 385.424573 251.243381 
L 385.424573 162.037926 
" style="fill:none;stroke:#000000;"/>
   </g>
   <g id="LineCollection_10">
    <path clip-path="url(#p95a99b339b)" d="M 385.424573 168.728335 
L 534.784649 168.728335 
" style="fill:none;stroke:#000000;"/>
   </g>
   <g id="text_20">
    <!-- median -->
    <defs>
     <path d="M 45.40625 46.390625 
L 45.40625 75.984375 
L 54.390625 75.984375 
L 54.390625 0 
L 45.40625 0 
L 45.40625 8.203125 
Q 42.578125 3.328125 38.25 0.953125 
Q 33.9375 -1.421875 27.875 -1.421875 
Q 17.96875 -1.421875 11.734375 6.484375 
Q 5.515625 14.40625 5.515625 27.296875 
Q 5.515625 40.1875 11.734375 48.09375 
Q 17.96875 56 27.875 56 
Q 33.9375 56 38.25 53.625 
Q 42.578125 51.265625 45.40625 46.390625 
z
M 14.796875 27.296875 
Q 14.796875 17.390625 18.875 11.75 
Q 22.953125 6.109375 30.078125 6.109375 
Q 37.203125 6.109375 41.296875 11.75 
Q 45.40625 17.390625 45.40625 27.296875 
Q 45.40625 37.203125 41.296875 42.84375 
Q 37.203125 48.484375 30.078125 48.484375 
Q 22.953125 48.484375 18.875 42.84375 
Q 14.796875 37.203125 14.796875 27.296875 
z
" id="DejaVuSans-100"/>
    </defs>
    <g transform="translate(280.162859 57.787903)scale(0.08 -0.08)">
     <use xlink:href="#DejaVuSans-109"/>
     <use x="97.412109" xlink:href="#DejaVuSans-101"/>
     <use x="158.935547" xlink:href="#DejaVuSans-100"/>
     <use x="222.412109" xlink:href="#DejaVuSans-105"/>
     <use x="250.195312" xlink:href="#DejaVuSans-97"/>
     <use x="311.474609" xlink:href="#DejaVuSans-110"/>
    </g>
   </g>
   <g id="text_21">
    <!-- interquartile range -->
    <g transform="translate(325.961422 104.031744)scale(0.08 -0.08)">
     <use xlink:href="#DejaVuSans-105"/>
     <use x="27.783203" xlink:href="#DejaVuSans-110"/>
     <use x="91.162109" xlink:href="#DejaVuSans-116"/>
     <use x="130.371094" xlink:href="#DejaVuSans-101"/>
     <use x="191.894531" xlink:href="#DejaVuSans-114"/>
     <use x="232.992188" xlink:href="#DejaVuSans-113"/>
     <use x="296.46875" xlink:href="#DejaVuSans-117"/>
     <use x="359.847656" xlink:href="#DejaVuSans-97"/>
     <use x="421.126953" xlink:href="#DejaVuSans-114"/>
     <use x="462.240234" xlink:href="#DejaVuSans-116"/>
     <use x="501.449219" xlink:href="#DejaVuSans-105"/>
     <use x="529.232422" xlink:href="#DejaVuSans-108"/>
     <use x="557.015625" xlink:href="#DejaVuSans-101"/>
     <use x="618.539062" xlink:href="#DejaVuSans-32"/>
     <use x="650.326172" xlink:href="#DejaVuSans-114"/>
     <use x="691.439453" xlink:href="#DejaVuSans-97"/>
     <use x="752.71875" xlink:href="#DejaVuSans-110"/>
     <use x="816.097656" xlink:href="#DejaVuSans-103"/>
     <use x="879.574219" xlink:href="#DejaVuSans-101"/>
    </g>
   </g>
   <g id="text_22">
    <!-- outlier range -->
    <g transform="translate(133.607968 170.935835)scale(0.08 -0.08)">
     <use xlink:href="#DejaVuSans-111"/>
     <use x="61.181641" xlink:href="#DejaVuSans-117"/>
     <use x="124.560547" xlink:href="#DejaVuSans-116"/>
     <use x="163.769531" xlink:href="#DejaVuSans-108"/>
     <use x="191.552734" xlink:href="#DejaVuSans-105"/>
     <use x="219.335938" xlink:href="#DejaVuSans-101"/>
     <use x="280.859375" xlink:href="#DejaVuSans-114"/>
     <use x="321.972656" xlink:href="#DejaVuSans-32"/>
     <use x="353.759766" xlink:href="#DejaVuSans-114"/>
     <use x="394.873047" xlink:href="#DejaVuSans-97"/>
     <use x="456.152344" xlink:href="#DejaVuSans-110"/>
     <use x="519.53125" xlink:href="#DejaVuSans-103"/>
     <use x="583.007812" xlink:href="#DejaVuSans-101"/>
    </g>
   </g>
   <g id="text_23">
    <!-- outlier range -->
    <g transform="translate(541.217853 170.935835)scale(0.08 -0.08)">
     <use xlink:href="#DejaVuSans-111"/>
     <use x="61.181641" xlink:href="#DejaVuSans-117"/>
     <use x="124.560547" xlink:href="#DejaVuSans-116"/>
     <use x="163.769531" xlink:href="#DejaVuSans-108"/>
     <use x="191.552734" xlink:href="#DejaVuSans-105"/>
     <use x="219.335938" xlink:href="#DejaVuSans-101"/>
     <use x="280.859375" xlink:href="#DejaVuSans-114"/>
     <use x="321.972656" xlink:href="#DejaVuSans-32"/>
     <use x="353.759766" xlink:href="#DejaVuSans-114"/>
     <use x="394.873047" xlink:href="#DejaVuSans-97"/>
     <use x="456.152344" xlink:href="#DejaVuSans-110"/>
     <use x="519.53125" xlink:href="#DejaVuSans-103"/>
     <use x="583.007812" xlink:href="#DejaVuSans-101"/>
    </g>
   </g>
   <g id="patch_3">
    <path d="M 44.994219 262.394062 
L 44.994219 17.079062 
" style="fill:none;stroke:#000000;stroke-linecap:square;stroke-linejoin:miter;stroke-width:0.8;"/>
   </g>
   <g id="patch_4">
    <path d="M 701.181057 262.394062 
L 701.181057 17.079062 
" style="fill:none;stroke:#000000;stroke-linecap:square;stroke-linejoin:miter;stroke-width:0.8;"/>
   </g>
   <g id="patch_5">
    <path d="M 44.994219 262.394062 
L 701.181057 262.394062 
" style="fill:none;stroke:#000000;stroke-linecap:square;stroke-linejoin:miter;stroke-width:0.8;"/>
   </g>
   <g id="patch_6">
    <path d="M 44.994219 17.079062 
L 701.181057 17.079062 
" style="fill:none;stroke:#000000;stroke-linecap:square;stroke-linejoin:miter;stroke-width:0.8;"/>
   </g>
   <g id="PolyCollection_1">
    <defs>
     <path d="M 663.448735 -327.435682 
L 663.448735 -330.790994 
L 657.382986 -330.978257 
L 651.317237 -331.031465 
L 645.251488 -330.944626 
L 639.185739 -330.727493 
L 633.11999 -330.403823 
L 627.054241 -330.007234 
L 620.988492 -329.575605 
L 614.922743 -329.145281 
L 608.856994 -328.746265 
L 602.791245 -328.399244 
L 596.725496 -328.11474 
L 590.659747 -327.89416 
L 584.593998 -327.732095 
L 578.528249 -327.619098 
L 572.462501 -327.544263 
L 566.396752 -327.497154 
L 560.331003 -327.468955 
L 554.265254 -327.4529 
L 548.199505 -327.444215 
L 542.133756 -327.439776 
L 536.068007 -327.437699 
L 530.002258 -327.436974 
L 523.936509 -327.437214 
L 517.87076 -327.438537 
L 511.805011 -327.441594 
L 505.739262 -327.447726 
L 499.673513 -327.459222 
L 493.607764 -327.479636 
L 487.542015 -327.514043 
L 481.476266 -327.569097 
L 475.410517 -327.65271 
L 469.344768 -327.773237 
L 463.279019 -327.938189 
L 457.21327 -328.152758 
L 451.147521 -328.418705 
L 445.081772 -328.734394 
L 439.016023 -329.096681 
L 432.950274 -329.505119 
L 426.884525 -329.968329 
L 420.818776 -330.511794 
L 414.753027 -331.185845 
L 408.687278 -332.0724 
L 402.621529 -333.289089 
L 396.55578 -334.989425 
L 390.490031 -337.35762 
L 384.424282 -340.596523 
L 378.358533 -344.907328 
L 372.292784 -350.460895 
L 366.227035 -357.362806 
L 360.161286 -365.617463 
L 354.095537 -375.099148 
L 348.029788 -385.538671 
L 341.964039 -396.531839 
L 335.898291 -407.570754 
L 329.832542 -418.092671 
L 323.766793 -427.53629 
L 317.701044 -435.394164 
L 311.635295 -441.252875 
L 305.569546 -444.818185 
L 299.503797 -445.927801 
L 293.438048 -444.556846 
L 287.372299 -440.819789 
L 281.30655 -434.968442 
L 275.240801 -427.381666 
L 269.175052 -418.541149 
L 263.109303 -408.990392 
L 257.043554 -399.279637 
L 250.977805 -389.905534 
L 244.912056 -381.257813 
L 238.846307 -373.584673 
L 232.780558 -366.984031 
L 226.714809 -361.420998 
L 220.64906 -356.765378 
L 214.583311 -352.838623 
L 208.517562 -349.458818 
L 202.451813 -346.4745 
L 196.386064 -343.782605 
L 190.320315 -341.330632 
L 184.254566 -339.106932 
L 178.188817 -337.124809 
L 172.123068 -335.405885 
L 166.057319 -333.966571 
L 159.99157 -332.809454 
L 153.925821 -331.919783 
L 147.860072 -331.266342 
L 141.794323 -330.805682 
L 135.728574 -330.48859 
L 129.662825 -330.267508 
L 123.597076 -330.103371 
L 117.531327 -329.970244 
L 111.465578 -329.856505 
L 105.39983 -329.762195 
L 99.334081 -329.693329 
L 93.268332 -329.655014 
L 87.202583 -329.645669 
L 81.136834 -329.654277 
L 75.071085 -329.661529 
L 69.005336 -329.644318 
L 62.939587 -329.581923 
L 62.939587 -327.435682 
L 62.939587 -327.435682 
L 69.005336 -327.435682 
L 75.071085 -327.435682 
L 81.136834 -327.435682 
L 87.202583 -327.435682 
L 93.268332 -327.435682 
L 99.334081 -327.435682 
L 105.39983 -327.435682 
L 111.465578 -327.435682 
L 117.531327 -327.435682 
L 123.597076 -327.435682 
L 129.662825 -327.435682 
L 135.728574 -327.435682 
L 141.794323 -327.435682 
L 147.860072 -327.435682 
L 153.925821 -327.435682 
L 159.99157 -327.435682 
L 166.057319 -327.435682 
L 172.123068 -327.435682 
L 178.188817 -327.435682 
L 184.254566 -327.435682 
L 190.320315 -327.435682 
L 196.386064 -327.435682 
L 202.451813 -327.435682 
L 208.517562 -327.435682 
L 214.583311 -327.435682 
L 220.64906 -327.435682 
L 226.714809 -327.435682 
L 232.780558 -327.435682 
L 238.846307 -327.435682 
L 244.912056 -327.435682 
L 250.977805 -327.435682 
L 257.043554 -327.435682 
L 263.109303 -327.435682 
L 269.175052 -327.435682 
L 275.240801 -327.435682 
L 281.30655 -327.435682 
L 287.372299 -327.435682 
L 293.438048 -327.435682 
L 299.503797 -327.435682 
L 305.569546 -327.435682 
L 311.635295 -327.435682 
L 317.701044 -327.435682 
L 323.766793 -327.435682 
L 329.832542 -327.435682 
L 335.898291 -327.435682 
L 341.964039 -327.435682 
L 348.029788 -327.435682 
L 354.095537 -327.435682 
L 360.161286 -327.435682 
L 366.227035 -327.435682 
L 372.292784 -327.435682 
L 378.358533 -327.435682 
L 384.424282 -327.435682 
L 390.490031 -327.435682 
L 396.55578 -327.435682 
L 402.621529 -327.435682 
L 408.687278 -327.435682 
L 414.753027 -327.435682 
L 420.818776 -327.435682 
L 426.884525 -327.435682 
L 432.950274 -327.435682 
L 439.016023 -327.435682 
L 445.081772 -327.435682 
L 451.147521 -327.435682 
L 457.21327 -327.435682 
L 463.279019 -327.435682 
L 469.344768 -327.435682 
L 475.410517 -327.435682 
L 481.476266 -327.435682 
L 487.542015 -327.435682 
L 493.607764 -327.435682 
L 499.673513 -327.435682 
L 505.739262 -327.435682 
L 511.805011 -327.435682 
L 517.87076 -327.435682 
L 523.936509 -327.435682 
L 530.002258 -327.435682 
L 536.068007 -327.435682 
L 542.133756 -327.435682 
L 548.199505 -327.435682 
L 554.265254 -327.435682 
L 560.331003 -327.435682 
L 566.396752 -327.435682 
L 572.462501 -327.435682 
L 578.528249 -327.435682 
L 584.593998 -327.435682 
L 590.659747 -327.435682 
L 596.725496 -327.435682 
L 602.791245 -327.435682 
L 608.856994 -327.435682 
L 614.922743 -327.435682 
L 620.988492 -327.435682 
L 627.054241 -327.435682 
L 633.11999 -327.435682 
L 639.185739 -327.435682 
L 645.251488 -327.435682 
L 651.317237 -327.435682 
L 657.382986 -327.435682 
L 663.448735 -327.435682 
z
" id="ma80007f131" style="stroke:#b1ccdf;stroke-opacity:0.75;"/>
    </defs>
    <g clip-path="url(#p95a99b339b)">
     <use style="fill:#b1ccdf;fill-opacity:0.75;stroke:#b1ccdf;stroke-opacity:0.75;" x="0" xlink:href="#ma80007f131" y="578.679062"/>
    </g>
   </g>
   <g id="line2d_18">
    <path clip-path="url(#p95a99b339b)" d="M 663.448735 247.888069 
L 657.382986 247.700806 
L 651.317237 247.647597 
L 645.251488 247.734436 
L 639.185739 247.95157 
L 633.11999 248.275239 
L 627.054241 248.671828 
L 620.988492 249.103458 
L 614.922743 249.533782 
L 608.856994 249.932797 
L 602.791245 250.279819 
L 596.725496 250.564322 
L 590.659747 250.784902 
L 584.593998 250.946968 
L 578.528249 251.059964 
L 572.462501 251.1348 
L 566.396752 251.181908 
L 560.331003 251.210108 
L 554.265254 251.226162 
L 548.199505 251.234847 
L 542.133756 251.239287 
L 536.068007 251.241364 
L 530.002258 251.242089 
L 523.936509 251.241849 
L 517.87076 251.240526 
L 511.805011 251.237468 
L 505.739262 251.231336 
L 499.673513 251.21984 
L 493.607764 251.199426 
L 487.542015 251.165019 
L 481.476266 251.109966 
L 475.410517 251.026353 
L 469.344768 250.905826 
L 463.279019 250.740873 
L 457.21327 250.526305 
L 451.147521 250.260357 
L 445.081772 249.944669 
L 439.016023 249.582381 
L 432.950274 249.173944 
L 426.884525 248.710734 
L 420.818776 248.167268 
L 414.753027 247.493218 
L 408.687278 246.606663 
L 402.621529 245.389973 
L 396.55578 243.689638 
L 390.490031 241.321443 
L 384.424282 238.08254 
L 378.358533 233.771734 
L 372.292784 228.218168 
L 366.227035 221.316257 
L 360.161286 213.0616 
L 354.095537 203.579915 
L 348.029788 193.140391 
L 341.964039 182.147224 
L 335.898291 171.108309 
L 329.832542 160.586391 
L 323.766793 151.142772 
L 317.701044 143.284898 
L 311.635295 137.426188 
L 305.569546 133.860877 
L 299.503797 132.751262 
L 293.438048 134.122216 
L 287.372299 137.859273 
L 281.30655 143.71062 
L 275.240801 151.297397 
L 269.175052 160.137913 
L 263.109303 169.68867 
L 257.043554 179.399425 
L 250.977805 188.773529 
L 244.912056 197.42125 
L 238.846307 205.09439 
L 232.780558 211.695032 
L 226.714809 217.258064 
L 220.64906 221.913685 
L 214.583311 225.840439 
L 208.517562 229.220244 
L 202.451813 232.204562 
L 196.386064 234.896457 
L 190.320315 237.348431 
L 184.254566 239.572131 
L 178.188817 241.554254 
L 172.123068 243.273178 
L 166.057319 244.712492 
L 159.99157 245.869609 
L 153.925821 246.75928 
L 147.860072 247.412721 
L 141.794323 247.87338 
L 135.728574 248.190473 
L 129.662825 248.411554 
L 123.597076 248.575691 
L 117.531327 248.708819 
L 111.465578 248.822558 
L 105.39983 248.916868 
L 99.334081 248.985733 
L 93.268332 249.024048 
L 87.202583 249.033394 
L 81.136834 249.024785 
L 75.071085 249.017533 
L 69.005336 249.034745 
L 62.939587 249.09714 
" style="fill:none;stroke:#81b8df;stroke-linecap:square;stroke-width:1.5;"/>
   </g>
  </g>
  <g id="axes_2">
   <g id="patch_7">
    <path d="M 44.994219 544.994062 
L 701.181057 544.994062 
L 701.181057 299.679062 
L 44.994219 299.679062 
z
" style="fill:#ffffff;"/>
   </g>
   <g id="PolyCollection_2">
    <defs>
     <path d="M 62.939587 -247.497883 
L 62.939587 -162.965979 
L 123.16269 -158.652794 
L 173.7103 -154.662257 
L 198.426783 -152.461691 
L 200.75085 -152.241594 
L 210.133367 -151.3238 
L 214.344167 -150.894884 
L 216.858351 -150.633165 
L 221.864471 -150.098444 
L 223.991652 -149.86536 
L 233.67634 -148.754188 
L 238.403271 -148.178325 
L 247.521182 -146.994165 
L 254.118543 -146.067965 
L 254.480347 -146.015299 
L 255.4809 -145.868585 
L 257.233246 -145.607784 
L 259.939678 -145.195024 
L 264.153684 -144.526986 
L 264.174954 -144.523533 
L 266.476771 -144.144793 
L 267.833803 -143.916758 
L 271.298234 -143.318028 
L 274.927466 -142.66423 
L 275.100364 -142.632382 
L 275.762965 -142.509728 
L 275.806881 -142.501565 
L 276.498137 -142.372517 
L 276.990744 -142.279912 
L 278.803001 -141.934574 
L 280.312157 -141.641335 
L 280.536873 -141.597227 
L 281.256374 -141.455215 
L 281.698568 -141.367344 
L 282.276199 -141.251874 
L 282.606187 -141.185558 
L 283.551687 -140.994134 
L 283.838745 -140.935601 
L 285.924933 -140.504327 
L 286.359339 -140.413214 
L 286.847904 -140.3102 
L 287.215374 -140.232339 
L 288.115262 -140.040286 
L 288.12474 -140.038253 
L 288.275961 -140.005783 
L 289.996691 -139.632386 
L 290.293769 -139.567187 
L 290.486801 -139.524707 
L 293.878501 -138.763318 
L 294.761088 -138.560523 
L 295.553379 -138.37683 
L 296.207316 -138.224039 
L 297.014812 -138.033905 
L 302.391686 -136.726622 
L 302.913089 -136.596056 
L 303.88105 -136.351897 
L 304.185763 -136.274562 
L 304.356605 -136.231103 
L 304.582685 -136.173484 
L 307.224976 -135.490874 
L 307.946123 -135.30165 
L 308.236896 -135.225002 
L 308.769924 -135.083971 
L 310.589201 -134.597555 
L 310.81763 -134.535931 
L 311.228474 -134.424788 
L 313.137562 -133.903204 
L 314.741911 -133.458422 
L 315.200347 -133.330258 
L 315.910887 -133.130685 
L 316.033622 -133.096098 
L 317.383963 -132.713368 
L 317.678553 -132.62934 
L 319.165531 -132.202326 
L 319.386031 -132.1386 
L 319.954779 -131.97375 
L 321.859704 -131.416653 
L 322.3382 -131.275531 
L 322.579857 -131.204081 
L 324.161273 -130.733579 
L 326.25569 -130.102778 
L 326.615839 -129.993444 
L 330.744164 -128.722681 
L 330.86734 -128.684283 
L 331.251785 -128.564266 
L 331.934971 -128.350336 
L 332.034028 -128.31925 
L 332.695954 -128.111078 
L 334.587592 -127.511995 
L 336.691147 -126.838735 
L 336.860293 -126.784284 
L 338.189105 -126.354918 
L 338.531053 -126.243976 
L 343.72156 -124.538176 
L 349.752947 -122.508429 
L 366.530179 -116.639476 
L 374.469694 -113.770075 
L 416.633465 -97.901653 
L 640.655579 -8.379572 
L 663.448735 0.862926 
L 663.448735 -128.591583 
L 663.448735 -128.591583 
L 640.655579 -130.080691 
L 416.633465 -146.034003 
L 374.469694 -150.017372 
L 366.530179 -150.8861 
L 349.752947 -152.9163 
L 343.72156 -153.726286 
L 338.531053 -154.464311 
L 338.189105 -154.514366 
L 336.860293 -154.71064 
L 336.691147 -154.735826 
L 334.587592 -155.052976 
L 332.695954 -155.344525 
L 332.034028 -155.448004 
L 331.934971 -155.463556 
L 331.251785 -155.571288 
L 330.86734 -155.632278 
L 330.744164 -155.651875 
L 326.615839 -156.324833 
L 326.25569 -156.385067 
L 324.161273 -156.74037 
L 322.579857 -157.014441 
L 322.3382 -157.056769 
L 321.859704 -157.140935 
L 319.954779 -157.480726 
L 319.386031 -157.583657 
L 319.165531 -157.623749 
L 317.678553 -157.896842 
L 317.383963 -157.951514 
L 316.033622 -158.20456 
L 315.910887 -158.227759 
L 315.200347 -158.362727 
L 314.741911 -158.450407 
L 313.137562 -158.760994 
L 311.228474 -159.138257 
L 310.81763 -159.220551 
L 310.589201 -159.266477 
L 308.769924 -159.636623 
L 308.236896 -159.746556 
L 307.946123 -159.806811 
L 307.224976 -159.957122 
L 304.582685 -160.51857 
L 304.356605 -160.567395 
L 304.185763 -160.604374 
L 303.88105 -160.670506 
L 302.913089 -160.882088 
L 302.391686 -160.997011 
L 297.014812 -162.2213 
L 296.207316 -162.411355 
L 295.553379 -162.566455 
L 294.761088 -162.755792 
L 293.878501 -162.968542 
L 290.486801 -163.804054 
L 290.293769 -163.852458 
L 289.996691 -163.927131 
L 288.275961 -164.363898 
L 288.12474 -164.402627 
L 288.115262 -164.405056 
L 287.215374 -164.636694 
L 286.847904 -164.731847 
L 286.359339 -164.858862 
L 285.924933 -164.972278 
L 283.838745 -165.523236 
L 283.551687 -165.599857 
L 282.606187 -165.853599 
L 282.276199 -165.94265 
L 281.698568 -166.099144 
L 281.256374 -166.219468 
L 280.536873 -166.416217 
L 280.312157 -166.47791 
L 278.803001 -166.895221 
L 276.990744 -167.40314 
L 276.498137 -167.542467 
L 275.806881 -167.738881 
L 275.762965 -167.751394 
L 275.100364 -167.94071 
L 274.927466 -167.990267 
L 271.298234 -169.045206 
L 267.833803 -170.077619 
L 266.476771 -170.488509 
L 264.174954 -171.193524 
L 264.153684 -171.200086 
L 259.939678 -172.51611 
L 257.233246 -173.377608 
L 255.4809 -173.941857 
L 254.480347 -174.266229 
L 254.118543 -174.38391 
L 247.521182 -176.563918 
L 238.403271 -179.672706 
L 233.67634 -181.322403 
L 223.991652 -184.771033 
L 221.864471 -185.539481 
L 216.858351 -187.361769 
L 214.344167 -188.283794 
L 210.133367 -189.83743 
L 200.75085 -193.337168 
L 198.426783 -194.211301 
L 173.7103 -203.647894 
L 123.16269 -223.456476 
L 62.939587 -247.497883 
z
" id="m7f7b9012b0" style="stroke:#b1ccdf;stroke-opacity:0.75;"/>
    </defs>
    <g clip-path="url(#pce5fa8ebae)">
     <use style="fill:#b1ccdf;fill-opacity:0.75;stroke:#b1ccdf;stroke-opacity:0.75;" x="0" xlink:href="#m7f7b9012b0" y="578.679062"/>
    </g>
   </g>
   <g id="matplotlib.axis_3">
    <g id="xtick_12">
     <g id="line2d_19">
      <g>
       <use style="stroke:#000000;stroke-width:0.8;" x="51.427423" xlink:href="#m0e4ded8534" y="544.994062"/>
      </g>
     </g>
     <g id="text_24">
      <!-- $10^{-14}$ -->
      <g transform="translate(40.267423 558.072812)scale(0.08 -0.08)">
       <use transform="translate(0 0.684375)" xlink:href="#DejaVuSans-49"/>
       <use transform="translate(63.623047 0.684375)" xlink:href="#DejaVuSans-48"/>
       <use transform="translate(128.203125 38.965625)scale(0.7)" xlink:href="#DejaVuSans-8722"/>
       <use transform="translate(186.855469 38.965625)scale(0.7)" xlink:href="#DejaVuSans-49"/>
       <use transform="translate(231.391602 38.965625)scale(0.7)" xlink:href="#DejaVuSans-52"/>
      </g>
     </g>
    </g>
    <g id="xtick_13">
     <g id="line2d_20">
      <g>
       <use style="stroke:#000000;stroke-width:0.8;" x="115.759466" xlink:href="#m0e4ded8534" y="544.994062"/>
      </g>
     </g>
     <g id="text_25">
      <!-- $10^{-13}$ -->
      <g transform="translate(104.599466 558.072812)scale(0.08 -0.08)">
       <use transform="translate(0 0.765625)" xlink:href="#DejaVuSans-49"/>
       <use transform="translate(63.623047 0.765625)" xlink:href="#DejaVuSans-48"/>
       <use transform="translate(128.203125 39.046875)scale(0.7)" xlink:href="#DejaVuSans-8722"/>
       <use transform="translate(186.855469 39.046875)scale(0.7)" xlink:href="#DejaVuSans-49"/>
       <use transform="translate(231.391602 39.046875)scale(0.7)" xlink:href="#DejaVuSans-51"/>
      </g>
     </g>
    </g>
    <g id="xtick_14">
     <g id="line2d_21">
      <g>
       <use style="stroke:#000000;stroke-width:0.8;" x="180.091509" xlink:href="#m0e4ded8534" y="544.994062"/>
      </g>
     </g>
     <g id="text_26">
      <!-- $10^{-12}$ -->
      <g transform="translate(168.931509 558.072812)scale(0.08 -0.08)">
       <use transform="translate(0 0.765625)" xlink:href="#DejaVuSans-49"/>
       <use transform="translate(63.623047 0.765625)" xlink:href="#DejaVuSans-48"/>
       <use transform="translate(128.203125 39.046875)scale(0.7)" xlink:href="#DejaVuSans-8722"/>
       <use transform="translate(186.855469 39.046875)scale(0.7)" xlink:href="#DejaVuSans-49"/>
       <use transform="translate(231.391602 39.046875)scale(0.7)" xlink:href="#DejaVuSans-50"/>
      </g>
     </g>
    </g>
    <g id="xtick_15">
     <g id="line2d_22">
      <g>
       <use style="stroke:#000000;stroke-width:0.8;" x="244.423552" xlink:href="#m0e4ded8534" y="544.994062"/>
      </g>
     </g>
     <g id="text_27">
      <!-- $10^{-11}$ -->
      <g transform="translate(233.263552 558.072812)scale(0.08 -0.08)">
       <use transform="translate(0 0.684375)" xlink:href="#DejaVuSans-49"/>
       <use transform="translate(63.623047 0.684375)" xlink:href="#DejaVuSans-48"/>
       <use transform="translate(128.203125 38.965625)scale(0.7)" xlink:href="#DejaVuSans-8722"/>
       <use transform="translate(186.855469 38.965625)scale(0.7)" xlink:href="#DejaVuSans-49"/>
       <use transform="translate(231.391602 38.965625)scale(0.7)" xlink:href="#DejaVuSans-49"/>
      </g>
     </g>
    </g>
    <g id="xtick_16">
     <g id="line2d_23">
      <g>
       <use style="stroke:#000000;stroke-width:0.8;" x="308.755595" xlink:href="#m0e4ded8534" y="544.994062"/>
      </g>
     </g>
     <g id="text_28">
      <!-- $10^{-10}$ -->
      <g transform="translate(297.595595 558.072812)scale(0.08 -0.08)">
       <use transform="translate(0 0.765625)" xlink:href="#DejaVuSans-49"/>
       <use transform="translate(63.623047 0.765625)" xlink:href="#DejaVuSans-48"/>
       <use transform="translate(128.203125 39.046875)scale(0.7)" xlink:href="#DejaVuSans-8722"/>
       <use transform="translate(186.855469 39.046875)scale(0.7)" xlink:href="#DejaVuSans-49"/>
       <use transform="translate(231.391602 39.046875)scale(0.7)" xlink:href="#DejaVuSans-48"/>
      </g>
     </g>
    </g>
    <g id="xtick_17">
     <g id="line2d_24">
      <g>
       <use style="stroke:#000000;stroke-width:0.8;" x="373.087638" xlink:href="#m0e4ded8534" y="544.994062"/>
      </g>
     </g>
     <g id="text_29">
      <!-- $10^{-09}$ -->
      <g transform="translate(361.927638 558.072812)scale(0.08 -0.08)">
       <use transform="translate(0 0.765625)" xlink:href="#DejaVuSans-49"/>
       <use transform="translate(63.623047 0.765625)" xlink:href="#DejaVuSans-48"/>
       <use transform="translate(128.203125 39.046875)scale(0.7)" xlink:href="#DejaVuSans-8722"/>
       <use transform="translate(186.855469 39.046875)scale(0.7)" xlink:href="#DejaVuSans-48"/>
       <use transform="translate(231.391602 39.046875)scale(0.7)" xlink:href="#DejaVuSans-57"/>
      </g>
     </g>
    </g>
    <g id="xtick_18">
     <g id="line2d_25">
      <g>
       <use style="stroke:#000000;stroke-width:0.8;" x="437.419681" xlink:href="#m0e4ded8534" y="544.994062"/>
      </g>
     </g>
     <g id="text_30">
      <!-- $10^{-08}$ -->
      <g transform="translate(426.259681 558.072812)scale(0.08 -0.08)">
       <use transform="translate(0 0.765625)" xlink:href="#DejaVuSans-49"/>
       <use transform="translate(63.623047 0.765625)" xlink:href="#DejaVuSans-48"/>
       <use transform="translate(128.203125 39.046875)scale(0.7)" xlink:href="#DejaVuSans-8722"/>
       <use transform="translate(186.855469 39.046875)scale(0.7)" xlink:href="#DejaVuSans-48"/>
       <use transform="translate(231.391602 39.046875)scale(0.7)" xlink:href="#DejaVuSans-56"/>
      </g>
     </g>
    </g>
    <g id="xtick_19">
     <g id="line2d_26">
      <g>
       <use style="stroke:#000000;stroke-width:0.8;" x="501.751724" xlink:href="#m0e4ded8534" y="544.994062"/>
      </g>
     </g>
     <g id="text_31">
      <!-- $10^{-07}$ -->
      <g transform="translate(490.591724 558.072812)scale(0.08 -0.08)">
       <use transform="translate(0 0.765625)" xlink:href="#DejaVuSans-49"/>
       <use transform="translate(63.623047 0.765625)" xlink:href="#DejaVuSans-48"/>
       <use transform="translate(128.203125 39.046875)scale(0.7)" xlink:href="#DejaVuSans-8722"/>
       <use transform="translate(186.855469 39.046875)scale(0.7)" xlink:href="#DejaVuSans-48"/>
       <use transform="translate(231.391602 39.046875)scale(0.7)" xlink:href="#DejaVuSans-55"/>
      </g>
     </g>
    </g>
    <g id="xtick_20">
     <g id="line2d_27">
      <g>
       <use style="stroke:#000000;stroke-width:0.8;" x="566.083767" xlink:href="#m0e4ded8534" y="544.994062"/>
      </g>
     </g>
     <g id="text_32">
      <!-- $10^{-06}$ -->
      <g transform="translate(554.923767 558.072812)scale(0.08 -0.08)">
       <use transform="translate(0 0.765625)" xlink:href="#DejaVuSans-49"/>
       <use transform="translate(63.623047 0.765625)" xlink:href="#DejaVuSans-48"/>
       <use transform="translate(128.203125 39.046875)scale(0.7)" xlink:href="#DejaVuSans-8722"/>
       <use transform="translate(186.855469 39.046875)scale(0.7)" xlink:href="#DejaVuSans-48"/>
       <use transform="translate(231.391602 39.046875)scale(0.7)" xlink:href="#DejaVuSans-54"/>
      </g>
     </g>
    </g>
    <g id="xtick_21">
     <g id="line2d_28">
      <g>
       <use style="stroke:#000000;stroke-width:0.8;" x="630.41581" xlink:href="#m0e4ded8534" y="544.994062"/>
      </g>
     </g>
     <g id="text_33">
      <!-- $10^{-05}$ -->
      <g transform="translate(619.25581 558.072812)scale(0.08 -0.08)">
       <use transform="translate(0 0.765625)" xlink:href="#DejaVuSans-49"/>
       <use transform="translate(63.623047 0.765625)" xlink:href="#DejaVuSans-48"/>
       <use transform="translate(128.203125 39.046875)scale(0.7)" xlink:href="#DejaVuSans-8722"/>
       <use transform="translate(186.855469 39.046875)scale(0.7)" xlink:href="#DejaVuSans-48"/>
       <use transform="translate(231.391602 39.046875)scale(0.7)" xlink:href="#DejaVuSans-53"/>
      </g>
     </g>
    </g>
    <g id="xtick_22">
     <g id="line2d_29">
      <g>
       <use style="stroke:#000000;stroke-width:0.8;" x="694.747853" xlink:href="#m0e4ded8534" y="544.994062"/>
      </g>
     </g>
     <g id="text_34">
      <!-- $10^{-04}$ -->
      <g transform="translate(683.587853 558.072812)scale(0.08 -0.08)">
       <use transform="translate(0 0.765625)" xlink:href="#DejaVuSans-49"/>
       <use transform="translate(63.623047 0.765625)" xlink:href="#DejaVuSans-48"/>
       <use transform="translate(128.203125 39.046875)scale(0.7)" xlink:href="#DejaVuSans-8722"/>
       <use transform="translate(186.855469 39.046875)scale(0.7)" xlink:href="#DejaVuSans-48"/>
       <use transform="translate(231.391602 39.046875)scale(0.7)" xlink:href="#DejaVuSans-52"/>
      </g>
     </g>
    </g>
    <g id="text_35">
     <!-- relative error with NumPy "linalg.eig" function -->
     <g transform="translate(280.765763 569.815312)scale(0.08 -0.08)">
      <use xlink:href="#DejaVuSans-114"/>
      <use x="41.082031" xlink:href="#DejaVuSans-101"/>
      <use x="102.605469" xlink:href="#DejaVuSans-108"/>
      <use x="130.388672" xlink:href="#DejaVuSans-97"/>
      <use x="191.667969" xlink:href="#DejaVuSans-116"/>
      <use x="230.876953" xlink:href="#DejaVuSans-105"/>
      <use x="258.660156" xlink:href="#DejaVuSans-118"/>
      <use x="317.839844" xlink:href="#DejaVuSans-101"/>
      <use x="379.363281" xlink:href="#DejaVuSans-32"/>
      <use x="411.150391" xlink:href="#DejaVuSans-101"/>
      <use x="472.673828" xlink:href="#DejaVuSans-114"/>
      <use x="513.771484" xlink:href="#DejaVuSans-114"/>
      <use x="554.853516" xlink:href="#DejaVuSans-111"/>
      <use x="616.035156" xlink:href="#DejaVuSans-114"/>
      <use x="657.148438" xlink:href="#DejaVuSans-32"/>
      <use x="688.935547" xlink:href="#DejaVuSans-119"/>
      <use x="770.722656" xlink:href="#DejaVuSans-105"/>
      <use x="798.505859" xlink:href="#DejaVuSans-116"/>
      <use x="837.714844" xlink:href="#DejaVuSans-104"/>
      <use x="901.09375" xlink:href="#DejaVuSans-32"/>
      <use x="932.880859" xlink:href="#DejaVuSans-78"/>
      <use x="1007.685547" xlink:href="#DejaVuSans-117"/>
      <use x="1071.064453" xlink:href="#DejaVuSans-109"/>
      <use x="1168.476562" xlink:href="#DejaVuSans-80"/>
      <use x="1228.779297" xlink:href="#DejaVuSans-121"/>
      <use x="1287.958984" xlink:href="#DejaVuSans-32"/>
      <use x="1319.746094" xlink:href="#DejaVuSans-34"/>
      <use x="1365.742188" xlink:href="#DejaVuSans-108"/>
      <use x="1393.525391" xlink:href="#DejaVuSans-105"/>
      <use x="1421.308594" xlink:href="#DejaVuSans-110"/>
      <use x="1484.6875" xlink:href="#DejaVuSans-97"/>
      <use x="1545.966797" xlink:href="#DejaVuSans-108"/>
      <use x="1573.75" xlink:href="#DejaVuSans-103"/>
      <use x="1637.226562" xlink:href="#DejaVuSans-46"/>
      <use x="1669.013672" xlink:href="#DejaVuSans-101"/>
      <use x="1730.537109" xlink:href="#DejaVuSans-105"/>
      <use x="1758.320312" xlink:href="#DejaVuSans-103"/>
      <use x="1821.796875" xlink:href="#DejaVuSans-34"/>
      <use x="1867.792969" xlink:href="#DejaVuSans-32"/>
      <use x="1899.580078" xlink:href="#DejaVuSans-102"/>
      <use x="1934.785156" xlink:href="#DejaVuSans-117"/>
      <use x="1998.164062" xlink:href="#DejaVuSans-110"/>
      <use x="2061.542969" xlink:href="#DejaVuSans-99"/>
      <use x="2116.523438" xlink:href="#DejaVuSans-116"/>
      <use x="2155.732422" xlink:href="#DejaVuSans-105"/>
      <use x="2183.515625" xlink:href="#DejaVuSans-111"/>
      <use x="2244.697266" xlink:href="#DejaVuSans-110"/>
     </g>
    </g>
   </g>
   <g id="matplotlib.axis_4">
    <g id="ytick_7">
     <g id="line2d_30">
      <g>
       <use style="stroke:#000000;stroke-width:0.8;" x="44.994219" xlink:href="#mbcaafee91c" y="533.843381"/>
      </g>
     </g>
     <g id="text_36">
      <!-- 0.0 -->
      <g transform="translate(25.271719 536.882756)scale(0.08 -0.08)">
       <use xlink:href="#DejaVuSans-48"/>
       <use x="63.623047" xlink:href="#DejaVuSans-46"/>
       <use x="95.410156" xlink:href="#DejaVuSans-48"/>
      </g>
     </g>
    </g>
    <g id="ytick_8">
     <g id="line2d_31">
      <g>
       <use style="stroke:#000000;stroke-width:0.8;" x="44.994219" xlink:href="#mbcaafee91c" y="478.089972"/>
      </g>
     </g>
     <g id="text_37">
      <!-- 0.5 -->
      <g transform="translate(25.271719 481.129347)scale(0.08 -0.08)">
       <use xlink:href="#DejaVuSans-48"/>
       <use x="63.623047" xlink:href="#DejaVuSans-46"/>
       <use x="95.410156" xlink:href="#DejaVuSans-53"/>
      </g>
     </g>
    </g>
    <g id="ytick_9">
     <g id="line2d_32">
      <g>
       <use style="stroke:#000000;stroke-width:0.8;" x="44.994219" xlink:href="#mbcaafee91c" y="422.336562"/>
      </g>
     </g>
     <g id="text_38">
      <!-- 1.0 -->
      <g transform="translate(25.271719 425.375937)scale(0.08 -0.08)">
       <use xlink:href="#DejaVuSans-49"/>
       <use x="63.623047" xlink:href="#DejaVuSans-46"/>
       <use x="95.410156" xlink:href="#DejaVuSans-48"/>
      </g>
     </g>
    </g>
    <g id="ytick_10">
     <g id="line2d_33">
      <g>
       <use style="stroke:#000000;stroke-width:0.8;" x="44.994219" xlink:href="#mbcaafee91c" y="366.583153"/>
      </g>
     </g>
     <g id="text_39">
      <!-- 1.5 -->
      <g transform="translate(25.271719 369.622528)scale(0.08 -0.08)">
       <use xlink:href="#DejaVuSans-49"/>
       <use x="63.623047" xlink:href="#DejaVuSans-46"/>
       <use x="95.410156" xlink:href="#DejaVuSans-53"/>
      </g>
     </g>
    </g>
    <g id="ytick_11">
     <g id="line2d_34">
      <g>
       <use style="stroke:#000000;stroke-width:0.8;" x="44.994219" xlink:href="#mbcaafee91c" y="310.829744"/>
      </g>
     </g>
     <g id="text_40">
      <!-- 2.0 -->
      <g transform="translate(25.271719 313.869119)scale(0.08 -0.08)">
       <use xlink:href="#DejaVuSans-50"/>
       <use x="63.623047" xlink:href="#DejaVuSans-46"/>
       <use x="95.410156" xlink:href="#DejaVuSans-48"/>
      </g>
     </g>
    </g>
    <g id="text_41">
     <!-- capacity using SPIDER-WEB -->
     <defs>
      <path d="M 18.109375 8.203125 
L 18.109375 -20.796875 
L 9.078125 -20.796875 
L 9.078125 54.6875 
L 18.109375 54.6875 
L 18.109375 46.390625 
Q 20.953125 51.265625 25.265625 53.625 
Q 29.59375 56 35.59375 56 
Q 45.5625 56 51.78125 48.09375 
Q 58.015625 40.1875 58.015625 27.296875 
Q 58.015625 14.40625 51.78125 6.484375 
Q 45.5625 -1.421875 35.59375 -1.421875 
Q 29.59375 -1.421875 25.265625 0.953125 
Q 20.953125 3.328125 18.109375 8.203125 
z
M 48.6875 27.296875 
Q 48.6875 37.203125 44.609375 42.84375 
Q 40.53125 48.484375 33.40625 48.484375 
Q 26.265625 48.484375 22.1875 42.84375 
Q 18.109375 37.203125 18.109375 27.296875 
Q 18.109375 17.390625 22.1875 11.75 
Q 26.265625 6.109375 33.40625 6.109375 
Q 40.53125 6.109375 44.609375 11.75 
Q 48.6875 17.390625 48.6875 27.296875 
z
" id="DejaVuSans-112"/>
      <path d="M 44.28125 53.078125 
L 44.28125 44.578125 
Q 40.484375 46.53125 36.375 47.5 
Q 32.28125 48.484375 27.875 48.484375 
Q 21.1875 48.484375 17.84375 46.4375 
Q 14.5 44.390625 14.5 40.28125 
Q 14.5 37.15625 16.890625 35.375 
Q 19.28125 33.59375 26.515625 31.984375 
L 29.59375 31.296875 
Q 39.15625 29.25 43.1875 25.515625 
Q 47.21875 21.78125 47.21875 15.09375 
Q 47.21875 7.46875 41.1875 3.015625 
Q 35.15625 -1.421875 24.609375 -1.421875 
Q 20.21875 -1.421875 15.453125 -0.5625 
Q 10.6875 0.296875 5.421875 2 
L 5.421875 11.28125 
Q 10.40625 8.6875 15.234375 7.390625 
Q 20.0625 6.109375 24.8125 6.109375 
Q 31.15625 6.109375 34.5625 8.28125 
Q 37.984375 10.453125 37.984375 14.40625 
Q 37.984375 18.0625 35.515625 20.015625 
Q 33.0625 21.96875 24.703125 23.78125 
L 21.578125 24.515625 
Q 13.234375 26.265625 9.515625 29.90625 
Q 5.8125 33.546875 5.8125 39.890625 
Q 5.8125 47.609375 11.28125 51.796875 
Q 16.75 56 26.8125 56 
Q 31.78125 56 36.171875 55.265625 
Q 40.578125 54.546875 44.28125 53.078125 
z
" id="DejaVuSans-115"/>
      <path d="M 53.515625 70.515625 
L 53.515625 60.890625 
Q 47.90625 63.578125 42.921875 64.890625 
Q 37.9375 66.21875 33.296875 66.21875 
Q 25.25 66.21875 20.875 63.09375 
Q 16.5 59.96875 16.5 54.203125 
Q 16.5 49.359375 19.40625 46.890625 
Q 22.3125 44.4375 30.421875 42.921875 
L 36.375 41.703125 
Q 47.40625 39.59375 52.65625 34.296875 
Q 57.90625 29 57.90625 20.125 
Q 57.90625 9.515625 50.796875 4.046875 
Q 43.703125 -1.421875 29.984375 -1.421875 
Q 24.8125 -1.421875 18.96875 -0.25 
Q 13.140625 0.921875 6.890625 3.21875 
L 6.890625 13.375 
Q 12.890625 10.015625 18.65625 8.296875 
Q 24.421875 6.59375 29.984375 6.59375 
Q 38.421875 6.59375 43.015625 9.90625 
Q 47.609375 13.234375 47.609375 19.390625 
Q 47.609375 24.75 44.3125 27.78125 
Q 41.015625 30.8125 33.5 32.328125 
L 27.484375 33.5 
Q 16.453125 35.6875 11.515625 40.375 
Q 6.59375 45.0625 6.59375 53.421875 
Q 6.59375 63.09375 13.40625 68.65625 
Q 20.21875 74.21875 32.171875 74.21875 
Q 37.3125 74.21875 42.625 73.28125 
Q 47.953125 72.359375 53.515625 70.515625 
z
" id="DejaVuSans-83"/>
      <path d="M 9.8125 72.90625 
L 19.671875 72.90625 
L 19.671875 0 
L 9.8125 0 
z
" id="DejaVuSans-73"/>
      <path d="M 19.671875 64.796875 
L 19.671875 8.109375 
L 31.59375 8.109375 
Q 46.6875 8.109375 53.6875 14.9375 
Q 60.6875 21.78125 60.6875 36.53125 
Q 60.6875 51.171875 53.6875 57.984375 
Q 46.6875 64.796875 31.59375 64.796875 
z
M 9.8125 72.90625 
L 30.078125 72.90625 
Q 51.265625 72.90625 61.171875 64.09375 
Q 71.09375 55.28125 71.09375 36.53125 
Q 71.09375 17.671875 61.125 8.828125 
Q 51.171875 0 30.078125 0 
L 9.8125 0 
z
" id="DejaVuSans-68"/>
      <path d="M 9.8125 72.90625 
L 55.90625 72.90625 
L 55.90625 64.59375 
L 19.671875 64.59375 
L 19.671875 43.015625 
L 54.390625 43.015625 
L 54.390625 34.71875 
L 19.671875 34.71875 
L 19.671875 8.296875 
L 56.78125 8.296875 
L 56.78125 0 
L 9.8125 0 
z
" id="DejaVuSans-69"/>
      <path d="M 44.390625 34.1875 
Q 47.5625 33.109375 50.5625 29.59375 
Q 53.5625 26.078125 56.59375 19.921875 
L 66.609375 0 
L 56 0 
L 46.6875 18.703125 
Q 43.0625 26.03125 39.671875 28.421875 
Q 36.28125 30.8125 30.421875 30.8125 
L 19.671875 30.8125 
L 19.671875 0 
L 9.8125 0 
L 9.8125 72.90625 
L 32.078125 72.90625 
Q 44.578125 72.90625 50.734375 67.671875 
Q 56.890625 62.453125 56.890625 51.90625 
Q 56.890625 45.015625 53.6875 40.46875 
Q 50.484375 35.9375 44.390625 34.1875 
z
M 19.671875 64.796875 
L 19.671875 38.921875 
L 32.078125 38.921875 
Q 39.203125 38.921875 42.84375 42.21875 
Q 46.484375 45.515625 46.484375 51.90625 
Q 46.484375 58.296875 42.84375 61.546875 
Q 39.203125 64.796875 32.078125 64.796875 
z
" id="DejaVuSans-82"/>
      <path d="M 4.890625 31.390625 
L 31.203125 31.390625 
L 31.203125 23.390625 
L 4.890625 23.390625 
z
" id="DejaVuSans-45"/>
      <path d="M 3.328125 72.90625 
L 13.28125 72.90625 
L 28.609375 11.28125 
L 43.890625 72.90625 
L 54.984375 72.90625 
L 70.3125 11.28125 
L 85.59375 72.90625 
L 95.609375 72.90625 
L 77.296875 0 
L 64.890625 0 
L 49.515625 63.28125 
L 33.984375 0 
L 21.578125 0 
z
" id="DejaVuSans-87"/>
      <path d="M 19.671875 34.8125 
L 19.671875 8.109375 
L 35.5 8.109375 
Q 43.453125 8.109375 47.28125 11.40625 
Q 51.125 14.703125 51.125 21.484375 
Q 51.125 28.328125 47.28125 31.5625 
Q 43.453125 34.8125 35.5 34.8125 
z
M 19.671875 64.796875 
L 19.671875 42.828125 
L 34.28125 42.828125 
Q 41.5 42.828125 45.03125 45.53125 
Q 48.578125 48.25 48.578125 53.8125 
Q 48.578125 59.328125 45.03125 62.0625 
Q 41.5 64.796875 34.28125 64.796875 
z
M 9.8125 72.90625 
L 35.015625 72.90625 
Q 46.296875 72.90625 52.390625 68.21875 
Q 58.5 63.53125 58.5 54.890625 
Q 58.5 48.1875 55.375 44.234375 
Q 52.25 40.28125 46.1875 39.3125 
Q 53.46875 37.75 57.5 32.78125 
Q 61.53125 27.828125 61.53125 20.40625 
Q 61.53125 10.640625 54.890625 5.3125 
Q 48.25 0 35.984375 0 
L 9.8125 0 
z
" id="DejaVuSans-66"/>
     </defs>
     <g transform="translate(14.549219 477.754062)rotate(-90)scale(0.08 -0.08)">
      <use xlink:href="#DejaVuSans-99"/>
      <use x="54.980469" xlink:href="#DejaVuSans-97"/>
      <use x="116.259766" xlink:href="#DejaVuSans-112"/>
      <use x="179.736328" xlink:href="#DejaVuSans-97"/>
      <use x="241.015625" xlink:href="#DejaVuSans-99"/>
      <use x="295.996094" xlink:href="#DejaVuSans-105"/>
      <use x="323.779297" xlink:href="#DejaVuSans-116"/>
      <use x="362.988281" xlink:href="#DejaVuSans-121"/>
      <use x="422.167969" xlink:href="#DejaVuSans-32"/>
      <use x="453.955078" xlink:href="#DejaVuSans-117"/>
      <use x="517.333984" xlink:href="#DejaVuSans-115"/>
      <use x="569.433594" xlink:href="#DejaVuSans-105"/>
      <use x="597.216797" xlink:href="#DejaVuSans-110"/>
      <use x="660.595703" xlink:href="#DejaVuSans-103"/>
      <use x="724.072266" xlink:href="#DejaVuSans-32"/>
      <use x="755.859375" xlink:href="#DejaVuSans-83"/>
      <use x="819.335938" xlink:href="#DejaVuSans-80"/>
      <use x="879.638672" xlink:href="#DejaVuSans-73"/>
      <use x="909.130859" xlink:href="#DejaVuSans-68"/>
      <use x="986.132812" xlink:href="#DejaVuSans-69"/>
      <use x="1049.316406" xlink:href="#DejaVuSans-82"/>
      <use x="1118.736328" xlink:href="#DejaVuSans-45"/>
      <use x="1154.757812" xlink:href="#DejaVuSans-87"/>
      <use x="1253.634766" xlink:href="#DejaVuSans-69"/>
      <use x="1316.818359" xlink:href="#DejaVuSans-66"/>
     </g>
    </g>
   </g>
   <g id="line2d_35">
    <path clip-path="url(#pce5fa8ebae)" d="M 62.939587 373.447132 
L 69.005336 374.875087 
L 75.071085 376.303043 
L 81.136834 377.730999 
L 87.202583 379.158954 
L 93.268332 380.58691 
L 99.334081 382.014865 
L 105.39983 383.442821 
L 111.465578 384.870776 
L 117.531327 386.298732 
L 123.597076 387.726688 
L 129.662825 389.154643 
L 135.728574 390.582599 
L 141.794323 392.010554 
L 147.860072 393.43851 
L 153.925821 394.866466 
L 159.99157 396.294421 
L 166.057319 397.722377 
L 172.123068 399.150332 
L 178.188817 400.578288 
L 184.254566 402.006243 
L 190.320315 403.434199 
L 196.386064 404.862155 
L 202.451813 406.29011 
L 208.517562 407.718066 
L 214.583311 409.146021 
L 220.64906 410.573977 
L 226.714809 412.001932 
L 232.780558 413.429888 
L 238.846307 414.857844 
L 244.912056 416.285799 
L 250.977805 417.713755 
L 257.043554 419.14171 
L 263.109303 420.569666 
L 269.175052 421.997621 
L 275.240801 423.425577 
L 281.30655 424.853533 
L 287.372299 426.281488 
L 293.438048 427.709444 
L 299.503797 429.137399 
L 305.569546 430.565355 
L 311.635295 431.993311 
L 317.701044 433.421266 
L 323.766793 434.849222 
L 329.832542 436.277177 
L 335.898291 437.705133 
L 341.964039 439.133088 
L 348.029788 440.561044 
L 354.095537 441.989 
L 360.161286 443.416955 
L 366.227035 444.844911 
L 372.292784 446.272866 
L 378.358533 447.700822 
L 384.424282 449.128777 
L 390.490031 450.556733 
L 396.55578 451.984689 
L 402.621529 453.412644 
L 408.687278 454.8406 
L 414.753027 456.268555 
L 420.818776 457.696511 
L 426.884525 459.124467 
L 432.950274 460.552422 
L 439.016023 461.980378 
L 445.081772 463.408333 
L 451.147521 464.836289 
L 457.21327 466.264244 
L 463.279019 467.6922 
L 469.344768 469.120156 
L 475.410517 470.548111 
L 481.476266 471.976067 
L 487.542015 473.404022 
L 493.607764 474.831978 
L 499.673513 476.259933 
L 505.739262 477.687889 
L 511.805011 479.115845 
L 517.87076 480.5438 
L 523.936509 481.971756 
L 530.002258 483.399711 
L 536.068007 484.827667 
L 542.133756 486.255622 
L 548.199505 487.683578 
L 554.265254 489.111534 
L 560.331003 490.539489 
L 566.396752 491.967445 
L 572.462501 493.3954 
L 578.528249 494.823356 
L 584.593998 496.251312 
L 590.659747 497.679267 
L 596.725496 499.107223 
L 602.791245 500.535178 
L 608.856994 501.963134 
L 614.922743 503.391089 
L 620.988492 504.819045 
L 627.054241 506.247001 
L 633.11999 507.674956 
L 639.185739 509.102912 
L 645.251488 510.530867 
L 651.317237 511.958823 
L 657.382986 513.386778 
L 663.448735 514.814734 
" style="fill:none;stroke:#000000;stroke-dasharray:3.7,1.6;stroke-dashoffset:0;"/>
   </g>
   <g id="patch_8">
    <path d="M 44.994219 544.994062 
L 44.994219 299.679062 
" style="fill:none;stroke:#000000;stroke-linecap:square;stroke-linejoin:miter;stroke-width:0.8;"/>
   </g>
   <g id="patch_9">
    <path d="M 701.181057 544.994062 
L 701.181057 299.679062 
" style="fill:none;stroke:#000000;stroke-linecap:square;stroke-linejoin:miter;stroke-width:0.8;"/>
   </g>
   <g id="patch_10">
    <path d="M 44.994219 544.994062 
L 701.181057 544.994062 
" style="fill:none;stroke:#000000;stroke-linecap:square;stroke-linejoin:miter;stroke-width:0.8;"/>
   </g>
   <g id="patch_11">
    <path d="M 44.994219 299.679062 
L 701.181057 299.679062 
" style="fill:none;stroke:#000000;stroke-linecap:square;stroke-linejoin:miter;stroke-width:0.8;"/>
   </g>
   <g id="PathCollection_1">
    <defs>
     <path d="M 0 3 
C 0.795609 3 1.55874 2.683901 2.12132 2.12132 
C 2.683901 1.55874 3 0.795609 3 0 
C 3 -0.795609 2.683901 -1.55874 2.12132 -2.12132 
C 1.55874 -2.683901 0.795609 -3 0 -3 
C -0.795609 -3 -1.55874 -2.683901 -2.12132 -2.12132 
C -2.683901 -1.55874 -3 -0.795609 -3 0 
C -3 0.795609 -2.683901 1.55874 -2.12132 2.12132 
C -1.55874 2.683901 -0.795609 3 0 3 
z
" id="m3abaf37091" style="stroke:#000000;"/>
    </defs>
    <g clip-path="url(#pce5fa8ebae)">
     <use style="fill:#81b8df;stroke:#000000;" x="290.486801" xlink:href="#m3abaf37091" y="415.650285"/>
     <use style="fill:#81b8df;stroke:#000000;" x="62.939587" xlink:href="#m3abaf37091" y="403.978467"/>
     <use style="fill:#81b8df;stroke:#000000;" x="316.033622" xlink:href="#m3abaf37091" y="426.486391"/>
     <use style="fill:#81b8df;stroke:#000000;" x="290.293769" xlink:href="#m3abaf37091" y="443.984252"/>
     <use style="fill:#81b8df;stroke:#000000;" x="274.927466" xlink:href="#m3abaf37091" y="405.988754"/>
     <use style="fill:#81b8df;stroke:#000000;" x="198.426783" xlink:href="#m3abaf37091" y="418.557065"/>
     <use style="fill:#81b8df;stroke:#000000;" x="374.469694" xlink:href="#m3abaf37091" y="481.997347"/>
     <use style="fill:#81b8df;stroke:#000000;" x="319.165531" xlink:href="#m3abaf37091" y="448.56131"/>
     <use style="fill:#81b8df;stroke:#000000;" x="338.189105" xlink:href="#m3abaf37091" y="443.458492"/>
     <use style="fill:#81b8df;stroke:#000000;" x="223.991652" xlink:href="#m3abaf37091" y="379.546395"/>
     <use style="fill:#81b8df;stroke:#000000;" x="313.137562" xlink:href="#m3abaf37091" y="488.606711"/>
     <use style="fill:#81b8df;stroke:#000000;" x="282.276199" xlink:href="#m3abaf37091" y="420.519228"/>
     <use style="fill:#81b8df;stroke:#000000;" x="303.88105" xlink:href="#m3abaf37091" y="404.978676"/>
     <use style="fill:#81b8df;stroke:#000000;" x="336.860293" xlink:href="#m3abaf37091" y="422.336563"/>
     <use style="fill:#81b8df;stroke:#000000;" x="308.769924" xlink:href="#m3abaf37091" y="410.293292"/>
     <use style="fill:#81b8df;stroke:#000000;" x="297.014812" xlink:href="#m3abaf37091" y="403.922008"/>
     <use style="fill:#81b8df;stroke:#000000;" x="254.480347" xlink:href="#m3abaf37091" y="460.118481"/>
     <use style="fill:#81b8df;stroke:#000000;" x="319.954779" xlink:href="#m3abaf37091" y="411.887438"/>
     <use style="fill:#81b8df;stroke:#000000;" x="326.615839" xlink:href="#m3abaf37091" y="412.85036"/>
     <use style="fill:#81b8df;stroke:#000000;" x="321.859704" xlink:href="#m3abaf37091" y="428.772476"/>
     <use style="fill:#81b8df;stroke:#000000;" x="302.391686" xlink:href="#m3abaf37091" y="448.263805"/>
     <use style="fill:#81b8df;stroke:#000000;" x="280.536873" xlink:href="#m3abaf37091" y="426.339905"/>
     <use style="fill:#81b8df;stroke:#000000;" x="663.448735" xlink:href="#m3abaf37091" y="533.839742"/>
     <use style="fill:#81b8df;stroke:#000000;" x="286.847904" xlink:href="#m3abaf37091" y="418.819981"/>
     <use style="fill:#81b8df;stroke:#000000;" x="331.251785" xlink:href="#m3abaf37091" y="414.442313"/>
     <use style="fill:#81b8df;stroke:#000000;" x="334.587592" xlink:href="#m3abaf37091" y="440.055037"/>
     <use style="fill:#81b8df;stroke:#000000;" x="304.185763" xlink:href="#m3abaf37091" y="418.552974"/>
     <use style="fill:#81b8df;stroke:#000000;" x="288.115262" xlink:href="#m3abaf37091" y="405.391246"/>
     <use style="fill:#81b8df;stroke:#000000;" x="257.233246" xlink:href="#m3abaf37091" y="429.967684"/>
     <use style="fill:#81b8df;stroke:#000000;" x="288.12474" xlink:href="#m3abaf37091" y="409.414606"/>
     <use style="fill:#81b8df;stroke:#000000;" x="317.383963" xlink:href="#m3abaf37091" y="412.591514"/>
     <use style="fill:#81b8df;stroke:#000000;" x="283.551687" xlink:href="#m3abaf37091" y="440.313441"/>
     <use style="fill:#81b8df;stroke:#000000;" x="294.761088" xlink:href="#m3abaf37091" y="423.538118"/>
     <use style="fill:#81b8df;stroke:#000000;" x="200.75085" xlink:href="#m3abaf37091" y="442.172691"/>
     <use style="fill:#81b8df;stroke:#000000;" x="210.133367" xlink:href="#m3abaf37091" y="405.74348"/>
     <use style="fill:#81b8df;stroke:#000000;" x="286.359339" xlink:href="#m3abaf37091" y="401.048452"/>
     <use style="fill:#81b8df;stroke:#000000;" x="275.762965" xlink:href="#m3abaf37091" y="426.130621"/>
     <use style="fill:#81b8df;stroke:#000000;" x="330.86734" xlink:href="#m3abaf37091" y="460.106"/>
     <use style="fill:#81b8df;stroke:#000000;" x="293.878501" xlink:href="#m3abaf37091" y="422.336563"/>
     <use style="fill:#81b8df;stroke:#000000;" x="322.3382" xlink:href="#m3abaf37091" y="433.57966"/>
     <use style="fill:#81b8df;stroke:#000000;" x="332.695954" xlink:href="#m3abaf37091" y="429.674341"/>
     <use style="fill:#81b8df;stroke:#000000;" x="349.752947" xlink:href="#m3abaf37091" y="462.402269"/>
     <use style="fill:#81b8df;stroke:#000000;" x="295.553379" xlink:href="#m3abaf37091" y="387.178381"/>
     <use style="fill:#81b8df;stroke:#000000;" x="275.100364" xlink:href="#m3abaf37091" y="401.397435"/>
     <use style="fill:#81b8df;stroke:#000000;" x="338.531053" xlink:href="#m3abaf37091" y="444.862502"/>
     <use style="fill:#81b8df;stroke:#000000;" x="267.833803" xlink:href="#m3abaf37091" y="481.447304"/>
     <use style="fill:#81b8df;stroke:#000000;" x="123.16269" xlink:href="#m3abaf37091" y="413.715335"/>
     <use style="fill:#81b8df;stroke:#000000;" x="315.910887" xlink:href="#m3abaf37091" y="421.382717"/>
     <use style="fill:#81b8df;stroke:#000000;" x="276.498137" xlink:href="#m3abaf37091" y="442.527707"/>
     <use style="fill:#81b8df;stroke:#000000;" x="276.990744" xlink:href="#m3abaf37091" y="397.016459"/>
     <use style="fill:#81b8df;stroke:#000000;" x="266.476771" xlink:href="#m3abaf37091" y="414.323989"/>
     <use style="fill:#81b8df;stroke:#000000;" x="216.858351" xlink:href="#m3abaf37091" y="410.320049"/>
     <use style="fill:#81b8df;stroke:#000000;" x="281.698568" xlink:href="#m3abaf37091" y="400.087569"/>
     <use style="fill:#81b8df;stroke:#000000;" x="238.403271" xlink:href="#m3abaf37091" y="456.430674"/>
     <use style="fill:#81b8df;stroke:#000000;" x="259.939678" xlink:href="#m3abaf37091" y="420.505687"/>
     <use style="fill:#81b8df;stroke:#000000;" x="221.864471" xlink:href="#m3abaf37091" y="397.166632"/>
     <use style="fill:#81b8df;stroke:#000000;" x="278.803001" xlink:href="#m3abaf37091" y="413.286315"/>
     <use style="fill:#81b8df;stroke:#000000;" x="281.256374" xlink:href="#m3abaf37091" y="405.313471"/>
     <use style="fill:#81b8df;stroke:#000000;" x="304.356605" xlink:href="#m3abaf37091" y="438.238834"/>
     <use style="fill:#81b8df;stroke:#000000;" x="343.72156" xlink:href="#m3abaf37091" y="498.508275"/>
     <use style="fill:#81b8df;stroke:#000000;" x="285.924933" xlink:href="#m3abaf37091" y="412.231709"/>
     <use style="fill:#81b8df;stroke:#000000;" x="233.67634" xlink:href="#m3abaf37091" y="413.734589"/>
     <use style="fill:#81b8df;stroke:#000000;" x="255.4809" xlink:href="#m3abaf37091" y="382.738442"/>
     <use style="fill:#81b8df;stroke:#000000;" x="264.153684" xlink:href="#m3abaf37091" y="426.722648"/>
     <use style="fill:#81b8df;stroke:#000000;" x="324.161273" xlink:href="#m3abaf37091" y="505.338604"/>
     <use style="fill:#81b8df;stroke:#000000;" x="332.034028" xlink:href="#m3abaf37091" y="418.315473"/>
     <use style="fill:#81b8df;stroke:#000000;" x="311.228474" xlink:href="#m3abaf37091" y="429.553726"/>
     <use style="fill:#81b8df;stroke:#000000;" x="173.7103" xlink:href="#m3abaf37091" y="410.343368"/>
     <use style="fill:#81b8df;stroke:#000000;" x="322.579857" xlink:href="#m3abaf37091" y="435.81256"/>
     <use style="fill:#81b8df;stroke:#000000;" x="271.298234" xlink:href="#m3abaf37091" y="432.995985"/>
     <use style="fill:#81b8df;stroke:#000000;" x="280.312157" xlink:href="#m3abaf37091" y="411.735408"/>
     <use style="fill:#81b8df;stroke:#000000;" x="366.530179" xlink:href="#m3abaf37091" y="422.170846"/>
     <use style="fill:#81b8df;stroke:#000000;" x="319.386031" xlink:href="#m3abaf37091" y="422.779828"/>
     <use style="fill:#81b8df;stroke:#000000;" x="310.81763" xlink:href="#m3abaf37091" y="420.400028"/>
     <use style="fill:#81b8df;stroke:#000000;" x="640.655579" xlink:href="#m3abaf37091" y="533.841772"/>
     <use style="fill:#81b8df;stroke:#000000;" x="317.678553" xlink:href="#m3abaf37091" y="434.987488"/>
     <use style="fill:#81b8df;stroke:#000000;" x="289.996691" xlink:href="#m3abaf37091" y="423.828848"/>
     <use style="fill:#81b8df;stroke:#000000;" x="336.691147" xlink:href="#m3abaf37091" y="424.270084"/>
     <use style="fill:#81b8df;stroke:#000000;" x="331.934971" xlink:href="#m3abaf37091" y="414.475608"/>
     <use style="fill:#81b8df;stroke:#000000;" x="304.582685" xlink:href="#m3abaf37091" y="422.427217"/>
     <use style="fill:#81b8df;stroke:#000000;" x="307.224976" xlink:href="#m3abaf37091" y="399.920132"/>
     <use style="fill:#81b8df;stroke:#000000;" x="308.236896" xlink:href="#m3abaf37091" y="467.70833"/>
     <use style="fill:#81b8df;stroke:#000000;" x="247.521182" xlink:href="#m3abaf37091" y="480.35916"/>
     <use style="fill:#81b8df;stroke:#000000;" x="275.806881" xlink:href="#m3abaf37091" y="398.543626"/>
     <use style="fill:#81b8df;stroke:#000000;" x="330.744164" xlink:href="#m3abaf37091" y="450.825375"/>
     <use style="fill:#81b8df;stroke:#000000;" x="310.589201" xlink:href="#m3abaf37091" y="436.219911"/>
     <use style="fill:#81b8df;stroke:#000000;" x="314.741911" xlink:href="#m3abaf37091" y="417.40571"/>
     <use style="fill:#81b8df;stroke:#000000;" x="283.838745" xlink:href="#m3abaf37091" y="420.18993"/>
     <use style="fill:#81b8df;stroke:#000000;" x="315.200347" xlink:href="#m3abaf37091" y="432.829736"/>
     <use style="fill:#81b8df;stroke:#000000;" x="296.207316" xlink:href="#m3abaf37091" y="414.379943"/>
     <use style="fill:#81b8df;stroke:#000000;" x="288.275961" xlink:href="#m3abaf37091" y="417.665364"/>
     <use style="fill:#81b8df;stroke:#000000;" x="307.946123" xlink:href="#m3abaf37091" y="412.380997"/>
     <use style="fill:#81b8df;stroke:#000000;" x="326.25569" xlink:href="#m3abaf37091" y="456.430674"/>
     <use style="fill:#81b8df;stroke:#000000;" x="416.633465" xlink:href="#m3abaf37091" y="451.7019"/>
     <use style="fill:#81b8df;stroke:#000000;" x="282.606187" xlink:href="#m3abaf37091" y="401.629135"/>
     <use style="fill:#81b8df;stroke:#000000;" x="302.913089" xlink:href="#m3abaf37091" y="433.067347"/>
     <use style="fill:#81b8df;stroke:#000000;" x="287.215374" xlink:href="#m3abaf37091" y="419.690246"/>
     <use style="fill:#81b8df;stroke:#000000;" x="214.344167" xlink:href="#m3abaf37091" y="402.449233"/>
     <use style="fill:#81b8df;stroke:#000000;" x="254.118543" xlink:href="#m3abaf37091" y="420.685423"/>
     <use style="fill:#81b8df;stroke:#000000;" x="264.174954" xlink:href="#m3abaf37091" y="431.460148"/>
    </g>
   </g>
  </g>
  <g id="text_42">
   <!-- A -->
   <defs>
    <path d="M 34.1875 63.1875 
L 20.796875 26.90625 
L 47.609375 26.90625 
z
M 28.609375 72.90625 
L 39.796875 72.90625 
L 67.578125 0 
L 57.328125 0 
L 50.6875 18.703125 
L 17.828125 18.703125 
L 11.1875 0 
L 0.78125 0 
z
" id="DejaVuSans-65"/>
   </defs>
   <g transform="translate(7.210156 14.798437)scale(0.1 -0.1)">
    <use xlink:href="#DejaVuSans-65"/>
   </g>
  </g>
  <g id="text_43">
   <!-- B -->
   <g transform="translate(7.2 297.038437)scale(0.1 -0.1)">
    <use xlink:href="#DejaVuSans-66"/>
   </g>
  </g>
 </g>
 <defs>
  <clipPath id="p95a99b339b">
   <rect height="245.315" width="656.186838" x="44.994219" y="17.079062"/>
  </clipPath>
  <clipPath id="pce5fa8ebae">
   <rect height="245.315" width="656.186838" x="44.994219" y="299.679062"/>
  </clipPath>
 </defs>
</svg>
