<?xml version="1.0" encoding="utf-8" standalone="no"?>
<!DOCTYPE svg PUBLIC "-//W3C//DTD SVG 1.1//EN"
  "http://www.w3.org/Graphics/SVG/1.1/DTD/svg11.dtd">
<!-- Created with matplotlib (https://matplotlib.org/) -->
<svg height="361.239062pt" version="1.1" viewBox="0 0 713.107853 361.239062" width="713.107853pt" xmlns="http://www.w3.org/2000/svg" xmlns:xlink="http://www.w3.org/1999/xlink">
 <defs>
  <style type="text/css">
*{stroke-linecap:butt;stroke-linejoin:round;}
  </style>
 </defs>
 <g id="figure_1">
  <g id="patch_1">
   <path d="M 0 361.239062 
L 713.107853 361.239062 
L 713.107853 -0 
L 0 -0 
z
" style="fill:#ffffff;"/>
  </g>
  <g id="axes_1">
   <g id="patch_2">
    <path d="M 44.994219 164.446563 
L 701.181057 164.446563 
L 701.181057 15.639063 
L 44.994219 15.639063 
z
" style="fill:#ffffff;"/>
   </g>
   <g id="matplotlib.axis_1">
    <g id="xtick_1">
     <g id="line2d_1">
      <defs>
       <path d="M 0 0 
L 0 3.5 
" id="md7bf03f9d4" style="stroke:#000000;stroke-width:0.8;"/>
      </defs>
      <g>
       <use style="stroke:#000000;stroke-width:0.8;" x="51.427423" xlink:href="#md7bf03f9d4" y="164.446563"/>
      </g>
     </g>
    </g>
    <g id="xtick_2">
     <g id="line2d_2">
      <g>
       <use style="stroke:#000000;stroke-width:0.8;" x="115.759466" xlink:href="#md7bf03f9d4" y="164.446563"/>
      </g>
     </g>
    </g>
    <g id="xtick_3">
     <g id="line2d_3">
      <g>
       <use style="stroke:#000000;stroke-width:0.8;" x="180.091509" xlink:href="#md7bf03f9d4" y="164.446563"/>
      </g>
     </g>
    </g>
    <g id="xtick_4">
     <g id="line2d_4">
      <g>
       <use style="stroke:#000000;stroke-width:0.8;" x="244.423552" xlink:href="#md7bf03f9d4" y="164.446563"/>
      </g>
     </g>
    </g>
    <g id="xtick_5">
     <g id="line2d_5">
      <g>
       <use style="stroke:#000000;stroke-width:0.8;" x="308.755595" xlink:href="#md7bf03f9d4" y="164.446563"/>
      </g>
     </g>
    </g>
    <g id="xtick_6">
     <g id="line2d_6">
      <g>
       <use style="stroke:#000000;stroke-width:0.8;" x="373.087638" xlink:href="#md7bf03f9d4" y="164.446563"/>
      </g>
     </g>
    </g>
    <g id="xtick_7">
     <g id="line2d_7">
      <g>
       <use style="stroke:#000000;stroke-width:0.8;" x="437.419681" xlink:href="#md7bf03f9d4" y="164.446563"/>
      </g>
     </g>
    </g>
    <g id="xtick_8">
     <g id="line2d_8">
      <g>
       <use style="stroke:#000000;stroke-width:0.8;" x="501.751724" xlink:href="#md7bf03f9d4" y="164.446563"/>
      </g>
     </g>
    </g>
    <g id="xtick_9">
     <g id="line2d_9">
      <g>
       <use style="stroke:#000000;stroke-width:0.8;" x="566.083767" xlink:href="#md7bf03f9d4" y="164.446563"/>
      </g>
     </g>
    </g>
    <g id="xtick_10">
     <g id="line2d_10">
      <g>
       <use style="stroke:#000000;stroke-width:0.8;" x="630.41581" xlink:href="#md7bf03f9d4" y="164.446563"/>
      </g>
     </g>
    </g>
    <g id="xtick_11">
     <g id="line2d_11">
      <g>
       <use style="stroke:#000000;stroke-width:0.8;" x="694.747853" xlink:href="#md7bf03f9d4" y="164.446563"/>
      </g>
     </g>
    </g>
   </g>
   <g id="matplotlib.axis_2">
    <g id="ytick_1">
     <g id="line2d_12">
      <defs>
       <path d="M 0 0 
L -3.5 0 
" id="m179b0a5635" style="stroke:#000000;stroke-width:0.8;"/>
      </defs>
      <g>
       <use style="stroke:#000000;stroke-width:0.8;" x="44.994219" xlink:href="#m179b0a5635" y="157.682585"/>
      </g>
     </g>
     <g id="text_1">
      <!-- 0% -->
      <defs>
       <path d="M 31.78125 66.40625 
Q 24.171875 66.40625 20.328125 58.90625 
Q 16.5 51.421875 16.5 36.375 
Q 16.5 21.390625 20.328125 13.890625 
Q 24.171875 6.390625 31.78125 6.390625 
Q 39.453125 6.390625 43.28125 13.890625 
Q 47.125 21.390625 47.125 36.375 
Q 47.125 51.421875 43.28125 58.90625 
Q 39.453125 66.40625 31.78125 66.40625 
z
M 31.78125 74.21875 
Q 44.046875 74.21875 50.515625 64.515625 
Q 56.984375 54.828125 56.984375 36.375 
Q 56.984375 17.96875 50.515625 8.265625 
Q 44.046875 -1.421875 31.78125 -1.421875 
Q 19.53125 -1.421875 13.0625 8.265625 
Q 6.59375 17.96875 6.59375 36.375 
Q 6.59375 54.828125 13.0625 64.515625 
Q 19.53125 74.21875 31.78125 74.21875 
z
" id="DejaVuSans-48"/>
       <path d="M 72.703125 32.078125 
Q 68.453125 32.078125 66.03125 28.46875 
Q 63.625 24.859375 63.625 18.40625 
Q 63.625 12.0625 66.03125 8.421875 
Q 68.453125 4.78125 72.703125 4.78125 
Q 76.859375 4.78125 79.265625 8.421875 
Q 81.6875 12.0625 81.6875 18.40625 
Q 81.6875 24.8125 79.265625 28.4375 
Q 76.859375 32.078125 72.703125 32.078125 
z
M 72.703125 38.28125 
Q 80.421875 38.28125 84.953125 32.90625 
Q 89.5 27.546875 89.5 18.40625 
Q 89.5 9.28125 84.9375 3.921875 
Q 80.375 -1.421875 72.703125 -1.421875 
Q 64.890625 -1.421875 60.34375 3.921875 
Q 55.8125 9.28125 55.8125 18.40625 
Q 55.8125 27.59375 60.375 32.9375 
Q 64.9375 38.28125 72.703125 38.28125 
z
M 22.3125 68.015625 
Q 18.109375 68.015625 15.6875 64.375 
Q 13.28125 60.75 13.28125 54.390625 
Q 13.28125 47.953125 15.671875 44.328125 
Q 18.0625 40.71875 22.3125 40.71875 
Q 26.5625 40.71875 28.96875 44.328125 
Q 31.390625 47.953125 31.390625 54.390625 
Q 31.390625 60.6875 28.953125 64.34375 
Q 26.515625 68.015625 22.3125 68.015625 
z
M 66.40625 74.21875 
L 74.21875 74.21875 
L 28.609375 -1.421875 
L 20.796875 -1.421875 
z
M 22.3125 74.21875 
Q 30.03125 74.21875 34.609375 68.875 
Q 39.203125 63.53125 39.203125 54.390625 
Q 39.203125 45.171875 34.640625 39.84375 
Q 30.078125 34.515625 22.3125 34.515625 
Q 14.546875 34.515625 10.03125 39.859375 
Q 5.515625 45.21875 5.515625 54.390625 
Q 5.515625 63.484375 10.046875 68.84375 
Q 14.59375 74.21875 22.3125 74.21875 
z
" id="DejaVuSans-37"/>
      </defs>
      <g transform="translate(25.302969 160.72196)scale(0.08 -0.08)">
       <use xlink:href="#DejaVuSans-48"/>
       <use x="63.623047" xlink:href="#DejaVuSans-37"/>
      </g>
     </g>
    </g>
    <g id="ytick_2">
     <g id="line2d_13">
      <g>
       <use style="stroke:#000000;stroke-width:0.8;" x="44.994219" xlink:href="#m179b0a5635" y="130.626676"/>
      </g>
     </g>
     <g id="text_2">
      <!-- 2% -->
      <defs>
       <path d="M 19.1875 8.296875 
L 53.609375 8.296875 
L 53.609375 0 
L 7.328125 0 
L 7.328125 8.296875 
Q 12.9375 14.109375 22.625 23.890625 
Q 32.328125 33.6875 34.8125 36.53125 
Q 39.546875 41.84375 41.421875 45.53125 
Q 43.3125 49.21875 43.3125 52.78125 
Q 43.3125 58.59375 39.234375 62.25 
Q 35.15625 65.921875 28.609375 65.921875 
Q 23.96875 65.921875 18.8125 64.3125 
Q 13.671875 62.703125 7.8125 59.421875 
L 7.8125 69.390625 
Q 13.765625 71.78125 18.9375 73 
Q 24.125 74.21875 28.421875 74.21875 
Q 39.75 74.21875 46.484375 68.546875 
Q 53.21875 62.890625 53.21875 53.421875 
Q 53.21875 48.921875 51.53125 44.890625 
Q 49.859375 40.875 45.40625 35.40625 
Q 44.1875 33.984375 37.640625 27.21875 
Q 31.109375 20.453125 19.1875 8.296875 
z
" id="DejaVuSans-50"/>
      </defs>
      <g transform="translate(25.302969 133.666051)scale(0.08 -0.08)">
       <use xlink:href="#DejaVuSans-50"/>
       <use x="63.623047" xlink:href="#DejaVuSans-37"/>
      </g>
     </g>
    </g>
    <g id="ytick_3">
     <g id="line2d_14">
      <g>
       <use style="stroke:#000000;stroke-width:0.8;" x="44.994219" xlink:href="#m179b0a5635" y="103.570767"/>
      </g>
     </g>
     <g id="text_3">
      <!-- 4% -->
      <defs>
       <path d="M 37.796875 64.3125 
L 12.890625 25.390625 
L 37.796875 25.390625 
z
M 35.203125 72.90625 
L 47.609375 72.90625 
L 47.609375 25.390625 
L 58.015625 25.390625 
L 58.015625 17.1875 
L 47.609375 17.1875 
L 47.609375 0 
L 37.796875 0 
L 37.796875 17.1875 
L 4.890625 17.1875 
L 4.890625 26.703125 
z
" id="DejaVuSans-52"/>
      </defs>
      <g transform="translate(25.302969 106.610142)scale(0.08 -0.08)">
       <use xlink:href="#DejaVuSans-52"/>
       <use x="63.623047" xlink:href="#DejaVuSans-37"/>
      </g>
     </g>
    </g>
    <g id="ytick_4">
     <g id="line2d_15">
      <g>
       <use style="stroke:#000000;stroke-width:0.8;" x="44.994219" xlink:href="#m179b0a5635" y="76.514858"/>
      </g>
     </g>
     <g id="text_4">
      <!-- 6% -->
      <defs>
       <path d="M 33.015625 40.375 
Q 26.375 40.375 22.484375 35.828125 
Q 18.609375 31.296875 18.609375 23.390625 
Q 18.609375 15.53125 22.484375 10.953125 
Q 26.375 6.390625 33.015625 6.390625 
Q 39.65625 6.390625 43.53125 10.953125 
Q 47.40625 15.53125 47.40625 23.390625 
Q 47.40625 31.296875 43.53125 35.828125 
Q 39.65625 40.375 33.015625 40.375 
z
M 52.59375 71.296875 
L 52.59375 62.3125 
Q 48.875 64.0625 45.09375 64.984375 
Q 41.3125 65.921875 37.59375 65.921875 
Q 27.828125 65.921875 22.671875 59.328125 
Q 17.53125 52.734375 16.796875 39.40625 
Q 19.671875 43.65625 24.015625 45.921875 
Q 28.375 48.1875 33.59375 48.1875 
Q 44.578125 48.1875 50.953125 41.515625 
Q 57.328125 34.859375 57.328125 23.390625 
Q 57.328125 12.15625 50.6875 5.359375 
Q 44.046875 -1.421875 33.015625 -1.421875 
Q 20.359375 -1.421875 13.671875 8.265625 
Q 6.984375 17.96875 6.984375 36.375 
Q 6.984375 53.65625 15.1875 63.9375 
Q 23.390625 74.21875 37.203125 74.21875 
Q 40.921875 74.21875 44.703125 73.484375 
Q 48.484375 72.75 52.59375 71.296875 
z
" id="DejaVuSans-54"/>
      </defs>
      <g transform="translate(25.302969 79.554233)scale(0.08 -0.08)">
       <use xlink:href="#DejaVuSans-54"/>
       <use x="63.623047" xlink:href="#DejaVuSans-37"/>
      </g>
     </g>
    </g>
    <g id="ytick_5">
     <g id="line2d_16">
      <g>
       <use style="stroke:#000000;stroke-width:0.8;" x="44.994219" xlink:href="#m179b0a5635" y="49.458949"/>
      </g>
     </g>
     <g id="text_5">
      <!-- 8% -->
      <defs>
       <path d="M 31.78125 34.625 
Q 24.75 34.625 20.71875 30.859375 
Q 16.703125 27.09375 16.703125 20.515625 
Q 16.703125 13.921875 20.71875 10.15625 
Q 24.75 6.390625 31.78125 6.390625 
Q 38.8125 6.390625 42.859375 10.171875 
Q 46.921875 13.96875 46.921875 20.515625 
Q 46.921875 27.09375 42.890625 30.859375 
Q 38.875 34.625 31.78125 34.625 
z
M 21.921875 38.8125 
Q 15.578125 40.375 12.03125 44.71875 
Q 8.5 49.078125 8.5 55.328125 
Q 8.5 64.0625 14.71875 69.140625 
Q 20.953125 74.21875 31.78125 74.21875 
Q 42.671875 74.21875 48.875 69.140625 
Q 55.078125 64.0625 55.078125 55.328125 
Q 55.078125 49.078125 51.53125 44.71875 
Q 48 40.375 41.703125 38.8125 
Q 48.828125 37.15625 52.796875 32.3125 
Q 56.78125 27.484375 56.78125 20.515625 
Q 56.78125 9.90625 50.3125 4.234375 
Q 43.84375 -1.421875 31.78125 -1.421875 
Q 19.734375 -1.421875 13.25 4.234375 
Q 6.78125 9.90625 6.78125 20.515625 
Q 6.78125 27.484375 10.78125 32.3125 
Q 14.796875 37.15625 21.921875 38.8125 
z
M 18.3125 54.390625 
Q 18.3125 48.734375 21.84375 45.5625 
Q 25.390625 42.390625 31.78125 42.390625 
Q 38.140625 42.390625 41.71875 45.5625 
Q 45.3125 48.734375 45.3125 54.390625 
Q 45.3125 60.0625 41.71875 63.234375 
Q 38.140625 66.40625 31.78125 66.40625 
Q 25.390625 66.40625 21.84375 63.234375 
Q 18.3125 60.0625 18.3125 54.390625 
z
" id="DejaVuSans-56"/>
      </defs>
      <g transform="translate(25.302969 52.498324)scale(0.08 -0.08)">
       <use xlink:href="#DejaVuSans-56"/>
       <use x="63.623047" xlink:href="#DejaVuSans-37"/>
      </g>
     </g>
    </g>
    <g id="ytick_6">
     <g id="line2d_17">
      <g>
       <use style="stroke:#000000;stroke-width:0.8;" x="44.994219" xlink:href="#m179b0a5635" y="22.40304"/>
      </g>
     </g>
     <g id="text_6">
      <!-- 10% -->
      <defs>
       <path d="M 12.40625 8.296875 
L 28.515625 8.296875 
L 28.515625 63.921875 
L 10.984375 60.40625 
L 10.984375 69.390625 
L 28.421875 72.90625 
L 38.28125 72.90625 
L 38.28125 8.296875 
L 54.390625 8.296875 
L 54.390625 0 
L 12.40625 0 
z
" id="DejaVuSans-49"/>
      </defs>
      <g transform="translate(20.212969 25.442415)scale(0.08 -0.08)">
       <use xlink:href="#DejaVuSans-49"/>
       <use x="63.623047" xlink:href="#DejaVuSans-48"/>
       <use x="127.246094" xlink:href="#DejaVuSans-37"/>
      </g>
     </g>
    </g>
    <g id="text_7">
     <!-- frequency -->
     <defs>
      <path d="M 37.109375 75.984375 
L 37.109375 68.5 
L 28.515625 68.5 
Q 23.6875 68.5 21.796875 66.546875 
Q 19.921875 64.59375 19.921875 59.515625 
L 19.921875 54.6875 
L 34.71875 54.6875 
L 34.71875 47.703125 
L 19.921875 47.703125 
L 19.921875 0 
L 10.890625 0 
L 10.890625 47.703125 
L 2.296875 47.703125 
L 2.296875 54.6875 
L 10.890625 54.6875 
L 10.890625 58.5 
Q 10.890625 67.625 15.140625 71.796875 
Q 19.390625 75.984375 28.609375 75.984375 
z
" id="DejaVuSans-102"/>
      <path d="M 41.109375 46.296875 
Q 39.59375 47.171875 37.8125 47.578125 
Q 36.03125 48 33.890625 48 
Q 26.265625 48 22.1875 43.046875 
Q 18.109375 38.09375 18.109375 28.8125 
L 18.109375 0 
L 9.078125 0 
L 9.078125 54.6875 
L 18.109375 54.6875 
L 18.109375 46.1875 
Q 20.953125 51.171875 25.484375 53.578125 
Q 30.03125 56 36.53125 56 
Q 37.453125 56 38.578125 55.875 
Q 39.703125 55.765625 41.0625 55.515625 
z
" id="DejaVuSans-114"/>
      <path d="M 56.203125 29.59375 
L 56.203125 25.203125 
L 14.890625 25.203125 
Q 15.484375 15.921875 20.484375 11.0625 
Q 25.484375 6.203125 34.421875 6.203125 
Q 39.59375 6.203125 44.453125 7.46875 
Q 49.3125 8.734375 54.109375 11.28125 
L 54.109375 2.78125 
Q 49.265625 0.734375 44.1875 -0.34375 
Q 39.109375 -1.421875 33.890625 -1.421875 
Q 20.796875 -1.421875 13.15625 6.1875 
Q 5.515625 13.8125 5.515625 26.8125 
Q 5.515625 40.234375 12.765625 48.109375 
Q 20.015625 56 32.328125 56 
Q 43.359375 56 49.78125 48.890625 
Q 56.203125 41.796875 56.203125 29.59375 
z
M 47.21875 32.234375 
Q 47.125 39.59375 43.09375 43.984375 
Q 39.0625 48.390625 32.421875 48.390625 
Q 24.90625 48.390625 20.390625 44.140625 
Q 15.875 39.890625 15.1875 32.171875 
z
" id="DejaVuSans-101"/>
      <path d="M 14.796875 27.296875 
Q 14.796875 17.390625 18.875 11.75 
Q 22.953125 6.109375 30.078125 6.109375 
Q 37.203125 6.109375 41.296875 11.75 
Q 45.40625 17.390625 45.40625 27.296875 
Q 45.40625 37.203125 41.296875 42.84375 
Q 37.203125 48.484375 30.078125 48.484375 
Q 22.953125 48.484375 18.875 42.84375 
Q 14.796875 37.203125 14.796875 27.296875 
z
M 45.40625 8.203125 
Q 42.578125 3.328125 38.25 0.953125 
Q 33.9375 -1.421875 27.875 -1.421875 
Q 17.96875 -1.421875 11.734375 6.484375 
Q 5.515625 14.40625 5.515625 27.296875 
Q 5.515625 40.1875 11.734375 48.09375 
Q 17.96875 56 27.875 56 
Q 33.9375 56 38.25 53.625 
Q 42.578125 51.265625 45.40625 46.390625 
L 45.40625 54.6875 
L 54.390625 54.6875 
L 54.390625 -20.796875 
L 45.40625 -20.796875 
z
" id="DejaVuSans-113"/>
      <path d="M 8.5 21.578125 
L 8.5 54.6875 
L 17.484375 54.6875 
L 17.484375 21.921875 
Q 17.484375 14.15625 20.5 10.265625 
Q 23.53125 6.390625 29.59375 6.390625 
Q 36.859375 6.390625 41.078125 11.03125 
Q 45.3125 15.671875 45.3125 23.6875 
L 45.3125 54.6875 
L 54.296875 54.6875 
L 54.296875 0 
L 45.3125 0 
L 45.3125 8.40625 
Q 42.046875 3.421875 37.71875 1 
Q 33.40625 -1.421875 27.6875 -1.421875 
Q 18.265625 -1.421875 13.375 4.4375 
Q 8.5 10.296875 8.5 21.578125 
z
M 31.109375 56 
z
" id="DejaVuSans-117"/>
      <path d="M 54.890625 33.015625 
L 54.890625 0 
L 45.90625 0 
L 45.90625 32.71875 
Q 45.90625 40.484375 42.875 44.328125 
Q 39.84375 48.1875 33.796875 48.1875 
Q 26.515625 48.1875 22.3125 43.546875 
Q 18.109375 38.921875 18.109375 30.90625 
L 18.109375 0 
L 9.078125 0 
L 9.078125 54.6875 
L 18.109375 54.6875 
L 18.109375 46.1875 
Q 21.34375 51.125 25.703125 53.5625 
Q 30.078125 56 35.796875 56 
Q 45.21875 56 50.046875 50.171875 
Q 54.890625 44.34375 54.890625 33.015625 
z
" id="DejaVuSans-110"/>
      <path d="M 48.78125 52.59375 
L 48.78125 44.1875 
Q 44.96875 46.296875 41.140625 47.34375 
Q 37.3125 48.390625 33.40625 48.390625 
Q 24.65625 48.390625 19.8125 42.84375 
Q 14.984375 37.3125 14.984375 27.296875 
Q 14.984375 17.28125 19.8125 11.734375 
Q 24.65625 6.203125 33.40625 6.203125 
Q 37.3125 6.203125 41.140625 7.25 
Q 44.96875 8.296875 48.78125 10.40625 
L 48.78125 2.09375 
Q 45.015625 0.34375 40.984375 -0.53125 
Q 36.96875 -1.421875 32.421875 -1.421875 
Q 20.0625 -1.421875 12.78125 6.34375 
Q 5.515625 14.109375 5.515625 27.296875 
Q 5.515625 40.671875 12.859375 48.328125 
Q 20.21875 56 33.015625 56 
Q 37.15625 56 41.109375 55.140625 
Q 45.0625 54.296875 48.78125 52.59375 
z
" id="DejaVuSans-99"/>
      <path d="M 32.171875 -5.078125 
Q 28.375 -14.84375 24.75 -17.8125 
Q 21.140625 -20.796875 15.09375 -20.796875 
L 7.90625 -20.796875 
L 7.90625 -13.28125 
L 13.1875 -13.28125 
Q 16.890625 -13.28125 18.9375 -11.515625 
Q 21 -9.765625 23.484375 -3.21875 
L 25.09375 0.875 
L 2.984375 54.6875 
L 12.5 54.6875 
L 29.59375 11.921875 
L 46.6875 54.6875 
L 56.203125 54.6875 
z
" id="DejaVuSans-121"/>
     </defs>
     <g transform="translate(14.549219 110.192813)rotate(-90)scale(0.08 -0.08)">
      <use xlink:href="#DejaVuSans-102"/>
      <use x="35.205078" xlink:href="#DejaVuSans-114"/>
      <use x="76.287109" xlink:href="#DejaVuSans-101"/>
      <use x="137.810547" xlink:href="#DejaVuSans-113"/>
      <use x="201.287109" xlink:href="#DejaVuSans-117"/>
      <use x="264.666016" xlink:href="#DejaVuSans-101"/>
      <use x="326.189453" xlink:href="#DejaVuSans-110"/>
      <use x="389.568359" xlink:href="#DejaVuSans-99"/>
      <use x="444.548828" xlink:href="#DejaVuSans-121"/>
     </g>
    </g>
   </g>
   <g id="LineCollection_1">
    <path clip-path="url(#p8c6b3a1c9d)" d="M 295.157234 157.682585 
L 295.157234 69.750881 
" style="fill:none;stroke:#000000;"/>
   </g>
   <g id="LineCollection_2">
    <path clip-path="url(#p8c6b3a1c9d)" d="M 295.157234 64.339699 
L 295.157234 42.694972 
" style="fill:none;stroke:#000000;"/>
   </g>
   <g id="LineCollection_3">
    <path clip-path="url(#p8c6b3a1c9d)" d="M 275.857621 42.694972 
L 314.456847 42.694972 
" style="fill:none;stroke:#000000;"/>
   </g>
   <g id="LineCollection_4">
    <path clip-path="url(#p8c6b3a1c9d)" d="M 275.597315 157.682585 
L 275.597315 62.986903 
" style="fill:none;stroke:#000000;"/>
   </g>
   <g id="LineCollection_5">
    <path clip-path="url(#p8c6b3a1c9d)" d="M 319.528218 157.682585 
L 319.528218 62.986903 
" style="fill:none;stroke:#000000;"/>
   </g>
   <g id="LineCollection_6">
    <path clip-path="url(#p8c6b3a1c9d)" d="M 275.597315 67.04529 
L 319.528218 67.04529 
" style="fill:none;stroke:#000000;"/>
   </g>
   <g id="LineCollection_7">
    <path clip-path="url(#p8c6b3a1c9d)" d="M 209.70096 157.682585 
L 209.70096 103.570767 
" style="fill:none;stroke:#000000;"/>
   </g>
   <g id="LineCollection_8">
    <path clip-path="url(#p8c6b3a1c9d)" d="M 209.70096 107.629153 
L 191.603673 107.629153 
" style="fill:none;stroke:#000000;"/>
   </g>
   <g id="LineCollection_9">
    <path clip-path="url(#p8c6b3a1c9d)" d="M 385.424573 157.682585 
L 385.424573 103.570767 
" style="fill:none;stroke:#000000;"/>
   </g>
   <g id="LineCollection_10">
    <path clip-path="url(#p8c6b3a1c9d)" d="M 385.424573 107.629153 
L 534.784649 107.629153 
" style="fill:none;stroke:#000000;"/>
   </g>
   <g id="text_8">
    <!-- median -->
    <defs>
     <path d="M 52 44.1875 
Q 55.375 50.25 60.0625 53.125 
Q 64.75 56 71.09375 56 
Q 79.640625 56 84.28125 50.015625 
Q 88.921875 44.046875 88.921875 33.015625 
L 88.921875 0 
L 79.890625 0 
L 79.890625 32.71875 
Q 79.890625 40.578125 77.09375 44.375 
Q 74.3125 48.1875 68.609375 48.1875 
Q 61.625 48.1875 57.5625 43.546875 
Q 53.515625 38.921875 53.515625 30.90625 
L 53.515625 0 
L 44.484375 0 
L 44.484375 32.71875 
Q 44.484375 40.625 41.703125 44.40625 
Q 38.921875 48.1875 33.109375 48.1875 
Q 26.21875 48.1875 22.15625 43.53125 
Q 18.109375 38.875 18.109375 30.90625 
L 18.109375 0 
L 9.078125 0 
L 9.078125 54.6875 
L 18.109375 54.6875 
L 18.109375 46.1875 
Q 21.1875 51.21875 25.484375 53.609375 
Q 29.78125 56 35.6875 56 
Q 41.65625 56 45.828125 52.96875 
Q 50 49.953125 52 44.1875 
z
" id="DejaVuSans-109"/>
     <path d="M 45.40625 46.390625 
L 45.40625 75.984375 
L 54.390625 75.984375 
L 54.390625 0 
L 45.40625 0 
L 45.40625 8.203125 
Q 42.578125 3.328125 38.25 0.953125 
Q 33.9375 -1.421875 27.875 -1.421875 
Q 17.96875 -1.421875 11.734375 6.484375 
Q 5.515625 14.40625 5.515625 27.296875 
Q 5.515625 40.1875 11.734375 48.09375 
Q 17.96875 56 27.875 56 
Q 33.9375 56 38.25 53.625 
Q 42.578125 51.265625 45.40625 46.390625 
z
M 14.796875 27.296875 
Q 14.796875 17.390625 18.875 11.75 
Q 22.953125 6.109375 30.078125 6.109375 
Q 37.203125 6.109375 41.296875 11.75 
Q 45.40625 17.390625 45.40625 27.296875 
Q 45.40625 37.203125 41.296875 42.84375 
Q 37.203125 48.484375 30.078125 48.484375 
Q 22.953125 48.484375 18.875 42.84375 
Q 14.796875 37.203125 14.796875 27.296875 
z
" id="DejaVuSans-100"/>
     <path d="M 9.421875 54.6875 
L 18.40625 54.6875 
L 18.40625 0 
L 9.421875 0 
z
M 9.421875 75.984375 
L 18.40625 75.984375 
L 18.40625 64.59375 
L 9.421875 64.59375 
z
" id="DejaVuSans-105"/>
     <path d="M 34.28125 27.484375 
Q 23.390625 27.484375 19.1875 25 
Q 14.984375 22.515625 14.984375 16.5 
Q 14.984375 11.71875 18.140625 8.90625 
Q 21.296875 6.109375 26.703125 6.109375 
Q 34.1875 6.109375 38.703125 11.40625 
Q 43.21875 16.703125 43.21875 25.484375 
L 43.21875 27.484375 
z
M 52.203125 31.203125 
L 52.203125 0 
L 43.21875 0 
L 43.21875 8.296875 
Q 40.140625 3.328125 35.546875 0.953125 
Q 30.953125 -1.421875 24.3125 -1.421875 
Q 15.921875 -1.421875 10.953125 3.296875 
Q 6 8.015625 6 15.921875 
Q 6 25.140625 12.171875 29.828125 
Q 18.359375 34.515625 30.609375 34.515625 
L 43.21875 34.515625 
L 43.21875 35.40625 
Q 43.21875 41.609375 39.140625 45 
Q 35.0625 48.390625 27.6875 48.390625 
Q 23 48.390625 18.546875 47.265625 
Q 14.109375 46.140625 10.015625 43.890625 
L 10.015625 52.203125 
Q 14.9375 54.109375 19.578125 55.046875 
Q 24.21875 56 28.609375 56 
Q 40.484375 56 46.34375 49.84375 
Q 52.203125 43.703125 52.203125 31.203125 
z
" id="DejaVuSans-97"/>
    </defs>
    <g transform="translate(280.162859 39.678426)scale(0.08 -0.08)">
     <use xlink:href="#DejaVuSans-109"/>
     <use x="97.412109" xlink:href="#DejaVuSans-101"/>
     <use x="158.935547" xlink:href="#DejaVuSans-100"/>
     <use x="222.412109" xlink:href="#DejaVuSans-105"/>
     <use x="250.195312" xlink:href="#DejaVuSans-97"/>
     <use x="311.474609" xlink:href="#DejaVuSans-110"/>
    </g>
   </g>
   <g id="text_9">
    <!-- interquartile range -->
    <defs>
     <path d="M 18.3125 70.21875 
L 18.3125 54.6875 
L 36.8125 54.6875 
L 36.8125 47.703125 
L 18.3125 47.703125 
L 18.3125 18.015625 
Q 18.3125 11.328125 20.140625 9.421875 
Q 21.96875 7.515625 27.59375 7.515625 
L 36.8125 7.515625 
L 36.8125 0 
L 27.59375 0 
Q 17.1875 0 13.234375 3.875 
Q 9.28125 7.765625 9.28125 18.015625 
L 9.28125 47.703125 
L 2.6875 47.703125 
L 2.6875 54.6875 
L 9.28125 54.6875 
L 9.28125 70.21875 
z
" id="DejaVuSans-116"/>
     <path d="M 9.421875 75.984375 
L 18.40625 75.984375 
L 18.40625 0 
L 9.421875 0 
z
" id="DejaVuSans-108"/>
     <path id="DejaVuSans-32"/>
     <path d="M 45.40625 27.984375 
Q 45.40625 37.75 41.375 43.109375 
Q 37.359375 48.484375 30.078125 48.484375 
Q 22.859375 48.484375 18.828125 43.109375 
Q 14.796875 37.75 14.796875 27.984375 
Q 14.796875 18.265625 18.828125 12.890625 
Q 22.859375 7.515625 30.078125 7.515625 
Q 37.359375 7.515625 41.375 12.890625 
Q 45.40625 18.265625 45.40625 27.984375 
z
M 54.390625 6.78125 
Q 54.390625 -7.171875 48.1875 -13.984375 
Q 42 -20.796875 29.203125 -20.796875 
Q 24.46875 -20.796875 20.265625 -20.09375 
Q 16.0625 -19.390625 12.109375 -17.921875 
L 12.109375 -9.1875 
Q 16.0625 -11.328125 19.921875 -12.34375 
Q 23.78125 -13.375 27.78125 -13.375 
Q 36.625 -13.375 41.015625 -8.765625 
Q 45.40625 -4.15625 45.40625 5.171875 
L 45.40625 9.625 
Q 42.625 4.78125 38.28125 2.390625 
Q 33.9375 0 27.875 0 
Q 17.828125 0 11.671875 7.65625 
Q 5.515625 15.328125 5.515625 27.984375 
Q 5.515625 40.671875 11.671875 48.328125 
Q 17.828125 56 27.875 56 
Q 33.9375 56 38.28125 53.609375 
Q 42.625 51.21875 45.40625 46.390625 
L 45.40625 54.6875 
L 54.390625 54.6875 
z
" id="DejaVuSans-103"/>
    </defs>
    <g transform="translate(325.961422 69.25279)scale(0.08 -0.08)">
     <use xlink:href="#DejaVuSans-105"/>
     <use x="27.783203" xlink:href="#DejaVuSans-110"/>
     <use x="91.162109" xlink:href="#DejaVuSans-116"/>
     <use x="130.371094" xlink:href="#DejaVuSans-101"/>
     <use x="191.894531" xlink:href="#DejaVuSans-114"/>
     <use x="232.992188" xlink:href="#DejaVuSans-113"/>
     <use x="296.46875" xlink:href="#DejaVuSans-117"/>
     <use x="359.847656" xlink:href="#DejaVuSans-97"/>
     <use x="421.126953" xlink:href="#DejaVuSans-114"/>
     <use x="462.240234" xlink:href="#DejaVuSans-116"/>
     <use x="501.449219" xlink:href="#DejaVuSans-105"/>
     <use x="529.232422" xlink:href="#DejaVuSans-108"/>
     <use x="557.015625" xlink:href="#DejaVuSans-101"/>
     <use x="618.539062" xlink:href="#DejaVuSans-32"/>
     <use x="650.326172" xlink:href="#DejaVuSans-114"/>
     <use x="691.439453" xlink:href="#DejaVuSans-97"/>
     <use x="752.71875" xlink:href="#DejaVuSans-110"/>
     <use x="816.097656" xlink:href="#DejaVuSans-103"/>
     <use x="879.574219" xlink:href="#DejaVuSans-101"/>
    </g>
   </g>
   <g id="text_10">
    <!-- outlier range -->
    <defs>
     <path d="M 30.609375 48.390625 
Q 23.390625 48.390625 19.1875 42.75 
Q 14.984375 37.109375 14.984375 27.296875 
Q 14.984375 17.484375 19.15625 11.84375 
Q 23.34375 6.203125 30.609375 6.203125 
Q 37.796875 6.203125 41.984375 11.859375 
Q 46.1875 17.53125 46.1875 27.296875 
Q 46.1875 37.015625 41.984375 42.703125 
Q 37.796875 48.390625 30.609375 48.390625 
z
M 30.609375 56 
Q 42.328125 56 49.015625 48.375 
Q 55.71875 40.765625 55.71875 27.296875 
Q 55.71875 13.875 49.015625 6.21875 
Q 42.328125 -1.421875 30.609375 -1.421875 
Q 18.84375 -1.421875 12.171875 6.21875 
Q 5.515625 13.875 5.515625 27.296875 
Q 5.515625 40.765625 12.171875 48.375 
Q 18.84375 56 30.609375 56 
z
" id="DejaVuSans-111"/>
    </defs>
    <g transform="translate(133.607968 109.836653)scale(0.08 -0.08)">
     <use xlink:href="#DejaVuSans-111"/>
     <use x="61.181641" xlink:href="#DejaVuSans-117"/>
     <use x="124.560547" xlink:href="#DejaVuSans-116"/>
     <use x="163.769531" xlink:href="#DejaVuSans-108"/>
     <use x="191.552734" xlink:href="#DejaVuSans-105"/>
     <use x="219.335938" xlink:href="#DejaVuSans-101"/>
     <use x="280.859375" xlink:href="#DejaVuSans-114"/>
     <use x="321.972656" xlink:href="#DejaVuSans-32"/>
     <use x="353.759766" xlink:href="#DejaVuSans-114"/>
     <use x="394.873047" xlink:href="#DejaVuSans-97"/>
     <use x="456.152344" xlink:href="#DejaVuSans-110"/>
     <use x="519.53125" xlink:href="#DejaVuSans-103"/>
     <use x="583.007812" xlink:href="#DejaVuSans-101"/>
    </g>
   </g>
   <g id="text_11">
    <!-- outlier range -->
    <g transform="translate(541.217853 109.836653)scale(0.08 -0.08)">
     <use xlink:href="#DejaVuSans-111"/>
     <use x="61.181641" xlink:href="#DejaVuSans-117"/>
     <use x="124.560547" xlink:href="#DejaVuSans-116"/>
     <use x="163.769531" xlink:href="#DejaVuSans-108"/>
     <use x="191.552734" xlink:href="#DejaVuSans-105"/>
     <use x="219.335938" xlink:href="#DejaVuSans-101"/>
     <use x="280.859375" xlink:href="#DejaVuSans-114"/>
     <use x="321.972656" xlink:href="#DejaVuSans-32"/>
     <use x="353.759766" xlink:href="#DejaVuSans-114"/>
     <use x="394.873047" xlink:href="#DejaVuSans-97"/>
     <use x="456.152344" xlink:href="#DejaVuSans-110"/>
     <use x="519.53125" xlink:href="#DejaVuSans-103"/>
     <use x="583.007812" xlink:href="#DejaVuSans-101"/>
    </g>
   </g>
   <g id="patch_3">
    <path d="M 44.994219 164.446563 
L 44.994219 15.639063 
" style="fill:none;stroke:#000000;stroke-linecap:square;stroke-linejoin:miter;stroke-width:0.8;"/>
   </g>
   <g id="patch_4">
    <path d="M 701.181057 164.446563 
L 701.181057 15.639063 
" style="fill:none;stroke:#000000;stroke-linecap:square;stroke-linejoin:miter;stroke-width:0.8;"/>
   </g>
   <g id="patch_5">
    <path d="M 44.994219 164.446563 
L 701.181057 164.446563 
" style="fill:none;stroke:#000000;stroke-linecap:square;stroke-linejoin:miter;stroke-width:0.8;"/>
   </g>
   <g id="patch_6">
    <path d="M 44.994219 15.639063 
L 701.181057 15.639063 
" style="fill:none;stroke:#000000;stroke-linecap:square;stroke-linejoin:miter;stroke-width:0.8;"/>
   </g>
   <g id="PolyCollection_1">
    <defs>
     <path d="M 663.448735 -203.556477 
L 663.448735 -205.591802 
L 657.382986 -205.705395 
L 651.317237 -205.737671 
L 645.251488 -205.684995 
L 639.185739 -205.553282 
L 633.11999 -205.356945 
L 627.054241 -205.116375 
L 620.988492 -204.85455 
L 614.922743 -204.593516 
L 608.856994 -204.351474 
L 602.791245 -204.140972 
L 596.725496 -203.968392 
L 590.659747 -203.834589 
L 584.593998 -203.736281 
L 578.528249 -203.667737 
L 572.462501 -203.622342 
L 566.396752 -203.593766 
L 560.331003 -203.57666 
L 554.265254 -203.566922 
L 548.199505 -203.561654 
L 542.133756 -203.558961 
L 536.068007 -203.557701 
L 530.002258 -203.557261 
L 523.936509 -203.557406 
L 517.87076 -203.558209 
L 511.805011 -203.560064 
L 505.739262 -203.563783 
L 499.673513 -203.570757 
L 493.607764 -203.58314 
L 487.542015 -203.604011 
L 481.476266 -203.637406 
L 475.410517 -203.688126 
L 469.344768 -203.761237 
L 463.279019 -203.861297 
L 457.21327 -203.991454 
L 451.147521 -204.152777 
L 445.081772 -204.344273 
L 439.016023 -204.564035 
L 432.950274 -204.811793 
L 426.884525 -205.092775 
L 420.818776 -205.42244 
L 414.753027 -205.831317 
L 408.687278 -206.369099 
L 402.621529 -207.10714 
L 396.55578 -208.13856 
L 390.490031 -209.575102 
L 384.424282 -211.539812 
L 378.358533 -214.154737 
L 372.292784 -217.523517 
L 366.227035 -221.7102 
L 360.161286 -226.717456 
L 354.095537 -232.469023 
L 348.029788 -238.801614 
L 341.964039 -245.470043 
L 335.898291 -252.166223 
L 329.832542 -258.548793 
L 323.766793 -264.27727 
L 317.701044 -269.043838 
L 311.635295 -272.597718 
L 305.569546 -274.760427 
L 299.503797 -275.433517 
L 293.438048 -274.601899 
L 287.372299 -272.335009 
L 281.30655 -268.785596 
L 275.240801 -264.183475 
L 269.175052 -258.820839 
L 263.109303 -253.027372 
L 257.043554 -247.136851 
L 250.977805 -241.450542 
L 244.912056 -236.204855 
L 238.846307 -231.550346 
L 232.780558 -227.546412 
L 226.714809 -224.17189 
L 220.64906 -221.347801 
L 214.583311 -218.965842 
L 208.517562 -216.91566 
L 202.451813 -215.10538 
L 196.386064 -213.472482 
L 190.320315 -211.985121 
L 184.254566 -210.63623 
L 178.188817 -209.433879 
L 172.123068 -208.391184 
L 166.057319 -207.518099 
L 159.99157 -206.816195 
L 153.925821 -206.276522 
L 147.860072 -205.880147 
L 141.794323 -205.600711 
L 135.728574 -205.408364 
L 129.662825 -205.274257 
L 123.597076 -205.174691 
L 117.531327 -205.093936 
L 111.465578 -205.024943 
L 105.39983 -204.967735 
L 99.334081 -204.925961 
L 93.268332 -204.902719 
L 87.202583 -204.89705 
L 81.136834 -204.902272 
L 75.071085 -204.906671 
L 69.005336 -204.896231 
L 62.939587 -204.858382 
L 62.939587 -203.556477 
L 62.939587 -203.556477 
L 69.005336 -203.556477 
L 75.071085 -203.556477 
L 81.136834 -203.556477 
L 87.202583 -203.556477 
L 93.268332 -203.556477 
L 99.334081 -203.556477 
L 105.39983 -203.556477 
L 111.465578 -203.556477 
L 117.531327 -203.556477 
L 123.597076 -203.556477 
L 129.662825 -203.556477 
L 135.728574 -203.556477 
L 141.794323 -203.556477 
L 147.860072 -203.556477 
L 153.925821 -203.556477 
L 159.99157 -203.556477 
L 166.057319 -203.556477 
L 172.123068 -203.556477 
L 178.188817 -203.556477 
L 184.254566 -203.556477 
L 190.320315 -203.556477 
L 196.386064 -203.556477 
L 202.451813 -203.556477 
L 208.517562 -203.556477 
L 214.583311 -203.556477 
L 220.64906 -203.556477 
L 226.714809 -203.556477 
L 232.780558 -203.556477 
L 238.846307 -203.556477 
L 244.912056 -203.556477 
L 250.977805 -203.556477 
L 257.043554 -203.556477 
L 263.109303 -203.556477 
L 269.175052 -203.556477 
L 275.240801 -203.556477 
L 281.30655 -203.556477 
L 287.372299 -203.556477 
L 293.438048 -203.556477 
L 299.503797 -203.556477 
L 305.569546 -203.556477 
L 311.635295 -203.556477 
L 317.701044 -203.556477 
L 323.766793 -203.556477 
L 329.832542 -203.556477 
L 335.898291 -203.556477 
L 341.964039 -203.556477 
L 348.029788 -203.556477 
L 354.095537 -203.556477 
L 360.161286 -203.556477 
L 366.227035 -203.556477 
L 372.292784 -203.556477 
L 378.358533 -203.556477 
L 384.424282 -203.556477 
L 390.490031 -203.556477 
L 396.55578 -203.556477 
L 402.621529 -203.556477 
L 408.687278 -203.556477 
L 414.753027 -203.556477 
L 420.818776 -203.556477 
L 426.884525 -203.556477 
L 432.950274 -203.556477 
L 439.016023 -203.556477 
L 445.081772 -203.556477 
L 451.147521 -203.556477 
L 457.21327 -203.556477 
L 463.279019 -203.556477 
L 469.344768 -203.556477 
L 475.410517 -203.556477 
L 481.476266 -203.556477 
L 487.542015 -203.556477 
L 493.607764 -203.556477 
L 499.673513 -203.556477 
L 505.739262 -203.556477 
L 511.805011 -203.556477 
L 517.87076 -203.556477 
L 523.936509 -203.556477 
L 530.002258 -203.556477 
L 536.068007 -203.556477 
L 542.133756 -203.556477 
L 548.199505 -203.556477 
L 554.265254 -203.556477 
L 560.331003 -203.556477 
L 566.396752 -203.556477 
L 572.462501 -203.556477 
L 578.528249 -203.556477 
L 584.593998 -203.556477 
L 590.659747 -203.556477 
L 596.725496 -203.556477 
L 602.791245 -203.556477 
L 608.856994 -203.556477 
L 614.922743 -203.556477 
L 620.988492 -203.556477 
L 627.054241 -203.556477 
L 633.11999 -203.556477 
L 639.185739 -203.556477 
L 645.251488 -203.556477 
L 651.317237 -203.556477 
L 657.382986 -203.556477 
L 663.448735 -203.556477 
z
" id="mf054b1c20a" style="stroke:#b1ccdf;stroke-opacity:0.75;"/>
    </defs>
    <g clip-path="url(#p8c6b3a1c9d)">
     <use style="fill:#b1ccdf;fill-opacity:0.75;stroke:#b1ccdf;stroke-opacity:0.75;" x="0" xlink:href="#mf054b1c20a" y="361.239062"/>
    </g>
   </g>
   <g id="line2d_18">
    <path clip-path="url(#p8c6b3a1c9d)" d="M 663.448735 155.647261 
L 657.382986 155.533668 
L 651.317237 155.501392 
L 645.251488 155.554068 
L 639.185739 155.68578 
L 633.11999 155.882118 
L 627.054241 156.122688 
L 620.988492 156.384513 
L 614.922743 156.645547 
L 608.856994 156.887588 
L 602.791245 157.098091 
L 596.725496 157.27067 
L 590.659747 157.404473 
L 584.593998 157.502782 
L 578.528249 157.571325 
L 572.462501 157.61672 
L 566.396752 157.645296 
L 560.331003 157.662402 
L 554.265254 157.672141 
L 548.199505 157.677409 
L 542.133756 157.680102 
L 536.068007 157.681362 
L 530.002258 157.681801 
L 523.936509 157.681656 
L 517.87076 157.680853 
L 511.805011 157.678999 
L 505.739262 157.675279 
L 499.673513 157.668306 
L 493.607764 157.655923 
L 487.542015 157.635052 
L 481.476266 157.601656 
L 475.410517 157.550937 
L 469.344768 157.477825 
L 463.279019 157.377765 
L 457.21327 157.247609 
L 451.147521 157.086286 
L 445.081772 156.89479 
L 439.016023 156.675027 
L 432.950274 156.42727 
L 426.884525 156.146288 
L 420.818776 155.816623 
L 414.753027 155.407745 
L 408.687278 154.869963 
L 402.621529 154.131922 
L 396.55578 153.100503 
L 390.490031 151.663961 
L 384.424282 149.69925 
L 378.358533 147.084326 
L 372.292784 143.715545 
L 366.227035 139.528863 
L 360.161286 134.521607 
L 354.095537 128.770039 
L 348.029788 122.437449 
L 341.964039 115.76902 
L 335.898291 109.07284 
L 329.832542 102.690269 
L 323.766793 96.961793 
L 317.701044 92.195225 
L 311.635295 88.641345 
L 305.569546 86.478636 
L 299.503797 85.805546 
L 293.438048 86.637163 
L 287.372299 88.904053 
L 281.30655 92.453467 
L 275.240801 97.055587 
L 269.175052 102.418224 
L 263.109303 108.21169 
L 257.043554 114.102211 
L 250.977805 119.78852 
L 244.912056 125.034208 
L 238.846307 129.688716 
L 232.780558 133.69265 
L 226.714809 137.067173 
L 220.64906 139.891261 
L 214.583311 142.273221 
L 208.517562 144.323403 
L 202.451813 146.133683 
L 196.386064 147.76658 
L 190.320315 149.253941 
L 184.254566 150.602833 
L 178.188817 151.805184 
L 172.123068 152.847879 
L 166.057319 153.720963 
L 159.99157 154.422868 
L 153.925821 154.96254 
L 147.860072 155.358916 
L 141.794323 155.638351 
L 135.728574 155.830698 
L 129.662825 155.964806 
L 123.597076 156.064371 
L 117.531327 156.145126 
L 111.465578 156.21412 
L 105.39983 156.271328 
L 99.334081 156.313102 
L 93.268332 156.336343 
L 87.202583 156.342012 
L 81.136834 156.33679 
L 75.071085 156.332392 
L 69.005336 156.342832 
L 62.939587 156.380681 
" style="fill:none;stroke:#81b8df;stroke-linecap:square;stroke-width:1.5;"/>
   </g>
  </g>
  <g id="axes_2">
   <g id="patch_7">
    <path d="M 44.994219 327.554062 
L 701.181057 327.554062 
L 701.181057 178.746563 
L 44.994219 178.746563 
z
" style="fill:#ffffff;"/>
   </g>
   <g id="PolyCollection_2">
    <defs>
     <path d="M 62.939587 -163.38339 
L 62.939587 -112.106537 
L 123.16269 -109.490169 
L 173.7103 -107.069518 
L 198.426783 -105.734661 
L 200.75085 -105.60115 
L 210.133367 -105.044419 
L 214.344167 -104.784239 
L 216.858351 -104.625481 
L 221.864471 -104.30112 
L 223.991652 -104.159732 
L 233.67634 -103.485698 
L 238.403271 -103.13638 
L 247.521182 -102.418072 
L 254.118543 -101.856241 
L 254.480347 -101.824294 
L 255.4809 -101.735298 
L 257.233246 -101.577097 
L 259.939678 -101.326717 
L 264.153684 -100.921487 
L 264.174954 -100.919392 
L 266.476771 -100.68965 
L 267.833803 -100.551324 
L 271.298234 -100.188136 
L 274.927466 -99.791544 
L 275.100364 -99.772225 
L 275.762965 -99.697823 
L 275.806881 -99.692871 
L 276.498137 -99.614591 
L 276.990744 -99.558417 
L 278.803001 -99.348936 
L 280.312157 -99.171058 
L 280.536873 -99.144302 
L 281.256374 -99.058158 
L 281.698568 -99.004855 
L 282.276199 -98.934812 
L 282.606187 -98.894585 
L 283.551687 -98.778468 
L 283.838745 -98.742961 
L 285.924933 -98.481352 
L 286.359339 -98.426083 
L 286.847904 -98.363595 
L 287.215374 -98.316364 
L 288.115262 -98.199866 
L 288.12474 -98.198632 
L 288.275961 -98.178936 
L 289.996691 -97.952434 
L 290.293769 -97.912885 
L 290.486801 -97.887116 
L 293.878501 -97.42526 
L 294.761088 -97.302245 
L 295.553379 -97.190817 
L 296.207316 -97.098135 
L 297.014812 -96.982799 
L 302.391686 -96.189805 
L 302.913089 -96.110603 
L 303.88105 -95.962497 
L 304.185763 -95.915586 
L 304.356605 -95.889224 
L 304.582685 -95.854273 
L 307.224976 -95.440203 
L 307.946123 -95.32542 
L 308.236896 -95.278925 
L 308.769924 -95.193377 
L 310.589201 -94.898318 
L 310.81763 -94.860937 
L 311.228474 -94.793518 
L 313.137562 -94.477126 
L 314.741911 -94.207322 
L 315.200347 -94.129578 
L 315.910887 -94.008518 
L 316.033622 -93.987537 
L 317.383963 -93.755375 
L 317.678553 -93.704403 
L 319.165531 -93.445377 
L 319.386031 -93.406721 
L 319.954779 -93.306724 
L 321.859704 -92.96879 
L 322.3382 -92.883186 
L 322.579857 -92.839844 
L 324.161273 -92.554439 
L 326.25569 -92.171796 
L 326.615839 -92.105475 
L 330.744164 -91.334633 
L 330.86734 -91.311341 
L 331.251785 -91.238539 
L 331.934971 -91.10877 
L 332.034028 -91.089912 
L 332.695954 -90.963636 
L 334.587592 -90.600233 
L 336.691147 -90.191836 
L 336.860293 -90.158806 
L 338.189105 -89.898354 
L 338.531053 -89.831056 
L 343.72156 -88.796322 
L 349.752947 -87.565083 
L 366.530179 -84.004989 
L 374.469694 -82.264418 
L 416.633465 -72.63867 
L 640.655579 -18.334787 
L 663.448735 -12.72831 
L 663.448735 -91.255109 
L 663.448735 -91.255109 
L 640.655579 -92.158399 
L 416.633465 -101.83564 
L 374.469694 -104.251942 
L 366.530179 -104.778911 
L 349.752947 -106.010425 
L 343.72156 -106.501761 
L 338.531053 -106.949445 
L 338.189105 -106.979808 
L 336.860293 -107.098867 
L 336.691147 -107.114146 
L 334.587592 -107.306527 
L 332.695954 -107.48338 
L 332.034028 -107.546151 
L 331.934971 -107.555585 
L 331.251785 -107.620935 
L 330.86734 -107.657931 
L 330.744164 -107.669818 
L 326.615839 -108.078033 
L 326.25569 -108.114571 
L 324.161273 -108.330097 
L 322.579857 -108.496348 
L 322.3382 -108.522024 
L 321.859704 -108.573079 
L 319.954779 -108.779195 
L 319.386031 -108.841633 
L 319.165531 -108.865953 
L 317.678553 -109.03161 
L 317.383963 -109.064774 
L 316.033622 -109.218271 
L 315.910887 -109.232344 
L 315.200347 -109.314215 
L 314.741911 -109.367401 
L 313.137562 -109.555803 
L 311.228474 -109.78465 
L 310.81763 -109.834569 
L 310.589201 -109.862427 
L 308.769924 -110.086957 
L 308.236896 -110.153642 
L 307.946123 -110.190193 
L 307.224976 -110.281371 
L 304.582685 -110.621944 
L 304.356605 -110.651562 
L 304.185763 -110.673993 
L 303.88105 -110.714108 
L 302.913089 -110.842453 
L 302.391686 -110.912166 
L 297.014812 -111.654816 
L 296.207316 -111.770103 
L 295.553379 -111.864186 
L 294.761088 -111.979038 
L 293.878501 -112.108092 
L 290.486801 -112.614911 
L 290.293769 -112.644273 
L 289.996691 -112.689569 
L 288.275961 -112.954511 
L 288.12474 -112.978004 
L 288.115262 -112.979478 
L 287.215374 -113.119989 
L 286.847904 -113.177708 
L 286.359339 -113.254755 
L 285.924933 -113.323553 
L 283.838745 -113.657763 
L 283.551687 -113.704241 
L 282.606187 -113.85816 
L 282.276199 -113.912179 
L 281.698568 -114.007107 
L 281.256374 -114.080096 
L 280.536873 -114.199443 
L 280.312157 -114.236866 
L 278.803001 -114.490006 
L 276.990744 -114.798108 
L 276.498137 -114.882624 
L 275.806881 -115.001768 
L 275.762965 -115.009358 
L 275.100364 -115.124197 
L 274.927466 -115.154258 
L 271.298234 -115.794181 
L 267.833803 -116.42044 
L 266.476771 -116.669686 
L 264.174954 -117.097346 
L 264.153684 -117.101326 
L 259.939678 -117.899624 
L 257.233246 -118.422206 
L 255.4809 -118.764478 
L 254.480347 -118.961242 
L 254.118543 -119.032627 
L 247.521182 -120.355014 
L 238.403271 -122.240798 
L 233.67634 -123.2415 
L 223.991652 -125.333431 
L 221.864471 -125.799569 
L 216.858351 -126.904966 
L 214.344167 -127.464264 
L 210.133367 -128.406696 
L 200.75085 -130.529628 
L 198.426783 -131.059875 
L 173.7103 -136.784091 
L 123.16269 -148.79993 
L 62.939587 -163.38339 
z
" id="m7f04a51d16" style="stroke:#b1ccdf;stroke-opacity:0.75;"/>
    </defs>
    <g clip-path="url(#p900432d4f0)">
     <use style="fill:#b1ccdf;fill-opacity:0.75;stroke:#b1ccdf;stroke-opacity:0.75;" x="0" xlink:href="#m7f04a51d16" y="361.239062"/>
    </g>
   </g>
   <g id="matplotlib.axis_3">
    <g id="xtick_12">
     <g id="line2d_19">
      <g>
       <use style="stroke:#000000;stroke-width:0.8;" x="51.427423" xlink:href="#md7bf03f9d4" y="327.554062"/>
      </g>
     </g>
     <g id="text_12">
      <!-- $10^{-14}$ -->
      <defs>
       <path d="M 10.59375 35.5 
L 73.1875 35.5 
L 73.1875 27.203125 
L 10.59375 27.203125 
z
" id="DejaVuSans-8722"/>
      </defs>
      <g transform="translate(40.267423 340.632812)scale(0.08 -0.08)">
       <use transform="translate(0 0.684375)" xlink:href="#DejaVuSans-49"/>
       <use transform="translate(63.623047 0.684375)" xlink:href="#DejaVuSans-48"/>
       <use transform="translate(128.203125 38.965625)scale(0.7)" xlink:href="#DejaVuSans-8722"/>
       <use transform="translate(186.855469 38.965625)scale(0.7)" xlink:href="#DejaVuSans-49"/>
       <use transform="translate(231.391602 38.965625)scale(0.7)" xlink:href="#DejaVuSans-52"/>
      </g>
     </g>
    </g>
    <g id="xtick_13">
     <g id="line2d_20">
      <g>
       <use style="stroke:#000000;stroke-width:0.8;" x="115.759466" xlink:href="#md7bf03f9d4" y="327.554062"/>
      </g>
     </g>
     <g id="text_13">
      <!-- $10^{-13}$ -->
      <defs>
       <path d="M 40.578125 39.3125 
Q 47.65625 37.796875 51.625 33 
Q 55.609375 28.21875 55.609375 21.1875 
Q 55.609375 10.40625 48.1875 4.484375 
Q 40.765625 -1.421875 27.09375 -1.421875 
Q 22.515625 -1.421875 17.65625 -0.515625 
Q 12.796875 0.390625 7.625 2.203125 
L 7.625 11.71875 
Q 11.71875 9.328125 16.59375 8.109375 
Q 21.484375 6.890625 26.8125 6.890625 
Q 36.078125 6.890625 40.9375 10.546875 
Q 45.796875 14.203125 45.796875 21.1875 
Q 45.796875 27.640625 41.28125 31.265625 
Q 36.765625 34.90625 28.71875 34.90625 
L 20.21875 34.90625 
L 20.21875 43.015625 
L 29.109375 43.015625 
Q 36.375 43.015625 40.234375 45.921875 
Q 44.09375 48.828125 44.09375 54.296875 
Q 44.09375 59.90625 40.109375 62.90625 
Q 36.140625 65.921875 28.71875 65.921875 
Q 24.65625 65.921875 20.015625 65.03125 
Q 15.375 64.15625 9.8125 62.3125 
L 9.8125 71.09375 
Q 15.4375 72.65625 20.34375 73.4375 
Q 25.25 74.21875 29.59375 74.21875 
Q 40.828125 74.21875 47.359375 69.109375 
Q 53.90625 64.015625 53.90625 55.328125 
Q 53.90625 49.265625 50.4375 45.09375 
Q 46.96875 40.921875 40.578125 39.3125 
z
" id="DejaVuSans-51"/>
      </defs>
      <g transform="translate(104.599466 340.632812)scale(0.08 -0.08)">
       <use transform="translate(0 0.765625)" xlink:href="#DejaVuSans-49"/>
       <use transform="translate(63.623047 0.765625)" xlink:href="#DejaVuSans-48"/>
       <use transform="translate(128.203125 39.046875)scale(0.7)" xlink:href="#DejaVuSans-8722"/>
       <use transform="translate(186.855469 39.046875)scale(0.7)" xlink:href="#DejaVuSans-49"/>
       <use transform="translate(231.391602 39.046875)scale(0.7)" xlink:href="#DejaVuSans-51"/>
      </g>
     </g>
    </g>
    <g id="xtick_14">
     <g id="line2d_21">
      <g>
       <use style="stroke:#000000;stroke-width:0.8;" x="180.091509" xlink:href="#md7bf03f9d4" y="327.554062"/>
      </g>
     </g>
     <g id="text_14">
      <!-- $10^{-12}$ -->
      <g transform="translate(168.931509 340.632812)scale(0.08 -0.08)">
       <use transform="translate(0 0.765625)" xlink:href="#DejaVuSans-49"/>
       <use transform="translate(63.623047 0.765625)" xlink:href="#DejaVuSans-48"/>
       <use transform="translate(128.203125 39.046875)scale(0.7)" xlink:href="#DejaVuSans-8722"/>
       <use transform="translate(186.855469 39.046875)scale(0.7)" xlink:href="#DejaVuSans-49"/>
       <use transform="translate(231.391602 39.046875)scale(0.7)" xlink:href="#DejaVuSans-50"/>
      </g>
     </g>
    </g>
    <g id="xtick_15">
     <g id="line2d_22">
      <g>
       <use style="stroke:#000000;stroke-width:0.8;" x="244.423552" xlink:href="#md7bf03f9d4" y="327.554062"/>
      </g>
     </g>
     <g id="text_15">
      <!-- $10^{-11}$ -->
      <g transform="translate(233.263552 340.632812)scale(0.08 -0.08)">
       <use transform="translate(0 0.684375)" xlink:href="#DejaVuSans-49"/>
       <use transform="translate(63.623047 0.684375)" xlink:href="#DejaVuSans-48"/>
       <use transform="translate(128.203125 38.965625)scale(0.7)" xlink:href="#DejaVuSans-8722"/>
       <use transform="translate(186.855469 38.965625)scale(0.7)" xlink:href="#DejaVuSans-49"/>
       <use transform="translate(231.391602 38.965625)scale(0.7)" xlink:href="#DejaVuSans-49"/>
      </g>
     </g>
    </g>
    <g id="xtick_16">
     <g id="line2d_23">
      <g>
       <use style="stroke:#000000;stroke-width:0.8;" x="308.755595" xlink:href="#md7bf03f9d4" y="327.554062"/>
      </g>
     </g>
     <g id="text_16">
      <!-- $10^{-10}$ -->
      <g transform="translate(297.595595 340.632812)scale(0.08 -0.08)">
       <use transform="translate(0 0.765625)" xlink:href="#DejaVuSans-49"/>
       <use transform="translate(63.623047 0.765625)" xlink:href="#DejaVuSans-48"/>
       <use transform="translate(128.203125 39.046875)scale(0.7)" xlink:href="#DejaVuSans-8722"/>
       <use transform="translate(186.855469 39.046875)scale(0.7)" xlink:href="#DejaVuSans-49"/>
       <use transform="translate(231.391602 39.046875)scale(0.7)" xlink:href="#DejaVuSans-48"/>
      </g>
     </g>
    </g>
    <g id="xtick_17">
     <g id="line2d_24">
      <g>
       <use style="stroke:#000000;stroke-width:0.8;" x="373.087638" xlink:href="#md7bf03f9d4" y="327.554062"/>
      </g>
     </g>
     <g id="text_17">
      <!-- $10^{-09}$ -->
      <defs>
       <path d="M 10.984375 1.515625 
L 10.984375 10.5 
Q 14.703125 8.734375 18.5 7.8125 
Q 22.3125 6.890625 25.984375 6.890625 
Q 35.75 6.890625 40.890625 13.453125 
Q 46.046875 20.015625 46.78125 33.40625 
Q 43.953125 29.203125 39.59375 26.953125 
Q 35.25 24.703125 29.984375 24.703125 
Q 19.046875 24.703125 12.671875 31.3125 
Q 6.296875 37.9375 6.296875 49.421875 
Q 6.296875 60.640625 12.9375 67.421875 
Q 19.578125 74.21875 30.609375 74.21875 
Q 43.265625 74.21875 49.921875 64.515625 
Q 56.59375 54.828125 56.59375 36.375 
Q 56.59375 19.140625 48.40625 8.859375 
Q 40.234375 -1.421875 26.421875 -1.421875 
Q 22.703125 -1.421875 18.890625 -0.6875 
Q 15.09375 0.046875 10.984375 1.515625 
z
M 30.609375 32.421875 
Q 37.25 32.421875 41.125 36.953125 
Q 45.015625 41.5 45.015625 49.421875 
Q 45.015625 57.28125 41.125 61.84375 
Q 37.25 66.40625 30.609375 66.40625 
Q 23.96875 66.40625 20.09375 61.84375 
Q 16.21875 57.28125 16.21875 49.421875 
Q 16.21875 41.5 20.09375 36.953125 
Q 23.96875 32.421875 30.609375 32.421875 
z
" id="DejaVuSans-57"/>
      </defs>
      <g transform="translate(361.927638 340.632812)scale(0.08 -0.08)">
       <use transform="translate(0 0.765625)" xlink:href="#DejaVuSans-49"/>
       <use transform="translate(63.623047 0.765625)" xlink:href="#DejaVuSans-48"/>
       <use transform="translate(128.203125 39.046875)scale(0.7)" xlink:href="#DejaVuSans-8722"/>
       <use transform="translate(186.855469 39.046875)scale(0.7)" xlink:href="#DejaVuSans-48"/>
       <use transform="translate(231.391602 39.046875)scale(0.7)" xlink:href="#DejaVuSans-57"/>
      </g>
     </g>
    </g>
    <g id="xtick_18">
     <g id="line2d_25">
      <g>
       <use style="stroke:#000000;stroke-width:0.8;" x="437.419681" xlink:href="#md7bf03f9d4" y="327.554062"/>
      </g>
     </g>
     <g id="text_18">
      <!-- $10^{-08}$ -->
      <g transform="translate(426.259681 340.632812)scale(0.08 -0.08)">
       <use transform="translate(0 0.765625)" xlink:href="#DejaVuSans-49"/>
       <use transform="translate(63.623047 0.765625)" xlink:href="#DejaVuSans-48"/>
       <use transform="translate(128.203125 39.046875)scale(0.7)" xlink:href="#DejaVuSans-8722"/>
       <use transform="translate(186.855469 39.046875)scale(0.7)" xlink:href="#DejaVuSans-48"/>
       <use transform="translate(231.391602 39.046875)scale(0.7)" xlink:href="#DejaVuSans-56"/>
      </g>
     </g>
    </g>
    <g id="xtick_19">
     <g id="line2d_26">
      <g>
       <use style="stroke:#000000;stroke-width:0.8;" x="501.751724" xlink:href="#md7bf03f9d4" y="327.554062"/>
      </g>
     </g>
     <g id="text_19">
      <!-- $10^{-07}$ -->
      <defs>
       <path d="M 8.203125 72.90625 
L 55.078125 72.90625 
L 55.078125 68.703125 
L 28.609375 0 
L 18.3125 0 
L 43.21875 64.59375 
L 8.203125 64.59375 
z
" id="DejaVuSans-55"/>
      </defs>
      <g transform="translate(490.591724 340.632812)scale(0.08 -0.08)">
       <use transform="translate(0 0.765625)" xlink:href="#DejaVuSans-49"/>
       <use transform="translate(63.623047 0.765625)" xlink:href="#DejaVuSans-48"/>
       <use transform="translate(128.203125 39.046875)scale(0.7)" xlink:href="#DejaVuSans-8722"/>
       <use transform="translate(186.855469 39.046875)scale(0.7)" xlink:href="#DejaVuSans-48"/>
       <use transform="translate(231.391602 39.046875)scale(0.7)" xlink:href="#DejaVuSans-55"/>
      </g>
     </g>
    </g>
    <g id="xtick_20">
     <g id="line2d_27">
      <g>
       <use style="stroke:#000000;stroke-width:0.8;" x="566.083767" xlink:href="#md7bf03f9d4" y="327.554062"/>
      </g>
     </g>
     <g id="text_20">
      <!-- $10^{-06}$ -->
      <g transform="translate(554.923767 340.632812)scale(0.08 -0.08)">
       <use transform="translate(0 0.765625)" xlink:href="#DejaVuSans-49"/>
       <use transform="translate(63.623047 0.765625)" xlink:href="#DejaVuSans-48"/>
       <use transform="translate(128.203125 39.046875)scale(0.7)" xlink:href="#DejaVuSans-8722"/>
       <use transform="translate(186.855469 39.046875)scale(0.7)" xlink:href="#DejaVuSans-48"/>
       <use transform="translate(231.391602 39.046875)scale(0.7)" xlink:href="#DejaVuSans-54"/>
      </g>
     </g>
    </g>
    <g id="xtick_21">
     <g id="line2d_28">
      <g>
       <use style="stroke:#000000;stroke-width:0.8;" x="630.41581" xlink:href="#md7bf03f9d4" y="327.554062"/>
      </g>
     </g>
     <g id="text_21">
      <!-- $10^{-05}$ -->
      <defs>
       <path d="M 10.796875 72.90625 
L 49.515625 72.90625 
L 49.515625 64.59375 
L 19.828125 64.59375 
L 19.828125 46.734375 
Q 21.96875 47.46875 24.109375 47.828125 
Q 26.265625 48.1875 28.421875 48.1875 
Q 40.625 48.1875 47.75 41.5 
Q 54.890625 34.8125 54.890625 23.390625 
Q 54.890625 11.625 47.5625 5.09375 
Q 40.234375 -1.421875 26.90625 -1.421875 
Q 22.3125 -1.421875 17.546875 -0.640625 
Q 12.796875 0.140625 7.71875 1.703125 
L 7.71875 11.625 
Q 12.109375 9.234375 16.796875 8.0625 
Q 21.484375 6.890625 26.703125 6.890625 
Q 35.15625 6.890625 40.078125 11.328125 
Q 45.015625 15.765625 45.015625 23.390625 
Q 45.015625 31 40.078125 35.4375 
Q 35.15625 39.890625 26.703125 39.890625 
Q 22.75 39.890625 18.8125 39.015625 
Q 14.890625 38.140625 10.796875 36.28125 
z
" id="DejaVuSans-53"/>
      </defs>
      <g transform="translate(619.25581 340.632812)scale(0.08 -0.08)">
       <use transform="translate(0 0.765625)" xlink:href="#DejaVuSans-49"/>
       <use transform="translate(63.623047 0.765625)" xlink:href="#DejaVuSans-48"/>
       <use transform="translate(128.203125 39.046875)scale(0.7)" xlink:href="#DejaVuSans-8722"/>
       <use transform="translate(186.855469 39.046875)scale(0.7)" xlink:href="#DejaVuSans-48"/>
       <use transform="translate(231.391602 39.046875)scale(0.7)" xlink:href="#DejaVuSans-53"/>
      </g>
     </g>
    </g>
    <g id="xtick_22">
     <g id="line2d_29">
      <g>
       <use style="stroke:#000000;stroke-width:0.8;" x="694.747853" xlink:href="#md7bf03f9d4" y="327.554062"/>
      </g>
     </g>
     <g id="text_22">
      <!-- $10^{-04}$ -->
      <g transform="translate(683.587853 340.632812)scale(0.08 -0.08)">
       <use transform="translate(0 0.765625)" xlink:href="#DejaVuSans-49"/>
       <use transform="translate(63.623047 0.765625)" xlink:href="#DejaVuSans-48"/>
       <use transform="translate(128.203125 39.046875)scale(0.7)" xlink:href="#DejaVuSans-8722"/>
       <use transform="translate(186.855469 39.046875)scale(0.7)" xlink:href="#DejaVuSans-48"/>
       <use transform="translate(231.391602 39.046875)scale(0.7)" xlink:href="#DejaVuSans-52"/>
      </g>
     </g>
    </g>
    <g id="text_23">
     <!-- relative error with NumPy "linalg.eig" function -->
     <defs>
      <path d="M 2.984375 54.6875 
L 12.5 54.6875 
L 29.59375 8.796875 
L 46.6875 54.6875 
L 56.203125 54.6875 
L 35.6875 0 
L 23.484375 0 
z
" id="DejaVuSans-118"/>
      <path d="M 4.203125 54.6875 
L 13.1875 54.6875 
L 24.421875 12.015625 
L 35.59375 54.6875 
L 46.1875 54.6875 
L 57.421875 12.015625 
L 68.609375 54.6875 
L 77.59375 54.6875 
L 63.28125 0 
L 52.6875 0 
L 40.921875 44.828125 
L 29.109375 0 
L 18.5 0 
z
" id="DejaVuSans-119"/>
      <path d="M 54.890625 33.015625 
L 54.890625 0 
L 45.90625 0 
L 45.90625 32.71875 
Q 45.90625 40.484375 42.875 44.328125 
Q 39.84375 48.1875 33.796875 48.1875 
Q 26.515625 48.1875 22.3125 43.546875 
Q 18.109375 38.921875 18.109375 30.90625 
L 18.109375 0 
L 9.078125 0 
L 9.078125 75.984375 
L 18.109375 75.984375 
L 18.109375 46.1875 
Q 21.34375 51.125 25.703125 53.5625 
Q 30.078125 56 35.796875 56 
Q 45.21875 56 50.046875 50.171875 
Q 54.890625 44.34375 54.890625 33.015625 
z
" id="DejaVuSans-104"/>
      <path d="M 9.8125 72.90625 
L 23.09375 72.90625 
L 55.421875 11.921875 
L 55.421875 72.90625 
L 64.984375 72.90625 
L 64.984375 0 
L 51.703125 0 
L 19.390625 60.984375 
L 19.390625 0 
L 9.8125 0 
z
" id="DejaVuSans-78"/>
      <path d="M 19.671875 64.796875 
L 19.671875 37.40625 
L 32.078125 37.40625 
Q 38.96875 37.40625 42.71875 40.96875 
Q 46.484375 44.53125 46.484375 51.125 
Q 46.484375 57.671875 42.71875 61.234375 
Q 38.96875 64.796875 32.078125 64.796875 
z
M 9.8125 72.90625 
L 32.078125 72.90625 
Q 44.34375 72.90625 50.609375 67.359375 
Q 56.890625 61.8125 56.890625 51.125 
Q 56.890625 40.328125 50.609375 34.8125 
Q 44.34375 29.296875 32.078125 29.296875 
L 19.671875 29.296875 
L 19.671875 0 
L 9.8125 0 
z
" id="DejaVuSans-80"/>
      <path d="M 17.921875 72.90625 
L 17.921875 45.796875 
L 9.625 45.796875 
L 9.625 72.90625 
z
M 36.375 72.90625 
L 36.375 45.796875 
L 28.078125 45.796875 
L 28.078125 72.90625 
z
" id="DejaVuSans-34"/>
      <path d="M 10.6875 12.40625 
L 21 12.40625 
L 21 0 
L 10.6875 0 
z
" id="DejaVuSans-46"/>
     </defs>
     <g transform="translate(280.765763 352.375313)scale(0.08 -0.08)">
      <use xlink:href="#DejaVuSans-114"/>
      <use x="41.082031" xlink:href="#DejaVuSans-101"/>
      <use x="102.605469" xlink:href="#DejaVuSans-108"/>
      <use x="130.388672" xlink:href="#DejaVuSans-97"/>
      <use x="191.667969" xlink:href="#DejaVuSans-116"/>
      <use x="230.876953" xlink:href="#DejaVuSans-105"/>
      <use x="258.660156" xlink:href="#DejaVuSans-118"/>
      <use x="317.839844" xlink:href="#DejaVuSans-101"/>
      <use x="379.363281" xlink:href="#DejaVuSans-32"/>
      <use x="411.150391" xlink:href="#DejaVuSans-101"/>
      <use x="472.673828" xlink:href="#DejaVuSans-114"/>
      <use x="513.771484" xlink:href="#DejaVuSans-114"/>
      <use x="554.853516" xlink:href="#DejaVuSans-111"/>
      <use x="616.035156" xlink:href="#DejaVuSans-114"/>
      <use x="657.148438" xlink:href="#DejaVuSans-32"/>
      <use x="688.935547" xlink:href="#DejaVuSans-119"/>
      <use x="770.722656" xlink:href="#DejaVuSans-105"/>
      <use x="798.505859" xlink:href="#DejaVuSans-116"/>
      <use x="837.714844" xlink:href="#DejaVuSans-104"/>
      <use x="901.09375" xlink:href="#DejaVuSans-32"/>
      <use x="932.880859" xlink:href="#DejaVuSans-78"/>
      <use x="1007.685547" xlink:href="#DejaVuSans-117"/>
      <use x="1071.064453" xlink:href="#DejaVuSans-109"/>
      <use x="1168.476562" xlink:href="#DejaVuSans-80"/>
      <use x="1228.779297" xlink:href="#DejaVuSans-121"/>
      <use x="1287.958984" xlink:href="#DejaVuSans-32"/>
      <use x="1319.746094" xlink:href="#DejaVuSans-34"/>
      <use x="1365.742188" xlink:href="#DejaVuSans-108"/>
      <use x="1393.525391" xlink:href="#DejaVuSans-105"/>
      <use x="1421.308594" xlink:href="#DejaVuSans-110"/>
      <use x="1484.6875" xlink:href="#DejaVuSans-97"/>
      <use x="1545.966797" xlink:href="#DejaVuSans-108"/>
      <use x="1573.75" xlink:href="#DejaVuSans-103"/>
      <use x="1637.226562" xlink:href="#DejaVuSans-46"/>
      <use x="1669.013672" xlink:href="#DejaVuSans-101"/>
      <use x="1730.537109" xlink:href="#DejaVuSans-105"/>
      <use x="1758.320312" xlink:href="#DejaVuSans-103"/>
      <use x="1821.796875" xlink:href="#DejaVuSans-34"/>
      <use x="1867.792969" xlink:href="#DejaVuSans-32"/>
      <use x="1899.580078" xlink:href="#DejaVuSans-102"/>
      <use x="1934.785156" xlink:href="#DejaVuSans-117"/>
      <use x="1998.164062" xlink:href="#DejaVuSans-110"/>
      <use x="2061.542969" xlink:href="#DejaVuSans-99"/>
      <use x="2116.523438" xlink:href="#DejaVuSans-116"/>
      <use x="2155.732422" xlink:href="#DejaVuSans-105"/>
      <use x="2183.515625" xlink:href="#DejaVuSans-111"/>
      <use x="2244.697266" xlink:href="#DejaVuSans-110"/>
     </g>
    </g>
   </g>
   <g id="matplotlib.axis_4">
    <g id="ytick_7">
     <g id="line2d_30">
      <g>
       <use style="stroke:#000000;stroke-width:0.8;" x="44.994219" xlink:href="#m179b0a5635" y="320.790085"/>
      </g>
     </g>
     <g id="text_24">
      <!-- 0.0 -->
      <g transform="translate(25.271719 323.82946)scale(0.08 -0.08)">
       <use xlink:href="#DejaVuSans-48"/>
       <use x="63.623047" xlink:href="#DejaVuSans-46"/>
       <use x="95.410156" xlink:href="#DejaVuSans-48"/>
      </g>
     </g>
    </g>
    <g id="ytick_8">
     <g id="line2d_31">
      <g>
       <use style="stroke:#000000;stroke-width:0.8;" x="44.994219" xlink:href="#m179b0a5635" y="286.970199"/>
      </g>
     </g>
     <g id="text_25">
      <!-- 0.5 -->
      <g transform="translate(25.271719 290.009574)scale(0.08 -0.08)">
       <use xlink:href="#DejaVuSans-48"/>
       <use x="63.623047" xlink:href="#DejaVuSans-46"/>
       <use x="95.410156" xlink:href="#DejaVuSans-53"/>
      </g>
     </g>
    </g>
    <g id="ytick_9">
     <g id="line2d_32">
      <g>
       <use style="stroke:#000000;stroke-width:0.8;" x="44.994219" xlink:href="#m179b0a5635" y="253.150312"/>
      </g>
     </g>
     <g id="text_26">
      <!-- 1.0 -->
      <g transform="translate(25.271719 256.189687)scale(0.08 -0.08)">
       <use xlink:href="#DejaVuSans-49"/>
       <use x="63.623047" xlink:href="#DejaVuSans-46"/>
       <use x="95.410156" xlink:href="#DejaVuSans-48"/>
      </g>
     </g>
    </g>
    <g id="ytick_10">
     <g id="line2d_33">
      <g>
       <use style="stroke:#000000;stroke-width:0.8;" x="44.994219" xlink:href="#m179b0a5635" y="219.330426"/>
      </g>
     </g>
     <g id="text_27">
      <!-- 1.5 -->
      <g transform="translate(25.271719 222.369801)scale(0.08 -0.08)">
       <use xlink:href="#DejaVuSans-49"/>
       <use x="63.623047" xlink:href="#DejaVuSans-46"/>
       <use x="95.410156" xlink:href="#DejaVuSans-53"/>
      </g>
     </g>
    </g>
    <g id="ytick_11">
     <g id="line2d_34">
      <g>
       <use style="stroke:#000000;stroke-width:0.8;" x="44.994219" xlink:href="#m179b0a5635" y="185.51054"/>
      </g>
     </g>
     <g id="text_28">
      <!-- 2.0 -->
      <g transform="translate(25.271719 188.549915)scale(0.08 -0.08)">
       <use xlink:href="#DejaVuSans-50"/>
       <use x="63.623047" xlink:href="#DejaVuSans-46"/>
       <use x="95.410156" xlink:href="#DejaVuSans-48"/>
      </g>
     </g>
    </g>
    <g id="text_29">
     <!-- capacity using SPIDER-WEB -->
     <defs>
      <path d="M 18.109375 8.203125 
L 18.109375 -20.796875 
L 9.078125 -20.796875 
L 9.078125 54.6875 
L 18.109375 54.6875 
L 18.109375 46.390625 
Q 20.953125 51.265625 25.265625 53.625 
Q 29.59375 56 35.59375 56 
Q 45.5625 56 51.78125 48.09375 
Q 58.015625 40.1875 58.015625 27.296875 
Q 58.015625 14.40625 51.78125 6.484375 
Q 45.5625 -1.421875 35.59375 -1.421875 
Q 29.59375 -1.421875 25.265625 0.953125 
Q 20.953125 3.328125 18.109375 8.203125 
z
M 48.6875 27.296875 
Q 48.6875 37.203125 44.609375 42.84375 
Q 40.53125 48.484375 33.40625 48.484375 
Q 26.265625 48.484375 22.1875 42.84375 
Q 18.109375 37.203125 18.109375 27.296875 
Q 18.109375 17.390625 22.1875 11.75 
Q 26.265625 6.109375 33.40625 6.109375 
Q 40.53125 6.109375 44.609375 11.75 
Q 48.6875 17.390625 48.6875 27.296875 
z
" id="DejaVuSans-112"/>
      <path d="M 44.28125 53.078125 
L 44.28125 44.578125 
Q 40.484375 46.53125 36.375 47.5 
Q 32.28125 48.484375 27.875 48.484375 
Q 21.1875 48.484375 17.84375 46.4375 
Q 14.5 44.390625 14.5 40.28125 
Q 14.5 37.15625 16.890625 35.375 
Q 19.28125 33.59375 26.515625 31.984375 
L 29.59375 31.296875 
Q 39.15625 29.25 43.1875 25.515625 
Q 47.21875 21.78125 47.21875 15.09375 
Q 47.21875 7.46875 41.1875 3.015625 
Q 35.15625 -1.421875 24.609375 -1.421875 
Q 20.21875 -1.421875 15.453125 -0.5625 
Q 10.6875 0.296875 5.421875 2 
L 5.421875 11.28125 
Q 10.40625 8.6875 15.234375 7.390625 
Q 20.0625 6.109375 24.8125 6.109375 
Q 31.15625 6.109375 34.5625 8.28125 
Q 37.984375 10.453125 37.984375 14.40625 
Q 37.984375 18.0625 35.515625 20.015625 
Q 33.0625 21.96875 24.703125 23.78125 
L 21.578125 24.515625 
Q 13.234375 26.265625 9.515625 29.90625 
Q 5.8125 33.546875 5.8125 39.890625 
Q 5.8125 47.609375 11.28125 51.796875 
Q 16.75 56 26.8125 56 
Q 31.78125 56 36.171875 55.265625 
Q 40.578125 54.546875 44.28125 53.078125 
z
" id="DejaVuSans-115"/>
      <path d="M 53.515625 70.515625 
L 53.515625 60.890625 
Q 47.90625 63.578125 42.921875 64.890625 
Q 37.9375 66.21875 33.296875 66.21875 
Q 25.25 66.21875 20.875 63.09375 
Q 16.5 59.96875 16.5 54.203125 
Q 16.5 49.359375 19.40625 46.890625 
Q 22.3125 44.4375 30.421875 42.921875 
L 36.375 41.703125 
Q 47.40625 39.59375 52.65625 34.296875 
Q 57.90625 29 57.90625 20.125 
Q 57.90625 9.515625 50.796875 4.046875 
Q 43.703125 -1.421875 29.984375 -1.421875 
Q 24.8125 -1.421875 18.96875 -0.25 
Q 13.140625 0.921875 6.890625 3.21875 
L 6.890625 13.375 
Q 12.890625 10.015625 18.65625 8.296875 
Q 24.421875 6.59375 29.984375 6.59375 
Q 38.421875 6.59375 43.015625 9.90625 
Q 47.609375 13.234375 47.609375 19.390625 
Q 47.609375 24.75 44.3125 27.78125 
Q 41.015625 30.8125 33.5 32.328125 
L 27.484375 33.5 
Q 16.453125 35.6875 11.515625 40.375 
Q 6.59375 45.0625 6.59375 53.421875 
Q 6.59375 63.09375 13.40625 68.65625 
Q 20.21875 74.21875 32.171875 74.21875 
Q 37.3125 74.21875 42.625 73.28125 
Q 47.953125 72.359375 53.515625 70.515625 
z
" id="DejaVuSans-83"/>
      <path d="M 9.8125 72.90625 
L 19.671875 72.90625 
L 19.671875 0 
L 9.8125 0 
z
" id="DejaVuSans-73"/>
      <path d="M 19.671875 64.796875 
L 19.671875 8.109375 
L 31.59375 8.109375 
Q 46.6875 8.109375 53.6875 14.9375 
Q 60.6875 21.78125 60.6875 36.53125 
Q 60.6875 51.171875 53.6875 57.984375 
Q 46.6875 64.796875 31.59375 64.796875 
z
M 9.8125 72.90625 
L 30.078125 72.90625 
Q 51.265625 72.90625 61.171875 64.09375 
Q 71.09375 55.28125 71.09375 36.53125 
Q 71.09375 17.671875 61.125 8.828125 
Q 51.171875 0 30.078125 0 
L 9.8125 0 
z
" id="DejaVuSans-68"/>
      <path d="M 9.8125 72.90625 
L 55.90625 72.90625 
L 55.90625 64.59375 
L 19.671875 64.59375 
L 19.671875 43.015625 
L 54.390625 43.015625 
L 54.390625 34.71875 
L 19.671875 34.71875 
L 19.671875 8.296875 
L 56.78125 8.296875 
L 56.78125 0 
L 9.8125 0 
z
" id="DejaVuSans-69"/>
      <path d="M 44.390625 34.1875 
Q 47.5625 33.109375 50.5625 29.59375 
Q 53.5625 26.078125 56.59375 19.921875 
L 66.609375 0 
L 56 0 
L 46.6875 18.703125 
Q 43.0625 26.03125 39.671875 28.421875 
Q 36.28125 30.8125 30.421875 30.8125 
L 19.671875 30.8125 
L 19.671875 0 
L 9.8125 0 
L 9.8125 72.90625 
L 32.078125 72.90625 
Q 44.578125 72.90625 50.734375 67.671875 
Q 56.890625 62.453125 56.890625 51.90625 
Q 56.890625 45.015625 53.6875 40.46875 
Q 50.484375 35.9375 44.390625 34.1875 
z
M 19.671875 64.796875 
L 19.671875 38.921875 
L 32.078125 38.921875 
Q 39.203125 38.921875 42.84375 42.21875 
Q 46.484375 45.515625 46.484375 51.90625 
Q 46.484375 58.296875 42.84375 61.546875 
Q 39.203125 64.796875 32.078125 64.796875 
z
" id="DejaVuSans-82"/>
      <path d="M 4.890625 31.390625 
L 31.203125 31.390625 
L 31.203125 23.390625 
L 4.890625 23.390625 
z
" id="DejaVuSans-45"/>
      <path d="M 3.328125 72.90625 
L 13.28125 72.90625 
L 28.609375 11.28125 
L 43.890625 72.90625 
L 54.984375 72.90625 
L 70.3125 11.28125 
L 85.59375 72.90625 
L 95.609375 72.90625 
L 77.296875 0 
L 64.890625 0 
L 49.515625 63.28125 
L 33.984375 0 
L 21.578125 0 
z
" id="DejaVuSans-87"/>
      <path d="M 19.671875 34.8125 
L 19.671875 8.109375 
L 35.5 8.109375 
Q 43.453125 8.109375 47.28125 11.40625 
Q 51.125 14.703125 51.125 21.484375 
Q 51.125 28.328125 47.28125 31.5625 
Q 43.453125 34.8125 35.5 34.8125 
z
M 19.671875 64.796875 
L 19.671875 42.828125 
L 34.28125 42.828125 
Q 41.5 42.828125 45.03125 45.53125 
Q 48.578125 48.25 48.578125 53.8125 
Q 48.578125 59.328125 45.03125 62.0625 
Q 41.5 64.796875 34.28125 64.796875 
z
M 9.8125 72.90625 
L 35.015625 72.90625 
Q 46.296875 72.90625 52.390625 68.21875 
Q 58.5 63.53125 58.5 54.890625 
Q 58.5 48.1875 55.375 44.234375 
Q 52.25 40.28125 46.1875 39.3125 
Q 53.46875 37.75 57.5 32.78125 
Q 61.53125 27.828125 61.53125 20.40625 
Q 61.53125 10.640625 54.890625 5.3125 
Q 48.25 0 35.984375 0 
L 9.8125 0 
z
" id="DejaVuSans-66"/>
     </defs>
     <g transform="translate(14.549219 308.567813)rotate(-90)scale(0.08 -0.08)">
      <use xlink:href="#DejaVuSans-99"/>
      <use x="54.980469" xlink:href="#DejaVuSans-97"/>
      <use x="116.259766" xlink:href="#DejaVuSans-112"/>
      <use x="179.736328" xlink:href="#DejaVuSans-97"/>
      <use x="241.015625" xlink:href="#DejaVuSans-99"/>
      <use x="295.996094" xlink:href="#DejaVuSans-105"/>
      <use x="323.779297" xlink:href="#DejaVuSans-116"/>
      <use x="362.988281" xlink:href="#DejaVuSans-121"/>
      <use x="422.167969" xlink:href="#DejaVuSans-32"/>
      <use x="453.955078" xlink:href="#DejaVuSans-117"/>
      <use x="517.333984" xlink:href="#DejaVuSans-115"/>
      <use x="569.433594" xlink:href="#DejaVuSans-105"/>
      <use x="597.216797" xlink:href="#DejaVuSans-110"/>
      <use x="660.595703" xlink:href="#DejaVuSans-103"/>
      <use x="724.072266" xlink:href="#DejaVuSans-32"/>
      <use x="755.859375" xlink:href="#DejaVuSans-83"/>
      <use x="819.335938" xlink:href="#DejaVuSans-80"/>
      <use x="879.638672" xlink:href="#DejaVuSans-73"/>
      <use x="909.130859" xlink:href="#DejaVuSans-68"/>
      <use x="986.132812" xlink:href="#DejaVuSans-69"/>
      <use x="1049.316406" xlink:href="#DejaVuSans-82"/>
      <use x="1118.736328" xlink:href="#DejaVuSans-45"/>
      <use x="1154.757812" xlink:href="#DejaVuSans-87"/>
      <use x="1253.634766" xlink:href="#DejaVuSans-69"/>
      <use x="1316.818359" xlink:href="#DejaVuSans-66"/>
     </g>
    </g>
   </g>
   <g id="line2d_35">
    <path clip-path="url(#p900432d4f0)" d="M 62.939587 223.494099 
L 69.005336 224.360294 
L 75.071085 225.226488 
L 81.136834 226.092683 
L 87.202583 226.958877 
L 93.268332 227.825072 
L 99.334081 228.691266 
L 105.39983 229.557461 
L 111.465578 230.423655 
L 117.531327 231.28985 
L 123.597076 232.156044 
L 129.662825 233.022239 
L 135.728574 233.888433 
L 141.794323 234.754628 
L 147.860072 235.620822 
L 153.925821 236.487017 
L 159.99157 237.353211 
L 166.057319 238.219405 
L 172.123068 239.0856 
L 178.188817 239.951794 
L 184.254566 240.817989 
L 190.320315 241.684183 
L 196.386064 242.550378 
L 202.451813 243.416572 
L 208.517562 244.282767 
L 214.583311 245.148961 
L 220.64906 246.015156 
L 226.714809 246.88135 
L 232.780558 247.747545 
L 238.846307 248.613739 
L 244.912056 249.479934 
L 250.977805 250.346128 
L 257.043554 251.212323 
L 263.109303 252.078517 
L 269.175052 252.944712 
L 275.240801 253.810906 
L 281.30655 254.677101 
L 287.372299 255.543295 
L 293.438048 256.40949 
L 299.503797 257.275684 
L 305.569546 258.141879 
L 311.635295 259.008073 
L 317.701044 259.874268 
L 323.766793 260.740462 
L 329.832542 261.606657 
L 335.898291 262.472851 
L 341.964039 263.339045 
L 348.029788 264.20524 
L 354.095537 265.071434 
L 360.161286 265.937629 
L 366.227035 266.803823 
L 372.292784 267.670018 
L 378.358533 268.536212 
L 384.424282 269.402407 
L 390.490031 270.268601 
L 396.55578 271.134796 
L 402.621529 272.00099 
L 408.687278 272.867185 
L 414.753027 273.733379 
L 420.818776 274.599574 
L 426.884525 275.465768 
L 432.950274 276.331963 
L 439.016023 277.198157 
L 445.081772 278.064352 
L 451.147521 278.930546 
L 457.21327 279.796741 
L 463.279019 280.662935 
L 469.344768 281.52913 
L 475.410517 282.395324 
L 481.476266 283.261519 
L 487.542015 284.127713 
L 493.607764 284.993908 
L 499.673513 285.860102 
L 505.739262 286.726297 
L 511.805011 287.592491 
L 517.87076 288.458685 
L 523.936509 289.32488 
L 530.002258 290.191074 
L 536.068007 291.057269 
L 542.133756 291.923463 
L 548.199505 292.789658 
L 554.265254 293.655852 
L 560.331003 294.522047 
L 566.396752 295.388241 
L 572.462501 296.254436 
L 578.528249 297.12063 
L 584.593998 297.986825 
L 590.659747 298.853019 
L 596.725496 299.719214 
L 602.791245 300.585408 
L 608.856994 301.451603 
L 614.922743 302.317797 
L 620.988492 303.183992 
L 627.054241 304.050186 
L 633.11999 304.916381 
L 639.185739 305.782575 
L 645.251488 306.64877 
L 651.317237 307.514964 
L 657.382986 308.381159 
L 663.448735 309.247353 
" style="fill:none;stroke:#000000;stroke-dasharray:3.7,1.6;stroke-dashoffset:0;"/>
   </g>
   <g id="patch_8">
    <path d="M 44.994219 327.554062 
L 44.994219 178.746563 
" style="fill:none;stroke:#000000;stroke-linecap:square;stroke-linejoin:miter;stroke-width:0.8;"/>
   </g>
   <g id="patch_9">
    <path d="M 701.181057 327.554062 
L 701.181057 178.746563 
" style="fill:none;stroke:#000000;stroke-linecap:square;stroke-linejoin:miter;stroke-width:0.8;"/>
   </g>
   <g id="patch_10">
    <path d="M 44.994219 327.554062 
L 701.181057 327.554062 
" style="fill:none;stroke:#000000;stroke-linecap:square;stroke-linejoin:miter;stroke-width:0.8;"/>
   </g>
   <g id="patch_11">
    <path d="M 44.994219 178.746563 
L 701.181057 178.746563 
" style="fill:none;stroke:#000000;stroke-linecap:square;stroke-linejoin:miter;stroke-width:0.8;"/>
   </g>
   <g id="PathCollection_1">
    <defs>
     <path d="M 0 3 
C 0.795609 3 1.55874 2.683901 2.12132 2.12132 
C 2.683901 1.55874 3 0.795609 3 0 
C 3 -0.795609 2.683901 -1.55874 2.12132 -2.12132 
C 1.55874 -2.683901 0.795609 -3 0 -3 
C -0.795609 -3 -1.55874 -2.683901 -2.12132 -2.12132 
C -2.683901 -1.55874 -3 -0.795609 -3 0 
C -3 0.795609 -2.683901 1.55874 -2.12132 2.12132 
C -1.55874 2.683901 -0.795609 3 0 3 
z
" id="m6c2c770048" style="stroke:#000000;"/>
    </defs>
    <g clip-path="url(#p900432d4f0)">
     <use style="fill:#81b8df;stroke:#000000;" x="290.486801" xlink:href="#m6c2c770048" y="249.094433"/>
     <use style="fill:#81b8df;stroke:#000000;" x="62.939587" xlink:href="#m6c2c770048" y="242.014335"/>
     <use style="fill:#81b8df;stroke:#000000;" x="316.033622" xlink:href="#m6c2c770048" y="255.667589"/>
     <use style="fill:#81b8df;stroke:#000000;" x="290.293769" xlink:href="#m6c2c770048" y="266.28175"/>
     <use style="fill:#81b8df;stroke:#000000;" x="274.927466" xlink:href="#m6c2c770048" y="243.233771"/>
     <use style="fill:#81b8df;stroke:#000000;" x="198.426783" xlink:href="#m6c2c770048" y="250.857678"/>
     <use style="fill:#81b8df;stroke:#000000;" x="374.469694" xlink:href="#m6c2c770048" y="289.340403"/>
     <use style="fill:#81b8df;stroke:#000000;" x="319.165531" xlink:href="#m6c2c770048" y="269.058182"/>
     <use style="fill:#81b8df;stroke:#000000;" x="338.189105" xlink:href="#m6c2c770048" y="265.962825"/>
     <use style="fill:#81b8df;stroke:#000000;" x="223.991652" xlink:href="#m6c2c770048" y="227.193898"/>
     <use style="fill:#81b8df;stroke:#000000;" x="313.137562" xlink:href="#m6c2c770048" y="293.349628"/>
     <use style="fill:#81b8df;stroke:#000000;" x="282.276199" xlink:href="#m6c2c770048" y="252.047922"/>
     <use style="fill:#81b8df;stroke:#000000;" x="303.88105" xlink:href="#m6c2c770048" y="242.621059"/>
     <use style="fill:#81b8df;stroke:#000000;" x="336.860293" xlink:href="#m6c2c770048" y="253.150313"/>
     <use style="fill:#81b8df;stroke:#000000;" x="308.769924" xlink:href="#m6c2c770048" y="245.844893"/>
     <use style="fill:#81b8df;stroke:#000000;" x="297.014812" xlink:href="#m6c2c770048" y="241.980087"/>
     <use style="fill:#81b8df;stroke:#000000;" x="254.480347" xlink:href="#m6c2c770048" y="276.068735"/>
     <use style="fill:#81b8df;stroke:#000000;" x="319.954779" xlink:href="#m6c2c770048" y="246.811898"/>
     <use style="fill:#81b8df;stroke:#000000;" x="326.615839" xlink:href="#m6c2c770048" y="247.396004"/>
     <use style="fill:#81b8df;stroke:#000000;" x="321.859704" xlink:href="#m6c2c770048" y="257.054323"/>
     <use style="fill:#81b8df;stroke:#000000;" x="302.391686" xlink:href="#m6c2c770048" y="268.877717"/>
     <use style="fill:#81b8df;stroke:#000000;" x="280.536873" xlink:href="#m6c2c770048" y="255.578731"/>
     <use style="fill:#81b8df;stroke:#000000;" x="663.448735" xlink:href="#m6c2c770048" y="320.787878"/>
     <use style="fill:#81b8df;stroke:#000000;" x="286.847904" xlink:href="#m6c2c770048" y="251.017162"/>
     <use style="fill:#81b8df;stroke:#000000;" x="331.251785" xlink:href="#m6c2c770048" y="248.361679"/>
     <use style="fill:#81b8df;stroke:#000000;" x="334.587592" xlink:href="#m6c2c770048" y="263.898298"/>
     <use style="fill:#81b8df;stroke:#000000;" x="304.185763" xlink:href="#m6c2c770048" y="250.855196"/>
     <use style="fill:#81b8df;stroke:#000000;" x="288.115262" xlink:href="#m6c2c770048" y="242.871324"/>
     <use style="fill:#81b8df;stroke:#000000;" x="257.233246" xlink:href="#m6c2c770048" y="257.779333"/>
     <use style="fill:#81b8df;stroke:#000000;" x="288.12474" xlink:href="#m6c2c770048" y="245.311884"/>
     <use style="fill:#81b8df;stroke:#000000;" x="317.383963" xlink:href="#m6c2c770048" y="247.238989"/>
     <use style="fill:#81b8df;stroke:#000000;" x="283.551687" xlink:href="#m6c2c770048" y="264.055045"/>
     <use style="fill:#81b8df;stroke:#000000;" x="294.761088" xlink:href="#m6c2c770048" y="253.879173"/>
     <use style="fill:#81b8df;stroke:#000000;" x="200.75085" xlink:href="#m6c2c770048" y="265.182861"/>
     <use style="fill:#81b8df;stroke:#000000;" x="210.133367" xlink:href="#m6c2c770048" y="243.084988"/>
     <use style="fill:#81b8df;stroke:#000000;" x="286.359339" xlink:href="#m6c2c770048" y="240.236995"/>
     <use style="fill:#81b8df;stroke:#000000;" x="275.762965" xlink:href="#m6c2c770048" y="255.451779"/>
     <use style="fill:#81b8df;stroke:#000000;" x="330.86734" xlink:href="#m6c2c770048" y="276.061164"/>
     <use style="fill:#81b8df;stroke:#000000;" x="293.878501" xlink:href="#m6c2c770048" y="253.150313"/>
     <use style="fill:#81b8df;stroke:#000000;" x="322.3382" xlink:href="#m6c2c770048" y="259.970349"/>
     <use style="fill:#81b8df;stroke:#000000;" x="332.695954" xlink:href="#m6c2c770048" y="257.601392"/>
     <use style="fill:#81b8df;stroke:#000000;" x="349.752947" xlink:href="#m6c2c770048" y="277.454075"/>
     <use style="fill:#81b8df;stroke:#000000;" x="295.553379" xlink:href="#m6c2c770048" y="231.823442"/>
     <use style="fill:#81b8df;stroke:#000000;" x="275.100364" xlink:href="#m6c2c770048" y="240.448687"/>
     <use style="fill:#81b8df;stroke:#000000;" x="338.531053" xlink:href="#m6c2c770048" y="266.814494"/>
     <use style="fill:#81b8df;stroke:#000000;" x="267.833803" xlink:href="#m6c2c770048" y="289.006749"/>
     <use style="fill:#81b8df;stroke:#000000;" x="123.16269" xlink:href="#m6c2c770048" y="247.920696"/>
     <use style="fill:#81b8df;stroke:#000000;" x="315.910887" xlink:href="#m6c2c770048" y="252.571712"/>
     <use style="fill:#81b8df;stroke:#000000;" x="276.498137" xlink:href="#m6c2c770048" y="265.398213"/>
     <use style="fill:#81b8df;stroke:#000000;" x="276.990744" xlink:href="#m6c2c770048" y="237.791197"/>
     <use style="fill:#81b8df;stroke:#000000;" x="266.476771" xlink:href="#m6c2c770048" y="248.289905"/>
     <use style="fill:#81b8df;stroke:#000000;" x="216.858351" xlink:href="#m6c2c770048" y="245.861124"/>
     <use style="fill:#81b8df;stroke:#000000;" x="281.698568" xlink:href="#m6c2c770048" y="239.654125"/>
     <use style="fill:#81b8df;stroke:#000000;" x="238.403271" xlink:href="#m6c2c770048" y="273.83172"/>
     <use style="fill:#81b8df;stroke:#000000;" x="259.939678" xlink:href="#m6c2c770048" y="252.039708"/>
     <use style="fill:#81b8df;stroke:#000000;" x="221.864471" xlink:href="#m6c2c770048" y="237.882292"/>
     <use style="fill:#81b8df;stroke:#000000;" x="278.803001" xlink:href="#m6c2c770048" y="247.660454"/>
     <use style="fill:#81b8df;stroke:#000000;" x="281.256374" xlink:href="#m6c2c770048" y="242.824145"/>
     <use style="fill:#81b8df;stroke:#000000;" x="304.356605" xlink:href="#m6c2c770048" y="262.796593"/>
     <use style="fill:#81b8df;stroke:#000000;" x="343.72156" xlink:href="#m6c2c770048" y="299.355894"/>
     <use style="fill:#81b8df;stroke:#000000;" x="285.924933" xlink:href="#m6c2c770048" y="247.020732"/>
     <use style="fill:#81b8df;stroke:#000000;" x="233.67634" xlink:href="#m6c2c770048" y="247.932376"/>
     <use style="fill:#81b8df;stroke:#000000;" x="255.4809" xlink:href="#m6c2c770048" y="229.130186"/>
     <use style="fill:#81b8df;stroke:#000000;" x="264.153684" xlink:href="#m6c2c770048" y="255.810902"/>
     <use style="fill:#81b8df;stroke:#000000;" x="324.161273" xlink:href="#m6c2c770048" y="303.499155"/>
     <use style="fill:#81b8df;stroke:#000000;" x="332.034028" xlink:href="#m6c2c770048" y="250.711129"/>
     <use style="fill:#81b8df;stroke:#000000;" x="311.228474" xlink:href="#m6c2c770048" y="257.528227"/>
     <use style="fill:#81b8df;stroke:#000000;" x="173.7103" xlink:href="#m6c2c770048" y="245.875269"/>
     <use style="fill:#81b8df;stroke:#000000;" x="322.579857" xlink:href="#m6c2c770048" y="261.324821"/>
     <use style="fill:#81b8df;stroke:#000000;" x="271.298234" xlink:href="#m6c2c770048" y="259.616293"/>
     <use style="fill:#81b8df;stroke:#000000;" x="280.312157" xlink:href="#m6c2c770048" y="246.719677"/>
     <use style="fill:#81b8df;stroke:#000000;" x="366.530179" xlink:href="#m6c2c770048" y="253.049789"/>
     <use style="fill:#81b8df;stroke:#000000;" x="319.386031" xlink:href="#m6c2c770048" y="253.419196"/>
     <use style="fill:#81b8df;stroke:#000000;" x="310.81763" xlink:href="#m6c2c770048" y="251.975616"/>
     <use style="fill:#81b8df;stroke:#000000;" x="640.655579" xlink:href="#m6c2c770048" y="320.789109"/>
     <use style="fill:#81b8df;stroke:#000000;" x="317.678553" xlink:href="#m6c2c770048" y="260.824334"/>
     <use style="fill:#81b8df;stroke:#000000;" x="289.996691" xlink:href="#m6c2c770048" y="254.055529"/>
     <use style="fill:#81b8df;stroke:#000000;" x="336.691147" xlink:href="#m6c2c770048" y="254.323182"/>
     <use style="fill:#81b8df;stroke:#000000;" x="331.934971" xlink:href="#m6c2c770048" y="248.381876"/>
     <use style="fill:#81b8df;stroke:#000000;" x="304.582685" xlink:href="#m6c2c770048" y="253.205303"/>
     <use style="fill:#81b8df;stroke:#000000;" x="307.224976" xlink:href="#m6c2c770048" y="239.552558"/>
     <use style="fill:#81b8df;stroke:#000000;" x="308.236896" xlink:href="#m6c2c770048" y="280.67272"/>
     <use style="fill:#81b8df;stroke:#000000;" x="247.521182" xlink:href="#m6c2c770048" y="288.346683"/>
     <use style="fill:#81b8df;stroke:#000000;" x="275.806881" xlink:href="#m6c2c770048" y="238.717574"/>
     <use style="fill:#81b8df;stroke:#000000;" x="330.744164" xlink:href="#m6c2c770048" y="270.431559"/>
     <use style="fill:#81b8df;stroke:#000000;" x="310.589201" xlink:href="#m6c2c770048" y="261.571919"/>
     <use style="fill:#81b8df;stroke:#000000;" x="314.741911" xlink:href="#m6c2c770048" y="250.159269"/>
     <use style="fill:#81b8df;stroke:#000000;" x="283.838745" xlink:href="#m6c2c770048" y="251.84817"/>
     <use style="fill:#81b8df;stroke:#000000;" x="315.200347" xlink:href="#m6c2c770048" y="259.515447"/>
     <use style="fill:#81b8df;stroke:#000000;" x="296.207316" xlink:href="#m6c2c770048" y="248.323846"/>
     <use style="fill:#81b8df;stroke:#000000;" x="288.275961" xlink:href="#m6c2c770048" y="250.316775"/>
     <use style="fill:#81b8df;stroke:#000000;" x="307.946123" xlink:href="#m6c2c770048" y="247.11129"/>
     <use style="fill:#81b8df;stroke:#000000;" x="326.25569" xlink:href="#m6c2c770048" y="273.83172"/>
     <use style="fill:#81b8df;stroke:#000000;" x="416.633465" xlink:href="#m6c2c770048" y="270.963257"/>
     <use style="fill:#81b8df;stroke:#000000;" x="282.606187" xlink:href="#m6c2c770048" y="240.589236"/>
     <use style="fill:#81b8df;stroke:#000000;" x="302.913089" xlink:href="#m6c2c770048" y="259.659581"/>
     <use style="fill:#81b8df;stroke:#000000;" x="287.215374" xlink:href="#m6c2c770048" y="251.545063"/>
     <use style="fill:#81b8df;stroke:#000000;" x="214.344167" xlink:href="#m6c2c770048" y="241.086705"/>
     <use style="fill:#81b8df;stroke:#000000;" x="254.118543" xlink:href="#m6c2c770048" y="252.148735"/>
     <use style="fill:#81b8df;stroke:#000000;" x="264.174954" xlink:href="#m6c2c770048" y="258.684658"/>
    </g>
   </g>
  </g>
  <g id="text_30">
   <!-- A -->
   <defs>
    <path d="M 34.1875 63.1875 
L 20.796875 26.90625 
L 47.609375 26.90625 
z
M 28.609375 72.90625 
L 39.796875 72.90625 
L 67.578125 0 
L 57.328125 0 
L 50.6875 18.703125 
L 17.828125 18.703125 
L 11.1875 0 
L 0.78125 0 
z
" id="DejaVuSans-65"/>
   </defs>
   <g transform="translate(7.210156 14.798437)scale(0.1 -0.1)">
    <use xlink:href="#DejaVuSans-65"/>
   </g>
  </g>
  <g id="text_31">
   <!-- B -->
   <g transform="translate(7.2 180.398438)scale(0.1 -0.1)">
    <use xlink:href="#DejaVuSans-66"/>
   </g>
  </g>
 </g>
 <defs>
  <clipPath id="p8c6b3a1c9d">
   <rect height="148.8075" width="656.186838" x="44.994219" y="15.639063"/>
  </clipPath>
  <clipPath id="p900432d4f0">
   <rect height="148.8075" width="656.186838" x="44.994219" y="178.746563"/>
  </clipPath>
 </defs>
</svg>
