<?xml version="1.0" encoding="utf-8" standalone="no"?>
<!DOCTYPE svg PUBLIC "-//W3C//DTD SVG 1.1//EN"
  "http://www.w3.org/Graphics/SVG/1.1/DTD/svg11.dtd">
<!-- Created with matplotlib (https://matplotlib.org/) -->
<svg height="352.8pt" version="1.1" viewBox="0 0 712.8 352.8" width="712.8pt" xmlns="http://www.w3.org/2000/svg" xmlns:xlink="http://www.w3.org/1999/xlink">
 <defs>
  <style type="text/css">
*{stroke-linecap:butt;stroke-linejoin:round;}
  </style>
 </defs>
 <g id="figure_1">
  <g id="patch_1">
   <path d="M 0 352.8 
L 712.8 352.8 
L 712.8 0 
L 0 0 
z
" style="fill:#ffffff;"/>
  </g>
  <g id="axes_1">
   <g id="patch_2">
    <path d="M 48.2625 319.115 
L 705.6 319.115 
L 705.6 10.239375 
L 48.2625 10.239375 
z
" style="fill:#ffffff;"/>
   </g>
   <g id="PolyCollection_1">
    <defs>
     <path d="M 179.73 -342.560625 
L 179.73 -33.685 
L 311.1975 -33.685 
L 311.1975 -342.560625 
L 311.1975 -342.560625 
L 179.73 -342.560625 
z
" id="m5e3a5f370c" style="stroke:#f1f1f1;"/>
    </defs>
    <g clip-path="url(#p37544d4814)">
     <use style="fill:#f1f1f1;stroke:#f1f1f1;" x="0" xlink:href="#m5e3a5f370c" y="352.8"/>
    </g>
   </g>
   <g id="PolyCollection_2">
    <defs>
     <path d="M 442.665 -342.560625 
L 442.665 -33.685 
L 574.1325 -33.685 
L 574.1325 -342.560625 
L 574.1325 -342.560625 
L 442.665 -342.560625 
z
" id="m401dd88705" style="stroke:#f1f1f1;"/>
    </defs>
    <g clip-path="url(#p37544d4814)">
     <use style="fill:#f1f1f1;stroke:#f1f1f1;" x="0" xlink:href="#m401dd88705" y="352.8"/>
    </g>
   </g>
   <g id="PolyCollection_3">
    <defs>
     <path d="M 101.801941 -95.58538 
L 99.897059 -95.58538 
L 99.75751 -97.693589 
L 99.604177 -99.801798 
L 99.429178 -101.910006 
L 99.221967 -104.018215 
L 98.969817 -106.126423 
L 98.658363 -108.234632 
L 98.272014 -110.34284 
L 97.794181 -112.451049 
L 97.207419 -114.559257 
L 96.493773 -116.667466 
L 95.635708 -118.775674 
L 94.617937 -120.883883 
L 93.430257 -122.992091 
L 92.071134 -125.1003 
L 90.551426 -127.208509 
L 88.897366 -129.316717 
L 87.15188 -131.424926 
L 85.373551 -133.533134 
L 83.633015 -135.641343 
L 82.007126 -137.749551 
L 80.571749 -139.85776 
L 79.3944 -141.965968 
L 78.527934 -144.074177 
L 78.006273 -146.182385 
L 77.842688 -148.290594 
L 78.030611 -150.398802 
L 78.546512 -152.507011 
L 79.354015 -154.615219 
L 80.408419 -156.723428 
L 81.660857 -158.831637 
L 83.061632 -160.939845 
L 84.56256 -163.048054 
L 86.118443 -165.156262 
L 87.687927 -167.264471 
L 89.23404 -169.372679 
L 90.724611 -171.480888 
L 92.132669 -173.589096 
L 93.436796 -175.697305 
L 94.621344 -177.805513 
L 95.676469 -179.913722 
L 96.597922 -182.02193 
L 97.386637 -184.130139 
L 98.04815 -186.238347 
L 98.591885 -188.346556 
L 99.030319 -190.454765 
L 99.378044 -192.562973 
L 99.650706 -194.671182 
L 99.863898 -196.77939 
L 100.032077 -198.887599 
L 100.167657 -200.995807 
L 100.280401 -203.104016 
L 100.377215 -205.212224 
L 100.462337 -207.320433 
L 100.537857 -209.428641 
L 100.604424 -211.53685 
L 100.661969 -213.645058 
L 100.710302 -215.753267 
L 100.749505 -217.861475 
L 100.780099 -219.969684 
L 100.80302 -222.077893 
L 100.819489 -224.186101 
L 100.830831 -226.29431 
L 100.838316 -228.402518 
L 100.84305 -230.510727 
L 100.84592 -232.618935 
L 100.847588 -234.727144 
L 100.848517 -236.835352 
L 100.849014 -238.943561 
L 100.849268 -241.051769 
L 100.849392 -243.159978 
L 100.849446 -245.268186 
L 100.849462 -247.376395 
L 100.84945 -249.484603 
L 100.8494 -251.592812 
L 100.849284 -253.701021 
L 100.849045 -255.809229 
L 100.848571 -257.917438 
L 100.847674 -260.025646 
L 100.846044 -262.133855 
L 100.843201 -264.242063 
L 100.838441 -266.350272 
L 100.830796 -268.45848 
L 100.819016 -270.566689 
L 100.801605 -272.674897 
L 100.776937 -274.783106 
L 100.743452 -276.891314 
L 100.699933 -278.999523 
L 100.645846 -281.107731 
L 100.581662 -283.21594 
L 100.509114 -285.324149 
L 100.431296 -287.432357 
L 100.352545 -289.540566 
L 100.278104 -291.648774 
L 100.213571 -293.756983 
L 100.164231 -295.865191 
L 100.134357 -297.9734 
L 100.126629 -300.081608 
L 100.141751 -302.189817 
L 100.178349 -304.298025 
L 101.520651 -304.298025 
L 101.520651 -304.298025 
L 101.557249 -302.189817 
L 101.572371 -300.081608 
L 101.564643 -297.9734 
L 101.534769 -295.865191 
L 101.485429 -293.756983 
L 101.420896 -291.648774 
L 101.346455 -289.540566 
L 101.267704 -287.432357 
L 101.189886 -285.324149 
L 101.117338 -283.21594 
L 101.053154 -281.107731 
L 100.999067 -278.999523 
L 100.955548 -276.891314 
L 100.922063 -274.783106 
L 100.897395 -272.674897 
L 100.879984 -270.566689 
L 100.868204 -268.45848 
L 100.860559 -266.350272 
L 100.855799 -264.242063 
L 100.852956 -262.133855 
L 100.851326 -260.025646 
L 100.850429 -257.917438 
L 100.849955 -255.809229 
L 100.849716 -253.701021 
L 100.8496 -251.592812 
L 100.84955 -249.484603 
L 100.849538 -247.376395 
L 100.849554 -245.268186 
L 100.849608 -243.159978 
L 100.849732 -241.051769 
L 100.849986 -238.943561 
L 100.850483 -236.835352 
L 100.851412 -234.727144 
L 100.85308 -232.618935 
L 100.85595 -230.510727 
L 100.860684 -228.402518 
L 100.868169 -226.29431 
L 100.879511 -224.186101 
L 100.89598 -222.077893 
L 100.918901 -219.969684 
L 100.949495 -217.861475 
L 100.988698 -215.753267 
L 101.037031 -213.645058 
L 101.094576 -211.53685 
L 101.161143 -209.428641 
L 101.236663 -207.320433 
L 101.321785 -205.212224 
L 101.418599 -203.104016 
L 101.531343 -200.995807 
L 101.666923 -198.887599 
L 101.835102 -196.77939 
L 102.048294 -194.671182 
L 102.320956 -192.562973 
L 102.668681 -190.454765 
L 103.107115 -188.346556 
L 103.65085 -186.238347 
L 104.312363 -184.130139 
L 105.101078 -182.02193 
L 106.022531 -179.913722 
L 107.077656 -177.805513 
L 108.262204 -175.697305 
L 109.566331 -173.589096 
L 110.974389 -171.480888 
L 112.46496 -169.372679 
L 114.011073 -167.264471 
L 115.580557 -165.156262 
L 117.13644 -163.048054 
L 118.637368 -160.939845 
L 120.038143 -158.831637 
L 121.290581 -156.723428 
L 122.344985 -154.615219 
L 123.152488 -152.507011 
L 123.668389 -150.398802 
L 123.856312 -148.290594 
L 123.692727 -146.182385 
L 123.171066 -144.074177 
L 122.3046 -141.965968 
L 121.127251 -139.85776 
L 119.691874 -137.749551 
L 118.065985 -135.641343 
L 116.325449 -133.533134 
L 114.54712 -131.424926 
L 112.801634 -129.316717 
L 111.147574 -127.208509 
L 109.627866 -125.1003 
L 108.268743 -122.992091 
L 107.081063 -120.883883 
L 106.063292 -118.775674 
L 105.205227 -116.667466 
L 104.491581 -114.559257 
L 103.904819 -112.451049 
L 103.426986 -110.34284 
L 103.040637 -108.234632 
L 102.729183 -106.126423 
L 102.477033 -104.018215 
L 102.269822 -101.910006 
L 102.094823 -99.801798 
L 101.94149 -97.693589 
L 101.801941 -95.58538 
z
" id="me754da9361" style="stroke:#81b8df;"/>
    </defs>
    <g clip-path="url(#p37544d4814)">
     <use style="fill:#b1ccdf;stroke:#81b8df;" x="0" xlink:href="#me754da9361" y="352.8"/>
    </g>
   </g>
   <g id="PolyCollection_4">
    <defs>
     <path d="M 233.68386 -82.185148 
L 230.95014 -82.185148 
L 230.850716 -83.471228 
L 230.775648 -84.757308 
L 230.727829 -86.043388 
L 230.70796 -87.329468 
L 230.714377 -88.615548 
L 230.743176 -89.901629 
L 230.788598 -91.187709 
L 230.84363 -92.473789 
L 230.900737 -93.759869 
L 230.9526 -95.045949 
L 230.992768 -96.332029 
L 231.016132 -97.618109 
L 231.01918 -98.904189 
L 231.000026 -100.190269 
L 230.95825 -101.47635 
L 230.894589 -102.76243 
L 230.810557 -104.04851 
L 230.708021 -105.33459 
L 230.588778 -106.62067 
L 230.454146 -107.90675 
L 230.304586 -109.19283 
L 230.139367 -110.47891 
L 229.956313 -111.76499 
L 229.751659 -113.051071 
L 229.520065 -114.337151 
L 229.25482 -115.623231 
L 228.94824 -116.909311 
L 228.592215 -118.195391 
L 228.17886 -119.481471 
L 227.701159 -120.767551 
L 227.153514 -122.053631 
L 226.532114 -123.339711 
L 225.835098 -124.625792 
L 225.062522 -125.911872 
L 224.216192 -127.197952 
L 223.299475 -128.484032 
L 222.317199 -129.770112 
L 221.275723 -131.056192 
L 220.183235 -132.342272 
L 219.050219 -133.628352 
L 217.890005 -134.914432 
L 216.719229 -136.200513 
L 215.557995 -137.486593 
L 214.429581 -138.772673 
L 213.359551 -140.058753 
L 212.374281 -141.344833 
L 211.498994 -142.630913 
L 210.755529 -143.916993 
L 210.160173 -145.203073 
L 209.721881 -146.489153 
L 209.44121 -147.775234 
L 209.310187 -149.061314 
L 209.313195 -150.347394 
L 209.428809 -151.633474 
L 209.632373 -152.919554 
L 209.898981 -154.205634 
L 210.206485 -155.491714 
L 210.538134 -156.777794 
L 210.884519 -158.063874 
L 211.244564 -159.349955 
L 211.625463 -160.636035 
L 212.041556 -161.922115 
L 212.512289 -163.208195 
L 213.059487 -164.494275 
L 213.704271 -165.780355 
L 214.463959 -167.066435 
L 215.349344 -168.352515 
L 216.362648 -169.638595 
L 217.496432 -170.924676 
L 218.733588 -172.210756 
L 220.048427 -173.496836 
L 221.40873 -174.782916 
L 222.778492 -176.068996 
L 224.121016 -177.355076 
L 225.401951 -178.641156 
L 226.591915 -179.927236 
L 227.668407 -181.213316 
L 228.61684 -182.499397 
L 229.430668 -183.785477 
L 230.110704 -185.071557 
L 230.663833 -186.357637 
L 231.101363 -187.643717 
L 231.437289 -188.929797 
L 231.686671 -190.215877 
L 231.86431 -191.501957 
L 231.983806 -192.788037 
L 232.057014 -194.074117 
L 232.09387 -195.360198 
L 232.102505 -196.646278 
L 232.089557 -197.932358 
L 232.060575 -199.218438 
L 232.020412 -200.504518 
L 231.973557 -201.790598 
L 231.924313 -203.076678 
L 231.876845 -204.362758 
L 231.835072 -205.648838 
L 231.802456 -206.934919 
L 231.781743 -208.220999 
L 231.774714 -209.507079 
L 232.859286 -209.507079 
L 232.859286 -209.507079 
L 232.852257 -208.220999 
L 232.831544 -206.934919 
L 232.798928 -205.648838 
L 232.757155 -204.362758 
L 232.709687 -203.076678 
L 232.660443 -201.790598 
L 232.613588 -200.504518 
L 232.573425 -199.218438 
L 232.544443 -197.932358 
L 232.531495 -196.646278 
L 232.54013 -195.360198 
L 232.576986 -194.074117 
L 232.650194 -192.788037 
L 232.76969 -191.501957 
L 232.947329 -190.215877 
L 233.196711 -188.929797 
L 233.532637 -187.643717 
L 233.970167 -186.357637 
L 234.523296 -185.071557 
L 235.203332 -183.785477 
L 236.01716 -182.499397 
L 236.965593 -181.213316 
L 238.042085 -179.927236 
L 239.232049 -178.641156 
L 240.512984 -177.355076 
L 241.855508 -176.068996 
L 243.22527 -174.782916 
L 244.585573 -173.496836 
L 245.900412 -172.210756 
L 247.137568 -170.924676 
L 248.271352 -169.638595 
L 249.284656 -168.352515 
L 250.170041 -167.066435 
L 250.929729 -165.780355 
L 251.574513 -164.494275 
L 252.121711 -163.208195 
L 252.592444 -161.922115 
L 253.008537 -160.636035 
L 253.389436 -159.349955 
L 253.749481 -158.063874 
L 254.095866 -156.777794 
L 254.427515 -155.491714 
L 254.735019 -154.205634 
L 255.001627 -152.919554 
L 255.205191 -151.633474 
L 255.320805 -150.347394 
L 255.323812 -149.061314 
L 255.19279 -147.775234 
L 254.912119 -146.489153 
L 254.473827 -145.203073 
L 253.878471 -143.916993 
L 253.135006 -142.630913 
L 252.259719 -141.344833 
L 251.274449 -140.058753 
L 250.204419 -138.772673 
L 249.076005 -137.486593 
L 247.914771 -136.200513 
L 246.743995 -134.914432 
L 245.583781 -133.628352 
L 244.450765 -132.342272 
L 243.358277 -131.056192 
L 242.316801 -129.770112 
L 241.334525 -128.484032 
L 240.417808 -127.197952 
L 239.571478 -125.911872 
L 238.798902 -124.625792 
L 238.101886 -123.339711 
L 237.480486 -122.053631 
L 236.932841 -120.767551 
L 236.45514 -119.481471 
L 236.041785 -118.195391 
L 235.68576 -116.909311 
L 235.37918 -115.623231 
L 235.113935 -114.337151 
L 234.882341 -113.051071 
L 234.677687 -111.76499 
L 234.494633 -110.47891 
L 234.329414 -109.19283 
L 234.179854 -107.90675 
L 234.045222 -106.62067 
L 233.925979 -105.33459 
L 233.823443 -104.04851 
L 233.739411 -102.76243 
L 233.67575 -101.47635 
L 233.633974 -100.190269 
L 233.61482 -98.904189 
L 233.617868 -97.618109 
L 233.641232 -96.332029 
L 233.6814 -95.045949 
L 233.733263 -93.759869 
L 233.79037 -92.473789 
L 233.845402 -91.187709 
L 233.890824 -89.901629 
L 233.919623 -88.615548 
L 233.92604 -87.329468 
L 233.906171 -86.043388 
L 233.858352 -84.757308 
L 233.783284 -83.471228 
L 233.68386 -82.185148 
z
" id="m19aec99f1e" style="stroke:#81b8df;"/>
    </defs>
    <g clip-path="url(#p37544d4814)">
     <use style="fill:#b1ccdf;stroke:#81b8df;" x="0" xlink:href="#m19aec99f1e" y="352.8"/>
    </g>
   </g>
   <g id="PolyCollection_5">
    <defs>
     <path d="M 365.002468 -104.093945 
L 362.566532 -104.093945 
L 362.559964 -104.88101 
L 362.569197 -105.668074 
L 362.591487 -106.455139 
L 362.622873 -107.242203 
L 362.658363 -108.029268 
L 362.692189 -108.816332 
L 362.718109 -109.603397 
L 362.729739 -110.390461 
L 362.720878 -111.177526 
L 362.68582 -111.96459 
L 362.619623 -112.751655 
L 362.518351 -113.538719 
L 362.37925 -114.325784 
L 362.200898 -115.112848 
L 361.983286 -115.899913 
L 361.727867 -116.686977 
L 361.437537 -117.474042 
L 361.116565 -118.261106 
L 360.770445 -119.048171 
L 360.405673 -119.835235 
L 360.029432 -120.6223 
L 359.649198 -121.409364 
L 359.272264 -122.196429 
L 358.905205 -122.983493 
L 358.553326 -123.770557 
L 358.220116 -124.557622 
L 357.906778 -125.344686 
L 357.611879 -126.131751 
L 357.331162 -126.918815 
L 357.057572 -127.70588 
L 356.781511 -128.492944 
L 356.491319 -129.280009 
L 356.173965 -130.067073 
L 355.815907 -130.854138 
L 355.404045 -131.641202 
L 354.92671 -132.428267 
L 354.374598 -133.215331 
L 353.741584 -134.002396 
L 353.025349 -134.78946 
L 352.227773 -135.576525 
L 351.35508 -136.363589 
L 350.417718 -137.150654 
L 349.430004 -137.937718 
L 348.409548 -138.724783 
L 347.376515 -139.511847 
L 346.352755 -140.298912 
L 345.360856 -141.085976 
L 344.423164 -141.873041 
L 343.560811 -142.660105 
L 342.792793 -143.44717 
L 342.135127 -144.234234 
L 341.600138 -145.021299 
L 341.195885 -145.808363 
L 340.925786 -146.595427 
L 340.788439 -147.382492 
L 340.777687 -148.169556 
L 340.882918 -148.956621 
L 341.089605 -149.743685 
L 341.380071 -150.53075 
L 341.734432 -151.317814 
L 342.131683 -152.104879 
L 342.550836 -152.891943 
L 342.972068 -153.679008 
L 343.377761 -154.466072 
L 343.753406 -155.253137 
L 344.088273 -156.040201 
L 344.375839 -156.827266 
L 344.613943 -157.61433 
L 344.804683 -158.401395 
L 344.954094 -159.188459 
L 345.071636 -159.975524 
L 345.169567 -160.762588 
L 345.262229 -161.549653 
L 345.365303 -162.336717 
L 345.495051 -163.123782 
L 345.667568 -163.910846 
L 345.898029 -164.697911 
L 346.199969 -165.484975 
L 346.584564 -166.27204 
L 347.059972 -167.059104 
L 347.630746 -167.846168 
L 348.297382 -168.633233 
L 349.056061 -169.420297 
L 349.898619 -170.207362 
L 350.812816 -170.994426 
L 351.782881 -171.781491 
L 352.790341 -172.568555 
L 353.815058 -173.35562 
L 354.836407 -174.142684 
L 355.834473 -174.929749 
L 356.791177 -175.716813 
L 357.691213 -176.503878 
L 358.522722 -177.290942 
L 359.277664 -178.078007 
L 359.951864 -178.865071 
L 360.54476 -179.652136 
L 361.05892 -180.4392 
L 361.499384 -181.226265 
L 361.872926 -182.013329 
L 365.696074 -182.013329 
L 365.696074 -182.013329 
L 366.069616 -181.226265 
L 366.51008 -180.4392 
L 367.02424 -179.652136 
L 367.617136 -178.865071 
L 368.291336 -178.078007 
L 369.046278 -177.290942 
L 369.877787 -176.503878 
L 370.777823 -175.716813 
L 371.734527 -174.929749 
L 372.732593 -174.142684 
L 373.753942 -173.35562 
L 374.778659 -172.568555 
L 375.786119 -171.781491 
L 376.756184 -170.994426 
L 377.670381 -170.207362 
L 378.512939 -169.420297 
L 379.271618 -168.633233 
L 379.938254 -167.846168 
L 380.509028 -167.059104 
L 380.984436 -166.27204 
L 381.369031 -165.484975 
L 381.670971 -164.697911 
L 381.901432 -163.910846 
L 382.073949 -163.123782 
L 382.203697 -162.336717 
L 382.306771 -161.549653 
L 382.399433 -160.762588 
L 382.497364 -159.975524 
L 382.614906 -159.188459 
L 382.764317 -158.401395 
L 382.955057 -157.61433 
L 383.193161 -156.827266 
L 383.480727 -156.040201 
L 383.815594 -155.253137 
L 384.191239 -154.466072 
L 384.596932 -153.679008 
L 385.018164 -152.891943 
L 385.437317 -152.104879 
L 385.834568 -151.317814 
L 386.188929 -150.53075 
L 386.479395 -149.743685 
L 386.686082 -148.956621 
L 386.791312 -148.169556 
L 386.780561 -147.382492 
L 386.643214 -146.595427 
L 386.373115 -145.808363 
L 385.968862 -145.021299 
L 385.433873 -144.234234 
L 384.776207 -143.44717 
L 384.008189 -142.660105 
L 383.145836 -141.873041 
L 382.208144 -141.085976 
L 381.216245 -140.298912 
L 380.192485 -139.511847 
L 379.159452 -138.724783 
L 378.138996 -137.937718 
L 377.151282 -137.150654 
L 376.21392 -136.363589 
L 375.341227 -135.576525 
L 374.543651 -134.78946 
L 373.827416 -134.002396 
L 373.194402 -133.215331 
L 372.64229 -132.428267 
L 372.164955 -131.641202 
L 371.753093 -130.854138 
L 371.395035 -130.067073 
L 371.077681 -129.280009 
L 370.787489 -128.492944 
L 370.511428 -127.70588 
L 370.237838 -126.918815 
L 369.957121 -126.131751 
L 369.662222 -125.344686 
L 369.348884 -124.557622 
L 369.015674 -123.770557 
L 368.663795 -122.983493 
L 368.296736 -122.196429 
L 367.919802 -121.409364 
L 367.539568 -120.6223 
L 367.163327 -119.835235 
L 366.798555 -119.048171 
L 366.452435 -118.261106 
L 366.131463 -117.474042 
L 365.841133 -116.686977 
L 365.585714 -115.899913 
L 365.368102 -115.112848 
L 365.18975 -114.325784 
L 365.050649 -113.538719 
L 364.949377 -112.751655 
L 364.88318 -111.96459 
L 364.848122 -111.177526 
L 364.839261 -110.390461 
L 364.850891 -109.603397 
L 364.876811 -108.816332 
L 364.910637 -108.029268 
L 364.946127 -107.242203 
L 364.977513 -106.455139 
L 364.999803 -105.668074 
L 365.009036 -104.88101 
L 365.002468 -104.093945 
z
" id="mb1e68ed359" style="stroke:#81b8df;"/>
    </defs>
    <g clip-path="url(#p37544d4814)">
     <use style="fill:#b1ccdf;stroke:#81b8df;" x="0" xlink:href="#mb1e68ed359" y="352.8"/>
    </g>
   </g>
   <g id="PolyCollection_6">
    <defs>
     <path d="M 495.830857 -98.835406 
L 494.673143 -98.835406 
L 494.66449 -99.699918 
L 494.661323 -100.564429 
L 494.661228 -101.428941 
L 494.661052 -102.293453 
L 494.65708 -103.157965 
L 494.645264 -104.022476 
L 494.621474 -104.886988 
L 494.581736 -105.7515 
L 494.522439 -106.616012 
L 494.440479 -107.480523 
L 494.333327 -108.345035 
L 494.19901 -109.209547 
L 494.036007 -110.074059 
L 493.843077 -110.93857 
L 493.619053 -111.803082 
L 493.362629 -112.667594 
L 493.072196 -113.532105 
L 492.745767 -114.396617 
L 492.381038 -115.261129 
L 491.975615 -116.125641 
L 491.527407 -116.990152 
L 491.035166 -117.854664 
L 490.499127 -118.719176 
L 489.921659 -119.583688 
L 489.307815 -120.448199 
L 488.665684 -121.312711 
L 488.006429 -122.177223 
L 487.343931 -123.041735 
L 486.694025 -123.906246 
L 486.073345 -124.770758 
L 485.497874 -125.63527 
L 484.981366 -126.499782 
L 484.5338 -127.364293 
L 484.160096 -128.228805 
L 483.859252 -129.093317 
L 483.624051 -129.957828 
L 483.441377 -130.82234 
L 483.293144 -131.686852 
L 483.157709 -132.551364 
L 483.011627 -133.415875 
L 482.831543 -134.280387 
L 482.596017 -135.144899 
L 482.287133 -136.009411 
L 481.891747 -136.873922 
L 481.402338 -137.738434 
L 480.817439 -138.602946 
L 480.141699 -139.467458 
L 479.385633 -140.331969 
L 478.565118 -141.196481 
L 477.700686 -142.060993 
L 476.816644 -142.925504 
L 475.940021 -143.790016 
L 475.099357 -144.654528 
L 474.323347 -145.51904 
L 473.639374 -146.383551 
L 473.072015 -147.248063 
L 472.641626 -148.112575 
L 472.363137 -148.977087 
L 472.245187 -149.841598 
L 472.289728 -150.70611 
L 472.492134 -151.570622 
L 472.84185 -152.435134 
L 473.323502 -153.299645 
L 473.918343 -154.164157 
L 474.605873 -155.028669 
L 475.365447 -155.89318 
L 476.177688 -156.757692 
L 477.025581 -157.622204 
L 477.895141 -158.486716 
L 478.775648 -159.351227 
L 479.659471 -160.215739 
L 480.541564 -161.080251 
L 481.418747 -161.944763 
L 482.2889 -162.809274 
L 483.150179 -163.673786 
L 484.000371 -164.538298 
L 484.836434 -165.40281 
L 485.654283 -166.267321 
L 486.448804 -167.131833 
L 487.214077 -167.996345 
L 487.943759 -168.860856 
L 488.631553 -169.725368 
L 489.271714 -170.58988 
L 489.859511 -171.454392 
L 490.391615 -172.318903 
L 490.866365 -173.183415 
L 491.283903 -174.047927 
L 491.646177 -174.912439 
L 491.956816 -175.77695 
L 492.220901 -176.641462 
L 492.44465 -177.505974 
L 492.635043 -178.370486 
L 492.799411 -179.234997 
L 492.945009 -180.099509 
L 493.078614 -180.964021 
L 493.206161 -181.828532 
L 493.332448 -182.693044 
L 493.460933 -183.557556 
L 493.593647 -184.422068 
L 496.910353 -184.422068 
L 496.910353 -184.422068 
L 497.043067 -183.557556 
L 497.171552 -182.693044 
L 497.297839 -181.828532 
L 497.425386 -180.964021 
L 497.558991 -180.099509 
L 497.704589 -179.234997 
L 497.868957 -178.370486 
L 498.05935 -177.505974 
L 498.283099 -176.641462 
L 498.547184 -175.77695 
L 498.857823 -174.912439 
L 499.220097 -174.047927 
L 499.637635 -173.183415 
L 500.112385 -172.318903 
L 500.644489 -171.454392 
L 501.232286 -170.58988 
L 501.872447 -169.725368 
L 502.560241 -168.860856 
L 503.289923 -167.996345 
L 504.055196 -167.131833 
L 504.849717 -166.267321 
L 505.667566 -165.40281 
L 506.503629 -164.538298 
L 507.353821 -163.673786 
L 508.2151 -162.809274 
L 509.085253 -161.944763 
L 509.962436 -161.080251 
L 510.844529 -160.215739 
L 511.728352 -159.351227 
L 512.608859 -158.486716 
L 513.478419 -157.622204 
L 514.326312 -156.757692 
L 515.138553 -155.89318 
L 515.898127 -155.028669 
L 516.585657 -154.164157 
L 517.180498 -153.299645 
L 517.66215 -152.435134 
L 518.011866 -151.570622 
L 518.214272 -150.70611 
L 518.258812 -149.841598 
L 518.140863 -148.977087 
L 517.862374 -148.112575 
L 517.431985 -147.248063 
L 516.864626 -146.383551 
L 516.180653 -145.51904 
L 515.404643 -144.654528 
L 514.563979 -143.790016 
L 513.687356 -142.925504 
L 512.803314 -142.060993 
L 511.938882 -141.196481 
L 511.118367 -140.331969 
L 510.362301 -139.467458 
L 509.686561 -138.602946 
L 509.101662 -137.738434 
L 508.612253 -136.873922 
L 508.216867 -136.009411 
L 507.907983 -135.144899 
L 507.672457 -134.280387 
L 507.492373 -133.415875 
L 507.346291 -132.551364 
L 507.210856 -131.686852 
L 507.062623 -130.82234 
L 506.879949 -129.957828 
L 506.644748 -129.093317 
L 506.343904 -128.228805 
L 505.9702 -127.364293 
L 505.522634 -126.499782 
L 505.006126 -125.63527 
L 504.430655 -124.770758 
L 503.809975 -123.906246 
L 503.160069 -123.041735 
L 502.497571 -122.177223 
L 501.838316 -121.312711 
L 501.196185 -120.448199 
L 500.582341 -119.583688 
L 500.004873 -118.719176 
L 499.468834 -117.854664 
L 498.976593 -116.990152 
L 498.528385 -116.125641 
L 498.122962 -115.261129 
L 497.758233 -114.396617 
L 497.431804 -113.532105 
L 497.141371 -112.667594 
L 496.884947 -111.803082 
L 496.660923 -110.93857 
L 496.467993 -110.074059 
L 496.30499 -109.209547 
L 496.170673 -108.345035 
L 496.063521 -107.480523 
L 495.981561 -106.616012 
L 495.922264 -105.7515 
L 495.882526 -104.886988 
L 495.858736 -104.022476 
L 495.84692 -103.157965 
L 495.842948 -102.293453 
L 495.842772 -101.428941 
L 495.842677 -100.564429 
L 495.83951 -99.699918 
L 495.830857 -98.835406 
z
" id="mb4b51a4f5a" style="stroke:#81b8df;"/>
    </defs>
    <g clip-path="url(#p37544d4814)">
     <use style="fill:#b1ccdf;stroke:#81b8df;" x="0" xlink:href="#mb4b51a4f5a" y="352.8"/>
    </g>
   </g>
   <g id="PolyCollection_7">
    <defs>
     <path d="M 627.608555 -77.456503 
L 625.830445 -77.456503 
L 625.765865 -78.418318 
L 625.711832 -79.380133 
L 625.670182 -80.341948 
L 625.642317 -81.303762 
L 625.629155 -82.265577 
L 625.631106 -83.227392 
L 625.648068 -84.189207 
L 625.679426 -85.151022 
L 625.724072 -86.112837 
L 625.780431 -87.074652 
L 625.846508 -88.036467 
L 625.919952 -88.998282 
L 625.99814 -89.960097 
L 626.078278 -90.921912 
L 626.157514 -91.883727 
L 626.233045 -92.845542 
L 626.302214 -93.807357 
L 626.362581 -94.769172 
L 626.411969 -95.730987 
L 626.448468 -96.692802 
L 626.47043 -97.654617 
L 626.476442 -98.616432 
L 626.465304 -99.578247 
L 626.436029 -100.540062 
L 626.387867 -101.501877 
L 626.320365 -102.463692 
L 626.233456 -103.425507 
L 626.127573 -104.387322 
L 626.003749 -105.349137 
L 625.863704 -106.310952 
L 625.709875 -107.272767 
L 625.545367 -108.234582 
L 625.373822 -109.196396 
L 625.199191 -110.158211 
L 625.025419 -111.120026 
L 624.856072 -112.081841 
L 624.693939 -113.043656 
L 624.540638 -114.005471 
L 624.396286 -114.967286 
L 624.259249 -115.929101 
L 624.126 -116.890916 
L 623.991106 -117.852731 
L 623.847324 -118.814546 
L 623.685804 -119.776361 
L 623.496396 -120.738176 
L 623.268045 -121.699991 
L 622.989266 -122.661806 
L 622.64872 -123.623621 
L 622.235866 -124.585436 
L 621.741682 -125.547251 
L 621.159421 -126.509066 
L 620.485333 -127.470881 
L 619.719272 -128.432696 
L 618.865088 -129.394511 
L 617.930721 -130.356326 
L 616.927919 -131.318141 
L 615.871588 -132.279956 
L 614.7788 -133.241771 
L 613.667589 -134.203586 
L 612.555703 -135.165401 
L 611.459505 -136.127216 
L 610.393231 -137.08903 
L 609.368732 -138.050845 
L 608.395779 -139.01266 
L 607.482873 -139.974475 
L 606.638403 -140.93629 
L 605.871917 -141.898105 
L 605.195189 -142.85992 
L 604.62282 -143.821735 
L 604.172136 -144.78355 
L 603.8623 -145.745365 
L 603.712687 -146.70718 
L 603.74072 -147.668995 
L 603.959477 -148.63081 
L 604.375462 -149.592625 
L 604.986889 -150.55444 
L 605.782802 -151.516255 
L 606.743166 -152.47807 
L 607.839983 -153.439885 
L 609.039261 -154.4017 
L 610.303608 -155.363515 
L 611.595085 -156.32533 
L 612.877989 -157.287145 
L 614.121238 -158.24896 
L 615.300112 -159.210775 
L 616.397234 -160.17259 
L 617.402746 -161.134405 
L 618.313773 -162.09622 
L 619.133313 -163.058035 
L 619.868763 -164.01985 
L 620.530286 -164.981664 
L 621.129215 -165.943479 
L 621.676668 -166.905294 
L 622.182474 -167.867109 
L 622.654477 -168.828924 
L 623.098214 -169.790739 
L 623.516935 -170.752554 
L 623.911882 -171.714369 
L 624.282754 -172.676184 
L 629.156246 -172.676184 
L 629.156246 -172.676184 
L 629.527118 -171.714369 
L 629.922065 -170.752554 
L 630.340786 -169.790739 
L 630.784523 -168.828924 
L 631.256526 -167.867109 
L 631.762332 -166.905294 
L 632.309785 -165.943479 
L 632.908714 -164.981664 
L 633.570237 -164.01985 
L 634.305687 -163.058035 
L 635.125227 -162.09622 
L 636.036254 -161.134405 
L 637.041766 -160.17259 
L 638.138888 -159.210775 
L 639.317762 -158.24896 
L 640.561011 -157.287145 
L 641.843915 -156.32533 
L 643.135392 -155.363515 
L 644.399739 -154.4017 
L 645.599017 -153.439885 
L 646.695834 -152.47807 
L 647.656198 -151.516255 
L 648.452111 -150.55444 
L 649.063538 -149.592625 
L 649.479523 -148.63081 
L 649.69828 -147.668995 
L 649.726312 -146.70718 
L 649.5767 -145.745365 
L 649.266864 -144.78355 
L 648.81618 -143.821735 
L 648.243811 -142.85992 
L 647.567083 -141.898105 
L 646.800597 -140.93629 
L 645.956127 -139.974475 
L 645.043221 -139.01266 
L 644.070268 -138.050845 
L 643.045769 -137.08903 
L 641.979495 -136.127216 
L 640.883297 -135.165401 
L 639.771411 -134.203586 
L 638.6602 -133.241771 
L 637.567412 -132.279956 
L 636.511081 -131.318141 
L 635.508279 -130.356326 
L 634.573912 -129.394511 
L 633.719728 -128.432696 
L 632.953667 -127.470881 
L 632.279579 -126.509066 
L 631.697318 -125.547251 
L 631.203134 -124.585436 
L 630.79028 -123.623621 
L 630.449734 -122.661806 
L 630.170955 -121.699991 
L 629.942604 -120.738176 
L 629.753196 -119.776361 
L 629.591676 -118.814546 
L 629.447894 -117.852731 
L 629.313 -116.890916 
L 629.179751 -115.929101 
L 629.042714 -114.967286 
L 628.898362 -114.005471 
L 628.745061 -113.043656 
L 628.582928 -112.081841 
L 628.413581 -111.120026 
L 628.239809 -110.158211 
L 628.065178 -109.196396 
L 627.893633 -108.234582 
L 627.729125 -107.272767 
L 627.575296 -106.310952 
L 627.435251 -105.349137 
L 627.311427 -104.387322 
L 627.205544 -103.425507 
L 627.118635 -102.463692 
L 627.051133 -101.501877 
L 627.002971 -100.540062 
L 626.973696 -99.578247 
L 626.962558 -98.616432 
L 626.96857 -97.654617 
L 626.990532 -96.692802 
L 627.027031 -95.730987 
L 627.076419 -94.769172 
L 627.136786 -93.807357 
L 627.205955 -92.845542 
L 627.281486 -91.883727 
L 627.360722 -90.921912 
L 627.44086 -89.960097 
L 627.519048 -88.998282 
L 627.592492 -88.036467 
L 627.658569 -87.074652 
L 627.714928 -86.112837 
L 627.759574 -85.151022 
L 627.790932 -84.189207 
L 627.807894 -83.227392 
L 627.809845 -82.265577 
L 627.796683 -81.303762 
L 627.768818 -80.341948 
L 627.727168 -79.380133 
L 627.673135 -78.418318 
L 627.608555 -77.456503 
z
" id="m40421c84f8" style="stroke:#81b8df;"/>
    </defs>
    <g clip-path="url(#p37544d4814)">
     <use style="fill:#b1ccdf;stroke:#81b8df;" x="0" xlink:href="#m40421c84f8" y="352.8"/>
    </g>
   </g>
   <g id="matplotlib.axis_1">
    <g id="xtick_1">
     <g id="line2d_1">
      <defs>
       <path d="M 0 0 
L 0 3.5 
" id="m360ae1461a" style="stroke:#000000;stroke-width:0.8;"/>
      </defs>
      <g>
       <use style="stroke:#000000;stroke-width:0.8;" x="113.99625" xlink:href="#m360ae1461a" y="319.115"/>
      </g>
     </g>
     <g id="text_1">
      <!-- $4^2 \times 4^2$ -->
      <defs>
       <path d="M 37.796875 64.3125 
L 12.890625 25.390625 
L 37.796875 25.390625 
z
M 35.203125 72.90625 
L 47.609375 72.90625 
L 47.609375 25.390625 
L 58.015625 25.390625 
L 58.015625 17.1875 
L 47.609375 17.1875 
L 47.609375 0 
L 37.796875 0 
L 37.796875 17.1875 
L 4.890625 17.1875 
L 4.890625 26.703125 
z
" id="DejaVuSans-52"/>
       <path d="M 19.1875 8.296875 
L 53.609375 8.296875 
L 53.609375 0 
L 7.328125 0 
L 7.328125 8.296875 
Q 12.9375 14.109375 22.625 23.890625 
Q 32.328125 33.6875 34.8125 36.53125 
Q 39.546875 41.84375 41.421875 45.53125 
Q 43.3125 49.21875 43.3125 52.78125 
Q 43.3125 58.59375 39.234375 62.25 
Q 35.15625 65.921875 28.609375 65.921875 
Q 23.96875 65.921875 18.8125 64.3125 
Q 13.671875 62.703125 7.8125 59.421875 
L 7.8125 69.390625 
Q 13.765625 71.78125 18.9375 73 
Q 24.125 74.21875 28.421875 74.21875 
Q 39.75 74.21875 46.484375 68.546875 
Q 53.21875 62.890625 53.21875 53.421875 
Q 53.21875 48.921875 51.53125 44.890625 
Q 49.859375 40.875 45.40625 35.40625 
Q 44.1875 33.984375 37.640625 27.21875 
Q 31.109375 20.453125 19.1875 8.296875 
z
" id="DejaVuSans-50"/>
       <path d="M 70.125 53.71875 
L 47.796875 31.296875 
L 70.125 8.984375 
L 64.3125 3.078125 
L 41.890625 25.484375 
L 19.484375 3.078125 
L 13.71875 8.984375 
L 35.984375 31.296875 
L 13.71875 53.71875 
L 19.484375 59.625 
L 41.890625 37.203125 
L 64.3125 59.625 
z
" id="DejaVuSans-215"/>
      </defs>
      <g transform="translate(100.11625 332.19375)scale(0.08 -0.08)">
       <use transform="translate(0 0.765625)" xlink:href="#DejaVuSans-52"/>
       <use transform="translate(64.580078 39.046875)scale(0.7)" xlink:href="#DejaVuSans-50"/>
       <use transform="translate(131.333008 0.765625)" xlink:href="#DejaVuSans-215"/>
       <use transform="translate(234.604492 0.765625)" xlink:href="#DejaVuSans-52"/>
       <use transform="translate(299.18457 39.046875)scale(0.7)" xlink:href="#DejaVuSans-50"/>
      </g>
     </g>
    </g>
    <g id="xtick_2">
     <g id="line2d_2">
      <g>
       <use style="stroke:#000000;stroke-width:0.8;" x="245.46375" xlink:href="#m360ae1461a" y="319.115"/>
      </g>
     </g>
     <g id="text_2">
      <!-- $4^3 \times 4^3$ -->
      <defs>
       <path d="M 40.578125 39.3125 
Q 47.65625 37.796875 51.625 33 
Q 55.609375 28.21875 55.609375 21.1875 
Q 55.609375 10.40625 48.1875 4.484375 
Q 40.765625 -1.421875 27.09375 -1.421875 
Q 22.515625 -1.421875 17.65625 -0.515625 
Q 12.796875 0.390625 7.625 2.203125 
L 7.625 11.71875 
Q 11.71875 9.328125 16.59375 8.109375 
Q 21.484375 6.890625 26.8125 6.890625 
Q 36.078125 6.890625 40.9375 10.546875 
Q 45.796875 14.203125 45.796875 21.1875 
Q 45.796875 27.640625 41.28125 31.265625 
Q 36.765625 34.90625 28.71875 34.90625 
L 20.21875 34.90625 
L 20.21875 43.015625 
L 29.109375 43.015625 
Q 36.375 43.015625 40.234375 45.921875 
Q 44.09375 48.828125 44.09375 54.296875 
Q 44.09375 59.90625 40.109375 62.90625 
Q 36.140625 65.921875 28.71875 65.921875 
Q 24.65625 65.921875 20.015625 65.03125 
Q 15.375 64.15625 9.8125 62.3125 
L 9.8125 71.09375 
Q 15.4375 72.65625 20.34375 73.4375 
Q 25.25 74.21875 29.59375 74.21875 
Q 40.828125 74.21875 47.359375 69.109375 
Q 53.90625 64.015625 53.90625 55.328125 
Q 53.90625 49.265625 50.4375 45.09375 
Q 46.96875 40.921875 40.578125 39.3125 
z
" id="DejaVuSans-51"/>
      </defs>
      <g transform="translate(231.58375 332.19375)scale(0.08 -0.08)">
       <use transform="translate(0 0.765625)" xlink:href="#DejaVuSans-52"/>
       <use transform="translate(64.580078 39.046875)scale(0.7)" xlink:href="#DejaVuSans-51"/>
       <use transform="translate(131.333008 0.765625)" xlink:href="#DejaVuSans-215"/>
       <use transform="translate(234.604492 0.765625)" xlink:href="#DejaVuSans-52"/>
       <use transform="translate(299.18457 39.046875)scale(0.7)" xlink:href="#DejaVuSans-51"/>
      </g>
     </g>
    </g>
    <g id="xtick_3">
     <g id="line2d_3">
      <g>
       <use style="stroke:#000000;stroke-width:0.8;" x="376.93125" xlink:href="#m360ae1461a" y="319.115"/>
      </g>
     </g>
     <g id="text_3">
      <!-- $4^4 \times 4^4$ -->
      <g transform="translate(363.05125 332.19375)scale(0.08 -0.08)">
       <use transform="translate(0 0.684375)" xlink:href="#DejaVuSans-52"/>
       <use transform="translate(64.580078 38.965625)scale(0.7)" xlink:href="#DejaVuSans-52"/>
       <use transform="translate(131.333008 0.684375)" xlink:href="#DejaVuSans-215"/>
       <use transform="translate(234.604492 0.684375)" xlink:href="#DejaVuSans-52"/>
       <use transform="translate(299.18457 38.965625)scale(0.7)" xlink:href="#DejaVuSans-52"/>
      </g>
     </g>
    </g>
    <g id="xtick_4">
     <g id="line2d_4">
      <g>
       <use style="stroke:#000000;stroke-width:0.8;" x="508.39875" xlink:href="#m360ae1461a" y="319.115"/>
      </g>
     </g>
     <g id="text_4">
      <!-- $4^5 \times 4^5$ -->
      <defs>
       <path d="M 10.796875 72.90625 
L 49.515625 72.90625 
L 49.515625 64.59375 
L 19.828125 64.59375 
L 19.828125 46.734375 
Q 21.96875 47.46875 24.109375 47.828125 
Q 26.265625 48.1875 28.421875 48.1875 
Q 40.625 48.1875 47.75 41.5 
Q 54.890625 34.8125 54.890625 23.390625 
Q 54.890625 11.625 47.5625 5.09375 
Q 40.234375 -1.421875 26.90625 -1.421875 
Q 22.3125 -1.421875 17.546875 -0.640625 
Q 12.796875 0.140625 7.71875 1.703125 
L 7.71875 11.625 
Q 12.109375 9.234375 16.796875 8.0625 
Q 21.484375 6.890625 26.703125 6.890625 
Q 35.15625 6.890625 40.078125 11.328125 
Q 45.015625 15.765625 45.015625 23.390625 
Q 45.015625 31 40.078125 35.4375 
Q 35.15625 39.890625 26.703125 39.890625 
Q 22.75 39.890625 18.8125 39.015625 
Q 14.890625 38.140625 10.796875 36.28125 
z
" id="DejaVuSans-53"/>
      </defs>
      <g transform="translate(494.51875 332.19375)scale(0.08 -0.08)">
       <use transform="translate(0 0.684375)" xlink:href="#DejaVuSans-52"/>
       <use transform="translate(64.580078 38.965625)scale(0.7)" xlink:href="#DejaVuSans-53"/>
       <use transform="translate(131.333008 0.684375)" xlink:href="#DejaVuSans-215"/>
       <use transform="translate(234.604492 0.684375)" xlink:href="#DejaVuSans-52"/>
       <use transform="translate(299.18457 38.965625)scale(0.7)" xlink:href="#DejaVuSans-53"/>
      </g>
     </g>
    </g>
    <g id="xtick_5">
     <g id="line2d_5">
      <g>
       <use style="stroke:#000000;stroke-width:0.8;" x="639.86625" xlink:href="#m360ae1461a" y="319.115"/>
      </g>
     </g>
     <g id="text_5">
      <!-- $4^6 \times 4^6$ -->
      <defs>
       <path d="M 33.015625 40.375 
Q 26.375 40.375 22.484375 35.828125 
Q 18.609375 31.296875 18.609375 23.390625 
Q 18.609375 15.53125 22.484375 10.953125 
Q 26.375 6.390625 33.015625 6.390625 
Q 39.65625 6.390625 43.53125 10.953125 
Q 47.40625 15.53125 47.40625 23.390625 
Q 47.40625 31.296875 43.53125 35.828125 
Q 39.65625 40.375 33.015625 40.375 
z
M 52.59375 71.296875 
L 52.59375 62.3125 
Q 48.875 64.0625 45.09375 64.984375 
Q 41.3125 65.921875 37.59375 65.921875 
Q 27.828125 65.921875 22.671875 59.328125 
Q 17.53125 52.734375 16.796875 39.40625 
Q 19.671875 43.65625 24.015625 45.921875 
Q 28.375 48.1875 33.59375 48.1875 
Q 44.578125 48.1875 50.953125 41.515625 
Q 57.328125 34.859375 57.328125 23.390625 
Q 57.328125 12.15625 50.6875 5.359375 
Q 44.046875 -1.421875 33.015625 -1.421875 
Q 20.359375 -1.421875 13.671875 8.265625 
Q 6.984375 17.96875 6.984375 36.375 
Q 6.984375 53.65625 15.1875 63.9375 
Q 23.390625 74.21875 37.203125 74.21875 
Q 40.921875 74.21875 44.703125 73.484375 
Q 48.484375 72.75 52.59375 71.296875 
z
" id="DejaVuSans-54"/>
      </defs>
      <g transform="translate(625.98625 332.19375)scale(0.08 -0.08)">
       <use transform="translate(0 0.765625)" xlink:href="#DejaVuSans-52"/>
       <use transform="translate(64.580078 39.046875)scale(0.7)" xlink:href="#DejaVuSans-54"/>
       <use transform="translate(131.333008 0.765625)" xlink:href="#DejaVuSans-215"/>
       <use transform="translate(234.604492 0.765625)" xlink:href="#DejaVuSans-52"/>
       <use transform="translate(299.18457 39.046875)scale(0.7)" xlink:href="#DejaVuSans-54"/>
      </g>
     </g>
    </g>
    <g id="text_6">
     <!-- size of adjacency matrix -->
     <defs>
      <path d="M 44.28125 53.078125 
L 44.28125 44.578125 
Q 40.484375 46.53125 36.375 47.5 
Q 32.28125 48.484375 27.875 48.484375 
Q 21.1875 48.484375 17.84375 46.4375 
Q 14.5 44.390625 14.5 40.28125 
Q 14.5 37.15625 16.890625 35.375 
Q 19.28125 33.59375 26.515625 31.984375 
L 29.59375 31.296875 
Q 39.15625 29.25 43.1875 25.515625 
Q 47.21875 21.78125 47.21875 15.09375 
Q 47.21875 7.46875 41.1875 3.015625 
Q 35.15625 -1.421875 24.609375 -1.421875 
Q 20.21875 -1.421875 15.453125 -0.5625 
Q 10.6875 0.296875 5.421875 2 
L 5.421875 11.28125 
Q 10.40625 8.6875 15.234375 7.390625 
Q 20.0625 6.109375 24.8125 6.109375 
Q 31.15625 6.109375 34.5625 8.28125 
Q 37.984375 10.453125 37.984375 14.40625 
Q 37.984375 18.0625 35.515625 20.015625 
Q 33.0625 21.96875 24.703125 23.78125 
L 21.578125 24.515625 
Q 13.234375 26.265625 9.515625 29.90625 
Q 5.8125 33.546875 5.8125 39.890625 
Q 5.8125 47.609375 11.28125 51.796875 
Q 16.75 56 26.8125 56 
Q 31.78125 56 36.171875 55.265625 
Q 40.578125 54.546875 44.28125 53.078125 
z
" id="DejaVuSans-115"/>
      <path d="M 9.421875 54.6875 
L 18.40625 54.6875 
L 18.40625 0 
L 9.421875 0 
z
M 9.421875 75.984375 
L 18.40625 75.984375 
L 18.40625 64.59375 
L 9.421875 64.59375 
z
" id="DejaVuSans-105"/>
      <path d="M 5.515625 54.6875 
L 48.1875 54.6875 
L 48.1875 46.484375 
L 14.40625 7.171875 
L 48.1875 7.171875 
L 48.1875 0 
L 4.296875 0 
L 4.296875 8.203125 
L 38.09375 47.515625 
L 5.515625 47.515625 
z
" id="DejaVuSans-122"/>
      <path d="M 56.203125 29.59375 
L 56.203125 25.203125 
L 14.890625 25.203125 
Q 15.484375 15.921875 20.484375 11.0625 
Q 25.484375 6.203125 34.421875 6.203125 
Q 39.59375 6.203125 44.453125 7.46875 
Q 49.3125 8.734375 54.109375 11.28125 
L 54.109375 2.78125 
Q 49.265625 0.734375 44.1875 -0.34375 
Q 39.109375 -1.421875 33.890625 -1.421875 
Q 20.796875 -1.421875 13.15625 6.1875 
Q 5.515625 13.8125 5.515625 26.8125 
Q 5.515625 40.234375 12.765625 48.109375 
Q 20.015625 56 32.328125 56 
Q 43.359375 56 49.78125 48.890625 
Q 56.203125 41.796875 56.203125 29.59375 
z
M 47.21875 32.234375 
Q 47.125 39.59375 43.09375 43.984375 
Q 39.0625 48.390625 32.421875 48.390625 
Q 24.90625 48.390625 20.390625 44.140625 
Q 15.875 39.890625 15.1875 32.171875 
z
" id="DejaVuSans-101"/>
      <path id="DejaVuSans-32"/>
      <path d="M 30.609375 48.390625 
Q 23.390625 48.390625 19.1875 42.75 
Q 14.984375 37.109375 14.984375 27.296875 
Q 14.984375 17.484375 19.15625 11.84375 
Q 23.34375 6.203125 30.609375 6.203125 
Q 37.796875 6.203125 41.984375 11.859375 
Q 46.1875 17.53125 46.1875 27.296875 
Q 46.1875 37.015625 41.984375 42.703125 
Q 37.796875 48.390625 30.609375 48.390625 
z
M 30.609375 56 
Q 42.328125 56 49.015625 48.375 
Q 55.71875 40.765625 55.71875 27.296875 
Q 55.71875 13.875 49.015625 6.21875 
Q 42.328125 -1.421875 30.609375 -1.421875 
Q 18.84375 -1.421875 12.171875 6.21875 
Q 5.515625 13.875 5.515625 27.296875 
Q 5.515625 40.765625 12.171875 48.375 
Q 18.84375 56 30.609375 56 
z
" id="DejaVuSans-111"/>
      <path d="M 37.109375 75.984375 
L 37.109375 68.5 
L 28.515625 68.5 
Q 23.6875 68.5 21.796875 66.546875 
Q 19.921875 64.59375 19.921875 59.515625 
L 19.921875 54.6875 
L 34.71875 54.6875 
L 34.71875 47.703125 
L 19.921875 47.703125 
L 19.921875 0 
L 10.890625 0 
L 10.890625 47.703125 
L 2.296875 47.703125 
L 2.296875 54.6875 
L 10.890625 54.6875 
L 10.890625 58.5 
Q 10.890625 67.625 15.140625 71.796875 
Q 19.390625 75.984375 28.609375 75.984375 
z
" id="DejaVuSans-102"/>
      <path d="M 34.28125 27.484375 
Q 23.390625 27.484375 19.1875 25 
Q 14.984375 22.515625 14.984375 16.5 
Q 14.984375 11.71875 18.140625 8.90625 
Q 21.296875 6.109375 26.703125 6.109375 
Q 34.1875 6.109375 38.703125 11.40625 
Q 43.21875 16.703125 43.21875 25.484375 
L 43.21875 27.484375 
z
M 52.203125 31.203125 
L 52.203125 0 
L 43.21875 0 
L 43.21875 8.296875 
Q 40.140625 3.328125 35.546875 0.953125 
Q 30.953125 -1.421875 24.3125 -1.421875 
Q 15.921875 -1.421875 10.953125 3.296875 
Q 6 8.015625 6 15.921875 
Q 6 25.140625 12.171875 29.828125 
Q 18.359375 34.515625 30.609375 34.515625 
L 43.21875 34.515625 
L 43.21875 35.40625 
Q 43.21875 41.609375 39.140625 45 
Q 35.0625 48.390625 27.6875 48.390625 
Q 23 48.390625 18.546875 47.265625 
Q 14.109375 46.140625 10.015625 43.890625 
L 10.015625 52.203125 
Q 14.9375 54.109375 19.578125 55.046875 
Q 24.21875 56 28.609375 56 
Q 40.484375 56 46.34375 49.84375 
Q 52.203125 43.703125 52.203125 31.203125 
z
" id="DejaVuSans-97"/>
      <path d="M 45.40625 46.390625 
L 45.40625 75.984375 
L 54.390625 75.984375 
L 54.390625 0 
L 45.40625 0 
L 45.40625 8.203125 
Q 42.578125 3.328125 38.25 0.953125 
Q 33.9375 -1.421875 27.875 -1.421875 
Q 17.96875 -1.421875 11.734375 6.484375 
Q 5.515625 14.40625 5.515625 27.296875 
Q 5.515625 40.1875 11.734375 48.09375 
Q 17.96875 56 27.875 56 
Q 33.9375 56 38.25 53.625 
Q 42.578125 51.265625 45.40625 46.390625 
z
M 14.796875 27.296875 
Q 14.796875 17.390625 18.875 11.75 
Q 22.953125 6.109375 30.078125 6.109375 
Q 37.203125 6.109375 41.296875 11.75 
Q 45.40625 17.390625 45.40625 27.296875 
Q 45.40625 37.203125 41.296875 42.84375 
Q 37.203125 48.484375 30.078125 48.484375 
Q 22.953125 48.484375 18.875 42.84375 
Q 14.796875 37.203125 14.796875 27.296875 
z
" id="DejaVuSans-100"/>
      <path d="M 9.421875 54.6875 
L 18.40625 54.6875 
L 18.40625 -0.984375 
Q 18.40625 -11.421875 14.421875 -16.109375 
Q 10.453125 -20.796875 1.609375 -20.796875 
L -1.8125 -20.796875 
L -1.8125 -13.1875 
L 0.59375 -13.1875 
Q 5.71875 -13.1875 7.5625 -10.8125 
Q 9.421875 -8.453125 9.421875 -0.984375 
z
M 9.421875 75.984375 
L 18.40625 75.984375 
L 18.40625 64.59375 
L 9.421875 64.59375 
z
" id="DejaVuSans-106"/>
      <path d="M 48.78125 52.59375 
L 48.78125 44.1875 
Q 44.96875 46.296875 41.140625 47.34375 
Q 37.3125 48.390625 33.40625 48.390625 
Q 24.65625 48.390625 19.8125 42.84375 
Q 14.984375 37.3125 14.984375 27.296875 
Q 14.984375 17.28125 19.8125 11.734375 
Q 24.65625 6.203125 33.40625 6.203125 
Q 37.3125 6.203125 41.140625 7.25 
Q 44.96875 8.296875 48.78125 10.40625 
L 48.78125 2.09375 
Q 45.015625 0.34375 40.984375 -0.53125 
Q 36.96875 -1.421875 32.421875 -1.421875 
Q 20.0625 -1.421875 12.78125 6.34375 
Q 5.515625 14.109375 5.515625 27.296875 
Q 5.515625 40.671875 12.859375 48.328125 
Q 20.21875 56 33.015625 56 
Q 37.15625 56 41.109375 55.140625 
Q 45.0625 54.296875 48.78125 52.59375 
z
" id="DejaVuSans-99"/>
      <path d="M 54.890625 33.015625 
L 54.890625 0 
L 45.90625 0 
L 45.90625 32.71875 
Q 45.90625 40.484375 42.875 44.328125 
Q 39.84375 48.1875 33.796875 48.1875 
Q 26.515625 48.1875 22.3125 43.546875 
Q 18.109375 38.921875 18.109375 30.90625 
L 18.109375 0 
L 9.078125 0 
L 9.078125 54.6875 
L 18.109375 54.6875 
L 18.109375 46.1875 
Q 21.34375 51.125 25.703125 53.5625 
Q 30.078125 56 35.796875 56 
Q 45.21875 56 50.046875 50.171875 
Q 54.890625 44.34375 54.890625 33.015625 
z
" id="DejaVuSans-110"/>
      <path d="M 32.171875 -5.078125 
Q 28.375 -14.84375 24.75 -17.8125 
Q 21.140625 -20.796875 15.09375 -20.796875 
L 7.90625 -20.796875 
L 7.90625 -13.28125 
L 13.1875 -13.28125 
Q 16.890625 -13.28125 18.9375 -11.515625 
Q 21 -9.765625 23.484375 -3.21875 
L 25.09375 0.875 
L 2.984375 54.6875 
L 12.5 54.6875 
L 29.59375 11.921875 
L 46.6875 54.6875 
L 56.203125 54.6875 
z
" id="DejaVuSans-121"/>
      <path d="M 52 44.1875 
Q 55.375 50.25 60.0625 53.125 
Q 64.75 56 71.09375 56 
Q 79.640625 56 84.28125 50.015625 
Q 88.921875 44.046875 88.921875 33.015625 
L 88.921875 0 
L 79.890625 0 
L 79.890625 32.71875 
Q 79.890625 40.578125 77.09375 44.375 
Q 74.3125 48.1875 68.609375 48.1875 
Q 61.625 48.1875 57.5625 43.546875 
Q 53.515625 38.921875 53.515625 30.90625 
L 53.515625 0 
L 44.484375 0 
L 44.484375 32.71875 
Q 44.484375 40.625 41.703125 44.40625 
Q 38.921875 48.1875 33.109375 48.1875 
Q 26.21875 48.1875 22.15625 43.53125 
Q 18.109375 38.875 18.109375 30.90625 
L 18.109375 0 
L 9.078125 0 
L 9.078125 54.6875 
L 18.109375 54.6875 
L 18.109375 46.1875 
Q 21.1875 51.21875 25.484375 53.609375 
Q 29.78125 56 35.6875 56 
Q 41.65625 56 45.828125 52.96875 
Q 50 49.953125 52 44.1875 
z
" id="DejaVuSans-109"/>
      <path d="M 18.3125 70.21875 
L 18.3125 54.6875 
L 36.8125 54.6875 
L 36.8125 47.703125 
L 18.3125 47.703125 
L 18.3125 18.015625 
Q 18.3125 11.328125 20.140625 9.421875 
Q 21.96875 7.515625 27.59375 7.515625 
L 36.8125 7.515625 
L 36.8125 0 
L 27.59375 0 
Q 17.1875 0 13.234375 3.875 
Q 9.28125 7.765625 9.28125 18.015625 
L 9.28125 47.703125 
L 2.6875 47.703125 
L 2.6875 54.6875 
L 9.28125 54.6875 
L 9.28125 70.21875 
z
" id="DejaVuSans-116"/>
      <path d="M 41.109375 46.296875 
Q 39.59375 47.171875 37.8125 47.578125 
Q 36.03125 48 33.890625 48 
Q 26.265625 48 22.1875 43.046875 
Q 18.109375 38.09375 18.109375 28.8125 
L 18.109375 0 
L 9.078125 0 
L 9.078125 54.6875 
L 18.109375 54.6875 
L 18.109375 46.1875 
Q 20.953125 51.171875 25.484375 53.578125 
Q 30.03125 56 36.53125 56 
Q 37.453125 56 38.578125 55.875 
Q 39.703125 55.765625 41.0625 55.515625 
z
" id="DejaVuSans-114"/>
      <path d="M 54.890625 54.6875 
L 35.109375 28.078125 
L 55.90625 0 
L 45.3125 0 
L 29.390625 21.484375 
L 13.484375 0 
L 2.875 0 
L 24.125 28.609375 
L 4.6875 54.6875 
L 15.28125 54.6875 
L 29.78125 35.203125 
L 44.28125 54.6875 
z
" id="DejaVuSans-120"/>
     </defs>
     <g transform="translate(328.151875 343.93625)scale(0.08 -0.08)">
      <use xlink:href="#DejaVuSans-115"/>
      <use x="52.099609" xlink:href="#DejaVuSans-105"/>
      <use x="79.882812" xlink:href="#DejaVuSans-122"/>
      <use x="132.373047" xlink:href="#DejaVuSans-101"/>
      <use x="193.896484" xlink:href="#DejaVuSans-32"/>
      <use x="225.683594" xlink:href="#DejaVuSans-111"/>
      <use x="286.865234" xlink:href="#DejaVuSans-102"/>
      <use x="322.070312" xlink:href="#DejaVuSans-32"/>
      <use x="353.857422" xlink:href="#DejaVuSans-97"/>
      <use x="415.136719" xlink:href="#DejaVuSans-100"/>
      <use x="478.613281" xlink:href="#DejaVuSans-106"/>
      <use x="506.396484" xlink:href="#DejaVuSans-97"/>
      <use x="567.675781" xlink:href="#DejaVuSans-99"/>
      <use x="622.65625" xlink:href="#DejaVuSans-101"/>
      <use x="684.179688" xlink:href="#DejaVuSans-110"/>
      <use x="747.558594" xlink:href="#DejaVuSans-99"/>
      <use x="802.539062" xlink:href="#DejaVuSans-121"/>
      <use x="861.71875" xlink:href="#DejaVuSans-32"/>
      <use x="893.505859" xlink:href="#DejaVuSans-109"/>
      <use x="990.917969" xlink:href="#DejaVuSans-97"/>
      <use x="1052.197266" xlink:href="#DejaVuSans-116"/>
      <use x="1091.40625" xlink:href="#DejaVuSans-114"/>
      <use x="1132.519531" xlink:href="#DejaVuSans-105"/>
      <use x="1160.302734" xlink:href="#DejaVuSans-120"/>
     </g>
    </g>
   </g>
   <g id="matplotlib.axis_2">
    <g id="ytick_1">
     <g id="line2d_6">
      <defs>
       <path d="M 0 0 
L -3.5 0 
" id="m1d0d37da86" style="stroke:#000000;stroke-width:0.8;"/>
      </defs>
      <g>
       <use style="stroke:#000000;stroke-width:0.8;" x="48.2625" xlink:href="#m1d0d37da86" y="319.115"/>
      </g>
     </g>
     <g id="text_7">
      <!-- $10^{-15}$ -->
      <defs>
       <path d="M 12.40625 8.296875 
L 28.515625 8.296875 
L 28.515625 63.921875 
L 10.984375 60.40625 
L 10.984375 69.390625 
L 28.421875 72.90625 
L 38.28125 72.90625 
L 38.28125 8.296875 
L 54.390625 8.296875 
L 54.390625 0 
L 12.40625 0 
z
" id="DejaVuSans-49"/>
       <path d="M 31.78125 66.40625 
Q 24.171875 66.40625 20.328125 58.90625 
Q 16.5 51.421875 16.5 36.375 
Q 16.5 21.390625 20.328125 13.890625 
Q 24.171875 6.390625 31.78125 6.390625 
Q 39.453125 6.390625 43.28125 13.890625 
Q 47.125 21.390625 47.125 36.375 
Q 47.125 51.421875 43.28125 58.90625 
Q 39.453125 66.40625 31.78125 66.40625 
z
M 31.78125 74.21875 
Q 44.046875 74.21875 50.515625 64.515625 
Q 56.984375 54.828125 56.984375 36.375 
Q 56.984375 17.96875 50.515625 8.265625 
Q 44.046875 -1.421875 31.78125 -1.421875 
Q 19.53125 -1.421875 13.0625 8.265625 
Q 6.59375 17.96875 6.59375 36.375 
Q 6.59375 54.828125 13.0625 64.515625 
Q 19.53125 74.21875 31.78125 74.21875 
z
" id="DejaVuSans-48"/>
       <path d="M 10.59375 35.5 
L 73.1875 35.5 
L 73.1875 27.203125 
L 10.59375 27.203125 
z
" id="DejaVuSans-8722"/>
      </defs>
      <g transform="translate(18.9425 322.154375)scale(0.08 -0.08)">
       <use transform="translate(0 0.684375)" xlink:href="#DejaVuSans-49"/>
       <use transform="translate(63.623047 0.684375)" xlink:href="#DejaVuSans-48"/>
       <use transform="translate(128.203125 38.965625)scale(0.7)" xlink:href="#DejaVuSans-8722"/>
       <use transform="translate(186.855469 38.965625)scale(0.7)" xlink:href="#DejaVuSans-49"/>
       <use transform="translate(231.391602 38.965625)scale(0.7)" xlink:href="#DejaVuSans-53"/>
      </g>
     </g>
    </g>
    <g id="ytick_2">
     <g id="line2d_7">
      <g>
       <use style="stroke:#000000;stroke-width:0.8;" x="48.2625" xlink:href="#m1d0d37da86" y="267.635729"/>
      </g>
     </g>
     <g id="text_8">
      <!-- $10^{-13}$ -->
      <g transform="translate(18.9425 270.675104)scale(0.08 -0.08)">
       <use transform="translate(0 0.765625)" xlink:href="#DejaVuSans-49"/>
       <use transform="translate(63.623047 0.765625)" xlink:href="#DejaVuSans-48"/>
       <use transform="translate(128.203125 39.046875)scale(0.7)" xlink:href="#DejaVuSans-8722"/>
       <use transform="translate(186.855469 39.046875)scale(0.7)" xlink:href="#DejaVuSans-49"/>
       <use transform="translate(231.391602 39.046875)scale(0.7)" xlink:href="#DejaVuSans-51"/>
      </g>
     </g>
    </g>
    <g id="ytick_3">
     <g id="line2d_8">
      <g>
       <use style="stroke:#000000;stroke-width:0.8;" x="48.2625" xlink:href="#m1d0d37da86" y="216.156458"/>
      </g>
     </g>
     <g id="text_9">
      <!-- $10^{-11}$ -->
      <g transform="translate(18.9425 219.195833)scale(0.08 -0.08)">
       <use transform="translate(0 0.684375)" xlink:href="#DejaVuSans-49"/>
       <use transform="translate(63.623047 0.684375)" xlink:href="#DejaVuSans-48"/>
       <use transform="translate(128.203125 38.965625)scale(0.7)" xlink:href="#DejaVuSans-8722"/>
       <use transform="translate(186.855469 38.965625)scale(0.7)" xlink:href="#DejaVuSans-49"/>
       <use transform="translate(231.391602 38.965625)scale(0.7)" xlink:href="#DejaVuSans-49"/>
      </g>
     </g>
    </g>
    <g id="ytick_4">
     <g id="line2d_9">
      <g>
       <use style="stroke:#000000;stroke-width:0.8;" x="48.2625" xlink:href="#m1d0d37da86" y="164.677187"/>
      </g>
     </g>
     <g id="text_10">
      <!-- $10^{-09}$ -->
      <defs>
       <path d="M 10.984375 1.515625 
L 10.984375 10.5 
Q 14.703125 8.734375 18.5 7.8125 
Q 22.3125 6.890625 25.984375 6.890625 
Q 35.75 6.890625 40.890625 13.453125 
Q 46.046875 20.015625 46.78125 33.40625 
Q 43.953125 29.203125 39.59375 26.953125 
Q 35.25 24.703125 29.984375 24.703125 
Q 19.046875 24.703125 12.671875 31.3125 
Q 6.296875 37.9375 6.296875 49.421875 
Q 6.296875 60.640625 12.9375 67.421875 
Q 19.578125 74.21875 30.609375 74.21875 
Q 43.265625 74.21875 49.921875 64.515625 
Q 56.59375 54.828125 56.59375 36.375 
Q 56.59375 19.140625 48.40625 8.859375 
Q 40.234375 -1.421875 26.421875 -1.421875 
Q 22.703125 -1.421875 18.890625 -0.6875 
Q 15.09375 0.046875 10.984375 1.515625 
z
M 30.609375 32.421875 
Q 37.25 32.421875 41.125 36.953125 
Q 45.015625 41.5 45.015625 49.421875 
Q 45.015625 57.28125 41.125 61.84375 
Q 37.25 66.40625 30.609375 66.40625 
Q 23.96875 66.40625 20.09375 61.84375 
Q 16.21875 57.28125 16.21875 49.421875 
Q 16.21875 41.5 20.09375 36.953125 
Q 23.96875 32.421875 30.609375 32.421875 
z
" id="DejaVuSans-57"/>
      </defs>
      <g transform="translate(18.9425 167.716562)scale(0.08 -0.08)">
       <use transform="translate(0 0.765625)" xlink:href="#DejaVuSans-49"/>
       <use transform="translate(63.623047 0.765625)" xlink:href="#DejaVuSans-48"/>
       <use transform="translate(128.203125 39.046875)scale(0.7)" xlink:href="#DejaVuSans-8722"/>
       <use transform="translate(186.855469 39.046875)scale(0.7)" xlink:href="#DejaVuSans-48"/>
       <use transform="translate(231.391602 39.046875)scale(0.7)" xlink:href="#DejaVuSans-57"/>
      </g>
     </g>
    </g>
    <g id="ytick_5">
     <g id="line2d_10">
      <g>
       <use style="stroke:#000000;stroke-width:0.8;" x="48.2625" xlink:href="#m1d0d37da86" y="113.197917"/>
      </g>
     </g>
     <g id="text_11">
      <!-- $10^{-07}$ -->
      <defs>
       <path d="M 8.203125 72.90625 
L 55.078125 72.90625 
L 55.078125 68.703125 
L 28.609375 0 
L 18.3125 0 
L 43.21875 64.59375 
L 8.203125 64.59375 
z
" id="DejaVuSans-55"/>
      </defs>
      <g transform="translate(18.9425 116.237292)scale(0.08 -0.08)">
       <use transform="translate(0 0.765625)" xlink:href="#DejaVuSans-49"/>
       <use transform="translate(63.623047 0.765625)" xlink:href="#DejaVuSans-48"/>
       <use transform="translate(128.203125 39.046875)scale(0.7)" xlink:href="#DejaVuSans-8722"/>
       <use transform="translate(186.855469 39.046875)scale(0.7)" xlink:href="#DejaVuSans-48"/>
       <use transform="translate(231.391602 39.046875)scale(0.7)" xlink:href="#DejaVuSans-55"/>
      </g>
     </g>
    </g>
    <g id="ytick_6">
     <g id="line2d_11">
      <g>
       <use style="stroke:#000000;stroke-width:0.8;" x="48.2625" xlink:href="#m1d0d37da86" y="61.718646"/>
      </g>
     </g>
     <g id="text_12">
      <!-- $10^{-05}$ -->
      <g transform="translate(18.9425 64.758021)scale(0.08 -0.08)">
       <use transform="translate(0 0.765625)" xlink:href="#DejaVuSans-49"/>
       <use transform="translate(63.623047 0.765625)" xlink:href="#DejaVuSans-48"/>
       <use transform="translate(128.203125 39.046875)scale(0.7)" xlink:href="#DejaVuSans-8722"/>
       <use transform="translate(186.855469 39.046875)scale(0.7)" xlink:href="#DejaVuSans-48"/>
       <use transform="translate(231.391602 39.046875)scale(0.7)" xlink:href="#DejaVuSans-53"/>
      </g>
     </g>
    </g>
    <g id="ytick_7">
     <g id="line2d_12">
      <g>
       <use style="stroke:#000000;stroke-width:0.8;" x="48.2625" xlink:href="#m1d0d37da86" y="10.239375"/>
      </g>
     </g>
     <g id="text_13">
      <!-- $10^{-03}$ -->
      <g transform="translate(18.9425 13.27875)scale(0.08 -0.08)">
       <use transform="translate(0 0.765625)" xlink:href="#DejaVuSans-49"/>
       <use transform="translate(63.623047 0.765625)" xlink:href="#DejaVuSans-48"/>
       <use transform="translate(128.203125 39.046875)scale(0.7)" xlink:href="#DejaVuSans-8722"/>
       <use transform="translate(186.855469 39.046875)scale(0.7)" xlink:href="#DejaVuSans-48"/>
       <use transform="translate(231.391602 39.046875)scale(0.7)" xlink:href="#DejaVuSans-51"/>
      </g>
     </g>
    </g>
    <g id="text_14">
     <!-- relative error with NumPy "linalg.eig" function -->
     <defs>
      <path d="M 9.421875 75.984375 
L 18.40625 75.984375 
L 18.40625 0 
L 9.421875 0 
z
" id="DejaVuSans-108"/>
      <path d="M 2.984375 54.6875 
L 12.5 54.6875 
L 29.59375 8.796875 
L 46.6875 54.6875 
L 56.203125 54.6875 
L 35.6875 0 
L 23.484375 0 
z
" id="DejaVuSans-118"/>
      <path d="M 4.203125 54.6875 
L 13.1875 54.6875 
L 24.421875 12.015625 
L 35.59375 54.6875 
L 46.1875 54.6875 
L 57.421875 12.015625 
L 68.609375 54.6875 
L 77.59375 54.6875 
L 63.28125 0 
L 52.6875 0 
L 40.921875 44.828125 
L 29.109375 0 
L 18.5 0 
z
" id="DejaVuSans-119"/>
      <path d="M 54.890625 33.015625 
L 54.890625 0 
L 45.90625 0 
L 45.90625 32.71875 
Q 45.90625 40.484375 42.875 44.328125 
Q 39.84375 48.1875 33.796875 48.1875 
Q 26.515625 48.1875 22.3125 43.546875 
Q 18.109375 38.921875 18.109375 30.90625 
L 18.109375 0 
L 9.078125 0 
L 9.078125 75.984375 
L 18.109375 75.984375 
L 18.109375 46.1875 
Q 21.34375 51.125 25.703125 53.5625 
Q 30.078125 56 35.796875 56 
Q 45.21875 56 50.046875 50.171875 
Q 54.890625 44.34375 54.890625 33.015625 
z
" id="DejaVuSans-104"/>
      <path d="M 9.8125 72.90625 
L 23.09375 72.90625 
L 55.421875 11.921875 
L 55.421875 72.90625 
L 64.984375 72.90625 
L 64.984375 0 
L 51.703125 0 
L 19.390625 60.984375 
L 19.390625 0 
L 9.8125 0 
z
" id="DejaVuSans-78"/>
      <path d="M 8.5 21.578125 
L 8.5 54.6875 
L 17.484375 54.6875 
L 17.484375 21.921875 
Q 17.484375 14.15625 20.5 10.265625 
Q 23.53125 6.390625 29.59375 6.390625 
Q 36.859375 6.390625 41.078125 11.03125 
Q 45.3125 15.671875 45.3125 23.6875 
L 45.3125 54.6875 
L 54.296875 54.6875 
L 54.296875 0 
L 45.3125 0 
L 45.3125 8.40625 
Q 42.046875 3.421875 37.71875 1 
Q 33.40625 -1.421875 27.6875 -1.421875 
Q 18.265625 -1.421875 13.375 4.4375 
Q 8.5 10.296875 8.5 21.578125 
z
M 31.109375 56 
z
" id="DejaVuSans-117"/>
      <path d="M 19.671875 64.796875 
L 19.671875 37.40625 
L 32.078125 37.40625 
Q 38.96875 37.40625 42.71875 40.96875 
Q 46.484375 44.53125 46.484375 51.125 
Q 46.484375 57.671875 42.71875 61.234375 
Q 38.96875 64.796875 32.078125 64.796875 
z
M 9.8125 72.90625 
L 32.078125 72.90625 
Q 44.34375 72.90625 50.609375 67.359375 
Q 56.890625 61.8125 56.890625 51.125 
Q 56.890625 40.328125 50.609375 34.8125 
Q 44.34375 29.296875 32.078125 29.296875 
L 19.671875 29.296875 
L 19.671875 0 
L 9.8125 0 
z
" id="DejaVuSans-80"/>
      <path d="M 17.921875 72.90625 
L 17.921875 45.796875 
L 9.625 45.796875 
L 9.625 72.90625 
z
M 36.375 72.90625 
L 36.375 45.796875 
L 28.078125 45.796875 
L 28.078125 72.90625 
z
" id="DejaVuSans-34"/>
      <path d="M 45.40625 27.984375 
Q 45.40625 37.75 41.375 43.109375 
Q 37.359375 48.484375 30.078125 48.484375 
Q 22.859375 48.484375 18.828125 43.109375 
Q 14.796875 37.75 14.796875 27.984375 
Q 14.796875 18.265625 18.828125 12.890625 
Q 22.859375 7.515625 30.078125 7.515625 
Q 37.359375 7.515625 41.375 12.890625 
Q 45.40625 18.265625 45.40625 27.984375 
z
M 54.390625 6.78125 
Q 54.390625 -7.171875 48.1875 -13.984375 
Q 42 -20.796875 29.203125 -20.796875 
Q 24.46875 -20.796875 20.265625 -20.09375 
Q 16.0625 -19.390625 12.109375 -17.921875 
L 12.109375 -9.1875 
Q 16.0625 -11.328125 19.921875 -12.34375 
Q 23.78125 -13.375 27.78125 -13.375 
Q 36.625 -13.375 41.015625 -8.765625 
Q 45.40625 -4.15625 45.40625 5.171875 
L 45.40625 9.625 
Q 42.625 4.78125 38.28125 2.390625 
Q 33.9375 0 27.875 0 
Q 17.828125 0 11.671875 7.65625 
Q 5.515625 15.328125 5.515625 27.984375 
Q 5.515625 40.671875 11.671875 48.328125 
Q 17.828125 56 27.875 56 
Q 33.9375 56 38.28125 53.609375 
Q 42.625 51.21875 45.40625 46.390625 
L 45.40625 54.6875 
L 54.390625 54.6875 
z
" id="DejaVuSans-103"/>
      <path d="M 10.6875 12.40625 
L 21 12.40625 
L 21 0 
L 10.6875 0 
z
" id="DejaVuSans-46"/>
     </defs>
     <g transform="translate(13.27875 256.999062)rotate(-90)scale(0.08 -0.08)">
      <use xlink:href="#DejaVuSans-114"/>
      <use x="41.082031" xlink:href="#DejaVuSans-101"/>
      <use x="102.605469" xlink:href="#DejaVuSans-108"/>
      <use x="130.388672" xlink:href="#DejaVuSans-97"/>
      <use x="191.667969" xlink:href="#DejaVuSans-116"/>
      <use x="230.876953" xlink:href="#DejaVuSans-105"/>
      <use x="258.660156" xlink:href="#DejaVuSans-118"/>
      <use x="317.839844" xlink:href="#DejaVuSans-101"/>
      <use x="379.363281" xlink:href="#DejaVuSans-32"/>
      <use x="411.150391" xlink:href="#DejaVuSans-101"/>
      <use x="472.673828" xlink:href="#DejaVuSans-114"/>
      <use x="513.771484" xlink:href="#DejaVuSans-114"/>
      <use x="554.853516" xlink:href="#DejaVuSans-111"/>
      <use x="616.035156" xlink:href="#DejaVuSans-114"/>
      <use x="657.148438" xlink:href="#DejaVuSans-32"/>
      <use x="688.935547" xlink:href="#DejaVuSans-119"/>
      <use x="770.722656" xlink:href="#DejaVuSans-105"/>
      <use x="798.505859" xlink:href="#DejaVuSans-116"/>
      <use x="837.714844" xlink:href="#DejaVuSans-104"/>
      <use x="901.09375" xlink:href="#DejaVuSans-32"/>
      <use x="932.880859" xlink:href="#DejaVuSans-78"/>
      <use x="1007.685547" xlink:href="#DejaVuSans-117"/>
      <use x="1071.064453" xlink:href="#DejaVuSans-109"/>
      <use x="1168.476562" xlink:href="#DejaVuSans-80"/>
      <use x="1228.779297" xlink:href="#DejaVuSans-121"/>
      <use x="1287.958984" xlink:href="#DejaVuSans-32"/>
      <use x="1319.746094" xlink:href="#DejaVuSans-34"/>
      <use x="1365.742188" xlink:href="#DejaVuSans-108"/>
      <use x="1393.525391" xlink:href="#DejaVuSans-105"/>
      <use x="1421.308594" xlink:href="#DejaVuSans-110"/>
      <use x="1484.6875" xlink:href="#DejaVuSans-97"/>
      <use x="1545.966797" xlink:href="#DejaVuSans-108"/>
      <use x="1573.75" xlink:href="#DejaVuSans-103"/>
      <use x="1637.226562" xlink:href="#DejaVuSans-46"/>
      <use x="1669.013672" xlink:href="#DejaVuSans-101"/>
      <use x="1730.537109" xlink:href="#DejaVuSans-105"/>
      <use x="1758.320312" xlink:href="#DejaVuSans-103"/>
      <use x="1821.796875" xlink:href="#DejaVuSans-34"/>
      <use x="1867.792969" xlink:href="#DejaVuSans-32"/>
      <use x="1899.580078" xlink:href="#DejaVuSans-102"/>
      <use x="1934.785156" xlink:href="#DejaVuSans-117"/>
      <use x="1998.164062" xlink:href="#DejaVuSans-110"/>
      <use x="2061.542969" xlink:href="#DejaVuSans-99"/>
      <use x="2116.523438" xlink:href="#DejaVuSans-116"/>
      <use x="2155.732422" xlink:href="#DejaVuSans-105"/>
      <use x="2183.515625" xlink:href="#DejaVuSans-111"/>
      <use x="2244.697266" xlink:href="#DejaVuSans-110"/>
     </g>
    </g>
   </g>
   <g id="LineCollection_1">
    <path clip-path="url(#p37544d4814)" d="M 140.28975 244.106563 
L 140.28975 161.839627 
" style="fill:none;stroke:#81b8df;"/>
   </g>
   <g id="LineCollection_2">
    <path clip-path="url(#p37544d4814)" d="M 135.03105 244.106563 
L 145.54845 244.106563 
" style="fill:none;stroke:#81b8df;"/>
   </g>
   <g id="LineCollection_3">
    <path clip-path="url(#p37544d4814)" d="M 135.03105 161.839627 
L 145.54845 161.839627 
" style="fill:none;stroke:#81b8df;"/>
   </g>
   <g id="LineCollection_4">
    <path clip-path="url(#p37544d4814)" d="M 271.75725 247.098635 
L 271.75725 155.311107 
" style="fill:none;stroke:#81b8df;"/>
   </g>
   <g id="LineCollection_5">
    <path clip-path="url(#p37544d4814)" d="M 266.49855 247.098635 
L 277.01595 247.098635 
" style="fill:none;stroke:#81b8df;"/>
   </g>
   <g id="LineCollection_6">
    <path clip-path="url(#p37544d4814)" d="M 266.49855 155.311107 
L 277.01595 155.311107 
" style="fill:none;stroke:#81b8df;"/>
   </g>
   <g id="LineCollection_7">
    <path clip-path="url(#p37544d4814)" d="M 403.22475 239.808304 
L 403.22475 161.333387 
" style="fill:none;stroke:#81b8df;"/>
   </g>
   <g id="LineCollection_8">
    <path clip-path="url(#p37544d4814)" d="M 397.96605 239.808304 
L 408.48345 239.808304 
" style="fill:none;stroke:#81b8df;"/>
   </g>
   <g id="LineCollection_9">
    <path clip-path="url(#p37544d4814)" d="M 397.96605 161.333387 
L 408.48345 161.333387 
" style="fill:none;stroke:#81b8df;"/>
   </g>
   <g id="LineCollection_10">
    <path clip-path="url(#p37544d4814)" d="M 534.69225 243.498679 
L 534.69225 167.850763 
" style="fill:none;stroke:#81b8df;"/>
   </g>
   <g id="LineCollection_11">
    <path clip-path="url(#p37544d4814)" d="M 529.43355 243.498679 
L 539.95095 243.498679 
" style="fill:none;stroke:#81b8df;"/>
   </g>
   <g id="LineCollection_12">
    <path clip-path="url(#p37544d4814)" d="M 529.43355 167.850763 
L 539.95095 167.850763 
" style="fill:none;stroke:#81b8df;"/>
   </g>
   <g id="LineCollection_13">
    <path clip-path="url(#p37544d4814)" d="M 666.15975 235.42997 
L 666.15975 180.642594 
" style="fill:none;stroke:#81b8df;"/>
   </g>
   <g id="LineCollection_14">
    <path clip-path="url(#p37544d4814)" d="M 660.90105 235.42997 
L 671.41845 235.42997 
" style="fill:none;stroke:#81b8df;"/>
   </g>
   <g id="LineCollection_15">
    <path clip-path="url(#p37544d4814)" d="M 660.90105 180.642594 
L 671.41845 180.642594 
" style="fill:none;stroke:#81b8df;"/>
   </g>
   <g id="patch_3">
    <path d="M 48.2625 319.115 
L 48.2625 10.239375 
" style="fill:none;stroke:#000000;stroke-linecap:square;stroke-linejoin:miter;stroke-width:0.8;"/>
   </g>
   <g id="patch_4">
    <path d="M 705.6 319.115 
L 705.6 10.239375 
" style="fill:none;stroke:#000000;stroke-linecap:square;stroke-linejoin:miter;stroke-width:0.8;"/>
   </g>
   <g id="patch_5">
    <path d="M 48.2625 319.115 
L 705.6 319.115 
" style="fill:none;stroke:#000000;stroke-linecap:square;stroke-linejoin:miter;stroke-width:0.8;"/>
   </g>
   <g id="patch_6">
    <path d="M 48.2625 10.239375 
L 705.6 10.239375 
" style="fill:none;stroke:#000000;stroke-linecap:square;stroke-linejoin:miter;stroke-width:0.8;"/>
   </g>
   <g id="PolyCollection_8">
    <defs>
     <path d="M 135.03105 -160.110272 
L 135.03105 -139.543538 
L 145.54845 -139.543538 
L 145.54845 -160.110272 
L 145.54845 -160.110272 
L 135.03105 -160.110272 
z
" id="me07b6ea88b" style="stroke:#81b8df;"/>
    </defs>
    <g clip-path="url(#p37544d4814)">
     <use style="fill:#81b8df;stroke:#81b8df;" x="0" xlink:href="#me07b6ea88b" y="352.8"/>
    </g>
   </g>
   <g id="PolyCollection_9">
    <defs>
     <path d="M 266.49855 -163.06857 
L 266.49855 -140.121688 
L 277.01595 -140.121688 
L 277.01595 -163.06857 
L 277.01595 -163.06857 
L 266.49855 -163.06857 
z
" id="m95e335fa4d" style="stroke:#81b8df;"/>
    </defs>
    <g clip-path="url(#p37544d4814)">
     <use style="fill:#81b8df;stroke:#81b8df;" x="0" xlink:href="#m95e335fa4d" y="352.8"/>
    </g>
   </g>
   <g id="PolyCollection_10">
    <defs>
     <path d="M 397.96605 -162.038519 
L 397.96605 -142.41979 
L 408.48345 -142.41979 
L 408.48345 -162.038519 
L 408.48345 -162.038519 
L 397.96605 -162.038519 
z
" id="mcb78fa0059" style="stroke:#81b8df;"/>
    </defs>
    <g clip-path="url(#p37544d4814)">
     <use style="fill:#81b8df;stroke:#81b8df;" x="0" xlink:href="#mcb78fa0059" y="352.8"/>
    </g>
   </g>
   <g id="PolyCollection_11">
    <defs>
     <path d="M 529.43355 -156.581269 
L 529.43355 -137.66929 
L 539.95095 -137.66929 
L 539.95095 -156.581269 
L 539.95095 -156.581269 
L 529.43355 -156.581269 
z
" id="m0abbeb55a4" style="stroke:#81b8df;"/>
    </defs>
    <g clip-path="url(#p37544d4814)">
     <use style="fill:#81b8df;stroke:#81b8df;" x="0" xlink:href="#m0abbeb55a4" y="352.8"/>
    </g>
   </g>
   <g id="PolyCollection_12">
    <defs>
     <path d="M 660.90105 -151.61214 
L 660.90105 -137.915296 
L 671.41845 -137.915296 
L 671.41845 -151.61214 
L 671.41845 -151.61214 
L 660.90105 -151.61214 
z
" id="m42a5204062" style="stroke:#81b8df;"/>
    </defs>
    <g clip-path="url(#p37544d4814)">
     <use style="fill:#81b8df;stroke:#81b8df;" x="0" xlink:href="#m42a5204062" y="352.8"/>
    </g>
   </g>
   <g id="PathCollection_1">
    <defs>
     <path d="M 0 2.5 
C 0.663008 2.5 1.29895 2.236584 1.767767 1.767767 
C 2.236584 1.29895 2.5 0.663008 2.5 0 
C 2.5 -0.663008 2.236584 -1.29895 1.767767 -1.767767 
C 1.29895 -2.236584 0.663008 -2.5 0 -2.5 
C -0.663008 -2.5 -1.29895 -2.236584 -1.767767 -1.767767 
C -2.236584 -1.29895 -2.5 -0.663008 -2.5 0 
C -2.5 0.663008 -2.236584 1.29895 -1.767767 1.767767 
C -1.29895 2.236584 -0.663008 2.5 0 2.5 
z
" id="m25123f6fd6" style="stroke:#81b8df;"/>
    </defs>
    <g clip-path="url(#p37544d4814)">
     <use style="fill:#ffffff;stroke:#81b8df;" x="100.8495" xlink:href="#m25123f6fd6" y="203.980165"/>
    </g>
   </g>
   <g id="PathCollection_2">
    <defs>
     <path d="M 0 2.236068 
C 0.593012 2.236068 1.161816 2.000462 1.581139 1.581139 
C 2.000462 1.161816 2.236068 0.593012 2.236068 0 
C 2.236068 -0.593012 2.000462 -1.161816 1.581139 -1.581139 
C 1.161816 -2.000462 0.593012 -2.236068 0 -2.236068 
C -0.593012 -2.236068 -1.161816 -2.000462 -1.581139 -1.581139 
C -2.000462 -1.161816 -2.236068 -0.593012 -2.236068 0 
C -2.236068 0.593012 -2.000462 1.161816 -1.581139 1.581139 
C -1.161816 2.000462 -0.593012 2.236068 0 2.236068 
z
" id="m2499040a31" style="stroke:#81b8df;"/>
    </defs>
    <g clip-path="url(#p37544d4814)">
     <use style="fill:#ffffff;stroke:#81b8df;" x="140.28975" xlink:href="#m2499040a31" y="48.501975"/>
    </g>
   </g>
   <g id="PathCollection_3">
    <g clip-path="url(#p37544d4814)">
     <use style="fill:#ffffff;stroke:#81b8df;" x="140.28975" xlink:href="#m2499040a31" y="250.580124"/>
    </g>
   </g>
   <g id="PathCollection_4">
    <g clip-path="url(#p37544d4814)">
     <use style="fill:#ffffff;stroke:#81b8df;" x="140.28975" xlink:href="#m2499040a31" y="257.21462"/>
    </g>
   </g>
   <g id="PathCollection_5">
    <g clip-path="url(#p37544d4814)">
     <use style="fill:#ffffff;stroke:#81b8df;" x="140.28975" xlink:href="#m2499040a31" y="57.62172"/>
    </g>
   </g>
   <g id="PathCollection_6">
    <g clip-path="url(#p37544d4814)">
     <use style="fill:#ffffff;stroke:#81b8df;" x="140.28975" xlink:href="#m2499040a31" y="152.95759"/>
    </g>
   </g>
   <g id="PathCollection_7">
    <g clip-path="url(#p37544d4814)">
     <use style="fill:#ffffff;stroke:#81b8df;" x="232.317" xlink:href="#m25123f6fd6" y="202.587975"/>
    </g>
   </g>
   <g id="PathCollection_8">
    <g clip-path="url(#p37544d4814)">
     <use style="fill:#ffffff;stroke:#81b8df;" x="271.75725" xlink:href="#m2499040a31" y="270.614852"/>
    </g>
   </g>
   <g id="PathCollection_9">
    <g clip-path="url(#p37544d4814)">
     <use style="fill:#ffffff;stroke:#81b8df;" x="271.75725" xlink:href="#m2499040a31" y="265.250049"/>
    </g>
   </g>
   <g id="PathCollection_10">
    <g clip-path="url(#p37544d4814)">
     <use style="fill:#ffffff;stroke:#81b8df;" x="271.75725" xlink:href="#m2499040a31" y="263.83028"/>
    </g>
   </g>
   <g id="PathCollection_11">
    <g clip-path="url(#p37544d4814)">
     <use style="fill:#ffffff;stroke:#81b8df;" x="271.75725" xlink:href="#m2499040a31" y="143.292921"/>
    </g>
   </g>
   <g id="PathCollection_12">
    <g clip-path="url(#p37544d4814)">
     <use style="fill:#ffffff;stroke:#81b8df;" x="271.75725" xlink:href="#m2499040a31" y="250.585523"/>
    </g>
   </g>
   <g id="PathCollection_13">
    <g clip-path="url(#p37544d4814)">
     <use style="fill:#ffffff;stroke:#81b8df;" x="363.7845" xlink:href="#m25123f6fd6" y="201.523623"/>
    </g>
   </g>
   <g id="PathCollection_14">
    <g clip-path="url(#p37544d4814)">
     <use style="fill:#ffffff;stroke:#81b8df;" x="403.22475" xlink:href="#m2499040a31" y="248.706055"/>
    </g>
   </g>
   <g id="PathCollection_15">
    <g clip-path="url(#p37544d4814)">
     <use style="fill:#ffffff;stroke:#81b8df;" x="403.22475" xlink:href="#m2499040a31" y="248.342309"/>
    </g>
   </g>
   <g id="PathCollection_16">
    <g clip-path="url(#p37544d4814)">
     <use style="fill:#ffffff;stroke:#81b8df;" x="495.252" xlink:href="#m25123f6fd6" y="204.162953"/>
    </g>
   </g>
   <g id="PathCollection_17">
    <g clip-path="url(#p37544d4814)">
     <use style="fill:#ffffff;stroke:#81b8df;" x="534.69225" xlink:href="#m2499040a31" y="253.964594"/>
    </g>
   </g>
   <g id="PathCollection_18">
    <g clip-path="url(#p37544d4814)">
     <use style="fill:#ffffff;stroke:#81b8df;" x="626.7195" xlink:href="#m25123f6fd6" y="206.702515"/>
    </g>
   </g>
   <g id="PathCollection_19">
    <g clip-path="url(#p37544d4814)">
     <use style="fill:#ffffff;stroke:#81b8df;" x="666.15975" xlink:href="#m2499040a31" y="275.343497"/>
    </g>
   </g>
   <g id="PathCollection_20">
    <g clip-path="url(#p37544d4814)">
     <use style="fill:#ffffff;stroke:#81b8df;" x="666.15975" xlink:href="#m2499040a31" y="236.692277"/>
    </g>
   </g>
   <g id="PathCollection_21">
    <g clip-path="url(#p37544d4814)">
     <use style="fill:#ffffff;stroke:#81b8df;" x="666.15975" xlink:href="#m2499040a31" y="264.914271"/>
    </g>
   </g>
   <g id="PathCollection_22">
    <g clip-path="url(#p37544d4814)">
     <use style="fill:#ffffff;stroke:#81b8df;" x="666.15975" xlink:href="#m2499040a31" y="236.977952"/>
    </g>
   </g>
   <g id="PathCollection_23">
    <g clip-path="url(#p37544d4814)">
     <use style="fill:#ffffff;stroke:#81b8df;" x="666.15975" xlink:href="#m2499040a31" y="242.554508"/>
    </g>
   </g>
   <g id="PathCollection_24">
    <g clip-path="url(#p37544d4814)">
     <use style="fill:#ffffff;stroke:#81b8df;" x="666.15975" xlink:href="#m2499040a31" y="237.499084"/>
    </g>
   </g>
   <g id="PathCollection_25">
    <g clip-path="url(#p37544d4814)">
     <use style="fill:#ffffff;stroke:#81b8df;" x="666.15975" xlink:href="#m2499040a31" y="270.201372"/>
    </g>
   </g>
   <g id="PathCollection_26">
    <g clip-path="url(#p37544d4814)">
     <use style="fill:#ffffff;stroke:#81b8df;" x="666.15975" xlink:href="#m2499040a31" y="180.123816"/>
    </g>
   </g>
  </g>
 </g>
 <defs>
  <clipPath id="p37544d4814">
   <rect height="308.875625" width="657.3375" x="48.2625" y="10.239375"/>
  </clipPath>
 </defs>
</svg>
