<?xml version="1.0" encoding="utf-8" standalone="no"?>
<!DOCTYPE svg PUBLIC "-//W3C//DTD SVG 1.1//EN"
  "http://www.w3.org/Graphics/SVG/1.1/DTD/svg11.dtd">
<!-- Created with matplotlib (https://matplotlib.org/) -->
<svg height="321.124375pt" version="1.1" viewBox="0 0 614.969375 321.124375" width="614.969375pt" xmlns="http://www.w3.org/2000/svg" xmlns:xlink="http://www.w3.org/1999/xlink">
 <defs>
  <style type="text/css">
*{stroke-linecap:butt;stroke-linejoin:round;}
  </style>
 </defs>
 <g id="figure_1">
  <g id="patch_1">
   <path d="M -0 321.124375 
L 614.969375 321.124375 
L 614.969375 0 
L -0 0 
z
" style="fill:#ffffff;"/>
  </g>
  <g id="axes_1">
   <g id="patch_2">
    <path d="M 38.33375 287.439375 
L 596.33375 287.439375 
L 596.33375 10.239375 
L 38.33375 10.239375 
z
" style="fill:#ffffff;"/>
   </g>
   <g id="LineCollection_1">
    <path clip-path="url(#p807f07e34d)" d="M 38.33375 210.829496 
L 596.33375 210.829496 
" style="fill:none;stroke:#c0c0c0;stroke-dasharray:2.775,1.2;stroke-dashoffset:0;stroke-width:0.75;"/>
   </g>
   <g id="LineCollection_2">
    <path clip-path="url(#p807f07e34d)" d="M 38.33375 169.831243 
L 596.33375 169.831243 
" style="fill:none;stroke:#c0c0c0;stroke-dasharray:2.775,1.2;stroke-dashoffset:0;stroke-width:0.75;"/>
   </g>
   <g id="LineCollection_3">
    <path clip-path="url(#p807f07e34d)" d="M 38.33375 166.104314 
L 596.33375 166.104314 
" style="fill:none;stroke:#c0c0c0;stroke-dasharray:2.775,1.2;stroke-dashoffset:0;stroke-width:0.75;"/>
   </g>
   <g id="LineCollection_4">
    <path clip-path="url(#p807f07e34d)" d="M 38.33375 155.374145 
L 596.33375 155.374145 
" style="fill:none;stroke:#c0c0c0;stroke-dasharray:2.775,1.2;stroke-dashoffset:0;stroke-width:0.75;"/>
   </g>
   <g id="LineCollection_5">
    <path clip-path="url(#p807f07e34d)" d="M 38.33375 145.050362 
L 596.33375 145.050362 
" style="fill:none;stroke:#c0c0c0;stroke-dasharray:2.775,1.2;stroke-dashoffset:0;stroke-width:0.75;"/>
   </g>
   <g id="LineCollection_6">
    <path clip-path="url(#p807f07e34d)" d="M 38.33375 138.610369 
L 596.33375 138.610369 
" style="fill:none;stroke:#c0c0c0;stroke-dasharray:2.775,1.2;stroke-dashoffset:0;stroke-width:0.75;"/>
   </g>
   <g id="LineCollection_7">
    <path clip-path="url(#p807f07e34d)" d="M 38.33375 133.31245 
L 596.33375 133.31245 
" style="fill:none;stroke:#c0c0c0;stroke-dasharray:2.775,1.2;stroke-dashoffset:0;stroke-width:0.75;"/>
   </g>
   <g id="LineCollection_8">
    <path clip-path="url(#p807f07e34d)" d="M 38.33375 131.192179 
L 596.33375 131.192179 
" style="fill:none;stroke:#c0c0c0;stroke-dasharray:2.775,1.2;stroke-dashoffset:0;stroke-width:0.75;"/>
   </g>
   <g id="LineCollection_9">
    <path clip-path="url(#p807f07e34d)" d="M 38.33375 105.492803 
L 596.33375 105.492803 
" style="fill:none;stroke:#c0c0c0;stroke-dasharray:2.775,1.2;stroke-dashoffset:0;stroke-width:0.75;"/>
   </g>
   <g id="LineCollection_10">
    <path clip-path="url(#p807f07e34d)" d="M 38.33375 99.682095 
L 596.33375 99.682095 
" style="fill:none;stroke:#c0c0c0;stroke-dasharray:2.775,1.2;stroke-dashoffset:0;stroke-width:0.75;"/>
   </g>
   <g id="LineCollection_11">
    <path clip-path="url(#p807f07e34d)" d="M 38.33375 98.431431 
L 596.33375 98.431431 
" style="fill:none;stroke:#c0c0c0;stroke-dasharray:2.775,1.2;stroke-dashoffset:0;stroke-width:0.75;"/>
   </g>
   <g id="LineCollection_12">
    <path clip-path="url(#p807f07e34d)" d="M 38.33375 98.147718 
L 596.33375 98.147718 
" style="fill:none;stroke:#c0c0c0;stroke-dasharray:2.775,1.2;stroke-dashoffset:0;stroke-width:0.75;"/>
   </g>
   <g id="matplotlib.axis_1">
    <g id="xtick_1">
     <g id="line2d_1">
      <defs>
       <path d="M 0 0 
L 0 3.5 
" id="mdb61e118d3" style="stroke:#000000;stroke-width:0.8;"/>
      </defs>
      <g>
       <use style="stroke:#000000;stroke-width:0.8;" x="38.33375" xlink:href="#mdb61e118d3" y="287.439375"/>
      </g>
     </g>
     <g id="text_1">
      <!-- 0% -->
      <defs>
       <path d="M 31.78125 66.40625 
Q 24.171875 66.40625 20.328125 58.90625 
Q 16.5 51.421875 16.5 36.375 
Q 16.5 21.390625 20.328125 13.890625 
Q 24.171875 6.390625 31.78125 6.390625 
Q 39.453125 6.390625 43.28125 13.890625 
Q 47.125 21.390625 47.125 36.375 
Q 47.125 51.421875 43.28125 58.90625 
Q 39.453125 66.40625 31.78125 66.40625 
z
M 31.78125 74.21875 
Q 44.046875 74.21875 50.515625 64.515625 
Q 56.984375 54.828125 56.984375 36.375 
Q 56.984375 17.96875 50.515625 8.265625 
Q 44.046875 -1.421875 31.78125 -1.421875 
Q 19.53125 -1.421875 13.0625 8.265625 
Q 6.59375 17.96875 6.59375 36.375 
Q 6.59375 54.828125 13.0625 64.515625 
Q 19.53125 74.21875 31.78125 74.21875 
z
" id="DejaVuSans-48"/>
       <path d="M 72.703125 32.078125 
Q 68.453125 32.078125 66.03125 28.46875 
Q 63.625 24.859375 63.625 18.40625 
Q 63.625 12.0625 66.03125 8.421875 
Q 68.453125 4.78125 72.703125 4.78125 
Q 76.859375 4.78125 79.265625 8.421875 
Q 81.6875 12.0625 81.6875 18.40625 
Q 81.6875 24.8125 79.265625 28.4375 
Q 76.859375 32.078125 72.703125 32.078125 
z
M 72.703125 38.28125 
Q 80.421875 38.28125 84.953125 32.90625 
Q 89.5 27.546875 89.5 18.40625 
Q 89.5 9.28125 84.9375 3.921875 
Q 80.375 -1.421875 72.703125 -1.421875 
Q 64.890625 -1.421875 60.34375 3.921875 
Q 55.8125 9.28125 55.8125 18.40625 
Q 55.8125 27.59375 60.375 32.9375 
Q 64.9375 38.28125 72.703125 38.28125 
z
M 22.3125 68.015625 
Q 18.109375 68.015625 15.6875 64.375 
Q 13.28125 60.75 13.28125 54.390625 
Q 13.28125 47.953125 15.671875 44.328125 
Q 18.0625 40.71875 22.3125 40.71875 
Q 26.5625 40.71875 28.96875 44.328125 
Q 31.390625 47.953125 31.390625 54.390625 
Q 31.390625 60.6875 28.953125 64.34375 
Q 26.515625 68.015625 22.3125 68.015625 
z
M 66.40625 74.21875 
L 74.21875 74.21875 
L 28.609375 -1.421875 
L 20.796875 -1.421875 
z
M 22.3125 74.21875 
Q 30.03125 74.21875 34.609375 68.875 
Q 39.203125 63.53125 39.203125 54.390625 
Q 39.203125 45.171875 34.640625 39.84375 
Q 30.078125 34.515625 22.3125 34.515625 
Q 14.546875 34.515625 10.03125 39.859375 
Q 5.515625 45.21875 5.515625 54.390625 
Q 5.515625 63.484375 10.046875 68.84375 
Q 14.59375 74.21875 22.3125 74.21875 
z
" id="DejaVuSans-37"/>
      </defs>
      <g transform="translate(31.988125 300.518125)scale(0.08 -0.08)">
       <use xlink:href="#DejaVuSans-48"/>
       <use x="63.623047" xlink:href="#DejaVuSans-37"/>
      </g>
     </g>
    </g>
    <g id="xtick_2">
     <g id="line2d_2">
      <g>
       <use style="stroke:#000000;stroke-width:0.8;" x="177.83375" xlink:href="#mdb61e118d3" y="287.439375"/>
      </g>
     </g>
     <g id="text_2">
      <!-- 25% -->
      <defs>
       <path d="M 19.1875 8.296875 
L 53.609375 8.296875 
L 53.609375 0 
L 7.328125 0 
L 7.328125 8.296875 
Q 12.9375 14.109375 22.625 23.890625 
Q 32.328125 33.6875 34.8125 36.53125 
Q 39.546875 41.84375 41.421875 45.53125 
Q 43.3125 49.21875 43.3125 52.78125 
Q 43.3125 58.59375 39.234375 62.25 
Q 35.15625 65.921875 28.609375 65.921875 
Q 23.96875 65.921875 18.8125 64.3125 
Q 13.671875 62.703125 7.8125 59.421875 
L 7.8125 69.390625 
Q 13.765625 71.78125 18.9375 73 
Q 24.125 74.21875 28.421875 74.21875 
Q 39.75 74.21875 46.484375 68.546875 
Q 53.21875 62.890625 53.21875 53.421875 
Q 53.21875 48.921875 51.53125 44.890625 
Q 49.859375 40.875 45.40625 35.40625 
Q 44.1875 33.984375 37.640625 27.21875 
Q 31.109375 20.453125 19.1875 8.296875 
z
" id="DejaVuSans-50"/>
       <path d="M 10.796875 72.90625 
L 49.515625 72.90625 
L 49.515625 64.59375 
L 19.828125 64.59375 
L 19.828125 46.734375 
Q 21.96875 47.46875 24.109375 47.828125 
Q 26.265625 48.1875 28.421875 48.1875 
Q 40.625 48.1875 47.75 41.5 
Q 54.890625 34.8125 54.890625 23.390625 
Q 54.890625 11.625 47.5625 5.09375 
Q 40.234375 -1.421875 26.90625 -1.421875 
Q 22.3125 -1.421875 17.546875 -0.640625 
Q 12.796875 0.140625 7.71875 1.703125 
L 7.71875 11.625 
Q 12.109375 9.234375 16.796875 8.0625 
Q 21.484375 6.890625 26.703125 6.890625 
Q 35.15625 6.890625 40.078125 11.328125 
Q 45.015625 15.765625 45.015625 23.390625 
Q 45.015625 31 40.078125 35.4375 
Q 35.15625 39.890625 26.703125 39.890625 
Q 22.75 39.890625 18.8125 39.015625 
Q 14.890625 38.140625 10.796875 36.28125 
z
" id="DejaVuSans-53"/>
      </defs>
      <g transform="translate(168.943125 300.518125)scale(0.08 -0.08)">
       <use xlink:href="#DejaVuSans-50"/>
       <use x="63.623047" xlink:href="#DejaVuSans-53"/>
       <use x="127.246094" xlink:href="#DejaVuSans-37"/>
      </g>
     </g>
    </g>
    <g id="xtick_3">
     <g id="line2d_3">
      <g>
       <use style="stroke:#000000;stroke-width:0.8;" x="317.33375" xlink:href="#mdb61e118d3" y="287.439375"/>
      </g>
     </g>
     <g id="text_3">
      <!-- 50% -->
      <g transform="translate(308.443125 300.518125)scale(0.08 -0.08)">
       <use xlink:href="#DejaVuSans-53"/>
       <use x="63.623047" xlink:href="#DejaVuSans-48"/>
       <use x="127.246094" xlink:href="#DejaVuSans-37"/>
      </g>
     </g>
    </g>
    <g id="xtick_4">
     <g id="line2d_4">
      <g>
       <use style="stroke:#000000;stroke-width:0.8;" x="456.83375" xlink:href="#mdb61e118d3" y="287.439375"/>
      </g>
     </g>
     <g id="text_4">
      <!-- 75% -->
      <defs>
       <path d="M 8.203125 72.90625 
L 55.078125 72.90625 
L 55.078125 68.703125 
L 28.609375 0 
L 18.3125 0 
L 43.21875 64.59375 
L 8.203125 64.59375 
z
" id="DejaVuSans-55"/>
      </defs>
      <g transform="translate(447.943125 300.518125)scale(0.08 -0.08)">
       <use xlink:href="#DejaVuSans-55"/>
       <use x="63.623047" xlink:href="#DejaVuSans-53"/>
       <use x="127.246094" xlink:href="#DejaVuSans-37"/>
      </g>
     </g>
    </g>
    <g id="xtick_5">
     <g id="line2d_5">
      <g>
       <use style="stroke:#000000;stroke-width:0.8;" x="596.33375" xlink:href="#mdb61e118d3" y="287.439375"/>
      </g>
     </g>
     <g id="text_5">
      <!-- 100% -->
      <defs>
       <path d="M 12.40625 8.296875 
L 28.515625 8.296875 
L 28.515625 63.921875 
L 10.984375 60.40625 
L 10.984375 69.390625 
L 28.421875 72.90625 
L 38.28125 72.90625 
L 38.28125 8.296875 
L 54.390625 8.296875 
L 54.390625 0 
L 12.40625 0 
z
" id="DejaVuSans-49"/>
      </defs>
      <g transform="translate(584.898125 300.518125)scale(0.08 -0.08)">
       <use xlink:href="#DejaVuSans-49"/>
       <use x="63.623047" xlink:href="#DejaVuSans-48"/>
       <use x="127.246094" xlink:href="#DejaVuSans-48"/>
       <use x="190.869141" xlink:href="#DejaVuSans-37"/>
      </g>
     </g>
    </g>
    <g id="text_6">
     <!-- percentage of graph reconstruction -->
     <defs>
      <path d="M 18.109375 8.203125 
L 18.109375 -20.796875 
L 9.078125 -20.796875 
L 9.078125 54.6875 
L 18.109375 54.6875 
L 18.109375 46.390625 
Q 20.953125 51.265625 25.265625 53.625 
Q 29.59375 56 35.59375 56 
Q 45.5625 56 51.78125 48.09375 
Q 58.015625 40.1875 58.015625 27.296875 
Q 58.015625 14.40625 51.78125 6.484375 
Q 45.5625 -1.421875 35.59375 -1.421875 
Q 29.59375 -1.421875 25.265625 0.953125 
Q 20.953125 3.328125 18.109375 8.203125 
z
M 48.6875 27.296875 
Q 48.6875 37.203125 44.609375 42.84375 
Q 40.53125 48.484375 33.40625 48.484375 
Q 26.265625 48.484375 22.1875 42.84375 
Q 18.109375 37.203125 18.109375 27.296875 
Q 18.109375 17.390625 22.1875 11.75 
Q 26.265625 6.109375 33.40625 6.109375 
Q 40.53125 6.109375 44.609375 11.75 
Q 48.6875 17.390625 48.6875 27.296875 
z
" id="DejaVuSans-112"/>
      <path d="M 56.203125 29.59375 
L 56.203125 25.203125 
L 14.890625 25.203125 
Q 15.484375 15.921875 20.484375 11.0625 
Q 25.484375 6.203125 34.421875 6.203125 
Q 39.59375 6.203125 44.453125 7.46875 
Q 49.3125 8.734375 54.109375 11.28125 
L 54.109375 2.78125 
Q 49.265625 0.734375 44.1875 -0.34375 
Q 39.109375 -1.421875 33.890625 -1.421875 
Q 20.796875 -1.421875 13.15625 6.1875 
Q 5.515625 13.8125 5.515625 26.8125 
Q 5.515625 40.234375 12.765625 48.109375 
Q 20.015625 56 32.328125 56 
Q 43.359375 56 49.78125 48.890625 
Q 56.203125 41.796875 56.203125 29.59375 
z
M 47.21875 32.234375 
Q 47.125 39.59375 43.09375 43.984375 
Q 39.0625 48.390625 32.421875 48.390625 
Q 24.90625 48.390625 20.390625 44.140625 
Q 15.875 39.890625 15.1875 32.171875 
z
" id="DejaVuSans-101"/>
      <path d="M 41.109375 46.296875 
Q 39.59375 47.171875 37.8125 47.578125 
Q 36.03125 48 33.890625 48 
Q 26.265625 48 22.1875 43.046875 
Q 18.109375 38.09375 18.109375 28.8125 
L 18.109375 0 
L 9.078125 0 
L 9.078125 54.6875 
L 18.109375 54.6875 
L 18.109375 46.1875 
Q 20.953125 51.171875 25.484375 53.578125 
Q 30.03125 56 36.53125 56 
Q 37.453125 56 38.578125 55.875 
Q 39.703125 55.765625 41.0625 55.515625 
z
" id="DejaVuSans-114"/>
      <path d="M 48.78125 52.59375 
L 48.78125 44.1875 
Q 44.96875 46.296875 41.140625 47.34375 
Q 37.3125 48.390625 33.40625 48.390625 
Q 24.65625 48.390625 19.8125 42.84375 
Q 14.984375 37.3125 14.984375 27.296875 
Q 14.984375 17.28125 19.8125 11.734375 
Q 24.65625 6.203125 33.40625 6.203125 
Q 37.3125 6.203125 41.140625 7.25 
Q 44.96875 8.296875 48.78125 10.40625 
L 48.78125 2.09375 
Q 45.015625 0.34375 40.984375 -0.53125 
Q 36.96875 -1.421875 32.421875 -1.421875 
Q 20.0625 -1.421875 12.78125 6.34375 
Q 5.515625 14.109375 5.515625 27.296875 
Q 5.515625 40.671875 12.859375 48.328125 
Q 20.21875 56 33.015625 56 
Q 37.15625 56 41.109375 55.140625 
Q 45.0625 54.296875 48.78125 52.59375 
z
" id="DejaVuSans-99"/>
      <path d="M 54.890625 33.015625 
L 54.890625 0 
L 45.90625 0 
L 45.90625 32.71875 
Q 45.90625 40.484375 42.875 44.328125 
Q 39.84375 48.1875 33.796875 48.1875 
Q 26.515625 48.1875 22.3125 43.546875 
Q 18.109375 38.921875 18.109375 30.90625 
L 18.109375 0 
L 9.078125 0 
L 9.078125 54.6875 
L 18.109375 54.6875 
L 18.109375 46.1875 
Q 21.34375 51.125 25.703125 53.5625 
Q 30.078125 56 35.796875 56 
Q 45.21875 56 50.046875 50.171875 
Q 54.890625 44.34375 54.890625 33.015625 
z
" id="DejaVuSans-110"/>
      <path d="M 18.3125 70.21875 
L 18.3125 54.6875 
L 36.8125 54.6875 
L 36.8125 47.703125 
L 18.3125 47.703125 
L 18.3125 18.015625 
Q 18.3125 11.328125 20.140625 9.421875 
Q 21.96875 7.515625 27.59375 7.515625 
L 36.8125 7.515625 
L 36.8125 0 
L 27.59375 0 
Q 17.1875 0 13.234375 3.875 
Q 9.28125 7.765625 9.28125 18.015625 
L 9.28125 47.703125 
L 2.6875 47.703125 
L 2.6875 54.6875 
L 9.28125 54.6875 
L 9.28125 70.21875 
z
" id="DejaVuSans-116"/>
      <path d="M 34.28125 27.484375 
Q 23.390625 27.484375 19.1875 25 
Q 14.984375 22.515625 14.984375 16.5 
Q 14.984375 11.71875 18.140625 8.90625 
Q 21.296875 6.109375 26.703125 6.109375 
Q 34.1875 6.109375 38.703125 11.40625 
Q 43.21875 16.703125 43.21875 25.484375 
L 43.21875 27.484375 
z
M 52.203125 31.203125 
L 52.203125 0 
L 43.21875 0 
L 43.21875 8.296875 
Q 40.140625 3.328125 35.546875 0.953125 
Q 30.953125 -1.421875 24.3125 -1.421875 
Q 15.921875 -1.421875 10.953125 3.296875 
Q 6 8.015625 6 15.921875 
Q 6 25.140625 12.171875 29.828125 
Q 18.359375 34.515625 30.609375 34.515625 
L 43.21875 34.515625 
L 43.21875 35.40625 
Q 43.21875 41.609375 39.140625 45 
Q 35.0625 48.390625 27.6875 48.390625 
Q 23 48.390625 18.546875 47.265625 
Q 14.109375 46.140625 10.015625 43.890625 
L 10.015625 52.203125 
Q 14.9375 54.109375 19.578125 55.046875 
Q 24.21875 56 28.609375 56 
Q 40.484375 56 46.34375 49.84375 
Q 52.203125 43.703125 52.203125 31.203125 
z
" id="DejaVuSans-97"/>
      <path d="M 45.40625 27.984375 
Q 45.40625 37.75 41.375 43.109375 
Q 37.359375 48.484375 30.078125 48.484375 
Q 22.859375 48.484375 18.828125 43.109375 
Q 14.796875 37.75 14.796875 27.984375 
Q 14.796875 18.265625 18.828125 12.890625 
Q 22.859375 7.515625 30.078125 7.515625 
Q 37.359375 7.515625 41.375 12.890625 
Q 45.40625 18.265625 45.40625 27.984375 
z
M 54.390625 6.78125 
Q 54.390625 -7.171875 48.1875 -13.984375 
Q 42 -20.796875 29.203125 -20.796875 
Q 24.46875 -20.796875 20.265625 -20.09375 
Q 16.0625 -19.390625 12.109375 -17.921875 
L 12.109375 -9.1875 
Q 16.0625 -11.328125 19.921875 -12.34375 
Q 23.78125 -13.375 27.78125 -13.375 
Q 36.625 -13.375 41.015625 -8.765625 
Q 45.40625 -4.15625 45.40625 5.171875 
L 45.40625 9.625 
Q 42.625 4.78125 38.28125 2.390625 
Q 33.9375 0 27.875 0 
Q 17.828125 0 11.671875 7.65625 
Q 5.515625 15.328125 5.515625 27.984375 
Q 5.515625 40.671875 11.671875 48.328125 
Q 17.828125 56 27.875 56 
Q 33.9375 56 38.28125 53.609375 
Q 42.625 51.21875 45.40625 46.390625 
L 45.40625 54.6875 
L 54.390625 54.6875 
z
" id="DejaVuSans-103"/>
      <path id="DejaVuSans-32"/>
      <path d="M 30.609375 48.390625 
Q 23.390625 48.390625 19.1875 42.75 
Q 14.984375 37.109375 14.984375 27.296875 
Q 14.984375 17.484375 19.15625 11.84375 
Q 23.34375 6.203125 30.609375 6.203125 
Q 37.796875 6.203125 41.984375 11.859375 
Q 46.1875 17.53125 46.1875 27.296875 
Q 46.1875 37.015625 41.984375 42.703125 
Q 37.796875 48.390625 30.609375 48.390625 
z
M 30.609375 56 
Q 42.328125 56 49.015625 48.375 
Q 55.71875 40.765625 55.71875 27.296875 
Q 55.71875 13.875 49.015625 6.21875 
Q 42.328125 -1.421875 30.609375 -1.421875 
Q 18.84375 -1.421875 12.171875 6.21875 
Q 5.515625 13.875 5.515625 27.296875 
Q 5.515625 40.765625 12.171875 48.375 
Q 18.84375 56 30.609375 56 
z
" id="DejaVuSans-111"/>
      <path d="M 37.109375 75.984375 
L 37.109375 68.5 
L 28.515625 68.5 
Q 23.6875 68.5 21.796875 66.546875 
Q 19.921875 64.59375 19.921875 59.515625 
L 19.921875 54.6875 
L 34.71875 54.6875 
L 34.71875 47.703125 
L 19.921875 47.703125 
L 19.921875 0 
L 10.890625 0 
L 10.890625 47.703125 
L 2.296875 47.703125 
L 2.296875 54.6875 
L 10.890625 54.6875 
L 10.890625 58.5 
Q 10.890625 67.625 15.140625 71.796875 
Q 19.390625 75.984375 28.609375 75.984375 
z
" id="DejaVuSans-102"/>
      <path d="M 54.890625 33.015625 
L 54.890625 0 
L 45.90625 0 
L 45.90625 32.71875 
Q 45.90625 40.484375 42.875 44.328125 
Q 39.84375 48.1875 33.796875 48.1875 
Q 26.515625 48.1875 22.3125 43.546875 
Q 18.109375 38.921875 18.109375 30.90625 
L 18.109375 0 
L 9.078125 0 
L 9.078125 75.984375 
L 18.109375 75.984375 
L 18.109375 46.1875 
Q 21.34375 51.125 25.703125 53.5625 
Q 30.078125 56 35.796875 56 
Q 45.21875 56 50.046875 50.171875 
Q 54.890625 44.34375 54.890625 33.015625 
z
" id="DejaVuSans-104"/>
      <path d="M 44.28125 53.078125 
L 44.28125 44.578125 
Q 40.484375 46.53125 36.375 47.5 
Q 32.28125 48.484375 27.875 48.484375 
Q 21.1875 48.484375 17.84375 46.4375 
Q 14.5 44.390625 14.5 40.28125 
Q 14.5 37.15625 16.890625 35.375 
Q 19.28125 33.59375 26.515625 31.984375 
L 29.59375 31.296875 
Q 39.15625 29.25 43.1875 25.515625 
Q 47.21875 21.78125 47.21875 15.09375 
Q 47.21875 7.46875 41.1875 3.015625 
Q 35.15625 -1.421875 24.609375 -1.421875 
Q 20.21875 -1.421875 15.453125 -0.5625 
Q 10.6875 0.296875 5.421875 2 
L 5.421875 11.28125 
Q 10.40625 8.6875 15.234375 7.390625 
Q 20.0625 6.109375 24.8125 6.109375 
Q 31.15625 6.109375 34.5625 8.28125 
Q 37.984375 10.453125 37.984375 14.40625 
Q 37.984375 18.0625 35.515625 20.015625 
Q 33.0625 21.96875 24.703125 23.78125 
L 21.578125 24.515625 
Q 13.234375 26.265625 9.515625 29.90625 
Q 5.8125 33.546875 5.8125 39.890625 
Q 5.8125 47.609375 11.28125 51.796875 
Q 16.75 56 26.8125 56 
Q 31.78125 56 36.171875 55.265625 
Q 40.578125 54.546875 44.28125 53.078125 
z
" id="DejaVuSans-115"/>
      <path d="M 8.5 21.578125 
L 8.5 54.6875 
L 17.484375 54.6875 
L 17.484375 21.921875 
Q 17.484375 14.15625 20.5 10.265625 
Q 23.53125 6.390625 29.59375 6.390625 
Q 36.859375 6.390625 41.078125 11.03125 
Q 45.3125 15.671875 45.3125 23.6875 
L 45.3125 54.6875 
L 54.296875 54.6875 
L 54.296875 0 
L 45.3125 0 
L 45.3125 8.40625 
Q 42.046875 3.421875 37.71875 1 
Q 33.40625 -1.421875 27.6875 -1.421875 
Q 18.265625 -1.421875 13.375 4.4375 
Q 8.5 10.296875 8.5 21.578125 
z
M 31.109375 56 
z
" id="DejaVuSans-117"/>
      <path d="M 9.421875 54.6875 
L 18.40625 54.6875 
L 18.40625 0 
L 9.421875 0 
z
M 9.421875 75.984375 
L 18.40625 75.984375 
L 18.40625 64.59375 
L 9.421875 64.59375 
z
" id="DejaVuSans-105"/>
     </defs>
     <g transform="translate(246.116875 312.260625)scale(0.08 -0.08)">
      <use xlink:href="#DejaVuSans-112"/>
      <use x="63.476562" xlink:href="#DejaVuSans-101"/>
      <use x="125" xlink:href="#DejaVuSans-114"/>
      <use x="166.082031" xlink:href="#DejaVuSans-99"/>
      <use x="221.0625" xlink:href="#DejaVuSans-101"/>
      <use x="282.585938" xlink:href="#DejaVuSans-110"/>
      <use x="345.964844" xlink:href="#DejaVuSans-116"/>
      <use x="385.173828" xlink:href="#DejaVuSans-97"/>
      <use x="446.453125" xlink:href="#DejaVuSans-103"/>
      <use x="509.929688" xlink:href="#DejaVuSans-101"/>
      <use x="571.453125" xlink:href="#DejaVuSans-32"/>
      <use x="603.240234" xlink:href="#DejaVuSans-111"/>
      <use x="664.421875" xlink:href="#DejaVuSans-102"/>
      <use x="699.626953" xlink:href="#DejaVuSans-32"/>
      <use x="731.414062" xlink:href="#DejaVuSans-103"/>
      <use x="794.890625" xlink:href="#DejaVuSans-114"/>
      <use x="836.003906" xlink:href="#DejaVuSans-97"/>
      <use x="897.283203" xlink:href="#DejaVuSans-112"/>
      <use x="960.759766" xlink:href="#DejaVuSans-104"/>
      <use x="1024.138672" xlink:href="#DejaVuSans-32"/>
      <use x="1055.925781" xlink:href="#DejaVuSans-114"/>
      <use x="1097.007812" xlink:href="#DejaVuSans-101"/>
      <use x="1158.53125" xlink:href="#DejaVuSans-99"/>
      <use x="1213.511719" xlink:href="#DejaVuSans-111"/>
      <use x="1274.693359" xlink:href="#DejaVuSans-110"/>
      <use x="1338.072266" xlink:href="#DejaVuSans-115"/>
      <use x="1390.171875" xlink:href="#DejaVuSans-116"/>
      <use x="1429.380859" xlink:href="#DejaVuSans-114"/>
      <use x="1470.494141" xlink:href="#DejaVuSans-117"/>
      <use x="1533.873047" xlink:href="#DejaVuSans-99"/>
      <use x="1588.853516" xlink:href="#DejaVuSans-116"/>
      <use x="1628.0625" xlink:href="#DejaVuSans-105"/>
      <use x="1655.845703" xlink:href="#DejaVuSans-111"/>
      <use x="1717.027344" xlink:href="#DejaVuSans-110"/>
     </g>
    </g>
   </g>
   <g id="matplotlib.axis_2">
    <g id="ytick_1">
     <g id="line2d_6">
      <defs>
       <path d="M 0 0 
L -3.5 0 
" id="mf176ac511a" style="stroke:#000000;stroke-width:0.8;"/>
      </defs>
      <g>
       <use style="stroke:#000000;stroke-width:0.8;" x="38.33375" xlink:href="#mf176ac511a" y="287.439375"/>
      </g>
     </g>
     <g id="text_7">
      <!-- B -->
      <defs>
       <path d="M 19.671875 34.8125 
L 19.671875 8.109375 
L 35.5 8.109375 
Q 43.453125 8.109375 47.28125 11.40625 
Q 51.125 14.703125 51.125 21.484375 
Q 51.125 28.328125 47.28125 31.5625 
Q 43.453125 34.8125 35.5 34.8125 
z
M 19.671875 64.796875 
L 19.671875 42.828125 
L 34.28125 42.828125 
Q 41.5 42.828125 45.03125 45.53125 
Q 48.578125 48.25 48.578125 53.8125 
Q 48.578125 59.328125 45.03125 62.0625 
Q 41.5 64.796875 34.28125 64.796875 
z
M 9.8125 72.90625 
L 35.015625 72.90625 
Q 46.296875 72.90625 52.390625 68.21875 
Q 58.5 63.53125 58.5 54.890625 
Q 58.5 48.1875 55.375 44.234375 
Q 52.25 40.28125 46.1875 39.3125 
Q 53.46875 37.75 57.5 32.78125 
Q 61.53125 27.828125 61.53125 20.40625 
Q 61.53125 10.640625 54.890625 5.3125 
Q 48.25 0 35.984375 0 
L 9.8125 0 
z
" id="DejaVuSans-66"/>
      </defs>
      <g transform="translate(25.845 290.47875)scale(0.08 -0.08)">
       <use xlink:href="#DejaVuSans-66"/>
      </g>
     </g>
    </g>
    <g id="ytick_2">
     <g id="line2d_7">
      <g>
       <use style="stroke:#000000;stroke-width:0.8;" x="38.33375" xlink:href="#mf176ac511a" y="218.139375"/>
      </g>
     </g>
     <g id="text_8">
      <!-- KB -->
      <defs>
       <path d="M 9.8125 72.90625 
L 19.671875 72.90625 
L 19.671875 42.09375 
L 52.390625 72.90625 
L 65.09375 72.90625 
L 28.90625 38.921875 
L 67.671875 0 
L 54.6875 0 
L 19.671875 35.109375 
L 19.671875 0 
L 9.8125 0 
z
" id="DejaVuSans-75"/>
      </defs>
      <g transform="translate(20.59875 221.17875)scale(0.08 -0.08)">
       <use xlink:href="#DejaVuSans-75"/>
       <use x="65.576172" xlink:href="#DejaVuSans-66"/>
      </g>
     </g>
    </g>
    <g id="ytick_3">
     <g id="line2d_8">
      <g>
       <use style="stroke:#000000;stroke-width:0.8;" x="38.33375" xlink:href="#mf176ac511a" y="148.839375"/>
      </g>
     </g>
     <g id="text_9">
      <!-- MB -->
      <defs>
       <path d="M 9.8125 72.90625 
L 24.515625 72.90625 
L 43.109375 23.296875 
L 61.8125 72.90625 
L 76.515625 72.90625 
L 76.515625 0 
L 66.890625 0 
L 66.890625 64.015625 
L 48.09375 14.015625 
L 38.1875 14.015625 
L 19.390625 64.015625 
L 19.390625 0 
L 9.8125 0 
z
" id="DejaVuSans-77"/>
      </defs>
      <g transform="translate(18.9425 151.87875)scale(0.08 -0.08)">
       <use xlink:href="#DejaVuSans-77"/>
       <use x="86.279297" xlink:href="#DejaVuSans-66"/>
      </g>
     </g>
    </g>
    <g id="ytick_4">
     <g id="line2d_9">
      <g>
       <use style="stroke:#000000;stroke-width:0.8;" x="38.33375" xlink:href="#mf176ac511a" y="79.539375"/>
      </g>
     </g>
     <g id="text_10">
      <!-- GB -->
      <defs>
       <path d="M 59.515625 10.40625 
L 59.515625 29.984375 
L 43.40625 29.984375 
L 43.40625 38.09375 
L 69.28125 38.09375 
L 69.28125 6.78125 
Q 63.578125 2.734375 56.6875 0.65625 
Q 49.8125 -1.421875 42 -1.421875 
Q 24.90625 -1.421875 15.25 8.5625 
Q 5.609375 18.5625 5.609375 36.375 
Q 5.609375 54.25 15.25 64.234375 
Q 24.90625 74.21875 42 74.21875 
Q 49.125 74.21875 55.546875 72.453125 
Q 61.96875 70.703125 67.390625 67.28125 
L 67.390625 56.78125 
Q 61.921875 61.421875 55.765625 63.765625 
Q 49.609375 66.109375 42.828125 66.109375 
Q 29.4375 66.109375 22.71875 58.640625 
Q 16.015625 51.171875 16.015625 36.375 
Q 16.015625 21.625 22.71875 14.15625 
Q 29.4375 6.6875 42.828125 6.6875 
Q 48.046875 6.6875 52.140625 7.59375 
Q 56.25 8.5 59.515625 10.40625 
z
" id="DejaVuSans-71"/>
      </defs>
      <g transform="translate(19.64625 82.57875)scale(0.08 -0.08)">
       <use xlink:href="#DejaVuSans-71"/>
       <use x="77.490234" xlink:href="#DejaVuSans-66"/>
      </g>
     </g>
    </g>
    <g id="ytick_5">
     <g id="line2d_10">
      <g>
       <use style="stroke:#000000;stroke-width:0.8;" x="38.33375" xlink:href="#mf176ac511a" y="10.239375"/>
      </g>
     </g>
     <g id="text_11">
      <!-- TB -->
      <defs>
       <path d="M -0.296875 72.90625 
L 61.375 72.90625 
L 61.375 64.59375 
L 35.5 64.59375 
L 35.5 0 
L 25.59375 0 
L 25.59375 64.59375 
L -0.296875 64.59375 
z
" id="DejaVuSans-84"/>
      </defs>
      <g transform="translate(20.95875 13.27875)scale(0.08 -0.08)">
       <use xlink:href="#DejaVuSans-84"/>
       <use x="61.083984" xlink:href="#DejaVuSans-66"/>
      </g>
     </g>
    </g>
    <g id="text_12">
     <!-- transmitted data capacity -->
     <defs>
      <path d="M 52 44.1875 
Q 55.375 50.25 60.0625 53.125 
Q 64.75 56 71.09375 56 
Q 79.640625 56 84.28125 50.015625 
Q 88.921875 44.046875 88.921875 33.015625 
L 88.921875 0 
L 79.890625 0 
L 79.890625 32.71875 
Q 79.890625 40.578125 77.09375 44.375 
Q 74.3125 48.1875 68.609375 48.1875 
Q 61.625 48.1875 57.5625 43.546875 
Q 53.515625 38.921875 53.515625 30.90625 
L 53.515625 0 
L 44.484375 0 
L 44.484375 32.71875 
Q 44.484375 40.625 41.703125 44.40625 
Q 38.921875 48.1875 33.109375 48.1875 
Q 26.21875 48.1875 22.15625 43.53125 
Q 18.109375 38.875 18.109375 30.90625 
L 18.109375 0 
L 9.078125 0 
L 9.078125 54.6875 
L 18.109375 54.6875 
L 18.109375 46.1875 
Q 21.1875 51.21875 25.484375 53.609375 
Q 29.78125 56 35.6875 56 
Q 41.65625 56 45.828125 52.96875 
Q 50 49.953125 52 44.1875 
z
" id="DejaVuSans-109"/>
      <path d="M 45.40625 46.390625 
L 45.40625 75.984375 
L 54.390625 75.984375 
L 54.390625 0 
L 45.40625 0 
L 45.40625 8.203125 
Q 42.578125 3.328125 38.25 0.953125 
Q 33.9375 -1.421875 27.875 -1.421875 
Q 17.96875 -1.421875 11.734375 6.484375 
Q 5.515625 14.40625 5.515625 27.296875 
Q 5.515625 40.1875 11.734375 48.09375 
Q 17.96875 56 27.875 56 
Q 33.9375 56 38.25 53.625 
Q 42.578125 51.265625 45.40625 46.390625 
z
M 14.796875 27.296875 
Q 14.796875 17.390625 18.875 11.75 
Q 22.953125 6.109375 30.078125 6.109375 
Q 37.203125 6.109375 41.296875 11.75 
Q 45.40625 17.390625 45.40625 27.296875 
Q 45.40625 37.203125 41.296875 42.84375 
Q 37.203125 48.484375 30.078125 48.484375 
Q 22.953125 48.484375 18.875 42.84375 
Q 14.796875 37.203125 14.796875 27.296875 
z
" id="DejaVuSans-100"/>
      <path d="M 32.171875 -5.078125 
Q 28.375 -14.84375 24.75 -17.8125 
Q 21.140625 -20.796875 15.09375 -20.796875 
L 7.90625 -20.796875 
L 7.90625 -13.28125 
L 13.1875 -13.28125 
Q 16.890625 -13.28125 18.9375 -11.515625 
Q 21 -9.765625 23.484375 -3.21875 
L 25.09375 0.875 
L 2.984375 54.6875 
L 12.5 54.6875 
L 29.59375 11.921875 
L 46.6875 54.6875 
L 56.203125 54.6875 
z
" id="DejaVuSans-121"/>
     </defs>
     <g transform="translate(13.27875 200.70625)rotate(-90)scale(0.08 -0.08)">
      <use xlink:href="#DejaVuSans-116"/>
      <use x="39.208984" xlink:href="#DejaVuSans-114"/>
      <use x="80.322266" xlink:href="#DejaVuSans-97"/>
      <use x="141.601562" xlink:href="#DejaVuSans-110"/>
      <use x="204.980469" xlink:href="#DejaVuSans-115"/>
      <use x="257.080078" xlink:href="#DejaVuSans-109"/>
      <use x="354.492188" xlink:href="#DejaVuSans-105"/>
      <use x="382.275391" xlink:href="#DejaVuSans-116"/>
      <use x="421.484375" xlink:href="#DejaVuSans-116"/>
      <use x="460.693359" xlink:href="#DejaVuSans-101"/>
      <use x="522.216797" xlink:href="#DejaVuSans-100"/>
      <use x="585.693359" xlink:href="#DejaVuSans-32"/>
      <use x="617.480469" xlink:href="#DejaVuSans-100"/>
      <use x="680.957031" xlink:href="#DejaVuSans-97"/>
      <use x="742.236328" xlink:href="#DejaVuSans-116"/>
      <use x="781.445312" xlink:href="#DejaVuSans-97"/>
      <use x="842.724609" xlink:href="#DejaVuSans-32"/>
      <use x="874.511719" xlink:href="#DejaVuSans-99"/>
      <use x="929.492188" xlink:href="#DejaVuSans-97"/>
      <use x="990.771484" xlink:href="#DejaVuSans-112"/>
      <use x="1054.248047" xlink:href="#DejaVuSans-97"/>
      <use x="1115.527344" xlink:href="#DejaVuSans-99"/>
      <use x="1170.507812" xlink:href="#DejaVuSans-105"/>
      <use x="1198.291016" xlink:href="#DejaVuSans-116"/>
      <use x="1237.5" xlink:href="#DejaVuSans-121"/>
     </g>
    </g>
   </g>
   <g id="line2d_11">
    <path clip-path="url(#p807f07e34d)" d="M 38.33375 262.187452 
L 43.91375 261.673872 
L 49.49375 261.160292 
L 55.07375 260.646713 
L 60.65375 260.133133 
L 66.23375 259.619554 
L 71.81375 259.105974 
L 77.39375 258.592395 
L 82.97375 258.078815 
L 88.55375 257.565236 
L 94.13375 257.051656 
L 99.71375 256.538077 
L 105.29375 256.024497 
L 110.87375 255.510917 
L 116.45375 254.997338 
L 122.03375 254.483758 
L 127.61375 253.970179 
L 133.19375 253.456599 
L 138.77375 252.94302 
L 144.35375 252.42944 
L 149.93375 251.915861 
L 155.51375 251.402281 
L 161.09375 250.888701 
L 166.67375 250.375122 
L 172.25375 249.861542 
L 177.83375 249.347963 
L 183.41375 248.834383 
L 188.99375 248.320804 
L 194.57375 247.807224 
L 200.15375 247.293645 
L 205.73375 246.780065 
L 211.31375 246.266485 
L 216.89375 245.752906 
L 222.47375 245.239326 
L 228.05375 244.725747 
L 233.63375 244.212167 
L 239.21375 243.698588 
L 244.79375 243.185008 
L 250.37375 242.671429 
L 255.95375 242.157849 
L 261.53375 241.644269 
L 267.11375 241.13069 
L 272.69375 240.61711 
L 278.27375 240.103531 
L 283.85375 239.589951 
L 289.43375 239.076372 
L 295.01375 238.562792 
L 300.59375 238.049213 
L 306.17375 237.535633 
L 311.75375 237.022053 
L 317.33375 236.508474 
L 322.91375 235.994894 
L 328.49375 235.481315 
L 334.07375 234.967735 
L 339.65375 234.454156 
L 345.23375 233.940576 
L 350.81375 233.426997 
L 356.39375 232.913417 
L 361.97375 232.399837 
L 367.55375 231.886258 
L 373.13375 231.372678 
L 378.71375 230.859099 
L 384.29375 230.345519 
L 389.87375 229.83194 
L 395.45375 229.31836 
L 401.03375 228.804781 
L 406.61375 228.291201 
L 412.19375 227.777621 
L 417.77375 227.264042 
L 423.35375 226.750462 
L 428.93375 226.236883 
L 434.51375 225.723303 
L 440.09375 225.209724 
L 445.67375 224.696144 
L 451.25375 224.182565 
L 456.83375 223.668985 
L 462.41375 223.155405 
L 467.99375 222.641826 
L 473.57375 222.128246 
L 479.15375 221.614667 
L 484.73375 221.101087 
L 490.31375 220.587508 
L 495.89375 220.073928 
L 501.47375 219.560349 
L 507.05375 219.046769 
L 512.63375 218.533189 
L 518.21375 218.01961 
L 523.79375 217.50603 
L 529.37375 216.992451 
L 534.95375 216.478871 
L 540.53375 215.965292 
L 546.11375 215.451712 
L 551.69375 214.938133 
L 557.27375 214.424553 
L 562.85375 213.910973 
L 568.43375 213.397394 
L 574.01375 212.883814 
L 579.59375 212.370235 
L 585.17375 211.856655 
L 590.75375 211.343076 
L 596.33375 210.829496 
" style="fill:none;stroke:#8000ff;stroke-linecap:square;stroke-opacity:0.5;stroke-width:2;"/>
   </g>
   <g id="line2d_12">
    <path clip-path="url(#p807f07e34d)" d="M 38.33375 257.582822 
L 43.91375 256.705306 
L 49.49375 255.82779 
L 55.07375 254.950275 
L 60.65375 254.072759 
L 66.23375 253.195243 
L 71.81375 252.317727 
L 77.39375 251.440212 
L 82.97375 250.562696 
L 88.55375 249.68518 
L 94.13375 248.807664 
L 99.71375 247.930148 
L 105.29375 247.052633 
L 110.87375 246.175117 
L 116.45375 245.297601 
L 122.03375 244.420085 
L 127.61375 243.542569 
L 133.19375 242.665054 
L 138.77375 241.787538 
L 144.35375 240.910022 
L 149.93375 240.032506 
L 155.51375 239.15499 
L 161.09375 238.277475 
L 166.67375 237.399959 
L 172.25375 236.522443 
L 177.83375 235.644927 
L 183.41375 234.767411 
L 188.99375 233.889896 
L 194.57375 233.01238 
L 200.15375 232.134864 
L 205.73375 231.257348 
L 211.31375 230.379832 
L 216.89375 229.502317 
L 222.47375 228.624801 
L 228.05375 227.747285 
L 233.63375 226.869769 
L 239.21375 225.992253 
L 244.79375 225.114738 
L 250.37375 224.237222 
L 255.95375 223.359706 
L 261.53375 222.48219 
L 267.11375 221.604674 
L 272.69375 220.727159 
L 278.27375 219.849643 
L 283.85375 218.972127 
L 289.43375 218.094611 
L 295.01375 217.217096 
L 300.59375 216.33958 
L 306.17375 215.462064 
L 311.75375 214.584548 
L 317.33375 213.707032 
L 322.91375 212.829517 
L 328.49375 211.952001 
L 334.07375 211.074485 
L 339.65375 210.196969 
L 345.23375 209.319453 
L 350.81375 208.441938 
L 356.39375 207.564422 
L 361.97375 206.686906 
L 367.55375 205.80939 
L 373.13375 204.931874 
L 378.71375 204.054359 
L 384.29375 203.176843 
L 389.87375 202.299327 
L 395.45375 201.421811 
L 401.03375 200.544295 
L 406.61375 199.66678 
L 412.19375 198.789264 
L 417.77375 197.911748 
L 423.35375 197.034232 
L 428.93375 196.156716 
L 434.51375 195.279201 
L 440.09375 194.401685 
L 445.67375 193.524169 
L 451.25375 192.646653 
L 456.83375 191.769137 
L 462.41375 190.891622 
L 467.99375 190.014106 
L 473.57375 189.13659 
L 479.15375 188.259074 
L 484.73375 187.381558 
L 490.31375 186.504043 
L 495.89375 185.626527 
L 501.47375 184.749011 
L 507.05375 183.871495 
L 512.63375 182.99398 
L 518.21375 182.116464 
L 523.79375 181.238948 
L 529.37375 180.361432 
L 534.95375 179.483916 
L 540.53375 178.606401 
L 546.11375 177.728885 
L 551.69375 176.851369 
L 557.27375 175.973853 
L 562.85375 175.096337 
L 568.43375 174.218822 
L 574.01375 173.341306 
L 579.59375 172.46379 
L 585.17375 171.586274 
L 590.75375 170.708758 
L 596.33375 169.831243 
" style="fill:none;stroke:#5247fc;stroke-linecap:square;stroke-opacity:0.5;stroke-width:2;"/>
   </g>
   <g id="line2d_13">
    <path clip-path="url(#p807f07e34d)" d="M 38.33375 257.3012 
L 43.91375 256.389232 
L 49.49375 255.477263 
L 55.07375 254.565294 
L 60.65375 253.653325 
L 66.23375 252.741356 
L 71.81375 251.829387 
L 77.39375 250.917418 
L 82.97375 250.00545 
L 88.55375 249.093481 
L 94.13375 248.181512 
L 99.71375 247.269543 
L 105.29375 246.357574 
L 110.87375 245.445605 
L 116.45375 244.533636 
L 122.03375 243.621667 
L 127.61375 242.709699 
L 133.19375 241.79773 
L 138.77375 240.885761 
L 144.35375 239.973792 
L 149.93375 239.061823 
L 155.51375 238.149854 
L 161.09375 237.237885 
L 166.67375 236.325916 
L 172.25375 235.413948 
L 177.83375 234.501979 
L 183.41375 233.59001 
L 188.99375 232.678041 
L 194.57375 231.766072 
L 200.15375 230.854103 
L 205.73375 229.942134 
L 211.31375 229.030166 
L 216.89375 228.118197 
L 222.47375 227.206228 
L 228.05375 226.294259 
L 233.63375 225.38229 
L 239.21375 224.470321 
L 244.79375 223.558352 
L 250.37375 222.646383 
L 255.95375 221.734415 
L 261.53375 220.822446 
L 267.11375 219.910477 
L 272.69375 218.998508 
L 278.27375 218.086539 
L 283.85375 217.17457 
L 289.43375 216.262601 
L 295.01375 215.350632 
L 300.59375 214.438664 
L 306.17375 213.526695 
L 311.75375 212.614726 
L 317.33375 211.702757 
L 322.91375 210.790788 
L 328.49375 209.878819 
L 334.07375 208.96685 
L 339.65375 208.054882 
L 345.23375 207.142913 
L 350.81375 206.230944 
L 356.39375 205.318975 
L 361.97375 204.407006 
L 367.55375 203.495037 
L 373.13375 202.583068 
L 378.71375 201.671099 
L 384.29375 200.759131 
L 389.87375 199.847162 
L 395.45375 198.935193 
L 401.03375 198.023224 
L 406.61375 197.111255 
L 412.19375 196.199286 
L 417.77375 195.287317 
L 423.35375 194.375348 
L 428.93375 193.46338 
L 434.51375 192.551411 
L 440.09375 191.639442 
L 445.67375 190.727473 
L 451.25375 189.815504 
L 456.83375 188.903535 
L 462.41375 187.991566 
L 467.99375 187.079598 
L 473.57375 186.167629 
L 479.15375 185.25566 
L 484.73375 184.343691 
L 490.31375 183.431722 
L 495.89375 182.519753 
L 501.47375 181.607784 
L 507.05375 180.695815 
L 512.63375 179.783847 
L 518.21375 178.871878 
L 523.79375 177.959909 
L 529.37375 177.04794 
L 534.95375 176.135971 
L 540.53375 175.224002 
L 546.11375 174.312033 
L 551.69375 173.400064 
L 557.27375 172.488096 
L 562.85375 171.576127 
L 568.43375 170.664158 
L 574.01375 169.752189 
L 579.59375 168.84022 
L 585.17375 167.928251 
L 590.75375 167.016282 
L 596.33375 166.104314 
" style="fill:none;stroke:#2489f5;stroke-linecap:square;stroke-opacity:0.5;stroke-width:2;"/>
   </g>
   <g id="line2d_14">
    <path clip-path="url(#p807f07e34d)" d="M 38.33375 257.061782 
L 43.91375 256.044906 
L 49.49375 255.028029 
L 55.07375 254.011153 
L 60.65375 252.994277 
L 66.23375 251.9774 
L 71.81375 250.960524 
L 77.39375 249.943648 
L 82.97375 248.926771 
L 88.55375 247.909895 
L 94.13375 246.893018 
L 99.71375 245.876142 
L 105.29375 244.859266 
L 110.87375 243.842389 
L 116.45375 242.825513 
L 122.03375 241.808637 
L 127.61375 240.79176 
L 133.19375 239.774884 
L 138.77375 238.758007 
L 144.35375 237.741131 
L 149.93375 236.724255 
L 155.51375 235.707378 
L 161.09375 234.690502 
L 166.67375 233.673626 
L 172.25375 232.656749 
L 177.83375 231.639873 
L 183.41375 230.622996 
L 188.99375 229.60612 
L 194.57375 228.589244 
L 200.15375 227.572367 
L 205.73375 226.555491 
L 211.31375 225.538615 
L 216.89375 224.521738 
L 222.47375 223.504862 
L 228.05375 222.487985 
L 233.63375 221.471109 
L 239.21375 220.454233 
L 244.79375 219.437356 
L 250.37375 218.42048 
L 255.95375 217.403604 
L 261.53375 216.386727 
L 267.11375 215.369851 
L 272.69375 214.352975 
L 278.27375 213.336098 
L 283.85375 212.319222 
L 289.43375 211.302345 
L 295.01375 210.285469 
L 300.59375 209.268593 
L 306.17375 208.251716 
L 311.75375 207.23484 
L 317.33375 206.217964 
L 322.91375 205.201087 
L 328.49375 204.184211 
L 334.07375 203.167334 
L 339.65375 202.150458 
L 345.23375 201.133582 
L 350.81375 200.116705 
L 356.39375 199.099829 
L 361.97375 198.082953 
L 367.55375 197.066076 
L 373.13375 196.0492 
L 378.71375 195.032323 
L 384.29375 194.015447 
L 389.87375 192.998571 
L 395.45375 191.981694 
L 401.03375 190.964818 
L 406.61375 189.947942 
L 412.19375 188.931065 
L 417.77375 187.914189 
L 423.35375 186.897312 
L 428.93375 185.880436 
L 434.51375 184.86356 
L 440.09375 183.846683 
L 445.67375 182.829807 
L 451.25375 181.812931 
L 456.83375 180.796054 
L 462.41375 179.779178 
L 467.99375 178.762302 
L 473.57375 177.745425 
L 479.15375 176.728549 
L 484.73375 175.711672 
L 490.31375 174.694796 
L 495.89375 173.67792 
L 501.47375 172.661043 
L 507.05375 171.644167 
L 512.63375 170.627291 
L 518.21375 169.610414 
L 523.79375 168.593538 
L 529.37375 167.576661 
L 534.95375 166.559785 
L 540.53375 165.542909 
L 546.11375 164.526032 
L 551.69375 163.509156 
L 557.27375 162.49228 
L 562.85375 161.475403 
L 568.43375 160.458527 
L 574.01375 159.44165 
L 579.59375 158.424774 
L 585.17375 157.407898 
L 590.75375 156.391021 
L 596.33375 155.374145 
" style="fill:none;stroke:#0ac0e8;stroke-linecap:square;stroke-opacity:0.5;stroke-width:2;"/>
   </g>
   <g id="line2d_15">
    <path clip-path="url(#p807f07e34d)" d="M 38.33375 256.444553 
L 43.91375 255.330611 
L 49.49375 254.216669 
L 55.07375 253.102727 
L 60.65375 251.988785 
L 66.23375 250.874844 
L 71.81375 249.760902 
L 77.39375 248.64696 
L 82.97375 247.533018 
L 88.55375 246.419076 
L 94.13375 245.305134 
L 99.71375 244.191192 
L 105.29375 243.07725 
L 110.87375 241.963308 
L 116.45375 240.849366 
L 122.03375 239.735424 
L 127.61375 238.621483 
L 133.19375 237.507541 
L 138.77375 236.393599 
L 144.35375 235.279657 
L 149.93375 234.165715 
L 155.51375 233.051773 
L 161.09375 231.937831 
L 166.67375 230.823889 
L 172.25375 229.709947 
L 177.83375 228.596005 
L 183.41375 227.482063 
L 188.99375 226.368122 
L 194.57375 225.25418 
L 200.15375 224.140238 
L 205.73375 223.026296 
L 211.31375 221.912354 
L 216.89375 220.798412 
L 222.47375 219.68447 
L 228.05375 218.570528 
L 233.63375 217.456586 
L 239.21375 216.342644 
L 244.79375 215.228702 
L 250.37375 214.11476 
L 255.95375 213.000819 
L 261.53375 211.886877 
L 267.11375 210.772935 
L 272.69375 209.658993 
L 278.27375 208.545051 
L 283.85375 207.431109 
L 289.43375 206.317167 
L 295.01375 205.203225 
L 300.59375 204.089283 
L 306.17375 202.975341 
L 311.75375 201.861399 
L 317.33375 200.747458 
L 322.91375 199.633516 
L 328.49375 198.519574 
L 334.07375 197.405632 
L 339.65375 196.29169 
L 345.23375 195.177748 
L 350.81375 194.063806 
L 356.39375 192.949864 
L 361.97375 191.835922 
L 367.55375 190.72198 
L 373.13375 189.608038 
L 378.71375 188.494097 
L 384.29375 187.380155 
L 389.87375 186.266213 
L 395.45375 185.152271 
L 401.03375 184.038329 
L 406.61375 182.924387 
L 412.19375 181.810445 
L 417.77375 180.696503 
L 423.35375 179.582561 
L 428.93375 178.468619 
L 434.51375 177.354677 
L 440.09375 176.240736 
L 445.67375 175.126794 
L 451.25375 174.012852 
L 456.83375 172.89891 
L 462.41375 171.784968 
L 467.99375 170.671026 
L 473.57375 169.557084 
L 479.15375 168.443142 
L 484.73375 167.3292 
L 490.31375 166.215258 
L 495.89375 165.101316 
L 501.47375 163.987374 
L 507.05375 162.873433 
L 512.63375 161.759491 
L 518.21375 160.645549 
L 523.79375 159.531607 
L 529.37375 158.417665 
L 534.95375 157.303723 
L 540.53375 156.189781 
L 546.11375 155.075839 
L 551.69375 153.961897 
L 557.27375 152.847955 
L 562.85375 151.734013 
L 568.43375 150.620072 
L 574.01375 149.50613 
L 579.59375 148.392188 
L 585.17375 147.278246 
L 590.75375 146.164304 
L 596.33375 145.050362 
" style="fill:none;stroke:#3ae8d6;stroke-linecap:square;stroke-opacity:0.5;stroke-width:2;"/>
   </g>
   <g id="line2d_16">
    <path clip-path="url(#p807f07e34d)" d="M 38.33375 256.334229 
L 43.91375 255.156991 
L 49.49375 253.979752 
L 55.07375 252.802513 
L 60.65375 251.625275 
L 66.23375 250.448036 
L 71.81375 249.270798 
L 77.39375 248.093559 
L 82.97375 246.91632 
L 88.55375 245.739082 
L 94.13375 244.561843 
L 99.71375 243.384605 
L 105.29375 242.207366 
L 110.87375 241.030127 
L 116.45375 239.852889 
L 122.03375 238.67565 
L 127.61375 237.498412 
L 133.19375 236.321173 
L 138.77375 235.143934 
L 144.35375 233.966696 
L 149.93375 232.789457 
L 155.51375 231.612219 
L 161.09375 230.43498 
L 166.67375 229.257741 
L 172.25375 228.080503 
L 177.83375 226.903264 
L 183.41375 225.726025 
L 188.99375 224.548787 
L 194.57375 223.371548 
L 200.15375 222.19431 
L 205.73375 221.017071 
L 211.31375 219.839832 
L 216.89375 218.662594 
L 222.47375 217.485355 
L 228.05375 216.308117 
L 233.63375 215.130878 
L 239.21375 213.953639 
L 244.79375 212.776401 
L 250.37375 211.599162 
L 255.95375 210.421924 
L 261.53375 209.244685 
L 267.11375 208.067446 
L 272.69375 206.890208 
L 278.27375 205.712969 
L 283.85375 204.535731 
L 289.43375 203.358492 
L 295.01375 202.181253 
L 300.59375 201.004015 
L 306.17375 199.826776 
L 311.75375 198.649538 
L 317.33375 197.472299 
L 322.91375 196.29506 
L 328.49375 195.117822 
L 334.07375 193.940583 
L 339.65375 192.763345 
L 345.23375 191.586106 
L 350.81375 190.408867 
L 356.39375 189.231629 
L 361.97375 188.05439 
L 367.55375 186.877152 
L 373.13375 185.699913 
L 378.71375 184.522674 
L 384.29375 183.345436 
L 389.87375 182.168197 
L 395.45375 180.990959 
L 401.03375 179.81372 
L 406.61375 178.636481 
L 412.19375 177.459243 
L 417.77375 176.282004 
L 423.35375 175.104766 
L 428.93375 173.927527 
L 434.51375 172.750288 
L 440.09375 171.57305 
L 445.67375 170.395811 
L 451.25375 169.218572 
L 456.83375 168.041334 
L 462.41375 166.864095 
L 467.99375 165.686857 
L 473.57375 164.509618 
L 479.15375 163.332379 
L 484.73375 162.155141 
L 490.31375 160.977902 
L 495.89375 159.800664 
L 501.47375 158.623425 
L 507.05375 157.446186 
L 512.63375 156.268948 
L 518.21375 155.091709 
L 523.79375 153.914471 
L 529.37375 152.737232 
L 534.95375 151.559993 
L 540.53375 150.382755 
L 546.11375 149.205516 
L 551.69375 148.028278 
L 557.27375 146.851039 
L 562.85375 145.6738 
L 568.43375 144.496562 
L 574.01375 143.319323 
L 579.59375 142.142085 
L 585.17375 140.964846 
L 590.75375 139.787607 
L 596.33375 138.610369 
" style="fill:none;stroke:#68fcc1;stroke-linecap:square;stroke-opacity:0.5;stroke-width:2;"/>
   </g>
   <g id="line2d_17">
    <path clip-path="url(#p807f07e34d)" d="M 38.33375 256.247792 
L 43.91375 255.018438 
L 49.49375 253.789085 
L 55.07375 252.559731 
L 60.65375 251.330378 
L 66.23375 250.101025 
L 71.81375 248.871671 
L 77.39375 247.642318 
L 82.97375 246.412964 
L 88.55375 245.183611 
L 94.13375 243.954258 
L 99.71375 242.724904 
L 105.29375 241.495551 
L 110.87375 240.266197 
L 116.45375 239.036844 
L 122.03375 237.80749 
L 127.61375 236.578137 
L 133.19375 235.348784 
L 138.77375 234.11943 
L 144.35375 232.890077 
L 149.93375 231.660723 
L 155.51375 230.43137 
L 161.09375 229.202017 
L 166.67375 227.972663 
L 172.25375 226.74331 
L 177.83375 225.513956 
L 183.41375 224.284603 
L 188.99375 223.055249 
L 194.57375 221.825896 
L 200.15375 220.596543 
L 205.73375 219.367189 
L 211.31375 218.137836 
L 216.89375 216.908482 
L 222.47375 215.679129 
L 228.05375 214.449776 
L 233.63375 213.220422 
L 239.21375 211.991069 
L 244.79375 210.761715 
L 250.37375 209.532362 
L 255.95375 208.303008 
L 261.53375 207.073655 
L 267.11375 205.844302 
L 272.69375 204.614948 
L 278.27375 203.385595 
L 283.85375 202.156241 
L 289.43375 200.926888 
L 295.01375 199.697535 
L 300.59375 198.468181 
L 306.17375 197.238828 
L 311.75375 196.009474 
L 317.33375 194.780121 
L 322.91375 193.550768 
L 328.49375 192.321414 
L 334.07375 191.092061 
L 339.65375 189.862707 
L 345.23375 188.633354 
L 350.81375 187.404 
L 356.39375 186.174647 
L 361.97375 184.945294 
L 367.55375 183.71594 
L 373.13375 182.486587 
L 378.71375 181.257233 
L 384.29375 180.02788 
L 389.87375 178.798527 
L 395.45375 177.569173 
L 401.03375 176.33982 
L 406.61375 175.110466 
L 412.19375 173.881113 
L 417.77375 172.651759 
L 423.35375 171.422406 
L 428.93375 170.193053 
L 434.51375 168.963699 
L 440.09375 167.734346 
L 445.67375 166.504992 
L 451.25375 165.275639 
L 456.83375 164.046286 
L 462.41375 162.816932 
L 467.99375 161.587579 
L 473.57375 160.358225 
L 479.15375 159.128872 
L 484.73375 157.899519 
L 490.31375 156.670165 
L 495.89375 155.440812 
L 501.47375 154.211458 
L 507.05375 152.982105 
L 512.63375 151.752751 
L 518.21375 150.523398 
L 523.79375 149.294045 
L 529.37375 148.064691 
L 534.95375 146.835338 
L 540.53375 145.605984 
L 546.11375 144.376631 
L 551.69375 143.147278 
L 557.27375 141.917924 
L 562.85375 140.688571 
L 568.43375 139.459217 
L 574.01375 138.229864 
L 579.59375 137.00051 
L 585.17375 135.771157 
L 590.75375 134.541804 
L 596.33375 133.31245 
" style="fill:none;stroke:#96fca7;stroke-linecap:square;stroke-opacity:0.5;stroke-width:2;"/>
   </g>
   <g id="line2d_18">
    <path clip-path="url(#p807f07e34d)" d="M 38.33375 256.226604 
L 43.91375 254.97626 
L 49.49375 253.725916 
L 55.07375 252.475571 
L 60.65375 251.225227 
L 66.23375 249.974883 
L 71.81375 248.724539 
L 77.39375 247.474194 
L 82.97375 246.22385 
L 88.55375 244.973506 
L 94.13375 243.723162 
L 99.71375 242.472817 
L 105.29375 241.222473 
L 110.87375 239.972129 
L 116.45375 238.721785 
L 122.03375 237.47144 
L 127.61375 236.221096 
L 133.19375 234.970752 
L 138.77375 233.720408 
L 144.35375 232.470063 
L 149.93375 231.219719 
L 155.51375 229.969375 
L 161.09375 228.719031 
L 166.67375 227.468686 
L 172.25375 226.218342 
L 177.83375 224.967998 
L 183.41375 223.717654 
L 188.99375 222.467309 
L 194.57375 221.216965 
L 200.15375 219.966621 
L 205.73375 218.716277 
L 211.31375 217.465932 
L 216.89375 216.215588 
L 222.47375 214.965244 
L 228.05375 213.7149 
L 233.63375 212.464555 
L 239.21375 211.214211 
L 244.79375 209.963867 
L 250.37375 208.713523 
L 255.95375 207.463178 
L 261.53375 206.212834 
L 267.11375 204.96249 
L 272.69375 203.712146 
L 278.27375 202.461801 
L 283.85375 201.211457 
L 289.43375 199.961113 
L 295.01375 198.710768 
L 300.59375 197.460424 
L 306.17375 196.21008 
L 311.75375 194.959736 
L 317.33375 193.709391 
L 322.91375 192.459047 
L 328.49375 191.208703 
L 334.07375 189.958359 
L 339.65375 188.708014 
L 345.23375 187.45767 
L 350.81375 186.207326 
L 356.39375 184.956982 
L 361.97375 183.706637 
L 367.55375 182.456293 
L 373.13375 181.205949 
L 378.71375 179.955605 
L 384.29375 178.70526 
L 389.87375 177.454916 
L 395.45375 176.204572 
L 401.03375 174.954228 
L 406.61375 173.703883 
L 412.19375 172.453539 
L 417.77375 171.203195 
L 423.35375 169.952851 
L 428.93375 168.702506 
L 434.51375 167.452162 
L 440.09375 166.201818 
L 445.67375 164.951474 
L 451.25375 163.701129 
L 456.83375 162.450785 
L 462.41375 161.200441 
L 467.99375 159.950097 
L 473.57375 158.699752 
L 479.15375 157.449408 
L 484.73375 156.199064 
L 490.31375 154.94872 
L 495.89375 153.698375 
L 501.47375 152.448031 
L 507.05375 151.197687 
L 512.63375 149.947343 
L 518.21375 148.696998 
L 523.79375 147.446654 
L 529.37375 146.19631 
L 534.95375 144.945966 
L 540.53375 143.695621 
L 546.11375 142.445277 
L 551.69375 141.194933 
L 557.27375 139.944589 
L 562.85375 138.694244 
L 568.43375 137.4439 
L 574.01375 136.193556 
L 579.59375 134.943212 
L 585.17375 133.692867 
L 590.75375 132.442523 
L 596.33375 131.192179 
" style="fill:none;stroke:#c4e88a;stroke-linecap:square;stroke-opacity:0.5;stroke-width:2;"/>
   </g>
   <g id="line2d_19">
    <path clip-path="url(#p807f07e34d)" d="M 38.33375 255.346054 
L 43.91375 253.847522 
L 49.49375 252.348989 
L 55.07375 250.850457 
L 60.65375 249.351924 
L 66.23375 247.853392 
L 71.81375 246.354859 
L 77.39375 244.856326 
L 82.97375 243.357794 
L 88.55375 241.859261 
L 94.13375 240.360729 
L 99.71375 238.862196 
L 105.29375 237.363664 
L 110.87375 235.865131 
L 116.45375 234.366599 
L 122.03375 232.868066 
L 127.61375 231.369534 
L 133.19375 229.871001 
L 138.77375 228.372469 
L 144.35375 226.873936 
L 149.93375 225.375404 
L 155.51375 223.876871 
L 161.09375 222.378339 
L 166.67375 220.879806 
L 172.25375 219.381274 
L 177.83375 217.882741 
L 183.41375 216.384209 
L 188.99375 214.885676 
L 194.57375 213.387144 
L 200.15375 211.888611 
L 205.73375 210.390079 
L 211.31375 208.891546 
L 216.89375 207.393014 
L 222.47375 205.894481 
L 228.05375 204.395949 
L 233.63375 202.897416 
L 239.21375 201.398884 
L 244.79375 199.900351 
L 250.37375 198.401819 
L 255.95375 196.903286 
L 261.53375 195.404754 
L 267.11375 193.906221 
L 272.69375 192.407689 
L 278.27375 190.909156 
L 283.85375 189.410624 
L 289.43375 187.912091 
L 295.01375 186.413559 
L 300.59375 184.915026 
L 306.17375 183.416494 
L 311.75375 181.917961 
L 317.33375 180.419429 
L 322.91375 178.920896 
L 328.49375 177.422364 
L 334.07375 175.923831 
L 339.65375 174.425299 
L 345.23375 172.926766 
L 350.81375 171.428234 
L 356.39375 169.929701 
L 361.97375 168.431169 
L 367.55375 166.932636 
L 373.13375 165.434104 
L 378.71375 163.935571 
L 384.29375 162.437039 
L 389.87375 160.938506 
L 395.45375 159.439974 
L 401.03375 157.941441 
L 406.61375 156.442909 
L 412.19375 154.944376 
L 417.77375 153.445844 
L 423.35375 151.947311 
L 428.93375 150.448779 
L 434.51375 148.950246 
L 440.09375 147.451713 
L 445.67375 145.953181 
L 451.25375 144.454648 
L 456.83375 142.956116 
L 462.41375 141.457583 
L 467.99375 139.959051 
L 473.57375 138.460518 
L 479.15375 136.961986 
L 484.73375 135.463453 
L 490.31375 133.964921 
L 495.89375 132.466388 
L 501.47375 130.967856 
L 507.05375 129.469323 
L 512.63375 127.970791 
L 518.21375 126.472258 
L 523.79375 124.973726 
L 529.37375 123.475193 
L 534.95375 121.976661 
L 540.53375 120.478128 
L 546.11375 118.979596 
L 551.69375 117.481063 
L 557.27375 115.982531 
L 562.85375 114.483998 
L 568.43375 112.985466 
L 574.01375 111.486933 
L 579.59375 109.988401 
L 585.17375 108.489868 
L 590.75375 106.991336 
L 596.33375 105.492803 
" style="fill:none;stroke:#f4c069;stroke-linecap:square;stroke-opacity:0.5;stroke-width:2;"/>
   </g>
   <g id="line2d_20">
    <path clip-path="url(#p807f07e34d)" d="M 38.33375 255.278887 
L 43.91375 253.72292 
L 49.49375 252.166952 
L 55.07375 250.610984 
L 60.65375 249.055016 
L 66.23375 247.499048 
L 71.81375 245.94308 
L 77.39375 244.387112 
L 82.97375 242.831144 
L 88.55375 241.275176 
L 94.13375 239.719208 
L 99.71375 238.16324 
L 105.29375 236.607272 
L 110.87375 235.051305 
L 116.45375 233.495337 
L 122.03375 231.939369 
L 127.61375 230.383401 
L 133.19375 228.827433 
L 138.77375 227.271465 
L 144.35375 225.715497 
L 149.93375 224.159529 
L 155.51375 222.603561 
L 161.09375 221.047593 
L 166.67375 219.491625 
L 172.25375 217.935657 
L 177.83375 216.379689 
L 183.41375 214.823722 
L 188.99375 213.267754 
L 194.57375 211.711786 
L 200.15375 210.155818 
L 205.73375 208.59985 
L 211.31375 207.043882 
L 216.89375 205.487914 
L 222.47375 203.931946 
L 228.05375 202.375978 
L 233.63375 200.82001 
L 239.21375 199.264042 
L 244.79375 197.708074 
L 250.37375 196.152106 
L 255.95375 194.596139 
L 261.53375 193.040171 
L 267.11375 191.484203 
L 272.69375 189.928235 
L 278.27375 188.372267 
L 283.85375 186.816299 
L 289.43375 185.260331 
L 295.01375 183.704363 
L 300.59375 182.148395 
L 306.17375 180.592427 
L 311.75375 179.036459 
L 317.33375 177.480491 
L 322.91375 175.924523 
L 328.49375 174.368556 
L 334.07375 172.812588 
L 339.65375 171.25662 
L 345.23375 169.700652 
L 350.81375 168.144684 
L 356.39375 166.588716 
L 361.97375 165.032748 
L 367.55375 163.47678 
L 373.13375 161.920812 
L 378.71375 160.364844 
L 384.29375 158.808876 
L 389.87375 157.252908 
L 395.45375 155.69694 
L 401.03375 154.140973 
L 406.61375 152.585005 
L 412.19375 151.029037 
L 417.77375 149.473069 
L 423.35375 147.917101 
L 428.93375 146.361133 
L 434.51375 144.805165 
L 440.09375 143.249197 
L 445.67375 141.693229 
L 451.25375 140.137261 
L 456.83375 138.581293 
L 462.41375 137.025325 
L 467.99375 135.469357 
L 473.57375 133.91339 
L 479.15375 132.357422 
L 484.73375 130.801454 
L 490.31375 129.245486 
L 495.89375 127.689518 
L 501.47375 126.13355 
L 507.05375 124.577582 
L 512.63375 123.021614 
L 518.21375 121.465646 
L 523.79375 119.909678 
L 529.37375 118.35371 
L 534.95375 116.797742 
L 540.53375 115.241775 
L 546.11375 113.685807 
L 551.69375 112.129839 
L 557.27375 110.573871 
L 562.85375 109.017903 
L 568.43375 107.461935 
L 574.01375 105.905967 
L 579.59375 104.349999 
L 585.17375 102.794031 
L 590.75375 101.238063 
L 596.33375 99.682095 
" style="fill:none;stroke:#ff8947;stroke-linecap:square;stroke-opacity:0.5;stroke-width:2;"/>
   </g>
   <g id="line2d_21">
    <path clip-path="url(#p807f07e34d)" d="M 38.33375 255.262757 
L 43.91375 253.694443 
L 49.49375 252.12613 
L 55.07375 250.557817 
L 60.65375 248.989504 
L 66.23375 247.42119 
L 71.81375 245.852877 
L 77.39375 244.284564 
L 82.97375 242.716251 
L 88.55375 241.147937 
L 94.13375 239.579624 
L 99.71375 238.011311 
L 105.29375 236.442998 
L 110.87375 234.874684 
L 116.45375 233.306371 
L 122.03375 231.738058 
L 127.61375 230.169744 
L 133.19375 228.601431 
L 138.77375 227.033118 
L 144.35375 225.464805 
L 149.93375 223.896491 
L 155.51375 222.328178 
L 161.09375 220.759865 
L 166.67375 219.191552 
L 172.25375 217.623238 
L 177.83375 216.054925 
L 183.41375 214.486612 
L 188.99375 212.918299 
L 194.57375 211.349985 
L 200.15375 209.781672 
L 205.73375 208.213359 
L 211.31375 206.645046 
L 216.89375 205.076732 
L 222.47375 203.508419 
L 228.05375 201.940106 
L 233.63375 200.371793 
L 239.21375 198.803479 
L 244.79375 197.235166 
L 250.37375 195.666853 
L 255.95375 194.09854 
L 261.53375 192.530226 
L 267.11375 190.961913 
L 272.69375 189.3936 
L 278.27375 187.825286 
L 283.85375 186.256973 
L 289.43375 184.68866 
L 295.01375 183.120347 
L 300.59375 181.552033 
L 306.17375 179.98372 
L 311.75375 178.415407 
L 317.33375 176.847094 
L 322.91375 175.27878 
L 328.49375 173.710467 
L 334.07375 172.142154 
L 339.65375 170.573841 
L 345.23375 169.005527 
L 350.81375 167.437214 
L 356.39375 165.868901 
L 361.97375 164.300588 
L 367.55375 162.732274 
L 373.13375 161.163961 
L 378.71375 159.595648 
L 384.29375 158.027335 
L 389.87375 156.459021 
L 395.45375 154.890708 
L 401.03375 153.322395 
L 406.61375 151.754082 
L 412.19375 150.185768 
L 417.77375 148.617455 
L 423.35375 147.049142 
L 428.93375 145.480829 
L 434.51375 143.912515 
L 440.09375 142.344202 
L 445.67375 140.775889 
L 451.25375 139.207575 
L 456.83375 137.639262 
L 462.41375 136.070949 
L 467.99375 134.502636 
L 473.57375 132.934322 
L 479.15375 131.366009 
L 484.73375 129.797696 
L 490.31375 128.229383 
L 495.89375 126.661069 
L 501.47375 125.092756 
L 507.05375 123.524443 
L 512.63375 121.95613 
L 518.21375 120.387816 
L 523.79375 118.819503 
L 529.37375 117.25119 
L 534.95375 115.682877 
L 540.53375 114.114563 
L 546.11375 112.54625 
L 551.69375 110.977937 
L 557.27375 109.409624 
L 562.85375 107.84131 
L 568.43375 106.272997 
L 574.01375 104.704684 
L 579.59375 103.136371 
L 585.17375 101.568057 
L 590.75375 99.999744 
L 596.33375 98.431431 
" style="fill:none;stroke:#ff4724;stroke-linecap:square;stroke-opacity:0.5;stroke-width:2;"/>
   </g>
   <g id="line2d_22">
    <path clip-path="url(#p807f07e34d)" d="M 38.33375 255.258774 
L 43.91375 253.687663 
L 49.49375 252.116553 
L 55.07375 250.545442 
L 60.65375 248.974332 
L 66.23375 247.403221 
L 71.81375 245.83211 
L 77.39375 244.261 
L 82.97375 242.689889 
L 88.55375 241.118779 
L 94.13375 239.547668 
L 99.71375 237.976558 
L 105.29375 236.405447 
L 110.87375 234.834337 
L 116.45375 233.263226 
L 122.03375 231.692116 
L 127.61375 230.121005 
L 133.19375 228.549894 
L 138.77375 226.978784 
L 144.35375 225.407673 
L 149.93375 223.836563 
L 155.51375 222.265452 
L 161.09375 220.694342 
L 166.67375 219.123231 
L 172.25375 217.552121 
L 177.83375 215.98101 
L 183.41375 214.409899 
L 188.99375 212.838789 
L 194.57375 211.267678 
L 200.15375 209.696568 
L 205.73375 208.125457 
L 211.31375 206.554347 
L 216.89375 204.983236 
L 222.47375 203.412126 
L 228.05375 201.841015 
L 233.63375 200.269904 
L 239.21375 198.698794 
L 244.79375 197.127683 
L 250.37375 195.556573 
L 255.95375 193.985462 
L 261.53375 192.414352 
L 267.11375 190.843241 
L 272.69375 189.272131 
L 278.27375 187.70102 
L 283.85375 186.129909 
L 289.43375 184.558799 
L 295.01375 182.987688 
L 300.59375 181.416578 
L 306.17375 179.845467 
L 311.75375 178.274357 
L 317.33375 176.703246 
L 322.91375 175.132136 
L 328.49375 173.561025 
L 334.07375 171.989914 
L 339.65375 170.418804 
L 345.23375 168.847693 
L 350.81375 167.276583 
L 356.39375 165.705472 
L 361.97375 164.134362 
L 367.55375 162.563251 
L 373.13375 160.992141 
L 378.71375 159.42103 
L 384.29375 157.84992 
L 389.87375 156.278809 
L 395.45375 154.707698 
L 401.03375 153.136588 
L 406.61375 151.565477 
L 412.19375 149.994367 
L 417.77375 148.423256 
L 423.35375 146.852146 
L 428.93375 145.281035 
L 434.51375 143.709925 
L 440.09375 142.138814 
L 445.67375 140.567703 
L 451.25375 138.996593 
L 456.83375 137.425482 
L 462.41375 135.854372 
L 467.99375 134.283261 
L 473.57375 132.712151 
L 479.15375 131.14104 
L 484.73375 129.56993 
L 490.31375 127.998819 
L 495.89375 126.427708 
L 501.47375 124.856598 
L 507.05375 123.285487 
L 512.63375 121.714377 
L 518.21375 120.143266 
L 523.79375 118.572156 
L 529.37375 117.001045 
L 534.95375 115.429935 
L 540.53375 113.858824 
L 546.11375 112.287713 
L 551.69375 110.716603 
L 557.27375 109.145492 
L 562.85375 107.574382 
L 568.43375 106.003271 
L 574.01375 104.432161 
L 579.59375 102.86105 
L 585.17375 101.28994 
L 590.75375 99.718829 
L 596.33375 98.147718 
" style="fill:none;stroke:#ff0000;stroke-linecap:square;stroke-opacity:0.5;stroke-width:2;"/>
   </g>
   <g id="patch_3">
    <path d="M 38.33375 287.439375 
L 38.33375 10.239375 
" style="fill:none;stroke:#000000;stroke-linecap:square;stroke-linejoin:miter;stroke-width:0.8;"/>
   </g>
   <g id="patch_4">
    <path d="M 596.33375 287.439375 
L 596.33375 10.239375 
" style="fill:none;stroke:#000000;stroke-linecap:square;stroke-linejoin:miter;stroke-width:0.8;"/>
   </g>
   <g id="patch_5">
    <path d="M 38.33375 287.439375 
L 596.33375 287.439375 
" style="fill:none;stroke:#000000;stroke-linecap:square;stroke-linejoin:miter;stroke-width:0.8;"/>
   </g>
   <g id="patch_6">
    <path d="M 38.33375 10.239375 
L 596.33375 10.239375 
" style="fill:none;stroke:#000000;stroke-linecap:square;stroke-linejoin:miter;stroke-width:0.8;"/>
   </g>
   <g id="PathCollection_1">
    <defs>
     <path d="M 0 2.236068 
C 0.593012 2.236068 1.161816 2.000462 1.581139 1.581139 
C 2.000462 1.161816 2.236068 0.593012 2.236068 0 
C 2.236068 -0.593012 2.000462 -1.161816 1.581139 -1.581139 
C 1.161816 -2.000462 0.593012 -2.236068 0 -2.236068 
C -0.593012 -2.236068 -1.161816 -2.000462 -1.581139 -1.581139 
C -2.000462 -1.161816 -2.236068 -0.593012 -2.236068 0 
C -2.236068 0.593012 -2.000462 1.161816 -1.581139 1.581139 
C -1.161816 2.000462 -0.593012 2.236068 0 2.236068 
z
" id="me128e88bff" style="stroke:#000000;"/>
    </defs>
    <g clip-path="url(#p807f07e34d)">
     <use style="fill:#8000ff;stroke:#000000;" x="593.54375" xlink:href="#me128e88bff" y="210.829496"/>
    </g>
   </g>
   <g id="PathCollection_2">
    <defs>
     <path d="M 0 2.236068 
C 0.593012 2.236068 1.161816 2.000462 1.581139 1.581139 
C 2.000462 1.161816 2.236068 0.593012 2.236068 0 
C 2.236068 -0.593012 2.000462 -1.161816 1.581139 -1.581139 
C 1.161816 -2.000462 0.593012 -2.236068 0 -2.236068 
C -0.593012 -2.236068 -1.161816 -2.000462 -1.581139 -1.581139 
C -2.000462 -1.161816 -2.236068 -0.593012 -2.236068 0 
C -2.236068 0.593012 -2.000462 1.161816 -1.581139 1.581139 
C -1.161816 2.000462 -0.593012 2.236068 0 2.236068 
z
" id="mda49464e3c" style="stroke:#000000;"/>
    </defs>
    <g clip-path="url(#p807f07e34d)">
     <use style="fill:#5247fc;stroke:#000000;" x="593.54375" xlink:href="#mda49464e3c" y="169.831243"/>
    </g>
   </g>
   <g id="PathCollection_3">
    <defs>
     <path d="M 0 2.236068 
C 0.593012 2.236068 1.161816 2.000462 1.581139 1.581139 
C 2.000462 1.161816 2.236068 0.593012 2.236068 0 
C 2.236068 -0.593012 2.000462 -1.161816 1.581139 -1.581139 
C 1.161816 -2.000462 0.593012 -2.236068 0 -2.236068 
C -0.593012 -2.236068 -1.161816 -2.000462 -1.581139 -1.581139 
C -2.000462 -1.161816 -2.236068 -0.593012 -2.236068 0 
C -2.236068 0.593012 -2.000462 1.161816 -1.581139 1.581139 
C -1.161816 2.000462 -0.593012 2.236068 0 2.236068 
z
" id="m92b1a4cd64" style="stroke:#000000;"/>
    </defs>
    <g clip-path="url(#p807f07e34d)">
     <use style="fill:#2489f5;stroke:#000000;" x="593.54375" xlink:href="#m92b1a4cd64" y="166.104314"/>
    </g>
   </g>
   <g id="PathCollection_4">
    <defs>
     <path d="M 0 2.236068 
C 0.593012 2.236068 1.161816 2.000462 1.581139 1.581139 
C 2.000462 1.161816 2.236068 0.593012 2.236068 0 
C 2.236068 -0.593012 2.000462 -1.161816 1.581139 -1.581139 
C 1.161816 -2.000462 0.593012 -2.236068 0 -2.236068 
C -0.593012 -2.236068 -1.161816 -2.000462 -1.581139 -1.581139 
C -2.000462 -1.161816 -2.236068 -0.593012 -2.236068 0 
C -2.236068 0.593012 -2.000462 1.161816 -1.581139 1.581139 
C -1.161816 2.000462 -0.593012 2.236068 0 2.236068 
z
" id="m5286bf540b" style="stroke:#000000;"/>
    </defs>
    <g clip-path="url(#p807f07e34d)">
     <use style="fill:#0ac0e8;stroke:#000000;" x="593.54375" xlink:href="#m5286bf540b" y="155.374145"/>
    </g>
   </g>
   <g id="PathCollection_5">
    <defs>
     <path d="M 0 2.236068 
C 0.593012 2.236068 1.161816 2.000462 1.581139 1.581139 
C 2.000462 1.161816 2.236068 0.593012 2.236068 0 
C 2.236068 -0.593012 2.000462 -1.161816 1.581139 -1.581139 
C 1.161816 -2.000462 0.593012 -2.236068 0 -2.236068 
C -0.593012 -2.236068 -1.161816 -2.000462 -1.581139 -1.581139 
C -2.000462 -1.161816 -2.236068 -0.593012 -2.236068 0 
C -2.236068 0.593012 -2.000462 1.161816 -1.581139 1.581139 
C -1.161816 2.000462 -0.593012 2.236068 0 2.236068 
z
" id="m17b48770f0" style="stroke:#000000;"/>
    </defs>
    <g clip-path="url(#p807f07e34d)">
     <use style="fill:#3ae8d6;stroke:#000000;" x="593.54375" xlink:href="#m17b48770f0" y="145.050362"/>
    </g>
   </g>
   <g id="PathCollection_6">
    <defs>
     <path d="M 0 2.236068 
C 0.593012 2.236068 1.161816 2.000462 1.581139 1.581139 
C 2.000462 1.161816 2.236068 0.593012 2.236068 0 
C 2.236068 -0.593012 2.000462 -1.161816 1.581139 -1.581139 
C 1.161816 -2.000462 0.593012 -2.236068 0 -2.236068 
C -0.593012 -2.236068 -1.161816 -2.000462 -1.581139 -1.581139 
C -2.000462 -1.161816 -2.236068 -0.593012 -2.236068 0 
C -2.236068 0.593012 -2.000462 1.161816 -1.581139 1.581139 
C -1.161816 2.000462 -0.593012 2.236068 0 2.236068 
z
" id="m1f4edc24d8" style="stroke:#000000;"/>
    </defs>
    <g clip-path="url(#p807f07e34d)">
     <use style="fill:#68fcc1;stroke:#000000;" x="593.54375" xlink:href="#m1f4edc24d8" y="138.610369"/>
    </g>
   </g>
   <g id="PathCollection_7">
    <defs>
     <path d="M 0 2.236068 
C 0.593012 2.236068 1.161816 2.000462 1.581139 1.581139 
C 2.000462 1.161816 2.236068 0.593012 2.236068 0 
C 2.236068 -0.593012 2.000462 -1.161816 1.581139 -1.581139 
C 1.161816 -2.000462 0.593012 -2.236068 0 -2.236068 
C -0.593012 -2.236068 -1.161816 -2.000462 -1.581139 -1.581139 
C -2.000462 -1.161816 -2.236068 -0.593012 -2.236068 0 
C -2.236068 0.593012 -2.000462 1.161816 -1.581139 1.581139 
C -1.161816 2.000462 -0.593012 2.236068 0 2.236068 
z
" id="m594ac8314c" style="stroke:#000000;"/>
    </defs>
    <g clip-path="url(#p807f07e34d)">
     <use style="fill:#96fca7;stroke:#000000;" x="593.54375" xlink:href="#m594ac8314c" y="133.31245"/>
    </g>
   </g>
   <g id="PathCollection_8">
    <defs>
     <path d="M 0 2.236068 
C 0.593012 2.236068 1.161816 2.000462 1.581139 1.581139 
C 2.000462 1.161816 2.236068 0.593012 2.236068 0 
C 2.236068 -0.593012 2.000462 -1.161816 1.581139 -1.581139 
C 1.161816 -2.000462 0.593012 -2.236068 0 -2.236068 
C -0.593012 -2.236068 -1.161816 -2.000462 -1.581139 -1.581139 
C -2.000462 -1.161816 -2.236068 -0.593012 -2.236068 0 
C -2.236068 0.593012 -2.000462 1.161816 -1.581139 1.581139 
C -1.161816 2.000462 -0.593012 2.236068 0 2.236068 
z
" id="mfbbfdcfad1" style="stroke:#000000;"/>
    </defs>
    <g clip-path="url(#p807f07e34d)">
     <use style="fill:#c4e88a;stroke:#000000;" x="593.54375" xlink:href="#mfbbfdcfad1" y="131.192179"/>
    </g>
   </g>
   <g id="PathCollection_9">
    <defs>
     <path d="M 0 2.236068 
C 0.593012 2.236068 1.161816 2.000462 1.581139 1.581139 
C 2.000462 1.161816 2.236068 0.593012 2.236068 0 
C 2.236068 -0.593012 2.000462 -1.161816 1.581139 -1.581139 
C 1.161816 -2.000462 0.593012 -2.236068 0 -2.236068 
C -0.593012 -2.236068 -1.161816 -2.000462 -1.581139 -1.581139 
C -2.000462 -1.161816 -2.236068 -0.593012 -2.236068 0 
C -2.236068 0.593012 -2.000462 1.161816 -1.581139 1.581139 
C -1.161816 2.000462 -0.593012 2.236068 0 2.236068 
z
" id="mb54ff3b197" style="stroke:#000000;"/>
    </defs>
    <g clip-path="url(#p807f07e34d)">
     <use style="fill:#f4c069;stroke:#000000;" x="593.54375" xlink:href="#mb54ff3b197" y="105.492803"/>
    </g>
   </g>
   <g id="PathCollection_10">
    <defs>
     <path d="M 0 2.236068 
C 0.593012 2.236068 1.161816 2.000462 1.581139 1.581139 
C 2.000462 1.161816 2.236068 0.593012 2.236068 0 
C 2.236068 -0.593012 2.000462 -1.161816 1.581139 -1.581139 
C 1.161816 -2.000462 0.593012 -2.236068 0 -2.236068 
C -0.593012 -2.236068 -1.161816 -2.000462 -1.581139 -1.581139 
C -2.000462 -1.161816 -2.236068 -0.593012 -2.236068 0 
C -2.236068 0.593012 -2.000462 1.161816 -1.581139 1.581139 
C -1.161816 2.000462 -0.593012 2.236068 0 2.236068 
z
" id="m643330b63f" style="stroke:#000000;"/>
    </defs>
    <g clip-path="url(#p807f07e34d)">
     <use style="fill:#ff8947;stroke:#000000;" x="593.54375" xlink:href="#m643330b63f" y="99.682095"/>
    </g>
   </g>
   <g id="PathCollection_11">
    <defs>
     <path d="M 0 2.236068 
C 0.593012 2.236068 1.161816 2.000462 1.581139 1.581139 
C 2.000462 1.161816 2.236068 0.593012 2.236068 0 
C 2.236068 -0.593012 2.000462 -1.161816 1.581139 -1.581139 
C 1.161816 -2.000462 0.593012 -2.236068 0 -2.236068 
C -0.593012 -2.236068 -1.161816 -2.000462 -1.581139 -1.581139 
C -2.000462 -1.161816 -2.236068 -0.593012 -2.236068 0 
C -2.236068 0.593012 -2.000462 1.161816 -1.581139 1.581139 
C -1.161816 2.000462 -0.593012 2.236068 0 2.236068 
z
" id="md339ea2a62" style="stroke:#000000;"/>
    </defs>
    <g clip-path="url(#p807f07e34d)">
     <use style="fill:#ff4724;stroke:#000000;" x="593.54375" xlink:href="#md339ea2a62" y="98.431431"/>
    </g>
   </g>
   <g id="PathCollection_12">
    <defs>
     <path d="M 0 2.236068 
C 0.593012 2.236068 1.161816 2.000462 1.581139 1.581139 
C 2.000462 1.161816 2.236068 0.593012 2.236068 0 
C 2.236068 -0.593012 2.000462 -1.161816 1.581139 -1.581139 
C 1.161816 -2.000462 0.593012 -2.236068 0 -2.236068 
C -0.593012 -2.236068 -1.161816 -2.000462 -1.581139 -1.581139 
C -2.000462 -1.161816 -2.236068 -0.593012 -2.236068 0 
C -2.236068 0.593012 -2.000462 1.161816 -1.581139 1.581139 
C -1.161816 2.000462 -0.593012 2.236068 0 2.236068 
z
" id="ma8ab903f2f" style="stroke:#000000;"/>
    </defs>
    <g clip-path="url(#p807f07e34d)">
     <use style="fill:#ff0000;stroke:#000000;" x="593.54375" xlink:href="#ma8ab903f2f" y="98.147718"/>
    </g>
   </g>
   <g id="legend_1">
    <g id="patch_7">
     <path d="M 43.93375 87.094375 
L 226.62125 87.094375 
Q 228.22125 87.094375 228.22125 85.494375 
L 228.22125 15.839375 
Q 228.22125 14.239375 226.62125 14.239375 
L 43.93375 14.239375 
Q 42.33375 14.239375 42.33375 15.839375 
L 42.33375 85.494375 
Q 42.33375 87.094375 43.93375 87.094375 
z
" style="fill:#ffffff;opacity:0.8;stroke:#cccccc;stroke-linejoin:miter;"/>
    </g>
    <g id="PathCollection_13">
     <g>
      <use style="fill:#8000ff;stroke:#000000;" x="53.53375" xlink:href="#me128e88bff" y="21.418125"/>
     </g>
    </g>
    <g id="text_13">
     <!-- [01]     2.08KB -->
     <defs>
      <path d="M 8.59375 75.984375 
L 29.296875 75.984375 
L 29.296875 69 
L 17.578125 69 
L 17.578125 -6.203125 
L 29.296875 -6.203125 
L 29.296875 -13.1875 
L 8.59375 -13.1875 
z
" id="DejaVuSans-91"/>
      <path d="M 30.421875 75.984375 
L 30.421875 -13.1875 
L 9.71875 -13.1875 
L 9.71875 -6.203125 
L 21.390625 -6.203125 
L 21.390625 69 
L 9.71875 69 
L 9.71875 75.984375 
z
" id="DejaVuSans-93"/>
      <path d="M 10.6875 12.40625 
L 21 12.40625 
L 21 0 
L 10.6875 0 
z
" id="DejaVuSans-46"/>
      <path d="M 31.78125 34.625 
Q 24.75 34.625 20.71875 30.859375 
Q 16.703125 27.09375 16.703125 20.515625 
Q 16.703125 13.921875 20.71875 10.15625 
Q 24.75 6.390625 31.78125 6.390625 
Q 38.8125 6.390625 42.859375 10.171875 
Q 46.921875 13.96875 46.921875 20.515625 
Q 46.921875 27.09375 42.890625 30.859375 
Q 38.875 34.625 31.78125 34.625 
z
M 21.921875 38.8125 
Q 15.578125 40.375 12.03125 44.71875 
Q 8.5 49.078125 8.5 55.328125 
Q 8.5 64.0625 14.71875 69.140625 
Q 20.953125 74.21875 31.78125 74.21875 
Q 42.671875 74.21875 48.875 69.140625 
Q 55.078125 64.0625 55.078125 55.328125 
Q 55.078125 49.078125 51.53125 44.71875 
Q 48 40.375 41.703125 38.8125 
Q 48.828125 37.15625 52.796875 32.3125 
Q 56.78125 27.484375 56.78125 20.515625 
Q 56.78125 9.90625 50.3125 4.234375 
Q 43.84375 -1.421875 31.78125 -1.421875 
Q 19.734375 -1.421875 13.25 4.234375 
Q 6.78125 9.90625 6.78125 20.515625 
Q 6.78125 27.484375 10.78125 32.3125 
Q 14.796875 37.15625 21.921875 38.8125 
z
M 18.3125 54.390625 
Q 18.3125 48.734375 21.84375 45.5625 
Q 25.390625 42.390625 31.78125 42.390625 
Q 38.140625 42.390625 41.71875 45.5625 
Q 45.3125 48.734375 45.3125 54.390625 
Q 45.3125 60.0625 41.71875 63.234375 
Q 38.140625 66.40625 31.78125 66.40625 
Q 25.390625 66.40625 21.84375 63.234375 
Q 18.3125 60.0625 18.3125 54.390625 
z
" id="DejaVuSans-56"/>
     </defs>
     <g transform="translate(67.93375 23.518125)scale(0.08 -0.08)">
      <use xlink:href="#DejaVuSans-91"/>
      <use x="39.013672" xlink:href="#DejaVuSans-48"/>
      <use x="102.636719" xlink:href="#DejaVuSans-49"/>
      <use x="166.259766" xlink:href="#DejaVuSans-93"/>
      <use x="205.273438" xlink:href="#DejaVuSans-32"/>
      <use x="237.060547" xlink:href="#DejaVuSans-32"/>
      <use x="268.847656" xlink:href="#DejaVuSans-32"/>
      <use x="300.634766" xlink:href="#DejaVuSans-32"/>
      <use x="332.421875" xlink:href="#DejaVuSans-32"/>
      <use x="364.208984" xlink:href="#DejaVuSans-50"/>
      <use x="427.832031" xlink:href="#DejaVuSans-46"/>
      <use x="459.619141" xlink:href="#DejaVuSans-48"/>
      <use x="523.242188" xlink:href="#DejaVuSans-56"/>
      <use x="586.865234" xlink:href="#DejaVuSans-75"/>
      <use x="652.441406" xlink:href="#DejaVuSans-66"/>
     </g>
    </g>
    <g id="PathCollection_14">
     <g>
      <use style="fill:#5247fc;stroke:#000000;" x="53.53375" xlink:href="#mda49464e3c" y="33.160625"/>
     </g>
    </g>
    <g id="text_14">
     <!-- [02] 125.44KB -->
     <defs>
      <path d="M 37.796875 64.3125 
L 12.890625 25.390625 
L 37.796875 25.390625 
z
M 35.203125 72.90625 
L 47.609375 72.90625 
L 47.609375 25.390625 
L 58.015625 25.390625 
L 58.015625 17.1875 
L 47.609375 17.1875 
L 47.609375 0 
L 37.796875 0 
L 37.796875 17.1875 
L 4.890625 17.1875 
L 4.890625 26.703125 
z
" id="DejaVuSans-52"/>
     </defs>
     <g transform="translate(67.93375 35.260625)scale(0.08 -0.08)">
      <use xlink:href="#DejaVuSans-91"/>
      <use x="39.013672" xlink:href="#DejaVuSans-48"/>
      <use x="102.636719" xlink:href="#DejaVuSans-50"/>
      <use x="166.259766" xlink:href="#DejaVuSans-93"/>
      <use x="205.273438" xlink:href="#DejaVuSans-32"/>
      <use x="237.060547" xlink:href="#DejaVuSans-49"/>
      <use x="300.683594" xlink:href="#DejaVuSans-50"/>
      <use x="364.306641" xlink:href="#DejaVuSans-53"/>
      <use x="427.929688" xlink:href="#DejaVuSans-46"/>
      <use x="459.716797" xlink:href="#DejaVuSans-52"/>
      <use x="523.339844" xlink:href="#DejaVuSans-52"/>
      <use x="586.962891" xlink:href="#DejaVuSans-75"/>
      <use x="652.539062" xlink:href="#DejaVuSans-66"/>
     </g>
    </g>
    <g id="PathCollection_15">
     <g>
      <use style="fill:#2489f5;stroke:#000000;" x="53.53375" xlink:href="#m92b1a4cd64" y="44.903125"/>
     </g>
    </g>
    <g id="text_15">
     <!-- [03] 182.11KB -->
     <defs>
      <path d="M 40.578125 39.3125 
Q 47.65625 37.796875 51.625 33 
Q 55.609375 28.21875 55.609375 21.1875 
Q 55.609375 10.40625 48.1875 4.484375 
Q 40.765625 -1.421875 27.09375 -1.421875 
Q 22.515625 -1.421875 17.65625 -0.515625 
Q 12.796875 0.390625 7.625 2.203125 
L 7.625 11.71875 
Q 11.71875 9.328125 16.59375 8.109375 
Q 21.484375 6.890625 26.8125 6.890625 
Q 36.078125 6.890625 40.9375 10.546875 
Q 45.796875 14.203125 45.796875 21.1875 
Q 45.796875 27.640625 41.28125 31.265625 
Q 36.765625 34.90625 28.71875 34.90625 
L 20.21875 34.90625 
L 20.21875 43.015625 
L 29.109375 43.015625 
Q 36.375 43.015625 40.234375 45.921875 
Q 44.09375 48.828125 44.09375 54.296875 
Q 44.09375 59.90625 40.109375 62.90625 
Q 36.140625 65.921875 28.71875 65.921875 
Q 24.65625 65.921875 20.015625 65.03125 
Q 15.375 64.15625 9.8125 62.3125 
L 9.8125 71.09375 
Q 15.4375 72.65625 20.34375 73.4375 
Q 25.25 74.21875 29.59375 74.21875 
Q 40.828125 74.21875 47.359375 69.109375 
Q 53.90625 64.015625 53.90625 55.328125 
Q 53.90625 49.265625 50.4375 45.09375 
Q 46.96875 40.921875 40.578125 39.3125 
z
" id="DejaVuSans-51"/>
     </defs>
     <g transform="translate(67.93375 47.003125)scale(0.08 -0.08)">
      <use xlink:href="#DejaVuSans-91"/>
      <use x="39.013672" xlink:href="#DejaVuSans-48"/>
      <use x="102.636719" xlink:href="#DejaVuSans-51"/>
      <use x="166.259766" xlink:href="#DejaVuSans-93"/>
      <use x="205.273438" xlink:href="#DejaVuSans-32"/>
      <use x="237.060547" xlink:href="#DejaVuSans-49"/>
      <use x="300.683594" xlink:href="#DejaVuSans-56"/>
      <use x="364.306641" xlink:href="#DejaVuSans-50"/>
      <use x="427.929688" xlink:href="#DejaVuSans-46"/>
      <use x="459.716797" xlink:href="#DejaVuSans-49"/>
      <use x="523.339844" xlink:href="#DejaVuSans-49"/>
      <use x="586.962891" xlink:href="#DejaVuSans-75"/>
      <use x="652.539062" xlink:href="#DejaVuSans-66"/>
     </g>
    </g>
    <g id="PathCollection_16">
     <g>
      <use style="fill:#0ac0e8;stroke:#000000;" x="53.53375" xlink:href="#m5286bf540b" y="56.645625"/>
     </g>
    </g>
    <g id="text_16">
     <!-- [04] 532.65KB -->
     <defs>
      <path d="M 33.015625 40.375 
Q 26.375 40.375 22.484375 35.828125 
Q 18.609375 31.296875 18.609375 23.390625 
Q 18.609375 15.53125 22.484375 10.953125 
Q 26.375 6.390625 33.015625 6.390625 
Q 39.65625 6.390625 43.53125 10.953125 
Q 47.40625 15.53125 47.40625 23.390625 
Q 47.40625 31.296875 43.53125 35.828125 
Q 39.65625 40.375 33.015625 40.375 
z
M 52.59375 71.296875 
L 52.59375 62.3125 
Q 48.875 64.0625 45.09375 64.984375 
Q 41.3125 65.921875 37.59375 65.921875 
Q 27.828125 65.921875 22.671875 59.328125 
Q 17.53125 52.734375 16.796875 39.40625 
Q 19.671875 43.65625 24.015625 45.921875 
Q 28.375 48.1875 33.59375 48.1875 
Q 44.578125 48.1875 50.953125 41.515625 
Q 57.328125 34.859375 57.328125 23.390625 
Q 57.328125 12.15625 50.6875 5.359375 
Q 44.046875 -1.421875 33.015625 -1.421875 
Q 20.359375 -1.421875 13.671875 8.265625 
Q 6.984375 17.96875 6.984375 36.375 
Q 6.984375 53.65625 15.1875 63.9375 
Q 23.390625 74.21875 37.203125 74.21875 
Q 40.921875 74.21875 44.703125 73.484375 
Q 48.484375 72.75 52.59375 71.296875 
z
" id="DejaVuSans-54"/>
     </defs>
     <g transform="translate(67.93375 58.745625)scale(0.08 -0.08)">
      <use xlink:href="#DejaVuSans-91"/>
      <use x="39.013672" xlink:href="#DejaVuSans-48"/>
      <use x="102.636719" xlink:href="#DejaVuSans-52"/>
      <use x="166.259766" xlink:href="#DejaVuSans-93"/>
      <use x="205.273438" xlink:href="#DejaVuSans-32"/>
      <use x="237.060547" xlink:href="#DejaVuSans-53"/>
      <use x="300.683594" xlink:href="#DejaVuSans-51"/>
      <use x="364.306641" xlink:href="#DejaVuSans-50"/>
      <use x="427.929688" xlink:href="#DejaVuSans-46"/>
      <use x="459.716797" xlink:href="#DejaVuSans-54"/>
      <use x="523.339844" xlink:href="#DejaVuSans-53"/>
      <use x="586.962891" xlink:href="#DejaVuSans-75"/>
      <use x="652.539062" xlink:href="#DejaVuSans-66"/>
     </g>
    </g>
    <g id="PathCollection_17">
     <g>
      <use style="fill:#3ae8d6;stroke:#000000;" x="53.53375" xlink:href="#m17b48770f0" y="68.388125"/>
     </g>
    </g>
    <g id="text_17">
     <!-- [05]     1.46MB -->
     <g transform="translate(67.93375 70.488125)scale(0.08 -0.08)">
      <use xlink:href="#DejaVuSans-91"/>
      <use x="39.013672" xlink:href="#DejaVuSans-48"/>
      <use x="102.636719" xlink:href="#DejaVuSans-53"/>
      <use x="166.259766" xlink:href="#DejaVuSans-93"/>
      <use x="205.273438" xlink:href="#DejaVuSans-32"/>
      <use x="237.060547" xlink:href="#DejaVuSans-32"/>
      <use x="268.847656" xlink:href="#DejaVuSans-32"/>
      <use x="300.634766" xlink:href="#DejaVuSans-32"/>
      <use x="332.421875" xlink:href="#DejaVuSans-32"/>
      <use x="364.208984" xlink:href="#DejaVuSans-49"/>
      <use x="427.832031" xlink:href="#DejaVuSans-46"/>
      <use x="459.619141" xlink:href="#DejaVuSans-52"/>
      <use x="523.242188" xlink:href="#DejaVuSans-54"/>
      <use x="586.865234" xlink:href="#DejaVuSans-77"/>
      <use x="673.144531" xlink:href="#DejaVuSans-66"/>
     </g>
    </g>
    <g id="PathCollection_18">
     <g>
      <use style="fill:#68fcc1;stroke:#000000;" x="53.53375" xlink:href="#m1f4edc24d8" y="80.130625"/>
     </g>
    </g>
    <g id="text_18">
     <!-- [06]     2.78MB -->
     <g transform="translate(67.93375 82.230625)scale(0.08 -0.08)">
      <use xlink:href="#DejaVuSans-91"/>
      <use x="39.013672" xlink:href="#DejaVuSans-48"/>
      <use x="102.636719" xlink:href="#DejaVuSans-54"/>
      <use x="166.259766" xlink:href="#DejaVuSans-93"/>
      <use x="205.273438" xlink:href="#DejaVuSans-32"/>
      <use x="237.060547" xlink:href="#DejaVuSans-32"/>
      <use x="268.847656" xlink:href="#DejaVuSans-32"/>
      <use x="300.634766" xlink:href="#DejaVuSans-32"/>
      <use x="332.421875" xlink:href="#DejaVuSans-32"/>
      <use x="364.208984" xlink:href="#DejaVuSans-50"/>
      <use x="427.832031" xlink:href="#DejaVuSans-46"/>
      <use x="459.619141" xlink:href="#DejaVuSans-55"/>
      <use x="523.242188" xlink:href="#DejaVuSans-56"/>
      <use x="586.865234" xlink:href="#DejaVuSans-77"/>
      <use x="673.144531" xlink:href="#DejaVuSans-66"/>
     </g>
    </g>
    <g id="PathCollection_19">
     <g>
      <use style="fill:#96fca7;stroke:#000000;" x="151.2725" xlink:href="#m594ac8314c" y="21.418125"/>
     </g>
    </g>
    <g id="text_19">
     <!-- [07]     4.73MB -->
     <g transform="translate(165.6725 23.518125)scale(0.08 -0.08)">
      <use xlink:href="#DejaVuSans-91"/>
      <use x="39.013672" xlink:href="#DejaVuSans-48"/>
      <use x="102.636719" xlink:href="#DejaVuSans-55"/>
      <use x="166.259766" xlink:href="#DejaVuSans-93"/>
      <use x="205.273438" xlink:href="#DejaVuSans-32"/>
      <use x="237.060547" xlink:href="#DejaVuSans-32"/>
      <use x="268.847656" xlink:href="#DejaVuSans-32"/>
      <use x="300.634766" xlink:href="#DejaVuSans-32"/>
      <use x="332.421875" xlink:href="#DejaVuSans-32"/>
      <use x="364.208984" xlink:href="#DejaVuSans-52"/>
      <use x="427.832031" xlink:href="#DejaVuSans-46"/>
      <use x="459.619141" xlink:href="#DejaVuSans-55"/>
      <use x="523.242188" xlink:href="#DejaVuSans-51"/>
      <use x="586.865234" xlink:href="#DejaVuSans-77"/>
      <use x="673.144531" xlink:href="#DejaVuSans-66"/>
     </g>
    </g>
    <g id="PathCollection_20">
     <g>
      <use style="fill:#c4e88a;stroke:#000000;" x="151.2725" xlink:href="#mfbbfdcfad1" y="33.160625"/>
     </g>
    </g>
    <g id="text_20">
     <!-- [08]     5.84MB -->
     <g transform="translate(165.6725 35.260625)scale(0.08 -0.08)">
      <use xlink:href="#DejaVuSans-91"/>
      <use x="39.013672" xlink:href="#DejaVuSans-48"/>
      <use x="102.636719" xlink:href="#DejaVuSans-56"/>
      <use x="166.259766" xlink:href="#DejaVuSans-93"/>
      <use x="205.273438" xlink:href="#DejaVuSans-32"/>
      <use x="237.060547" xlink:href="#DejaVuSans-32"/>
      <use x="268.847656" xlink:href="#DejaVuSans-32"/>
      <use x="300.634766" xlink:href="#DejaVuSans-32"/>
      <use x="332.421875" xlink:href="#DejaVuSans-32"/>
      <use x="364.208984" xlink:href="#DejaVuSans-53"/>
      <use x="427.832031" xlink:href="#DejaVuSans-46"/>
      <use x="459.619141" xlink:href="#DejaVuSans-56"/>
      <use x="523.242188" xlink:href="#DejaVuSans-52"/>
      <use x="586.865234" xlink:href="#DejaVuSans-77"/>
      <use x="673.144531" xlink:href="#DejaVuSans-66"/>
     </g>
    </g>
    <g id="PathCollection_21">
     <g>
      <use style="fill:#f4c069;stroke:#000000;" x="151.2725" xlink:href="#mb54ff3b197" y="44.903125"/>
     </g>
    </g>
    <g id="text_21">
     <!-- [09]   76.37MB -->
     <defs>
      <path d="M 10.984375 1.515625 
L 10.984375 10.5 
Q 14.703125 8.734375 18.5 7.8125 
Q 22.3125 6.890625 25.984375 6.890625 
Q 35.75 6.890625 40.890625 13.453125 
Q 46.046875 20.015625 46.78125 33.40625 
Q 43.953125 29.203125 39.59375 26.953125 
Q 35.25 24.703125 29.984375 24.703125 
Q 19.046875 24.703125 12.671875 31.3125 
Q 6.296875 37.9375 6.296875 49.421875 
Q 6.296875 60.640625 12.9375 67.421875 
Q 19.578125 74.21875 30.609375 74.21875 
Q 43.265625 74.21875 49.921875 64.515625 
Q 56.59375 54.828125 56.59375 36.375 
Q 56.59375 19.140625 48.40625 8.859375 
Q 40.234375 -1.421875 26.421875 -1.421875 
Q 22.703125 -1.421875 18.890625 -0.6875 
Q 15.09375 0.046875 10.984375 1.515625 
z
M 30.609375 32.421875 
Q 37.25 32.421875 41.125 36.953125 
Q 45.015625 41.5 45.015625 49.421875 
Q 45.015625 57.28125 41.125 61.84375 
Q 37.25 66.40625 30.609375 66.40625 
Q 23.96875 66.40625 20.09375 61.84375 
Q 16.21875 57.28125 16.21875 49.421875 
Q 16.21875 41.5 20.09375 36.953125 
Q 23.96875 32.421875 30.609375 32.421875 
z
" id="DejaVuSans-57"/>
     </defs>
     <g transform="translate(165.6725 47.003125)scale(0.08 -0.08)">
      <use xlink:href="#DejaVuSans-91"/>
      <use x="39.013672" xlink:href="#DejaVuSans-48"/>
      <use x="102.636719" xlink:href="#DejaVuSans-57"/>
      <use x="166.259766" xlink:href="#DejaVuSans-93"/>
      <use x="205.273438" xlink:href="#DejaVuSans-32"/>
      <use x="237.060547" xlink:href="#DejaVuSans-32"/>
      <use x="268.847656" xlink:href="#DejaVuSans-32"/>
      <use x="300.634766" xlink:href="#DejaVuSans-55"/>
      <use x="364.257812" xlink:href="#DejaVuSans-54"/>
      <use x="427.880859" xlink:href="#DejaVuSans-46"/>
      <use x="459.667969" xlink:href="#DejaVuSans-51"/>
      <use x="523.291016" xlink:href="#DejaVuSans-55"/>
      <use x="586.914062" xlink:href="#DejaVuSans-77"/>
      <use x="673.193359" xlink:href="#DejaVuSans-66"/>
     </g>
    </g>
    <g id="PathCollection_22">
     <g>
      <use style="fill:#ff8947;stroke:#000000;" x="151.2725" xlink:href="#m643330b63f" y="56.645625"/>
     </g>
    </g>
    <g id="text_22">
     <!-- [10] 136.56MB -->
     <g transform="translate(165.6725 58.745625)scale(0.08 -0.08)">
      <use xlink:href="#DejaVuSans-91"/>
      <use x="39.013672" xlink:href="#DejaVuSans-49"/>
      <use x="102.636719" xlink:href="#DejaVuSans-48"/>
      <use x="166.259766" xlink:href="#DejaVuSans-93"/>
      <use x="205.273438" xlink:href="#DejaVuSans-32"/>
      <use x="237.060547" xlink:href="#DejaVuSans-49"/>
      <use x="300.683594" xlink:href="#DejaVuSans-51"/>
      <use x="364.306641" xlink:href="#DejaVuSans-54"/>
      <use x="427.929688" xlink:href="#DejaVuSans-46"/>
      <use x="459.716797" xlink:href="#DejaVuSans-53"/>
      <use x="523.339844" xlink:href="#DejaVuSans-54"/>
      <use x="586.962891" xlink:href="#DejaVuSans-77"/>
      <use x="673.242188" xlink:href="#DejaVuSans-66"/>
     </g>
    </g>
    <g id="PathCollection_23">
     <g>
      <use style="fill:#ff4724;stroke:#000000;" x="151.2725" xlink:href="#md339ea2a62" y="68.388125"/>
     </g>
    </g>
    <g id="text_23">
     <!-- [11] 154.76MB -->
     <g transform="translate(165.6725 70.488125)scale(0.08 -0.08)">
      <use xlink:href="#DejaVuSans-91"/>
      <use x="39.013672" xlink:href="#DejaVuSans-49"/>
      <use x="102.636719" xlink:href="#DejaVuSans-49"/>
      <use x="166.259766" xlink:href="#DejaVuSans-93"/>
      <use x="205.273438" xlink:href="#DejaVuSans-32"/>
      <use x="237.060547" xlink:href="#DejaVuSans-49"/>
      <use x="300.683594" xlink:href="#DejaVuSans-53"/>
      <use x="364.306641" xlink:href="#DejaVuSans-52"/>
      <use x="427.929688" xlink:href="#DejaVuSans-46"/>
      <use x="459.716797" xlink:href="#DejaVuSans-55"/>
      <use x="523.339844" xlink:href="#DejaVuSans-54"/>
      <use x="586.962891" xlink:href="#DejaVuSans-77"/>
      <use x="673.242188" xlink:href="#DejaVuSans-66"/>
     </g>
    </g>
    <g id="PathCollection_24">
     <g>
      <use style="fill:#ff0000;stroke:#000000;" x="151.2725" xlink:href="#ma8ab903f2f" y="80.130625"/>
     </g>
    </g>
    <g id="text_24">
     <!-- [12] 159.21MB -->
     <g transform="translate(165.6725 82.230625)scale(0.08 -0.08)">
      <use xlink:href="#DejaVuSans-91"/>
      <use x="39.013672" xlink:href="#DejaVuSans-49"/>
      <use x="102.636719" xlink:href="#DejaVuSans-50"/>
      <use x="166.259766" xlink:href="#DejaVuSans-93"/>
      <use x="205.273438" xlink:href="#DejaVuSans-32"/>
      <use x="237.060547" xlink:href="#DejaVuSans-49"/>
      <use x="300.683594" xlink:href="#DejaVuSans-53"/>
      <use x="364.306641" xlink:href="#DejaVuSans-57"/>
      <use x="427.929688" xlink:href="#DejaVuSans-46"/>
      <use x="459.716797" xlink:href="#DejaVuSans-50"/>
      <use x="523.339844" xlink:href="#DejaVuSans-49"/>
      <use x="586.962891" xlink:href="#DejaVuSans-77"/>
      <use x="673.242188" xlink:href="#DejaVuSans-66"/>
     </g>
    </g>
   </g>
  </g>
 </g>
 <defs>
  <clipPath id="p807f07e34d">
   <rect height="277.2" width="558" x="38.33375" y="10.239375"/>
  </clipPath>
 </defs>
</svg>
