<?xml version="1.0" encoding="utf-8" standalone="no"?>
<!DOCTYPE svg PUBLIC "-//W3C//DTD SVG 1.1//EN"
  "http://www.w3.org/Graphics/SVG/1.1/DTD/svg11.dtd">
<!-- Created with matplotlib (https://matplotlib.org/) -->
<svg height="487.444375pt" version="1.1" viewBox="0 0 656.731875 487.444375" width="656.731875pt" xmlns="http://www.w3.org/2000/svg" xmlns:xlink="http://www.w3.org/1999/xlink">
 <defs>
  <style type="text/css">
*{stroke-linecap:butt;stroke-linejoin:round;}
  </style>
 </defs>
 <g id="figure_1">
  <g id="patch_1">
   <path d="M 0 487.444375 
L 656.731875 487.444375 
L 656.731875 0 
L 0 0 
z
" style="fill:#ffffff;"/>
  </g>
  <g id="axes_1">
   <g id="patch_2">
    <path d="M 80.09625 453.759375 
L 638.09625 453.759375 
L 638.09625 10.239375 
L 80.09625 10.239375 
z
" style="fill:#ffffff;"/>
   </g>
   <g id="matplotlib.axis_1">
    <g id="xtick_1">
     <g id="line2d_1">
      <defs>
       <path d="M 0 0 
L 0 3.5 
" id="m21e442f303" style="stroke:#000000;stroke-width:0.8;"/>
      </defs>
      <g>
       <use style="stroke:#000000;stroke-width:0.8;" x="80.09625" xlink:href="#m21e442f303" y="453.759375"/>
      </g>
     </g>
     <g id="text_1">
      <!-- 0% -->
      <defs>
       <path d="M 31.78125 66.40625 
Q 24.171875 66.40625 20.328125 58.90625 
Q 16.5 51.421875 16.5 36.375 
Q 16.5 21.390625 20.328125 13.890625 
Q 24.171875 6.390625 31.78125 6.390625 
Q 39.453125 6.390625 43.28125 13.890625 
Q 47.125 21.390625 47.125 36.375 
Q 47.125 51.421875 43.28125 58.90625 
Q 39.453125 66.40625 31.78125 66.40625 
z
M 31.78125 74.21875 
Q 44.046875 74.21875 50.515625 64.515625 
Q 56.984375 54.828125 56.984375 36.375 
Q 56.984375 17.96875 50.515625 8.265625 
Q 44.046875 -1.421875 31.78125 -1.421875 
Q 19.53125 -1.421875 13.0625 8.265625 
Q 6.59375 17.96875 6.59375 36.375 
Q 6.59375 54.828125 13.0625 64.515625 
Q 19.53125 74.21875 31.78125 74.21875 
z
" id="DejaVuSans-48"/>
       <path d="M 72.703125 32.078125 
Q 68.453125 32.078125 66.03125 28.46875 
Q 63.625 24.859375 63.625 18.40625 
Q 63.625 12.0625 66.03125 8.421875 
Q 68.453125 4.78125 72.703125 4.78125 
Q 76.859375 4.78125 79.265625 8.421875 
Q 81.6875 12.0625 81.6875 18.40625 
Q 81.6875 24.8125 79.265625 28.4375 
Q 76.859375 32.078125 72.703125 32.078125 
z
M 72.703125 38.28125 
Q 80.421875 38.28125 84.953125 32.90625 
Q 89.5 27.546875 89.5 18.40625 
Q 89.5 9.28125 84.9375 3.921875 
Q 80.375 -1.421875 72.703125 -1.421875 
Q 64.890625 -1.421875 60.34375 3.921875 
Q 55.8125 9.28125 55.8125 18.40625 
Q 55.8125 27.59375 60.375 32.9375 
Q 64.9375 38.28125 72.703125 38.28125 
z
M 22.3125 68.015625 
Q 18.109375 68.015625 15.6875 64.375 
Q 13.28125 60.75 13.28125 54.390625 
Q 13.28125 47.953125 15.671875 44.328125 
Q 18.0625 40.71875 22.3125 40.71875 
Q 26.5625 40.71875 28.96875 44.328125 
Q 31.390625 47.953125 31.390625 54.390625 
Q 31.390625 60.6875 28.953125 64.34375 
Q 26.515625 68.015625 22.3125 68.015625 
z
M 66.40625 74.21875 
L 74.21875 74.21875 
L 28.609375 -1.421875 
L 20.796875 -1.421875 
z
M 22.3125 74.21875 
Q 30.03125 74.21875 34.609375 68.875 
Q 39.203125 63.53125 39.203125 54.390625 
Q 39.203125 45.171875 34.640625 39.84375 
Q 30.078125 34.515625 22.3125 34.515625 
Q 14.546875 34.515625 10.03125 39.859375 
Q 5.515625 45.21875 5.515625 54.390625 
Q 5.515625 63.484375 10.046875 68.84375 
Q 14.59375 74.21875 22.3125 74.21875 
z
" id="DejaVuSans-37"/>
      </defs>
      <g transform="translate(73.750625 466.838125)scale(0.08 -0.08)">
       <use xlink:href="#DejaVuSans-48"/>
       <use x="63.623047" xlink:href="#DejaVuSans-37"/>
      </g>
     </g>
    </g>
    <g id="xtick_2">
     <g id="line2d_2">
      <g>
       <use style="stroke:#000000;stroke-width:0.8;" x="135.89625" xlink:href="#m21e442f303" y="453.759375"/>
      </g>
     </g>
     <g id="text_2">
      <!-- 10% -->
      <defs>
       <path d="M 12.40625 8.296875 
L 28.515625 8.296875 
L 28.515625 63.921875 
L 10.984375 60.40625 
L 10.984375 69.390625 
L 28.421875 72.90625 
L 38.28125 72.90625 
L 38.28125 8.296875 
L 54.390625 8.296875 
L 54.390625 0 
L 12.40625 0 
z
" id="DejaVuSans-49"/>
      </defs>
      <g transform="translate(127.005625 466.838125)scale(0.08 -0.08)">
       <use xlink:href="#DejaVuSans-49"/>
       <use x="63.623047" xlink:href="#DejaVuSans-48"/>
       <use x="127.246094" xlink:href="#DejaVuSans-37"/>
      </g>
     </g>
    </g>
    <g id="xtick_3">
     <g id="line2d_3">
      <g>
       <use style="stroke:#000000;stroke-width:0.8;" x="191.69625" xlink:href="#m21e442f303" y="453.759375"/>
      </g>
     </g>
     <g id="text_3">
      <!-- 20% -->
      <defs>
       <path d="M 19.1875 8.296875 
L 53.609375 8.296875 
L 53.609375 0 
L 7.328125 0 
L 7.328125 8.296875 
Q 12.9375 14.109375 22.625 23.890625 
Q 32.328125 33.6875 34.8125 36.53125 
Q 39.546875 41.84375 41.421875 45.53125 
Q 43.3125 49.21875 43.3125 52.78125 
Q 43.3125 58.59375 39.234375 62.25 
Q 35.15625 65.921875 28.609375 65.921875 
Q 23.96875 65.921875 18.8125 64.3125 
Q 13.671875 62.703125 7.8125 59.421875 
L 7.8125 69.390625 
Q 13.765625 71.78125 18.9375 73 
Q 24.125 74.21875 28.421875 74.21875 
Q 39.75 74.21875 46.484375 68.546875 
Q 53.21875 62.890625 53.21875 53.421875 
Q 53.21875 48.921875 51.53125 44.890625 
Q 49.859375 40.875 45.40625 35.40625 
Q 44.1875 33.984375 37.640625 27.21875 
Q 31.109375 20.453125 19.1875 8.296875 
z
" id="DejaVuSans-50"/>
      </defs>
      <g transform="translate(182.805625 466.838125)scale(0.08 -0.08)">
       <use xlink:href="#DejaVuSans-50"/>
       <use x="63.623047" xlink:href="#DejaVuSans-48"/>
       <use x="127.246094" xlink:href="#DejaVuSans-37"/>
      </g>
     </g>
    </g>
    <g id="xtick_4">
     <g id="line2d_4">
      <g>
       <use style="stroke:#000000;stroke-width:0.8;" x="247.49625" xlink:href="#m21e442f303" y="453.759375"/>
      </g>
     </g>
     <g id="text_4">
      <!-- 30% -->
      <defs>
       <path d="M 40.578125 39.3125 
Q 47.65625 37.796875 51.625 33 
Q 55.609375 28.21875 55.609375 21.1875 
Q 55.609375 10.40625 48.1875 4.484375 
Q 40.765625 -1.421875 27.09375 -1.421875 
Q 22.515625 -1.421875 17.65625 -0.515625 
Q 12.796875 0.390625 7.625 2.203125 
L 7.625 11.71875 
Q 11.71875 9.328125 16.59375 8.109375 
Q 21.484375 6.890625 26.8125 6.890625 
Q 36.078125 6.890625 40.9375 10.546875 
Q 45.796875 14.203125 45.796875 21.1875 
Q 45.796875 27.640625 41.28125 31.265625 
Q 36.765625 34.90625 28.71875 34.90625 
L 20.21875 34.90625 
L 20.21875 43.015625 
L 29.109375 43.015625 
Q 36.375 43.015625 40.234375 45.921875 
Q 44.09375 48.828125 44.09375 54.296875 
Q 44.09375 59.90625 40.109375 62.90625 
Q 36.140625 65.921875 28.71875 65.921875 
Q 24.65625 65.921875 20.015625 65.03125 
Q 15.375 64.15625 9.8125 62.3125 
L 9.8125 71.09375 
Q 15.4375 72.65625 20.34375 73.4375 
Q 25.25 74.21875 29.59375 74.21875 
Q 40.828125 74.21875 47.359375 69.109375 
Q 53.90625 64.015625 53.90625 55.328125 
Q 53.90625 49.265625 50.4375 45.09375 
Q 46.96875 40.921875 40.578125 39.3125 
z
" id="DejaVuSans-51"/>
      </defs>
      <g transform="translate(238.605625 466.838125)scale(0.08 -0.08)">
       <use xlink:href="#DejaVuSans-51"/>
       <use x="63.623047" xlink:href="#DejaVuSans-48"/>
       <use x="127.246094" xlink:href="#DejaVuSans-37"/>
      </g>
     </g>
    </g>
    <g id="xtick_5">
     <g id="line2d_5">
      <g>
       <use style="stroke:#000000;stroke-width:0.8;" x="303.29625" xlink:href="#m21e442f303" y="453.759375"/>
      </g>
     </g>
     <g id="text_5">
      <!-- 40% -->
      <defs>
       <path d="M 37.796875 64.3125 
L 12.890625 25.390625 
L 37.796875 25.390625 
z
M 35.203125 72.90625 
L 47.609375 72.90625 
L 47.609375 25.390625 
L 58.015625 25.390625 
L 58.015625 17.1875 
L 47.609375 17.1875 
L 47.609375 0 
L 37.796875 0 
L 37.796875 17.1875 
L 4.890625 17.1875 
L 4.890625 26.703125 
z
" id="DejaVuSans-52"/>
      </defs>
      <g transform="translate(294.405625 466.838125)scale(0.08 -0.08)">
       <use xlink:href="#DejaVuSans-52"/>
       <use x="63.623047" xlink:href="#DejaVuSans-48"/>
       <use x="127.246094" xlink:href="#DejaVuSans-37"/>
      </g>
     </g>
    </g>
    <g id="xtick_6">
     <g id="line2d_6">
      <g>
       <use style="stroke:#000000;stroke-width:0.8;" x="359.09625" xlink:href="#m21e442f303" y="453.759375"/>
      </g>
     </g>
     <g id="text_6">
      <!-- 50% -->
      <defs>
       <path d="M 10.796875 72.90625 
L 49.515625 72.90625 
L 49.515625 64.59375 
L 19.828125 64.59375 
L 19.828125 46.734375 
Q 21.96875 47.46875 24.109375 47.828125 
Q 26.265625 48.1875 28.421875 48.1875 
Q 40.625 48.1875 47.75 41.5 
Q 54.890625 34.8125 54.890625 23.390625 
Q 54.890625 11.625 47.5625 5.09375 
Q 40.234375 -1.421875 26.90625 -1.421875 
Q 22.3125 -1.421875 17.546875 -0.640625 
Q 12.796875 0.140625 7.71875 1.703125 
L 7.71875 11.625 
Q 12.109375 9.234375 16.796875 8.0625 
Q 21.484375 6.890625 26.703125 6.890625 
Q 35.15625 6.890625 40.078125 11.328125 
Q 45.015625 15.765625 45.015625 23.390625 
Q 45.015625 31 40.078125 35.4375 
Q 35.15625 39.890625 26.703125 39.890625 
Q 22.75 39.890625 18.8125 39.015625 
Q 14.890625 38.140625 10.796875 36.28125 
z
" id="DejaVuSans-53"/>
      </defs>
      <g transform="translate(350.205625 466.838125)scale(0.08 -0.08)">
       <use xlink:href="#DejaVuSans-53"/>
       <use x="63.623047" xlink:href="#DejaVuSans-48"/>
       <use x="127.246094" xlink:href="#DejaVuSans-37"/>
      </g>
     </g>
    </g>
    <g id="xtick_7">
     <g id="line2d_7">
      <g>
       <use style="stroke:#000000;stroke-width:0.8;" x="414.89625" xlink:href="#m21e442f303" y="453.759375"/>
      </g>
     </g>
     <g id="text_7">
      <!-- 60% -->
      <defs>
       <path d="M 33.015625 40.375 
Q 26.375 40.375 22.484375 35.828125 
Q 18.609375 31.296875 18.609375 23.390625 
Q 18.609375 15.53125 22.484375 10.953125 
Q 26.375 6.390625 33.015625 6.390625 
Q 39.65625 6.390625 43.53125 10.953125 
Q 47.40625 15.53125 47.40625 23.390625 
Q 47.40625 31.296875 43.53125 35.828125 
Q 39.65625 40.375 33.015625 40.375 
z
M 52.59375 71.296875 
L 52.59375 62.3125 
Q 48.875 64.0625 45.09375 64.984375 
Q 41.3125 65.921875 37.59375 65.921875 
Q 27.828125 65.921875 22.671875 59.328125 
Q 17.53125 52.734375 16.796875 39.40625 
Q 19.671875 43.65625 24.015625 45.921875 
Q 28.375 48.1875 33.59375 48.1875 
Q 44.578125 48.1875 50.953125 41.515625 
Q 57.328125 34.859375 57.328125 23.390625 
Q 57.328125 12.15625 50.6875 5.359375 
Q 44.046875 -1.421875 33.015625 -1.421875 
Q 20.359375 -1.421875 13.671875 8.265625 
Q 6.984375 17.96875 6.984375 36.375 
Q 6.984375 53.65625 15.1875 63.9375 
Q 23.390625 74.21875 37.203125 74.21875 
Q 40.921875 74.21875 44.703125 73.484375 
Q 48.484375 72.75 52.59375 71.296875 
z
" id="DejaVuSans-54"/>
      </defs>
      <g transform="translate(406.005625 466.838125)scale(0.08 -0.08)">
       <use xlink:href="#DejaVuSans-54"/>
       <use x="63.623047" xlink:href="#DejaVuSans-48"/>
       <use x="127.246094" xlink:href="#DejaVuSans-37"/>
      </g>
     </g>
    </g>
    <g id="xtick_8">
     <g id="line2d_8">
      <g>
       <use style="stroke:#000000;stroke-width:0.8;" x="470.69625" xlink:href="#m21e442f303" y="453.759375"/>
      </g>
     </g>
     <g id="text_8">
      <!-- 70% -->
      <defs>
       <path d="M 8.203125 72.90625 
L 55.078125 72.90625 
L 55.078125 68.703125 
L 28.609375 0 
L 18.3125 0 
L 43.21875 64.59375 
L 8.203125 64.59375 
z
" id="DejaVuSans-55"/>
      </defs>
      <g transform="translate(461.805625 466.838125)scale(0.08 -0.08)">
       <use xlink:href="#DejaVuSans-55"/>
       <use x="63.623047" xlink:href="#DejaVuSans-48"/>
       <use x="127.246094" xlink:href="#DejaVuSans-37"/>
      </g>
     </g>
    </g>
    <g id="xtick_9">
     <g id="line2d_9">
      <g>
       <use style="stroke:#000000;stroke-width:0.8;" x="526.49625" xlink:href="#m21e442f303" y="453.759375"/>
      </g>
     </g>
     <g id="text_9">
      <!-- 80% -->
      <defs>
       <path d="M 31.78125 34.625 
Q 24.75 34.625 20.71875 30.859375 
Q 16.703125 27.09375 16.703125 20.515625 
Q 16.703125 13.921875 20.71875 10.15625 
Q 24.75 6.390625 31.78125 6.390625 
Q 38.8125 6.390625 42.859375 10.171875 
Q 46.921875 13.96875 46.921875 20.515625 
Q 46.921875 27.09375 42.890625 30.859375 
Q 38.875 34.625 31.78125 34.625 
z
M 21.921875 38.8125 
Q 15.578125 40.375 12.03125 44.71875 
Q 8.5 49.078125 8.5 55.328125 
Q 8.5 64.0625 14.71875 69.140625 
Q 20.953125 74.21875 31.78125 74.21875 
Q 42.671875 74.21875 48.875 69.140625 
Q 55.078125 64.0625 55.078125 55.328125 
Q 55.078125 49.078125 51.53125 44.71875 
Q 48 40.375 41.703125 38.8125 
Q 48.828125 37.15625 52.796875 32.3125 
Q 56.78125 27.484375 56.78125 20.515625 
Q 56.78125 9.90625 50.3125 4.234375 
Q 43.84375 -1.421875 31.78125 -1.421875 
Q 19.734375 -1.421875 13.25 4.234375 
Q 6.78125 9.90625 6.78125 20.515625 
Q 6.78125 27.484375 10.78125 32.3125 
Q 14.796875 37.15625 21.921875 38.8125 
z
M 18.3125 54.390625 
Q 18.3125 48.734375 21.84375 45.5625 
Q 25.390625 42.390625 31.78125 42.390625 
Q 38.140625 42.390625 41.71875 45.5625 
Q 45.3125 48.734375 45.3125 54.390625 
Q 45.3125 60.0625 41.71875 63.234375 
Q 38.140625 66.40625 31.78125 66.40625 
Q 25.390625 66.40625 21.84375 63.234375 
Q 18.3125 60.0625 18.3125 54.390625 
z
" id="DejaVuSans-56"/>
      </defs>
      <g transform="translate(517.605625 466.838125)scale(0.08 -0.08)">
       <use xlink:href="#DejaVuSans-56"/>
       <use x="63.623047" xlink:href="#DejaVuSans-48"/>
       <use x="127.246094" xlink:href="#DejaVuSans-37"/>
      </g>
     </g>
    </g>
    <g id="xtick_10">
     <g id="line2d_10">
      <g>
       <use style="stroke:#000000;stroke-width:0.8;" x="582.29625" xlink:href="#m21e442f303" y="453.759375"/>
      </g>
     </g>
     <g id="text_10">
      <!-- 90% -->
      <defs>
       <path d="M 10.984375 1.515625 
L 10.984375 10.5 
Q 14.703125 8.734375 18.5 7.8125 
Q 22.3125 6.890625 25.984375 6.890625 
Q 35.75 6.890625 40.890625 13.453125 
Q 46.046875 20.015625 46.78125 33.40625 
Q 43.953125 29.203125 39.59375 26.953125 
Q 35.25 24.703125 29.984375 24.703125 
Q 19.046875 24.703125 12.671875 31.3125 
Q 6.296875 37.9375 6.296875 49.421875 
Q 6.296875 60.640625 12.9375 67.421875 
Q 19.578125 74.21875 30.609375 74.21875 
Q 43.265625 74.21875 49.921875 64.515625 
Q 56.59375 54.828125 56.59375 36.375 
Q 56.59375 19.140625 48.40625 8.859375 
Q 40.234375 -1.421875 26.421875 -1.421875 
Q 22.703125 -1.421875 18.890625 -0.6875 
Q 15.09375 0.046875 10.984375 1.515625 
z
M 30.609375 32.421875 
Q 37.25 32.421875 41.125 36.953125 
Q 45.015625 41.5 45.015625 49.421875 
Q 45.015625 57.28125 41.125 61.84375 
Q 37.25 66.40625 30.609375 66.40625 
Q 23.96875 66.40625 20.09375 61.84375 
Q 16.21875 57.28125 16.21875 49.421875 
Q 16.21875 41.5 20.09375 36.953125 
Q 23.96875 32.421875 30.609375 32.421875 
z
" id="DejaVuSans-57"/>
      </defs>
      <g transform="translate(573.405625 466.838125)scale(0.08 -0.08)">
       <use xlink:href="#DejaVuSans-57"/>
       <use x="63.623047" xlink:href="#DejaVuSans-48"/>
       <use x="127.246094" xlink:href="#DejaVuSans-37"/>
      </g>
     </g>
    </g>
    <g id="xtick_11">
     <g id="line2d_11">
      <g>
       <use style="stroke:#000000;stroke-width:0.8;" x="638.09625" xlink:href="#m21e442f303" y="453.759375"/>
      </g>
     </g>
     <g id="text_11">
      <!-- 100% -->
      <g transform="translate(626.660625 466.838125)scale(0.08 -0.08)">
       <use xlink:href="#DejaVuSans-49"/>
       <use x="63.623047" xlink:href="#DejaVuSans-48"/>
       <use x="127.246094" xlink:href="#DejaVuSans-48"/>
       <use x="190.869141" xlink:href="#DejaVuSans-37"/>
      </g>
     </g>
    </g>
    <g id="text_12">
     <!-- graph reconstruction percentage -->
     <defs>
      <path d="M 45.40625 27.984375 
Q 45.40625 37.75 41.375 43.109375 
Q 37.359375 48.484375 30.078125 48.484375 
Q 22.859375 48.484375 18.828125 43.109375 
Q 14.796875 37.75 14.796875 27.984375 
Q 14.796875 18.265625 18.828125 12.890625 
Q 22.859375 7.515625 30.078125 7.515625 
Q 37.359375 7.515625 41.375 12.890625 
Q 45.40625 18.265625 45.40625 27.984375 
z
M 54.390625 6.78125 
Q 54.390625 -7.171875 48.1875 -13.984375 
Q 42 -20.796875 29.203125 -20.796875 
Q 24.46875 -20.796875 20.265625 -20.09375 
Q 16.0625 -19.390625 12.109375 -17.921875 
L 12.109375 -9.1875 
Q 16.0625 -11.328125 19.921875 -12.34375 
Q 23.78125 -13.375 27.78125 -13.375 
Q 36.625 -13.375 41.015625 -8.765625 
Q 45.40625 -4.15625 45.40625 5.171875 
L 45.40625 9.625 
Q 42.625 4.78125 38.28125 2.390625 
Q 33.9375 0 27.875 0 
Q 17.828125 0 11.671875 7.65625 
Q 5.515625 15.328125 5.515625 27.984375 
Q 5.515625 40.671875 11.671875 48.328125 
Q 17.828125 56 27.875 56 
Q 33.9375 56 38.28125 53.609375 
Q 42.625 51.21875 45.40625 46.390625 
L 45.40625 54.6875 
L 54.390625 54.6875 
z
" id="DejaVuSans-103"/>
      <path d="M 41.109375 46.296875 
Q 39.59375 47.171875 37.8125 47.578125 
Q 36.03125 48 33.890625 48 
Q 26.265625 48 22.1875 43.046875 
Q 18.109375 38.09375 18.109375 28.8125 
L 18.109375 0 
L 9.078125 0 
L 9.078125 54.6875 
L 18.109375 54.6875 
L 18.109375 46.1875 
Q 20.953125 51.171875 25.484375 53.578125 
Q 30.03125 56 36.53125 56 
Q 37.453125 56 38.578125 55.875 
Q 39.703125 55.765625 41.0625 55.515625 
z
" id="DejaVuSans-114"/>
      <path d="M 34.28125 27.484375 
Q 23.390625 27.484375 19.1875 25 
Q 14.984375 22.515625 14.984375 16.5 
Q 14.984375 11.71875 18.140625 8.90625 
Q 21.296875 6.109375 26.703125 6.109375 
Q 34.1875 6.109375 38.703125 11.40625 
Q 43.21875 16.703125 43.21875 25.484375 
L 43.21875 27.484375 
z
M 52.203125 31.203125 
L 52.203125 0 
L 43.21875 0 
L 43.21875 8.296875 
Q 40.140625 3.328125 35.546875 0.953125 
Q 30.953125 -1.421875 24.3125 -1.421875 
Q 15.921875 -1.421875 10.953125 3.296875 
Q 6 8.015625 6 15.921875 
Q 6 25.140625 12.171875 29.828125 
Q 18.359375 34.515625 30.609375 34.515625 
L 43.21875 34.515625 
L 43.21875 35.40625 
Q 43.21875 41.609375 39.140625 45 
Q 35.0625 48.390625 27.6875 48.390625 
Q 23 48.390625 18.546875 47.265625 
Q 14.109375 46.140625 10.015625 43.890625 
L 10.015625 52.203125 
Q 14.9375 54.109375 19.578125 55.046875 
Q 24.21875 56 28.609375 56 
Q 40.484375 56 46.34375 49.84375 
Q 52.203125 43.703125 52.203125 31.203125 
z
" id="DejaVuSans-97"/>
      <path d="M 18.109375 8.203125 
L 18.109375 -20.796875 
L 9.078125 -20.796875 
L 9.078125 54.6875 
L 18.109375 54.6875 
L 18.109375 46.390625 
Q 20.953125 51.265625 25.265625 53.625 
Q 29.59375 56 35.59375 56 
Q 45.5625 56 51.78125 48.09375 
Q 58.015625 40.1875 58.015625 27.296875 
Q 58.015625 14.40625 51.78125 6.484375 
Q 45.5625 -1.421875 35.59375 -1.421875 
Q 29.59375 -1.421875 25.265625 0.953125 
Q 20.953125 3.328125 18.109375 8.203125 
z
M 48.6875 27.296875 
Q 48.6875 37.203125 44.609375 42.84375 
Q 40.53125 48.484375 33.40625 48.484375 
Q 26.265625 48.484375 22.1875 42.84375 
Q 18.109375 37.203125 18.109375 27.296875 
Q 18.109375 17.390625 22.1875 11.75 
Q 26.265625 6.109375 33.40625 6.109375 
Q 40.53125 6.109375 44.609375 11.75 
Q 48.6875 17.390625 48.6875 27.296875 
z
" id="DejaVuSans-112"/>
      <path d="M 54.890625 33.015625 
L 54.890625 0 
L 45.90625 0 
L 45.90625 32.71875 
Q 45.90625 40.484375 42.875 44.328125 
Q 39.84375 48.1875 33.796875 48.1875 
Q 26.515625 48.1875 22.3125 43.546875 
Q 18.109375 38.921875 18.109375 30.90625 
L 18.109375 0 
L 9.078125 0 
L 9.078125 75.984375 
L 18.109375 75.984375 
L 18.109375 46.1875 
Q 21.34375 51.125 25.703125 53.5625 
Q 30.078125 56 35.796875 56 
Q 45.21875 56 50.046875 50.171875 
Q 54.890625 44.34375 54.890625 33.015625 
z
" id="DejaVuSans-104"/>
      <path id="DejaVuSans-32"/>
      <path d="M 56.203125 29.59375 
L 56.203125 25.203125 
L 14.890625 25.203125 
Q 15.484375 15.921875 20.484375 11.0625 
Q 25.484375 6.203125 34.421875 6.203125 
Q 39.59375 6.203125 44.453125 7.46875 
Q 49.3125 8.734375 54.109375 11.28125 
L 54.109375 2.78125 
Q 49.265625 0.734375 44.1875 -0.34375 
Q 39.109375 -1.421875 33.890625 -1.421875 
Q 20.796875 -1.421875 13.15625 6.1875 
Q 5.515625 13.8125 5.515625 26.8125 
Q 5.515625 40.234375 12.765625 48.109375 
Q 20.015625 56 32.328125 56 
Q 43.359375 56 49.78125 48.890625 
Q 56.203125 41.796875 56.203125 29.59375 
z
M 47.21875 32.234375 
Q 47.125 39.59375 43.09375 43.984375 
Q 39.0625 48.390625 32.421875 48.390625 
Q 24.90625 48.390625 20.390625 44.140625 
Q 15.875 39.890625 15.1875 32.171875 
z
" id="DejaVuSans-101"/>
      <path d="M 48.78125 52.59375 
L 48.78125 44.1875 
Q 44.96875 46.296875 41.140625 47.34375 
Q 37.3125 48.390625 33.40625 48.390625 
Q 24.65625 48.390625 19.8125 42.84375 
Q 14.984375 37.3125 14.984375 27.296875 
Q 14.984375 17.28125 19.8125 11.734375 
Q 24.65625 6.203125 33.40625 6.203125 
Q 37.3125 6.203125 41.140625 7.25 
Q 44.96875 8.296875 48.78125 10.40625 
L 48.78125 2.09375 
Q 45.015625 0.34375 40.984375 -0.53125 
Q 36.96875 -1.421875 32.421875 -1.421875 
Q 20.0625 -1.421875 12.78125 6.34375 
Q 5.515625 14.109375 5.515625 27.296875 
Q 5.515625 40.671875 12.859375 48.328125 
Q 20.21875 56 33.015625 56 
Q 37.15625 56 41.109375 55.140625 
Q 45.0625 54.296875 48.78125 52.59375 
z
" id="DejaVuSans-99"/>
      <path d="M 30.609375 48.390625 
Q 23.390625 48.390625 19.1875 42.75 
Q 14.984375 37.109375 14.984375 27.296875 
Q 14.984375 17.484375 19.15625 11.84375 
Q 23.34375 6.203125 30.609375 6.203125 
Q 37.796875 6.203125 41.984375 11.859375 
Q 46.1875 17.53125 46.1875 27.296875 
Q 46.1875 37.015625 41.984375 42.703125 
Q 37.796875 48.390625 30.609375 48.390625 
z
M 30.609375 56 
Q 42.328125 56 49.015625 48.375 
Q 55.71875 40.765625 55.71875 27.296875 
Q 55.71875 13.875 49.015625 6.21875 
Q 42.328125 -1.421875 30.609375 -1.421875 
Q 18.84375 -1.421875 12.171875 6.21875 
Q 5.515625 13.875 5.515625 27.296875 
Q 5.515625 40.765625 12.171875 48.375 
Q 18.84375 56 30.609375 56 
z
" id="DejaVuSans-111"/>
      <path d="M 54.890625 33.015625 
L 54.890625 0 
L 45.90625 0 
L 45.90625 32.71875 
Q 45.90625 40.484375 42.875 44.328125 
Q 39.84375 48.1875 33.796875 48.1875 
Q 26.515625 48.1875 22.3125 43.546875 
Q 18.109375 38.921875 18.109375 30.90625 
L 18.109375 0 
L 9.078125 0 
L 9.078125 54.6875 
L 18.109375 54.6875 
L 18.109375 46.1875 
Q 21.34375 51.125 25.703125 53.5625 
Q 30.078125 56 35.796875 56 
Q 45.21875 56 50.046875 50.171875 
Q 54.890625 44.34375 54.890625 33.015625 
z
" id="DejaVuSans-110"/>
      <path d="M 44.28125 53.078125 
L 44.28125 44.578125 
Q 40.484375 46.53125 36.375 47.5 
Q 32.28125 48.484375 27.875 48.484375 
Q 21.1875 48.484375 17.84375 46.4375 
Q 14.5 44.390625 14.5 40.28125 
Q 14.5 37.15625 16.890625 35.375 
Q 19.28125 33.59375 26.515625 31.984375 
L 29.59375 31.296875 
Q 39.15625 29.25 43.1875 25.515625 
Q 47.21875 21.78125 47.21875 15.09375 
Q 47.21875 7.46875 41.1875 3.015625 
Q 35.15625 -1.421875 24.609375 -1.421875 
Q 20.21875 -1.421875 15.453125 -0.5625 
Q 10.6875 0.296875 5.421875 2 
L 5.421875 11.28125 
Q 10.40625 8.6875 15.234375 7.390625 
Q 20.0625 6.109375 24.8125 6.109375 
Q 31.15625 6.109375 34.5625 8.28125 
Q 37.984375 10.453125 37.984375 14.40625 
Q 37.984375 18.0625 35.515625 20.015625 
Q 33.0625 21.96875 24.703125 23.78125 
L 21.578125 24.515625 
Q 13.234375 26.265625 9.515625 29.90625 
Q 5.8125 33.546875 5.8125 39.890625 
Q 5.8125 47.609375 11.28125 51.796875 
Q 16.75 56 26.8125 56 
Q 31.78125 56 36.171875 55.265625 
Q 40.578125 54.546875 44.28125 53.078125 
z
" id="DejaVuSans-115"/>
      <path d="M 18.3125 70.21875 
L 18.3125 54.6875 
L 36.8125 54.6875 
L 36.8125 47.703125 
L 18.3125 47.703125 
L 18.3125 18.015625 
Q 18.3125 11.328125 20.140625 9.421875 
Q 21.96875 7.515625 27.59375 7.515625 
L 36.8125 7.515625 
L 36.8125 0 
L 27.59375 0 
Q 17.1875 0 13.234375 3.875 
Q 9.28125 7.765625 9.28125 18.015625 
L 9.28125 47.703125 
L 2.6875 47.703125 
L 2.6875 54.6875 
L 9.28125 54.6875 
L 9.28125 70.21875 
z
" id="DejaVuSans-116"/>
      <path d="M 8.5 21.578125 
L 8.5 54.6875 
L 17.484375 54.6875 
L 17.484375 21.921875 
Q 17.484375 14.15625 20.5 10.265625 
Q 23.53125 6.390625 29.59375 6.390625 
Q 36.859375 6.390625 41.078125 11.03125 
Q 45.3125 15.671875 45.3125 23.6875 
L 45.3125 54.6875 
L 54.296875 54.6875 
L 54.296875 0 
L 45.3125 0 
L 45.3125 8.40625 
Q 42.046875 3.421875 37.71875 1 
Q 33.40625 -1.421875 27.6875 -1.421875 
Q 18.265625 -1.421875 13.375 4.4375 
Q 8.5 10.296875 8.5 21.578125 
z
M 31.109375 56 
z
" id="DejaVuSans-117"/>
      <path d="M 9.421875 54.6875 
L 18.40625 54.6875 
L 18.40625 0 
L 9.421875 0 
z
M 9.421875 75.984375 
L 18.40625 75.984375 
L 18.40625 64.59375 
L 9.421875 64.59375 
z
" id="DejaVuSans-105"/>
     </defs>
     <g transform="translate(293.00625 478.580625)scale(0.08 -0.08)">
      <use xlink:href="#DejaVuSans-103"/>
      <use x="63.476562" xlink:href="#DejaVuSans-114"/>
      <use x="104.589844" xlink:href="#DejaVuSans-97"/>
      <use x="165.869141" xlink:href="#DejaVuSans-112"/>
      <use x="229.345703" xlink:href="#DejaVuSans-104"/>
      <use x="292.724609" xlink:href="#DejaVuSans-32"/>
      <use x="324.511719" xlink:href="#DejaVuSans-114"/>
      <use x="365.59375" xlink:href="#DejaVuSans-101"/>
      <use x="427.117188" xlink:href="#DejaVuSans-99"/>
      <use x="482.097656" xlink:href="#DejaVuSans-111"/>
      <use x="543.279297" xlink:href="#DejaVuSans-110"/>
      <use x="606.658203" xlink:href="#DejaVuSans-115"/>
      <use x="658.757812" xlink:href="#DejaVuSans-116"/>
      <use x="697.966797" xlink:href="#DejaVuSans-114"/>
      <use x="739.080078" xlink:href="#DejaVuSans-117"/>
      <use x="802.458984" xlink:href="#DejaVuSans-99"/>
      <use x="857.439453" xlink:href="#DejaVuSans-116"/>
      <use x="896.648438" xlink:href="#DejaVuSans-105"/>
      <use x="924.431641" xlink:href="#DejaVuSans-111"/>
      <use x="985.613281" xlink:href="#DejaVuSans-110"/>
      <use x="1048.992188" xlink:href="#DejaVuSans-32"/>
      <use x="1080.779297" xlink:href="#DejaVuSans-112"/>
      <use x="1144.255859" xlink:href="#DejaVuSans-101"/>
      <use x="1205.779297" xlink:href="#DejaVuSans-114"/>
      <use x="1246.861328" xlink:href="#DejaVuSans-99"/>
      <use x="1301.841797" xlink:href="#DejaVuSans-101"/>
      <use x="1363.365234" xlink:href="#DejaVuSans-110"/>
      <use x="1426.744141" xlink:href="#DejaVuSans-116"/>
      <use x="1465.953125" xlink:href="#DejaVuSans-97"/>
      <use x="1527.232422" xlink:href="#DejaVuSans-103"/>
      <use x="1590.708984" xlink:href="#DejaVuSans-101"/>
     </g>
    </g>
   </g>
   <g id="matplotlib.axis_2">
    <g id="ytick_1">
     <g id="line2d_12">
      <defs>
       <path d="M 0 0 
L -3.5 0 
" id="me0f3dcbaaa" style="stroke:#000000;stroke-width:0.8;"/>
      </defs>
      <g>
       <use style="stroke:#000000;stroke-width:0.8;" x="80.09625" xlink:href="#me0f3dcbaaa" y="453.759375"/>
      </g>
     </g>
     <g id="text_13">
      <!-- 0.0E+8 bytes -->
      <defs>
       <path d="M 10.6875 12.40625 
L 21 12.40625 
L 21 0 
L 10.6875 0 
z
" id="DejaVuSans-46"/>
       <path d="M 9.8125 72.90625 
L 55.90625 72.90625 
L 55.90625 64.59375 
L 19.671875 64.59375 
L 19.671875 43.015625 
L 54.390625 43.015625 
L 54.390625 34.71875 
L 19.671875 34.71875 
L 19.671875 8.296875 
L 56.78125 8.296875 
L 56.78125 0 
L 9.8125 0 
z
" id="DejaVuSans-69"/>
       <path d="M 46 62.703125 
L 46 35.5 
L 73.1875 35.5 
L 73.1875 27.203125 
L 46 27.203125 
L 46 0 
L 37.796875 0 
L 37.796875 27.203125 
L 10.59375 27.203125 
L 10.59375 35.5 
L 37.796875 35.5 
L 37.796875 62.703125 
z
" id="DejaVuSans-43"/>
       <path d="M 48.6875 27.296875 
Q 48.6875 37.203125 44.609375 42.84375 
Q 40.53125 48.484375 33.40625 48.484375 
Q 26.265625 48.484375 22.1875 42.84375 
Q 18.109375 37.203125 18.109375 27.296875 
Q 18.109375 17.390625 22.1875 11.75 
Q 26.265625 6.109375 33.40625 6.109375 
Q 40.53125 6.109375 44.609375 11.75 
Q 48.6875 17.390625 48.6875 27.296875 
z
M 18.109375 46.390625 
Q 20.953125 51.265625 25.265625 53.625 
Q 29.59375 56 35.59375 56 
Q 45.5625 56 51.78125 48.09375 
Q 58.015625 40.1875 58.015625 27.296875 
Q 58.015625 14.40625 51.78125 6.484375 
Q 45.5625 -1.421875 35.59375 -1.421875 
Q 29.59375 -1.421875 25.265625 0.953125 
Q 20.953125 3.328125 18.109375 8.203125 
L 18.109375 0 
L 9.078125 0 
L 9.078125 75.984375 
L 18.109375 75.984375 
z
" id="DejaVuSans-98"/>
       <path d="M 32.171875 -5.078125 
Q 28.375 -14.84375 24.75 -17.8125 
Q 21.140625 -20.796875 15.09375 -20.796875 
L 7.90625 -20.796875 
L 7.90625 -13.28125 
L 13.1875 -13.28125 
Q 16.890625 -13.28125 18.9375 -11.515625 
Q 21 -9.765625 23.484375 -3.21875 
L 25.09375 0.875 
L 2.984375 54.6875 
L 12.5 54.6875 
L 29.59375 11.921875 
L 46.6875 54.6875 
L 56.203125 54.6875 
z
" id="DejaVuSans-121"/>
      </defs>
      <g transform="translate(18.9425 456.79875)scale(0.08 -0.08)">
       <use xlink:href="#DejaVuSans-48"/>
       <use x="63.623047" xlink:href="#DejaVuSans-46"/>
       <use x="95.410156" xlink:href="#DejaVuSans-48"/>
       <use x="159.033203" xlink:href="#DejaVuSans-69"/>
       <use x="222.216797" xlink:href="#DejaVuSans-43"/>
       <use x="306.005859" xlink:href="#DejaVuSans-56"/>
       <use x="369.628906" xlink:href="#DejaVuSans-32"/>
       <use x="401.416016" xlink:href="#DejaVuSans-98"/>
       <use x="464.892578" xlink:href="#DejaVuSans-121"/>
       <use x="524.072266" xlink:href="#DejaVuSans-116"/>
       <use x="563.28125" xlink:href="#DejaVuSans-101"/>
       <use x="624.804688" xlink:href="#DejaVuSans-115"/>
      </g>
     </g>
    </g>
    <g id="ytick_2">
     <g id="line2d_13">
      <g>
       <use style="stroke:#000000;stroke-width:0.8;" x="80.09625" xlink:href="#me0f3dcbaaa" y="409.407375"/>
      </g>
     </g>
     <g id="text_14">
      <!-- 0.2E+8 bytes -->
      <g transform="translate(18.9425 412.44675)scale(0.08 -0.08)">
       <use xlink:href="#DejaVuSans-48"/>
       <use x="63.623047" xlink:href="#DejaVuSans-46"/>
       <use x="95.410156" xlink:href="#DejaVuSans-50"/>
       <use x="159.033203" xlink:href="#DejaVuSans-69"/>
       <use x="222.216797" xlink:href="#DejaVuSans-43"/>
       <use x="306.005859" xlink:href="#DejaVuSans-56"/>
       <use x="369.628906" xlink:href="#DejaVuSans-32"/>
       <use x="401.416016" xlink:href="#DejaVuSans-98"/>
       <use x="464.892578" xlink:href="#DejaVuSans-121"/>
       <use x="524.072266" xlink:href="#DejaVuSans-116"/>
       <use x="563.28125" xlink:href="#DejaVuSans-101"/>
       <use x="624.804688" xlink:href="#DejaVuSans-115"/>
      </g>
     </g>
    </g>
    <g id="ytick_3">
     <g id="line2d_14">
      <g>
       <use style="stroke:#000000;stroke-width:0.8;" x="80.09625" xlink:href="#me0f3dcbaaa" y="365.055375"/>
      </g>
     </g>
     <g id="text_15">
      <!-- 0.4E+8 bytes -->
      <g transform="translate(18.9425 368.09475)scale(0.08 -0.08)">
       <use xlink:href="#DejaVuSans-48"/>
       <use x="63.623047" xlink:href="#DejaVuSans-46"/>
       <use x="95.410156" xlink:href="#DejaVuSans-52"/>
       <use x="159.033203" xlink:href="#DejaVuSans-69"/>
       <use x="222.216797" xlink:href="#DejaVuSans-43"/>
       <use x="306.005859" xlink:href="#DejaVuSans-56"/>
       <use x="369.628906" xlink:href="#DejaVuSans-32"/>
       <use x="401.416016" xlink:href="#DejaVuSans-98"/>
       <use x="464.892578" xlink:href="#DejaVuSans-121"/>
       <use x="524.072266" xlink:href="#DejaVuSans-116"/>
       <use x="563.28125" xlink:href="#DejaVuSans-101"/>
       <use x="624.804688" xlink:href="#DejaVuSans-115"/>
      </g>
     </g>
    </g>
    <g id="ytick_4">
     <g id="line2d_15">
      <g>
       <use style="stroke:#000000;stroke-width:0.8;" x="80.09625" xlink:href="#me0f3dcbaaa" y="320.703375"/>
      </g>
     </g>
     <g id="text_16">
      <!-- 0.6E+8 bytes -->
      <g transform="translate(18.9425 323.74275)scale(0.08 -0.08)">
       <use xlink:href="#DejaVuSans-48"/>
       <use x="63.623047" xlink:href="#DejaVuSans-46"/>
       <use x="95.410156" xlink:href="#DejaVuSans-54"/>
       <use x="159.033203" xlink:href="#DejaVuSans-69"/>
       <use x="222.216797" xlink:href="#DejaVuSans-43"/>
       <use x="306.005859" xlink:href="#DejaVuSans-56"/>
       <use x="369.628906" xlink:href="#DejaVuSans-32"/>
       <use x="401.416016" xlink:href="#DejaVuSans-98"/>
       <use x="464.892578" xlink:href="#DejaVuSans-121"/>
       <use x="524.072266" xlink:href="#DejaVuSans-116"/>
       <use x="563.28125" xlink:href="#DejaVuSans-101"/>
       <use x="624.804688" xlink:href="#DejaVuSans-115"/>
      </g>
     </g>
    </g>
    <g id="ytick_5">
     <g id="line2d_16">
      <g>
       <use style="stroke:#000000;stroke-width:0.8;" x="80.09625" xlink:href="#me0f3dcbaaa" y="276.351375"/>
      </g>
     </g>
     <g id="text_17">
      <!-- 0.8E+8 bytes -->
      <g transform="translate(18.9425 279.39075)scale(0.08 -0.08)">
       <use xlink:href="#DejaVuSans-48"/>
       <use x="63.623047" xlink:href="#DejaVuSans-46"/>
       <use x="95.410156" xlink:href="#DejaVuSans-56"/>
       <use x="159.033203" xlink:href="#DejaVuSans-69"/>
       <use x="222.216797" xlink:href="#DejaVuSans-43"/>
       <use x="306.005859" xlink:href="#DejaVuSans-56"/>
       <use x="369.628906" xlink:href="#DejaVuSans-32"/>
       <use x="401.416016" xlink:href="#DejaVuSans-98"/>
       <use x="464.892578" xlink:href="#DejaVuSans-121"/>
       <use x="524.072266" xlink:href="#DejaVuSans-116"/>
       <use x="563.28125" xlink:href="#DejaVuSans-101"/>
       <use x="624.804688" xlink:href="#DejaVuSans-115"/>
      </g>
     </g>
    </g>
    <g id="ytick_6">
     <g id="line2d_17">
      <g>
       <use style="stroke:#000000;stroke-width:0.8;" x="80.09625" xlink:href="#me0f3dcbaaa" y="231.999375"/>
      </g>
     </g>
     <g id="text_18">
      <!-- 1.0E+8 bytes -->
      <g transform="translate(18.9425 235.03875)scale(0.08 -0.08)">
       <use xlink:href="#DejaVuSans-49"/>
       <use x="63.623047" xlink:href="#DejaVuSans-46"/>
       <use x="95.410156" xlink:href="#DejaVuSans-48"/>
       <use x="159.033203" xlink:href="#DejaVuSans-69"/>
       <use x="222.216797" xlink:href="#DejaVuSans-43"/>
       <use x="306.005859" xlink:href="#DejaVuSans-56"/>
       <use x="369.628906" xlink:href="#DejaVuSans-32"/>
       <use x="401.416016" xlink:href="#DejaVuSans-98"/>
       <use x="464.892578" xlink:href="#DejaVuSans-121"/>
       <use x="524.072266" xlink:href="#DejaVuSans-116"/>
       <use x="563.28125" xlink:href="#DejaVuSans-101"/>
       <use x="624.804688" xlink:href="#DejaVuSans-115"/>
      </g>
     </g>
    </g>
    <g id="ytick_7">
     <g id="line2d_18">
      <g>
       <use style="stroke:#000000;stroke-width:0.8;" x="80.09625" xlink:href="#me0f3dcbaaa" y="187.647375"/>
      </g>
     </g>
     <g id="text_19">
      <!-- 1.2E+8 bytes -->
      <g transform="translate(18.9425 190.68675)scale(0.08 -0.08)">
       <use xlink:href="#DejaVuSans-49"/>
       <use x="63.623047" xlink:href="#DejaVuSans-46"/>
       <use x="95.410156" xlink:href="#DejaVuSans-50"/>
       <use x="159.033203" xlink:href="#DejaVuSans-69"/>
       <use x="222.216797" xlink:href="#DejaVuSans-43"/>
       <use x="306.005859" xlink:href="#DejaVuSans-56"/>
       <use x="369.628906" xlink:href="#DejaVuSans-32"/>
       <use x="401.416016" xlink:href="#DejaVuSans-98"/>
       <use x="464.892578" xlink:href="#DejaVuSans-121"/>
       <use x="524.072266" xlink:href="#DejaVuSans-116"/>
       <use x="563.28125" xlink:href="#DejaVuSans-101"/>
       <use x="624.804688" xlink:href="#DejaVuSans-115"/>
      </g>
     </g>
    </g>
    <g id="ytick_8">
     <g id="line2d_19">
      <g>
       <use style="stroke:#000000;stroke-width:0.8;" x="80.09625" xlink:href="#me0f3dcbaaa" y="143.295375"/>
      </g>
     </g>
     <g id="text_20">
      <!-- 1.4E+8 bytes -->
      <g transform="translate(18.9425 146.33475)scale(0.08 -0.08)">
       <use xlink:href="#DejaVuSans-49"/>
       <use x="63.623047" xlink:href="#DejaVuSans-46"/>
       <use x="95.410156" xlink:href="#DejaVuSans-52"/>
       <use x="159.033203" xlink:href="#DejaVuSans-69"/>
       <use x="222.216797" xlink:href="#DejaVuSans-43"/>
       <use x="306.005859" xlink:href="#DejaVuSans-56"/>
       <use x="369.628906" xlink:href="#DejaVuSans-32"/>
       <use x="401.416016" xlink:href="#DejaVuSans-98"/>
       <use x="464.892578" xlink:href="#DejaVuSans-121"/>
       <use x="524.072266" xlink:href="#DejaVuSans-116"/>
       <use x="563.28125" xlink:href="#DejaVuSans-101"/>
       <use x="624.804688" xlink:href="#DejaVuSans-115"/>
      </g>
     </g>
    </g>
    <g id="ytick_9">
     <g id="line2d_20">
      <g>
       <use style="stroke:#000000;stroke-width:0.8;" x="80.09625" xlink:href="#me0f3dcbaaa" y="98.943375"/>
      </g>
     </g>
     <g id="text_21">
      <!-- 1.6E+8 bytes -->
      <g transform="translate(18.9425 101.98275)scale(0.08 -0.08)">
       <use xlink:href="#DejaVuSans-49"/>
       <use x="63.623047" xlink:href="#DejaVuSans-46"/>
       <use x="95.410156" xlink:href="#DejaVuSans-54"/>
       <use x="159.033203" xlink:href="#DejaVuSans-69"/>
       <use x="222.216797" xlink:href="#DejaVuSans-43"/>
       <use x="306.005859" xlink:href="#DejaVuSans-56"/>
       <use x="369.628906" xlink:href="#DejaVuSans-32"/>
       <use x="401.416016" xlink:href="#DejaVuSans-98"/>
       <use x="464.892578" xlink:href="#DejaVuSans-121"/>
       <use x="524.072266" xlink:href="#DejaVuSans-116"/>
       <use x="563.28125" xlink:href="#DejaVuSans-101"/>
       <use x="624.804688" xlink:href="#DejaVuSans-115"/>
      </g>
     </g>
    </g>
    <g id="ytick_10">
     <g id="line2d_21">
      <g>
       <use style="stroke:#000000;stroke-width:0.8;" x="80.09625" xlink:href="#me0f3dcbaaa" y="54.591375"/>
      </g>
     </g>
     <g id="text_22">
      <!-- 1.8E+8 bytes -->
      <g transform="translate(18.9425 57.63075)scale(0.08 -0.08)">
       <use xlink:href="#DejaVuSans-49"/>
       <use x="63.623047" xlink:href="#DejaVuSans-46"/>
       <use x="95.410156" xlink:href="#DejaVuSans-56"/>
       <use x="159.033203" xlink:href="#DejaVuSans-69"/>
       <use x="222.216797" xlink:href="#DejaVuSans-43"/>
       <use x="306.005859" xlink:href="#DejaVuSans-56"/>
       <use x="369.628906" xlink:href="#DejaVuSans-32"/>
       <use x="401.416016" xlink:href="#DejaVuSans-98"/>
       <use x="464.892578" xlink:href="#DejaVuSans-121"/>
       <use x="524.072266" xlink:href="#DejaVuSans-116"/>
       <use x="563.28125" xlink:href="#DejaVuSans-101"/>
       <use x="624.804688" xlink:href="#DejaVuSans-115"/>
      </g>
     </g>
    </g>
    <g id="ytick_11">
     <g id="line2d_22">
      <g>
       <use style="stroke:#000000;stroke-width:0.8;" x="80.09625" xlink:href="#me0f3dcbaaa" y="10.239375"/>
      </g>
     </g>
     <g id="text_23">
      <!-- 2.0E+8 bytes -->
      <g transform="translate(18.9425 13.27875)scale(0.08 -0.08)">
       <use xlink:href="#DejaVuSans-50"/>
       <use x="63.623047" xlink:href="#DejaVuSans-46"/>
       <use x="95.410156" xlink:href="#DejaVuSans-48"/>
       <use x="159.033203" xlink:href="#DejaVuSans-69"/>
       <use x="222.216797" xlink:href="#DejaVuSans-43"/>
       <use x="306.005859" xlink:href="#DejaVuSans-56"/>
       <use x="369.628906" xlink:href="#DejaVuSans-32"/>
       <use x="401.416016" xlink:href="#DejaVuSans-98"/>
       <use x="464.892578" xlink:href="#DejaVuSans-121"/>
       <use x="524.072266" xlink:href="#DejaVuSans-116"/>
       <use x="563.28125" xlink:href="#DejaVuSans-101"/>
       <use x="624.804688" xlink:href="#DejaVuSans-115"/>
      </g>
     </g>
    </g>
    <g id="text_24">
     <!-- transmitted data capacity -->
     <defs>
      <path d="M 52 44.1875 
Q 55.375 50.25 60.0625 53.125 
Q 64.75 56 71.09375 56 
Q 79.640625 56 84.28125 50.015625 
Q 88.921875 44.046875 88.921875 33.015625 
L 88.921875 0 
L 79.890625 0 
L 79.890625 32.71875 
Q 79.890625 40.578125 77.09375 44.375 
Q 74.3125 48.1875 68.609375 48.1875 
Q 61.625 48.1875 57.5625 43.546875 
Q 53.515625 38.921875 53.515625 30.90625 
L 53.515625 0 
L 44.484375 0 
L 44.484375 32.71875 
Q 44.484375 40.625 41.703125 44.40625 
Q 38.921875 48.1875 33.109375 48.1875 
Q 26.21875 48.1875 22.15625 43.53125 
Q 18.109375 38.875 18.109375 30.90625 
L 18.109375 0 
L 9.078125 0 
L 9.078125 54.6875 
L 18.109375 54.6875 
L 18.109375 46.1875 
Q 21.1875 51.21875 25.484375 53.609375 
Q 29.78125 56 35.6875 56 
Q 41.65625 56 45.828125 52.96875 
Q 50 49.953125 52 44.1875 
z
" id="DejaVuSans-109"/>
      <path d="M 45.40625 46.390625 
L 45.40625 75.984375 
L 54.390625 75.984375 
L 54.390625 0 
L 45.40625 0 
L 45.40625 8.203125 
Q 42.578125 3.328125 38.25 0.953125 
Q 33.9375 -1.421875 27.875 -1.421875 
Q 17.96875 -1.421875 11.734375 6.484375 
Q 5.515625 14.40625 5.515625 27.296875 
Q 5.515625 40.1875 11.734375 48.09375 
Q 17.96875 56 27.875 56 
Q 33.9375 56 38.25 53.625 
Q 42.578125 51.265625 45.40625 46.390625 
z
M 14.796875 27.296875 
Q 14.796875 17.390625 18.875 11.75 
Q 22.953125 6.109375 30.078125 6.109375 
Q 37.203125 6.109375 41.296875 11.75 
Q 45.40625 17.390625 45.40625 27.296875 
Q 45.40625 37.203125 41.296875 42.84375 
Q 37.203125 48.484375 30.078125 48.484375 
Q 22.953125 48.484375 18.875 42.84375 
Q 14.796875 37.203125 14.796875 27.296875 
z
" id="DejaVuSans-100"/>
     </defs>
     <g transform="translate(13.27875 283.86625)rotate(-90)scale(0.08 -0.08)">
      <use xlink:href="#DejaVuSans-116"/>
      <use x="39.208984" xlink:href="#DejaVuSans-114"/>
      <use x="80.322266" xlink:href="#DejaVuSans-97"/>
      <use x="141.601562" xlink:href="#DejaVuSans-110"/>
      <use x="204.980469" xlink:href="#DejaVuSans-115"/>
      <use x="257.080078" xlink:href="#DejaVuSans-109"/>
      <use x="354.492188" xlink:href="#DejaVuSans-105"/>
      <use x="382.275391" xlink:href="#DejaVuSans-116"/>
      <use x="421.484375" xlink:href="#DejaVuSans-116"/>
      <use x="460.693359" xlink:href="#DejaVuSans-101"/>
      <use x="522.216797" xlink:href="#DejaVuSans-100"/>
      <use x="585.693359" xlink:href="#DejaVuSans-32"/>
      <use x="617.480469" xlink:href="#DejaVuSans-100"/>
      <use x="680.957031" xlink:href="#DejaVuSans-97"/>
      <use x="742.236328" xlink:href="#DejaVuSans-116"/>
      <use x="781.445312" xlink:href="#DejaVuSans-97"/>
      <use x="842.724609" xlink:href="#DejaVuSans-32"/>
      <use x="874.511719" xlink:href="#DejaVuSans-99"/>
      <use x="929.492188" xlink:href="#DejaVuSans-97"/>
      <use x="990.771484" xlink:href="#DejaVuSans-112"/>
      <use x="1054.248047" xlink:href="#DejaVuSans-97"/>
      <use x="1115.527344" xlink:href="#DejaVuSans-99"/>
      <use x="1170.507812" xlink:href="#DejaVuSans-105"/>
      <use x="1198.291016" xlink:href="#DejaVuSans-116"/>
      <use x="1237.5" xlink:href="#DejaVuSans-121"/>
     </g>
    </g>
   </g>
   <g id="line2d_23">
    <path clip-path="url(#pb1ea381c14)" d="M 80.09625 453.759347 
L 85.67625 453.759346 
L 91.25625 453.759344 
L 96.83625 453.759343 
L 102.41625 453.759341 
L 107.99625 453.759339 
L 113.57625 453.759337 
L 119.15625 453.759335 
L 124.73625 453.759333 
L 130.31625 453.759331 
L 135.89625 453.759329 
L 141.47625 453.759326 
L 147.05625 453.759324 
L 152.63625 453.759321 
L 158.21625 453.759318 
L 163.79625 453.759315 
L 169.37625 453.759312 
L 174.95625 453.759309 
L 180.53625 453.759305 
L 186.11625 453.759301 
L 191.69625 453.759298 
L 197.27625 453.759293 
L 202.85625 453.759289 
L 208.43625 453.759285 
L 214.01625 453.75928 
L 219.59625 453.759275 
L 225.17625 453.75927 
L 230.75625 453.759264 
L 236.33625 453.759258 
L 241.91625 453.759252 
L 247.49625 453.759246 
L 253.07625 453.759239 
L 258.65625 453.759232 
L 264.23625 453.759224 
L 269.81625 453.759216 
L 275.39625 453.759208 
L 280.97625 453.759199 
L 286.55625 453.75919 
L 292.13625 453.75918 
L 297.71625 453.759169 
L 303.29625 453.759159 
L 308.87625 453.759147 
L 314.45625 453.759135 
L 320.03625 453.759123 
L 325.61625 453.759109 
L 331.19625 453.759095 
L 336.77625 453.759081 
L 342.35625 453.759065 
L 347.93625 453.759049 
L 353.51625 453.759031 
L 359.09625 453.759013 
L 364.67625 453.758994 
L 370.25625 453.758974 
L 375.83625 453.758953 
L 381.41625 453.758931 
L 386.99625 453.758907 
L 392.57625 453.758883 
L 398.15625 453.758857 
L 403.73625 453.75883 
L 409.31625 453.758801 
L 414.89625 453.758771 
L 420.47625 453.758739 
L 426.05625 453.758705 
L 431.63625 453.75867 
L 437.21625 453.758633 
L 442.79625 453.758594 
L 448.37625 453.758552 
L 453.95625 453.758509 
L 459.53625 453.758463 
L 465.11625 453.758415 
L 470.69625 453.758365 
L 476.27625 453.758311 
L 481.85625 453.758255 
L 487.43625 453.758196 
L 493.01625 453.758134 
L 498.59625 453.758069 
L 504.17625 453.758 
L 509.75625 453.757928 
L 515.33625 453.757851 
L 520.91625 453.757771 
L 526.49625 453.757686 
L 532.07625 453.757597 
L 537.65625 453.757504 
L 543.23625 453.757405 
L 548.81625 453.757301 
L 554.39625 453.757192 
L 559.97625 453.757077 
L 565.55625 453.756956 
L 571.13625 453.756828 
L 576.71625 453.756694 
L 582.29625 453.756553 
L 587.87625 453.756404 
L 593.45625 453.756247 
L 599.03625 453.756082 
L 604.61625 453.755909 
L 610.19625 453.755726 
L 615.77625 453.755534 
L 621.35625 453.755331 
L 626.93625 453.755118 
L 632.51625 453.754894 
L 638.09625 453.754657 
" style="fill:none;stroke:#8000ff;stroke-linecap:square;stroke-width:2;"/>
   </g>
   <g id="line2d_24">
    <path clip-path="url(#pb1ea381c14)" d="M 80.09625 453.759331 
L 85.67625 453.759327 
L 91.25625 453.759323 
L 96.83625 453.759318 
L 102.41625 453.759313 
L 107.99625 453.759307 
L 113.57625 453.759301 
L 119.15625 453.759294 
L 124.73625 453.759286 
L 130.31625 453.759278 
L 135.89625 453.759269 
L 141.47625 453.75926 
L 147.05625 453.759249 
L 152.63625 453.759237 
L 158.21625 453.759225 
L 163.79625 453.759211 
L 169.37625 453.759196 
L 174.95625 453.75918 
L 180.53625 453.759162 
L 186.11625 453.759142 
L 191.69625 453.759121 
L 197.27625 453.759097 
L 202.85625 453.759072 
L 208.43625 453.759044 
L 214.01625 453.759014 
L 219.59625 453.758981 
L 225.17625 453.758945 
L 230.75625 453.758905 
L 236.33625 453.758862 
L 241.91625 453.758815 
L 247.49625 453.758764 
L 253.07625 453.758707 
L 258.65625 453.758646 
L 264.23625 453.758579 
L 269.81625 453.758506 
L 275.39625 453.758427 
L 280.97625 453.75834 
L 286.55625 453.758245 
L 292.13625 453.758141 
L 297.71625 453.758028 
L 303.29625 453.757904 
L 308.87625 453.757769 
L 314.45625 453.757622 
L 320.03625 453.757461 
L 325.61625 453.757286 
L 331.19625 453.757094 
L 336.77625 453.756885 
L 342.35625 453.756656 
L 347.93625 453.756407 
L 353.51625 453.756135 
L 359.09625 453.755837 
L 364.67625 453.755513 
L 370.25625 453.755158 
L 375.83625 453.754772 
L 381.41625 453.754349 
L 386.99625 453.753888 
L 392.57625 453.753385 
L 398.15625 453.752835 
L 403.73625 453.752236 
L 409.31625 453.751581 
L 414.89625 453.750866 
L 420.47625 453.750085 
L 426.05625 453.749233 
L 431.63625 453.748302 
L 437.21625 453.747287 
L 442.79625 453.746178 
L 448.37625 453.744967 
L 453.95625 453.743645 
L 459.53625 453.742202 
L 465.11625 453.740627 
L 470.69625 453.738907 
L 476.27625 453.737029 
L 481.85625 453.734979 
L 487.43625 453.732741 
L 493.01625 453.730298 
L 498.59625 453.72763 
L 504.17625 453.724718 
L 509.75625 453.721539 
L 515.33625 453.718068 
L 520.91625 453.714278 
L 526.49625 453.710141 
L 532.07625 453.705625 
L 537.65625 453.700694 
L 543.23625 453.695311 
L 548.81625 453.689434 
L 554.39625 453.683017 
L 559.97625 453.676013 
L 565.55625 453.668365 
L 571.13625 453.660016 
L 576.71625 453.650901 
L 582.29625 453.64095 
L 587.87625 453.630086 
L 593.45625 453.618226 
L 599.03625 453.605277 
L 604.61625 453.59114 
L 610.19625 453.575707 
L 615.77625 453.558858 
L 621.35625 453.540463 
L 626.93625 453.52038 
L 632.51625 453.498456 
L 638.09625 453.47452 
" style="fill:none;stroke:#5247fc;stroke-linecap:square;stroke-width:2;"/>
   </g>
   <g id="line2d_25">
    <path clip-path="url(#pb1ea381c14)" d="M 80.09625 453.75933 
L 85.67625 453.759325 
L 91.25625 453.759321 
L 96.83625 453.759316 
L 102.41625 453.75931 
L 107.99625 453.759304 
L 113.57625 453.759297 
L 119.15625 453.759289 
L 124.73625 453.759281 
L 130.31625 453.759272 
L 135.89625 453.759262 
L 141.47625 453.759252 
L 147.05625 453.75924 
L 152.63625 453.759227 
L 158.21625 453.759213 
L 163.79625 453.759197 
L 169.37625 453.759181 
L 174.95625 453.759162 
L 180.53625 453.759142 
L 186.11625 453.759119 
L 191.69625 453.759095 
L 197.27625 453.759068 
L 202.85625 453.759039 
L 208.43625 453.759007 
L 214.01625 453.758972 
L 219.59625 453.758933 
L 225.17625 453.758891 
L 230.75625 453.758845 
L 236.33625 453.758794 
L 241.91625 453.758738 
L 247.49625 453.758678 
L 253.07625 453.758611 
L 258.65625 453.758538 
L 264.23625 453.758458 
L 269.81625 453.758371 
L 275.39625 453.758275 
L 280.97625 453.758169 
L 286.55625 453.758054 
L 292.13625 453.757928 
L 297.71625 453.75779 
L 303.29625 453.757639 
L 308.87625 453.757473 
L 314.45625 453.757291 
L 320.03625 453.757092 
L 325.61625 453.756874 
L 331.19625 453.756635 
L 336.77625 453.756374 
L 342.35625 453.756087 
L 347.93625 453.755773 
L 353.51625 453.755429 
L 359.09625 453.755052 
L 364.67625 453.754639 
L 370.25625 453.754187 
L 375.83625 453.753691 
L 381.41625 453.753149 
L 386.99625 453.752554 
L 392.57625 453.751902 
L 398.15625 453.751189 
L 403.73625 453.750407 
L 409.31625 453.74955 
L 414.89625 453.748612 
L 420.47625 453.747584 
L 426.05625 453.746458 
L 431.63625 453.745224 
L 437.21625 453.743873 
L 442.79625 453.742392 
L 448.37625 453.740771 
L 453.95625 453.738994 
L 459.53625 453.737047 
L 465.11625 453.734915 
L 470.69625 453.732579 
L 476.27625 453.730019 
L 481.85625 453.727216 
L 487.43625 453.724144 
L 493.01625 453.72078 
L 498.59625 453.717094 
L 504.17625 453.713055 
L 509.75625 453.708632 
L 515.33625 453.703785 
L 520.91625 453.698476 
L 526.49625 453.69266 
L 532.07625 453.686288 
L 537.65625 453.679308 
L 543.23625 453.671661 
L 548.81625 453.663284 
L 554.39625 453.654107 
L 559.97625 453.644053 
L 565.55625 453.633039 
L 571.13625 453.620974 
L 576.71625 453.607755 
L 582.29625 453.593275 
L 587.87625 453.577411 
L 593.45625 453.560033 
L 599.03625 453.540994 
L 604.61625 453.520138 
L 610.19625 453.497289 
L 615.77625 453.472258 
L 621.35625 453.444837 
L 626.93625 453.414797 
L 632.51625 453.381888 
L 638.09625 453.345835 
" style="fill:none;stroke:#2489f5;stroke-linecap:square;stroke-width:2;"/>
   </g>
   <g id="line2d_26">
    <path clip-path="url(#pb1ea381c14)" d="M 80.09625 453.759329 
L 85.67625 453.759324 
L 91.25625 453.759318 
L 96.83625 453.759312 
L 102.41625 453.759305 
L 107.99625 453.759298 
L 113.57625 453.75929 
L 119.15625 453.759281 
L 124.73625 453.759271 
L 130.31625 453.759259 
L 135.89625 453.759247 
L 141.47625 453.759233 
L 147.05625 453.759218 
L 152.63625 453.759201 
L 158.21625 453.759183 
L 163.79625 453.759162 
L 169.37625 453.759139 
L 174.95625 453.759114 
L 180.53625 453.759086 
L 186.11625 453.759055 
L 191.69625 453.759021 
L 197.27625 453.758983 
L 202.85625 453.758941 
L 208.43625 453.758895 
L 214.01625 453.758843 
L 219.59625 453.758787 
L 225.17625 453.758724 
L 230.75625 453.758654 
L 236.33625 453.758577 
L 241.91625 453.758491 
L 247.49625 453.758396 
L 253.07625 453.758292 
L 258.65625 453.758176 
L 264.23625 453.758047 
L 269.81625 453.757905 
L 275.39625 453.757748 
L 280.97625 453.757574 
L 286.55625 453.757381 
L 292.13625 453.757167 
L 297.71625 453.756931 
L 303.29625 453.756669 
L 308.87625 453.756379 
L 314.45625 453.756059 
L 320.03625 453.755704 
L 325.61625 453.755311 
L 331.19625 453.754875 
L 336.77625 453.754394 
L 342.35625 453.75386 
L 347.93625 453.75327 
L 353.51625 453.752616 
L 359.09625 453.751893 
L 364.67625 453.751092 
L 370.25625 453.750205 
L 375.83625 453.749223 
L 381.41625 453.748136 
L 386.99625 453.746933 
L 392.57625 453.745601 
L 398.15625 453.744126 
L 403.73625 453.742494 
L 409.31625 453.740686 
L 414.89625 453.738685 
L 420.47625 453.73647 
L 426.05625 453.734018 
L 431.63625 453.731303 
L 437.21625 453.728298 
L 442.79625 453.724971 
L 448.37625 453.721288 
L 453.95625 453.71721 
L 459.53625 453.712696 
L 465.11625 453.707698 
L 470.69625 453.702165 
L 476.27625 453.69604 
L 481.85625 453.68926 
L 487.43625 453.681753 
L 493.01625 453.673443 
L 498.59625 453.664243 
L 504.17625 453.654058 
L 509.75625 453.642782 
L 515.33625 453.6303 
L 520.91625 453.616481 
L 526.49625 453.601182 
L 532.07625 453.584246 
L 537.65625 453.565496 
L 543.23625 453.54474 
L 548.81625 453.52176 
L 554.39625 453.496321 
L 559.97625 453.468158 
L 565.55625 453.43698 
L 571.13625 453.402464 
L 576.71625 453.364252 
L 582.29625 453.32195 
L 587.87625 453.275118 
L 593.45625 453.223273 
L 599.03625 453.165877 
L 604.61625 453.102336 
L 610.19625 453.031993 
L 615.77625 452.954118 
L 621.35625 452.867906 
L 626.93625 452.772464 
L 632.51625 452.666804 
L 638.09625 452.549832 
" style="fill:none;stroke:#0ac0e8;stroke-linecap:square;stroke-width:2;"/>
   </g>
   <g id="line2d_27">
    <path clip-path="url(#pb1ea381c14)" d="M 80.09625 453.759326 
L 85.67625 453.75932 
L 91.25625 453.759313 
L 96.83625 453.759306 
L 102.41625 453.759298 
L 107.99625 453.759289 
L 113.57625 453.759279 
L 119.15625 453.759268 
L 124.73625 453.759255 
L 130.31625 453.759241 
L 135.89625 453.759225 
L 141.47625 453.759207 
L 147.05625 453.759188 
L 152.63625 453.759165 
L 158.21625 453.759141 
L 163.79625 453.759113 
L 169.37625 453.759082 
L 174.95625 453.759048 
L 180.53625 453.759009 
L 186.11625 453.758966 
L 191.69625 453.758918 
L 197.27625 453.758864 
L 202.85625 453.758804 
L 208.43625 453.758736 
L 214.01625 453.758661 
L 219.59625 453.758577 
L 225.17625 453.758483 
L 230.75625 453.758378 
L 236.33625 453.75826 
L 241.91625 453.758129 
L 247.49625 453.757982 
L 253.07625 453.757818 
L 258.65625 453.757634 
L 264.23625 453.757429 
L 269.81625 453.7572 
L 275.39625 453.756944 
L 280.97625 453.756657 
L 286.55625 453.756337 
L 292.13625 453.755979 
L 297.71625 453.755578 
L 303.29625 453.755131 
L 308.87625 453.754631 
L 314.45625 453.754072 
L 320.03625 453.753446 
L 325.61625 453.752748 
L 331.19625 453.751967 
L 336.77625 453.751093 
L 342.35625 453.750117 
L 347.93625 453.749026 
L 353.51625 453.747807 
L 359.09625 453.746443 
L 364.67625 453.744919 
L 370.25625 453.743215 
L 375.83625 453.74131 
L 381.41625 453.739181 
L 386.99625 453.736801 
L 392.57625 453.734141 
L 398.15625 453.731166 
L 403.73625 453.727842 
L 409.31625 453.724125 
L 414.89625 453.71997 
L 420.47625 453.715326 
L 426.05625 453.710134 
L 431.63625 453.704331 
L 437.21625 453.697843 
L 442.79625 453.690591 
L 448.37625 453.682484 
L 453.95625 453.673421 
L 459.53625 453.663291 
L 465.11625 453.651966 
L 470.69625 453.639307 
L 476.27625 453.625155 
L 481.85625 453.609336 
L 487.43625 453.591652 
L 493.01625 453.571884 
L 498.59625 453.549786 
L 504.17625 453.525083 
L 509.75625 453.497469 
L 515.33625 453.4666 
L 520.91625 453.432093 
L 526.49625 453.393519 
L 532.07625 453.350399 
L 537.65625 453.302196 
L 543.23625 453.248312 
L 548.81625 453.188078 
L 554.39625 453.120743 
L 559.97625 453.045473 
L 565.55625 452.961331 
L 571.13625 452.867272 
L 576.71625 452.762127 
L 582.29625 452.64459 
L 587.87625 452.513199 
L 593.45625 452.366322 
L 599.03625 452.202134 
L 604.61625 452.018595 
L 610.19625 451.813423 
L 615.77625 451.58407 
L 621.35625 451.327684 
L 626.93625 451.041081 
L 632.51625 450.720697 
L 638.09625 450.362553 
" style="fill:none;stroke:#3ae8d6;stroke-linecap:square;stroke-width:2;"/>
   </g>
   <g id="line2d_28">
    <path clip-path="url(#pb1ea381c14)" d="M 80.09625 453.759325 
L 85.67625 453.759319 
L 91.25625 453.759312 
L 96.83625 453.759304 
L 102.41625 453.759295 
L 107.99625 453.759285 
L 113.57625 453.759274 
L 119.15625 453.759261 
L 124.73625 453.759247 
L 130.31625 453.759231 
L 135.89625 453.759213 
L 141.47625 453.759193 
L 147.05625 453.75917 
L 152.63625 453.759145 
L 158.21625 453.759116 
L 163.79625 453.759084 
L 169.37625 453.759047 
L 174.95625 453.759007 
L 180.53625 453.75896 
L 186.11625 453.758909 
L 191.69625 453.75885 
L 197.27625 453.758785 
L 202.85625 453.758711 
L 208.43625 453.758628 
L 214.01625 453.758535 
L 219.59625 453.75843 
L 225.17625 453.758312 
L 230.75625 453.758179 
L 236.33625 453.758029 
L 241.91625 453.757861 
L 247.49625 453.757672 
L 253.07625 453.757459 
L 258.65625 453.75722 
L 264.23625 453.756951 
L 269.81625 453.756648 
L 275.39625 453.756307 
L 280.97625 453.755924 
L 286.55625 453.755492 
L 292.13625 453.755007 
L 297.71625 453.754461 
L 303.29625 453.753847 
L 308.87625 453.753156 
L 314.45625 453.752379 
L 320.03625 453.751505 
L 325.61625 453.750522 
L 331.19625 453.749415 
L 336.77625 453.748171 
L 342.35625 453.746771 
L 347.93625 453.745196 
L 353.51625 453.743424 
L 359.09625 453.74143 
L 364.67625 453.739188 
L 370.25625 453.736665 
L 375.83625 453.733828 
L 381.41625 453.730635 
L 386.99625 453.727044 
L 392.57625 453.723004 
L 398.15625 453.718459 
L 403.73625 453.713346 
L 409.31625 453.707594 
L 414.89625 453.701123 
L 420.47625 453.693844 
L 426.05625 453.685655 
L 431.63625 453.676443 
L 437.21625 453.666079 
L 442.79625 453.654421 
L 448.37625 453.641306 
L 453.95625 453.626552 
L 459.53625 453.609954 
L 465.11625 453.591282 
L 470.69625 453.570277 
L 476.27625 453.546647 
L 481.85625 453.520064 
L 487.43625 453.490159 
L 493.01625 453.456518 
L 498.59625 453.418672 
L 504.17625 453.376098 
L 509.75625 453.328203 
L 515.33625 453.274323 
L 520.91625 453.21371 
L 526.49625 453.145523 
L 532.07625 453.068815 
L 537.65625 452.982521 
L 543.23625 452.885444 
L 548.81625 452.776237 
L 554.39625 452.653382 
L 559.97625 452.515175 
L 565.55625 452.359698 
L 571.13625 452.184793 
L 576.71625 451.98803 
L 582.29625 451.76668 
L 587.87625 451.51767 
L 593.45625 451.237543 
L 599.03625 450.922411 
L 604.61625 450.5679 
L 610.19625 450.169088 
L 615.77625 449.72044 
L 621.35625 449.215729 
L 626.93625 448.647947 
L 632.51625 448.009216 
L 638.09625 447.290667 
" style="fill:none;stroke:#68fcc1;stroke-linecap:square;stroke-width:2;"/>
   </g>
   <g id="line2d_29">
    <path clip-path="url(#pb1ea381c14)" d="M 80.09625 453.759325 
L 85.67625 453.759318 
L 91.25625 453.759311 
L 96.83625 453.759302 
L 102.41625 453.759293 
L 107.99625 453.759282 
L 113.57625 453.75927 
L 119.15625 453.759256 
L 124.73625 453.759241 
L 130.31625 453.759223 
L 135.89625 453.759203 
L 141.47625 453.759181 
L 147.05625 453.759155 
L 152.63625 453.759127 
L 158.21625 453.759094 
L 163.79625 453.759057 
L 169.37625 453.759016 
L 174.95625 453.758969 
L 180.53625 453.758916 
L 186.11625 453.758856 
L 191.69625 453.758788 
L 197.27625 453.758711 
L 202.85625 453.758624 
L 208.43625 453.758526 
L 214.01625 453.758415 
L 219.59625 453.758289 
L 225.17625 453.758147 
L 230.75625 453.757986 
L 236.33625 453.757804 
L 241.91625 453.757599 
L 247.49625 453.757367 
L 253.07625 453.757104 
L 258.65625 453.756807 
L 264.23625 453.756471 
L 269.81625 453.756091 
L 275.39625 453.755661 
L 280.97625 453.755175 
L 286.55625 453.754625 
L 292.13625 453.754004 
L 297.71625 453.753301 
L 303.29625 453.752506 
L 308.87625 453.751608 
L 314.45625 453.750592 
L 320.03625 453.749442 
L 325.61625 453.748143 
L 331.19625 453.746673 
L 336.77625 453.745011 
L 342.35625 453.743132 
L 347.93625 453.741006 
L 353.51625 453.738603 
L 359.09625 453.735885 
L 364.67625 453.732812 
L 370.25625 453.729336 
L 375.83625 453.725406 
L 381.41625 453.720961 
L 386.99625 453.715935 
L 392.57625 453.710252 
L 398.15625 453.703824 
L 403.73625 453.696556 
L 409.31625 453.688337 
L 414.89625 453.679042 
L 420.47625 453.668531 
L 426.05625 453.656645 
L 431.63625 453.643204 
L 437.21625 453.628004 
L 442.79625 453.610816 
L 448.37625 453.591378 
L 453.95625 453.569397 
L 459.53625 453.54454 
L 465.11625 453.516431 
L 470.69625 453.484644 
L 476.27625 453.448698 
L 481.85625 453.408049 
L 487.43625 453.362081 
L 493.01625 453.310099 
L 498.59625 453.251315 
L 504.17625 453.18484 
L 509.75625 453.109667 
L 515.33625 453.024659 
L 520.91625 452.928528 
L 526.49625 452.819819 
L 532.07625 452.696887 
L 537.65625 452.55787 
L 543.23625 452.400664 
L 548.81625 452.22289 
L 554.39625 452.021855 
L 559.97625 451.794516 
L 565.55625 451.537432 
L 571.13625 451.246711 
L 576.71625 450.917952 
L 582.29625 450.546178 
L 587.87625 450.125761 
L 593.45625 449.650336 
L 599.03625 449.112706 
L 604.61625 448.504732 
L 610.19625 447.81721 
L 615.77625 447.039732 
L 621.35625 446.160528 
L 626.93625 445.166289 
L 632.51625 444.041963 
L 638.09625 442.770528 
" style="fill:none;stroke:#96fca7;stroke-linecap:square;stroke-width:2;"/>
   </g>
   <g id="line2d_30">
    <path clip-path="url(#pb1ea381c14)" d="M 80.09625 453.759325 
L 85.67625 453.759318 
L 91.25625 453.75931 
L 96.83625 453.759302 
L 102.41625 453.759292 
L 107.99625 453.759281 
L 113.57625 453.759268 
L 119.15625 453.759254 
L 124.73625 453.759238 
L 130.31625 453.75922 
L 135.89625 453.759199 
L 141.47625 453.759176 
L 147.05625 453.759149 
L 152.63625 453.759119 
L 158.21625 453.759085 
L 163.79625 453.759047 
L 169.37625 453.759003 
L 174.95625 453.758953 
L 180.53625 453.758897 
L 186.11625 453.758833 
L 191.69625 453.758761 
L 197.27625 453.758679 
L 202.85625 453.758587 
L 208.43625 453.758482 
L 214.01625 453.758363 
L 219.59625 453.758228 
L 225.17625 453.758075 
L 230.75625 453.757902 
L 236.33625 453.757706 
L 241.91625 453.757483 
L 247.49625 453.757232 
L 253.07625 453.756946 
L 258.65625 453.756622 
L 264.23625 453.756256 
L 269.81625 453.75584 
L 275.39625 453.755369 
L 280.97625 453.754836 
L 286.55625 453.754231 
L 292.13625 453.753546 
L 297.71625 453.752769 
L 303.29625 453.751889 
L 308.87625 453.750892 
L 314.45625 453.749761 
L 320.03625 453.748481 
L 325.61625 453.747029 
L 331.19625 453.745385 
L 336.77625 453.743521 
L 342.35625 453.741409 
L 347.93625 453.739016 
L 353.51625 453.736303 
L 359.09625 453.73323 
L 364.67625 453.729747 
L 370.25625 453.7258 
L 375.83625 453.721327 
L 381.41625 453.716259 
L 386.99625 453.710515 
L 392.57625 453.704006 
L 398.15625 453.69663 
L 403.73625 453.688271 
L 409.31625 453.678798 
L 414.89625 453.668064 
L 420.47625 453.6559 
L 426.05625 453.642115 
L 431.63625 453.626494 
L 437.21625 453.608792 
L 442.79625 453.588732 
L 448.37625 453.565999 
L 453.95625 453.540238 
L 459.53625 453.511045 
L 465.11625 453.477964 
L 470.69625 453.440475 
L 476.27625 453.397991 
L 481.85625 453.349849 
L 487.43625 453.295293 
L 493.01625 453.233469 
L 498.59625 453.163409 
L 504.17625 453.084016 
L 509.75625 452.994046 
L 515.33625 452.892091 
L 520.91625 452.776553 
L 526.49625 452.645624 
L 532.07625 452.497253 
L 537.65625 452.329116 
L 543.23625 452.138581 
L 548.81625 451.922662 
L 554.39625 451.67798 
L 559.97625 451.400702 
L 565.55625 451.086485 
L 571.13625 450.730409 
L 576.71625 450.326898 
L 582.29625 449.869632 
L 587.87625 449.35145 
L 593.45625 448.764236 
L 599.03625 448.098796 
L 604.61625 447.344708 
L 610.19625 446.490162 
L 615.77625 445.521775 
L 621.35625 444.424382 
L 626.93625 443.180797 
L 632.51625 441.771545 
L 638.09625 440.174555 
" style="fill:none;stroke:#c4e88a;stroke-linecap:square;stroke-width:2;"/>
   </g>
   <g id="line2d_31">
    <path clip-path="url(#pb1ea381c14)" d="M 80.09625 453.75932 
L 85.67625 453.759311 
L 91.25625 453.759301 
L 96.83625 453.759289 
L 102.41625 453.759275 
L 107.99625 453.759259 
L 113.57625 453.75924 
L 119.15625 453.759218 
L 124.73625 453.759193 
L 130.31625 453.759163 
L 135.89625 453.759129 
L 141.47625 453.759089 
L 147.05625 453.759043 
L 152.63625 453.758989 
L 158.21625 453.758927 
L 163.79625 453.758855 
L 169.37625 453.75877 
L 174.95625 453.758673 
L 180.53625 453.758559 
L 186.11625 453.758427 
L 191.69625 453.758274 
L 197.27625 453.758096 
L 202.85625 453.757889 
L 208.43625 453.757649 
L 214.01625 453.757369 
L 219.59625 453.757045 
L 225.17625 453.756668 
L 230.75625 453.756231 
L 236.33625 453.755722 
L 241.91625 453.755132 
L 247.49625 453.754446 
L 253.07625 453.753648 
L 258.65625 453.752722 
L 264.23625 453.751647 
L 269.81625 453.750397 
L 275.39625 453.748945 
L 280.97625 453.747259 
L 286.55625 453.7453 
L 292.13625 453.743024 
L 297.71625 453.74038 
L 303.29625 453.737308 
L 308.87625 453.73374 
L 314.45625 453.729594 
L 320.03625 453.724779 
L 325.61625 453.719185 
L 331.19625 453.712686 
L 336.77625 453.705136 
L 342.35625 453.696366 
L 347.93625 453.686177 
L 353.51625 453.674341 
L 359.09625 453.660591 
L 364.67625 453.644617 
L 370.25625 453.626061 
L 375.83625 453.604504 
L 381.41625 453.579461 
L 386.99625 453.550369 
L 392.57625 453.516573 
L 398.15625 453.477311 
L 403.73625 453.431701 
L 409.31625 453.378716 
L 414.89625 453.317163 
L 420.47625 453.245657 
L 426.05625 453.162589 
L 431.63625 453.066088 
L 437.21625 452.953983 
L 442.79625 452.823751 
L 448.37625 452.67246 
L 453.95625 452.496705 
L 459.53625 452.29253 
L 465.11625 452.05534 
L 470.69625 451.779796 
L 476.27625 451.459697 
L 481.85625 451.087837 
L 487.43625 450.655848 
L 493.01625 450.154005 
L 498.59625 449.571014 
L 504.17625 448.893753 
L 509.75625 448.106979 
L 515.33625 447.192982 
L 520.91625 446.131191 
L 526.49625 444.897709 
L 532.07625 443.464771 
L 537.65625 441.800126 
L 543.23625 439.866306 
L 548.81625 437.619787 
L 554.39625 435.010004 
L 559.97625 431.978217 
L 565.55625 428.456188 
L 571.13625 424.364644 
L 576.71625 419.611495 
L 582.29625 414.089758 
L 587.87625 407.675152 
L 593.45625 400.223299 
L 599.03625 391.566477 
L 604.61625 381.50984 
L 610.19625 369.827037 
L 615.77625 356.255117 
L 621.35625 340.488607 
L 626.93625 322.172641 
L 632.51625 300.894971 
L 638.09625 276.176685 
" style="fill:none;stroke:#f4c069;stroke-linecap:square;stroke-width:2;"/>
   </g>
   <g id="line2d_32">
    <path clip-path="url(#pb1ea381c14)" d="M 80.09625 453.75932 
L 85.67625 453.75931 
L 91.25625 453.759299 
L 96.83625 453.759287 
L 102.41625 453.759272 
L 107.99625 453.759255 
L 113.57625 453.759234 
L 119.15625 453.759211 
L 124.73625 453.759183 
L 130.31625 453.759151 
L 135.89625 453.759113 
L 141.47625 453.759069 
L 147.05625 453.759017 
L 152.63625 453.758957 
L 158.21625 453.758886 
L 163.79625 453.758804 
L 169.37625 453.758708 
L 174.95625 453.758595 
L 180.53625 453.758464 
L 186.11625 453.758311 
L 191.69625 453.758131 
L 197.27625 453.757922 
L 202.85625 453.757677 
L 208.43625 453.757391 
L 214.01625 453.757057 
L 219.59625 453.756667 
L 225.17625 453.756211 
L 230.75625 453.755678 
L 236.33625 453.755056 
L 241.91625 453.754329 
L 247.49625 453.753479 
L 253.07625 453.752486 
L 258.65625 453.751326 
L 264.23625 453.749971 
L 269.81625 453.748387 
L 275.39625 453.746537 
L 280.97625 453.744375 
L 286.55625 453.741849 
L 292.13625 453.738897 
L 297.71625 453.735449 
L 303.29625 453.73142 
L 308.87625 453.726713 
L 314.45625 453.721212 
L 320.03625 453.714786 
L 325.61625 453.707278 
L 331.19625 453.698505 
L 336.77625 453.688255 
L 342.35625 453.676278 
L 347.93625 453.662285 
L 353.51625 453.645936 
L 359.09625 453.626834 
L 364.67625 453.604515 
L 370.25625 453.578437 
L 375.83625 453.547968 
L 381.41625 453.512369 
L 386.99625 453.470775 
L 392.57625 453.422176 
L 398.15625 453.365394 
L 403.73625 453.29905 
L 409.31625 453.221534 
L 414.89625 453.130965 
L 420.47625 453.025145 
L 426.05625 452.901505 
L 431.63625 452.757046 
L 437.21625 452.58826 
L 442.79625 452.391052 
L 448.37625 452.160635 
L 453.95625 451.891417 
L 459.53625 451.576865 
L 465.11625 451.209344 
L 470.69625 450.779935 
L 476.27625 450.278216 
L 481.85625 449.692011 
L 487.43625 449.007093 
L 493.01625 448.206839 
L 498.59625 447.271827 
L 504.17625 446.179366 
L 509.75625 444.90294 
L 515.33625 443.411573 
L 520.91625 441.669069 
L 526.49625 439.633139 
L 532.07625 437.25437 
L 537.65625 434.475033 
L 543.23625 431.227673 
L 548.81625 427.433477 
L 554.39625 423.000364 
L 559.97625 417.820742 
L 565.55625 411.768906 
L 571.13625 404.697978 
L 576.71625 396.436352 
L 582.29625 386.78352 
L 587.87625 375.505213 
L 593.45625 362.32771 
L 599.03625 346.9312 
L 604.61625 328.942017 
L 610.19625 307.923569 
L 615.77625 283.365748 
L 621.35625 254.672547 
L 626.93625 221.147594 
L 632.51625 181.977252 
L 638.09625 136.210874 
" style="fill:none;stroke:#ff8947;stroke-linecap:square;stroke-width:2;"/>
   </g>
   <g id="line2d_33">
    <path clip-path="url(#pb1ea381c14)" d="M 80.09625 453.75932 
L 85.67625 453.75931 
L 91.25625 453.759299 
L 96.83625 453.759286 
L 102.41625 453.759271 
L 107.99625 453.759254 
L 113.57625 453.759233 
L 119.15625 453.759209 
L 124.73625 453.759181 
L 130.31625 453.759148 
L 135.89625 453.759109 
L 141.47625 453.759064 
L 147.05625 453.759011 
L 152.63625 453.758949 
L 158.21625 453.758877 
L 163.79625 453.758792 
L 169.37625 453.758693 
L 174.95625 453.758578 
L 180.53625 453.758442 
L 186.11625 453.758284 
L 191.69625 453.758098 
L 197.27625 453.757881 
L 202.85625 453.757628 
L 208.43625 453.757331 
L 214.01625 453.756984 
L 219.59625 453.756578 
L 225.17625 453.756103 
L 230.75625 453.755547 
L 236.33625 453.754897 
L 241.91625 453.754136 
L 247.49625 453.753246 
L 253.07625 453.752206 
L 258.65625 453.750988 
L 264.23625 453.749564 
L 269.81625 453.747897 
L 275.39625 453.745948 
L 280.97625 453.743667 
L 286.55625 453.741 
L 292.13625 453.737879 
L 297.71625 453.734228 
L 303.29625 453.729957 
L 308.87625 453.724961 
L 314.45625 453.719116 
L 320.03625 453.712279 
L 325.61625 453.70428 
L 331.19625 453.694923 
L 336.77625 453.683976 
L 342.35625 453.671171 
L 347.93625 453.656191 
L 353.51625 453.638666 
L 359.09625 453.618165 
L 364.67625 453.594182 
L 370.25625 453.566127 
L 375.83625 453.533306 
L 381.41625 453.494911 
L 386.99625 453.449995 
L 392.57625 453.397451 
L 398.15625 453.335983 
L 403.73625 453.264075 
L 409.31625 453.179954 
L 414.89625 453.081547 
L 420.47625 452.966427 
L 426.05625 452.831754 
L 431.63625 452.67421 
L 437.21625 452.489908 
L 442.79625 452.274306 
L 448.37625 452.022086 
L 453.95625 451.727029 
L 459.53625 451.381861 
L 465.11625 450.978071 
L 470.69625 450.505702 
L 476.27625 449.953107 
L 481.85625 449.306661 
L 487.43625 448.550424 
L 493.01625 447.66575 
L 498.59625 446.630826 
L 504.17625 445.420133 
L 509.75625 444.003819 
L 515.33625 442.346962 
L 520.91625 440.408709 
L 526.49625 438.141269 
L 532.07625 435.488733 
L 537.65625 432.385697 
L 543.23625 428.75565 
L 548.81625 424.509086 
L 554.39625 419.541298 
L 559.97625 413.729794 
L 565.55625 406.93128 
L 571.13625 398.978125 
L 576.71625 389.674229 
L 582.29625 378.790184 
L 587.87625 366.057623 
L 593.45625 351.162599 
L 599.03625 333.737845 
L 604.61625 313.353719 
L 610.19625 289.507609 
L 615.77625 261.611541 
L 621.35625 228.977682 
L 626.93625 190.801378 
L 632.51625 146.141315 
L 638.09625 93.896311 
" style="fill:none;stroke:#ff4724;stroke-linecap:square;stroke-width:2;"/>
   </g>
   <g id="line2d_34">
    <path clip-path="url(#pb1ea381c14)" d="M 80.09625 453.75932 
L 85.67625 453.75931 
L 91.25625 453.759299 
L 96.83625 453.759286 
L 102.41625 453.759271 
L 107.99625 453.759253 
L 113.57625 453.759233 
L 119.15625 453.759208 
L 124.73625 453.75918 
L 130.31625 453.759147 
L 135.89625 453.759108 
L 141.47625 453.759063 
L 147.05625 453.75901 
L 152.63625 453.758947 
L 158.21625 453.758875 
L 163.79625 453.75879 
L 169.37625 453.75869 
L 174.95625 453.758573 
L 180.53625 453.758437 
L 186.11625 453.758277 
L 191.69625 453.758091 
L 197.27625 453.757872 
L 202.85625 453.757616 
L 208.43625 453.757317 
L 214.01625 453.756967 
L 219.59625 453.756557 
L 225.17625 453.756077 
L 230.75625 453.755516 
L 236.33625 453.75486 
L 241.91625 453.754091 
L 247.49625 453.753192 
L 253.07625 453.75214 
L 258.65625 453.750909 
L 264.23625 453.749469 
L 269.81625 453.747783 
L 275.39625 453.74581 
L 280.97625 453.743502 
L 286.55625 453.740801 
L 292.13625 453.73764 
L 297.71625 453.733942 
L 303.29625 453.729614 
L 308.87625 453.72455 
L 314.45625 453.718624 
L 320.03625 453.71169 
L 325.61625 453.703575 
L 331.19625 453.69408 
L 336.77625 453.682969 
L 342.35625 453.669968 
L 347.93625 453.654754 
L 353.51625 453.636951 
L 359.09625 453.616119 
L 364.67625 453.591742 
L 370.25625 453.563216 
L 375.83625 453.529837 
L 381.41625 453.490778 
L 386.99625 453.445072 
L 392.57625 453.391589 
L 398.15625 453.329005 
L 403.73625 453.255771 
L 409.31625 453.170075 
L 414.89625 453.069797 
L 420.47625 452.952456 
L 426.05625 452.815147 
L 431.63625 452.654472 
L 437.21625 452.466457 
L 442.79625 452.246448 
L 448.37625 451.989002 
L 453.95625 451.687747 
L 459.53625 451.335229 
L 465.11625 450.922725 
L 470.69625 450.440028 
L 476.27625 449.875192 
L 481.85625 449.214242 
L 487.43625 448.440821 
L 493.01625 447.535792 
L 498.59625 446.476758 
L 504.17625 445.237515 
L 509.75625 443.787396 
L 515.33625 442.090518 
L 520.91625 440.104891 
L 526.49625 437.781381 
L 532.07625 435.062493 
L 537.65625 431.880945 
L 543.23625 428.158011 
L 548.81625 423.801565 
L 554.39625 418.703806 
L 559.97625 412.738589 
L 565.55625 405.758303 
L 571.13625 397.59022 
L 576.71625 388.032218 
L 582.29625 376.847783 
L 587.87625 363.760153 
L 593.45625 348.445471 
L 599.03625 330.524773 
L 604.61625 309.554606 
L 610.19625 285.016059 
L 615.77625 256.30192 
L 621.35625 222.701652 
L 626.93625 183.383806 
L 632.51625 137.375456 
L 638.09625 83.538113 
" style="fill:none;stroke:#ff0000;stroke-linecap:square;stroke-width:2;"/>
   </g>
   <g id="patch_3">
    <path d="M 80.09625 453.759375 
L 80.09625 10.239375 
" style="fill:none;stroke:#000000;stroke-linecap:square;stroke-linejoin:miter;stroke-width:0.8;"/>
   </g>
   <g id="patch_4">
    <path d="M 638.09625 453.759375 
L 638.09625 10.239375 
" style="fill:none;stroke:#000000;stroke-linecap:square;stroke-linejoin:miter;stroke-width:0.8;"/>
   </g>
   <g id="patch_5">
    <path d="M 80.09625 453.759375 
L 638.09625 453.759375 
" style="fill:none;stroke:#000000;stroke-linecap:square;stroke-linejoin:miter;stroke-width:0.8;"/>
   </g>
   <g id="patch_6">
    <path d="M 80.09625 10.239375 
L 638.09625 10.239375 
" style="fill:none;stroke:#000000;stroke-linecap:square;stroke-linejoin:miter;stroke-width:0.8;"/>
   </g>
  </g>
 </g>
 <defs>
  <clipPath id="pb1ea381c14">
   <rect height="443.52" width="558" x="80.09625" y="10.239375"/>
  </clipPath>
 </defs>
</svg>
