<?xml version="1.0" encoding="utf-8" standalone="no"?>
<!DOCTYPE svg PUBLIC "-//W3C//DTD SVG 1.1//EN"
  "http://www.w3.org/Graphics/SVG/1.1/DTD/svg11.dtd">
<!-- Created with matplotlib (https://matplotlib.org/) -->
<svg height="330.124062pt" version="1.1" viewBox="0 0 613.310312 330.124062" width="613.310312pt" xmlns="http://www.w3.org/2000/svg" xmlns:xlink="http://www.w3.org/1999/xlink">
 <defs>
  <style type="text/css">
*{stroke-linecap:butt;stroke-linejoin:round;}
  </style>
 </defs>
 <g id="figure_1">
  <g id="patch_1">
   <path d="M 0 330.124062 
L 613.310312 330.124062 
L 613.310312 0 
L 0 0 
z
" style="fill:#ffffff;"/>
  </g>
  <g id="axes_1">
   <g id="patch_2">
    <path d="M 43.020313 296.439062 
L 308.734598 296.439062 
L 308.734598 19.239062 
L 43.020313 19.239062 
z
" style="fill:#ffffff;"/>
   </g>
   <g id="LineCollection_1">
    <path clip-path="url(#pc98cac0a0c)" d="M 43.020313 157.839062 
L 308.734598 157.839062 
" style="fill:none;stroke:#c0c0c0;stroke-dasharray:2.775,1.2;stroke-dashoffset:0;stroke-width:0.75;"/>
   </g>
   <g id="LineCollection_2">
    <path clip-path="url(#pc98cac0a0c)" d="M 255.591741 296.439062 
L 255.591741 157.839062 
" style="fill:none;stroke:#c0c0c0;stroke-dasharray:2.775,1.2;stroke-dashoffset:0;stroke-width:0.75;"/>
   </g>
   <g id="LineCollection_3">
    <path clip-path="url(#pc98cac0a0c)" d="M 177.137952 296.439062 
L 177.137952 157.839062 
" style="fill:none;stroke:#c0c0c0;stroke-dasharray:2.775,1.2;stroke-dashoffset:0;stroke-width:0.75;"/>
   </g>
   <g id="LineCollection_4">
    <path clip-path="url(#pc98cac0a0c)" d="M 173.412818 296.439062 
L 173.412818 157.839062 
" style="fill:none;stroke:#c0c0c0;stroke-dasharray:2.775,1.2;stroke-dashoffset:0;stroke-width:0.75;"/>
   </g>
   <g id="LineCollection_5">
    <path clip-path="url(#pc98cac0a0c)" d="M 171.407032 296.439062 
L 171.407032 157.839062 
" style="fill:none;stroke:#c0c0c0;stroke-dasharray:2.775,1.2;stroke-dashoffset:0;stroke-width:0.75;"/>
   </g>
   <g id="LineCollection_6">
    <path clip-path="url(#pc98cac0a0c)" d="M 162.799504 296.439062 
L 162.799504 157.839062 
" style="fill:none;stroke:#c0c0c0;stroke-dasharray:2.775,1.2;stroke-dashoffset:0;stroke-width:0.75;"/>
   </g>
   <g id="LineCollection_7">
    <path clip-path="url(#pc98cac0a0c)" d="M 161.39223 296.439062 
L 161.39223 157.839062 
" style="fill:none;stroke:#c0c0c0;stroke-dasharray:2.775,1.2;stroke-dashoffset:0;stroke-width:0.75;"/>
   </g>
   <g id="LineCollection_8">
    <path clip-path="url(#pc98cac0a0c)" d="M 160.380235 296.439062 
L 160.380235 157.839062 
" style="fill:none;stroke:#c0c0c0;stroke-dasharray:2.775,1.2;stroke-dashoffset:0;stroke-width:0.75;"/>
   </g>
   <g id="LineCollection_9">
    <path clip-path="url(#pc98cac0a0c)" d="M 160.124814 296.439062 
L 160.124814 157.839062 
" style="fill:none;stroke:#c0c0c0;stroke-dasharray:2.775,1.2;stroke-dashoffset:0;stroke-width:0.75;"/>
   </g>
   <g id="LineCollection_10">
    <path clip-path="url(#pc98cac0a0c)" d="M 150.25213 296.439062 
L 150.25213 157.839062 
" style="fill:none;stroke:#c0c0c0;stroke-dasharray:2.775,1.2;stroke-dashoffset:0;stroke-width:0.75;"/>
   </g>
   <g id="LineCollection_11">
    <path clip-path="url(#pc98cac0a0c)" d="M 149.534153 296.439062 
L 149.534153 157.839062 
" style="fill:none;stroke:#c0c0c0;stroke-dasharray:2.775,1.2;stroke-dashoffset:0;stroke-width:0.75;"/>
   </g>
   <g id="LineCollection_12">
    <path clip-path="url(#pc98cac0a0c)" d="M 149.362438 296.439062 
L 149.362438 157.839062 
" style="fill:none;stroke:#c0c0c0;stroke-dasharray:2.775,1.2;stroke-dashoffset:0;stroke-width:0.75;"/>
   </g>
   <g id="LineCollection_13">
    <path clip-path="url(#pc98cac0a0c)" d="M 149.320084 296.439062 
L 149.320084 157.839062 
" style="fill:none;stroke:#c0c0c0;stroke-dasharray:2.775,1.2;stroke-dashoffset:0;stroke-width:0.75;"/>
   </g>
   <g id="matplotlib.axis_1">
    <g id="xtick_1">
     <g id="line2d_1">
      <defs>
       <path d="M 0 0 
L 0 3.5 
" id="mfc86fdaecd" style="stroke:#000000;stroke-width:0.8;"/>
      </defs>
      <g>
       <use style="stroke:#000000;stroke-width:0.8;" x="43.020313" xlink:href="#mfc86fdaecd" y="296.439062"/>
      </g>
     </g>
     <g id="text_1">
      <!-- 0 -->
      <defs>
       <path d="M 31.78125 66.40625 
Q 24.171875 66.40625 20.328125 58.90625 
Q 16.5 51.421875 16.5 36.375 
Q 16.5 21.390625 20.328125 13.890625 
Q 24.171875 6.390625 31.78125 6.390625 
Q 39.453125 6.390625 43.28125 13.890625 
Q 47.125 21.390625 47.125 36.375 
Q 47.125 51.421875 43.28125 58.90625 
Q 39.453125 66.40625 31.78125 66.40625 
z
M 31.78125 74.21875 
Q 44.046875 74.21875 50.515625 64.515625 
Q 56.984375 54.828125 56.984375 36.375 
Q 56.984375 17.96875 50.515625 8.265625 
Q 44.046875 -1.421875 31.78125 -1.421875 
Q 19.53125 -1.421875 13.0625 8.265625 
Q 6.59375 17.96875 6.59375 36.375 
Q 6.59375 54.828125 13.0625 64.515625 
Q 19.53125 74.21875 31.78125 74.21875 
z
" id="DejaVuSans-48"/>
      </defs>
      <g transform="translate(40.475313 309.517812)scale(0.08 -0.08)">
       <use xlink:href="#DejaVuSans-48"/>
      </g>
     </g>
    </g>
    <g id="xtick_2">
     <g id="line2d_2">
      <g>
       <use style="stroke:#000000;stroke-width:0.8;" x="96.16317" xlink:href="#mfc86fdaecd" y="296.439062"/>
      </g>
     </g>
     <g id="text_2">
      <!-- 64 -->
      <defs>
       <path d="M 33.015625 40.375 
Q 26.375 40.375 22.484375 35.828125 
Q 18.609375 31.296875 18.609375 23.390625 
Q 18.609375 15.53125 22.484375 10.953125 
Q 26.375 6.390625 33.015625 6.390625 
Q 39.65625 6.390625 43.53125 10.953125 
Q 47.40625 15.53125 47.40625 23.390625 
Q 47.40625 31.296875 43.53125 35.828125 
Q 39.65625 40.375 33.015625 40.375 
z
M 52.59375 71.296875 
L 52.59375 62.3125 
Q 48.875 64.0625 45.09375 64.984375 
Q 41.3125 65.921875 37.59375 65.921875 
Q 27.828125 65.921875 22.671875 59.328125 
Q 17.53125 52.734375 16.796875 39.40625 
Q 19.671875 43.65625 24.015625 45.921875 
Q 28.375 48.1875 33.59375 48.1875 
Q 44.578125 48.1875 50.953125 41.515625 
Q 57.328125 34.859375 57.328125 23.390625 
Q 57.328125 12.15625 50.6875 5.359375 
Q 44.046875 -1.421875 33.015625 -1.421875 
Q 20.359375 -1.421875 13.671875 8.265625 
Q 6.984375 17.96875 6.984375 36.375 
Q 6.984375 53.65625 15.1875 63.9375 
Q 23.390625 74.21875 37.203125 74.21875 
Q 40.921875 74.21875 44.703125 73.484375 
Q 48.484375 72.75 52.59375 71.296875 
z
" id="DejaVuSans-54"/>
       <path d="M 37.796875 64.3125 
L 12.890625 25.390625 
L 37.796875 25.390625 
z
M 35.203125 72.90625 
L 47.609375 72.90625 
L 47.609375 25.390625 
L 58.015625 25.390625 
L 58.015625 17.1875 
L 47.609375 17.1875 
L 47.609375 0 
L 37.796875 0 
L 37.796875 17.1875 
L 4.890625 17.1875 
L 4.890625 26.703125 
z
" id="DejaVuSans-52"/>
      </defs>
      <g transform="translate(91.07317 309.517812)scale(0.08 -0.08)">
       <use xlink:href="#DejaVuSans-54"/>
       <use x="63.623047" xlink:href="#DejaVuSans-52"/>
      </g>
     </g>
    </g>
    <g id="xtick_3">
     <g id="line2d_3">
      <g>
       <use style="stroke:#000000;stroke-width:0.8;" x="149.306027" xlink:href="#mfc86fdaecd" y="296.439062"/>
      </g>
     </g>
     <g id="text_3">
      <!-- 128 -->
      <defs>
       <path d="M 12.40625 8.296875 
L 28.515625 8.296875 
L 28.515625 63.921875 
L 10.984375 60.40625 
L 10.984375 69.390625 
L 28.421875 72.90625 
L 38.28125 72.90625 
L 38.28125 8.296875 
L 54.390625 8.296875 
L 54.390625 0 
L 12.40625 0 
z
" id="DejaVuSans-49"/>
       <path d="M 19.1875 8.296875 
L 53.609375 8.296875 
L 53.609375 0 
L 7.328125 0 
L 7.328125 8.296875 
Q 12.9375 14.109375 22.625 23.890625 
Q 32.328125 33.6875 34.8125 36.53125 
Q 39.546875 41.84375 41.421875 45.53125 
Q 43.3125 49.21875 43.3125 52.78125 
Q 43.3125 58.59375 39.234375 62.25 
Q 35.15625 65.921875 28.609375 65.921875 
Q 23.96875 65.921875 18.8125 64.3125 
Q 13.671875 62.703125 7.8125 59.421875 
L 7.8125 69.390625 
Q 13.765625 71.78125 18.9375 73 
Q 24.125 74.21875 28.421875 74.21875 
Q 39.75 74.21875 46.484375 68.546875 
Q 53.21875 62.890625 53.21875 53.421875 
Q 53.21875 48.921875 51.53125 44.890625 
Q 49.859375 40.875 45.40625 35.40625 
Q 44.1875 33.984375 37.640625 27.21875 
Q 31.109375 20.453125 19.1875 8.296875 
z
" id="DejaVuSans-50"/>
       <path d="M 31.78125 34.625 
Q 24.75 34.625 20.71875 30.859375 
Q 16.703125 27.09375 16.703125 20.515625 
Q 16.703125 13.921875 20.71875 10.15625 
Q 24.75 6.390625 31.78125 6.390625 
Q 38.8125 6.390625 42.859375 10.171875 
Q 46.921875 13.96875 46.921875 20.515625 
Q 46.921875 27.09375 42.890625 30.859375 
Q 38.875 34.625 31.78125 34.625 
z
M 21.921875 38.8125 
Q 15.578125 40.375 12.03125 44.71875 
Q 8.5 49.078125 8.5 55.328125 
Q 8.5 64.0625 14.71875 69.140625 
Q 20.953125 74.21875 31.78125 74.21875 
Q 42.671875 74.21875 48.875 69.140625 
Q 55.078125 64.0625 55.078125 55.328125 
Q 55.078125 49.078125 51.53125 44.71875 
Q 48 40.375 41.703125 38.8125 
Q 48.828125 37.15625 52.796875 32.3125 
Q 56.78125 27.484375 56.78125 20.515625 
Q 56.78125 9.90625 50.3125 4.234375 
Q 43.84375 -1.421875 31.78125 -1.421875 
Q 19.734375 -1.421875 13.25 4.234375 
Q 6.78125 9.90625 6.78125 20.515625 
Q 6.78125 27.484375 10.78125 32.3125 
Q 14.796875 37.15625 21.921875 38.8125 
z
M 18.3125 54.390625 
Q 18.3125 48.734375 21.84375 45.5625 
Q 25.390625 42.390625 31.78125 42.390625 
Q 38.140625 42.390625 41.71875 45.5625 
Q 45.3125 48.734375 45.3125 54.390625 
Q 45.3125 60.0625 41.71875 63.234375 
Q 38.140625 66.40625 31.78125 66.40625 
Q 25.390625 66.40625 21.84375 63.234375 
Q 18.3125 60.0625 18.3125 54.390625 
z
" id="DejaVuSans-56"/>
      </defs>
      <g transform="translate(141.671027 309.517812)scale(0.08 -0.08)">
       <use xlink:href="#DejaVuSans-49"/>
       <use x="63.623047" xlink:href="#DejaVuSans-50"/>
       <use x="127.246094" xlink:href="#DejaVuSans-56"/>
      </g>
     </g>
    </g>
    <g id="xtick_4">
     <g id="line2d_4">
      <g>
       <use style="stroke:#000000;stroke-width:0.8;" x="202.448884" xlink:href="#mfc86fdaecd" y="296.439062"/>
      </g>
     </g>
     <g id="text_4">
      <!-- 192 -->
      <defs>
       <path d="M 10.984375 1.515625 
L 10.984375 10.5 
Q 14.703125 8.734375 18.5 7.8125 
Q 22.3125 6.890625 25.984375 6.890625 
Q 35.75 6.890625 40.890625 13.453125 
Q 46.046875 20.015625 46.78125 33.40625 
Q 43.953125 29.203125 39.59375 26.953125 
Q 35.25 24.703125 29.984375 24.703125 
Q 19.046875 24.703125 12.671875 31.3125 
Q 6.296875 37.9375 6.296875 49.421875 
Q 6.296875 60.640625 12.9375 67.421875 
Q 19.578125 74.21875 30.609375 74.21875 
Q 43.265625 74.21875 49.921875 64.515625 
Q 56.59375 54.828125 56.59375 36.375 
Q 56.59375 19.140625 48.40625 8.859375 
Q 40.234375 -1.421875 26.421875 -1.421875 
Q 22.703125 -1.421875 18.890625 -0.6875 
Q 15.09375 0.046875 10.984375 1.515625 
z
M 30.609375 32.421875 
Q 37.25 32.421875 41.125 36.953125 
Q 45.015625 41.5 45.015625 49.421875 
Q 45.015625 57.28125 41.125 61.84375 
Q 37.25 66.40625 30.609375 66.40625 
Q 23.96875 66.40625 20.09375 61.84375 
Q 16.21875 57.28125 16.21875 49.421875 
Q 16.21875 41.5 20.09375 36.953125 
Q 23.96875 32.421875 30.609375 32.421875 
z
" id="DejaVuSans-57"/>
      </defs>
      <g transform="translate(194.813884 309.517812)scale(0.08 -0.08)">
       <use xlink:href="#DejaVuSans-49"/>
       <use x="63.623047" xlink:href="#DejaVuSans-57"/>
       <use x="127.246094" xlink:href="#DejaVuSans-50"/>
      </g>
     </g>
    </g>
    <g id="xtick_5">
     <g id="line2d_5">
      <g>
       <use style="stroke:#000000;stroke-width:0.8;" x="255.591741" xlink:href="#mfc86fdaecd" y="296.439062"/>
      </g>
     </g>
     <g id="text_5">
      <!-- 256 -->
      <defs>
       <path d="M 10.796875 72.90625 
L 49.515625 72.90625 
L 49.515625 64.59375 
L 19.828125 64.59375 
L 19.828125 46.734375 
Q 21.96875 47.46875 24.109375 47.828125 
Q 26.265625 48.1875 28.421875 48.1875 
Q 40.625 48.1875 47.75 41.5 
Q 54.890625 34.8125 54.890625 23.390625 
Q 54.890625 11.625 47.5625 5.09375 
Q 40.234375 -1.421875 26.90625 -1.421875 
Q 22.3125 -1.421875 17.546875 -0.640625 
Q 12.796875 0.140625 7.71875 1.703125 
L 7.71875 11.625 
Q 12.109375 9.234375 16.796875 8.0625 
Q 21.484375 6.890625 26.703125 6.890625 
Q 35.15625 6.890625 40.078125 11.328125 
Q 45.015625 15.765625 45.015625 23.390625 
Q 45.015625 31 40.078125 35.4375 
Q 35.15625 39.890625 26.703125 39.890625 
Q 22.75 39.890625 18.8125 39.015625 
Q 14.890625 38.140625 10.796875 36.28125 
z
" id="DejaVuSans-53"/>
      </defs>
      <g transform="translate(247.956741 309.517812)scale(0.08 -0.08)">
       <use xlink:href="#DejaVuSans-50"/>
       <use x="63.623047" xlink:href="#DejaVuSans-53"/>
       <use x="127.246094" xlink:href="#DejaVuSans-54"/>
      </g>
     </g>
    </g>
    <g id="xtick_6">
     <g id="line2d_6">
      <g>
       <use style="stroke:#000000;stroke-width:0.8;" x="308.734598" xlink:href="#mfc86fdaecd" y="296.439062"/>
      </g>
     </g>
     <g id="text_6">
      <!-- 320 -->
      <defs>
       <path d="M 40.578125 39.3125 
Q 47.65625 37.796875 51.625 33 
Q 55.609375 28.21875 55.609375 21.1875 
Q 55.609375 10.40625 48.1875 4.484375 
Q 40.765625 -1.421875 27.09375 -1.421875 
Q 22.515625 -1.421875 17.65625 -0.515625 
Q 12.796875 0.390625 7.625 2.203125 
L 7.625 11.71875 
Q 11.71875 9.328125 16.59375 8.109375 
Q 21.484375 6.890625 26.8125 6.890625 
Q 36.078125 6.890625 40.9375 10.546875 
Q 45.796875 14.203125 45.796875 21.1875 
Q 45.796875 27.640625 41.28125 31.265625 
Q 36.765625 34.90625 28.71875 34.90625 
L 20.21875 34.90625 
L 20.21875 43.015625 
L 29.109375 43.015625 
Q 36.375 43.015625 40.234375 45.921875 
Q 44.09375 48.828125 44.09375 54.296875 
Q 44.09375 59.90625 40.109375 62.90625 
Q 36.140625 65.921875 28.71875 65.921875 
Q 24.65625 65.921875 20.015625 65.03125 
Q 15.375 64.15625 9.8125 62.3125 
L 9.8125 71.09375 
Q 15.4375 72.65625 20.34375 73.4375 
Q 25.25 74.21875 29.59375 74.21875 
Q 40.828125 74.21875 47.359375 69.109375 
Q 53.90625 64.015625 53.90625 55.328125 
Q 53.90625 49.265625 50.4375 45.09375 
Q 46.96875 40.921875 40.578125 39.3125 
z
" id="DejaVuSans-51"/>
      </defs>
      <g transform="translate(301.099598 309.517812)scale(0.08 -0.08)">
       <use xlink:href="#DejaVuSans-51"/>
       <use x="63.623047" xlink:href="#DejaVuSans-50"/>
       <use x="127.246094" xlink:href="#DejaVuSans-48"/>
      </g>
     </g>
    </g>
    <g id="text_7">
     <!-- DNA length -->
     <defs>
      <path d="M 19.671875 64.796875 
L 19.671875 8.109375 
L 31.59375 8.109375 
Q 46.6875 8.109375 53.6875 14.9375 
Q 60.6875 21.78125 60.6875 36.53125 
Q 60.6875 51.171875 53.6875 57.984375 
Q 46.6875 64.796875 31.59375 64.796875 
z
M 9.8125 72.90625 
L 30.078125 72.90625 
Q 51.265625 72.90625 61.171875 64.09375 
Q 71.09375 55.28125 71.09375 36.53125 
Q 71.09375 17.671875 61.125 8.828125 
Q 51.171875 0 30.078125 0 
L 9.8125 0 
z
" id="DejaVuSans-68"/>
      <path d="M 9.8125 72.90625 
L 23.09375 72.90625 
L 55.421875 11.921875 
L 55.421875 72.90625 
L 64.984375 72.90625 
L 64.984375 0 
L 51.703125 0 
L 19.390625 60.984375 
L 19.390625 0 
L 9.8125 0 
z
" id="DejaVuSans-78"/>
      <path d="M 34.1875 63.1875 
L 20.796875 26.90625 
L 47.609375 26.90625 
z
M 28.609375 72.90625 
L 39.796875 72.90625 
L 67.578125 0 
L 57.328125 0 
L 50.6875 18.703125 
L 17.828125 18.703125 
L 11.1875 0 
L 0.78125 0 
z
" id="DejaVuSans-65"/>
      <path id="DejaVuSans-32"/>
      <path d="M 9.421875 75.984375 
L 18.40625 75.984375 
L 18.40625 0 
L 9.421875 0 
z
" id="DejaVuSans-108"/>
      <path d="M 56.203125 29.59375 
L 56.203125 25.203125 
L 14.890625 25.203125 
Q 15.484375 15.921875 20.484375 11.0625 
Q 25.484375 6.203125 34.421875 6.203125 
Q 39.59375 6.203125 44.453125 7.46875 
Q 49.3125 8.734375 54.109375 11.28125 
L 54.109375 2.78125 
Q 49.265625 0.734375 44.1875 -0.34375 
Q 39.109375 -1.421875 33.890625 -1.421875 
Q 20.796875 -1.421875 13.15625 6.1875 
Q 5.515625 13.8125 5.515625 26.8125 
Q 5.515625 40.234375 12.765625 48.109375 
Q 20.015625 56 32.328125 56 
Q 43.359375 56 49.78125 48.890625 
Q 56.203125 41.796875 56.203125 29.59375 
z
M 47.21875 32.234375 
Q 47.125 39.59375 43.09375 43.984375 
Q 39.0625 48.390625 32.421875 48.390625 
Q 24.90625 48.390625 20.390625 44.140625 
Q 15.875 39.890625 15.1875 32.171875 
z
" id="DejaVuSans-101"/>
      <path d="M 54.890625 33.015625 
L 54.890625 0 
L 45.90625 0 
L 45.90625 32.71875 
Q 45.90625 40.484375 42.875 44.328125 
Q 39.84375 48.1875 33.796875 48.1875 
Q 26.515625 48.1875 22.3125 43.546875 
Q 18.109375 38.921875 18.109375 30.90625 
L 18.109375 0 
L 9.078125 0 
L 9.078125 54.6875 
L 18.109375 54.6875 
L 18.109375 46.1875 
Q 21.34375 51.125 25.703125 53.5625 
Q 30.078125 56 35.796875 56 
Q 45.21875 56 50.046875 50.171875 
Q 54.890625 44.34375 54.890625 33.015625 
z
" id="DejaVuSans-110"/>
      <path d="M 45.40625 27.984375 
Q 45.40625 37.75 41.375 43.109375 
Q 37.359375 48.484375 30.078125 48.484375 
Q 22.859375 48.484375 18.828125 43.109375 
Q 14.796875 37.75 14.796875 27.984375 
Q 14.796875 18.265625 18.828125 12.890625 
Q 22.859375 7.515625 30.078125 7.515625 
Q 37.359375 7.515625 41.375 12.890625 
Q 45.40625 18.265625 45.40625 27.984375 
z
M 54.390625 6.78125 
Q 54.390625 -7.171875 48.1875 -13.984375 
Q 42 -20.796875 29.203125 -20.796875 
Q 24.46875 -20.796875 20.265625 -20.09375 
Q 16.0625 -19.390625 12.109375 -17.921875 
L 12.109375 -9.1875 
Q 16.0625 -11.328125 19.921875 -12.34375 
Q 23.78125 -13.375 27.78125 -13.375 
Q 36.625 -13.375 41.015625 -8.765625 
Q 45.40625 -4.15625 45.40625 5.171875 
L 45.40625 9.625 
Q 42.625 4.78125 38.28125 2.390625 
Q 33.9375 0 27.875 0 
Q 17.828125 0 11.671875 7.65625 
Q 5.515625 15.328125 5.515625 27.984375 
Q 5.515625 40.671875 11.671875 48.328125 
Q 17.828125 56 27.875 56 
Q 33.9375 56 38.28125 53.609375 
Q 42.625 51.21875 45.40625 46.390625 
L 45.40625 54.6875 
L 54.390625 54.6875 
z
" id="DejaVuSans-103"/>
      <path d="M 18.3125 70.21875 
L 18.3125 54.6875 
L 36.8125 54.6875 
L 36.8125 47.703125 
L 18.3125 47.703125 
L 18.3125 18.015625 
Q 18.3125 11.328125 20.140625 9.421875 
Q 21.96875 7.515625 27.59375 7.515625 
L 36.8125 7.515625 
L 36.8125 0 
L 27.59375 0 
Q 17.1875 0 13.234375 3.875 
Q 9.28125 7.765625 9.28125 18.015625 
L 9.28125 47.703125 
L 2.6875 47.703125 
L 2.6875 54.6875 
L 9.28125 54.6875 
L 9.28125 70.21875 
z
" id="DejaVuSans-116"/>
      <path d="M 54.890625 33.015625 
L 54.890625 0 
L 45.90625 0 
L 45.90625 32.71875 
Q 45.90625 40.484375 42.875 44.328125 
Q 39.84375 48.1875 33.796875 48.1875 
Q 26.515625 48.1875 22.3125 43.546875 
Q 18.109375 38.921875 18.109375 30.90625 
L 18.109375 0 
L 9.078125 0 
L 9.078125 75.984375 
L 18.109375 75.984375 
L 18.109375 46.1875 
Q 21.34375 51.125 25.703125 53.5625 
Q 30.078125 56 35.796875 56 
Q 45.21875 56 50.046875 50.171875 
Q 54.890625 44.34375 54.890625 33.015625 
z
" id="DejaVuSans-104"/>
     </defs>
     <g transform="translate(153.047455 321.260312)scale(0.08 -0.08)">
      <use xlink:href="#DejaVuSans-68"/>
      <use x="77.001953" xlink:href="#DejaVuSans-78"/>
      <use x="151.806641" xlink:href="#DejaVuSans-65"/>
      <use x="220.214844" xlink:href="#DejaVuSans-32"/>
      <use x="252.001953" xlink:href="#DejaVuSans-108"/>
      <use x="279.785156" xlink:href="#DejaVuSans-101"/>
      <use x="341.308594" xlink:href="#DejaVuSans-110"/>
      <use x="404.6875" xlink:href="#DejaVuSans-103"/>
      <use x="468.164062" xlink:href="#DejaVuSans-116"/>
      <use x="507.373047" xlink:href="#DejaVuSans-104"/>
     </g>
    </g>
   </g>
   <g id="matplotlib.axis_2">
    <g id="ytick_1">
     <g id="line2d_7">
      <defs>
       <path d="M 0 0 
L -3.5 0 
" id="mc955702410" style="stroke:#000000;stroke-width:0.8;"/>
      </defs>
      <g>
       <use style="stroke:#000000;stroke-width:0.8;" x="43.020313" xlink:href="#mc955702410" y="296.439062"/>
      </g>
     </g>
     <g id="text_8">
      <!-- 0 -->
      <g transform="translate(30.930313 299.478437)scale(0.08 -0.08)">
       <use xlink:href="#DejaVuSans-48"/>
      </g>
     </g>
    </g>
    <g id="ytick_2">
     <g id="line2d_8">
      <g>
       <use style="stroke:#000000;stroke-width:0.8;" x="43.020313" xlink:href="#mc955702410" y="227.139062"/>
      </g>
     </g>
     <g id="text_9">
      <!-- 128 -->
      <g transform="translate(20.750313 230.178437)scale(0.08 -0.08)">
       <use xlink:href="#DejaVuSans-49"/>
       <use x="63.623047" xlink:href="#DejaVuSans-50"/>
       <use x="127.246094" xlink:href="#DejaVuSans-56"/>
      </g>
     </g>
    </g>
    <g id="ytick_3">
     <g id="line2d_9">
      <g>
       <use style="stroke:#000000;stroke-width:0.8;" x="43.020313" xlink:href="#mc955702410" y="157.839062"/>
      </g>
     </g>
     <g id="text_10">
      <!-- 256 -->
      <g transform="translate(20.750313 160.878437)scale(0.08 -0.08)">
       <use xlink:href="#DejaVuSans-50"/>
       <use x="63.623047" xlink:href="#DejaVuSans-53"/>
       <use x="127.246094" xlink:href="#DejaVuSans-54"/>
      </g>
     </g>
    </g>
    <g id="ytick_4">
     <g id="line2d_10">
      <g>
       <use style="stroke:#000000;stroke-width:0.8;" x="43.020313" xlink:href="#mc955702410" y="88.539062"/>
      </g>
     </g>
     <g id="text_11">
      <!-- 384 -->
      <g transform="translate(20.750313 91.578437)scale(0.08 -0.08)">
       <use xlink:href="#DejaVuSans-51"/>
       <use x="63.623047" xlink:href="#DejaVuSans-56"/>
       <use x="127.246094" xlink:href="#DejaVuSans-52"/>
      </g>
     </g>
    </g>
    <g id="ytick_5">
     <g id="line2d_11">
      <g>
       <use style="stroke:#000000;stroke-width:0.8;" x="43.020313" xlink:href="#mc955702410" y="19.239062"/>
      </g>
     </g>
     <g id="text_12">
      <!-- 512 -->
      <g transform="translate(20.750313 22.278437)scale(0.08 -0.08)">
       <use xlink:href="#DejaVuSans-53"/>
       <use x="63.623047" xlink:href="#DejaVuSans-49"/>
       <use x="127.246094" xlink:href="#DejaVuSans-50"/>
      </g>
     </g>
    </g>
    <g id="text_13">
     <!-- key strength -->
     <defs>
      <path d="M 9.078125 75.984375 
L 18.109375 75.984375 
L 18.109375 31.109375 
L 44.921875 54.6875 
L 56.390625 54.6875 
L 27.390625 29.109375 
L 57.625 0 
L 45.90625 0 
L 18.109375 26.703125 
L 18.109375 0 
L 9.078125 0 
z
" id="DejaVuSans-107"/>
      <path d="M 32.171875 -5.078125 
Q 28.375 -14.84375 24.75 -17.8125 
Q 21.140625 -20.796875 15.09375 -20.796875 
L 7.90625 -20.796875 
L 7.90625 -13.28125 
L 13.1875 -13.28125 
Q 16.890625 -13.28125 18.9375 -11.515625 
Q 21 -9.765625 23.484375 -3.21875 
L 25.09375 0.875 
L 2.984375 54.6875 
L 12.5 54.6875 
L 29.59375 11.921875 
L 46.6875 54.6875 
L 56.203125 54.6875 
z
" id="DejaVuSans-121"/>
      <path d="M 44.28125 53.078125 
L 44.28125 44.578125 
Q 40.484375 46.53125 36.375 47.5 
Q 32.28125 48.484375 27.875 48.484375 
Q 21.1875 48.484375 17.84375 46.4375 
Q 14.5 44.390625 14.5 40.28125 
Q 14.5 37.15625 16.890625 35.375 
Q 19.28125 33.59375 26.515625 31.984375 
L 29.59375 31.296875 
Q 39.15625 29.25 43.1875 25.515625 
Q 47.21875 21.78125 47.21875 15.09375 
Q 47.21875 7.46875 41.1875 3.015625 
Q 35.15625 -1.421875 24.609375 -1.421875 
Q 20.21875 -1.421875 15.453125 -0.5625 
Q 10.6875 0.296875 5.421875 2 
L 5.421875 11.28125 
Q 10.40625 8.6875 15.234375 7.390625 
Q 20.0625 6.109375 24.8125 6.109375 
Q 31.15625 6.109375 34.5625 8.28125 
Q 37.984375 10.453125 37.984375 14.40625 
Q 37.984375 18.0625 35.515625 20.015625 
Q 33.0625 21.96875 24.703125 23.78125 
L 21.578125 24.515625 
Q 13.234375 26.265625 9.515625 29.90625 
Q 5.8125 33.546875 5.8125 39.890625 
Q 5.8125 47.609375 11.28125 51.796875 
Q 16.75 56 26.8125 56 
Q 31.78125 56 36.171875 55.265625 
Q 40.578125 54.546875 44.28125 53.078125 
z
" id="DejaVuSans-115"/>
      <path d="M 41.109375 46.296875 
Q 39.59375 47.171875 37.8125 47.578125 
Q 36.03125 48 33.890625 48 
Q 26.265625 48 22.1875 43.046875 
Q 18.109375 38.09375 18.109375 28.8125 
L 18.109375 0 
L 9.078125 0 
L 9.078125 54.6875 
L 18.109375 54.6875 
L 18.109375 46.1875 
Q 20.953125 51.171875 25.484375 53.578125 
Q 30.03125 56 36.53125 56 
Q 37.453125 56 38.578125 55.875 
Q 39.703125 55.765625 41.0625 55.515625 
z
" id="DejaVuSans-114"/>
     </defs>
     <g transform="translate(15.086563 183.187187)rotate(-90)scale(0.08 -0.08)">
      <use xlink:href="#DejaVuSans-107"/>
      <use x="57.863281" xlink:href="#DejaVuSans-101"/>
      <use x="119.386719" xlink:href="#DejaVuSans-121"/>
      <use x="178.566406" xlink:href="#DejaVuSans-32"/>
      <use x="210.353516" xlink:href="#DejaVuSans-115"/>
      <use x="262.453125" xlink:href="#DejaVuSans-116"/>
      <use x="301.662109" xlink:href="#DejaVuSans-114"/>
      <use x="342.744141" xlink:href="#DejaVuSans-101"/>
      <use x="404.267578" xlink:href="#DejaVuSans-110"/>
      <use x="467.646484" xlink:href="#DejaVuSans-103"/>
      <use x="531.123047" xlink:href="#DejaVuSans-116"/>
      <use x="570.332031" xlink:href="#DejaVuSans-104"/>
     </g>
    </g>
   </g>
   <g id="line2d_12">
    <path clip-path="url(#pc98cac0a0c)" d="M 43.020313 296.439062 
L 308.734598 123.189062 
L 308.734598 123.189062 
" style="fill:none;stroke:#8000ff;stroke-linecap:square;stroke-opacity:0.5;stroke-width:2;"/>
   </g>
   <g id="line2d_13">
    <path clip-path="url(#pc98cac0a0c)" d="M 43.020313 296.439062 
L 308.734598 21.844309 
L 308.734598 21.844309 
" style="fill:none;stroke:#5247fc;stroke-linecap:square;stroke-opacity:0.5;stroke-width:2;"/>
   </g>
   <g id="line2d_14">
    <path clip-path="url(#pc98cac0a0c)" d="M 43.020313 296.439062 
L 308.734598 13.999518 
L 308.734598 13.999518 
" style="fill:none;stroke:#2489f5;stroke-linecap:square;stroke-opacity:0.5;stroke-width:2;"/>
   </g>
   <g id="line2d_15">
    <path clip-path="url(#pc98cac0a0c)" d="M 43.020313 296.439062 
L 308.734598 9.586963 
L 308.734598 9.586963 
" style="fill:none;stroke:#0ac0e8;stroke-linecap:square;stroke-opacity:0.5;stroke-width:2;"/>
   </g>
   <g id="line2d_16">
    <path clip-path="url(#pc98cac0a0c)" d="M 43.020313 296.439062 
L 300.069451 -1 
L 300.069451 -1 
" style="fill:none;stroke:#3ae8d6;stroke-linecap:square;stroke-opacity:0.5;stroke-width:2;"/>
   </g>
   <g id="line2d_17">
    <path clip-path="url(#pc98cac0a0c)" d="M 43.020313 296.439062 
L 297.049405 -1 
L 297.049405 -1 
" style="fill:none;stroke:#68fcc1;stroke-linecap:square;stroke-opacity:0.5;stroke-width:2;"/>
   </g>
   <g id="line2d_18">
    <path clip-path="url(#pc98cac0a0c)" d="M 43.020313 296.439062 
L 294.877637 -1 
L 294.877637 -1 
" style="fill:none;stroke:#96fca7;stroke-linecap:square;stroke-opacity:0.5;stroke-width:2;"/>
   </g>
   <g id="line2d_19">
    <path clip-path="url(#pc98cac0a0c)" d="M 43.020313 296.439062 
L 294.329498 -1 
L 294.329498 -1 
" style="fill:none;stroke:#c4e88a;stroke-linecap:square;stroke-opacity:0.5;stroke-width:2;"/>
   </g>
   <g id="line2d_20">
    <path clip-path="url(#pc98cac0a0c)" d="M 43.020313 296.439062 
L 273.142472 -1 
L 273.142472 -1 
" style="fill:none;stroke:#f4c069;stroke-linecap:square;stroke-opacity:0.5;stroke-width:2;"/>
   </g>
   <g id="line2d_21">
    <path clip-path="url(#pc98cac0a0c)" d="M 43.020313 296.439062 
L 271.601674 -1 
L 271.601674 -1 
" style="fill:none;stroke:#ff8947;stroke-linecap:square;stroke-opacity:0.5;stroke-width:2;"/>
   </g>
   <g id="line2d_22">
    <path clip-path="url(#pc98cac0a0c)" d="M 43.020313 296.439062 
L 271.233171 -1 
L 271.233171 -1 
" style="fill:none;stroke:#ff4724;stroke-linecap:square;stroke-opacity:0.5;stroke-width:2;"/>
   </g>
   <g id="line2d_23">
    <path clip-path="url(#pc98cac0a0c)" d="M 43.020313 296.439062 
L 271.142277 -1 
L 271.142277 -1 
" style="fill:none;stroke:#ff0000;stroke-linecap:square;stroke-opacity:0.5;stroke-width:2;"/>
   </g>
   <g id="patch_3">
    <path d="M 43.020313 296.439062 
L 43.020313 19.239062 
" style="fill:none;stroke:#000000;stroke-linecap:square;stroke-linejoin:miter;stroke-width:0.8;"/>
   </g>
   <g id="patch_4">
    <path d="M 308.734598 296.439062 
L 308.734598 19.239062 
" style="fill:none;stroke:#000000;stroke-linecap:square;stroke-linejoin:miter;stroke-width:0.8;"/>
   </g>
   <g id="patch_5">
    <path d="M 43.020313 296.439062 
L 308.734598 296.439062 
" style="fill:none;stroke:#000000;stroke-linecap:square;stroke-linejoin:miter;stroke-width:0.8;"/>
   </g>
   <g id="patch_6">
    <path d="M 43.020313 19.239062 
L 308.734598 19.239062 
" style="fill:none;stroke:#000000;stroke-linecap:square;stroke-linejoin:miter;stroke-width:0.8;"/>
   </g>
   <g id="text_14">
    <!-- reference -->
    <defs>
     <path d="M 37.109375 75.984375 
L 37.109375 68.5 
L 28.515625 68.5 
Q 23.6875 68.5 21.796875 66.546875 
Q 19.921875 64.59375 19.921875 59.515625 
L 19.921875 54.6875 
L 34.71875 54.6875 
L 34.71875 47.703125 
L 19.921875 47.703125 
L 19.921875 0 
L 10.890625 0 
L 10.890625 47.703125 
L 2.296875 47.703125 
L 2.296875 54.6875 
L 10.890625 54.6875 
L 10.890625 58.5 
Q 10.890625 67.625 15.140625 71.796875 
Q 19.390625 75.984375 28.609375 75.984375 
z
" id="DejaVuSans-102"/>
     <path d="M 48.78125 52.59375 
L 48.78125 44.1875 
Q 44.96875 46.296875 41.140625 47.34375 
Q 37.3125 48.390625 33.40625 48.390625 
Q 24.65625 48.390625 19.8125 42.84375 
Q 14.984375 37.3125 14.984375 27.296875 
Q 14.984375 17.28125 19.8125 11.734375 
Q 24.65625 6.203125 33.40625 6.203125 
Q 37.3125 6.203125 41.140625 7.25 
Q 44.96875 8.296875 48.78125 10.40625 
L 48.78125 2.09375 
Q 45.015625 0.34375 40.984375 -0.53125 
Q 36.96875 -1.421875 32.421875 -1.421875 
Q 20.0625 -1.421875 12.78125 6.34375 
Q 5.515625 14.109375 5.515625 27.296875 
Q 5.515625 40.671875 12.859375 48.328125 
Q 20.21875 56 33.015625 56 
Q 37.15625 56 41.109375 55.140625 
Q 45.0625 54.296875 48.78125 52.59375 
z
" id="DejaVuSans-99"/>
    </defs>
    <g transform="translate(46.341741 154.009687)scale(0.08 -0.08)">
     <use xlink:href="#DejaVuSans-114"/>
     <use x="41.082031" xlink:href="#DejaVuSans-101"/>
     <use x="102.605469" xlink:href="#DejaVuSans-102"/>
     <use x="137.810547" xlink:href="#DejaVuSans-101"/>
     <use x="199.333984" xlink:href="#DejaVuSans-114"/>
     <use x="240.416016" xlink:href="#DejaVuSans-101"/>
     <use x="301.939453" xlink:href="#DejaVuSans-110"/>
     <use x="365.318359" xlink:href="#DejaVuSans-99"/>
     <use x="420.298828" xlink:href="#DejaVuSans-101"/>
    </g>
   </g>
   <g id="PathCollection_1">
    <defs>
     <path d="M 0 2.236068 
C 0.593012 2.236068 1.161816 2.000462 1.581139 1.581139 
C 2.000462 1.161816 2.236068 0.593012 2.236068 0 
C 2.236068 -0.593012 2.000462 -1.161816 1.581139 -1.581139 
C 1.161816 -2.000462 0.593012 -2.236068 0 -2.236068 
C -0.593012 -2.236068 -1.161816 -2.000462 -1.581139 -1.581139 
C -2.000462 -1.161816 -2.236068 -0.593012 -2.236068 0 
C -2.236068 0.593012 -2.000462 1.161816 -1.581139 1.581139 
C -1.161816 2.000462 -0.593012 2.236068 0 2.236068 
z
" id="m611131b510" style="stroke:#000000;"/>
    </defs>
    <g clip-path="url(#pc98cac0a0c)">
     <use style="fill:#8000ff;stroke:#000000;" x="255.591741" xlink:href="#m611131b510" y="157.839062"/>
    </g>
   </g>
   <g id="PathCollection_2">
    <defs>
     <path d="M 0 2.236068 
C 0.593012 2.236068 1.161816 2.000462 1.581139 1.581139 
C 2.000462 1.161816 2.236068 0.593012 2.236068 0 
C 2.236068 -0.593012 2.000462 -1.161816 1.581139 -1.581139 
C 1.161816 -2.000462 0.593012 -2.236068 0 -2.236068 
C -0.593012 -2.236068 -1.161816 -2.000462 -1.581139 -1.581139 
C -2.000462 -1.161816 -2.236068 -0.593012 -2.236068 0 
C -2.236068 0.593012 -2.000462 1.161816 -1.581139 1.581139 
C -1.161816 2.000462 -0.593012 2.236068 0 2.236068 
z
" id="m866663f84d" style="stroke:#000000;"/>
    </defs>
    <g clip-path="url(#pc98cac0a0c)">
     <use style="fill:#5247fc;stroke:#000000;" x="177.137952" xlink:href="#m866663f84d" y="157.839062"/>
    </g>
   </g>
   <g id="PathCollection_3">
    <defs>
     <path d="M 0 2.236068 
C 0.593012 2.236068 1.161816 2.000462 1.581139 1.581139 
C 2.000462 1.161816 2.236068 0.593012 2.236068 0 
C 2.236068 -0.593012 2.000462 -1.161816 1.581139 -1.581139 
C 1.161816 -2.000462 0.593012 -2.236068 0 -2.236068 
C -0.593012 -2.236068 -1.161816 -2.000462 -1.581139 -1.581139 
C -2.000462 -1.161816 -2.236068 -0.593012 -2.236068 0 
C -2.236068 0.593012 -2.000462 1.161816 -1.581139 1.581139 
C -1.161816 2.000462 -0.593012 2.236068 0 2.236068 
z
" id="m08620c3ca7" style="stroke:#000000;"/>
    </defs>
    <g clip-path="url(#pc98cac0a0c)">
     <use style="fill:#2489f5;stroke:#000000;" x="173.412818" xlink:href="#m08620c3ca7" y="157.839062"/>
    </g>
   </g>
   <g id="PathCollection_4">
    <defs>
     <path d="M 0 2.236068 
C 0.593012 2.236068 1.161816 2.000462 1.581139 1.581139 
C 2.000462 1.161816 2.236068 0.593012 2.236068 0 
C 2.236068 -0.593012 2.000462 -1.161816 1.581139 -1.581139 
C 1.161816 -2.000462 0.593012 -2.236068 0 -2.236068 
C -0.593012 -2.236068 -1.161816 -2.000462 -1.581139 -1.581139 
C -2.000462 -1.161816 -2.236068 -0.593012 -2.236068 0 
C -2.236068 0.593012 -2.000462 1.161816 -1.581139 1.581139 
C -1.161816 2.000462 -0.593012 2.236068 0 2.236068 
z
" id="m5dc7252513" style="stroke:#000000;"/>
    </defs>
    <g clip-path="url(#pc98cac0a0c)">
     <use style="fill:#0ac0e8;stroke:#000000;" x="171.407032" xlink:href="#m5dc7252513" y="157.839062"/>
    </g>
   </g>
   <g id="PathCollection_5">
    <defs>
     <path d="M 0 2.236068 
C 0.593012 2.236068 1.161816 2.000462 1.581139 1.581139 
C 2.000462 1.161816 2.236068 0.593012 2.236068 0 
C 2.236068 -0.593012 2.000462 -1.161816 1.581139 -1.581139 
C 1.161816 -2.000462 0.593012 -2.236068 0 -2.236068 
C -0.593012 -2.236068 -1.161816 -2.000462 -1.581139 -1.581139 
C -2.000462 -1.161816 -2.236068 -0.593012 -2.236068 0 
C -2.236068 0.593012 -2.000462 1.161816 -1.581139 1.581139 
C -1.161816 2.000462 -0.593012 2.236068 0 2.236068 
z
" id="m04ceada992" style="stroke:#000000;"/>
    </defs>
    <g clip-path="url(#pc98cac0a0c)">
     <use style="fill:#3ae8d6;stroke:#000000;" x="162.799504" xlink:href="#m04ceada992" y="157.839062"/>
    </g>
   </g>
   <g id="PathCollection_6">
    <defs>
     <path d="M 0 2.236068 
C 0.593012 2.236068 1.161816 2.000462 1.581139 1.581139 
C 2.000462 1.161816 2.236068 0.593012 2.236068 0 
C 2.236068 -0.593012 2.000462 -1.161816 1.581139 -1.581139 
C 1.161816 -2.000462 0.593012 -2.236068 0 -2.236068 
C -0.593012 -2.236068 -1.161816 -2.000462 -1.581139 -1.581139 
C -2.000462 -1.161816 -2.236068 -0.593012 -2.236068 0 
C -2.236068 0.593012 -2.000462 1.161816 -1.581139 1.581139 
C -1.161816 2.000462 -0.593012 2.236068 0 2.236068 
z
" id="me4f1581893" style="stroke:#000000;"/>
    </defs>
    <g clip-path="url(#pc98cac0a0c)">
     <use style="fill:#68fcc1;stroke:#000000;" x="161.39223" xlink:href="#me4f1581893" y="157.839062"/>
    </g>
   </g>
   <g id="PathCollection_7">
    <defs>
     <path d="M 0 2.236068 
C 0.593012 2.236068 1.161816 2.000462 1.581139 1.581139 
C 2.000462 1.161816 2.236068 0.593012 2.236068 0 
C 2.236068 -0.593012 2.000462 -1.161816 1.581139 -1.581139 
C 1.161816 -2.000462 0.593012 -2.236068 0 -2.236068 
C -0.593012 -2.236068 -1.161816 -2.000462 -1.581139 -1.581139 
C -2.000462 -1.161816 -2.236068 -0.593012 -2.236068 0 
C -2.236068 0.593012 -2.000462 1.161816 -1.581139 1.581139 
C -1.161816 2.000462 -0.593012 2.236068 0 2.236068 
z
" id="mad861fbbeb" style="stroke:#000000;"/>
    </defs>
    <g clip-path="url(#pc98cac0a0c)">
     <use style="fill:#96fca7;stroke:#000000;" x="160.380235" xlink:href="#mad861fbbeb" y="157.839062"/>
    </g>
   </g>
   <g id="PathCollection_8">
    <defs>
     <path d="M 0 2.236068 
C 0.593012 2.236068 1.161816 2.000462 1.581139 1.581139 
C 2.000462 1.161816 2.236068 0.593012 2.236068 0 
C 2.236068 -0.593012 2.000462 -1.161816 1.581139 -1.581139 
C 1.161816 -2.000462 0.593012 -2.236068 0 -2.236068 
C -0.593012 -2.236068 -1.161816 -2.000462 -1.581139 -1.581139 
C -2.000462 -1.161816 -2.236068 -0.593012 -2.236068 0 
C -2.236068 0.593012 -2.000462 1.161816 -1.581139 1.581139 
C -1.161816 2.000462 -0.593012 2.236068 0 2.236068 
z
" id="m5fed08583e" style="stroke:#000000;"/>
    </defs>
    <g clip-path="url(#pc98cac0a0c)">
     <use style="fill:#c4e88a;stroke:#000000;" x="160.124814" xlink:href="#m5fed08583e" y="157.839062"/>
    </g>
   </g>
   <g id="PathCollection_9">
    <defs>
     <path d="M 0 2.236068 
C 0.593012 2.236068 1.161816 2.000462 1.581139 1.581139 
C 2.000462 1.161816 2.236068 0.593012 2.236068 0 
C 2.236068 -0.593012 2.000462 -1.161816 1.581139 -1.581139 
C 1.161816 -2.000462 0.593012 -2.236068 0 -2.236068 
C -0.593012 -2.236068 -1.161816 -2.000462 -1.581139 -1.581139 
C -2.000462 -1.161816 -2.236068 -0.593012 -2.236068 0 
C -2.236068 0.593012 -2.000462 1.161816 -1.581139 1.581139 
C -1.161816 2.000462 -0.593012 2.236068 0 2.236068 
z
" id="m6613e4ae4f" style="stroke:#000000;"/>
    </defs>
    <g clip-path="url(#pc98cac0a0c)">
     <use style="fill:#f4c069;stroke:#000000;" x="150.25213" xlink:href="#m6613e4ae4f" y="157.839062"/>
    </g>
   </g>
   <g id="PathCollection_10">
    <defs>
     <path d="M 0 2.236068 
C 0.593012 2.236068 1.161816 2.000462 1.581139 1.581139 
C 2.000462 1.161816 2.236068 0.593012 2.236068 0 
C 2.236068 -0.593012 2.000462 -1.161816 1.581139 -1.581139 
C 1.161816 -2.000462 0.593012 -2.236068 0 -2.236068 
C -0.593012 -2.236068 -1.161816 -2.000462 -1.581139 -1.581139 
C -2.000462 -1.161816 -2.236068 -0.593012 -2.236068 0 
C -2.236068 0.593012 -2.000462 1.161816 -1.581139 1.581139 
C -1.161816 2.000462 -0.593012 2.236068 0 2.236068 
z
" id="m68c0ad2776" style="stroke:#000000;"/>
    </defs>
    <g clip-path="url(#pc98cac0a0c)">
     <use style="fill:#ff8947;stroke:#000000;" x="149.534153" xlink:href="#m68c0ad2776" y="157.839062"/>
    </g>
   </g>
   <g id="PathCollection_11">
    <defs>
     <path d="M 0 2.236068 
C 0.593012 2.236068 1.161816 2.000462 1.581139 1.581139 
C 2.000462 1.161816 2.236068 0.593012 2.236068 0 
C 2.236068 -0.593012 2.000462 -1.161816 1.581139 -1.581139 
C 1.161816 -2.000462 0.593012 -2.236068 0 -2.236068 
C -0.593012 -2.236068 -1.161816 -2.000462 -1.581139 -1.581139 
C -2.000462 -1.161816 -2.236068 -0.593012 -2.236068 0 
C -2.236068 0.593012 -2.000462 1.161816 -1.581139 1.581139 
C -1.161816 2.000462 -0.593012 2.236068 0 2.236068 
z
" id="mcb64216ff7" style="stroke:#000000;"/>
    </defs>
    <g clip-path="url(#pc98cac0a0c)">
     <use style="fill:#ff4724;stroke:#000000;" x="149.362438" xlink:href="#mcb64216ff7" y="157.839062"/>
    </g>
   </g>
   <g id="PathCollection_12">
    <defs>
     <path d="M 0 2.236068 
C 0.593012 2.236068 1.161816 2.000462 1.581139 1.581139 
C 2.000462 1.161816 2.236068 0.593012 2.236068 0 
C 2.236068 -0.593012 2.000462 -1.161816 1.581139 -1.581139 
C 1.161816 -2.000462 0.593012 -2.236068 0 -2.236068 
C -0.593012 -2.236068 -1.161816 -2.000462 -1.581139 -1.581139 
C -2.000462 -1.161816 -2.236068 -0.593012 -2.236068 0 
C -2.236068 0.593012 -2.000462 1.161816 -1.581139 1.581139 
C -1.161816 2.000462 -0.593012 2.236068 0 2.236068 
z
" id="m83020a6cc4" style="stroke:#000000;"/>
    </defs>
    <g clip-path="url(#pc98cac0a0c)">
     <use style="fill:#ff0000;stroke:#000000;" x="149.320084" xlink:href="#m83020a6cc4" y="157.839062"/>
    </g>
   </g>
   <g id="legend_1">
    <g id="patch_7">
     <path d="M 48.620313 96.094062 
L 206.535313 96.094062 
Q 208.135312 96.094062 208.135312 94.494062 
L 208.135312 24.839062 
Q 208.135312 23.239062 206.535313 23.239062 
L 48.620313 23.239062 
Q 47.020313 23.239062 47.020313 24.839062 
L 47.020313 94.494062 
Q 47.020313 96.094062 48.620313 96.094062 
z
" style="fill:#ffffff;opacity:0.8;stroke:#cccccc;stroke-linejoin:miter;"/>
    </g>
    <g id="PathCollection_13">
     <g>
      <use style="fill:#8000ff;stroke:#000000;" x="58.220313" xlink:href="#m611131b510" y="30.417812"/>
     </g>
    </g>
    <g id="text_15">
     <!-- [01] 256.00 -->
     <defs>
      <path d="M 8.59375 75.984375 
L 29.296875 75.984375 
L 29.296875 69 
L 17.578125 69 
L 17.578125 -6.203125 
L 29.296875 -6.203125 
L 29.296875 -13.1875 
L 8.59375 -13.1875 
z
" id="DejaVuSans-91"/>
      <path d="M 30.421875 75.984375 
L 30.421875 -13.1875 
L 9.71875 -13.1875 
L 9.71875 -6.203125 
L 21.390625 -6.203125 
L 21.390625 69 
L 9.71875 69 
L 9.71875 75.984375 
z
" id="DejaVuSans-93"/>
      <path d="M 10.6875 12.40625 
L 21 12.40625 
L 21 0 
L 10.6875 0 
z
" id="DejaVuSans-46"/>
     </defs>
     <g transform="translate(72.620313 32.517812)scale(0.08 -0.08)">
      <use xlink:href="#DejaVuSans-91"/>
      <use x="39.013672" xlink:href="#DejaVuSans-48"/>
      <use x="102.636719" xlink:href="#DejaVuSans-49"/>
      <use x="166.259766" xlink:href="#DejaVuSans-93"/>
      <use x="205.273438" xlink:href="#DejaVuSans-32"/>
      <use x="237.060547" xlink:href="#DejaVuSans-50"/>
      <use x="300.683594" xlink:href="#DejaVuSans-53"/>
      <use x="364.306641" xlink:href="#DejaVuSans-54"/>
      <use x="427.929688" xlink:href="#DejaVuSans-46"/>
      <use x="459.716797" xlink:href="#DejaVuSans-48"/>
      <use x="523.339844" xlink:href="#DejaVuSans-48"/>
     </g>
    </g>
    <g id="PathCollection_14">
     <g>
      <use style="fill:#5247fc;stroke:#000000;" x="58.220313" xlink:href="#m866663f84d" y="42.160312"/>
     </g>
    </g>
    <g id="text_16">
     <!-- [02] 161.52 -->
     <g transform="translate(72.620313 44.260312)scale(0.08 -0.08)">
      <use xlink:href="#DejaVuSans-91"/>
      <use x="39.013672" xlink:href="#DejaVuSans-48"/>
      <use x="102.636719" xlink:href="#DejaVuSans-50"/>
      <use x="166.259766" xlink:href="#DejaVuSans-93"/>
      <use x="205.273438" xlink:href="#DejaVuSans-32"/>
      <use x="237.060547" xlink:href="#DejaVuSans-49"/>
      <use x="300.683594" xlink:href="#DejaVuSans-54"/>
      <use x="364.306641" xlink:href="#DejaVuSans-49"/>
      <use x="427.929688" xlink:href="#DejaVuSans-46"/>
      <use x="459.716797" xlink:href="#DejaVuSans-53"/>
      <use x="523.339844" xlink:href="#DejaVuSans-50"/>
     </g>
    </g>
    <g id="PathCollection_15">
     <g>
      <use style="fill:#2489f5;stroke:#000000;" x="58.220313" xlink:href="#m08620c3ca7" y="53.902812"/>
     </g>
    </g>
    <g id="text_17">
     <!-- [03] 157.03 -->
     <defs>
      <path d="M 8.203125 72.90625 
L 55.078125 72.90625 
L 55.078125 68.703125 
L 28.609375 0 
L 18.3125 0 
L 43.21875 64.59375 
L 8.203125 64.59375 
z
" id="DejaVuSans-55"/>
     </defs>
     <g transform="translate(72.620313 56.002812)scale(0.08 -0.08)">
      <use xlink:href="#DejaVuSans-91"/>
      <use x="39.013672" xlink:href="#DejaVuSans-48"/>
      <use x="102.636719" xlink:href="#DejaVuSans-51"/>
      <use x="166.259766" xlink:href="#DejaVuSans-93"/>
      <use x="205.273438" xlink:href="#DejaVuSans-32"/>
      <use x="237.060547" xlink:href="#DejaVuSans-49"/>
      <use x="300.683594" xlink:href="#DejaVuSans-53"/>
      <use x="364.306641" xlink:href="#DejaVuSans-55"/>
      <use x="427.929688" xlink:href="#DejaVuSans-46"/>
      <use x="459.716797" xlink:href="#DejaVuSans-48"/>
      <use x="523.339844" xlink:href="#DejaVuSans-51"/>
     </g>
    </g>
    <g id="PathCollection_16">
     <g>
      <use style="fill:#0ac0e8;stroke:#000000;" x="58.220313" xlink:href="#m5dc7252513" y="65.645312"/>
     </g>
    </g>
    <g id="text_18">
     <!-- [04] 154.62 -->
     <g transform="translate(72.620313 67.745312)scale(0.08 -0.08)">
      <use xlink:href="#DejaVuSans-91"/>
      <use x="39.013672" xlink:href="#DejaVuSans-48"/>
      <use x="102.636719" xlink:href="#DejaVuSans-52"/>
      <use x="166.259766" xlink:href="#DejaVuSans-93"/>
      <use x="205.273438" xlink:href="#DejaVuSans-32"/>
      <use x="237.060547" xlink:href="#DejaVuSans-49"/>
      <use x="300.683594" xlink:href="#DejaVuSans-53"/>
      <use x="364.306641" xlink:href="#DejaVuSans-52"/>
      <use x="427.929688" xlink:href="#DejaVuSans-46"/>
      <use x="459.716797" xlink:href="#DejaVuSans-54"/>
      <use x="523.339844" xlink:href="#DejaVuSans-50"/>
     </g>
    </g>
    <g id="PathCollection_17">
     <g>
      <use style="fill:#3ae8d6;stroke:#000000;" x="58.220313" xlink:href="#m04ceada992" y="77.387812"/>
     </g>
    </g>
    <g id="text_19">
     <!-- [05] 144.25 -->
     <g transform="translate(72.620313 79.487812)scale(0.08 -0.08)">
      <use xlink:href="#DejaVuSans-91"/>
      <use x="39.013672" xlink:href="#DejaVuSans-48"/>
      <use x="102.636719" xlink:href="#DejaVuSans-53"/>
      <use x="166.259766" xlink:href="#DejaVuSans-93"/>
      <use x="205.273438" xlink:href="#DejaVuSans-32"/>
      <use x="237.060547" xlink:href="#DejaVuSans-49"/>
      <use x="300.683594" xlink:href="#DejaVuSans-52"/>
      <use x="364.306641" xlink:href="#DejaVuSans-52"/>
      <use x="427.929688" xlink:href="#DejaVuSans-46"/>
      <use x="459.716797" xlink:href="#DejaVuSans-50"/>
      <use x="523.339844" xlink:href="#DejaVuSans-53"/>
     </g>
    </g>
    <g id="PathCollection_18">
     <g>
      <use style="fill:#68fcc1;stroke:#000000;" x="58.220313" xlink:href="#me4f1581893" y="89.130312"/>
     </g>
    </g>
    <g id="text_20">
     <!-- [06] 142.56 -->
     <g transform="translate(72.620313 91.230312)scale(0.08 -0.08)">
      <use xlink:href="#DejaVuSans-91"/>
      <use x="39.013672" xlink:href="#DejaVuSans-48"/>
      <use x="102.636719" xlink:href="#DejaVuSans-54"/>
      <use x="166.259766" xlink:href="#DejaVuSans-93"/>
      <use x="205.273438" xlink:href="#DejaVuSans-32"/>
      <use x="237.060547" xlink:href="#DejaVuSans-49"/>
      <use x="300.683594" xlink:href="#DejaVuSans-52"/>
      <use x="364.306641" xlink:href="#DejaVuSans-50"/>
      <use x="427.929688" xlink:href="#DejaVuSans-46"/>
      <use x="459.716797" xlink:href="#DejaVuSans-53"/>
      <use x="523.339844" xlink:href="#DejaVuSans-54"/>
     </g>
    </g>
    <g id="PathCollection_19">
     <g>
      <use style="fill:#96fca7;stroke:#000000;" x="143.577812" xlink:href="#mad861fbbeb" y="30.417812"/>
     </g>
    </g>
    <g id="text_21">
     <!-- [07] 141.34 -->
     <g transform="translate(157.977812 32.517812)scale(0.08 -0.08)">
      <use xlink:href="#DejaVuSans-91"/>
      <use x="39.013672" xlink:href="#DejaVuSans-48"/>
      <use x="102.636719" xlink:href="#DejaVuSans-55"/>
      <use x="166.259766" xlink:href="#DejaVuSans-93"/>
      <use x="205.273438" xlink:href="#DejaVuSans-32"/>
      <use x="237.060547" xlink:href="#DejaVuSans-49"/>
      <use x="300.683594" xlink:href="#DejaVuSans-52"/>
      <use x="364.306641" xlink:href="#DejaVuSans-49"/>
      <use x="427.929688" xlink:href="#DejaVuSans-46"/>
      <use x="459.716797" xlink:href="#DejaVuSans-51"/>
      <use x="523.339844" xlink:href="#DejaVuSans-52"/>
     </g>
    </g>
    <g id="PathCollection_20">
     <g>
      <use style="fill:#c4e88a;stroke:#000000;" x="143.577812" xlink:href="#m5fed08583e" y="42.160312"/>
     </g>
    </g>
    <g id="text_22">
     <!-- [08] 141.03 -->
     <g transform="translate(157.977812 44.260312)scale(0.08 -0.08)">
      <use xlink:href="#DejaVuSans-91"/>
      <use x="39.013672" xlink:href="#DejaVuSans-48"/>
      <use x="102.636719" xlink:href="#DejaVuSans-56"/>
      <use x="166.259766" xlink:href="#DejaVuSans-93"/>
      <use x="205.273438" xlink:href="#DejaVuSans-32"/>
      <use x="237.060547" xlink:href="#DejaVuSans-49"/>
      <use x="300.683594" xlink:href="#DejaVuSans-52"/>
      <use x="364.306641" xlink:href="#DejaVuSans-49"/>
      <use x="427.929688" xlink:href="#DejaVuSans-46"/>
      <use x="459.716797" xlink:href="#DejaVuSans-48"/>
      <use x="523.339844" xlink:href="#DejaVuSans-51"/>
     </g>
    </g>
    <g id="PathCollection_21">
     <g>
      <use style="fill:#f4c069;stroke:#000000;" x="143.577812" xlink:href="#m6613e4ae4f" y="53.902812"/>
     </g>
    </g>
    <g id="text_23">
     <!-- [09] 129.14 -->
     <g transform="translate(157.977812 56.002812)scale(0.08 -0.08)">
      <use xlink:href="#DejaVuSans-91"/>
      <use x="39.013672" xlink:href="#DejaVuSans-48"/>
      <use x="102.636719" xlink:href="#DejaVuSans-57"/>
      <use x="166.259766" xlink:href="#DejaVuSans-93"/>
      <use x="205.273438" xlink:href="#DejaVuSans-32"/>
      <use x="237.060547" xlink:href="#DejaVuSans-49"/>
      <use x="300.683594" xlink:href="#DejaVuSans-50"/>
      <use x="364.306641" xlink:href="#DejaVuSans-57"/>
      <use x="427.929688" xlink:href="#DejaVuSans-46"/>
      <use x="459.716797" xlink:href="#DejaVuSans-49"/>
      <use x="523.339844" xlink:href="#DejaVuSans-52"/>
     </g>
    </g>
    <g id="PathCollection_22">
     <g>
      <use style="fill:#ff8947;stroke:#000000;" x="143.577812" xlink:href="#m68c0ad2776" y="65.645312"/>
     </g>
    </g>
    <g id="text_24">
     <!-- [10] 128.27 -->
     <g transform="translate(157.977812 67.745312)scale(0.08 -0.08)">
      <use xlink:href="#DejaVuSans-91"/>
      <use x="39.013672" xlink:href="#DejaVuSans-49"/>
      <use x="102.636719" xlink:href="#DejaVuSans-48"/>
      <use x="166.259766" xlink:href="#DejaVuSans-93"/>
      <use x="205.273438" xlink:href="#DejaVuSans-32"/>
      <use x="237.060547" xlink:href="#DejaVuSans-49"/>
      <use x="300.683594" xlink:href="#DejaVuSans-50"/>
      <use x="364.306641" xlink:href="#DejaVuSans-56"/>
      <use x="427.929688" xlink:href="#DejaVuSans-46"/>
      <use x="459.716797" xlink:href="#DejaVuSans-50"/>
      <use x="523.339844" xlink:href="#DejaVuSans-55"/>
     </g>
    </g>
    <g id="PathCollection_23">
     <g>
      <use style="fill:#ff4724;stroke:#000000;" x="143.577812" xlink:href="#mcb64216ff7" y="77.387812"/>
     </g>
    </g>
    <g id="text_25">
     <!-- [11] 128.07 -->
     <g transform="translate(157.977812 79.487812)scale(0.08 -0.08)">
      <use xlink:href="#DejaVuSans-91"/>
      <use x="39.013672" xlink:href="#DejaVuSans-49"/>
      <use x="102.636719" xlink:href="#DejaVuSans-49"/>
      <use x="166.259766" xlink:href="#DejaVuSans-93"/>
      <use x="205.273438" xlink:href="#DejaVuSans-32"/>
      <use x="237.060547" xlink:href="#DejaVuSans-49"/>
      <use x="300.683594" xlink:href="#DejaVuSans-50"/>
      <use x="364.306641" xlink:href="#DejaVuSans-56"/>
      <use x="427.929688" xlink:href="#DejaVuSans-46"/>
      <use x="459.716797" xlink:href="#DejaVuSans-48"/>
      <use x="523.339844" xlink:href="#DejaVuSans-55"/>
     </g>
    </g>
    <g id="PathCollection_24">
     <g>
      <use style="fill:#ff0000;stroke:#000000;" x="143.577812" xlink:href="#m83020a6cc4" y="89.130312"/>
     </g>
    </g>
    <g id="text_26">
     <!-- [12] 128.02 -->
     <g transform="translate(157.977812 91.230312)scale(0.08 -0.08)">
      <use xlink:href="#DejaVuSans-91"/>
      <use x="39.013672" xlink:href="#DejaVuSans-49"/>
      <use x="102.636719" xlink:href="#DejaVuSans-50"/>
      <use x="166.259766" xlink:href="#DejaVuSans-93"/>
      <use x="205.273438" xlink:href="#DejaVuSans-32"/>
      <use x="237.060547" xlink:href="#DejaVuSans-49"/>
      <use x="300.683594" xlink:href="#DejaVuSans-50"/>
      <use x="364.306641" xlink:href="#DejaVuSans-56"/>
      <use x="427.929688" xlink:href="#DejaVuSans-46"/>
      <use x="459.716797" xlink:href="#DejaVuSans-48"/>
      <use x="523.339844" xlink:href="#DejaVuSans-50"/>
     </g>
    </g>
   </g>
  </g>
  <g id="axes_2">
   <g id="patch_8">
    <path d="M 335.306027 296.439062 
L 601.020313 296.439062 
L 601.020313 19.239062 
L 335.306027 19.239062 
z
" style="fill:#ffffff;"/>
   </g>
   <g id="LineCollection_14">
    <path clip-path="url(#pee32694005)" d="M 335.306027 157.839062 
L 614.310312 157.839062 
" style="fill:none;stroke:#c0c0c0;stroke-dasharray:2.775,1.2;stroke-dashoffset:0;stroke-width:0.75;"/>
   </g>
   <g id="LineCollection_15">
    <path clip-path="url(#pee32694005)" d="M 477.010911 296.439062 
L 477.010911 157.839062 
" style="fill:none;stroke:#c0c0c0;stroke-dasharray:2.775,1.2;stroke-dashoffset:0;stroke-width:0.75;"/>
   </g>
   <g id="LineCollection_16">
    <path clip-path="url(#pee32694005)" d="M 461.93611 296.439062 
L 461.93611 157.839062 
" style="fill:none;stroke:#c0c0c0;stroke-dasharray:2.775,1.2;stroke-dashoffset:0;stroke-width:0.75;"/>
   </g>
   <g id="LineCollection_17">
    <path clip-path="url(#pee32694005)" d="M 458.956115 296.439062 
L 458.956115 157.839062 
" style="fill:none;stroke:#c0c0c0;stroke-dasharray:2.775,1.2;stroke-dashoffset:0;stroke-width:0.75;"/>
   </g>
   <g id="LineCollection_18">
    <path clip-path="url(#pee32694005)" d="M 449.800287 296.439062 
L 449.800287 157.839062 
" style="fill:none;stroke:#c0c0c0;stroke-dasharray:2.775,1.2;stroke-dashoffset:0;stroke-width:0.75;"/>
   </g>
   <g id="LineCollection_19">
    <path clip-path="url(#pee32694005)" d="M 446.151121 296.439062 
L 446.151121 157.839062 
" style="fill:none;stroke:#c0c0c0;stroke-dasharray:2.775,1.2;stroke-dashoffset:0;stroke-width:0.75;"/>
   </g>
   <g id="LineCollection_20">
    <path clip-path="url(#pee32694005)" d="M 445.549147 296.439062 
L 445.549147 157.839062 
" style="fill:none;stroke:#c0c0c0;stroke-dasharray:2.775,1.2;stroke-dashoffset:0;stroke-width:0.75;"/>
   </g>
   <g id="LineCollection_21">
    <path clip-path="url(#pee32694005)" d="M 444.711881 296.439062 
L 444.711881 157.839062 
" style="fill:none;stroke:#c0c0c0;stroke-dasharray:2.775,1.2;stroke-dashoffset:0;stroke-width:0.75;"/>
   </g>
   <g id="LineCollection_22">
    <path clip-path="url(#pee32694005)" d="M 440.13513 296.439062 
L 440.13513 157.839062 
" style="fill:none;stroke:#c0c0c0;stroke-dasharray:2.775,1.2;stroke-dashoffset:0;stroke-width:0.75;"/>
   </g>
   <g id="LineCollection_23">
    <path clip-path="url(#pee32694005)" d="M 439.1226 296.439062 
L 439.1226 157.839062 
" style="fill:none;stroke:#c0c0c0;stroke-dasharray:2.775,1.2;stroke-dashoffset:0;stroke-width:0.75;"/>
   </g>
   <g id="LineCollection_24">
    <path clip-path="url(#pee32694005)" d="M 438.85236 296.439062 
L 438.85236 157.839062 
" style="fill:none;stroke:#c0c0c0;stroke-dasharray:2.775,1.2;stroke-dashoffset:0;stroke-width:0.75;"/>
   </g>
   <g id="LineCollection_25">
    <path clip-path="url(#pee32694005)" d="M 438.778279 296.439062 
L 438.778279 157.839062 
" style="fill:none;stroke:#c0c0c0;stroke-dasharray:2.775,1.2;stroke-dashoffset:0;stroke-width:0.75;"/>
   </g>
   <g id="matplotlib.axis_3">
    <g id="xtick_7">
     <g id="line2d_24">
      <g>
       <use style="stroke:#000000;stroke-width:0.8;" x="335.306027" xlink:href="#mfc86fdaecd" y="296.439062"/>
      </g>
     </g>
     <g id="text_27">
      <!-- 0 -->
      <g transform="translate(332.761027 309.517812)scale(0.08 -0.08)">
       <use xlink:href="#DejaVuSans-48"/>
      </g>
     </g>
    </g>
    <g id="xtick_8">
     <g id="line2d_25">
      <g>
       <use style="stroke:#000000;stroke-width:0.8;" x="401.734598" xlink:href="#mfc86fdaecd" y="296.439062"/>
      </g>
     </g>
     <g id="text_28">
      <!-- 8 -->
      <g transform="translate(399.189598 309.517812)scale(0.08 -0.08)">
       <use xlink:href="#DejaVuSans-56"/>
      </g>
     </g>
    </g>
    <g id="xtick_9">
     <g id="line2d_26">
      <g>
       <use style="stroke:#000000;stroke-width:0.8;" x="468.16317" xlink:href="#mfc86fdaecd" y="296.439062"/>
      </g>
     </g>
     <g id="text_29">
      <!-- 16 -->
      <g transform="translate(463.07317 309.517812)scale(0.08 -0.08)">
       <use xlink:href="#DejaVuSans-49"/>
       <use x="63.623047" xlink:href="#DejaVuSans-54"/>
      </g>
     </g>
    </g>
    <g id="xtick_10">
     <g id="line2d_27">
      <g>
       <use style="stroke:#000000;stroke-width:0.8;" x="534.591741" xlink:href="#mfc86fdaecd" y="296.439062"/>
      </g>
     </g>
     <g id="text_30">
      <!-- 24 -->
      <g transform="translate(529.501741 309.517812)scale(0.08 -0.08)">
       <use xlink:href="#DejaVuSans-50"/>
       <use x="63.623047" xlink:href="#DejaVuSans-52"/>
      </g>
     </g>
    </g>
    <g id="xtick_11">
     <g id="line2d_28">
      <g>
       <use style="stroke:#000000;stroke-width:0.8;" x="601.020313" xlink:href="#mfc86fdaecd" y="296.439062"/>
      </g>
     </g>
     <g id="text_31">
      <!-- 32 -->
      <g transform="translate(595.930313 309.517812)scale(0.08 -0.08)">
       <use xlink:href="#DejaVuSans-51"/>
       <use x="63.623047" xlink:href="#DejaVuSans-50"/>
      </g>
     </g>
    </g>
    <g id="text_32">
     <!-- removed edge number -->
     <defs>
      <path d="M 52 44.1875 
Q 55.375 50.25 60.0625 53.125 
Q 64.75 56 71.09375 56 
Q 79.640625 56 84.28125 50.015625 
Q 88.921875 44.046875 88.921875 33.015625 
L 88.921875 0 
L 79.890625 0 
L 79.890625 32.71875 
Q 79.890625 40.578125 77.09375 44.375 
Q 74.3125 48.1875 68.609375 48.1875 
Q 61.625 48.1875 57.5625 43.546875 
Q 53.515625 38.921875 53.515625 30.90625 
L 53.515625 0 
L 44.484375 0 
L 44.484375 32.71875 
Q 44.484375 40.625 41.703125 44.40625 
Q 38.921875 48.1875 33.109375 48.1875 
Q 26.21875 48.1875 22.15625 43.53125 
Q 18.109375 38.875 18.109375 30.90625 
L 18.109375 0 
L 9.078125 0 
L 9.078125 54.6875 
L 18.109375 54.6875 
L 18.109375 46.1875 
Q 21.1875 51.21875 25.484375 53.609375 
Q 29.78125 56 35.6875 56 
Q 41.65625 56 45.828125 52.96875 
Q 50 49.953125 52 44.1875 
z
" id="DejaVuSans-109"/>
      <path d="M 30.609375 48.390625 
Q 23.390625 48.390625 19.1875 42.75 
Q 14.984375 37.109375 14.984375 27.296875 
Q 14.984375 17.484375 19.15625 11.84375 
Q 23.34375 6.203125 30.609375 6.203125 
Q 37.796875 6.203125 41.984375 11.859375 
Q 46.1875 17.53125 46.1875 27.296875 
Q 46.1875 37.015625 41.984375 42.703125 
Q 37.796875 48.390625 30.609375 48.390625 
z
M 30.609375 56 
Q 42.328125 56 49.015625 48.375 
Q 55.71875 40.765625 55.71875 27.296875 
Q 55.71875 13.875 49.015625 6.21875 
Q 42.328125 -1.421875 30.609375 -1.421875 
Q 18.84375 -1.421875 12.171875 6.21875 
Q 5.515625 13.875 5.515625 27.296875 
Q 5.515625 40.765625 12.171875 48.375 
Q 18.84375 56 30.609375 56 
z
" id="DejaVuSans-111"/>
      <path d="M 2.984375 54.6875 
L 12.5 54.6875 
L 29.59375 8.796875 
L 46.6875 54.6875 
L 56.203125 54.6875 
L 35.6875 0 
L 23.484375 0 
z
" id="DejaVuSans-118"/>
      <path d="M 45.40625 46.390625 
L 45.40625 75.984375 
L 54.390625 75.984375 
L 54.390625 0 
L 45.40625 0 
L 45.40625 8.203125 
Q 42.578125 3.328125 38.25 0.953125 
Q 33.9375 -1.421875 27.875 -1.421875 
Q 17.96875 -1.421875 11.734375 6.484375 
Q 5.515625 14.40625 5.515625 27.296875 
Q 5.515625 40.1875 11.734375 48.09375 
Q 17.96875 56 27.875 56 
Q 33.9375 56 38.25 53.625 
Q 42.578125 51.265625 45.40625 46.390625 
z
M 14.796875 27.296875 
Q 14.796875 17.390625 18.875 11.75 
Q 22.953125 6.109375 30.078125 6.109375 
Q 37.203125 6.109375 41.296875 11.75 
Q 45.40625 17.390625 45.40625 27.296875 
Q 45.40625 37.203125 41.296875 42.84375 
Q 37.203125 48.484375 30.078125 48.484375 
Q 22.953125 48.484375 18.875 42.84375 
Q 14.796875 37.203125 14.796875 27.296875 
z
" id="DejaVuSans-100"/>
      <path d="M 8.5 21.578125 
L 8.5 54.6875 
L 17.484375 54.6875 
L 17.484375 21.921875 
Q 17.484375 14.15625 20.5 10.265625 
Q 23.53125 6.390625 29.59375 6.390625 
Q 36.859375 6.390625 41.078125 11.03125 
Q 45.3125 15.671875 45.3125 23.6875 
L 45.3125 54.6875 
L 54.296875 54.6875 
L 54.296875 0 
L 45.3125 0 
L 45.3125 8.40625 
Q 42.046875 3.421875 37.71875 1 
Q 33.40625 -1.421875 27.6875 -1.421875 
Q 18.265625 -1.421875 13.375 4.4375 
Q 8.5 10.296875 8.5 21.578125 
z
M 31.109375 56 
z
" id="DejaVuSans-117"/>
      <path d="M 48.6875 27.296875 
Q 48.6875 37.203125 44.609375 42.84375 
Q 40.53125 48.484375 33.40625 48.484375 
Q 26.265625 48.484375 22.1875 42.84375 
Q 18.109375 37.203125 18.109375 27.296875 
Q 18.109375 17.390625 22.1875 11.75 
Q 26.265625 6.109375 33.40625 6.109375 
Q 40.53125 6.109375 44.609375 11.75 
Q 48.6875 17.390625 48.6875 27.296875 
z
M 18.109375 46.390625 
Q 20.953125 51.265625 25.265625 53.625 
Q 29.59375 56 35.59375 56 
Q 45.5625 56 51.78125 48.09375 
Q 58.015625 40.1875 58.015625 27.296875 
Q 58.015625 14.40625 51.78125 6.484375 
Q 45.5625 -1.421875 35.59375 -1.421875 
Q 29.59375 -1.421875 25.265625 0.953125 
Q 20.953125 3.328125 18.109375 8.203125 
L 18.109375 0 
L 9.078125 0 
L 9.078125 75.984375 
L 18.109375 75.984375 
z
" id="DejaVuSans-98"/>
     </defs>
     <g transform="translate(422.19192 321.260312)scale(0.08 -0.08)">
      <use xlink:href="#DejaVuSans-114"/>
      <use x="41.082031" xlink:href="#DejaVuSans-101"/>
      <use x="102.605469" xlink:href="#DejaVuSans-109"/>
      <use x="200.017578" xlink:href="#DejaVuSans-111"/>
      <use x="261.199219" xlink:href="#DejaVuSans-118"/>
      <use x="320.378906" xlink:href="#DejaVuSans-101"/>
      <use x="381.902344" xlink:href="#DejaVuSans-100"/>
      <use x="445.378906" xlink:href="#DejaVuSans-32"/>
      <use x="477.166016" xlink:href="#DejaVuSans-101"/>
      <use x="538.689453" xlink:href="#DejaVuSans-100"/>
      <use x="602.166016" xlink:href="#DejaVuSans-103"/>
      <use x="665.642578" xlink:href="#DejaVuSans-101"/>
      <use x="727.166016" xlink:href="#DejaVuSans-32"/>
      <use x="758.953125" xlink:href="#DejaVuSans-110"/>
      <use x="822.332031" xlink:href="#DejaVuSans-117"/>
      <use x="885.710938" xlink:href="#DejaVuSans-109"/>
      <use x="983.123047" xlink:href="#DejaVuSans-98"/>
      <use x="1046.599609" xlink:href="#DejaVuSans-101"/>
      <use x="1108.123047" xlink:href="#DejaVuSans-114"/>
     </g>
    </g>
   </g>
   <g id="matplotlib.axis_4">
    <g id="ytick_6">
     <g id="line2d_29">
      <g>
       <use style="stroke:#000000;stroke-width:0.8;" x="335.306027" xlink:href="#mc955702410" y="296.439062"/>
      </g>
     </g>
    </g>
    <g id="ytick_7">
     <g id="line2d_30">
      <g>
       <use style="stroke:#000000;stroke-width:0.8;" x="335.306027" xlink:href="#mc955702410" y="227.139062"/>
      </g>
     </g>
    </g>
    <g id="ytick_8">
     <g id="line2d_31">
      <g>
       <use style="stroke:#000000;stroke-width:0.8;" x="335.306027" xlink:href="#mc955702410" y="157.839062"/>
      </g>
     </g>
    </g>
    <g id="ytick_9">
     <g id="line2d_32">
      <g>
       <use style="stroke:#000000;stroke-width:0.8;" x="335.306027" xlink:href="#mc955702410" y="88.539062"/>
      </g>
     </g>
    </g>
    <g id="ytick_10">
     <g id="line2d_33">
      <g>
       <use style="stroke:#000000;stroke-width:0.8;" x="335.306027" xlink:href="#mc955702410" y="19.239062"/>
      </g>
     </g>
    </g>
   </g>
   <g id="line2d_34">
    <path clip-path="url(#pee32694005)" d="M 335.306027 295.35625 
L 343.609598 295.35625 
L 351.91317 295.35625 
L 360.216741 295.35625 
L 368.520312 295.35625 
L 376.823884 295.35625 
L 385.127455 295.35625 
L 393.431027 295.35625 
L 401.734598 295.35625 
L 410.03817 295.35625 
L 418.341741 295.35625 
L 426.645312 295.35625 
L 434.948884 295.35625 
L 443.252455 295.35625 
L 451.556027 295.35625 
L 459.859598 295.35625 
L 468.16317 295.35625 
L 476.466741 295.35625 
L 484.770313 295.35625 
L 493.073884 295.35625 
L 501.377455 295.35625 
L 509.681027 295.35625 
L 517.984598 295.35625 
L 526.28817 295.35625 
L 534.591741 295.35625 
L 542.895313 295.35625 
L 551.198884 295.35625 
L 559.502455 295.35625 
L 567.806027 295.35625 
L 576.109598 295.35625 
L 584.41317 295.35625 
L 592.716741 295.35625 
L 601.020313 295.35625 
" style="fill:none;stroke:#8000ff;stroke-linecap:square;stroke-opacity:0.5;stroke-width:2;"/>
   </g>
   <g id="line2d_35">
    <path clip-path="url(#pee32694005)" d="M 335.306027 296.439062 
L 343.609598 286.775164 
L 351.91317 277.652682 
L 360.216741 268.846911 
L 368.520312 260.265855 
L 376.823884 251.859103 
L 385.127455 243.594769 
L 393.431027 235.450849 
L 401.734598 227.411239 
L 410.03817 219.463637 
L 418.341741 211.59834 
L 426.645312 203.807499 
L 434.948884 196.084631 
L 443.252455 188.424292 
L 451.556027 180.821848 
L 459.859598 173.273304 
L 468.16317 165.775179 
L 476.466741 158.324417 
L 484.770313 150.918311 
L 493.073884 143.554445 
L 501.377455 136.230654 
L 509.681027 128.944982 
L 517.984598 121.695656 
L 526.28817 114.481061 
L 534.591741 107.299718 
L 542.895313 100.15027 
L 551.198884 93.031467 
L 559.502455 85.942152 
L 567.806027 78.881254 
L 576.109598 71.847774 
L 584.41317 64.840785 
L 592.716741 57.859417 
L 601.020313 50.902857 
" style="fill:none;stroke:#5247fc;stroke-linecap:square;stroke-opacity:0.5;stroke-width:2;"/>
   </g>
   <g id="line2d_36">
    <path clip-path="url(#pee32694005)" d="M 335.306027 296.439062 
L 343.609598 285.886051 
L 351.91317 275.874556 
L 360.216741 266.179701 
L 368.520312 256.709551 
L 376.823884 247.413697 
L 385.127455 238.260255 
L 393.431027 229.22722 
L 401.734598 220.298487 
L 410.03817 211.461756 
L 418.341741 202.707324 
L 426.645312 194.02734 
L 434.948884 185.415323 
L 443.252455 176.86583 
L 451.556027 168.374224 
L 459.859598 159.936512 
L 468.16317 151.549213 
L 476.466741 143.209271 
L 484.770313 134.913978 
L 493.073884 126.66092 
L 501.377455 118.447931 
L 509.681027 110.273054 
L 517.984598 102.134517 
L 526.28817 94.030705 
L 534.591741 85.960139 
L 542.895313 77.921462 
L 551.198884 69.913424 
L 559.502455 61.934868 
L 567.806027 53.984722 
L 576.109598 46.06199 
L 584.41317 38.165741 
L 592.716741 30.295108 
L 601.020313 22.449278 
" style="fill:none;stroke:#2489f5;stroke-linecap:square;stroke-opacity:0.5;stroke-width:2;"/>
   </g>
   <g id="line2d_37">
    <path clip-path="url(#pee32694005)" d="M 335.306027 296.439062 
L 343.609598 286.087559 
L 351.91317 276.027861 
L 360.216741 266.190642 
L 368.520312 256.531039 
L 376.823884 247.018333 
L 385.127455 237.630444 
L 393.431027 228.350851 
L 401.734598 219.166775 
L 410.03817 210.068068 
L 418.341741 201.046485 
L 426.645312 192.095207 
L 434.948884 183.208503 
L 443.252455 174.381495 
L 451.556027 165.60998 
L 459.859598 156.890304 
L 468.16317 148.21926 
L 476.466741 139.594011 
L 484.770313 131.012033 
L 493.073884 122.471061 
L 501.377455 113.969058 
L 509.681027 105.504176 
L 517.984598 97.074736 
L 526.28817 88.679203 
L 534.591741 80.316168 
L 542.895313 71.984337 
L 551.198884 63.682512 
L 559.502455 55.409585 
L 567.806027 47.164526 
L 576.109598 38.946378 
L 584.41317 30.754244 
L 592.716741 22.587287 
L 601.020313 14.444722 
" style="fill:none;stroke:#0ac0e8;stroke-linecap:square;stroke-opacity:0.5;stroke-width:2;"/>
   </g>
   <g id="line2d_38">
    <path clip-path="url(#pee32694005)" d="M 335.306027 296.439062 
L 343.609598 285.167345 
L 351.91317 274.337031 
L 360.216741 263.785651 
L 368.520312 253.436719 
L 376.823884 243.246755 
L 385.127455 233.18783 
L 393.431027 223.240484 
L 401.734598 213.390374 
L 410.03817 203.626482 
L 418.341741 193.94007 
L 426.645312 184.324036 
L 434.948884 174.77249 
L 443.252455 165.280467 
L 451.556027 155.843719 
L 459.859598 146.458575 
L 468.16317 137.121825 
L 476.466741 127.830639 
L 484.770313 118.582503 
L 493.073884 109.375168 
L 501.377455 100.20661 
L 509.681027 91.074998 
L 517.984598 81.978668 
L 526.28817 72.916097 
L 534.591741 63.885891 
L 542.895313 54.886767 
L 551.198884 45.917538 
L 559.502455 36.977108 
L 567.806027 28.064454 
L 576.109598 19.178627 
L 584.41317 10.31874 
L 592.716741 1.483961 
L 595.057796 -1 
" style="fill:none;stroke:#3ae8d6;stroke-linecap:square;stroke-opacity:0.5;stroke-width:2;"/>
   </g>
   <g id="line2d_39">
    <path clip-path="url(#pee32694005)" d="M 335.306027 296.439062 
L 343.609598 284.682834 
L 351.91317 273.468039 
L 360.216741 262.56993 
L 368.520312 251.896527 
L 376.823884 241.397417 
L 385.127455 231.040717 
L 393.431027 220.804421 
L 401.734598 210.672426 
L 410.03817 200.63243 
L 418.341741 190.67473 
L 426.645312 180.791476 
L 434.948884 170.976186 
L 443.252455 161.223416 
L 451.556027 151.528532 
L 459.859598 141.887539 
L 468.16317 132.296955 
L 476.466741 122.753726 
L 484.770313 113.255143 
L 493.073884 103.798792 
L 501.377455 94.382506 
L 509.681027 85.00433 
L 517.984598 75.662491 
L 526.28817 66.355373 
L 534.591741 57.081499 
L 542.895313 47.839511 
L 551.198884 38.628158 
L 559.502455 29.446285 
L 567.806027 20.292819 
L 576.109598 11.166763 
L 584.41317 2.067187 
L 587.219949 -1 
" style="fill:none;stroke:#68fcc1;stroke-linecap:square;stroke-opacity:0.5;stroke-width:2;"/>
   </g>
   <g id="line2d_40">
    <path clip-path="url(#pee32694005)" d="M 335.306027 296.439062 
L 343.609598 284.664247 
L 351.91317 273.412187 
L 360.216741 262.469769 
L 368.520312 251.747557 
L 376.823884 241.196337 
L 385.127455 230.784927 
L 393.431027 220.491787 
L 401.734598 210.301141 
L 410.03817 200.200934 
L 418.341741 190.181654 
L 426.645312 180.235603 
L 434.948884 170.356423 
L 443.252455 160.538773 
L 451.556027 150.778107 
L 459.859598 141.070502 
L 468.16317 131.412543 
L 476.466741 121.801231 
L 484.770313 112.233907 
L 493.073884 102.708201 
L 501.377455 93.221984 
L 509.681027 83.773337 
L 517.984598 74.360519 
L 526.28817 64.981942 
L 534.591741 55.636155 
L 542.895313 46.321824 
L 551.198884 37.037721 
L 559.502455 27.78271 
L 567.806027 18.555737 
L 576.109598 9.355822 
L 584.41317 0.182051 
L 585.486053 -1 
" style="fill:none;stroke:#96fca7;stroke-linecap:square;stroke-opacity:0.5;stroke-width:2;"/>
   </g>
   <g id="line2d_41">
    <path clip-path="url(#pee32694005)" d="M 335.306027 296.439062 
L 343.609598 284.56071 
L 351.91317 273.220871 
L 360.216741 262.196622 
L 368.520312 251.396364 
L 376.823884 240.769872 
L 385.127455 230.285368 
L 393.431027 219.920921 
L 401.734598 209.660474 
L 410.03817 199.491767 
L 418.341741 189.405124 
L 426.645312 179.392721 
L 434.948884 169.448093 
L 443.252455 159.565813 
L 451.556027 149.741261 
L 459.859598 139.970451 
L 468.16317 130.249916 
L 476.466741 120.576606 
L 484.770313 110.947822 
L 493.073884 101.361156 
L 501.377455 91.814449 
L 509.681027 82.305749 
L 517.984598 72.83329 
L 526.28817 63.39546 
L 534.591741 53.990786 
L 542.895313 44.617913 
L 551.198884 35.275596 
L 559.502455 25.96268 
L 567.806027 16.678097 
L 576.109598 7.420853 
L 583.684554 -1 
" style="fill:none;stroke:#c4e88a;stroke-linecap:square;stroke-opacity:0.5;stroke-width:2;"/>
   </g>
   <g id="line2d_42">
    <path clip-path="url(#pee32694005)" d="M 335.306027 296.439062 
L 343.609598 284.171991 
L 351.91317 272.420027 
L 360.216741 260.974829 
L 368.520312 249.748042 
L 376.823884 238.690955 
L 385.127455 227.772679 
L 393.431027 216.971868 
L 401.734598 206.272881 
L 410.03817 195.663767 
L 418.341741 185.135091 
L 426.645312 174.679218 
L 434.948884 164.28984 
L 443.252455 153.961658 
L 451.556027 143.690161 
L 459.859598 133.471457 
L 468.16317 123.302156 
L 476.466741 113.17928 
L 484.770313 103.100191 
L 493.073884 93.062534 
L 501.377455 83.064199 
L 509.681027 73.103277 
L 517.984598 63.17804 
L 526.28817 53.286912 
L 534.591741 43.42845 
L 542.895313 33.601331 
L 551.198884 23.804333 
L 559.502455 14.036329 
L 567.806027 4.29627 
L 572.333728 -1 
" style="fill:none;stroke:#f4c069;stroke-linecap:square;stroke-opacity:0.5;stroke-width:2;"/>
   </g>
   <g id="line2d_43">
    <path clip-path="url(#pee32694005)" d="M 335.306027 296.439062 
L 343.609598 284.035831 
L 351.91317 272.167598 
L 360.216741 260.613637 
L 368.520312 249.282816 
L 376.823884 238.125131 
L 385.127455 227.108935 
L 393.431027 216.212383 
L 401.734598 205.419482 
L 410.03817 194.718015 
L 418.341741 184.098344 
L 426.645312 173.55267 
L 434.948884 163.074554 
L 443.252455 152.658589 
L 451.556027 142.300169 
L 459.859598 131.995324 
L 468.16317 121.740597 
L 476.466741 111.532951 
L 484.770313 101.369694 
L 493.073884 91.248429 
L 501.377455 81.167001 
L 509.681027 71.123469 
L 517.984598 61.116069 
L 526.28817 51.143196 
L 534.591741 41.203382 
L 542.895313 31.295278 
L 551.198884 21.417641 
L 559.502455 11.569321 
L 567.806027 1.749253 
L 570.137189 -1 
" style="fill:none;stroke:#ff8947;stroke-linecap:square;stroke-opacity:0.5;stroke-width:2;"/>
   </g>
   <g id="line2d_44">
    <path clip-path="url(#pee32694005)" d="M 335.306027 296.439062 
L 343.609598 283.999907 
L 351.91317 272.100576 
L 360.216741 260.517341 
L 368.520312 249.15842 
L 376.823884 237.973503 
L 385.127455 226.930765 
L 393.431027 216.00824 
L 401.734598 205.189851 
L 410.03817 194.463317 
L 418.341741 183.818953 
L 426.645312 173.24892 
L 434.948884 162.746747 
L 443.252455 152.306999 
L 451.556027 141.925049 
L 459.859598 131.596907 
L 468.16317 121.319101 
L 476.466741 111.088576 
L 484.770313 100.902631 
L 493.073884 90.758855 
L 501.377455 80.655084 
L 509.681027 70.589366 
L 517.984598 60.55993 
L 526.28817 50.565165 
L 534.591741 40.603594 
L 542.895313 30.673861 
L 551.198884 20.774719 
L 559.502455 10.905013 
L 567.806027 1.063671 
L 569.552092 -1 
" style="fill:none;stroke:#ff4724;stroke-linecap:square;stroke-opacity:0.5;stroke-width:2;"/>
   </g>
   <g id="line2d_45">
    <path clip-path="url(#pee32694005)" d="M 335.306027 296.439062 
L 343.609598 283.990259 
L 351.91317 272.082477 
L 360.216741 260.491241 
L 368.520312 249.124611 
L 376.823884 237.932204 
L 385.127455 226.882147 
L 393.431027 215.952448 
L 401.734598 205.127007 
L 410.03817 194.393529 
L 418.341741 183.742315 
L 426.645312 173.165518 
L 434.948884 162.656658 
L 443.252455 152.210295 
L 451.556027 141.821795 
L 459.859598 131.487164 
L 468.16317 121.202925 
L 476.466741 110.96602 
L 484.770313 100.773745 
L 493.073884 90.623686 
L 501.377455 80.513676 
L 509.681027 70.441761 
L 517.984598 60.406169 
L 526.28817 50.405285 
L 534.591741 40.437632 
L 542.895313 30.501853 
L 551.198884 20.596697 
L 559.502455 10.721009 
L 567.806027 0.873717 
L 569.390417 -1 
" style="fill:none;stroke:#ff0000;stroke-linecap:square;stroke-opacity:0.5;stroke-width:2;"/>
   </g>
   <g id="patch_9">
    <path d="M 335.306027 296.439062 
L 335.306027 19.239062 
" style="fill:none;stroke:#000000;stroke-linecap:square;stroke-linejoin:miter;stroke-width:0.8;"/>
   </g>
   <g id="patch_10">
    <path d="M 601.020313 296.439062 
L 601.020313 19.239062 
" style="fill:none;stroke:#000000;stroke-linecap:square;stroke-linejoin:miter;stroke-width:0.8;"/>
   </g>
   <g id="patch_11">
    <path d="M 335.306027 296.439062 
L 601.020313 296.439062 
" style="fill:none;stroke:#000000;stroke-linecap:square;stroke-linejoin:miter;stroke-width:0.8;"/>
   </g>
   <g id="patch_12">
    <path d="M 335.306027 19.239062 
L 601.020313 19.239062 
" style="fill:none;stroke:#000000;stroke-linecap:square;stroke-linejoin:miter;stroke-width:0.8;"/>
   </g>
   <g id="text_33">
    <!-- reference -->
    <g transform="translate(339.457812 154.009687)scale(0.08 -0.08)">
     <use xlink:href="#DejaVuSans-114"/>
     <use x="41.082031" xlink:href="#DejaVuSans-101"/>
     <use x="102.605469" xlink:href="#DejaVuSans-102"/>
     <use x="137.810547" xlink:href="#DejaVuSans-101"/>
     <use x="199.333984" xlink:href="#DejaVuSans-114"/>
     <use x="240.416016" xlink:href="#DejaVuSans-101"/>
     <use x="301.939453" xlink:href="#DejaVuSans-110"/>
     <use x="365.318359" xlink:href="#DejaVuSans-99"/>
     <use x="420.298828" xlink:href="#DejaVuSans-101"/>
    </g>
   </g>
   <g id="PathCollection_25">
    <g clip-path="url(#pee32694005)">
     <use style="fill:#8000ff;stroke:#000000;" x="609.323884" xlink:href="#m611131b510" y="157.839062"/>
    </g>
   </g>
   <g id="PathCollection_26">
    <g clip-path="url(#pee32694005)">
     <use style="fill:#5247fc;stroke:#000000;" x="477.010911" xlink:href="#m866663f84d" y="157.839062"/>
    </g>
   </g>
   <g id="PathCollection_27">
    <g clip-path="url(#pee32694005)">
     <use style="fill:#2489f5;stroke:#000000;" x="461.93611" xlink:href="#m08620c3ca7" y="157.839062"/>
    </g>
   </g>
   <g id="PathCollection_28">
    <g clip-path="url(#pee32694005)">
     <use style="fill:#0ac0e8;stroke:#000000;" x="458.956115" xlink:href="#m5dc7252513" y="157.839062"/>
    </g>
   </g>
   <g id="PathCollection_29">
    <g clip-path="url(#pee32694005)">
     <use style="fill:#3ae8d6;stroke:#000000;" x="449.800287" xlink:href="#m04ceada992" y="157.839062"/>
    </g>
   </g>
   <g id="PathCollection_30">
    <g clip-path="url(#pee32694005)">
     <use style="fill:#68fcc1;stroke:#000000;" x="446.151121" xlink:href="#me4f1581893" y="157.839062"/>
    </g>
   </g>
   <g id="PathCollection_31">
    <g clip-path="url(#pee32694005)">
     <use style="fill:#96fca7;stroke:#000000;" x="445.549147" xlink:href="#mad861fbbeb" y="157.839062"/>
    </g>
   </g>
   <g id="PathCollection_32">
    <g clip-path="url(#pee32694005)">
     <use style="fill:#c4e88a;stroke:#000000;" x="444.711881" xlink:href="#m5fed08583e" y="157.839062"/>
    </g>
   </g>
   <g id="PathCollection_33">
    <g clip-path="url(#pee32694005)">
     <use style="fill:#f4c069;stroke:#000000;" x="440.13513" xlink:href="#m6613e4ae4f" y="157.839062"/>
    </g>
   </g>
   <g id="PathCollection_34">
    <g clip-path="url(#pee32694005)">
     <use style="fill:#ff8947;stroke:#000000;" x="439.1226" xlink:href="#m68c0ad2776" y="157.839062"/>
    </g>
   </g>
   <g id="PathCollection_35">
    <g clip-path="url(#pee32694005)">
     <use style="fill:#ff4724;stroke:#000000;" x="438.85236" xlink:href="#mcb64216ff7" y="157.839062"/>
    </g>
   </g>
   <g id="PathCollection_36">
    <g clip-path="url(#pee32694005)">
     <use style="fill:#ff0000;stroke:#000000;" x="438.778279" xlink:href="#m83020a6cc4" y="157.839062"/>
    </g>
   </g>
   <g id="legend_2">
    <g id="patch_13">
     <path d="M 340.906027 96.094062 
L 488.641027 96.094062 
Q 490.241027 96.094062 490.241027 94.494062 
L 490.241027 24.839062 
Q 490.241027 23.239062 488.641027 23.239062 
L 340.906027 23.239062 
Q 339.306027 23.239062 339.306027 24.839062 
L 339.306027 94.494062 
Q 339.306027 96.094062 340.906027 96.094062 
z
" style="fill:#ffffff;opacity:0.8;stroke:#cccccc;stroke-linejoin:miter;"/>
    </g>
    <g id="PathCollection_37">
     <g>
      <use style="fill:#8000ff;stroke:#000000;" x="350.506027" xlink:href="#m611131b510" y="30.417812"/>
     </g>
    </g>
    <g id="text_34">
     <!-- [01] N/A -->
     <defs>
      <path d="M 25.390625 72.90625 
L 33.6875 72.90625 
L 8.296875 -9.28125 
L 0 -9.28125 
z
" id="DejaVuSans-47"/>
     </defs>
     <g transform="translate(364.906027 32.517812)scale(0.08 -0.08)">
      <use xlink:href="#DejaVuSans-91"/>
      <use x="39.013672" xlink:href="#DejaVuSans-48"/>
      <use x="102.636719" xlink:href="#DejaVuSans-49"/>
      <use x="166.259766" xlink:href="#DejaVuSans-93"/>
      <use x="205.273438" xlink:href="#DejaVuSans-32"/>
      <use x="237.060547" xlink:href="#DejaVuSans-78"/>
      <use x="311.865234" xlink:href="#DejaVuSans-47"/>
      <use x="345.556641" xlink:href="#DejaVuSans-65"/>
     </g>
    </g>
    <g id="PathCollection_38">
     <g>
      <use style="fill:#5247fc;stroke:#000000;" x="350.506027" xlink:href="#m866663f84d" y="42.160312"/>
     </g>
    </g>
    <g id="text_35">
     <!-- [02] 17.07 -->
     <g transform="translate(364.906027 44.260312)scale(0.08 -0.08)">
      <use xlink:href="#DejaVuSans-91"/>
      <use x="39.013672" xlink:href="#DejaVuSans-48"/>
      <use x="102.636719" xlink:href="#DejaVuSans-50"/>
      <use x="166.259766" xlink:href="#DejaVuSans-93"/>
      <use x="205.273438" xlink:href="#DejaVuSans-32"/>
      <use x="237.060547" xlink:href="#DejaVuSans-49"/>
      <use x="300.683594" xlink:href="#DejaVuSans-55"/>
      <use x="364.306641" xlink:href="#DejaVuSans-46"/>
      <use x="396.09375" xlink:href="#DejaVuSans-48"/>
      <use x="459.716797" xlink:href="#DejaVuSans-55"/>
     </g>
    </g>
    <g id="PathCollection_39">
     <g>
      <use style="fill:#2489f5;stroke:#000000;" x="350.506027" xlink:href="#m08620c3ca7" y="53.902812"/>
     </g>
    </g>
    <g id="text_36">
     <!-- [03] 15.25 -->
     <g transform="translate(364.906027 56.002812)scale(0.08 -0.08)">
      <use xlink:href="#DejaVuSans-91"/>
      <use x="39.013672" xlink:href="#DejaVuSans-48"/>
      <use x="102.636719" xlink:href="#DejaVuSans-51"/>
      <use x="166.259766" xlink:href="#DejaVuSans-93"/>
      <use x="205.273438" xlink:href="#DejaVuSans-32"/>
      <use x="237.060547" xlink:href="#DejaVuSans-49"/>
      <use x="300.683594" xlink:href="#DejaVuSans-53"/>
      <use x="364.306641" xlink:href="#DejaVuSans-46"/>
      <use x="396.09375" xlink:href="#DejaVuSans-50"/>
      <use x="459.716797" xlink:href="#DejaVuSans-53"/>
     </g>
    </g>
    <g id="PathCollection_40">
     <g>
      <use style="fill:#0ac0e8;stroke:#000000;" x="350.506027" xlink:href="#m5dc7252513" y="65.645312"/>
     </g>
    </g>
    <g id="text_37">
     <!-- [04] 14.89 -->
     <g transform="translate(364.906027 67.745312)scale(0.08 -0.08)">
      <use xlink:href="#DejaVuSans-91"/>
      <use x="39.013672" xlink:href="#DejaVuSans-48"/>
      <use x="102.636719" xlink:href="#DejaVuSans-52"/>
      <use x="166.259766" xlink:href="#DejaVuSans-93"/>
      <use x="205.273438" xlink:href="#DejaVuSans-32"/>
      <use x="237.060547" xlink:href="#DejaVuSans-49"/>
      <use x="300.683594" xlink:href="#DejaVuSans-52"/>
      <use x="364.306641" xlink:href="#DejaVuSans-46"/>
      <use x="396.09375" xlink:href="#DejaVuSans-56"/>
      <use x="459.716797" xlink:href="#DejaVuSans-57"/>
     </g>
    </g>
    <g id="PathCollection_41">
     <g>
      <use style="fill:#3ae8d6;stroke:#000000;" x="350.506027" xlink:href="#m04ceada992" y="77.387812"/>
     </g>
    </g>
    <g id="text_38">
     <!-- [05] 13.79 -->
     <g transform="translate(364.906027 79.487812)scale(0.08 -0.08)">
      <use xlink:href="#DejaVuSans-91"/>
      <use x="39.013672" xlink:href="#DejaVuSans-48"/>
      <use x="102.636719" xlink:href="#DejaVuSans-53"/>
      <use x="166.259766" xlink:href="#DejaVuSans-93"/>
      <use x="205.273438" xlink:href="#DejaVuSans-32"/>
      <use x="237.060547" xlink:href="#DejaVuSans-49"/>
      <use x="300.683594" xlink:href="#DejaVuSans-51"/>
      <use x="364.306641" xlink:href="#DejaVuSans-46"/>
      <use x="396.09375" xlink:href="#DejaVuSans-55"/>
      <use x="459.716797" xlink:href="#DejaVuSans-57"/>
     </g>
    </g>
    <g id="PathCollection_42">
     <g>
      <use style="fill:#68fcc1;stroke:#000000;" x="350.506027" xlink:href="#me4f1581893" y="89.130312"/>
     </g>
    </g>
    <g id="text_39">
     <!-- [06] 13.35 -->
     <g transform="translate(364.906027 91.230312)scale(0.08 -0.08)">
      <use xlink:href="#DejaVuSans-91"/>
      <use x="39.013672" xlink:href="#DejaVuSans-48"/>
      <use x="102.636719" xlink:href="#DejaVuSans-54"/>
      <use x="166.259766" xlink:href="#DejaVuSans-93"/>
      <use x="205.273438" xlink:href="#DejaVuSans-32"/>
      <use x="237.060547" xlink:href="#DejaVuSans-49"/>
      <use x="300.683594" xlink:href="#DejaVuSans-51"/>
      <use x="364.306641" xlink:href="#DejaVuSans-46"/>
      <use x="396.09375" xlink:href="#DejaVuSans-51"/>
      <use x="459.716797" xlink:href="#DejaVuSans-53"/>
     </g>
    </g>
    <g id="PathCollection_43">
     <g>
      <use style="fill:#96fca7;stroke:#000000;" x="430.773527" xlink:href="#mad861fbbeb" y="30.417812"/>
     </g>
    </g>
    <g id="text_40">
     <!-- [07] 13.28 -->
     <g transform="translate(445.173527 32.517812)scale(0.08 -0.08)">
      <use xlink:href="#DejaVuSans-91"/>
      <use x="39.013672" xlink:href="#DejaVuSans-48"/>
      <use x="102.636719" xlink:href="#DejaVuSans-55"/>
      <use x="166.259766" xlink:href="#DejaVuSans-93"/>
      <use x="205.273438" xlink:href="#DejaVuSans-32"/>
      <use x="237.060547" xlink:href="#DejaVuSans-49"/>
      <use x="300.683594" xlink:href="#DejaVuSans-51"/>
      <use x="364.306641" xlink:href="#DejaVuSans-46"/>
      <use x="396.09375" xlink:href="#DejaVuSans-50"/>
      <use x="459.716797" xlink:href="#DejaVuSans-56"/>
     </g>
    </g>
    <g id="PathCollection_44">
     <g>
      <use style="fill:#c4e88a;stroke:#000000;" x="430.773527" xlink:href="#m5fed08583e" y="42.160312"/>
     </g>
    </g>
    <g id="text_41">
     <!-- [08] 13.18 -->
     <g transform="translate(445.173527 44.260312)scale(0.08 -0.08)">
      <use xlink:href="#DejaVuSans-91"/>
      <use x="39.013672" xlink:href="#DejaVuSans-48"/>
      <use x="102.636719" xlink:href="#DejaVuSans-56"/>
      <use x="166.259766" xlink:href="#DejaVuSans-93"/>
      <use x="205.273438" xlink:href="#DejaVuSans-32"/>
      <use x="237.060547" xlink:href="#DejaVuSans-49"/>
      <use x="300.683594" xlink:href="#DejaVuSans-51"/>
      <use x="364.306641" xlink:href="#DejaVuSans-46"/>
      <use x="396.09375" xlink:href="#DejaVuSans-49"/>
      <use x="459.716797" xlink:href="#DejaVuSans-56"/>
     </g>
    </g>
    <g id="PathCollection_45">
     <g>
      <use style="fill:#f4c069;stroke:#000000;" x="430.773527" xlink:href="#m6613e4ae4f" y="53.902812"/>
     </g>
    </g>
    <g id="text_42">
     <!-- [09] 12.62 -->
     <g transform="translate(445.173527 56.002812)scale(0.08 -0.08)">
      <use xlink:href="#DejaVuSans-91"/>
      <use x="39.013672" xlink:href="#DejaVuSans-48"/>
      <use x="102.636719" xlink:href="#DejaVuSans-57"/>
      <use x="166.259766" xlink:href="#DejaVuSans-93"/>
      <use x="205.273438" xlink:href="#DejaVuSans-32"/>
      <use x="237.060547" xlink:href="#DejaVuSans-49"/>
      <use x="300.683594" xlink:href="#DejaVuSans-50"/>
      <use x="364.306641" xlink:href="#DejaVuSans-46"/>
      <use x="396.09375" xlink:href="#DejaVuSans-54"/>
      <use x="459.716797" xlink:href="#DejaVuSans-50"/>
     </g>
    </g>
    <g id="PathCollection_46">
     <g>
      <use style="fill:#ff8947;stroke:#000000;" x="430.773527" xlink:href="#m68c0ad2776" y="65.645312"/>
     </g>
    </g>
    <g id="text_43">
     <!-- [10] 12.50 -->
     <g transform="translate(445.173527 67.745312)scale(0.08 -0.08)">
      <use xlink:href="#DejaVuSans-91"/>
      <use x="39.013672" xlink:href="#DejaVuSans-49"/>
      <use x="102.636719" xlink:href="#DejaVuSans-48"/>
      <use x="166.259766" xlink:href="#DejaVuSans-93"/>
      <use x="205.273438" xlink:href="#DejaVuSans-32"/>
      <use x="237.060547" xlink:href="#DejaVuSans-49"/>
      <use x="300.683594" xlink:href="#DejaVuSans-50"/>
      <use x="364.306641" xlink:href="#DejaVuSans-46"/>
      <use x="396.09375" xlink:href="#DejaVuSans-53"/>
      <use x="459.716797" xlink:href="#DejaVuSans-48"/>
     </g>
    </g>
    <g id="PathCollection_47">
     <g>
      <use style="fill:#ff4724;stroke:#000000;" x="430.773527" xlink:href="#mcb64216ff7" y="77.387812"/>
     </g>
    </g>
    <g id="text_44">
     <!-- [11] 12.47 -->
     <g transform="translate(445.173527 79.487812)scale(0.08 -0.08)">
      <use xlink:href="#DejaVuSans-91"/>
      <use x="39.013672" xlink:href="#DejaVuSans-49"/>
      <use x="102.636719" xlink:href="#DejaVuSans-49"/>
      <use x="166.259766" xlink:href="#DejaVuSans-93"/>
      <use x="205.273438" xlink:href="#DejaVuSans-32"/>
      <use x="237.060547" xlink:href="#DejaVuSans-49"/>
      <use x="300.683594" xlink:href="#DejaVuSans-50"/>
      <use x="364.306641" xlink:href="#DejaVuSans-46"/>
      <use x="396.09375" xlink:href="#DejaVuSans-52"/>
      <use x="459.716797" xlink:href="#DejaVuSans-55"/>
     </g>
    </g>
    <g id="PathCollection_48">
     <g>
      <use style="fill:#ff0000;stroke:#000000;" x="430.773527" xlink:href="#m83020a6cc4" y="89.130312"/>
     </g>
    </g>
    <g id="text_45">
     <!-- [12] 12.46 -->
     <g transform="translate(445.173527 91.230312)scale(0.08 -0.08)">
      <use xlink:href="#DejaVuSans-91"/>
      <use x="39.013672" xlink:href="#DejaVuSans-49"/>
      <use x="102.636719" xlink:href="#DejaVuSans-50"/>
      <use x="166.259766" xlink:href="#DejaVuSans-93"/>
      <use x="205.273438" xlink:href="#DejaVuSans-32"/>
      <use x="237.060547" xlink:href="#DejaVuSans-49"/>
      <use x="300.683594" xlink:href="#DejaVuSans-50"/>
      <use x="364.306641" xlink:href="#DejaVuSans-46"/>
      <use x="396.09375" xlink:href="#DejaVuSans-52"/>
      <use x="459.716797" xlink:href="#DejaVuSans-54"/>
     </g>
    </g>
   </g>
  </g>
  <g id="text_46">
   <!-- A -->
   <g transform="translate(7.2 14.798437)scale(0.1 -0.1)">
    <use xlink:href="#DejaVuSans-65"/>
   </g>
  </g>
  <g id="text_47">
   <!-- B -->
   <defs>
    <path d="M 19.671875 34.8125 
L 19.671875 8.109375 
L 35.5 8.109375 
Q 43.453125 8.109375 47.28125 11.40625 
Q 51.125 14.703125 51.125 21.484375 
Q 51.125 28.328125 47.28125 31.5625 
Q 43.453125 34.8125 35.5 34.8125 
z
M 19.671875 64.796875 
L 19.671875 42.828125 
L 34.28125 42.828125 
Q 41.5 42.828125 45.03125 45.53125 
Q 48.578125 48.25 48.578125 53.8125 
Q 48.578125 59.328125 45.03125 62.0625 
Q 41.5 64.796875 34.28125 64.796875 
z
M 9.8125 72.90625 
L 35.015625 72.90625 
Q 46.296875 72.90625 52.390625 68.21875 
Q 58.5 63.53125 58.5 54.890625 
Q 58.5 48.1875 55.375 44.234375 
Q 52.25 40.28125 46.1875 39.3125 
Q 53.46875 37.75 57.5 32.78125 
Q 61.53125 27.828125 61.53125 20.40625 
Q 61.53125 10.640625 54.890625 5.3125 
Q 48.25 0 35.984375 0 
L 9.8125 0 
z
" id="DejaVuSans-66"/>
   </defs>
   <g transform="translate(320.389844 14.798437)scale(0.1 -0.1)">
    <use xlink:href="#DejaVuSans-66"/>
   </g>
  </g>
 </g>
 <defs>
  <clipPath id="pc98cac0a0c">
   <rect height="277.2" width="265.714286" x="43.020313" y="19.239062"/>
  </clipPath>
  <clipPath id="pee32694005">
   <rect height="277.2" width="265.714286" x="335.306027" y="19.239062"/>
  </clipPath>
 </defs>
</svg>
