<?xml version="1.0" encoding="utf-8" standalone="no"?>
<!DOCTYPE svg PUBLIC "-//W3C//DTD SVG 1.1//EN"
  "http://www.w3.org/Graphics/SVG/1.1/DTD/svg11.dtd">
<!-- Created with matplotlib (https://matplotlib.org/) -->
<svg height="190.91087pt" version="1.1" viewBox="0 0 702.902019 190.91087" width="702.902019pt" xmlns="http://www.w3.org/2000/svg" xmlns:xlink="http://www.w3.org/1999/xlink">
 <defs>
  <style type="text/css">
*{stroke-linecap:butt;stroke-linejoin:round;}
  </style>
 </defs>
 <g id="figure_1">
  <g id="patch_1">
   <path d="M 0 190.91087 
L 702.902019 190.91087 
L 702.902019 0 
L 0 0 
z
" style="fill:#ffffff;"/>
  </g>
  <g id="axes_1">
   <g id="patch_2">
    <path d="M 163.802019 105.409861 
C 163.802019 95.127466 161.776612 84.945055 157.84171 75.445361 
C 153.906808 65.945668 148.138935 57.313436 140.868184 50.042686 
C 133.597434 42.771935 124.965202 37.004062 115.465509 33.06916 
C 105.965815 29.134258 95.783404 27.108851 85.50101 27.108851 
C 75.218615 27.108851 65.036204 29.134258 55.53651 33.06916 
C 46.036817 37.004062 37.404586 42.771935 30.133835 50.042686 
C 22.863084 57.313436 17.095211 65.945668 13.160309 75.445361 
C 9.225407 84.945055 7.2 95.127466 7.2 105.409861 
C 7.2 115.692255 9.225407 125.874666 13.160309 135.37436 
C 17.095211 144.874053 22.863084 153.506285 30.133835 160.777035 
C 37.404586 168.047786 46.036817 173.815659 55.53651 177.750561 
C 65.036204 181.685463 75.218615 183.71087 85.50101 183.71087 
C 95.783404 183.71087 105.965815 181.685463 115.465509 177.750561 
C 124.965202 173.815659 133.597434 168.047786 140.868184 160.777035 
C 148.138935 153.506285 153.906808 144.874053 157.84171 135.37436 
C 161.776612 125.874666 163.802019 115.692255 163.802019 105.409861 
M 85.50101 105.409861 
C 85.50101 105.409861 85.50101 105.409861 85.50101 105.409861 
C 85.50101 105.409861 85.50101 105.409861 85.50101 105.409861 
C 85.50101 105.409861 85.50101 105.409861 85.50101 105.409861 
C 85.50101 105.409861 85.50101 105.409861 85.50101 105.409861 
C 85.50101 105.409861 85.50101 105.409861 85.50101 105.409861 
C 85.50101 105.409861 85.50101 105.409861 85.50101 105.409861 
C 85.50101 105.409861 85.50101 105.409861 85.50101 105.409861 
C 85.50101 105.409861 85.50101 105.409861 85.50101 105.409861 
C 85.50101 105.409861 85.50101 105.409861 85.50101 105.409861 
C 85.50101 105.409861 85.50101 105.409861 85.50101 105.409861 
C 85.50101 105.409861 85.50101 105.409861 85.50101 105.409861 
C 85.50101 105.409861 85.50101 105.409861 85.50101 105.409861 
C 85.50101 105.409861 85.50101 105.409861 85.50101 105.409861 
C 85.50101 105.409861 85.50101 105.409861 85.50101 105.409861 
C 85.50101 105.409861 85.50101 105.409861 85.50101 105.409861 
C 85.50101 105.409861 85.50101 105.409861 85.50101 105.409861 
M 163.802019 105.409861 
z
" style="fill:#ffffff;"/>
   </g>
   <g id="patch_3">
    <path clip-path="url(#pe825073577)" d="M 140.711137 50.199733 
L 30.133835 50.042686 
L 30.133835 160.777035 
L 140.868184 160.777035 
z
" style="fill:#fcbbae;"/>
   </g>
   <g id="matplotlib.axis_1">
    <g id="xtick_1">
     <g id="line2d_1">
      <path clip-path="url(#pe825073577)" d="M 85.50101 105.409861 
L 140.868184 50.042686 
" style="fill:none;stroke:#000000;stroke-linecap:square;stroke-width:0.8;"/>
     </g>
     <g id="text_1">
      <!-- [C-R] -->
      <defs>
       <path d="M 8.59375 75.984375 
L 29.296875 75.984375 
L 29.296875 69 
L 17.578125 69 
L 17.578125 -6.203125 
L 29.296875 -6.203125 
L 29.296875 -13.1875 
L 8.59375 -13.1875 
z
" id="DejaVuSans-91"/>
       <path d="M 64.40625 67.28125 
L 64.40625 56.890625 
Q 59.421875 61.53125 53.78125 63.8125 
Q 48.140625 66.109375 41.796875 66.109375 
Q 29.296875 66.109375 22.65625 58.46875 
Q 16.015625 50.828125 16.015625 36.375 
Q 16.015625 21.96875 22.65625 14.328125 
Q 29.296875 6.6875 41.796875 6.6875 
Q 48.140625 6.6875 53.78125 8.984375 
Q 59.421875 11.28125 64.40625 15.921875 
L 64.40625 5.609375 
Q 59.234375 2.09375 53.4375 0.328125 
Q 47.65625 -1.421875 41.21875 -1.421875 
Q 24.65625 -1.421875 15.125 8.703125 
Q 5.609375 18.84375 5.609375 36.375 
Q 5.609375 53.953125 15.125 64.078125 
Q 24.65625 74.21875 41.21875 74.21875 
Q 47.75 74.21875 53.53125 72.484375 
Q 59.328125 70.75 64.40625 67.28125 
z
" id="DejaVuSans-67"/>
       <path d="M 4.890625 31.390625 
L 31.203125 31.390625 
L 31.203125 23.390625 
L 4.890625 23.390625 
z
" id="DejaVuSans-45"/>
       <path d="M 44.390625 34.1875 
Q 47.5625 33.109375 50.5625 29.59375 
Q 53.5625 26.078125 56.59375 19.921875 
L 66.609375 0 
L 56 0 
L 46.6875 18.703125 
Q 43.0625 26.03125 39.671875 28.421875 
Q 36.28125 30.8125 30.421875 30.8125 
L 19.671875 30.8125 
L 19.671875 0 
L 9.8125 0 
L 9.8125 72.90625 
L 32.078125 72.90625 
Q 44.578125 72.90625 50.734375 67.671875 
Q 56.890625 62.453125 56.890625 51.90625 
Q 56.890625 45.015625 53.6875 40.46875 
Q 50.484375 35.9375 44.390625 34.1875 
z
M 19.671875 64.796875 
L 19.671875 38.921875 
L 32.078125 38.921875 
Q 39.203125 38.921875 42.84375 42.21875 
Q 46.484375 45.515625 46.484375 51.90625 
Q 46.484375 58.296875 42.84375 61.546875 
Q 39.203125 64.796875 32.078125 64.796875 
z
" id="DejaVuSans-82"/>
       <path d="M 30.421875 75.984375 
L 30.421875 -13.1875 
L 9.71875 -13.1875 
L 9.71875 -6.203125 
L 21.390625 -6.203125 
L 21.390625 69 
L 9.71875 69 
L 9.71875 75.984375 
z
" id="DejaVuSans-93"/>
      </defs>
      <g transform="translate(140.630804 42.350691)scale(0.08 -0.08)">
       <use xlink:href="#DejaVuSans-91"/>
       <use x="39.013672" xlink:href="#DejaVuSans-67"/>
       <use x="108.837891" xlink:href="#DejaVuSans-45"/>
       <use x="144.921875" xlink:href="#DejaVuSans-82"/>
       <use x="214.404297" xlink:href="#DejaVuSans-93"/>
      </g>
     </g>
    </g>
    <g id="xtick_2">
     <g id="line2d_2">
      <path clip-path="url(#pe825073577)" d="M 85.50101 105.409861 
L 30.133835 50.042686 
" style="fill:none;stroke:#000000;stroke-linecap:square;stroke-width:0.8;"/>
     </g>
     <g id="text_2">
      <!-- [C-A] -->
      <defs>
       <path d="M 34.1875 63.1875 
L 20.796875 26.90625 
L 47.609375 26.90625 
z
M 28.609375 72.90625 
L 39.796875 72.90625 
L 67.578125 0 
L 57.328125 0 
L 50.6875 18.703125 
L 17.828125 18.703125 
L 11.1875 0 
L 0.78125 0 
z
" id="DejaVuSans-65"/>
      </defs>
      <g transform="translate(10.14184 42.350691)scale(0.08 -0.08)">
       <use xlink:href="#DejaVuSans-91"/>
       <use x="39.013672" xlink:href="#DejaVuSans-67"/>
       <use x="108.837891" xlink:href="#DejaVuSans-45"/>
       <use x="144.890625" xlink:href="#DejaVuSans-65"/>
       <use x="213.298828" xlink:href="#DejaVuSans-93"/>
      </g>
     </g>
    </g>
    <g id="xtick_3">
     <g id="line2d_3">
      <path clip-path="url(#pe825073577)" d="M 85.50101 105.409861 
L 30.133835 160.777035 
" style="fill:none;stroke:#000000;stroke-linecap:square;stroke-width:0.8;"/>
     </g>
     <g id="text_3">
      <!-- [P-S] -->
      <defs>
       <path d="M 19.671875 64.796875 
L 19.671875 37.40625 
L 32.078125 37.40625 
Q 38.96875 37.40625 42.71875 40.96875 
Q 46.484375 44.53125 46.484375 51.125 
Q 46.484375 57.671875 42.71875 61.234375 
Q 38.96875 64.796875 32.078125 64.796875 
z
M 9.8125 72.90625 
L 32.078125 72.90625 
Q 44.34375 72.90625 50.609375 67.359375 
Q 56.890625 61.8125 56.890625 51.125 
Q 56.890625 40.328125 50.609375 34.8125 
Q 44.34375 29.296875 32.078125 29.296875 
L 19.671875 29.296875 
L 19.671875 0 
L 9.8125 0 
z
" id="DejaVuSans-80"/>
       <path d="M 53.515625 70.515625 
L 53.515625 60.890625 
Q 47.90625 63.578125 42.921875 64.890625 
Q 37.9375 66.21875 33.296875 66.21875 
Q 25.25 66.21875 20.875 63.09375 
Q 16.5 59.96875 16.5 54.203125 
Q 16.5 49.359375 19.40625 46.890625 
Q 22.3125 44.4375 30.421875 42.921875 
L 36.375 41.703125 
Q 47.40625 39.59375 52.65625 34.296875 
Q 57.90625 29 57.90625 20.125 
Q 57.90625 9.515625 50.796875 4.046875 
Q 43.703125 -1.421875 29.984375 -1.421875 
Q 24.8125 -1.421875 18.96875 -0.25 
Q 13.140625 0.921875 6.890625 3.21875 
L 6.890625 13.375 
Q 12.890625 10.015625 18.65625 8.296875 
Q 24.421875 6.59375 29.984375 6.59375 
Q 38.421875 6.59375 43.015625 9.90625 
Q 47.609375 13.234375 47.609375 19.390625 
Q 47.609375 24.75 44.3125 27.78125 
Q 41.015625 30.8125 33.5 32.328125 
L 27.484375 33.5 
Q 16.453125 35.6875 11.515625 40.375 
Q 6.59375 45.0625 6.59375 53.421875 
Q 6.59375 63.09375 13.40625 68.65625 
Q 20.21875 74.21875 32.171875 74.21875 
Q 37.3125 74.21875 42.625 73.28125 
Q 47.953125 72.359375 53.515625 70.515625 
z
" id="DejaVuSans-83"/>
      </defs>
      <g transform="translate(10.719965 172.88403)scale(0.08 -0.08)">
       <use xlink:href="#DejaVuSans-91"/>
       <use x="39.013672" xlink:href="#DejaVuSans-80"/>
       <use x="99.285156" xlink:href="#DejaVuSans-45"/>
       <use x="135.369141" xlink:href="#DejaVuSans-83"/>
       <use x="198.845703" xlink:href="#DejaVuSans-93"/>
      </g>
     </g>
    </g>
    <g id="xtick_4">
     <g id="line2d_4">
      <path clip-path="url(#pe825073577)" d="M 85.50101 105.409861 
L 140.868184 160.777035 
" style="fill:none;stroke:#000000;stroke-linecap:square;stroke-width:0.8;"/>
     </g>
     <g id="text_4">
      <!-- [R-A] -->
      <g transform="translate(140.691429 172.88403)scale(0.08 -0.08)">
       <use xlink:href="#DejaVuSans-91"/>
       <use x="39.013672" xlink:href="#DejaVuSans-82"/>
       <use x="108.433594" xlink:href="#DejaVuSans-45"/>
       <use x="144.486328" xlink:href="#DejaVuSans-65"/>
       <use x="212.894531" xlink:href="#DejaVuSans-93"/>
      </g>
     </g>
    </g>
   </g>
   <g id="matplotlib.axis_2"/>
   <g id="line2d_5">
    <path clip-path="url(#pe825073577)" d="M 140.711137 50.199733 
L 30.133835 50.042686 
L 30.133835 160.777035 
L 140.868184 160.777035 
L 140.711137 50.199733 
" style="fill:none;stroke:#fe817d;stroke-linecap:square;stroke-width:1.5;"/>
   </g>
   <g id="patch_4">
    <path d="M 163.802019 105.409861 
C 163.802019 95.127466 161.776612 84.945055 157.84171 75.445361 
C 153.906808 65.945668 148.138935 57.313436 140.868184 50.042686 
C 133.597434 42.771935 124.965202 37.004062 115.465509 33.06916 
C 105.965815 29.134258 95.783404 27.108851 85.50101 27.108851 
C 75.218615 27.108851 65.036204 29.134258 55.53651 33.06916 
C 46.036817 37.004062 37.404586 42.771935 30.133835 50.042686 
C 22.863084 57.313436 17.095211 65.945668 13.160309 75.445361 
C 9.225407 84.945055 7.2 95.127466 7.2 105.409861 
C 7.2 115.692255 9.225407 125.874666 13.160309 135.37436 
C 17.095211 144.874053 22.863084 153.506285 30.133835 160.777035 
C 37.404586 168.047786 46.036817 173.815659 55.53651 177.750561 
C 65.036204 181.685463 75.218615 183.71087 85.50101 183.71087 
C 95.783404 183.71087 105.965815 181.685463 115.465509 177.750561 
C 124.965202 173.815659 133.597434 168.047786 140.868184 160.777035 
C 148.138935 153.506285 153.906808 144.874053 157.84171 135.37436 
C 161.776612 125.874666 163.802019 115.692255 163.802019 105.409861 
" style="fill:none;stroke:#000000;stroke-linecap:square;stroke-linejoin:miter;stroke-width:0.8;"/>
   </g>
   <g id="text_5">
    <!-- SPIDER-WEB -->
    <defs>
     <path d="M 9.8125 72.90625 
L 19.671875 72.90625 
L 19.671875 0 
L 9.8125 0 
z
" id="DejaVuSans-73"/>
     <path d="M 19.671875 64.796875 
L 19.671875 8.109375 
L 31.59375 8.109375 
Q 46.6875 8.109375 53.6875 14.9375 
Q 60.6875 21.78125 60.6875 36.53125 
Q 60.6875 51.171875 53.6875 57.984375 
Q 46.6875 64.796875 31.59375 64.796875 
z
M 9.8125 72.90625 
L 30.078125 72.90625 
Q 51.265625 72.90625 61.171875 64.09375 
Q 71.09375 55.28125 71.09375 36.53125 
Q 71.09375 17.671875 61.125 8.828125 
Q 51.171875 0 30.078125 0 
L 9.8125 0 
z
" id="DejaVuSans-68"/>
     <path d="M 9.8125 72.90625 
L 55.90625 72.90625 
L 55.90625 64.59375 
L 19.671875 64.59375 
L 19.671875 43.015625 
L 54.390625 43.015625 
L 54.390625 34.71875 
L 19.671875 34.71875 
L 19.671875 8.296875 
L 56.78125 8.296875 
L 56.78125 0 
L 9.8125 0 
z
" id="DejaVuSans-69"/>
     <path d="M 3.328125 72.90625 
L 13.28125 72.90625 
L 28.609375 11.28125 
L 43.890625 72.90625 
L 54.984375 72.90625 
L 70.3125 11.28125 
L 85.59375 72.90625 
L 95.609375 72.90625 
L 77.296875 0 
L 64.890625 0 
L 49.515625 63.28125 
L 33.984375 0 
L 21.578125 0 
z
" id="DejaVuSans-87"/>
     <path d="M 19.671875 34.8125 
L 19.671875 8.109375 
L 35.5 8.109375 
Q 43.453125 8.109375 47.28125 11.40625 
Q 51.125 14.703125 51.125 21.484375 
Q 51.125 28.328125 47.28125 31.5625 
Q 43.453125 34.8125 35.5 34.8125 
z
M 19.671875 64.796875 
L 19.671875 42.828125 
L 34.28125 42.828125 
Q 41.5 42.828125 45.03125 45.53125 
Q 48.578125 48.25 48.578125 53.8125 
Q 48.578125 59.328125 45.03125 62.0625 
Q 41.5 64.796875 34.28125 64.796875 
z
M 9.8125 72.90625 
L 35.015625 72.90625 
Q 46.296875 72.90625 52.390625 68.21875 
Q 58.5 63.53125 58.5 54.890625 
Q 58.5 48.1875 55.375 44.234375 
Q 52.25 40.28125 46.1875 39.3125 
Q 53.46875 37.75 57.5 32.78125 
Q 61.53125 27.828125 61.53125 20.40625 
Q 61.53125 10.640625 54.890625 5.3125 
Q 48.25 0 35.984375 0 
L 9.8125 0 
z
" id="DejaVuSans-66"/>
    </defs>
    <g transform="translate(60.317885 13.27875)scale(0.08 -0.08)">
     <use xlink:href="#DejaVuSans-83"/>
     <use x="63.476562" xlink:href="#DejaVuSans-80"/>
     <use x="123.779297" xlink:href="#DejaVuSans-73"/>
     <use x="153.271484" xlink:href="#DejaVuSans-68"/>
     <use x="230.273438" xlink:href="#DejaVuSans-69"/>
     <use x="293.457031" xlink:href="#DejaVuSans-82"/>
     <use x="362.876953" xlink:href="#DejaVuSans-45"/>
     <use x="398.898438" xlink:href="#DejaVuSans-87"/>
     <use x="497.775391" xlink:href="#DejaVuSans-69"/>
     <use x="560.958984" xlink:href="#DejaVuSans-66"/>
    </g>
   </g>
  </g>
  <g id="axes_2">
   <g id="patch_5">
    <path d="M 341.102019 105.409861 
C 341.102019 95.127466 339.076612 84.945055 335.14171 75.445361 
C 331.206808 65.945668 325.438935 57.313436 318.168184 50.042686 
C 310.897434 42.771935 302.265202 37.004062 292.765509 33.06916 
C 283.265815 29.134258 273.083404 27.108851 262.80101 27.108851 
C 252.518615 27.108851 242.336204 29.134258 232.83651 33.06916 
C 223.336817 37.004062 214.704586 42.771935 207.433835 50.042686 
C 200.163084 57.313436 194.395211 65.945668 190.460309 75.445361 
C 186.525407 84.945055 184.5 95.127466 184.5 105.409861 
C 184.5 115.692255 186.525407 125.874666 190.460309 135.37436 
C 194.395211 144.874053 200.163084 153.506285 207.433835 160.777035 
C 214.704586 168.047786 223.336817 173.815659 232.83651 177.750561 
C 242.336204 181.685463 252.518615 183.71087 262.80101 183.71087 
C 273.083404 183.71087 283.265815 181.685463 292.765509 177.750561 
C 302.265202 173.815659 310.897434 168.047786 318.168184 160.777035 
C 325.438935 153.506285 331.206808 144.874053 335.14171 135.37436 
C 339.076612 125.874666 341.102019 115.692255 341.102019 105.409861 
M 262.80101 105.409861 
C 262.80101 105.409861 262.80101 105.409861 262.80101 105.409861 
C 262.80101 105.409861 262.80101 105.409861 262.80101 105.409861 
C 262.80101 105.409861 262.80101 105.409861 262.80101 105.409861 
C 262.80101 105.409861 262.80101 105.409861 262.80101 105.409861 
C 262.80101 105.409861 262.80101 105.409861 262.80101 105.409861 
C 262.80101 105.409861 262.80101 105.409861 262.80101 105.409861 
C 262.80101 105.409861 262.80101 105.409861 262.80101 105.409861 
C 262.80101 105.409861 262.80101 105.409861 262.80101 105.409861 
C 262.80101 105.409861 262.80101 105.409861 262.80101 105.409861 
C 262.80101 105.409861 262.80101 105.409861 262.80101 105.409861 
C 262.80101 105.409861 262.80101 105.409861 262.80101 105.409861 
C 262.80101 105.409861 262.80101 105.409861 262.80101 105.409861 
C 262.80101 105.409861 262.80101 105.409861 262.80101 105.409861 
C 262.80101 105.409861 262.80101 105.409861 262.80101 105.409861 
C 262.80101 105.409861 262.80101 105.409861 262.80101 105.409861 
C 262.80101 105.409861 262.80101 105.409861 262.80101 105.409861 
M 341.102019 105.409861 
z
" style="fill:#ffffff;"/>
   </g>
   <g id="patch_6">
    <path clip-path="url(#p385a86909e)" d="M 316.815602 51.395268 
L 207.433835 50.042686 
L 228.414403 139.796467 
L 318.168184 160.777035 
z
" style="fill:#ffdb75;"/>
   </g>
   <g id="matplotlib.axis_3">
    <g id="xtick_5">
     <g id="line2d_6">
      <path clip-path="url(#p385a86909e)" d="M 262.80101 105.409861 
L 318.168184 50.042686 
" style="fill:none;stroke:#000000;stroke-linecap:square;stroke-width:0.8;"/>
     </g>
     <g id="text_6">
      <!-- [C-R] -->
      <g transform="translate(317.930804 42.350691)scale(0.08 -0.08)">
       <use xlink:href="#DejaVuSans-91"/>
       <use x="39.013672" xlink:href="#DejaVuSans-67"/>
       <use x="108.837891" xlink:href="#DejaVuSans-45"/>
       <use x="144.921875" xlink:href="#DejaVuSans-82"/>
       <use x="214.404297" xlink:href="#DejaVuSans-93"/>
      </g>
     </g>
    </g>
    <g id="xtick_6">
     <g id="line2d_7">
      <path clip-path="url(#p385a86909e)" d="M 262.80101 105.409861 
L 207.433835 50.042686 
" style="fill:none;stroke:#000000;stroke-linecap:square;stroke-width:0.8;"/>
     </g>
     <g id="text_7">
      <!-- [C-A] -->
      <g transform="translate(187.44184 42.350691)scale(0.08 -0.08)">
       <use xlink:href="#DejaVuSans-91"/>
       <use x="39.013672" xlink:href="#DejaVuSans-67"/>
       <use x="108.837891" xlink:href="#DejaVuSans-45"/>
       <use x="144.890625" xlink:href="#DejaVuSans-65"/>
       <use x="213.298828" xlink:href="#DejaVuSans-93"/>
      </g>
     </g>
    </g>
    <g id="xtick_7">
     <g id="line2d_8">
      <path clip-path="url(#p385a86909e)" d="M 262.80101 105.409861 
L 207.433835 160.777035 
" style="fill:none;stroke:#000000;stroke-linecap:square;stroke-width:0.8;"/>
     </g>
     <g id="text_8">
      <!-- [P-S] -->
      <g transform="translate(188.019965 172.88403)scale(0.08 -0.08)">
       <use xlink:href="#DejaVuSans-91"/>
       <use x="39.013672" xlink:href="#DejaVuSans-80"/>
       <use x="99.285156" xlink:href="#DejaVuSans-45"/>
       <use x="135.369141" xlink:href="#DejaVuSans-83"/>
       <use x="198.845703" xlink:href="#DejaVuSans-93"/>
      </g>
     </g>
    </g>
    <g id="xtick_8">
     <g id="line2d_9">
      <path clip-path="url(#p385a86909e)" d="M 262.80101 105.409861 
L 318.168184 160.777035 
" style="fill:none;stroke:#000000;stroke-linecap:square;stroke-width:0.8;"/>
     </g>
     <g id="text_9">
      <!-- [R-A] -->
      <g transform="translate(317.991429 172.88403)scale(0.08 -0.08)">
       <use xlink:href="#DejaVuSans-91"/>
       <use x="39.013672" xlink:href="#DejaVuSans-82"/>
       <use x="108.433594" xlink:href="#DejaVuSans-45"/>
       <use x="144.486328" xlink:href="#DejaVuSans-65"/>
       <use x="212.894531" xlink:href="#DejaVuSans-93"/>
      </g>
     </g>
    </g>
   </g>
   <g id="matplotlib.axis_4"/>
   <g id="line2d_10">
    <path clip-path="url(#p385a86909e)" d="M 316.815602 51.395268 
L 207.433835 50.042686 
L 228.414403 139.796467 
L 318.168184 160.777035 
L 316.815602 51.395268 
" style="fill:none;stroke:#ffc000;stroke-linecap:square;stroke-width:1.5;"/>
   </g>
   <g id="patch_7">
    <path d="M 341.102019 105.409861 
C 341.102019 95.127466 339.076612 84.945055 335.14171 75.445361 
C 331.206808 65.945668 325.438935 57.313436 318.168184 50.042686 
C 310.897434 42.771935 302.265202 37.004062 292.765509 33.06916 
C 283.265815 29.134258 273.083404 27.108851 262.80101 27.108851 
C 252.518615 27.108851 242.336204 29.134258 232.83651 33.06916 
C 223.336817 37.004062 214.704586 42.771935 207.433835 50.042686 
C 200.163084 57.313436 194.395211 65.945668 190.460309 75.445361 
C 186.525407 84.945055 184.5 95.127466 184.5 105.409861 
C 184.5 115.692255 186.525407 125.874666 190.460309 135.37436 
C 194.395211 144.874053 200.163084 153.506285 207.433835 160.777035 
C 214.704586 168.047786 223.336817 173.815659 232.83651 177.750561 
C 242.336204 181.685463 252.518615 183.71087 262.80101 183.71087 
C 273.083404 183.71087 283.265815 181.685463 292.765509 177.750561 
C 302.265202 173.815659 310.897434 168.047786 318.168184 160.777035 
C 325.438935 153.506285 331.206808 144.874053 335.14171 135.37436 
C 339.076612 125.874666 341.102019 115.692255 341.102019 105.409861 
" style="fill:none;stroke:#000000;stroke-linecap:square;stroke-linejoin:miter;stroke-width:0.8;"/>
   </g>
   <g id="text_10">
    <!-- HEDGES -->
    <defs>
     <path d="M 9.8125 72.90625 
L 19.671875 72.90625 
L 19.671875 43.015625 
L 55.515625 43.015625 
L 55.515625 72.90625 
L 65.375 72.90625 
L 65.375 0 
L 55.515625 0 
L 55.515625 34.71875 
L 19.671875 34.71875 
L 19.671875 0 
L 9.8125 0 
z
" id="DejaVuSans-72"/>
     <path d="M 59.515625 10.40625 
L 59.515625 29.984375 
L 43.40625 29.984375 
L 43.40625 38.09375 
L 69.28125 38.09375 
L 69.28125 6.78125 
Q 63.578125 2.734375 56.6875 0.65625 
Q 49.8125 -1.421875 42 -1.421875 
Q 24.90625 -1.421875 15.25 8.5625 
Q 5.609375 18.5625 5.609375 36.375 
Q 5.609375 54.25 15.25 64.234375 
Q 24.90625 74.21875 42 74.21875 
Q 49.125 74.21875 55.546875 72.453125 
Q 61.96875 70.703125 67.390625 67.28125 
L 67.390625 56.78125 
Q 61.921875 61.421875 55.765625 63.765625 
Q 49.609375 66.109375 42.828125 66.109375 
Q 29.4375 66.109375 22.71875 58.640625 
Q 16.015625 51.171875 16.015625 36.375 
Q 16.015625 21.625 22.71875 14.15625 
Q 29.4375 6.6875 42.828125 6.6875 
Q 48.046875 6.6875 52.140625 7.59375 
Q 56.25 8.5 59.515625 10.40625 
z
" id="DejaVuSans-71"/>
    </defs>
    <g transform="translate(246.019135 13.27875)scale(0.08 -0.08)">
     <use xlink:href="#DejaVuSans-72"/>
     <use x="75.195312" xlink:href="#DejaVuSans-69"/>
     <use x="138.378906" xlink:href="#DejaVuSans-68"/>
     <use x="215.380859" xlink:href="#DejaVuSans-71"/>
     <use x="292.871094" xlink:href="#DejaVuSans-69"/>
     <use x="356.054688" xlink:href="#DejaVuSans-83"/>
    </g>
   </g>
  </g>
  <g id="axes_3">
   <g id="patch_8">
    <path d="M 518.402019 105.409861 
C 518.402019 95.127466 516.376612 84.945055 512.44171 75.445361 
C 508.506808 65.945668 502.738935 57.313436 495.468184 50.042686 
C 488.197434 42.771935 479.565202 37.004062 470.065509 33.06916 
C 460.565815 29.134258 450.383404 27.108851 440.10101 27.108851 
C 429.818615 27.108851 419.636204 29.134258 410.13651 33.06916 
C 400.636817 37.004062 392.004586 42.771935 384.733835 50.042686 
C 377.463084 57.313436 371.695211 65.945668 367.760309 75.445361 
C 363.825407 84.945055 361.8 95.127466 361.8 105.409861 
C 361.8 115.692255 363.825407 125.874666 367.760309 135.37436 
C 371.695211 144.874053 377.463084 153.506285 384.733835 160.777035 
C 392.004586 168.047786 400.636817 173.815659 410.13651 177.750561 
C 419.636204 181.685463 429.818615 183.71087 440.10101 183.71087 
C 450.383404 183.71087 460.565815 181.685463 470.065509 177.750561 
C 479.565202 173.815659 488.197434 168.047786 495.468184 160.777035 
C 502.738935 153.506285 508.506808 144.874053 512.44171 135.37436 
C 516.376612 125.874666 518.402019 115.692255 518.402019 105.409861 
M 440.10101 105.409861 
C 440.10101 105.409861 440.10101 105.409861 440.10101 105.409861 
C 440.10101 105.409861 440.10101 105.409861 440.10101 105.409861 
C 440.10101 105.409861 440.10101 105.409861 440.10101 105.409861 
C 440.10101 105.409861 440.10101 105.409861 440.10101 105.409861 
C 440.10101 105.409861 440.10101 105.409861 440.10101 105.409861 
C 440.10101 105.409861 440.10101 105.409861 440.10101 105.409861 
C 440.10101 105.409861 440.10101 105.409861 440.10101 105.409861 
C 440.10101 105.409861 440.10101 105.409861 440.10101 105.409861 
C 440.10101 105.409861 440.10101 105.409861 440.10101 105.409861 
C 440.10101 105.409861 440.10101 105.409861 440.10101 105.409861 
C 440.10101 105.409861 440.10101 105.409861 440.10101 105.409861 
C 440.10101 105.409861 440.10101 105.409861 440.10101 105.409861 
C 440.10101 105.409861 440.10101 105.409861 440.10101 105.409861 
C 440.10101 105.409861 440.10101 105.409861 440.10101 105.409861 
C 440.10101 105.409861 440.10101 105.409861 440.10101 105.409861 
C 440.10101 105.409861 440.10101 105.409861 440.10101 105.409861 
M 518.402019 105.409861 
z
" style="fill:#ffffff;"/>
   </g>
   <g id="patch_9">
    <path clip-path="url(#p155a2c685e)" d="M 489.407185 56.103685 
L 421.645285 86.954136 
L 440.10101 105.409861 
L 440.10101 105.409861 
z
" style="fill:#d3c2fe;"/>
   </g>
   <g id="matplotlib.axis_5">
    <g id="xtick_9">
     <g id="line2d_11">
      <path clip-path="url(#p155a2c685e)" d="M 440.10101 105.409861 
L 495.468184 50.042686 
" style="fill:none;stroke:#000000;stroke-linecap:square;stroke-width:0.8;"/>
     </g>
     <g id="text_11">
      <!-- [C-R] -->
      <g transform="translate(495.230804 42.350691)scale(0.08 -0.08)">
       <use xlink:href="#DejaVuSans-91"/>
       <use x="39.013672" xlink:href="#DejaVuSans-67"/>
       <use x="108.837891" xlink:href="#DejaVuSans-45"/>
       <use x="144.921875" xlink:href="#DejaVuSans-82"/>
       <use x="214.404297" xlink:href="#DejaVuSans-93"/>
      </g>
     </g>
    </g>
    <g id="xtick_10">
     <g id="line2d_12">
      <path clip-path="url(#p155a2c685e)" d="M 440.10101 105.409861 
L 384.733835 50.042686 
" style="fill:none;stroke:#000000;stroke-linecap:square;stroke-width:0.8;"/>
     </g>
     <g id="text_12">
      <!-- [C-A] -->
      <g transform="translate(364.74184 42.350691)scale(0.08 -0.08)">
       <use xlink:href="#DejaVuSans-91"/>
       <use x="39.013672" xlink:href="#DejaVuSans-67"/>
       <use x="108.837891" xlink:href="#DejaVuSans-45"/>
       <use x="144.890625" xlink:href="#DejaVuSans-65"/>
       <use x="213.298828" xlink:href="#DejaVuSans-93"/>
      </g>
     </g>
    </g>
    <g id="xtick_11">
     <g id="line2d_13">
      <path clip-path="url(#p155a2c685e)" d="M 440.10101 105.409861 
L 384.733835 160.777035 
" style="fill:none;stroke:#000000;stroke-linecap:square;stroke-width:0.8;"/>
     </g>
     <g id="text_13">
      <!-- [P-S] -->
      <g transform="translate(365.319965 172.88403)scale(0.08 -0.08)">
       <use xlink:href="#DejaVuSans-91"/>
       <use x="39.013672" xlink:href="#DejaVuSans-80"/>
       <use x="99.285156" xlink:href="#DejaVuSans-45"/>
       <use x="135.369141" xlink:href="#DejaVuSans-83"/>
       <use x="198.845703" xlink:href="#DejaVuSans-93"/>
      </g>
     </g>
    </g>
    <g id="xtick_12">
     <g id="line2d_14">
      <path clip-path="url(#p155a2c685e)" d="M 440.10101 105.409861 
L 495.468184 160.777035 
" style="fill:none;stroke:#000000;stroke-linecap:square;stroke-width:0.8;"/>
     </g>
     <g id="text_14">
      <!-- [R-A] -->
      <g transform="translate(495.291429 172.88403)scale(0.08 -0.08)">
       <use xlink:href="#DejaVuSans-91"/>
       <use x="39.013672" xlink:href="#DejaVuSans-82"/>
       <use x="108.433594" xlink:href="#DejaVuSans-45"/>
       <use x="144.486328" xlink:href="#DejaVuSans-65"/>
       <use x="212.894531" xlink:href="#DejaVuSans-93"/>
      </g>
     </g>
    </g>
   </g>
   <g id="matplotlib.axis_6"/>
   <g id="line2d_15">
    <path clip-path="url(#p155a2c685e)" d="M 489.407185 56.103685 
L 421.645285 86.954136 
L 440.10101 105.409861 
L 440.10101 105.409861 
L 489.407185 56.103685 
" style="fill:none;stroke:#ad94ff;stroke-linecap:square;stroke-width:1.5;"/>
   </g>
   <g id="patch_10">
    <path d="M 518.402019 105.409861 
C 518.402019 95.127466 516.376612 84.945055 512.44171 75.445361 
C 508.506808 65.945668 502.738935 57.313436 495.468184 50.042686 
C 488.197434 42.771935 479.565202 37.004062 470.065509 33.06916 
C 460.565815 29.134258 450.383404 27.108851 440.10101 27.108851 
C 429.818615 27.108851 419.636204 29.134258 410.13651 33.06916 
C 400.636817 37.004062 392.004586 42.771935 384.733835 50.042686 
C 377.463084 57.313436 371.695211 65.945668 367.760309 75.445361 
C 363.825407 84.945055 361.8 95.127466 361.8 105.409861 
C 361.8 115.692255 363.825407 125.874666 367.760309 135.37436 
C 371.695211 144.874053 377.463084 153.506285 384.733835 160.777035 
C 392.004586 168.047786 400.636817 173.815659 410.13651 177.750561 
C 419.636204 181.685463 429.818615 183.71087 440.10101 183.71087 
C 450.383404 183.71087 460.565815 181.685463 470.065509 177.750561 
C 479.565202 173.815659 488.197434 168.047786 495.468184 160.777035 
C 502.738935 153.506285 508.506808 144.874053 512.44171 135.37436 
C 516.376612 125.874666 518.402019 115.692255 518.402019 105.409861 
" style="fill:none;stroke:#000000;stroke-linecap:square;stroke-linejoin:miter;stroke-width:0.8;"/>
   </g>
   <g id="text_15">
    <!-- DNA Fountain -->
    <defs>
     <path d="M 9.8125 72.90625 
L 23.09375 72.90625 
L 55.421875 11.921875 
L 55.421875 72.90625 
L 64.984375 72.90625 
L 64.984375 0 
L 51.703125 0 
L 19.390625 60.984375 
L 19.390625 0 
L 9.8125 0 
z
" id="DejaVuSans-78"/>
     <path id="DejaVuSans-32"/>
     <path d="M 9.8125 72.90625 
L 51.703125 72.90625 
L 51.703125 64.59375 
L 19.671875 64.59375 
L 19.671875 43.109375 
L 48.578125 43.109375 
L 48.578125 34.8125 
L 19.671875 34.8125 
L 19.671875 0 
L 9.8125 0 
z
" id="DejaVuSans-70"/>
     <path d="M 30.609375 48.390625 
Q 23.390625 48.390625 19.1875 42.75 
Q 14.984375 37.109375 14.984375 27.296875 
Q 14.984375 17.484375 19.15625 11.84375 
Q 23.34375 6.203125 30.609375 6.203125 
Q 37.796875 6.203125 41.984375 11.859375 
Q 46.1875 17.53125 46.1875 27.296875 
Q 46.1875 37.015625 41.984375 42.703125 
Q 37.796875 48.390625 30.609375 48.390625 
z
M 30.609375 56 
Q 42.328125 56 49.015625 48.375 
Q 55.71875 40.765625 55.71875 27.296875 
Q 55.71875 13.875 49.015625 6.21875 
Q 42.328125 -1.421875 30.609375 -1.421875 
Q 18.84375 -1.421875 12.171875 6.21875 
Q 5.515625 13.875 5.515625 27.296875 
Q 5.515625 40.765625 12.171875 48.375 
Q 18.84375 56 30.609375 56 
z
" id="DejaVuSans-111"/>
     <path d="M 8.5 21.578125 
L 8.5 54.6875 
L 17.484375 54.6875 
L 17.484375 21.921875 
Q 17.484375 14.15625 20.5 10.265625 
Q 23.53125 6.390625 29.59375 6.390625 
Q 36.859375 6.390625 41.078125 11.03125 
Q 45.3125 15.671875 45.3125 23.6875 
L 45.3125 54.6875 
L 54.296875 54.6875 
L 54.296875 0 
L 45.3125 0 
L 45.3125 8.40625 
Q 42.046875 3.421875 37.71875 1 
Q 33.40625 -1.421875 27.6875 -1.421875 
Q 18.265625 -1.421875 13.375 4.4375 
Q 8.5 10.296875 8.5 21.578125 
z
M 31.109375 56 
z
" id="DejaVuSans-117"/>
     <path d="M 54.890625 33.015625 
L 54.890625 0 
L 45.90625 0 
L 45.90625 32.71875 
Q 45.90625 40.484375 42.875 44.328125 
Q 39.84375 48.1875 33.796875 48.1875 
Q 26.515625 48.1875 22.3125 43.546875 
Q 18.109375 38.921875 18.109375 30.90625 
L 18.109375 0 
L 9.078125 0 
L 9.078125 54.6875 
L 18.109375 54.6875 
L 18.109375 46.1875 
Q 21.34375 51.125 25.703125 53.5625 
Q 30.078125 56 35.796875 56 
Q 45.21875 56 50.046875 50.171875 
Q 54.890625 44.34375 54.890625 33.015625 
z
" id="DejaVuSans-110"/>
     <path d="M 18.3125 70.21875 
L 18.3125 54.6875 
L 36.8125 54.6875 
L 36.8125 47.703125 
L 18.3125 47.703125 
L 18.3125 18.015625 
Q 18.3125 11.328125 20.140625 9.421875 
Q 21.96875 7.515625 27.59375 7.515625 
L 36.8125 7.515625 
L 36.8125 0 
L 27.59375 0 
Q 17.1875 0 13.234375 3.875 
Q 9.28125 7.765625 9.28125 18.015625 
L 9.28125 47.703125 
L 2.6875 47.703125 
L 2.6875 54.6875 
L 9.28125 54.6875 
L 9.28125 70.21875 
z
" id="DejaVuSans-116"/>
     <path d="M 34.28125 27.484375 
Q 23.390625 27.484375 19.1875 25 
Q 14.984375 22.515625 14.984375 16.5 
Q 14.984375 11.71875 18.140625 8.90625 
Q 21.296875 6.109375 26.703125 6.109375 
Q 34.1875 6.109375 38.703125 11.40625 
Q 43.21875 16.703125 43.21875 25.484375 
L 43.21875 27.484375 
z
M 52.203125 31.203125 
L 52.203125 0 
L 43.21875 0 
L 43.21875 8.296875 
Q 40.140625 3.328125 35.546875 0.953125 
Q 30.953125 -1.421875 24.3125 -1.421875 
Q 15.921875 -1.421875 10.953125 3.296875 
Q 6 8.015625 6 15.921875 
Q 6 25.140625 12.171875 29.828125 
Q 18.359375 34.515625 30.609375 34.515625 
L 43.21875 34.515625 
L 43.21875 35.40625 
Q 43.21875 41.609375 39.140625 45 
Q 35.0625 48.390625 27.6875 48.390625 
Q 23 48.390625 18.546875 47.265625 
Q 14.109375 46.140625 10.015625 43.890625 
L 10.015625 52.203125 
Q 14.9375 54.109375 19.578125 55.046875 
Q 24.21875 56 28.609375 56 
Q 40.484375 56 46.34375 49.84375 
Q 52.203125 43.703125 52.203125 31.203125 
z
" id="DejaVuSans-97"/>
     <path d="M 9.421875 54.6875 
L 18.40625 54.6875 
L 18.40625 0 
L 9.421875 0 
z
M 9.421875 75.984375 
L 18.40625 75.984375 
L 18.40625 64.59375 
L 9.421875 64.59375 
z
" id="DejaVuSans-105"/>
    </defs>
    <g transform="translate(412.539135 13.27875)scale(0.08 -0.08)">
     <use xlink:href="#DejaVuSans-68"/>
     <use x="77.001953" xlink:href="#DejaVuSans-78"/>
     <use x="151.806641" xlink:href="#DejaVuSans-65"/>
     <use x="220.214844" xlink:href="#DejaVuSans-32"/>
     <use x="252.001953" xlink:href="#DejaVuSans-70"/>
     <use x="309.474609" xlink:href="#DejaVuSans-111"/>
     <use x="370.65625" xlink:href="#DejaVuSans-117"/>
     <use x="434.035156" xlink:href="#DejaVuSans-110"/>
     <use x="497.414062" xlink:href="#DejaVuSans-116"/>
     <use x="536.623047" xlink:href="#DejaVuSans-97"/>
     <use x="597.902344" xlink:href="#DejaVuSans-105"/>
     <use x="625.685547" xlink:href="#DejaVuSans-110"/>
    </g>
   </g>
  </g>
  <g id="axes_4">
   <g id="patch_11">
    <path d="M 695.702019 105.409861 
C 695.702019 95.127466 693.676612 84.945055 689.74171 75.445361 
C 685.806808 65.945668 680.038935 57.313436 672.768184 50.042686 
C 665.497434 42.771935 656.865202 37.004062 647.365509 33.06916 
C 637.865815 29.134258 627.683404 27.108851 617.40101 27.108851 
C 607.118615 27.108851 596.936204 29.134258 587.43651 33.06916 
C 577.936817 37.004062 569.304586 42.771935 562.033835 50.042686 
C 554.763084 57.313436 548.995211 65.945668 545.060309 75.445361 
C 541.125407 84.945055 539.1 95.127466 539.1 105.409861 
C 539.1 115.692255 541.125407 125.874666 545.060309 135.37436 
C 548.995211 144.874053 554.763084 153.506285 562.033835 160.777035 
C 569.304586 168.047786 577.936817 173.815659 587.43651 177.750561 
C 596.936204 181.685463 607.118615 183.71087 617.40101 183.71087 
C 627.683404 183.71087 637.865815 181.685463 647.365509 177.750561 
C 656.865202 173.815659 665.497434 168.047786 672.768184 160.777035 
C 680.038935 153.506285 685.806808 144.874053 689.74171 135.37436 
C 693.676612 125.874666 695.702019 115.692255 695.702019 105.409861 
M 617.40101 105.409861 
C 617.40101 105.409861 617.40101 105.409861 617.40101 105.409861 
C 617.40101 105.409861 617.40101 105.409861 617.40101 105.409861 
C 617.40101 105.409861 617.40101 105.409861 617.40101 105.409861 
C 617.40101 105.409861 617.40101 105.409861 617.40101 105.409861 
C 617.40101 105.409861 617.40101 105.409861 617.40101 105.409861 
C 617.40101 105.409861 617.40101 105.409861 617.40101 105.409861 
C 617.40101 105.409861 617.40101 105.409861 617.40101 105.409861 
C 617.40101 105.409861 617.40101 105.409861 617.40101 105.409861 
C 617.40101 105.409861 617.40101 105.409861 617.40101 105.409861 
C 617.40101 105.409861 617.40101 105.409861 617.40101 105.409861 
C 617.40101 105.409861 617.40101 105.409861 617.40101 105.409861 
C 617.40101 105.409861 617.40101 105.409861 617.40101 105.409861 
C 617.40101 105.409861 617.40101 105.409861 617.40101 105.409861 
C 617.40101 105.409861 617.40101 105.409861 617.40101 105.409861 
C 617.40101 105.409861 617.40101 105.409861 617.40101 105.409861 
C 617.40101 105.409861 617.40101 105.409861 617.40101 105.409861 
M 695.702019 105.409861 
z
" style="fill:#ffffff;"/>
   </g>
   <g id="patch_12">
    <path clip-path="url(#p4e2a30a204)" d="M 656.26314 66.547731 
L 562.033835 50.042686 
L 607.646975 115.163895 
L 617.40101 105.409861 
z
" style="fill:#adedd9;"/>
   </g>
   <g id="matplotlib.axis_7">
    <g id="xtick_13">
     <g id="line2d_16">
      <path clip-path="url(#p4e2a30a204)" d="M 617.40101 105.409861 
L 672.768184 50.042686 
" style="fill:none;stroke:#000000;stroke-linecap:square;stroke-width:0.8;"/>
     </g>
     <g id="text_16">
      <!-- [C-R] -->
      <g transform="translate(672.530804 42.350691)scale(0.08 -0.08)">
       <use xlink:href="#DejaVuSans-91"/>
       <use x="39.013672" xlink:href="#DejaVuSans-67"/>
       <use x="108.837891" xlink:href="#DejaVuSans-45"/>
       <use x="144.921875" xlink:href="#DejaVuSans-82"/>
       <use x="214.404297" xlink:href="#DejaVuSans-93"/>
      </g>
     </g>
    </g>
    <g id="xtick_14">
     <g id="line2d_17">
      <path clip-path="url(#p4e2a30a204)" d="M 617.40101 105.409861 
L 562.033835 50.042686 
" style="fill:none;stroke:#000000;stroke-linecap:square;stroke-width:0.8;"/>
     </g>
     <g id="text_17">
      <!-- [C-A] -->
      <g transform="translate(542.04184 42.350691)scale(0.08 -0.08)">
       <use xlink:href="#DejaVuSans-91"/>
       <use x="39.013672" xlink:href="#DejaVuSans-67"/>
       <use x="108.837891" xlink:href="#DejaVuSans-45"/>
       <use x="144.890625" xlink:href="#DejaVuSans-65"/>
       <use x="213.298828" xlink:href="#DejaVuSans-93"/>
      </g>
     </g>
    </g>
    <g id="xtick_15">
     <g id="line2d_18">
      <path clip-path="url(#p4e2a30a204)" d="M 617.40101 105.409861 
L 562.033835 160.777035 
" style="fill:none;stroke:#000000;stroke-linecap:square;stroke-width:0.8;"/>
     </g>
     <g id="text_18">
      <!-- [P-S] -->
      <g transform="translate(542.619965 172.88403)scale(0.08 -0.08)">
       <use xlink:href="#DejaVuSans-91"/>
       <use x="39.013672" xlink:href="#DejaVuSans-80"/>
       <use x="99.285156" xlink:href="#DejaVuSans-45"/>
       <use x="135.369141" xlink:href="#DejaVuSans-83"/>
       <use x="198.845703" xlink:href="#DejaVuSans-93"/>
      </g>
     </g>
    </g>
    <g id="xtick_16">
     <g id="line2d_19">
      <path clip-path="url(#p4e2a30a204)" d="M 617.40101 105.409861 
L 672.768184 160.777035 
" style="fill:none;stroke:#000000;stroke-linecap:square;stroke-width:0.8;"/>
     </g>
     <g id="text_19">
      <!-- [R-A] -->
      <g transform="translate(672.591429 172.88403)scale(0.08 -0.08)">
       <use xlink:href="#DejaVuSans-91"/>
       <use x="39.013672" xlink:href="#DejaVuSans-82"/>
       <use x="108.433594" xlink:href="#DejaVuSans-45"/>
       <use x="144.486328" xlink:href="#DejaVuSans-65"/>
       <use x="212.894531" xlink:href="#DejaVuSans-93"/>
      </g>
     </g>
    </g>
   </g>
   <g id="matplotlib.axis_8"/>
   <g id="line2d_20">
    <path clip-path="url(#p4e2a30a204)" d="M 656.26314 66.547731 
L 562.033835 50.042686 
L 607.646975 115.163895 
L 617.40101 105.409861 
L 656.26314 66.547731 
" style="fill:none;stroke:#00c382;stroke-linecap:square;stroke-width:1.5;"/>
   </g>
   <g id="patch_13">
    <path d="M 695.702019 105.409861 
C 695.702019 95.127466 693.676612 84.945055 689.74171 75.445361 
C 685.806808 65.945668 680.038935 57.313436 672.768184 50.042686 
C 665.497434 42.771935 656.865202 37.004062 647.365509 33.06916 
C 637.865815 29.134258 627.683404 27.108851 617.40101 27.108851 
C 607.118615 27.108851 596.936204 29.134258 587.43651 33.06916 
C 577.936817 37.004062 569.304586 42.771935 562.033835 50.042686 
C 554.763084 57.313436 548.995211 65.945668 545.060309 75.445361 
C 541.125407 84.945055 539.1 95.127466 539.1 105.409861 
C 539.1 115.692255 541.125407 125.874666 545.060309 135.37436 
C 548.995211 144.874053 554.763084 153.506285 562.033835 160.777035 
C 569.304586 168.047786 577.936817 173.815659 587.43651 177.750561 
C 596.936204 181.685463 607.118615 183.71087 617.40101 183.71087 
C 627.683404 183.71087 637.865815 181.685463 647.365509 177.750561 
C 656.865202 173.815659 665.497434 168.047786 672.768184 160.777035 
C 680.038935 153.506285 685.806808 144.874053 689.74171 135.37436 
C 693.676612 125.874666 695.702019 115.692255 695.702019 105.409861 
" style="fill:none;stroke:#000000;stroke-linecap:square;stroke-linejoin:miter;stroke-width:0.8;"/>
   </g>
   <g id="text_20">
    <!-- Yin-Yang Code -->
    <defs>
     <path d="M -0.203125 72.90625 
L 10.40625 72.90625 
L 30.609375 42.921875 
L 50.6875 72.90625 
L 61.28125 72.90625 
L 35.5 34.71875 
L 35.5 0 
L 25.59375 0 
L 25.59375 34.71875 
z
" id="DejaVuSans-89"/>
     <path d="M 45.40625 27.984375 
Q 45.40625 37.75 41.375 43.109375 
Q 37.359375 48.484375 30.078125 48.484375 
Q 22.859375 48.484375 18.828125 43.109375 
Q 14.796875 37.75 14.796875 27.984375 
Q 14.796875 18.265625 18.828125 12.890625 
Q 22.859375 7.515625 30.078125 7.515625 
Q 37.359375 7.515625 41.375 12.890625 
Q 45.40625 18.265625 45.40625 27.984375 
z
M 54.390625 6.78125 
Q 54.390625 -7.171875 48.1875 -13.984375 
Q 42 -20.796875 29.203125 -20.796875 
Q 24.46875 -20.796875 20.265625 -20.09375 
Q 16.0625 -19.390625 12.109375 -17.921875 
L 12.109375 -9.1875 
Q 16.0625 -11.328125 19.921875 -12.34375 
Q 23.78125 -13.375 27.78125 -13.375 
Q 36.625 -13.375 41.015625 -8.765625 
Q 45.40625 -4.15625 45.40625 5.171875 
L 45.40625 9.625 
Q 42.625 4.78125 38.28125 2.390625 
Q 33.9375 0 27.875 0 
Q 17.828125 0 11.671875 7.65625 
Q 5.515625 15.328125 5.515625 27.984375 
Q 5.515625 40.671875 11.671875 48.328125 
Q 17.828125 56 27.875 56 
Q 33.9375 56 38.28125 53.609375 
Q 42.625 51.21875 45.40625 46.390625 
L 45.40625 54.6875 
L 54.390625 54.6875 
z
" id="DejaVuSans-103"/>
     <path d="M 45.40625 46.390625 
L 45.40625 75.984375 
L 54.390625 75.984375 
L 54.390625 0 
L 45.40625 0 
L 45.40625 8.203125 
Q 42.578125 3.328125 38.25 0.953125 
Q 33.9375 -1.421875 27.875 -1.421875 
Q 17.96875 -1.421875 11.734375 6.484375 
Q 5.515625 14.40625 5.515625 27.296875 
Q 5.515625 40.1875 11.734375 48.09375 
Q 17.96875 56 27.875 56 
Q 33.9375 56 38.25 53.625 
Q 42.578125 51.265625 45.40625 46.390625 
z
M 14.796875 27.296875 
Q 14.796875 17.390625 18.875 11.75 
Q 22.953125 6.109375 30.078125 6.109375 
Q 37.203125 6.109375 41.296875 11.75 
Q 45.40625 17.390625 45.40625 27.296875 
Q 45.40625 37.203125 41.296875 42.84375 
Q 37.203125 48.484375 30.078125 48.484375 
Q 22.953125 48.484375 18.875 42.84375 
Q 14.796875 37.203125 14.796875 27.296875 
z
" id="DejaVuSans-100"/>
     <path d="M 56.203125 29.59375 
L 56.203125 25.203125 
L 14.890625 25.203125 
Q 15.484375 15.921875 20.484375 11.0625 
Q 25.484375 6.203125 34.421875 6.203125 
Q 39.59375 6.203125 44.453125 7.46875 
Q 49.3125 8.734375 54.109375 11.28125 
L 54.109375 2.78125 
Q 49.265625 0.734375 44.1875 -0.34375 
Q 39.109375 -1.421875 33.890625 -1.421875 
Q 20.796875 -1.421875 13.15625 6.1875 
Q 5.515625 13.8125 5.515625 26.8125 
Q 5.515625 40.234375 12.765625 48.109375 
Q 20.015625 56 32.328125 56 
Q 43.359375 56 49.78125 48.890625 
Q 56.203125 41.796875 56.203125 29.59375 
z
M 47.21875 32.234375 
Q 47.125 39.59375 43.09375 43.984375 
Q 39.0625 48.390625 32.421875 48.390625 
Q 24.90625 48.390625 20.390625 44.140625 
Q 15.875 39.890625 15.1875 32.171875 
z
" id="DejaVuSans-101"/>
    </defs>
    <g transform="translate(588.404135 13.27875)scale(0.08 -0.08)">
     <use xlink:href="#DejaVuSans-89"/>
     <use x="61.037109" xlink:href="#DejaVuSans-105"/>
     <use x="88.820312" xlink:href="#DejaVuSans-110"/>
     <use x="152.199219" xlink:href="#DejaVuSans-45"/>
     <use x="188.111328" xlink:href="#DejaVuSans-89"/>
     <use x="248.992188" xlink:href="#DejaVuSans-97"/>
     <use x="310.271484" xlink:href="#DejaVuSans-110"/>
     <use x="373.650391" xlink:href="#DejaVuSans-103"/>
     <use x="437.126953" xlink:href="#DejaVuSans-32"/>
     <use x="468.914062" xlink:href="#DejaVuSans-67"/>
     <use x="538.738281" xlink:href="#DejaVuSans-111"/>
     <use x="599.919922" xlink:href="#DejaVuSans-100"/>
     <use x="663.396484" xlink:href="#DejaVuSans-101"/>
    </g>
   </g>
  </g>
 </g>
 <defs>
  <clipPath id="pe825073577">
   <path d="M 163.802019 105.409861 
C 163.802019 95.127466 161.776612 84.945055 157.84171 75.445361 
C 153.906808 65.945668 148.138935 57.313436 140.868184 50.042686 
C 133.597434 42.771935 124.965202 37.004062 115.465509 33.06916 
C 105.965815 29.134258 95.783404 27.108851 85.50101 27.108851 
C 75.218615 27.108851 65.036204 29.134258 55.53651 33.06916 
C 46.036817 37.004062 37.404586 42.771935 30.133835 50.042686 
C 22.863084 57.313436 17.095211 65.945668 13.160309 75.445361 
C 9.225407 84.945055 7.2 95.127466 7.2 105.409861 
C 7.2 115.692255 9.225407 125.874666 13.160309 135.37436 
C 17.095211 144.874053 22.863084 153.506285 30.133835 160.777035 
C 37.404586 168.047786 46.036817 173.815659 55.53651 177.750561 
C 65.036204 181.685463 75.218615 183.71087 85.50101 183.71087 
C 95.783404 183.71087 105.965815 181.685463 115.465509 177.750561 
C 124.965202 173.815659 133.597434 168.047786 140.868184 160.777035 
C 148.138935 153.506285 153.906808 144.874053 157.84171 135.37436 
C 161.776612 125.874666 163.802019 115.692255 163.802019 105.409861 
M 85.50101 105.409861 
C 85.50101 105.409861 85.50101 105.409861 85.50101 105.409861 
C 85.50101 105.409861 85.50101 105.409861 85.50101 105.409861 
C 85.50101 105.409861 85.50101 105.409861 85.50101 105.409861 
C 85.50101 105.409861 85.50101 105.409861 85.50101 105.409861 
C 85.50101 105.409861 85.50101 105.409861 85.50101 105.409861 
C 85.50101 105.409861 85.50101 105.409861 85.50101 105.409861 
C 85.50101 105.409861 85.50101 105.409861 85.50101 105.409861 
C 85.50101 105.409861 85.50101 105.409861 85.50101 105.409861 
C 85.50101 105.409861 85.50101 105.409861 85.50101 105.409861 
C 85.50101 105.409861 85.50101 105.409861 85.50101 105.409861 
C 85.50101 105.409861 85.50101 105.409861 85.50101 105.409861 
C 85.50101 105.409861 85.50101 105.409861 85.50101 105.409861 
C 85.50101 105.409861 85.50101 105.409861 85.50101 105.409861 
C 85.50101 105.409861 85.50101 105.409861 85.50101 105.409861 
C 85.50101 105.409861 85.50101 105.409861 85.50101 105.409861 
C 85.50101 105.409861 85.50101 105.409861 85.50101 105.409861 
M 163.802019 105.409861 
z
"/>
  </clipPath>
  <clipPath id="p385a86909e">
   <path d="M 341.102019 105.409861 
C 341.102019 95.127466 339.076612 84.945055 335.14171 75.445361 
C 331.206808 65.945668 325.438935 57.313436 318.168184 50.042686 
C 310.897434 42.771935 302.265202 37.004062 292.765509 33.06916 
C 283.265815 29.134258 273.083404 27.108851 262.80101 27.108851 
C 252.518615 27.108851 242.336204 29.134258 232.83651 33.06916 
C 223.336817 37.004062 214.704586 42.771935 207.433835 50.042686 
C 200.163084 57.313436 194.395211 65.945668 190.460309 75.445361 
C 186.525407 84.945055 184.5 95.127466 184.5 105.409861 
C 184.5 115.692255 186.525407 125.874666 190.460309 135.37436 
C 194.395211 144.874053 200.163084 153.506285 207.433835 160.777035 
C 214.704586 168.047786 223.336817 173.815659 232.83651 177.750561 
C 242.336204 181.685463 252.518615 183.71087 262.80101 183.71087 
C 273.083404 183.71087 283.265815 181.685463 292.765509 177.750561 
C 302.265202 173.815659 310.897434 168.047786 318.168184 160.777035 
C 325.438935 153.506285 331.206808 144.874053 335.14171 135.37436 
C 339.076612 125.874666 341.102019 115.692255 341.102019 105.409861 
M 262.80101 105.409861 
C 262.80101 105.409861 262.80101 105.409861 262.80101 105.409861 
C 262.80101 105.409861 262.80101 105.409861 262.80101 105.409861 
C 262.80101 105.409861 262.80101 105.409861 262.80101 105.409861 
C 262.80101 105.409861 262.80101 105.409861 262.80101 105.409861 
C 262.80101 105.409861 262.80101 105.409861 262.80101 105.409861 
C 262.80101 105.409861 262.80101 105.409861 262.80101 105.409861 
C 262.80101 105.409861 262.80101 105.409861 262.80101 105.409861 
C 262.80101 105.409861 262.80101 105.409861 262.80101 105.409861 
C 262.80101 105.409861 262.80101 105.409861 262.80101 105.409861 
C 262.80101 105.409861 262.80101 105.409861 262.80101 105.409861 
C 262.80101 105.409861 262.80101 105.409861 262.80101 105.409861 
C 262.80101 105.409861 262.80101 105.409861 262.80101 105.409861 
C 262.80101 105.409861 262.80101 105.409861 262.80101 105.409861 
C 262.80101 105.409861 262.80101 105.409861 262.80101 105.409861 
C 262.80101 105.409861 262.80101 105.409861 262.80101 105.409861 
C 262.80101 105.409861 262.80101 105.409861 262.80101 105.409861 
M 341.102019 105.409861 
z
"/>
  </clipPath>
  <clipPath id="p155a2c685e">
   <path d="M 518.402019 105.409861 
C 518.402019 95.127466 516.376612 84.945055 512.44171 75.445361 
C 508.506808 65.945668 502.738935 57.313436 495.468184 50.042686 
C 488.197434 42.771935 479.565202 37.004062 470.065509 33.06916 
C 460.565815 29.134258 450.383404 27.108851 440.10101 27.108851 
C 429.818615 27.108851 419.636204 29.134258 410.13651 33.06916 
C 400.636817 37.004062 392.004586 42.771935 384.733835 50.042686 
C 377.463084 57.313436 371.695211 65.945668 367.760309 75.445361 
C 363.825407 84.945055 361.8 95.127466 361.8 105.409861 
C 361.8 115.692255 363.825407 125.874666 367.760309 135.37436 
C 371.695211 144.874053 377.463084 153.506285 384.733835 160.777035 
C 392.004586 168.047786 400.636817 173.815659 410.13651 177.750561 
C 419.636204 181.685463 429.818615 183.71087 440.10101 183.71087 
C 450.383404 183.71087 460.565815 181.685463 470.065509 177.750561 
C 479.565202 173.815659 488.197434 168.047786 495.468184 160.777035 
C 502.738935 153.506285 508.506808 144.874053 512.44171 135.37436 
C 516.376612 125.874666 518.402019 115.692255 518.402019 105.409861 
M 440.10101 105.409861 
C 440.10101 105.409861 440.10101 105.409861 440.10101 105.409861 
C 440.10101 105.409861 440.10101 105.409861 440.10101 105.409861 
C 440.10101 105.409861 440.10101 105.409861 440.10101 105.409861 
C 440.10101 105.409861 440.10101 105.409861 440.10101 105.409861 
C 440.10101 105.409861 440.10101 105.409861 440.10101 105.409861 
C 440.10101 105.409861 440.10101 105.409861 440.10101 105.409861 
C 440.10101 105.409861 440.10101 105.409861 440.10101 105.409861 
C 440.10101 105.409861 440.10101 105.409861 440.10101 105.409861 
C 440.10101 105.409861 440.10101 105.409861 440.10101 105.409861 
C 440.10101 105.409861 440.10101 105.409861 440.10101 105.409861 
C 440.10101 105.409861 440.10101 105.409861 440.10101 105.409861 
C 440.10101 105.409861 440.10101 105.409861 440.10101 105.409861 
C 440.10101 105.409861 440.10101 105.409861 440.10101 105.409861 
C 440.10101 105.409861 440.10101 105.409861 440.10101 105.409861 
C 440.10101 105.409861 440.10101 105.409861 440.10101 105.409861 
C 440.10101 105.409861 440.10101 105.409861 440.10101 105.409861 
M 518.402019 105.409861 
z
"/>
  </clipPath>
  <clipPath id="p4e2a30a204">
   <path d="M 695.702019 105.409861 
C 695.702019 95.127466 693.676612 84.945055 689.74171 75.445361 
C 685.806808 65.945668 680.038935 57.313436 672.768184 50.042686 
C 665.497434 42.771935 656.865202 37.004062 647.365509 33.06916 
C 637.865815 29.134258 627.683404 27.108851 617.40101 27.108851 
C 607.118615 27.108851 596.936204 29.134258 587.43651 33.06916 
C 577.936817 37.004062 569.304586 42.771935 562.033835 50.042686 
C 554.763084 57.313436 548.995211 65.945668 545.060309 75.445361 
C 541.125407 84.945055 539.1 95.127466 539.1 105.409861 
C 539.1 115.692255 541.125407 125.874666 545.060309 135.37436 
C 548.995211 144.874053 554.763084 153.506285 562.033835 160.777035 
C 569.304586 168.047786 577.936817 173.815659 587.43651 177.750561 
C 596.936204 181.685463 607.118615 183.71087 617.40101 183.71087 
C 627.683404 183.71087 637.865815 181.685463 647.365509 177.750561 
C 656.865202 173.815659 665.497434 168.047786 672.768184 160.777035 
C 680.038935 153.506285 685.806808 144.874053 689.74171 135.37436 
C 693.676612 125.874666 695.702019 115.692255 695.702019 105.409861 
M 617.40101 105.409861 
C 617.40101 105.409861 617.40101 105.409861 617.40101 105.409861 
C 617.40101 105.409861 617.40101 105.409861 617.40101 105.409861 
C 617.40101 105.409861 617.40101 105.409861 617.40101 105.409861 
C 617.40101 105.409861 617.40101 105.409861 617.40101 105.409861 
C 617.40101 105.409861 617.40101 105.409861 617.40101 105.409861 
C 617.40101 105.409861 617.40101 105.409861 617.40101 105.409861 
C 617.40101 105.409861 617.40101 105.409861 617.40101 105.409861 
C 617.40101 105.409861 617.40101 105.409861 617.40101 105.409861 
C 617.40101 105.409861 617.40101 105.409861 617.40101 105.409861 
C 617.40101 105.409861 617.40101 105.409861 617.40101 105.409861 
C 617.40101 105.409861 617.40101 105.409861 617.40101 105.409861 
C 617.40101 105.409861 617.40101 105.409861 617.40101 105.409861 
C 617.40101 105.409861 617.40101 105.409861 617.40101 105.409861 
C 617.40101 105.409861 617.40101 105.409861 617.40101 105.409861 
C 617.40101 105.409861 617.40101 105.409861 617.40101 105.409861 
C 617.40101 105.409861 617.40101 105.409861 617.40101 105.409861 
M 695.702019 105.409861 
z
"/>
  </clipPath>
 </defs>
</svg>
